<svg xmlns="http://www.w3.org/2000/svg" width="100" height="100"><circle fill="#B2B2B2" cx="50" cy="50" r="50"/><path stroke="#231815" stroke-miterlimit="10" d="M59.958 159.059" fill="none"/><g fill="#221714" stroke="#231815" stroke-miterlimit="10"><path d="M42.124 59.523c-1.699-.861-2.162-2.867-2.337-3.621-.158-.688.166-2.104.869-3.791.033-.078.027-.17-.014-.244-.042-.074-.116-.127-.2-.141-1.11-.18-2.223-.393-3.305-.629-.083-.02-.172.002-.238.057-.067.055-.104.139-.103.225.005.189.121 4.672.627 5.283.555.648 2.953 2.873 3.794 3.154l.695.225.084.012c.111 0 .216-.066.26-.174.057-.135-.001-.291-.132-.356zM45.15 58.777c-.076.016-.142.064-.182.131-.039.066-.049.148-.027.223l.087.342c.028.131.145.223.274.223l.053-.006c.387-.074 1.688-.363 2.2-.953l-.163-.223v-.002l.2.201c.116-.082.153-.238.086-.363-.144-.268-.277-.563-.399-.881-.04-.107-.14-.178-.253-.182-.105-.006-.218.063-.265.164-.363.797-1.094 1.213-1.611 1.326zM54.028 62.492l.028.021.103.045c.273.059.561.113.867.164l.046.004c.063 0 .124-.02.174-.059.062-.049.101-.121.106-.199.026-.334.044-.68.053-1.027.004-.145-.103-.268-.245-.287-1.192-.152-2.184-.578-2.805-.906-.115-.061-.261-.033-.346.066-.085.102-.089.248-.008.354.453.584 1.047 1.258 2.027 1.824zM50.165 52.6c-.053-.059-.122-.094-.211-.094l-.338.004c-.892 0-1.838-.027-2.813-.082-.08-.002-.16.025-.217.084s-.085.137-.079.219c.087 1.109.484 4.85 1.954 6.426 1.124 1.203 2.012 2.154 3.737 2.834l.103.02c.092 0 .18-.045.233-.125.073-.111.06-.256-.032-.352-.464-.477-.82-.967-1.239-1.559-.209-.297-.446-.631-.698-.947-.687-.857-.621-3.77-.33-6.207.01-.081-.015-.161-.07-.221zM43.527 67.488c-.106 2.549-.073 7.813.37 9.23.224.717.294 2.355.196 4.619-.006.123.07.234.187.275l.094.018c.087 0 .171-.041.226-.115.11-.148.23-.295.355-.434.215-.24.459-.49.744-.766.072-.07.1-.209.074-.307.004-.029.367-2.988.005-4.076-.277-.828-.302-2.438-.332-4.33-.011-.691-.022-1.418-.047-2.152l-.051-1.494c-.079-2.43-.17-5.182-.324-7.109-.104-1.316-.295-1.871-.436-2.105-.058-.094-.166-.146-.275-.133-.623.078-1.212.295-1.507.418-.12.051-.19.176-.17.305l.051.316c.217 1.366.918 5.965.84 7.84zM43.445 83.91l-.009.088.172 2.826c.006.104.067.193.16.236.275.131.565.197.861.197.626 0 1.147-.289 1.403-.463.073-.049.119-.131.123-.219.018-.389.068-1.688-.008-2.143l-.03-.264c-.022-.244-.047-.521-.281-.736l-.093-.055-.033-.023-.077-.057c-.176-.09-.403-.15-.716-.191l-.278-.02c-.724.002-1.091.426-1.194.824zM45.329 87.732c.014-.09-.016-.18-.08-.244-.063-.063-.154-.092-.243-.076l-.376.033c-.239 0-.484-.045-.73-.133-.077-.027-.163-.021-.234.02s-.121.111-.137.191c-.261 1.381-.664 3.898-.517 4.582.023.107.107.191.215.215.251.055.655.086 1.107.086.283 0 .569-.014.829-.037.093-.008.176-.063.221-.143.045-.082.047-.18.005-.264-.351-.689-.372-2.23-.06-4.23zM46.005 87.178c-.078-.043-.19-.037-.271 0-.083.039-.142.115-.157.207-.007.041-.708 4.117.153 4.725l.017.02c.053.063.14.094.224.094l.097-.016.146-.109c.478-.707-.04-4.678-.045-4.719-.014-.089-.085-.159-.164-.202zM58.427 60.979l-2.506-.357c-.082-.012-.162.012-.224.064-.062.055-.097.131-.097.213 0 1.943-.23 3.49-.666 4.471l-.339.775-.06.137c-2.047 4.727-4.567 10.311-5.892 11.563-.614.58-1.142 1.061-1.604 1.482-.821.748-1.414 1.289-1.946 1.881-.354.395-.651.832-.882 1.305-.044.09-.036.199.021.281.057.084.149.131.254.121l.073-.008c.11-.014.243-.002.384.016.2.027.377.066.539.119l.087.014c.107 0 .209-.063.256-.164.211-.461.727-1.264 1.802-1.465 1.138-.213 2.691-2.014 3.94-3.461.35-.404.679-.787.967-1.096 1.184-1.268 5.813-12.295 6.132-15.586.015-.149-.091-.284-.239-.305zM69.539 45.623c-1.319.462-2.447.766-2.871.874l-.13.075-.065.066c-.149.153-.344.352-.598.584-.048.044-.078.102-.088.165-.207 1.348-1.269 8.151-1.837 9.741l-.624 1.748-.032.043c-.113.082-2.775 2.012-4.048 2.514l-.04-.014c-.081-.039-.175-.039-.253.002-.08.041-.135.117-.148.205-.048.303-.123.66-.222 1.061-.023.1.007.203.08.273.053.049.122.076.192.076l.083-.014c1.217-.375 2.554-1.127 2.935-1.348l.087-.08c.2-.281 1.286-1.77 3.084-3.566 1.714-1.713 4.15-9.665 4.856-12.062.03-.101.001-.21-.075-.283-.076-.071-.186-.094-.286-.06zM73.746 38.264c-.088-.081-.217-.098-.323-.043-.104.056-.163.172-.146.29.115.774.153 1.273.159 1.388-.031.19-.864 4.7-10.179 6.563-2.846.568-6.644.883-10.695.883-3.063 0-6.083-.182-8.734-.523-5.74-.74-12.805-2.541-13.864-6.916-.012-.051.02-.102.091-.116l.092.071c1.297 5.36 12.49 7.271 22.533 7.271 3.991 0 7.834-.311 10.541-.853 8.661-1.732 9.905-5.887 10.019-6.354l.008-.088c-.047-.591-.538-5.911-3.39-11.001-3.653-6.523-9.682-9.972-17.43-9.972-.425 0-.856.011-1.285.03-7.869.36-13.604 3.331-17.045 8.832-2.535 4.052-2.815 8.061-2.826 8.229-.008.109-.213 2.688-2.669 4.011-1.509.813-4.032 2.172-4.078 3.963-.029 1.146.966 2.339 2.96 3.548 4.469 2.708 14.242 4.829 22.249 4.829l.508-.002.112-.025.028-.018.096-.261-.056.277.11.02c2.377-.045 4.355-.285 5.882-.715 4.102-1.158 7.177-2.611 9.14-4.323l.091-.157.079-.069.162-.075.451-.448.141-.143.044-.024c.081-.021 8.115-2.073 8.476-4.477.288-1.932-.779-3.163-1.252-3.602zM64.808 44.915c-.663.662-1.469 1.136-2.363 1.506l.775-.143c8.661-1.732 9.905-5.887 10.019-6.354l.008-.088c-.047-.591-.538-5.911-3.39-11.001-.7-1.25-1.489-2.385-2.359-3.406 3.51 6.163 2.615 15.175-2.69 19.486zM31.949 37.918s-.141.936-1.825 1.871c0 0 .585 4.211 8.07 5.708 7.485 1.496 14.502 2.151 20.771 1.403.001 0-26.992-1.778-27.016-8.982zM73.814 37.71c-.117-.086-.268-.094-.389-.033-.997-5.632-5.22-20.035-22.306-19.251-10.021.459-15.015 5.191-17.438 9.08-2.625 4.213-2.869 8.257-2.878 8.42-.008.099-.21 2.436-2.424 3.628-1.598.859-4.271 2.3-4.324 4.362-.034 1.345 1.008 2.64 3.185 3.959 2.214 1.342 5.47 2.483 9.085 3.326.026 1.279.153 5.078.743 5.766.551.643 3.054 2.977 4.002 3.293.562.188 1.04.334 1.301.41.296 1.973.751 5.305.688 6.799-.076 1.84-.129 7.725.392 9.389.438 1.402.086 6.012.077 6.125-.346.277-.516.654-.558.906l-.004.084.185 3.041c-1.081 5.422-.493 5.619-.21 5.713.293.098.828.148 1.401.148.714 0 1.487-.078 1.936-.246.683-.256.795-2.092.333-5.455-.01-.07-.044-.131-.087-.184.05-.061.086-.133.09-.213.01-.186.093-1.836-.004-2.42l-.026-.23c-.031-.35-.098-.699-.364-.975.16-.379.577-1.096 1.493-1.266 1.298-.244 2.845-2.035 4.208-3.615.347-.402.674-.781.956-1.082 1.057-1.133 4.455-9.014 5.759-13.605l.078-.01c1.533-.383 3.392-1.492 3.47-1.539l.115-.107c.011-.018 1.13-1.621 3.075-3.566 2.041-2.041 4.962-12.205 5.086-12.637l.011-.144c2.286-.873 4.765-2.151 4.989-3.646.403-2.688-1.562-4.164-1.646-4.225zm-36.177 18.77c-.282-.342-.504-2.861-.559-5.109 1.085.238 2.196.451 3.319.633-.365.875-1.129 2.898-.884 3.961.188.82.67 2.889 2.482 3.809l-.689-.223c-.731-.244-3.083-2.387-3.669-3.071zm18.904-4.449c4.572-1.289 7.131-2.738 8.595-3.834-.29 1.944-1.13 7.385-1.626 8.775l-.585 1.637c-.48.346-2.694 1.914-3.773 2.363l.001-.039c0-.186-.137-.344-.321-.369l-3.274-.469c-.107-.016-.216.018-.298.088s-.129.174-.129.283l.001.092-.001.121c-2.189-.314-3.733-1.607-3.749-1.621-.079-.066-.177-.096-.271-.088l-.179-.234c-.615-.77-.472-3.916-.219-5.961 2.23-.056 4.239-.295 5.828-.744zm-10.319 23.754c-.254-.76-.278-2.336-.307-4.16-.012-.703-.023-1.443-.049-2.189l-.049-1.457c-.08-2.447-.171-5.221-.326-7.168l-.066-.656c.463-.088 1.744-.381 2.406-1.031.092.125.188.244.288.352 1.82 1.949 3.045 3.088 6.878 3.719-.104.813-.27 1.49-.49 1.986l-.398.916c-1.193 2.752-4.36 10.063-5.785 11.408-.612.578-1.137 1.057-1.598 1.477l-.413.377c.087-.984.19-2.728-.091-3.574zm1.21-17.303l-.069.053c-.42.48-1.519.773-2.06.879l-.092-.363c.527-.115 1.384-.557 1.807-1.482.122.32.259.628.414.913zm6.76 3.78c-.888-.506-1.464-1.113-1.968-1.766.731.387 1.729.787 2.899.938-.009.354-.026.691-.051 1.012-.304-.049-.587-.104-.856-.162l-.024-.022zm-3.846-3.059c.243.303.47.623.688.934.379.535.769 1.078 1.268 1.592-1.667-.656-2.521-1.57-3.636-2.766-1.418-1.518-1.801-5.264-1.878-6.256.965.055 1.912.084 2.828.084l.341-.004c-.17 1.42-.529 5.27.389 6.416zm-4.313-6.543c.033.484.16 1.969.546 3.502l-.058.188c0 1.625-1.421 1.959-1.482 1.973l-.138.063c-.135-.172-.291-.256-.471-.256h-.002c-1.087.1-2.058.578-2.098.6-.107.053-.179.154-.2.268-1.168-.705-1.623-2.053-1.888-3.199-.191-.826.529-2.771.917-3.674 1.631.242 3.274.424 4.874.535zm-3.068 6.944l-.002-.014-.049-.303c.306-.127.854-.328 1.434-.398.088.145.288.615.397 1.982.154 1.93.244 4.693.324 7.131l.049 1.459c.025.742.037 1.477.048 2.176.03 1.887.056 3.516.346 4.387.284.854.085 3.143-.017 3.951l.009.139c-.272.264-.522.52-.758.779-.138.154-.262.307-.372.457.066-1.553.095-3.744-.209-4.715-.428-1.369-.46-6.674-.357-9.135.078-1.867-.586-6.277-.843-7.896zm2.542 23.945l.141.094c.149.135.17.313.19.551l.034.287c.063.383.029 1.506.003 2.082-.214.145-.688.414-1.245.414-.255 0-.504-.057-.741-.168l-.172-2.828c.046-.18.282-.713 1.164-.594.295.039.489.093.626.162zm-2.22 8.496c-.113-.52.159-2.58.517-4.469.268.096.543.15.826.15.147 0 .287-.016.422-.039-.181 1.158-.434 3.381.087 4.404-.676.061-1.47.038-1.852-.046zm2.692-.104l-.02.006-.066-.07c-.438-.307-.375-2.535-.041-4.445l.035-.016c.257 1.93.35 4.143.092 4.525zm6.35-15.263c-.291.313-.623.697-.975 1.105-1.156 1.338-2.738 3.172-3.779 3.367-1.188.223-1.76 1.088-2.006 1.623-.167-.055-.359-.098-.589-.129l-.353-.025-.163.016c.16-.328.425-.781.838-1.24.522-.582 1.111-1.119 1.927-1.861.464-.424.992-.904 1.607-1.486 1.361-1.285 3.899-6.904 5.958-11.654l.396-.908c.453-1.02.69-2.602.69-4.586l2.506.357c-.316 3.274-4.907 14.19-6.057 15.421zm12.516-18.846c-1.791 1.791-2.875 3.266-3.113 3.6-.313.184-1.672.951-2.876 1.324.1-.402.177-.766.227-1.084l.164.041.139-.025c1.276-.51 3.96-2.457 4.073-2.541.062-.043.107-.105.133-.176l.624-1.746c.629-1.762 1.718-9.297 1.765-9.616l-.006-.096c.305-.273.531-.505.7-.678l.064-.065c.43-.111 1.571-.419 2.894-.881-.549 1.857-3.087 10.242-4.788 11.943zm9.875-16.009c-.246 1.638-5.201 3.474-8.267 4.246l-.174.099-.142.145c-.822.843-3.007 3.083-9.8 4.998-1.559.439-3.566.664-5.81.707l-.087-.031c-.073-.01-.141.008-.202.035-7.616.09-17.818-1.882-22.611-4.786-1.9-1.152-2.851-2.263-2.824-3.3.042-1.629 2.477-2.94 3.931-3.724 2.584-1.391 2.808-4.117 2.816-4.238.002-.04.249-4.048 2.783-8.1 3.39-5.417 9.049-8.345 16.821-8.7.433-.02.855-.029 1.271-.029 18.555 0 20.428 19.304 20.539 20.713-.104.429-1.301 4.445-9.801 6.146-8.847 1.77-30.945 1.238-32.747-6.208-.049-.201-.252-.325-.452-.276s-.324.251-.275.452c1.096 4.53 8.273 6.378 14.101 7.129 6.338.817 14.366.668 19.521-.362 9.502-1.9 10.369-6.596 10.4-6.795l.004-.086c-.009-.124-.048-.621-.162-1.388.431.398 1.437 1.548 1.167 3.353z"/></g></svg>