<?xml version="1.0" encoding="utf-8"?>
<!-- Generator: Adobe Illustrator 15.0.0, SVG Export Plug-In . SVG Version: 6.00 Build 0)  -->
<!DOCTYPE svg PUBLIC "-//W3C//DTD SVG 1.1//EN" "http://www.w3.org/Graphics/SVG/1.1/DTD/svg11.dtd">
<svg version="1.1" id="Ebene_1" xmlns="http://www.w3.org/2000/svg" xmlns:xlink="http://www.w3.org/1999/xlink" x="0px" y="0px"
	 width="100px" height="100px" viewBox="0 0 100 100" enable-background="new 0 0 100 100" xml:space="preserve">
<circle fill="#B2B2B2" cx="49.312" cy="50.769" r="50"/>
<g>
	<path fill="#050001" d="M49.018,74.419V29.268c0-0.377,0.308-0.684,0.686-0.684l0,0c0.378,0,0.684,0.307,0.684,0.684l0,0v45.151
		c0,0.378-0.306,0.685-0.684,0.685l0,0C49.325,75.104,49.018,74.797,49.018,74.419L49.018,74.419z"/>
	<path fill="#050001" d="M49.755,74.485l-9.388-44.165c-0.078-0.369,0.157-0.733,0.527-0.812l0,0
		c0.369-0.079,0.732,0.158,0.811,0.528l0,0l9.389,44.164c0.078,0.37-0.157,0.732-0.526,0.812l0,0
		C50.196,75.091,49.834,74.855,49.755,74.485L49.755,74.485z"/>
	<path fill="#050001" d="M50.489,74.396L32.124,33.15c-0.153-0.346,0.001-0.75,0.347-0.903l0,0c0.345-0.154,0.75,0.002,0.903,0.347
		l0,0L51.74,73.84c0.152,0.347-0.002,0.751-0.349,0.904l0,0C51.047,74.898,50.643,74.742,50.489,74.396L50.489,74.396z"/>
	<path fill="#050001" d="M51.188,74.159L24.649,37.63c-0.223-0.305-0.155-0.734,0.151-0.955l0,0
		c0.305-0.222,0.733-0.155,0.955,0.151l0,0l26.539,36.527c0.223,0.307,0.155,0.735-0.15,0.956l0,0
		C51.839,74.532,51.411,74.465,51.188,74.159L51.188,74.159z"/>
	<path fill="#050001" d="M51.823,73.779L18.269,43.568c-0.28-0.253-0.304-0.686-0.051-0.966l0,0
		c0.253-0.281,0.687-0.304,0.967-0.051l0,0l33.555,30.211c0.28,0.252,0.303,0.686,0.051,0.966l0,0
		C52.538,74.01,52.104,74.032,51.823,73.779L51.823,73.779z"/>
	<path fill="#050001" d="M52.366,73.277L13.263,50.701c-0.327-0.188-0.439-0.607-0.25-0.934l0,0c0.188-0.328,0.607-0.44,0.934-0.251
		l0,0l39.103,22.577c0.327,0.188,0.44,0.605,0.251,0.934l0,0C53.111,73.354,52.693,73.467,52.366,73.277L52.366,73.277z"/>
	<path fill="#050001" d="M86.144,50.702L47.04,73.277c-0.327,0.189-0.745,0.076-0.935-0.251l0,0
		c-0.188-0.328-0.076-0.745,0.25-0.934l0,0l39.103-22.577c0.328-0.188,0.746-0.077,0.936,0.251l0,0
		C86.582,50.094,86.47,50.513,86.144,50.702L86.144,50.702z"/>
	<path fill="#050001" d="M81.137,43.568L47.582,73.779c-0.281,0.253-0.714,0.23-0.965-0.051l0,0c-0.254-0.28-0.231-0.713,0.05-0.966
		l0,0l33.555-30.211c0.28-0.253,0.713-0.23,0.965,0.051l0,0C81.44,42.882,81.417,43.315,81.137,43.568L81.137,43.568z"/>
	<path fill="#050001" d="M74.756,37.631L48.218,74.159c-0.223,0.306-0.65,0.373-0.957,0.15l0,0
		c-0.305-0.221-0.373-0.649-0.151-0.955l0,0L73.65,36.826c0.222-0.305,0.648-0.373,0.955-0.151l0,0
		C74.911,36.897,74.979,37.325,74.756,37.631L74.756,37.631z"/>
	<path fill="#050001" d="M67.282,33.15L48.916,74.397c-0.152,0.345-0.557,0.501-0.903,0.347l0,0
		c-0.345-0.153-0.499-0.558-0.346-0.903l0,0l18.364-41.248c0.154-0.345,0.559-0.5,0.903-0.347l0,0
		C67.281,32.4,67.436,32.805,67.282,33.15L67.282,33.15z"/>
	<path fill="#050001" d="M59.038,30.321L49.65,74.486c-0.078,0.369-0.442,0.604-0.811,0.526l0,0
		c-0.37-0.079-0.605-0.441-0.527-0.812l0,0L57.7,30.037c0.078-0.37,0.441-0.606,0.812-0.528l0,0
		C58.882,29.589,59.116,29.952,59.038,30.321L59.038,30.321z"/>
	<path fill="#050001" d="M66.61,62.007l21.599-12.118l-3.616-6.548l-3.42-2.638l-2.346-3.616l-4.203-2.345L71.3,31.906
		c0,0-4.005-1.075-4.299-1.075c-0.293,0-3.42-2.541-3.42-2.541l-4.594,0.194l-3.909-2.051l-4.202,0.782l-4.789-0.782L42.568,27.9
		l-4.789-0.196l-3.225,2.248l-4.887,0.489l-2.443,3.127l-4.887,1.075l-2.541,3.909l-4.007,1.856l-2.15,5.083l-3.225,3.518
		l22.576,13.292l1.954-2.834l1.271-1.857l2.541-2.052l2.639-1.856l1.271-0.49l1.955-0.488l1.856-0.293l1.662-0.586l2.345,0.293
		l3.03,0.391l2.835,0.978l2.54,0.978l1.368,1.173l1.857,1.075l0.978,1.172l1.465,1.466l1.173,1.76L66.61,62.007z"/>
</g>
</svg>
