<?xml version="1.0" encoding="utf-8"?>
<!-- Generator: Adobe Illustrator 15.0.0, SVG Export Plug-In . SVG Version: 6.00 Build 0)  -->
<!DOCTYPE svg PUBLIC "-//W3C//DTD SVG 1.1//EN" "http://www.w3.org/Graphics/SVG/1.1/DTD/svg11.dtd">
<svg version="1.1" id="Ebene_1" xmlns="http://www.w3.org/2000/svg" xmlns:xlink="http://www.w3.org/1999/xlink" x="0px" y="0px"
	 width="100px" height="100px" viewBox="0 0 100 100" enable-background="new 0 0 100 100" xml:space="preserve">
<circle fill="#B2B2B2" cx="49.943" cy="48.993" r="50"/>
<g>
	<path fill="#231815" d="M25.53,50.771c0-14.159,6.804-26.504,16.892-33.065C27.146,20.821,15.65,34.333,15.65,50.531
		c0,15.811,10.959,29.055,25.691,32.574C31.85,76.383,25.53,64.418,25.53,50.771z"/>
	<path fill="#231815" d="M76.329,50.77c0-14.157-6.805-26.502-16.893-33.063C74.715,20.821,86.21,34.333,86.21,50.529
		c0,15.813-10.959,29.055-25.691,32.574C70.009,76.381,76.329,64.416,76.329,50.77z"/>
	<circle fill="#231815" cx="50.611" cy="17.222" r="5.437"/>
	<path fill="#231815" d="M42.736,50.036c0,8.115,2.951,15.566,7.875,21.435c4.923-5.869,7.874-13.318,7.874-21.435
		c0-8.116-2.951-15.565-7.874-21.435C45.688,34.47,42.736,41.921,42.736,50.036z"/>
	<path fill="#231815" d="M50.611,42.161c-8.116,0-15.565,2.952-21.436,7.875c5.869,4.923,13.319,7.875,21.436,7.875
		c8.115,0,15.564-2.951,21.435-7.875C66.176,45.113,58.726,42.161,50.611,42.161z"/>
</g>
</svg>
