<?xml version="1.0" encoding="utf-8"?>
<!-- Generator: Adobe Illustrator 15.0.0, SVG Export Plug-In . SVG Version: 6.00 Build 0)  -->
<!DOCTYPE svg PUBLIC "-//W3C//DTD SVG 1.1//EN" "http://www.w3.org/Graphics/SVG/1.1/DTD/svg11.dtd">
<svg version="1.1" id="Ebene_1" xmlns="http://www.w3.org/2000/svg" xmlns:xlink="http://www.w3.org/1999/xlink" x="0px" y="0px"
	 width="100px" height="100px" viewBox="0 0 100 100" enable-background="new 0 0 100 100" xml:space="preserve">
<circle fill="#B2B2B2" cx="50" cy="49.935" r="50"/>
<path d="M53.459,19.037c0.16-0.288-1.189-0.673-1.947-1.304c-0.804-0.67-2.692-1.427-4.182-1.669
	c-1.489-0.242-8.334,0.128-10.068,0.865c-1.734,0.736-6.326,3.345-8.759,6.252c-0.789,0.939-1.112,1.813-1.66,3.504
	c0,0-4.326,8.048-3.685,15.827c0,0-1.008,6.679-1.098,9.975c-0.091,3.294,1.64,11.071,1.548,11.532
	c-0.092,0.455-0.457,1.187-0.274,1.463c0.182,0.275-0.732,10.982-1.098,12.081c-0.366,1.097-3.662,3.567-4.668,4.117
	c-1.006,0.549-0.458,2.288,1.556,2.196s4.027-1.647,5.309-1.831c1.279-0.181,2.013-0.822,2.104-1.281
	c0.091-0.457,0-2.012-0.274-2.288c-0.183-1.555,1.74-6.955,1.648-9.425c-0.091-2.473,0.274-4.577,0.274-4.577
	s0.828-11.987,1.653-11.164c0.824,0.823,4.511,10.219,4.969,11.503c0.458,1.281,0.477,3.965,1.905,6.903
	c1.115,2.289,3.383,5.506,3.476,6.059c0.091,0.547,0.091,1.277,0.091,1.277s-0.274,0-0.274,0.734c0,0.731-0.349,1.582,0.475,1.947
	c0.824,0.366,1.08,0.341,1.904,0.889c0.824,0.549,1.557,0.915,3.296,0.915c1.738,0,2.894-0.611,1.466-1.567
	c-1.026-0.684-3.206-3.282-3.206-3.556s-0.366-1.011-0.366-1.011s-3.529-7.435-3.607-11.163c-0.046-2.138-0.879-5.61-0.879-5.61
	s-0.242-2.529,0.124-2.803c0.366-0.275-0.106-3.261-0.22-4.793c-0.255-3.418,1.098-8.876,1.006-9.516
	c-0.091-0.642,0.439-6.295,0.439-6.295c0.426-1.428,0.059-4.044-0.51-4.747c-0.571-0.707-2.566-2.564-3.043-3.258
	c-0.479-0.696,0.924-0.915,0.924-0.915s1.112-0.068,1.577-0.111c0.463-0.042,0.876-0.459,0.906-0.732
	c1.633-0.654,3.93-4.094,2.1-5.945c-1.824-2.766-4.613-0.762-5.581-0.311c-0.536-0.149-1.115,0.985-1.245,1.341
	c-1.098,0.803-1.644,2.495-1.644,2.495s-0.159,0.627-0.614,0.579c-0.455-0.048-1.628-0.265-0.594-1.35
	c1.036-1.087,4.989-4.536,6.129-4.877c1.14-0.34,7.504-2.241,8.042-0.996c0.262,0.605,2.296,1.092,2.296,1.092
	s1.08,0.828,1.513,0.515c0.433-0.312-1.035-1.384-1.035-1.384s0.479,0.239,0.95,0.382c0.472,0.142,1.706,0.479,2.358,0.608
	C53.623,19.74,53.938,19.273,53.459,19.037z M36.703,37.025c0.55-0.639,0.366,0.093,0.366,0.093s-0.184,4.844,0.366,6.036
	c-0.484,2.891-0.549,7.776-0.549,7.045c0-0.73-0.75-6.473-1.244-6.891C34.982,42.749,35.63,38.278,36.703,37.025z"/>
</svg>
