<svg xmlns="http://www.w3.org/2000/svg" width="100" height="100"><circle fill="#B2B2B2" cx="50" cy="49.935" r="50"/><path d="M53.459 19.037c.16-.288-1.189-.673-1.947-1.304-.804-.67-2.692-1.427-4.182-1.669-1.489-.242-8.334.128-10.068.865-1.734.736-6.326 3.345-8.759 6.252-.789.939-1.112 1.813-1.66 3.504 0 0-4.326 8.048-3.685 15.827 0 0-1.008 6.679-1.098 9.975-.091 3.294 1.64 11.071 1.548 11.532-.092.455-.457 1.187-.274 1.463.182.275-.732 10.982-1.098 12.081-.366 1.097-3.662 3.567-4.668 4.117-1.006.549-.458 2.288 1.556 2.196s4.027-1.647 5.309-1.831c1.279-.181 2.013-.822 2.104-1.281.091-.457 0-2.012-.274-2.288-.183-1.555 1.74-6.955 1.648-9.425-.091-2.473.274-4.577.274-4.577s.828-11.987 1.653-11.164c.824.823 4.511 10.219 4.969 11.503.458 1.281.477 3.965 1.905 6.903 1.115 2.289 3.383 5.506 3.476 6.059.091.547.091 1.277.091 1.277s-.274 0-.274.734c0 .731-.349 1.582.475 1.947.824.366 1.08.341 1.904.889.824.549 1.557.915 3.296.915 1.738 0 2.894-.611 1.466-1.567-1.026-.684-3.206-3.282-3.206-3.556l-.366-1.011s-3.529-7.435-3.607-11.163c-.046-2.138-.879-5.61-.879-5.61s-.242-2.529.124-2.803c.366-.275-.106-3.261-.22-4.793-.255-3.418 1.098-8.876 1.006-9.516-.091-.642.439-6.295.439-6.295.426-1.428.059-4.044-.51-4.747-.571-.707-2.566-2.564-3.043-3.258-.479-.696.924-.915.924-.915s1.112-.068 1.577-.111c.463-.042.876-.459.906-.732 1.633-.654 3.93-4.094 2.1-5.945-1.824-2.766-4.613-.762-5.581-.311-.536-.149-1.115.985-1.245 1.341-1.098.803-1.644 2.495-1.644 2.495s-.159.627-.614.579c-.455-.048-1.628-.265-.594-1.35 1.036-1.087 4.989-4.536 6.129-4.877 1.14-.34 7.504-2.241 8.042-.996.262.605 2.296 1.092 2.296 1.092s1.08.828 1.513.515c.433-.312-1.035-1.384-1.035-1.384s.479.239.95.382c.472.142 1.706.479 2.358.608.657.131.972-.336.493-.572zm-16.756 17.988c.55-.639.366.093.366.093s-.184 4.844.366 6.036c-.484 2.891-.549 7.776-.549 7.045 0-.73-.75-6.473-1.244-6.891-.66-.559-.012-5.03 1.061-6.283z"/></svg>