<svg xmlns="http://www.w3.org/2000/svg" width="100" height="100"><circle fill="#B2B2B2" cx="50" cy="50" r="50"/><g stroke="#000" stroke-width=".709" stroke-miterlimit="10"><path d="M44.63 47.552l.153-.069c.14-.064.201-.23.137-.37-.064-.142-.233-.203-.373-.139l-.147.068c-.634.285-1.813.816-2.03 1.559-.072.251-.032.507.121.738.196.301.519.435.908.375.738-.112 1.635-.924 1.791-1.472.042-.148-.043-.304-.193-.347-.148-.042-.304.044-.346.194-.093.325-.802.989-1.337 1.07-.219.034-.304-.05-.354-.127-.063-.096-.078-.18-.051-.274.144-.495 1.29-1.011 1.721-1.206zM40.468 49.009l.054-.164c0-.085-.04-.169-.115-.224-.125-.093-.302-.063-.395.062l-.141.189c-.231.304-.448.593-.441 1.084.005.336.045.666.303.814.249.144.538.022.813-.13.45-.249 1.002-.846 1.141-1.458.09-.396.04-.898-.274-1.125-.126-.091-.399-.208-.807.038-.133.079-.176.251-.096.384.08.133.251.175.385.096.116-.07.18-.071.19-.064.038.028.082.156.082.324l-.025.224c-.087.385-.476.876-.867 1.092l-.25.113c-.013-.045-.029-.133-.032-.316l-.001-.017c0-.288.118-.444.328-.722l.148-.2zM37.715 50.631c-.142-.062-.307.003-.369.145-.008.02-.842 1.945-.249 2.542.142.144.413.271.892.064.618-.264 1.254-1.507 1.216-2.374-.021-.5-.258-.849-.664-.982-.147-.048-.306.032-.354.179-.048.147.032.305.179.354.072.022.262.085.279.474.032.725-.532 1.688-.877 1.835-.189.082-.265.064-.274.056-.17-.171.062-1.229.365-1.923.062-.143-.002-.308-.144-.37zM38.716 59.362c-.515.519-.748 1.548-.469 2.078.151.288.43.419.767.358.153-.026.253-.173.227-.324-.027-.152-.173-.255-.325-.228-.116.021-.146-.017-.172-.067-.151-.287.008-1.059.37-1.423.211-.213.372-.171.489-.111.137.071.306.017.377-.121.071-.137.017-.306-.121-.377-.392-.202-.809-.123-1.143.215zM37.999 65.456c.151-.03.249-.179.218-.33-.031-.152-.179-.25-.33-.218-.478.098-.956.541-1.217 1.129-.228.513-.231 1.022-.01 1.396.197.334.452.388.603.386-.326.34-.427.972-.296 1.444.132.477.469.737.899.699.125-.012.227-.104.25-.228l.11-.206.141-.231c.081-.132.023-.271-.108-.353-.13-.081-.319-.011-.402.119l-.087.137-.107.167c-.057-.036-.116-.106-.157-.255-.026-.092-.038-.19-.038-.287 0-.307.115-.601.257-.669.067-.033.114-.092.138-.156l-.026.11c-.027.151.073.298.226.324.153.027.298-.073.326-.225l.032-.123c.236.271.607 1.111.609 1.371v.003c0 .311-.33.87-.529 1.047l-.023-.155c-.011-.154-.145-.271-.299-.26-.154.01-.271.145-.26.299.046.665.358.752.541.745.559-.022 1.135-1.183 1.131-1.685-.002-.349-.57-1.941-1.184-1.993-.18-.015-.408.063-.529.482l.005-.038-.028-.122c-.03-.062-.081-.103-.139-.129.325-.229.567-.635.653-.824.063-.141 0-.308-.142-.371-.141-.063-.307 0-.37.142-.143.318-.445.652-.597.66-.044.003-.093-.067-.118-.11-.128-.217-.114-.54.039-.885.182-.407.526-.745.818-.807zM36.016 72.387c.185.32.397.495.635.523-.08.661-.095 1.73.381 2.121.135.11.429.26.875.021.65-.347.868-1.606.615-2.417-.14-.452-.413-.732-.77-.811l.183-.461.016-.043c.054-.145-.021-.308-.165-.36-.146-.055-.306.02-.36.165l-.016.044c-.248.67-.428.963-.543 1.09l-.081.072-.059.023c-.02.002-.105-.04-.226-.249-.151-.263.037-1.281.421-1.584.06-.048.143-.111.317.054.112.107.29.102.396-.011.106-.112.102-.29-.01-.396-.33-.313-.722-.346-1.05-.087-.557.441-.877 1.755-.559 2.306zm1.405.307c.146.005.259-.146.278-.294.101.05.21.152.287.401.053.17.077.359.077.551 0 .537-.187 1.081-.42 1.206-.183.098-.237.054-.255.039-.161-.132-.218-.569-.218-1.017 0-.358.038-.714.09-.931l.006-.006.155.051zM33.729 62.888l.062-.192c.037-.15-.056-.302-.207-.338-.15-.037-.302.056-.338.206-.086.356-.485 1.044-.726 1.093-.013.003-.05.012-.123-.086-.096-.127-.056-.405.104-.728.276-.554.747-.954.931-.954.155 0 .281-.126.281-.279 0-.156-.125-.281-.281-.281-.503 0-1.123.643-1.433 1.265-.267.538-.284 1.005-.049 1.316.25.33.536.327.684.297l.174-.064-.043.05c-.218.376-.286 1.607.153 2.037.199.194.477.213.745.05.533-.325.809-1.563.69-2.411-.093-.681-.412-.906-.624-.981zm-.357 2.912l-.068.029c-.164-.106-.211-1.086-.053-1.357.078-.134.032-.305-.102-.383-.064-.037-.137-.044-.204-.029.219-.158.406-.414.549-.667l.035.018c.128.035.229.235.271.534.106.757-.189 1.709-.428 1.855zM43.109 60.941c-.05-.073-.128-.111-.21-.118-.011-.147-.133-.263-.282-.261-.11.002-.188.078-.23.173l-.058-.054c-.521-.278-1.297.029-1.693.492l-.127.18c-.042-.441-.152-.856-.385-1.055-.192-.163-.447-.179-.697-.043-.136.074-.187.244-.112.381.073.136.243.186.379.111l.067-.024c.208.109.275 1.493.133 1.901-.094.271-.371.39-.514.349-.095-.026-.083-.167-.057-.281.035-.151-.06-.302-.21-.336-.15-.035-.301.06-.335.21-.084.369.01.622.166.777-.165.003-.368.064-.592.271-.115.104-.122.282-.017.396.104.114.282.123.396.018.118-.107.209-.146.273-.113.213.107.417.748.353 1.342-.036.329-.14.473-.202.488-.108.028-.147-.001-.163-.014-.207-.154-.23-.833-.238-1.09l-.027-.302c-.014-.151-.138-.214-.291-.203l-.142.068c-.078-.065-.187-.088-.287-.046-.129.057-.156.019-.187-.025-.225-.319-.126-1.417.234-1.807.104-.112.171-.104.26-.051.133.078.305.034.384-.099.079-.133.035-.305-.098-.384-.331-.196-.688-.14-.958.153-.522.563-.676 1.948-.28 2.509.193.274.502.357.832.23.016.452.047 1.184.462 1.494.124.092.334.187.639.107.34-.088.561-.433.62-.972.059-.547-.059-1.392-.48-1.776.385.004.825-.249.991-.73.031-.089.063-.267.084-.486l.033.055c.222.297.561.396.928.27.103-.035.207-.091.31-.156-.087.063-.133.174-.107.286l.07.265-.059-.011c-.153.003-.274.127-.274.28l.001.012c0 .293-.41.82-.65.98-.029-.13-.132-.238-.266-.237-.149.003-.271.106-.276.255-.01.268.066.451.228.548.107.065.29.11.55-.04.362-.21.873-.837.958-1.361.091.119.208.215.364.243.143.025.424.008.686-.396.338-.527.575-1.676.103-2.373zm-1.823 1.175c-.16.055-.233.012-.298-.075-.042-.056-.167-.224.072-.503.263-.306.77-.488 1.005-.362l.141.029c-.193.346-.57.791-.92.911zm1.406.548c-.105.305-.227.446-.283.481-.035-.036-.118-.153-.194-.492-.034-.151-.184-.246-.335-.212l-.097.044c.379-.248.739-.676.944-1.071.061.153.087.332.087.517 0 .255-.048.518-.122.733zM41.848 63.946c-.12.099-.136.274-.037.395.181.217.444 1.168.321 1.758-.03.143-.082.242-.143.272l-.133.023c-.15-.097-.236-.596-.231-.772.005-.153-.114-.285-.268-.291-.153-.008-.283.107-.292.261-.001.01-.003.952.482 1.271l.225.088-.048-.003c-.153.026-.258.154-.232.308l.082.483c.115.606.307 1.62-.131 1.874-.097.057-.157.066-.183.057-.114-.045-.225-.412-.291-.631-.07-.23-.135-.446-.242-.607-.055-.084-.149-.124-.245-.121.217-.148.397-.457.535-.921.044-.148-.04-.304-.188-.349-.148-.044-.305.041-.348.188-.167.561-.326.627-.327.628-.093-.051-.29-.602-.076-1.223.05-.146-.028-.305-.173-.355-.146-.051-.306.027-.356.174-.221.638-.142 1.392.181 1.754.151.169.351.241.548.197l.015-.006c-.085.094-.105.233-.032.343.061.092.117.278.172.459.057.189.118.39.205.563l-.171.013c-.141.063-.206.228-.143.37.193.435.227 1.193-.216 1.428-.151.081-.208.066-.209.066-.068-.049-.108-.432.014-.848.044-.149-.042-.305-.19-.349s-.304.041-.348.189c-.031.108-.295 1.063.17 1.441.147.12.409.216.826-.006.709-.378.74-1.328.534-1.965l.149.087c.202.079.427.048.67-.093.78-.455.551-1.664.399-2.464l-.074-.441c-.019-.109-.102-.2-.203-.232.111.006.243-.013.395-.09.154-.077.354-.254.439-.659.146-.701-.124-1.851-.439-2.229-.098-.118-.274-.134-.393-.035zM46.425 64.424c-.09-.126-.265-.155-.391-.065-.077.055-.118.141-.118.229l.053.163c.125.175.166.375.166.558 0 .24-.07.451-.103.538-.109.283-.246.413-.307.448-.032-.056-.102-.223-.102-.666l.003-.18v-.011c0-.149-.119-.273-.27-.279l-.107.017c.387-.325.698-.817.628-1.23-.026-.152-.171-.255-.323-.229-.153.026-.255.171-.23.323.033.192-.253.628-.623.846-.089.052-.312.164-.44.061-.134-.106-.131-.192-.108-.269.096-.334.682-.715.968-.746.154-.018.264-.156.247-.311-.017-.152-.156-.264-.31-.247-.462.052-1.273.557-1.444 1.146-.095.328.011.634.297.863.282.226.674.221 1.075-.016l.139-.095-.061.156-.001.328c-.113.01-.213.086-.244.202l-.033.12c-.084.316-.261.972-.547 1.12-.049.025-.12.049-.247.001-.157-.058-.215-.197-.173-.413.067-.339.349-.651.579-.643.155.005.285-.116.291-.271.005-.155-.116-.284-.271-.29-.572-.02-1.042.553-1.147 1.095-.063.322.004.604.176.805-.058.025-.11.067-.141.13-.203.414-.129.863.188 1.144.251.22.584.271.894.151l.024.141.044.091c.146.293.487.98.202 1.177l-.148.034c-.072-.019-.142-.087-.189-.185-.051-.104-.156-.162-.266-.157-.065-.214-.048-.356.053-.469.103-.115.093-.292-.022-.396-.115-.104-.292-.094-.396.021-.318.356-.253.776-.154 1.066-.125.236-.618 1.232-.342 1.866.102.236.295.391.557.451.22.048.432.004.616-.128.546-.396.66-1.498.661-1.509-.015.154-.152.267-.306.252-.136-.014-.233-.123-.246-.255.173.018.347-.025.5-.131.685-.473.192-1.465-.018-1.889l-.042-.084c-.034-.069-.091-.117-.158-.142.132-.137.208-.295.251-.457.118.139.266.265.439.343.228.104.459.111.669.02.203-.088.35-.238.424-.432.18-.469-.101-1.085-.287-1.492l-.023-.053.075-.091c.342-.45.605-1.394.119-2.075zm-2.721 6.148l.015.013-.091-.05.076.037zm.335 1.394c-.053.039-.102.049-.164.034-.109-.024-.145-.075-.166-.127l-.037-.216c0-.298.142-.711.281-1.005h.034c.108.116.236.202.38.24l.097.014c-.039.314-.191.889-.425 1.06zm.24-3.625c-.146.096-.3.093-.414-.006-.098-.086-.163-.257-.055-.478l.026-.122c.232.077.461.065.663-.039l.017-.012c-.016.32-.041.528-.237.657zm1.741-.405c-.014.036-.04.082-.124.119-.024.01-.093.04-.213-.016-.19-.087-.36-.313-.409-.472-.028-.088-.096-.147-.175-.177l.053-.178c.074-.108.057-.248-.026-.342l.107-.308c.078.138.179.23.308.276l.202.027.005.01c.127.285.367.812.272 1.061zM39.241 74.588c-.028-.151-.177-.264-.329-.235-.152.027-.254.162-.227.313l.071.379c.13.629.187 1.059-.195 1.282-.123.071-.22.083-.258.063-.031-.017-.071-.086-.084-.231-.013-.149-.143-.264-.294-.256-.15.008-.268.132-.265.283l.004.209c.01.448.039 1.639-.347 1.819l-.107.02c-.063-.063-.094-.23-.094-.391l.016-.1.048-.24.005-.057c0-.119-.076-.23-.193-.269-.135-.044-.282.017-.341.146l-.02.067.001-.012-.004.022-.059.296c-.09.463-.303 1.486-.654 1.579-.169.044-.271.004-.337-.139-.119-.25-.044-.659.146-.797.125-.091.153-.267.062-.392s-.266-.153-.391-.063c-.452.328-.533 1.05-.323 1.492.182.384.56.552.986.439.433-.115.685-.603.849-1.126.181.121.407.14.647.027l.054-.035c-.039.358.012.826.28 1.043.092.076.348.226.719-.016.493-.323.303-1.162.199-1.509-.045-.147-.202-.231-.349-.187-.148.044-.232.201-.188.349.133.442.124.817.032.878l-.088.041c-.062-.072-.086-.533-.011-.729.057-.144-.015-.305-.159-.362l-.02-.004c.156-.363.198-.833.204-1.261.191.035.404.005.617-.12.756-.444.578-1.308.459-1.879l-.062-.337zM35.566 75.907c-.03.483.326 1.117.833 1.212.262.048.748-.012 1.044-.961.046-.148-.035-.306-.183-.352s-.305.035-.351.184c-.118.375-.278.602-.409.577-.169-.031-.393-.36-.375-.625.006-.106.045-.174.216-.184.155-.009.272-.143.264-.296-.009-.155-.141-.272-.295-.264-.433.026-.717.297-.744.709zM32.59 60.427c.052-.146-.023-.306-.169-.358-.146-.052-.306.023-.359.169-.131.368-.575.987-1.063 1.191-.192.081-.361.085-.516.014-.152-.069-.243-.148-.242-.209.002-.233.599-.684 1.092-.899.142-.063.207-.229.144-.369-.062-.142-.227-.206-.369-.145-.014.006-1.42.632-1.428 1.409-.001.209.096.505.569.723.298.137.632.135.967-.006.611-.258 1.179-.974 1.374-1.52zM52.275 46.229c.153-.02.261-.162.239-.314-.02-.153-.162-.261-.314-.24-.515.07-1.105.649-1.194 1.169-.062.357.097.661.435.833.193.099.52.16.983-.106.543-.313 1.172-1.066 1.199-1.603.009-.155-.11-.287-.265-.295-.155-.007-.286.111-.294.265-.014.251-.431.864-.921 1.146-.188.109-.352.143-.449.093-.135-.069-.152-.146-.136-.238.051-.302.465-.675.717-.71zM53.384 56.511c-.137.072-.189.241-.118.378.081.153.055.713-.145 1.141-.104.221-.214.315-.281.331l-.095.006c-.026-.029-.052-.199-.065-.289l-.102-.412c-.036-.148-.168-.189-.317-.155-.15.035-.227.234-.194.384l.06.268c.034.228.076.512.307.67.14.096.316.122.525.076.27-.059.502-.28.671-.642.225-.48.34-1.243.133-1.637-.073-.138-.242-.191-.379-.119zM41.402 73.161c-.151-.031-.3.067-.331.219-.05.249-.195.333-.309.36-.144.034-.298-.01-.375-.107-.095-.12-.042-.291.018-.411.07-.139.014-.307-.125-.376-.138-.07-.307-.014-.376.124-.187.372-.171.741.043 1.011.211.267.591.39.945.305.373-.09.646-.386.728-.793.031-.153-.066-.302-.218-.332zM37.41 79.58c-.132-.082-.305-.041-.386.09l-.027.096c-.303.128-.505.403-.562.804l-.018.252c0 .628.302 1.319.714 1.575.258.16.551.151.802-.022.19-.13.414-.396.401-.929-.017-.7-.449-1.57-.924-1.866zm.364 1.907c0 .15-.029.337-.159.426-.07.049-.12.05-.189.007-.226-.14-.45-.639-.45-1.094l.013-.178c.031-.22.12-.351.263-.391l.041-.027c.238.283.472.794.482 1.229l-.001.028zM45.608 70.655c-.126.09-.156.265-.066.391.223.313.373 1.095.127 1.313-.072.063-.134.079-.184.048l-.017-.032-.033-.281c-.016-.131-.121-.247-.253-.259s-.255.058-.294.184l-.035.236c0 .111.031.219.076.317l.005.043c.034.228.074.495.074.732 0 .269-.052.499-.221.591-.147.081-.215.041-.278-.05-.143-.21-.124-.563-.005-.662.118-.101.133-.277.033-.396s-.276-.133-.395-.033c-.384.322-.368 1.01-.096 1.407.238.348.624.435 1.008.226.407-.221.515-.639.515-1.079l-.037-.368c.175.001.353-.067.509-.205.564-.5.267-1.621-.042-2.057-.09-.126-.265-.156-.391-.066zM83.731 31.526c-.049-.145-1.203-3.546-3.129-3.754-.982-.106-1.946.624-2.867 2.168-2.062 3.464-3.54 19.617-4.085 26.565l-.118-.934c-2.151-19.872-8.409-29.004-8.472-29.095-.083-.119-.243-.154-.369-.082s-.176.229-.114.36c.052.112 4.05 8.884 6.166 23.782-4.349-19.452-12.482-24.965-14.199-25.931-.125-.07-.283-.034-.365.083-.084.117-.063.278.044.373 6.693 5.851 10.401 15.956 12.454 25.439-.5-.673-1.257-1.529-2.322-2.377-2.505-5.098-4.544-7.198-6.068-8.765l-.862-.911c-11.761-10.613-22.548-6.116-22.656-6.069-.13.056-.198.201-.158.337.041.136.175.22.315.196 8.203-1.372 16.05 1.478 21.531 7.821 1.311 1.518 2.521 3.199 3.638 5.056-2.599-.911-6.136-1.397-10.791-.609.106-.261.104-.546-.342-.878-.459-.34-1.289-.384-1.735-.331l-.299.054c-.055-.377-.26-.679-.597-.86-.62-.333-1.621-.218-2.329.267-.497.339-.738.794-.679 1.279.019.154.159.263.313.244.154-.018.263-.158.244-.312-.044-.359.256-.624.439-.749.521-.356 1.321-.463 1.747-.234.21.112.312.297.317.557-.348.171-.63.436-.602.822.021.283.256.525.725.751l-.074.049c-.06-.055-.139-.089-.226-.079l-.126.066.015-.042-.011-.079c-.044-.148-.199-.234-.348-.191-.169.049-.585.252-.98.534-.064-.034-.143-.045-.217-.021-.5.157-1.365.277-1.622.081-.03-.023-.062-.055-.058-.146.003-.092.034-.16.101-.22.358-.319 1.443-.233 1.853-.2l.13.011c.155.011.288-.105.3-.259.011-.155-.106-.289-.261-.3l-.125-.01c-.556-.044-1.109-.063-1.564.026v-.001c-.299-.542-1.223-1.337-2.044-1.401-.415-.033-.764.119-1.012.437-.179.231-.27.457-.27.675l.029.212c.081.291.317.496.594.658-.234.033-.479.082-.709.147-.416-.707-1.14-.941-1.715-.911-.557.028-1 .294-1.13.678-.054.159-.086.442.146.78-.327.055-.644.194-.927.468-.554.533-.441.949-.324 1.149.113.194.312.336.548.435l-.227.013c-.858.017-2.293.046-2.442 1.226-.017.14-.01.255.01.357-.945.061-1.495.673-1.873 1.217-.349.504-.391 1.022-.108 1.351.14.162.333.252.559.267l-.112.233-.005-.021c-.067-.139-.239-.195-.378-.127l-.353.169c-.699.329-1.568.738-1.816 1.642-.149.544-.032.999.32 1.249l.058.032c-.5.362-.956 1.08-1.093 1.671-.125.536.006.959.368 1.193.2.128.419.164.636.103.546-.153.928-.867 1.271-1.585l.128-.256.007-.027c.27.261.55.246.705.207.644-.16 1.128-1.159 1.194-1.549.025-.153-.077-.298-.23-.323-.152-.025-.297.078-.322.23-.051.303-.45 1.017-.776 1.098-.038.009-.116.028-.239-.133-.061-.079-.066-.261-.015-.487.127-.559.523-1.178.75-1.392.17.185.36.284.568.29.484.013.858-.468 1.159-.854.535-.686.635-1.198.641-1.963 0-.155-.124-.28-.278-.282-.155-.001-.282.124-.283.278-.005.665-.082 1.057-.518 1.616-.191.246-.506.649-.707.644-.09-.002-.183-.108-.246-.198-.321-.458-.077-1.07.356-1.647.067-.038.112-.099.131-.169.358-.437.808-.842 1.18-1.127.123-.095.146-.271.051-.394s-.27-.146-.392-.051c-.221.168-.835.664-1.333 1.292-.287.117-.485.092-.56.006-.085-.099-.076-.349.144-.666.497-.716.991-1.009 1.652-.98l.133-.032.095.046c.765.292 2.243-.432 2.567-.9.088-.127.057-.302-.071-.39s-.301-.057-.39.071c-.204.294-1.432.878-1.906.696-.054-.021-.156-.06-.122-.333.082-.647.907-.717 1.897-.737l.667-.042c.154-.01.237-.139.228-.292l-.026-.082c.312.031.619.009.848-.059.148-.044.233-.2.189-.349s-.2-.232-.348-.189c-.466.138-1.253-.017-1.405-.278-.079-.136.109-.35.229-.464.621-.597 1.519-.298 2.306.044l.073.118c.31.437.969.585 1.765.398.717-.169 1.523-.614 1.729-1.218l.059.057c.361.275.997.24 1.48.159-.111.161-.186.328-.193.495-.007.181.057.515.572.711.424.162.884.074 1.297-.248.436-.34.734-.884.783-1.378l.177.017c.65-.167 1.28-.307 1.893-.427.044.049.103.085.172.094.132.016.248-.063.293-.182 5.116-.928 8.864-.292 11.487.759.379.662.747 1.345 1.103 2.05-2.223-.585-4.874-.512-7.929.221.077-.052.126-.14.126-.234l-.012-.077c.042.104.124.188.243.188.154 0 .279-.126.279-.281-.001-.644-.565-1.121-1.125-1.31-.644-.216-1.255-.072-1.597.376-.32.422-.19.74-.086.893.336.484 1.293.587 1.847.526-.872.22-1.773.487-2.709.813l.036-.019c.383-.227.58-.518.558-.818-.023-.313-.271-.567-.736-.755-.604-.246-1.954.112-2.276.731l-.051.128c-.25.037-.479.078-.688.12.076-.256.072-.47-.011-.642.091.074.22.09.324.025.442-.274 1.166-1.091 1.035-1.749-.039-.197-.195-.544-.797-.641-.513-.083-.995.189-1.324.746-.243.412-.379.966-.219 1.313-.585.154-1.281.655-1.568 1.345l-.022.107c0 .107.063.206.165.252l-.052-.021c-.155-.001-.281.127-.283.282v.201c-.005.329-.008.614.223.777.218.153.504.079.755-.015.119-.043.243-.116.366-.203-.067.077-.092.188-.049.291l.014.021c-.263-.02-.564.048-.879.211-.469.242-.895.642-1.1 1.07l.006-.077.004-.148c0-.473-.136-.81-.395-.982.247-.146.475-.315.651-.496.4-.415.411-.74.349-.939-.086-.28-.35-.466-.781-.554-.715-.147-2.048.588-2.435 1.274-.581-.359-1.567-.174-2.188.271-.229.164-.392.354-.49.555-.273-.124-.584-.123-.888.018-.441.204-.828.683-.92 1.136-.09.445.084.845.425.971.111.04.25.049.393.002.121.321.104 1.143-.154 1.634-.096.182-.207.284-.33.306-.112.021-.186-.006-.255-.091-.212-.262-.223-.871-.119-1.129.058-.143-.011-.307-.154-.364-.144-.059-.307.011-.365.153-.077.188-.115.473-.099.767l-.03-.001c-.136.024-.232.144-.232.276l.004.048.035.432-.05-.144c-.097-.12-.273-.141-.394-.044-.154.122-.368.43-.56.799-.06.012-.117.039-.16.089-.174.203-.427.251-.561.178-.117-.063-.098-.221-.063-.342.138-.468 1.008-1.17 1.464-1.081.152.03.299-.069.329-.221.029-.152-.07-.3-.222-.329-.815-.159-1.911.802-2.108 1.473-.152.516.072.851.333.992l.108.046c-.16.055-.213.258-.264.458l-.011.045c-.038.149.053.303.203.341.139.035.272-.045.322-.175.086-.046.154-.119.154-.224v-.002c0-.104-.002-.293-.116-.393l.247-.025c-.103.338-.146.659-.079.89-.064.083-.08.196-.029.297.332.645.601 1.364.092 1.79-.171.143-.263.149-.284.14-.036-.017-.105-.131-.107-.331-.004-.229.082-.415.162-.456.14-.068.196-.237.127-.376-.069-.138-.237-.194-.375-.125l-.126.08c.12-.246.19-.466.19-.594v-.017c-.005-.108-.082-.176-.175-.214l.006-.025c0-.106-.06-.207-.162-.255-.439-.205-1.033.174-1.407.561-.497.515-.676 1.051-.48 1.437.258.509.653.466.81.424l.168-.068c.169.384.188 1.514-.107 2.129-.068.143-.182.315-.338.328-.139.011-.17-.037-.188-.063-.211-.327.11-1.448.306-1.805.075-.135.026-.305-.109-.38-.135-.076-.306-.026-.381.109-.104.189-.73 1.692-.287 2.38.148.229.398.342.704.317.232-.019.56-.146.799-.646.359-.754.379-2.177.046-2.721.107-.114.208-.242.3-.376-.031.125-.045.252-.043.364.006.398.169.71.435.832.182.082.48.112.877-.22.757-.635.461-1.586.2-2.162.092-.017.194-.047.314-.104.809-.387 1.068-1.447 1.067-2.359.193.203.449.291.735.24l.177-.052c-.272.404-.474.861-.539 1.244l-.025.278c0 .451.219.762.617.848.17.037.345 0 .513-.072-.059.395-.048.813.033 1.168.112.492.342.804.649.881.192.049.496.024.842-.372.126-.143.247-.379.34-.656.035.095.083.167.129.218.125.137.292.202.482.189.236-.016.49-.161.723-.346-.118.435-.175.998-.011 1.355.098.209.267.344.478.378.205.033.599.014.943-.484.474-.688.672-2.069.37-2.595-.078-.134-.249-.18-.383-.103s-.18.248-.103.382c.147.257.061 1.41-.346 1.997-.194.281-.343.257-.392.25l-.059-.061c-.142-.307.033-1.101.173-1.33.076-.126.039-.285-.078-.37l.239-.297c-.087.127-.262.16-.389.072-.128-.088-.161-.262-.073-.39-.228.333-.849.962-1.131.98l-.055-.116.003-.04c.047-.385.492-.962.738-1.187l.126.012c.067.091.154.172.271.23.16.082.429.134.792-.084.175-.106.351-.267.509-.447.028.156.074.306.148.425.129.21.323.321.545.312.223-.01.54-.118.784-.581.329-.624.39-1.699.123-2.131l-.018-.02.234-.268c.053.121.134.224.241.297.264.18.627.154.97-.068.411-.266.702-.783.78-1.385.065-.515-.041-.985-.291-1.314l.19-.271.037-.073c-.051.145-.07.287-.05.428.028.187.144.445.531.615.919.405 2.146-.99 2.41-1.488.104-.194.254-.634.254-1.037 0-.108-.012-.211-.037-.308.481-.183.952-.347 1.417-.502-.212.283-.371.59-.441.871-.027.113-.042.223-.042.325 0 .327.14.595.401.761.454.285 1.015.194 1.54-.248.616-.52 1.087-1.459.809-2.132l-.119-.213c3.374-.866 6.238-.929 8.562-.186.398.819.781 1.667 1.151 2.543-3.741-2.421-7.824-2.561-7.892-2.563-.155-.003-.283.119-.286.273-.004.155.118.283.273.287.068.002 4.525.162 8.294 2.962.289.723.57 1.463.842 2.225-.538-.464-1.133-.891-1.789-1.259-2.082-1.166-4.491-1.578-7.196-1.242.117-.14.2-.303.223-.485.039-.33-.076-.61-.327-.788-.332-.237-.872-.254-1.313-.04-.377.184-.604.501-.623.871-.015.323.1.585.31.753-1.021.234-2.078.563-3.175.994-.112.044-.177.151-.176.265-.151-.055-.317-.081-.474-.069l-.04.004c-.113.014-.219.045-.306.106-.042.028-.104.084-.153.167-.299.167-.693.298-.865.217-.063-.029-.088-.124-.076-.28.02-.256.519-.68 1.054-.79.162-.033.449-.061.55.133.071.138.241.191.378.119.138-.071.19-.241.118-.378-.197-.38-.62-.534-1.159-.423-.688.143-1.454.697-1.499 1.298-.041.539.23.751.396.828.204.097.46.092.717.033l-.004.021c.015.342-.208.794-.519 1.052-.149.123-.383.258-.651.197-.211-.049-.315-.35-.281-.6.021-.141.083-.307.27-.297.155.009.286-.11.296-.265.007-.155-.111-.286-.267-.294-.441-.023-.784.289-.854.778-.016.11-.013.224.002.336-.964.1-1.429.612-1.541 1.065-.092.371.039.732.331.919.105.068.314.161.624.12-.042.159-.06.331-.04.511.052.491.325.856.682.907l.161.003-.029.021c-.094.085-.142.208-.142.367l.001.024c.004.138.111.231.244.25l.026.138c0 .475-.242.933-.479 1.165l-.182.136-.095-.02-.1.02c-.071-.086-.154-.323-.133-.833.008-.155-.113-.285-.267-.293-.156-.006-.286.113-.292.269-.011.235 0 .439.027.619-.15.047-.289.127-.406.234l.001-.012c-.012-.155-.146-.271-.3-.259l-.211.049.252-.379c.057-.086.057-.189.015-.276.308-.161.585-.446.782-.646l.211-.207c.111-.108.132-.301.023-.411-.107-.111-.268-.131-.378-.022l-.259.249c-.45.462-.766.713-.95.536-.061-.058-.069-.105-.069-.146v-.002c0-.286.434-.721.664-.947l.079.039c.107.112.283.116.396.01.112-.106.117-.284.011-.396-.147-.154-.326-.241-.532-.258-.082-.007-.165.025-.223.083l-.098.097c-.322.317-.86.847-.856 1.379.001.208.085.397.241.547.124.119.252.184.38.209l-.158.236c-.086.129-.052.303.077.389l.168.042c-.136.099-.265.238-.381.414-.242.369-.425.922-.288 1.322.121.35.393.555.711.536.253-.015.481-.17.629-.402l.195.102c.144.055.27.076.381.075l.03.045c.176.177.288.921.098 1.399-.066.166-.149.251-.249.254-.086.002-.138-.154-.153-.203-.092-.316.007-.659.077-.699.138-.057.219-.216.169-.357-.05-.141-.191-.222-.335-.179-.426.128-.568.725-.487 1.222.08.49.366.788.746.776.334-.01.601-.226.753-.606.206-.521.184-1.403-.121-1.867.231-.225.362-.617.396-1.19.135-.057.27-.146.398-.274.517-.506.856-1.449.507-2.271-.038-.093-.123-.157-.223-.17l-.063-.001c.111-.06.225-.157.34-.309-.037.466.02.902.211 1.161.119.161.471.491 1.139.066.376-.239.587-.648.595-1.154v-.024c0-.501-.197-1.041-.498-1.441.623-.009 1.382-1.157 1.39-1.17.478-.734.685-1.678.139-2.222.459-.182.909-.339 1.354-.482-.478.326-.906 1.252-.687 1.765.068.158.297.506.964.334.616-.159.925-.734.999-1.178.077-.449-.045-.841-.317-1.023-.065-.044-.165-.09-.296-.103 3.723-1.079 6.939-.883 9.584.597.953.534 1.771 1.203 2.474 1.941.483 1.434.937 2.933 1.361 4.503.724 2.67 1.319 5.416 1.773 8.164.412 2.498.401 4.847.39 7.332l-.004 1.281-.066 1.419c-.086 1.271-.177 2.587.238 3.5.046.098.143.162.251.164l.866.016.012.003h2.556l.063-.012.032-.006.089-.051.012-.015.051-.066.013-.036.018-.053c.174-1.14.271-2.671.311-4.429.815-11.471 3.05-41.656 4.276-45.951.48-1.681 1.076-2.606 1.722-2.676.691-.075 1.598.828 2.485 2.477.069.128.224.182.358.124.132-.061.198-.211.153-.349zm-50.796 25.263l-.147.294c-.185.386-.569 1.189-.918 1.288-.043.012-.097.017-.179-.036-.153-.098-.195-.298-.126-.595.164-.708.829-1.433 1.136-1.469.122-.015.213-.106.238-.221l.259-.085c-.061.269-.059.493-.006.682-.105-.007-.206.041-.257.142zm.494-1.484c-.08-.025-.167-.019-.241.032-.29.201-.624.248-.811.115-.204-.144-.152-.464-.104-.644.179-.653.858-.973 1.515-1.281l.367-.178.016-.013c-.073.294-.076.59.027.875-.261.207-.558.637-.769 1.094zm6.136-9.622c.045-.135.276-.281.628-.299.383-.019.862.123 1.161.556-.209.112-.376.253-.469.431l-.062.17c-.283-.108-.584-.204-.89-.252l-.065-.083c-.237-.201-.347-.392-.303-.523zm4.733.257l.005.077c-.145-.011-.276.087-.298.233-.052.337-.669.758-1.346.918-.345.081-.649.086-.872.021.021-.123-.038-.249-.156-.302l-.138-.062-.124-.055.013-.141c.185-.355 1.363-.569 2.35-.564.134 0 .257-.091.282-.224.026-.131-.038-.261-.162-.311l-.325-.13c-.342-.131-.917-.35-.992-.619-.028-.102.02-.233.144-.393.132-.17.3-.241.527-.223.56.043 1.275.625 1.547 1.04l-.166.118c-.18.16-.28.374-.289.617zm3.663.131l.004.084c0 .354-.24.809-.578 1.072-.178.139-.453.281-.752.167-.064-.025-.212-.09-.212-.164v-.002c.015-.355 1.052-1.056 1.468-1.178l.085-.058-.018.043.003.036zm.378-1.079c-.014-.186.514-.413.954-.465.427-.051 1.058.021 1.333.226.162.12.177.175.177.176l-.079.163-.107.213c-.442.084-.895.18-1.356.289-.029-.072-.084-.132-.161-.161-.692-.255-.76-.439-.761-.441zm5.661 3.068c-.013-.017-.051-.072.071-.233.229-.3.651-.292.973-.185.369.124.742.432.742.778l.037.087c-.047-.146-.199-.229-.348-.186-.354.106-1.294 0-1.475-.261zm-18.209 10.236c-.019.24-.627 1.292-1.004 1.367-.025.006-.076.015-.154-.139-.065-.127.061-.459.383-.792.351-.362.686-.481.767-.443l.011.003-.003.004zm1.605-.685l-.168.059-.012-.07c0-.411.498-1.559.816-1.813.065-.052.094-.129.098-.205l.013.157c.001.751-.2 1.611-.747 1.872zm16.975-6.22c-.192.161-.562.402-.88.201-.05-.03-.201-.126-.114-.477.154-.617.893-1.389 1.364-1.425.098-.008.201.013.282.209.152.367-.16 1.076-.652 1.492zm-2.047-2.745c.299.121.385.235.388.278.004.046-.07.167-.284.293-.425.252-1.137.379-1.479.158l-.064-.046.03-.148-.081-.159c.291-.28 1.15-.515 1.49-.376zm-3.05-1.589c.117-.175.365-.46.706-.405.205.033.317.1.338.198.06.3-.403.928-.78 1.161-.109.067-.152.196-.117.314l-.077-.073.005-.153c-.034-.139-.178-.224-.319-.206l-.014-.078c0-.168.069-.475.258-.758zm-1.724 3.506l-.216.062-.008-.168.003-.338c0-.124-.091-.209-.203-.244.14.048.293-.016.351-.155.252-.602.958-1.017 1.354-1.047.112-.009.166.015.174.028l.012.064c0 .083-.04.245-.173.495-.393.102-.621.183-.64.19-.145.052-.22.212-.167.358.039.11.142.179.251.184-.248.256-.529.493-.738.571zm-.098 1.342c.104-.054.634-.307.839-.021.06.082-.034.262-.065.313-.288.505-1.12 1.052-1.534 1.013-.095-.011-.125-.047-.147-.111-.107-.319.333-.898.907-1.194zm-1.473 1.222l.034.149c.044.13.118.234.21.315-.204.085-.413.22-.604.383.154-.247.277-.543.36-.847zm-1.182.914c-.278.135-.331.033-.37-.041-.267-.519.095-1.923.561-2.177.186-.102.339-.135.41-.091.087.055.165.272.145.637-.039.704-.395 1.501-.746 1.672zm-.849-3.135c.108-.454 1.368-1.179 1.871-1.077.257.053.347.132.358.171.013.042-.016.176-.216.384-.463.479-1.323.838-1.737.725-.246-.067-.279-.138-.279-.179l.003-.024zm.128.743l.254.037c-.214.285-.374.674-.463 1.076.009-.162-.017-.309-.086-.432-.063-.113-.178-.234-.375-.307.081-.083.153-.169.206-.258.052-.088.088-.176.112-.265.091.059.208.109.352.149zm-1.564 3.886c.202-.863.566-1.391.699-1.423.001.011.136.128.246.739l.021.234c0 .51-.271 1.072-.677 1.361-.228.161-.314.146-.315.146-.026-.022-.066-.137-.066-.359 0-.169.022-.399.092-.698zm.438-2.039c-.477.637-1.142 1.047-1.547.953-.343-.078-.334-.208-.331-.264.038-.57 1.354-1.617 1.816-1.659.211-.021.365.011.404.077.054.098.009.425-.342.893zm-1.316-2.215c.455-.325 1.12-.436 1.481-.284l.033.12.047.156c0 .057-.017.125-.066.207-.227.385-.951.742-1.46.723-.127-.006-.29-.037-.349-.158-.162-.331.082-.598.314-.764zm-2.005 1.698c-.044-.017-.111-.134-.071-.334.058-.283.324-.607.607-.738.167-.078.318-.08.45-.008l.098.031c.013.12.044.241.104.361.115.235.336.386.628.442-.491.428-.901.964-.931 1.415l-.001.051c0 .189.071.526.517.715-.266 0-.54.129-.797.338.278-.655.289-1.584.093-2.013l-.064-.091.054-.082c.076-.135.027-.307-.108-.381-.135-.076-.306-.027-.381.107-.091.161-.174.195-.198.187zm.161 4.791c-.064-.014-.233-.051-.159-.483.137-.803.974-1.869 1.42-1.813.199.025.23.109.245.145.114.296-.189.998-.676 1.566l-.006.007-.066.072c-.369.403-.657.527-.758.506zm1.497 1.782c-.154.175-.254.207-.285.198-.055-.014-.169-.152-.24-.462-.039-.17-.058-.361-.058-.556 0-.42.091-.852.277-1.114l.064-.07.03-.038.024-.025.011-.02.035-.044.136.042c.154-.012.244.036.309.167.245.488-.057 1.641-.303 1.922zm1.799-2.332c-.2.134-.595.574-.848 1.044.013-.329-.026-.645-.146-.885-.128-.257-.337-.415-.6-.462.308-.522.485-1.091.326-1.502-.069-.179-.2-.31-.373-.396.22.016.447-.031.67-.125-.256.749-.422 1.784.026 2.141.173.137.483.225.983-.13.554-.394.912-1.134.912-1.824l-.029-.328c-.071-.391-.197-.881-.49-1.092.141-.214.239-.419.295-.609-.065.465-.034.914.116 1.206.214.414.631.522 1.112.288l.094-.053c-.099.136-.178.274-.23.409-.081.206-.098.398-.061.571l-.028.005c-.396.157-1.353 1.017-1.498 1.722-.079-.018-.173-.019-.231.02zm2.901.154c-.066.126-.174.277-.313.283l-.082-.128c-.091-.248-.064-.607-.002-.72.063-.114.034-.251-.057-.338l.007-.05c.003-.154-.121-.281-.276-.284-.155-.002-.282.122-.284.275-.003.185-.371.791-.773 1.034-.109.065-.202.09-.25.065l-.047-.029-.045-.154c.059-.447.884-1.223 1.159-1.331l.107-.082.056.042c.172.114.378.143.596.083.124-.033.248-.097.37-.179.097.27.089 1.03-.166 1.513zm2.269-3.384c-.057.433-.258.812-.529.986-.173.112-.296.111-.35.074-.069-.047-.091-.188-.055-.363l-.027-.18.005-.01c.067-.14.009-.307-.13-.375-.14-.066-.307-.009-.375.131-.149.311-.742 1.132-1.16 1.247l-.139-.01c-.062-.041-.175-.115-.069-.387.207-.527.979-1.089 1.235-1.047.153.024.297-.079.322-.231l-.003-.084c.37-.074.777-.297 1.117-.575l.011-.004c.098.161.162.362.162.603l-.015.225zm.561-1.75c.113-.337.012-.567-.072-.685-.076-.104-.169-.188-.275-.247l1.459-.608c.144-.059.211-.223.151-.366s-.224-.21-.366-.15l-1.491.621c.407-.313.798-.769.985-1.059.299-.071.671-.146 1.101-.208.071.102.178.206.335.307.334.215.811.242 1.266.152l-.324.119-.08.051c-.482-.217-1.022.303-1.351.619l-.124.114-.082.072c-.476.417-.922.847-1.132 1.268zm2.329-.546c-.266.502-1.257 1.429-1.689 1.238-.187-.082-.199-.161-.203-.187-.038-.248.32-.702 1.064-1.351l.085-.075.143-.133c.544-.525.693-.533.733-.512.119.068.037.696-.133 1.02zm4.755.403c.01-.217.196-.339.308-.393.252-.122.577-.126.741-.009.049.034.101.089.101.208l-.004.058c-.035.297-.496.525-.835.497-.29-.025-.317-.206-.311-.361zm-9.3 11.117c-.076.005-.122-.084-.148-.158-.053-.158.018-.512.227-.833.146-.222.301-.328.39-.335l.021-.006c-.123.19-.204.405-.224.606-.013.125-.003.244.022.354l-.03.067c-.044.202-.177.3-.258.305zm.822-.669c.031-.296.261-.596.492-.651.076.114.172.202.288.256-.041.593-.187.761-.254.808-.023.016-.097.065-.292-.008-.065-.026-.265-.102-.234-.405zm7.354-7.868c-.048.278-.229.637-.587.729-.027.007-.274.068-.309-.012-.102-.236.208-.91.501-1.093.171-.107.278-.115.316-.089.061.04.123.21.079.465zm-4.899 3.524c-.142-.059-.306.008-.366.149-.217.517-.404.601-.442.595-.058-.009-.179-.158-.205-.413-.015-.134-.026-.582.408-.746.146-.054.219-.215.164-.36l-.03-.048-.055-.155c-.097-.121-.273-.142-.395-.045-.466.371-.794.4-.933.312-.088-.057-.123-.177-.089-.313.063-.26.389-.587 1.093-.648l.098-.029c.121.177.292.313.517.365.301.069.614.014.903-.154-.041.18-.048.377.011.557l-.146.063c-.204.176-.381.507-.507.89l-.026-.02zm1.229.982c-.005.318-.116.551-.336.688-.3.192-.365.103-.387.073-.083-.11-.119-.311-.119-.55 0-.477.148-1.086.362-1.437.273.304.479.79.479 1.208l.001.018zm.984-2.934c-.251.384-.753.909-.922.919l-.076-.055c-.055-.127.01-.402.101-.54.087-.128.053-.302-.077-.388l-.003-.002c.248-.346.397-.769.384-1.138l-.02-.078.135.004c.145-.032.234-.187.214-.332l.101-.077c.094.013.224.045.313.112.464.349.105 1.181-.15 1.575zm20.886-.608c.451 3.246 1.215 13.12 1.215 20.38 0 .661-.007 1.296-.021 1.904-.145 2.032-.244 3.474-.285 4.08h-.596c.156-4.707-.438-15.222-.959-21.325-.867-14.095-3.775-24.531-5.633-29.953 2.013 4.391 4.94 12.55 6.279 24.914zm-1.658.906c.123.683.284 2.184.452 4.151.078 1.257.14 2.541.182 3.855.003.095.058.173.132.222.357 5.126.671 11.393.671 15.438 0 .668-.011 1.261-.029 1.792h-.839c.021-.562.06-1.91.06-3.846 0-4.238-.192-11.278-1.207-18.98-1.315-9.987-4.29-22.905-11.001-31.237 3.626 3.806 8.926 11.982 11.579 28.605zm-1.742-1.356l.187 1.155c-.531-1.484-1.048-2.829-1.549-4.056 1.041 1.437 1.314 2.776 1.318 2.797l.044.104zm-.596-3.164l.018.026.111.558c-.374-.626-.887-1.303-1.577-1.936-.191-.438-.379-.859-.564-1.263 1.416 1.385 2.003 2.598 2.012 2.615zm-10.101-11.659c-4.633-5.363-10.92-8.283-17.701-8.348 4.117-.337 10.788.454 17.848 6.823l.857.907c1.397 1.438 3.234 3.331 5.478 7.656l-.303-.202c-.608-.38-1.318-.757-2.133-1.095-1.23-2.126-2.572-4.037-4.046-5.741zm4.511 6.56c.493.235.941.482 1.343.732.429.268.817.546 1.174.825.223.456.448.934.679 1.439-.214-.146-.439-.288-.679-.422-.482-.268-.992-.491-1.527-.676-.322-.65-.652-1.282-.99-1.898zm1.341 2.634c.307.128.606.265.892.424.556.31 1.034.663 1.448 1.035.564 1.303 1.15 2.757 1.759 4.398-.831-1.226-1.813-2.209-2.85-2.995-.399-.989-.816-1.943-1.249-2.862zm5.506 10.516l.067.12.1.833c-.598-1.559-1.583-3.506-3.145-5.16-.274-.809-.56-1.593-.853-2.361 1.681 1.499 3.126 3.603 3.831 6.568zm.476 20.396c0-.497.037-1.028.072-1.553l.068-1.457.004-1.278.004-1.22c0-2.07-.049-4.077-.401-6.207-.457-2.766-1.058-5.53-1.785-8.22-.299-1.105-.613-2.178-.941-3.218 2.285 3.045 2.938 6.584 2.947 6.633l.044.108c.86 9.098.655 16.456.601 17.935l-.406-.007c-.152-.421-.207-.943-.207-1.516zm9.959-51.76c-.916.1-1.636 1.106-2.199 3.08-1.058 3.699-2.794 25.532-3.807 39.262-.136-3.986-.409-8.138-.691-11.334l.005-.023c.008-.234 1.72-25.241 4.237-29.472.798-1.339 1.579-1.978 2.323-1.897.38.041.736.281 1.061.605-.299-.166-.611-.255-.929-.221zM33.142 66.846c-.156-.072-.338-.099-.515-.054-.043-.051-.104-.09-.175-.101-.153-.021-.295.086-.316.239-.064.453-.315.999-.458 1.082-.02-.017-.067-.06-.142-.223-.044-.095-.066-.233-.066-.396 0-.341.099-.781.299-1.116.103-.171.271-.377.491-.39.149-.009.264-.133.264-.28v-.016c-.009-.155-.142-.272-.296-.264-.368.021-.692.251-.939.661-.374.624-.491 1.537-.26 2.035.237.514.524.586.723.557l.193-.07.175.499c-.625.166-.941 1.104-.875 1.921.055.679.375 1.096.834 1.089.242-.002.445-.093.588-.262l.025-.039c.155.107.321.477.311.846-.002.133-.033.368-.199.466-.12.069-.169.042-.191.029-.133-.074-.252-.373-.26-.652-.004-.154-.133-.276-.288-.272-.155.005-.276.133-.272.288.012.415.186.926.548 1.128.225.124.489.111.744-.037.298-.173.467-.505.479-.936.012-.47-.181-1.079-.572-1.334l-.107-.042c.055-.382-.005-.82-.058-1.164.088.051.179.086.273.093.548.043.872-.657.979-.887.361-.778-.242-2.071-.937-2.398zm-.904 4.55c-.027.03-.067.063-.168.064-.153.002-.246-.296-.269-.574l-.006-.166c0-.46.148-.901.342-1.082l.09.149.037.283c.031.206.083.541.083.831 0 .211-.027.399-.109.495zm1.332-2.387c-.219.473-.384.567-.427.563-.004-.001-.328-.041-.739-1.467l-.043-.082c.072-.135.131-.28.178-.419l.036-.05c.137-.291.253-.236.331-.2.436.204.885 1.178.664 1.655z"/></g></svg>