<?xml version="1.0" encoding="utf-8"?>
<!-- Generator: Adobe Illustrator 15.0.0, SVG Export Plug-In . SVG Version: 6.00 Build 0)  -->
<!DOCTYPE svg PUBLIC "-//W3C//DTD SVG 1.1//EN" "http://www.w3.org/Graphics/SVG/1.1/DTD/svg11.dtd">
<svg version="1.1" id="Ebene_1" xmlns="http://www.w3.org/2000/svg" xmlns:xlink="http://www.w3.org/1999/xlink" x="0px" y="0px"
	 width="100px" height="100px" viewBox="0 0 100 100" enable-background="new 0 0 100 100" xml:space="preserve">
<circle fill="#B2B2B2" cx="50" cy="50" r="50"/>
<path d="M73.453,32.042c-3.776,0.541-13.756-1.878-19.149,7.565c-5.01,8.766-2.091,10.86-4.612,10.498
	c-0.704-0.103-2.536-13.602-11.796-16.028c-9.26-2.427-13.194-0.249-14.538-1.097c-1.344-0.849-1.924,2.094,0.049,5.936
	c1.974,3.842,7.616,9.082,13.245,10.965c4.768,1.594,11.016,4.046,11.016,4.046c0.473,1.36,2.545,13.447-0.152,24.014h4.72
	c1.575-13.265-0.687-23.981-0.687-23.981c1.451-0.989,7.925-0.861,13.657-5.652c4.313-3.605,9.195-10.778,10.99-13.928
	C77.994,31.23,77.229,31.501,73.453,32.042z"/>
</svg>
