<svg xmlns="http://www.w3.org/2000/svg" width="100" height="100"><circle fill="#B2B2B2" cx="50" cy="50" r="50"/><path d="M73.453 32.042c-3.776.541-13.756-1.878-19.149 7.565-5.01 8.766-2.091 10.86-4.612 10.498-.704-.103-2.536-13.602-11.796-16.028-9.26-2.427-13.194-.249-14.538-1.097-1.344-.849-1.924 2.094.049 5.936 1.974 3.842 7.616 9.082 13.245 10.965 4.768 1.594 11.016 4.046 11.016 4.046.473 1.36 2.545 13.447-.152 24.014h4.72c1.575-13.265-.687-23.981-.687-23.981 1.451-.989 7.925-.861 13.657-5.652 4.313-3.605 9.195-10.778 10.99-13.928 1.798-3.15 1.033-2.879-2.743-2.338z"/></svg>