<svg xmlns="http://www.w3.org/2000/svg" width="100" height="100"><circle fill="#B2B2B2" cx="50" cy="49.935" r="50"/><path d="M61.587 70.619c-3.519 2.02-7.515 3.09-11.583 3.108h-.026c-3.935-.003-7.892-.999-11.559-3.108h-.001c-3.66-2.113-6.516-5.07-8.479-8.481l-11.277 6.512c3.074 5.324 7.544 9.947 13.246 13.243l3.257-5.636-1.925 3.326-1.332 2.31c5.68 3.277 11.928 4.853 18.069 4.85h.026c6.337 0 12.593-1.682 18.093-4.85l-6.509-11.274zM50.004 14.358c-6.339 0-12.596 1.684-18.096 4.853-5.327 3.072-9.949 7.541-13.246 13.246-3.28 5.681-4.857 11.928-4.853 18.068v.028h13.019l-.001-.028c.004-3.933.995-7.894 3.108-11.555h.003c2.112-3.659 5.067-6.519 8.479-8.487 3.518-2.017 7.516-3.099 11.586-3.103v-13.022zM86.195 50.553c0-6.338-1.682-12.594-4.85-18.096-3.074-5.324-7.543-9.947-13.249-13.246l-6.51 11.278c3.665 2.11 6.519 5.064 8.479 8.481 2.027 3.513 3.1 7.517 3.109 11.583l.002.026c-.002 3.935-.993 7.886-3.111 11.559l11.275 6.513c3.284-5.684 4.854-11.934 4.854-18.071l.001-.027zM69.655 74.44c.044.487.448.723.897.515l18.886-8.717c.449-.209.424-.479-.052-.599l-11.357-2.937c-.48-.123-1.152-.514-1.501-.864l-8.22-8.372c-.344-.351-.592-.236-.545.254l1.892 20.72zM60.864 21.587c.401-.281.401-.747 0-1.031l-16.996-11.994c-.405-.291-.627-.133-.494.342l3.14 11.301c.131.478.131 1.261 0 1.733l-3.14 11.302c-.133.475.089.629.494.351l16.996-12.004zM19.491 55.629c-.449-.206-.85.023-.898.52l-1.891 20.715c-.045.492.201.604.549.256l8.218-8.369c.346-.356 1.021-.746 1.498-.87l11.357-2.931c.481-.12.502-.396.055-.602l-18.888-8.719z"/></svg>