<svg xmlns="http://www.w3.org/2000/svg" width="100" height="100"><circle fill="#B2B2B2" cx="50" cy="50" r="50"/><path d="M31.846 20.949c0-4.363 3.536-7.9 7.9-7.9 3.024 0 5.651 1.7 6.979 4.198.298-.059.605-.091.922-.091 2.19 0 4.033 1.487 4.576 3.508.211-.021.422-.031.637-.031 1.346 0 2.598.392 3.65 1.065.514-.276 1.1-.434 1.723-.434 1.664 0 3.066 1.12 3.498 2.646.35-.076.711-.118 1.084-.118 1.906 0 3.564 1.054 4.426 2.611.201-.053.412-.083.631-.083 1.396 0 2.527 1.132 2.527 2.528 0 .338-.066.66-.188.954 1.336.067 2.4 1.169 2.4 2.521 0 1.396-1.133 2.528-2.529 2.528-.895 0-1.68-.467-2.129-1.169-.314.141-.664.221-1.031.221-.639 0-1.219-.238-1.664-.629-.725.4-1.557.629-2.443.629-1.221 0-2.338-.432-3.213-1.15-.629.521-1.436.835-2.318.835-.41 0-.805-.069-1.172-.195-.967.527-2.074.827-3.252.827-2.074 0-3.931-.932-5.177-2.398-.931.711-2.093 1.134-3.354 1.134-2.578 0-4.742-1.761-5.356-4.146-4.002-.389-7.127-3.759-7.127-7.861zM74.68 37.473s-1.238-.748-3.053-.748c-1.816 0-3.055.748-3.055.748l-.328 18.447-13.506-8.556v9.503l-15.002-9.503v9.503l-15.001-9.503v31.066h50.674l-.729-40.957zm-33.881 32.459h-9.06v-6.953h9.06v6.953zm12.219 0h-8.426v-6.953h8.426v6.953zm12.22 0h-8.428v-6.953h8.428v6.953z"/></svg>