<svg xmlns="http://www.w3.org/2000/svg" width="100" height="100"><circle fill="#B2B2B2" cx="50" cy="50" r="50"/><path stroke="#231815" stroke-miterlimit="10" d="M59.958 159.059" fill="none"/><g fill="#221714" stroke="#231815" stroke-miterlimit="10"><path d="M64.817 57.24c-1.202-.609-1.53-2.029-1.653-2.563-.112-.488.117-1.49.615-2.684.023-.055.02-.121-.01-.174-.03-.053-.082-.09-.143-.1-.785-.127-1.572-.277-2.338-.443-.059-.016-.122 0-.169.039-.048.039-.074.098-.073.158.004.135.086 3.307.444 3.74.393.459 2.09 2.033 2.685 2.232l.492.158.06.008c.079 0 .153-.047.185-.123.039-.092-.002-.203-.095-.248zM66.959 56.711l-.128.094-.02.156.062.242c.02.094.103.158.194.158l.037-.004c.274-.053 1.195-.258 1.558-.676l-.115-.156v-.002l.141.143c.083-.059.109-.168.062-.258-.102-.189-.196-.396-.282-.623-.029-.076-.1-.125-.18-.129-.074-.004-.154.045-.188.117-.257.565-.775.858-1.141.938zM73.242 59.34l.021.016.073.033.613.115.032.002.123-.041.075-.141c.019-.236.031-.48.037-.727.003-.104-.072-.189-.174-.203-.844-.109-1.545-.41-1.984-.643-.082-.043-.185-.023-.244.047-.061.072-.063.176-.006.25.321.415.741.891 1.434 1.292zM70.508 52.34c-.037-.041-.086-.066-.148-.066l-.239.002c-.631 0-1.301-.02-1.991-.057-.057-.002-.113.018-.152.059-.041.041-.061.096-.057.154.062.785.343 3.434 1.383 4.549.796.852 1.424 1.523 2.646 2.006l.071.013c.065 0 .128-.033.165-.09.053-.078.043-.18-.022-.248-.328-.338-.581-.684-.877-1.104-.147-.209-.315-.445-.494-.67-.485-.607-.439-2.668-.233-4.393l-.052-.155zM65.811 62.877c-.075 1.803-.052 5.529.262 6.533.158.506.209 1.666.139 3.268-.004.088.051.166.133.195l.066.014c.062 0 .121-.029.16-.082l.251-.307c.151-.17.325-.348.526-.543.051-.049.07-.148.053-.217.003-.021.26-2.115.004-2.885-.197-.586-.214-1.725-.235-3.064-.008-.49-.017-1.004-.033-1.523l-.037-1.057c-.056-1.721-.12-3.668-.229-5.031-.073-.932-.208-1.324-.308-1.49-.041-.066-.118-.104-.195-.096-.441.057-.857.209-1.066.297-.085.035-.135.125-.12.215l.036.225c.151.966.648 4.22.593 5.548zM65.753 74.498l-.007.063.122 2c.004.074.048.137.113.168.194.092.4.139.609.139.443 0 .813-.203.993-.326.053-.035.084-.094.088-.156.012-.273.048-1.193-.006-1.516l-.021-.186c-.016-.174-.033-.369-.199-.521l-.065-.039-.024-.018-.054-.039c-.124-.064-.286-.107-.507-.135l-.197-.016c-.513 0-.773.301-.845.582zM67.086 77.203c.01-.063-.012-.127-.057-.172s-.109-.064-.172-.055l-.266.024c-.169 0-.343-.031-.517-.094-.055-.02-.115-.014-.166.014-.051.029-.086.08-.097.137-.185.977-.47 2.758-.366 3.242.018.076.076.135.152.152.178.039.464.061.784.061.2 0 .403-.01.587-.025.065-.006.124-.045.156-.102.031-.059.033-.127.003-.188-.247-.486-.262-1.578-.041-2.994zM67.564 76.811c-.056-.029-.135-.025-.192 0-.059.029-.101.082-.111.146-.005.029-.501 2.914.108 3.344l.012.016c.037.043.1.066.158.066l.068-.012.104-.078c.338-.5-.028-3.311-.032-3.34-.008-.06-.059-.111-.115-.142zM76.355 58.27l-1.773-.254c-.059-.008-.115.01-.158.047-.043.039-.068.092-.068.15 0 1.375-.163 2.471-.472 3.164l-.239.549-.043.096c-1.448 3.346-3.232 7.299-4.169 8.184-.435.41-.808.752-1.136 1.049-.581.529-1.001.912-1.377 1.332-.252.279-.461.588-.625.924-.031.063-.025.141.015.199s.106.092.18.084l.052-.004.271.01c.143.02.268.047.382.084l.062.01c.076 0 .148-.043.182-.115.148-.326.514-.895 1.274-1.037.806-.15 1.905-1.424 2.789-2.449.247-.285.48-.557.685-.775.838-.896 4.114-8.701 4.34-11.031.008-.106-.066-.202-.172-.217zM84.22 47.402c-.934.327-1.731.542-2.031.618l-.093.054-.046.047c-.105.108-.243.249-.423.413l-.063.117c-.146.954-.897 5.769-1.3 6.894l-.441 1.236-.023.031c-.08.059-1.964 1.424-2.864 1.779l-.028-.01c-.058-.027-.124-.027-.179.002-.057.027-.096.082-.105.145-.033.215-.087.467-.156.75-.018.07.004.145.057.193l.136.055.059-.01c.861-.266 1.808-.797 2.077-.953l.062-.057c.142-.199.91-1.254 2.183-2.525 1.213-1.211 2.938-6.839 3.437-8.536.021-.071.001-.148-.053-.2s-.135-.068-.206-.043zM87.197 42.194c-.062-.058-.153-.069-.229-.031-.074.04-.115.122-.104.206.081.548.108.9.112.981-.021.135-.611 3.327-7.204 4.646-2.014.402-4.701.625-7.568.625-2.168 0-4.306-.129-6.182-.371-4.063-.523-9.063-1.798-9.813-4.895l.064-.082.064.051c.918 3.793 8.84 5.146 15.947 5.146 2.825 0 5.545-.22 7.461-.604 6.129-1.227 7.01-4.166 7.09-4.497l.006-.063c-.033-.418-.381-4.184-2.399-7.786-2.585-4.617-6.852-7.057-12.335-7.057-.301 0-.606.007-.91.021-5.568.255-9.628 2.358-12.063 6.251-1.795 2.868-1.993 5.705-2 5.824-.006.077-.151 1.902-1.89 2.838-1.067.575-2.854 1.537-2.886 2.805-.021.812.684 1.655 2.095 2.512 3.163 1.916 10.079 3.417 15.746 3.417l.359-.002.079-.018.021-.012.068-.184-.039.195.078.014c1.683-.031 3.082-.201 4.163-.506 2.902-.818 5.079-1.848 6.468-3.06l.064-.11.056-.05.115-.053.319-.317.1-.101.03-.018c.058-.015 5.744-1.468 5.999-3.168.208-1.366-.547-2.237-.882-2.547zM80.871 46.901c-.469.469-1.039.804-1.672 1.065l.549-.101c6.129-1.227 7.01-4.166 7.09-4.497l.006-.063c-.033-.418-.381-4.184-2.399-7.786-.495-.885-1.054-1.688-1.669-2.411 2.484 4.364 1.851 10.741-1.905 13.793zM57.617 41.949s-.1.662-1.293 1.324c0 0 .414 2.98 5.713 4.04 5.297 1.059 10.263 1.522 14.7.993 0 0-19.104-1.259-19.12-6.357zM87.246 41.801c-.083-.061-.189-.066-.275-.023-.705-3.986-3.694-14.179-15.786-13.625-7.093.325-10.626 3.674-12.342 6.426-1.858 2.982-2.03 5.844-2.037 5.959-.005.07-.148 1.724-1.716 2.567-1.13.608-3.022 1.628-3.06 3.088-.024.951.713 1.868 2.253 2.802 1.567.949 3.871 1.756 6.43 2.354.02.906.109 3.594.527 4.08.389.455 2.16 2.107 2.832 2.332.396.131.736.236.92.289.209 1.396.531 3.754.487 4.813-.054 1.301-.091 5.467.277 6.645.31.992.062 4.254.055 4.334-.245.197-.365.463-.395.643l-.003.059.131 2.152c-.766 3.838-.35 3.977-.148 4.043.207.07.586.105.991.105.505 0 1.053-.055 1.37-.174.482-.182.563-1.48.235-3.861l-.062-.129.064-.152c.006-.131.064-1.299-.004-1.713l-.018-.162c-.022-.248-.07-.494-.258-.689.113-.268.408-.775 1.057-.896.918-.172 2.013-1.439 2.978-2.559.245-.285.478-.553.677-.766.748-.801 3.152-6.379 4.076-9.629l.055-.006c1.086-.271 2.4-1.057 2.456-1.09l.081-.076c.008-.012.8-1.148 2.177-2.523 1.444-1.445 3.512-8.639 3.6-8.944l.007-.102c1.618-.618 3.373-1.523 3.531-2.581.287-1.903-1.103-2.947-1.163-2.991zm-25.604 13.285c-.2-.242-.356-2.025-.396-3.615.768.168 1.555.318 2.35.447-.259.619-.799 2.051-.625 2.803.133.58.474 2.045 1.756 2.695l-.487-.156c-.518-.174-2.183-1.69-2.598-2.174zm13.379-3.148c3.235-.912 5.046-1.938 6.082-2.713-.205 1.375-.8 5.225-1.15 6.209l-.414 1.158c-.34.246-1.907 1.355-2.671 1.674l.001-.027c0-.133-.097-.244-.228-.262l-2.317-.332c-.076-.012-.152.012-.211.063-.058.049-.091.123-.091.201l.001.064-.001.086c-1.55-.223-2.643-1.139-2.653-1.148-.057-.047-.125-.066-.192-.063l-.126-.166c-.436-.543-.334-2.771-.155-4.219 1.579-.039 3-.207 4.125-.525zm-7.303 16.81c-.18-.537-.197-1.652-.218-2.943-.008-.498-.016-1.021-.034-1.551l-.034-1.031c-.057-1.73-.121-3.693-.23-5.072l-.047-.465c.327-.063 1.234-.27 1.702-.729l.204.248c1.288 1.379 2.154 2.186 4.867 2.633-.073.574-.19 1.055-.347 1.404l-.282.648c-.844 1.947-3.086 7.121-4.094 8.074-.434.41-.805.748-1.131 1.045l-.293.268c.063-.695.135-1.929-.063-2.529zm.856-12.246l-.049.039c-.298.34-1.075.547-1.458.621l-.065-.258c.373-.08.979-.393 1.279-1.049.086.227.184.446.293.647zm4.785 2.676c-.629-.357-1.037-.787-1.394-1.25.519.273 1.224.557 2.052.664-.006.25-.018.488-.035.715-.215-.033-.416-.072-.606-.113l-.017-.016zm-2.722-2.164c.172.213.332.439.486.66.269.379.545.764.897 1.127-1.18-.465-1.784-1.111-2.573-1.957-1.004-1.074-1.274-3.727-1.328-4.428.682.039 1.353.059 2.001.059l.241-.002c-.12 1.004-.375 3.728.276 4.541zm-3.053-4.631c.023.342.113 1.393.387 2.479l-.041.133c0 1.148-1.006 1.385-1.049 1.395l-.098.045c-.096-.121-.206-.182-.333-.182h-.001c-.77.07-1.457.41-1.485.426-.075.037-.126.109-.142.189-.826-.5-1.148-1.453-1.336-2.266-.135-.584.375-1.961.648-2.6 1.155.174 2.317.301 3.45.381zm-2.172 4.914l-.001-.01-.034-.215c.217-.09.604-.232 1.014-.281.063.102.205.436.282 1.402.108 1.365.173 3.322.229 5.047l.034 1.033c.019.525.026 1.045.034 1.539.021 1.336.039 2.488.244 3.105.201.604.061 2.223-.012 2.795l.006.1c-.192.186-.369.367-.535.551l-.264.324c.047-1.1.066-2.65-.148-3.338-.303-.969-.325-4.723-.252-6.465.055-1.321-.415-4.443-.597-5.587zm1.8 16.945l.099.066c.106.096.121.223.135.391l.025.203c.045.271.02 1.066.002 1.475-.152.102-.486.293-.882.293-.181 0-.356-.041-.524-.119l-.121-2.002c.032-.127.199-.504.823-.42.209.027.346.066.443.113zm-1.571 6.014c-.08-.367.113-1.826.365-3.162.189.068.385.105.585.105l.299-.027c-.128.82-.307 2.393.062 3.117-.479.043-1.041.027-1.311-.033zm1.906-.072l-.015.004-.047-.051c-.311-.217-.265-1.793-.028-3.146l.024-.01c.181 1.365.248 2.931.066 3.203zm4.493-10.803c-.206.221-.44.492-.69.781-.817.947-1.938 2.246-2.674 2.383-.841.158-1.246.771-1.42 1.15-.118-.039-.254-.07-.416-.092l-.25-.018-.115.01c.113-.232.301-.553.593-.877.37-.412.786-.793 1.363-1.318.329-.299.702-.639 1.138-1.051.964-.91 2.76-4.887 4.217-8.248l.279-.643c.321-.723.489-1.842.489-3.246l1.773.252c-.223 2.319-3.473 10.046-4.287 10.917zm8.857-13.338c-1.268 1.268-2.034 2.311-2.203 2.547-.222.131-1.183.674-2.035.938.07-.285.125-.541.16-.768l.116.029.098-.018c.904-.361 2.803-1.738 2.883-1.799l.095-.125.441-1.234c.445-1.248 1.216-6.581 1.249-6.806l-.005-.067c.216-.194.376-.357.496-.48l.046-.046c.304-.079 1.111-.297 2.048-.623-.388 1.314-2.184 7.247-3.389 8.452zm6.99-11.331c-.174 1.159-3.682 2.459-5.851 3.005l-.123.07-.101.103c-.582.596-2.128 2.182-6.936 3.538-1.104.311-2.523.469-4.111.5l-.062-.021-.144.023c-5.39.064-12.61-1.332-16.002-3.387-1.346-.815-2.018-1.601-1.999-2.335.03-1.152 1.753-2.081 2.782-2.636 1.828-.983 1.986-2.913 1.992-2.999.002-.028.177-2.865 1.971-5.732 2.398-3.834 6.404-5.906 11.904-6.157.307-.014.605-.021.9-.021 13.132 0 14.457 13.662 14.536 14.66-.073.303-.921 3.146-6.937 4.349-6.262 1.253-21.9.877-23.176-4.394-.035-.143-.179-.229-.32-.195s-.229.178-.195.32c.775 3.206 5.855 4.514 9.98 5.045 4.484.578 10.167.473 13.814-.256 6.725-1.346 7.339-4.668 7.361-4.81l.002-.061c-.006-.088-.033-.439-.114-.982.308.283 1.02 1.096.829 2.373z"/></g><g fill="#231815"><path d="M35.721 37.384c-.081-.017-.114.03-.114-.146 0-.175-.042-2.019-.046-2.098-.018-.223-.321-.24-.417-.144l-.113.112h-1.042c-.126 0-.368 0-.368-.064.018-.065-.031-.127-.16-.127-.224 0-.159.191-.24.191h-2.5c-.08 0-.018-.191-.241-.191-.128 0-.176.063-.161.127 0 .064-.24.064-.369.064h-1.01l-.111-.112c-.096-.096-.401-.079-.417.144-.005.079-.08 1.923-.08 2.098 0 .176-.032.128-.112.146-.081.017-.127.256.03.256h7.433s.117-.24.038-.256z"/><polygon points="29.65,35.588 29.65,34.692 29.297,34.692 29.297,34.563 28.464,34.563 28.24,34.34 28.24,34.628 26.446,34.628 26.446,32.417 28.208,32.417 28.368,32.578 28.526,32.737 29.424,32.737 29.424,32.449 29.905,32.449 29.905,32.642 34.551,32.642 34.551,35.588"/><path d="M22.328 65.159c-.006-10.972-1.621-14.263-2.298-19.128-.156-1.132-.24-2.332-.24-3.519.001-1.435.122-2.851.396-4.126.275-1.274.692-2.413 1.375-3.293.633-.813 1.387-1.479 2.367-1.889.981-.414 2.133-.576 3.608-.576v1.826c-1.345 0-2.244.157-2.898.432-.652.279-1.116.671-1.637 1.333-.423.531-.796 1.44-1.03 2.549-.239 1.109-.355 2.414-.355 3.744 0 1.103.079 2.224.223 3.271.617 4.526 2.32 8.247 2.317 19.379h-1.828v-.003z"/><polygon points="24.647,67.27 24.292,64.838 23.229,64.838 22.167,64.838 21.812,67.27 21.583,67.498 21.583,69.044 22.874,69.044 23.583,69.044 24.876,69.044 24.876,67.498"/><path d="M25.885 59.266h-2.5v2.786h1.779l.192.913v.863s-.049.097.337.097l.192-4.659zM30.313 30.342c-.146 0-.206.146-.321.321-.118.175-.234.41-.118.586.118.175.762 1.464.819 1.582.06.118.225.322.43.322.204 0 4.92.088 5.447.088.527 0 1.152.04 2.208.424.875.319 1.92.656 2.242.802s.713.413.86.618c.146.205.497.673.616.819.118.146.293.205.409.029.118-.176.322-.558-.146-1.171-.468-.616-.731-.762-1.29-1.144-.556-.38-2.107-1.229-2.517-1.435-.412-.205-1.319-.499-1.847-.615-.527-.119-1.816-.088-2.167-.206-.353-.117-.558-.206-.558-.499 0-.292-.118-.525-.411-.525s-3.076-.03-3.368-.03c-.291.001-.288.034-.288.034zM30.106 30.839s.234-.732.234-.82.059-.118.293-.234c.233-.118 6.396-2.882 6.678-2.987.938-.352 1.647-.611 2.489-.703 1.055-.118 2.374-.06 2.958-.06.353 0 .88.176.938.558.059.381.293.497-.146.497s-2.666.234-3.164.293c-.048.007-.491.011-.997.294-1.728.966-6.032 3.456-6.032 3.456s-1.348.938-2.548.762c-.664-.098-.703-1.056-.703-1.056zM36.361 23.35s-1.25-.048-2.098-.048c-.946 0-1.682.864-1.682 1.458l-.017 1.105c0 .336.031.625.191.817.161.193 1.379 1.33 1.522 1.491.146.161.208.208.353.127.087-.048.761-.384 1.329-.685v2.367c0 .071.059.127.129.127.071 0 .126-.058.126-.127v-2.502c.256-.141.461-.259.528-.317.224-.192.401-.497.401-.722v-2.386c.003-.432-.494-.705-.782-.705zm-1.449 3.525c-.758 0-1.37-.614-1.37-1.37 0-.755.614-1.37 1.37-1.37.754 0 1.369.614 1.369 1.37 0 .756-.614 1.37-1.369 1.37zM36.091 38.413c-.93-.502-.93-.861-.93-.861h-6.304s0 .359-.931.861c-.931.5-2.363 1.36-2.363 3.724v34.178000000000004c0 .43 1.791 1.922 6.446 1.922 4.654 0 6.446-1.492 6.446-1.922v-34.178000000000004s-1.432-3.224-2.364-3.724zm.166 30.153c0 .041-.038.076-.087.076h-8.307c-.048 0-.087-.035-.087-.076v-15.486c0-.043.039-.078.087-.078h8.307c.049 0 .087.035.087.078v15.486z"/></g></svg>