<svg xmlns="http://www.w3.org/2000/svg" width="100" height="100"><circle fill="#B2B2B2" cx="50" cy="50" r="50"/><g stroke="#231815" stroke-miterlimit="10"><path d="M67.14 81.554c-9.534 1.595-18.263-1.829-19.498-7.646-1.233-5.816 5.494-11.823 15.028-13.417 9.529-1.593 18.259 1.833 19.493 7.647 1.235 5.817-5.493 11.824-15.023 13.416z" fill="none"/><path d="M66.676 79.382c-7.564 1.266-14.495-1.452-15.474-6.07-.98-4.616 4.361-9.385 11.926-10.648 7.567-1.266 14.496 1.453 15.475 6.069.98 4.619-4.359 9.385-11.927 10.649z" fill="none"/><path d="M66.223 77.243c-5.629.941-10.785-1.08-11.514-4.518-.729-3.436 3.246-6.983 8.873-7.923 5.631-.941 10.787 1.081 11.516 4.515.729 3.436-3.244 6.987-8.875 7.926z" fill="none"/><path d="M65.765 75.075c-3.669.612-7.03-.704-7.507-2.942-.474-2.239 2.117-4.55 5.787-5.163 3.666-.613 7.021.704 7.497 2.942.478 2.239-2.11 4.55-5.777 5.163z" fill="none"/><path fill="#231815" d="M65.133 72.108c-.982.165-1.883-.189-2.01-.789s.566-1.219 1.547-1.383c.986-.164 1.885.189 2.014.787.127.602-.567 1.221-1.551 1.385z"/><g fill="none"><line x1="63.083" y1="71.396" x2="47.765" y2="73.956"/><line x1="66.697" y1="70.792" x2="82.284" y2="68.187"/><line x1="64.707" y1="70.101" x2="62.625" y2="60.292"/><line x1="65.133" y1="72.108" x2="67.137" y2="81.554"/></g><g fill="none"><line x1="63.877" y1="72.032" x2="54.448" y2="80.451"/><line x1="66.103" y1="70.046" x2="75.695" y2="61.479"/><line x1="63.713" y1="70.519" x2="50.878" y2="65.481"/><line x1="66.34" y1="71.548" x2="78.705" y2="76.398"/></g><path d="M67.424 82.639c-10.611 1.774-20.326-2.037-21.7-8.513-1.375-6.475 6.113-13.162 16.725-14.934 10.61-1.775 20.327 2.036 21.7 8.512 1.377 6.476-6.114 13.161-16.725 14.935z" fill="none"/></g><polygon points="47.254,20.275 47.254,31.666 32.609,20.275 32.609,31.666 17.963,20.275 17.963,51.891 61.9,51.891 61.9,31.666"/></svg>