<svg xmlns="http://www.w3.org/2000/svg" width="100" height="100"><circle fill="#B2B2B2" cx="50" cy="50" r="50"/><path d="M47.029 31.731c-1.762-1.212-5.836-1.982-7.048-1.982-1.211 0-2.312-1.872-2.312-3.082v-2.722c.369-.131.651-.446.883-1.133.326-.99-.113-2.312-.663-2.754-.551-.439-2.533-1.76-2.533-1.76v-3.303h8.919c0-.771.329-2.422-1.432-3.194-1.761-.771-6.387-1.21-6.387-1.981 0-.881-1.869-1.32-3.082-1.32-1.211 0-3.082.439-3.082 1.32 0 .771-4.625 1.211-6.386 1.981-1.762.772-1.432 2.423-1.432 3.194h8.917v3.303s-1.98 1.32-2.531 1.76c-.551.441-.991 1.764-.66 2.754.25.752.563 1.061.99 1.165v2.689c0 1.542-1.541 2.53-3.193 2.53h-7.242c-.513-1.941-2.117-5.98-5.309-5.98v19.310000000000002c3.366 0 4.968-4.494 5.385-6.281h5.404c1.321 0 4.074 1.982 8.369 1.982 4.294 0 6.273-1.322 8.037-1.543 1.762-.221 2.752 1.982 2.752 3.412v2.864h6.275s.33-3.522.33-5.836c.002-2.31-1.208-4.182-2.969-5.393z"/><g stroke="#231815" stroke-miterlimit="10"><path d="M63.468 81.393c-11.91 1.991-22.814-2.286-24.358-9.554-1.542-7.266 6.864-14.771 18.774-16.762 11.905-1.989 22.812 2.289 24.354 9.554 1.54 7.267-6.863 14.772-18.77 16.762z" fill="none"/><path d="M62.889 78.679c-9.451 1.58-18.108-1.814-19.332-7.584-1.224-5.767 5.45-11.724 14.899-13.303 9.453-1.581 18.109 1.815 19.332 7.582 1.226 5.771-5.445 11.726-14.899 13.305z" fill="none"/><path d="M62.323 76.007c-7.032 1.176-13.475-1.351-14.385-5.645-.911-4.291 4.056-8.724 11.085-9.897 7.034-1.176 13.476 1.351 14.386 5.641.912 4.291-4.052 8.726-11.086 9.901z" fill="none"/><path d="M61.75 73.299c-4.583.765-8.782-.88-9.377-3.677-.593-2.797 2.644-5.685 7.229-6.45 4.58-.766 8.773.88 9.367 3.676.594 2.797-2.638 5.684-7.219 6.451z" fill="none"/><path fill="#231815" d="M60.961 69.593c-1.227.205-2.353-.237-2.511-.986s.707-1.522 1.934-1.729c1.231-.205 2.354.236 2.515.984.159.751-.709 1.525-1.938 1.731z"/><g fill="none"><line x1="58.4" y1="68.701" x2="39.264" y2="71.899"/><line x1="62.915" y1="67.946" x2="82.389" y2="64.691"/><line x1="60.429" y1="67.084" x2="57.828" y2="54.83"/><line x1="60.961" y1="69.593" x2="63.465" y2="81.393"/></g><g fill="none"><line x1="59.392" y1="69.496" x2="47.613" y2="80.015"/><line x1="62.172" y1="67.016" x2="74.156" y2="56.312"/><line x1="59.188" y1="67.605" x2="43.152" y2="61.313"/><line x1="62.47" y1="68.892" x2="77.918" y2="74.951"/></g><path d="M63.823 82.747c-13.256 2.217-25.394-2.545-27.11-10.635-1.717-8.089 7.637-16.442 20.894-18.657 13.256-2.217 25.394 2.545 27.112 10.635s-7.64 16.442-20.896 18.657z" fill="none"/></g></svg>