<svg xmlns="http://www.w3.org/2000/svg" width="100" height="100"><circle fill="#B2B2B2" cx="50" cy="50" r="50"/><path fill="#3E3333" d="M87.826 60.535c.63-7.164-1.353-10.863-1.431-11.818-.066-.786-.24-2.101-.748-5.655-.666-4.658-4.325-8.401-5.325-9.315-.997-.914-4.454-3.505-5.74-5.239-1.413-1.913-2.452-2.321-3.408-2.828-.59-.312-1.328-.655-2.149-1.068l.319-.512c.061-.097.031-.225-.068-.286-.096-.061-.225-.03-.285.066l-.337.543c-1.051-.543-2.219-1.204-3.387-2.069-2.032-1.506-4.325-2.578-5.736-2.828-1.068-.188-4.16-.333-6.239-.915-1.951-.546-7.154-1.83-9.981-1.249-2.164.444-6.559 2.301-8.511 3.148l-.121-.001-1.63.625c-.086.032-.129.129-.097.214.035.086.128.128.214.096l.862-.33c1.442 1.47-2.771 3.602-5.224 4.857l-.124-.003-1.635.612c-.084.031-.128.126-.097.213s.129.13.215.097l.815-.305c.641.449 4.399 1.632 5.101 4.001.628 2.116-.002 5.192-.493 6.583l-.958.716c-.074.055-.09.158-.034.232s.159.089.232.034l.927-.691c1.201.259 6.335 1.487 8.728 4.022 2.63 2.787 4.037 6.578 4.087 7.829l-.714.773c-.062.069-.058.174.012.235.068.061.172.059.236-.01l.703-.765c.757-.004 3.168.051 5.826.795l-10.027 15.88c-.133-.037-.249-.039-.301.021-.092.1-2.144 3.369-2.681 4.211-.535.844-1.813 1.156-2.678.662-.867-.5-.638-1.537-.419-1.881l.974-1.529c.342-.537-.698-.93-.844-.703-.145.232-.422.752-.998 1.568-.577.82-.89 2.5.856 3.563 1.746 1.055 3.323.014 4.079-1.172.756-1.188 2.222-3.582 2.56-4.02.083-.109.068-.229.001-.34l10.14-16.061c1.419.458 2.877 1.121 4.16 2.088 3.498 2.641 5.671 6.125 6.156 7.404l-.394.998c-.034.088.008.184.094.219.085.031.182-.012.215-.096l.394-.996c.958-.488 4.836-2.268 8.589-1.041 3.708 1.211 6.193 4.318 6.825 5.178l-.025 1.096c-.002.094.071.17.163.172.093 0 .169-.07.171-.162l.03-1.293c.511-1.141 2.105-4.248 4.397-4.576 1.993-.285 3.982 1.377 4.516 1.863l-.024 1.039c-.002.092.071.168.162.17.094 0 .168-.07.17-.162l.043-1.748c.001-.072-.046-.13-.109-.156z"/></svg>