<svg xmlns="http://www.w3.org/2000/svg" width="100" height="100"><circle fill="#B2B2B2" cx="50" cy="50" r="50"/><path fill-rule="evenodd" clip-rule="evenodd" d="M55.966 17.548c1.469 2.428 1.234 5.176 1.025 7.907 1.904-.506.357 4.946-.158 5.683-.713 1.022-.877.556-1.287 1.894-.443 1.434-1.186 2.708-1.886 4.024 1.298 2.016 5.628 1.758 7.514 3.287 2.428 1.971 2.46 5.813 3.675 8.45 1.293 2.807 3.83 5.356 1.963 8.443-1.424 2.379-5.381 2.465-6.528-.257-.913.923-.054 4.101-.321 5.389-.248 1.226-.777 2.46-1.93 3.056 0 .791.931.918 1.537 1.447 3.422 3.011 9.154-.33 12.518 3.209 1.754 1.846 1.018 5.851-.588 7.578-1.822 1.957-4.349 3.006-6.93 3.436-.402.076-3.432.234-3.219.891.158.461-.719 1.69-1.207 1.658-1.822-.117-3.884-.831-5.652-1.369 1.994 3.566-4.408 3.693-6.302 4.037-.655.122-3.373.859-3.427-.141-.041-.561-.14-1.314.036-1.875-2.31-.218-4.751-.732-6.637-2.148-.809-.602-1.695-1.79-2.708-1.957-1.18-.199-2.351-.398-3.508-.71-2.365-.646-5.312-1.47-5.027-4.647.208-2.287 2.355-3.48 4.213-4.398 1.094-.547 1.858-1.475 2.722-2.306.244-.244 1.121-1.827 1.125-2.138.036-1.633 2.084-2.718 1.84-4.395-.14-.955.389-1.32-.886-1.664-.882-.24-2.129-.466-2.83-1.107-1.533-1.402-1.433-4.715-.99-6.537.357-1.496 1.135-2.821 1.546-4.286.321-1.116.321-2.288.755-3.386.877-2.247 2.79-4.548 5.122-5.263 1.858-.569 3.49-1.415 4.851-2.699.357-.344-1.13-2.057-1.384-2.451-.583-.904-.344-.963-1.315-.913-.569.032-1.271-.42-1.664-.791-.723-.687-1.456-1.79-1.831-2.722-.158-.389-.371-.958-.167-1.383l.547-.556c.068-.619-.651-2.156-.814-2.825-.28-1.162-.452-2.265-.339-3.454.366-3.96 4.67-7.12 8.146-8.024 3.473-.865 8.505.903 10.4 4.013"/></svg>