<svg xmlns="http://www.w3.org/2000/svg" width="100" height="100"><circle fill="#B2B2B2" cx="50" cy="50" r="50"/><path fill-rule="evenodd" clip-rule="evenodd" d="M60.316 62.096l-19.724-34.165c.921-3.001 2.039-7.192.74-9.442-2.255-3.904-4.714-8.164-4.714-8.164l-15.258 8.809s2.459 4.26 4.714 8.164c1.299 2.25 5.488 3.378 8.547 4.08l19.726 34.165-9.288 5.362s4.179 7.238 8.097 14.022c3.916 6.786 18.85 4.308 18.85 4.308s9.611-11.693 5.695-18.479c-3.918-6.785-8.096-14.022-8.096-14.022l-9.289 5.362zm-30.771-36.448l-2.186-3.786 8.623-4.979 2.186 3.786-1.374 7.579s-5.981-.404-7.249-2.6z"/></svg>