<svg xmlns="http://www.w3.org/2000/svg" width="100" height="100"><circle fill="#B2B2B2" cx="50" cy="50" r="50"/><path d="M97.4 58l-.3-.2c0-.1-.1-.1-.2-.1s.1.1-.1.1-.2.1-.3 0c0-.1-.1-.1 0-.2l.2-.2.3-.2c0-.1.1-.1.1-.3 0-.1-.1-.2-.1-.2l-.1-.1-.2.1c0 .1 0 .3-.1.3 0 0-.1-.1-.1-.2v-.2c.1 0 .2 0 .1-.1l-.1-.1h-.1s-.1 0-.2-.1-.2 0-.2-.2c0-.1-.2-.3 0-.3s.2-.2.2-.2-.1-.2-.2-.2-.2-.1-.2-.1-.1-.1-.1-.2c-.1-.1 0-.2-.2-.1-.1.1-.2.1-.2.1s-.1 0-.1.1.1.2 0 .2l-.2-.1v-.2l-.2-.1s-.2-.1-.1-.1c.1-.1.2-.1.3-.1.1 0 .1-.2.1-.2v-.1s.1 0 .1-.1v-.2h.1c.1.1.1.2.2.2.1-.1.1-.1.1-.2 0 0 .1.1.1-.1v-.2c-.1-.1-.2-.1-.3-.1-.1 0-.1-.1-.1-.1s.1-.4 0-.4c-.1-.1-.1-.1-.2-.1l-.1-.1.1-.2c0-.1.1-.2 0-.2l-.1-.2s-.1.1-.1.2l-.1-.1c.1-.1-.1-.2.1-.2h.3s.1 0 .1-.1 0-.2-.1-.3c-.2 0-.2.1-.3.1 0 0-.1 0-.1-.1h0c.1-.1.1-.2.1-.2 0-.1 0-.2.1-.2 0 .1.1.1.1.1h.1s.1.2.2.2.1 0 .1.1.2 0 .2-.1.1-.1-.1-.2l-.2-.1s.1-.2-.1-.1h-.1s0-.1-.1-.1l.1-.1.1-.2c.1 0 .1.1.1.2s.1.1.2.1l.1-.2.2-.2-.1-.1c0-.2.1-.3 0-.3-.2 0-.2.1-.3.2l-.2-.2s-.2-.2-.3-.1-.1.1-.2 0c0-.1-.1-.2-.1-.2s0-.1.1 0c.2.1.2.1.3 0 .1 0 .1-.1.1-.1l.1-.2-.1-.1c-.1.1-.2.2-.3.1-.1-.1-.1-.1-.2-.1h.2c.1 0 .2 0 .1-.2v-.1c0-.1.1-.3 0-.2-.1.1-.2.1-.2.1 0-.1-.1-.1 0-.2s.1-.1.1-.2-.1-.2.1-.2c.2.1.1.1.3.1.1-.1 0-.2 0-.2s.2.1.1-.1-.1-.3-.1-.3-.1-.1-.1-.2-.2-.1-.1-.2.2.1.3 0c.1 0 .2-.1.1-.1s-.3 0-.4-.1 0-.2-.1-.3c-.1 0 0-.1 0-.2l-.2-.3v-.2c-.2 0-.1-.2-.3-.1-.2.1-.1 0-.2 0s-.1-.2-.2-.1-.2.2-.3.2h-.1c0-.1-.1-.1 0-.2l.1-.1c0-.1.1-.1.2-.1s.3-.1.3-.2 0-.2.1-.2c.1-.1.2 0 .1-.2l-.2-.2-.1-.1c-.1.1-.1.1-.2.1s-.1 0-.1.1.1.1 0 .2l-.1.1c-.1-.1-.1-.1-.2-.1s-.1 0-.1-.1c0-.2.1-.3 0-.4 0-.1-.2-.3-.2-.3l-.1-.2c-.1-.2-.2-.3-.2-.2s-.3-.1-.3.1c-.1.1-.1.2-.2.1s-.2-.1-.1-.2.2-.2.3-.2c0 0 .1-.2.1-.3 0 0 .2-.3-.1-.1-.2.2-.4.2-.4.2h-.1l-.1-.1-.1-.3-.1-.1c-.1.1-.1.2-.2.1 0-.2-.1-.2-.1-.3 0-.1 0-.1-.1-.2v-.3c0-.1 0-.2-.1-.2s-.3.1-.2-.1c.1-.1.1-.2 0-.3-.1-.1-.2-.1-.2-.1s.1-.2.1-.3v-.2s.1-.1 0-.2c-.2 0-.2 0-.2-.1s-.1 0-.1-.2l-.1-.2s0-.1-.1-.1c-.1.1-.1.2-.2.2s-.2-.1-.2-.1l.1-.2c0-.1 0-.3-.1-.2-.1.1-.2.1-.2-.1v-.2h-.2c-.2.1-.4-.1-.3 0 .1.1.1.2.1.3l-.1.3s-.1-.3-.2-.3c-.1.1-.1.1-.3 0-.2-.1-.3-.2-.4-.3-.1 0-.2-.1-.2-.2-.1-.1-.1-.1-.2-.1h-.3c-.1 0-.1-.2-.3-.2-.2 0-.2 0-.3.1l-.2.3c-.1.1-.1.1 0 .2l.1.1h-.1s-.1 0-.1.1v.1s-.1 0-.1.1c-.1.1-.1.1-.1.2-.1.1-.1.1-.1.2v.1l.1-.1.1.1c.1 0 .1 0 .1-.1.1-.1.2-.1.2 0s-.1.1-.1.2v.1s.1 0 .1.1-.1.2-.1.2-.1 0-.1-.1l-.3-.1s-.2 0-.1.1c0 .1-.1.2 0 .2h.2s0 .2-.1.2l-.2-.1h-.5s0-.2-.1-.1h-.1c0-.1.1-.1 0-.2s-.1-.1-.1-.2v-.2c0-.2.1-.1.1-.1s.1 0 .2.2c.1.1.2.1.2.1l-.2-.2c0-.1 0-.2-.1-.3v-.2s-.1-.1 0-.2c.2-.1.2.1.2.1s.1-.1.1-.2 0-.1-.1-.1c-.1-.1 0-.1-.2-.3-.1-.2-.2-.3-.3-.2-.1.1-.1.3-.1.4 0 0 0 .2-.1.2 0 0-.2-.1-.3-.1l-.2.1-.1.2c-.1.1-.1 0-.2-.1v-.2c0-.1-.1-.2-.2-.1l-.1.3c-.1.1-.2.1-.3 0h-.1c0 .1 0 .1-.1.1l-.2-.1c-.1 0-.3.2-.3.2s-.1.1 0 .1c.1.1.1.1.1.2s.1.1.2.1.2.1.1.2v.1l-.2-.2v.1l-.2-.1c0-.1.1-.2 0-.2.7.6.7.7.7.7s0 .1-.1-.1-.1-.2-.1-.3l.1-.3s0-.2-.1-.2-.1.1-.2 0 0-.2-.2-.2-.2 0-.3-.1c-.1 0-.1-.3-.3-.2-.2 0-.2.1-.3 0l-.2-.1-.2-.1c-.1.1-.1.2-.2.2l-.1.2-.2.1v.1s-.1 0-.1.1l-.2.2c0 .1-.2.1-.3.2l-.1.3c-.1.1-.2 0-.1.2l.1.2c-.1.3-.1.4-.1.4h.1s.2-.1.3 0c0 .1-.1.1.1.1s.2.1.2.1l.1.1c.1 0 .1 0 .2-.1 0-.1.2-.2.2-.1s-.2.3-.2.3l.1.2s.1-.1.2-.1c0 0 .2-.1.1.1 0 .1-.1.3-.2.3-.1.1-.1.2-.1.2h.2l.1-.2c.1 0 .1-.1.1-.1.1 0 .3-.2.2 0-.1.2-.2.3-.2.3s.1 0 0 .1 0 .1 0 .2-.1.3-.2.2c0-.1.2-.4 0-.3l-.1.2c.1.1.2.1.1.2-.1 0-.1.1-.1.1s.1-.2-.1-.2h-.2c-.1 0 0-.1 0-.2s.2-.1 0-.2l-.2-.1.1-.2-.1-.2-.2-.3c-.1-.1-.3 0-.3 0s.1-.1-.1-.1c-.1.1-.1.1-.1.2l-.2-.1c0-.1-.1-.2-.1-.1-.1.1-.2.2-.2.1l-.1-.2-.3-.1-.1-.2h-.2s-.2-.1-.1.1c0 .2-.1.2-.2.2h-.2c-.1 0-.2.2-.2 0s.1-.2-.1-.2h-.3c-.1.1 0 .1 0 .2s-.1.1 0 .2h.2s0 .2.1.2c.1.1 0 .2-.1.2l-.2-.1s-.1 0-.1-.1 0-.1-.1-.1-.1-.2-.2-.1c-.1 0-.1.1-.2.2s-.2.2 0 .2c.1 0 .2.1.2.1h.3s0 .1-.1.1-.3-.1-.4 0c-.1.1-.2.2-.3.2s-.1 0-.1.2v.4c0 .1-.1.2-.2.3l-.1.2h-.3c-.1 0-.2.1-.2.2v.2c0 .1-.1 0-.1 0-.1 0-.1.1-.1.1 0 .1.1 0 0 .2l-.2.2c-.1 0-.1-.1-.2.1l-.2.3c-.1 0-.2 0-.2.1-.1.1-.1.2-.1.2 0 .1.1.1 0 .2s-.2.1-.1.2.1.2.1.3c0 .1 0 .1.1.2.1 0 .1.2.1.2s.1 0-.1.1c-.1 0-.2-.1-.2 0-.1.1-.1.1-.2.1h-.1l-.2-.1v.2l.1.2c0 .1 0 .2.1.1l.1-.1s.1.1 0 .2-.2 0-.2 0c-.1 0-.2-.1-.2-.1l-.1.1.2.2c0 .1.1.1.1.1s0 .1-.1.1l-.2.1c-.1.1-.1.2-.2.1 0-.1-.1-.1-.1 0s-.1.2 0 .3c.1.1.2.1.2.1l.3-.3s.1 0 .1.1c0 0-.1.2-.1.3l-.3.3c-.1 0-.1 0-.2-.1 0-.1-.1-.2-.2-.1l-.1.1v.2c0 .1.1.1.1.1l.1.1-7.8 8.5v-6.4h1.5l-1.3-8.2c.5-.9 1.2-2 2.4-2.7.7-.5 1.7-.8 2.8-.8.5 0 1.3.1 1.3.1 0 .1-.1.4-.1.4s-.2.1-.1.2c0 .1.2.1.2.1l.1.1 3.3.5c.2 0 .6-.2.6-.3.1-.1.1-.2.1-.2s.2-.1.1-.2l-.2-.1-.1-.1s-3.3-.7-3.4-.7h-.4s-1-.2-1.5-.2c-1.2 0-2.3.3-3 .7-1.1.7-1.8 1.5-2.3 2.3v-2.5l.1-.1v-.9h-.6l.2-.5h-1.1v.6h-.5v.8l.1.2v3h-9.6l-.2-.2c-.1-1.9-.1-3.1-.1-3.2 0-.9 0-2.9.2-4.8.2-1.6.7-3 1-3.7.5-1.5 2-3.8 4.6-5.3 1.2-.6 2.8-1.1 4.7-1.1.8 0 2.2.2 2.2.2-.1.1-.1.5-.1.5s-.3.2-.2.3c0 .1.3.1.3.1l.2.1c.1 0 5.2.7 5.5.7.3 0 .9-.3 1-.4.1-.1.1-.2.1-.2s.4-.1.2-.2l-.3-.1s-.2-.3-.3-.3l-5.6-.9c-.1 0-.3.1-.3.1h-.2c-.1 0-.2.1-.2.1s-1.6-.2-2.4-.2c-2 0-3.8.4-4.9 1-3.6 2-4.8 4.8-5.1 5.5-.3.8-.8 2.1-1.1 3.7-.3 1.8-.3 4.9-.3 4.9l.1 2.4-5.8-4.4-.6.6-9-7.6-6 5.7c0-.1.1-.2 0-.3 0-.2-.2-.1-.2-.4 0-.2.2-.3 0-.3-.3-.1-.1-.3-.4-.2-.2.1-.1 0-.2-.1-.1 0-.1-.2-.3-.1l-.4.3c-.1 0-.2.2-.2 0s-.1-.1 0-.3l.1-.1s.2-.1.3-.1.4-.1.3-.3c0-.1 0-.2.1-.3s.2-.1.1-.2l-.3-.3-.1-.1c-.1.2-.2.2-.2.2-.1 0-.2 0-.2.1s.1.2 0 .3c-.1.1-.1.2-.2.1s-.1-.2-.2-.2-.1.1-.1-.2c0-.2.1-.5 0-.6-.1-.1-.3-.4-.3-.4l-.2-.3c-.2-.3-.2-.4-.3-.3-.1.1-.3-.1-.4.1-.1.2-.2.3-.3.2-.1-.1-.3-.2-.1-.3.1-.1.3-.2.3-.3s.1-.3.1-.4c0-.1.2-.4-.1-.1-.3.3-.5.3-.5.3h-.1l-.1-.1-.1-.4c-.1-.1-.1-.2-.2-.1s-.2.3-.2.1v-.5c0-.2-.1-.2-.1-.3l-.1-.4c0-.1 0-.2-.1-.3-.1 0-.4.1-.3-.1.1-.2.2-.3 0-.4-.2-.1-.2-.2-.2-.2s.1-.3.1-.4v-.3c0-.1.2-.2 0-.3l-.3-.1c-.1-.1-.1 0-.1-.2s-.1-.2-.1-.2c-.1-.1-.1-.2-.2-.1s-.1.3-.2.2c-.1-.1-.3-.1-.2-.2.1-.1.1-.1.1-.3 0-.2 0-.4-.1-.3-.1.1-.3.1-.3-.1s0-.3-.1-.3-.1-.1-.3 0c-.2.1-.5-.2-.3 0s.2.3.2.4c0 .1-.1.3-.2.4 0 .1-.1-.5-.3-.4-.2.1-.1.2-.4 0-.2-.2-.4-.3-.6-.4-.2 0-.2-.2-.3-.3-.1-.1-.1-.2-.2-.2h-.4c-.1-.1-.2-.3-.4-.3s-.3 0-.4.2l-.3.7c-.1.1-.1.2 0 .3.1.1.2.1.2.1 0 .1-.1.1-.2.1s-.2 0-.2.1v.2c0 .1-.1.1-.2.2l-.2.2-.2.2c-.1.1 0 .2.1.2 0 0 .1-.1.2-.1l.2.1c.1 0 .1 0 .2-.1s.2-.1.2 0-.1.2-.2.3c-.1.1 0 .1 0 .2 0 0 .2.1.1.2l-.2.2s-.1 0-.1-.1-.3-.2-.3-.2-.2 0-.2.1c.1.1-.1.3-.1.3 0 .1.2.1.2.1s0 .2-.1.2l-.3-.1h-.7s0-.2-.1-.2c-.1.1-.2.2-.1 0 0-.2.1-.2 0-.3.1-.1.1-.2.1-.4l-.1-.2c0-.2.1-.2.1-.2s.2.1.2.2c.1.2.3.1.3.1s-.2-.2-.2-.3c0-.2 0-.3-.1-.4-.1-.1 0-.2 0-.2 0-.1-.2-.2.1-.3.2-.1.3.1.3.1s.2-.1.1-.3l-.2-.2c-.1-.1-.1-.1-.2-.4s-.2-.5-.3-.3c-.1.2-.2.5-.1.5 0 .1-.1.3-.1.3s-.2-.2-.3-.1c-.1.1-.1.1-.3.2l-.1.3c-.1.1-.2 0-.2-.1v-.3c0-.1-.1-.3-.3-.1-.2.2 0 .4-.1.5-.1.1-.3.1-.3 0s-.1 0-.1.1 0 .2-.1.2-.2-.1-.2-.1c-.1 0-.3.2-.3.2s-.1.1.1.2l.2.2c0 .1.1.1.2.2s.2.2.2.3v.1l-.2-.2c0 .1.2.3 0 .2-.2-.1-.2-.1-.2-.2s.1-.3 0-.3c-.2 0-.2.1-.3.1 0 0 0 .2-.1-.2-.1-.3-.1-.2-.1-.4l.1-.4c0-.1 0-.3-.1-.3s-.2.2-.3 0c-.1-.2 0-.3-.2-.3l-.3-.1c-.1 0-.2-.4-.4-.3-.2 0-.3.1-.4 0l-.3-.1c-.2-.1-.2-.3-.3-.1-.1.2-.1.3-.2.3-.1.1 0 .2-.2.3l-.3.1v.1s-.1 0-.1.1c-.1.1-.2.2-.3.2 0 .1-.2.2-.3.2l-.1.4c-.1.1-.3 0-.2.2.1.2.3 0 .2.3-.2.4-.2.5-.1.6s.1.1.2 0 .3-.2.3 0c0 .1-.1.1.1.1.3 0 .3.1.3.2s.1.1.2.1.2 0 .2-.1.2-.2.2-.2c0 .1-.2.4-.2.4l.1.3.2-.1c.1 0 .2-.1.2.1-.1.2-.1.4-.2.5-.1.1-.2.2-.1.3.1 0 .3.1.3.1s.1-.3.2-.3.1-.1.2-.2.4-.3.2 0l-.3.5c0 .1.2.1.1.2s0 .1.1.3c0 .1-.2.5-.2.3-.1-.1.2-.5-.1-.4-.3.1-.4.1-.3.2.1.1.3.1.2.3l-.3.2c0-.1.1-.2-.1-.2h-.3c-.1-.1 0-.2 0-.3.1-.1.2-.1.1-.2s-.2 0-.2-.2.2-.1.1-.3c-.1-.2-.1-.2-.2-.3l-.2-.4c-.2-.1-.5 0-.5 0s.1-.2-.1-.1-.1.1-.1.3c0 .1-.2-.1-.2-.2s-.1-.3-.2-.2c-.1.1-.2.2-.3.1l-.1-.3-.4-.1c-.1-.1 0-.2-.2-.3-.2-.1-.2-.1-.3 0l-.2.1c0 .2-.1.3-.2.3l-.3-.1c-.1 0-.2.3-.3 0 0-.2.1-.3-.1-.3l-.4.1c-.1.1 0 .2 0 .3 0 .1-.2.2 0 .3l.3.1s0 .3.1.3 0 .2-.1.3c-.1.1-.2-.1-.2-.1-.1 0-.1 0-.1-.2l-.1-.2c-.1 0-.1-.2-.3-.2-.2.1-.2.1-.2.3-.9.5-1 .6-.8.6.2 0 .2.1.3.1h.5c0 .1 0 .1-.1.2l-.5-.1c-.1.1-.3.3-.4.3 0 0-.2 0-.1.3 0 .3 0 .4-.1.6 0 .2-.1.3-.3.4-.1.1 0 .3-.2.3h-.4c-.1.1-.2.1-.2.2s.1.3 0 .3h-.2c-.1 0-.1.1-.2.2 0 .1.1 0 0 .2s-.1.2-.3.2c-.1.1-.1-.1-.3.1-.2.2-.1.3-.3.4-.2.1-.2 0-.3.2-.1.2-.1.2-.1.3 0 .1.1.2 0 .3-.1.1-.3.1-.1.2.1.2.1.3.2.4 0 .1 0 .2.2.3.2.1.2.3.2.3s.1.1-.1.1c-.2.1-.2-.1-.3 0-.1.1-.1.2-.2.2h-.1c-.1-.1-.2-.2-.2-.1v.2c0 .1.1.1.1.3 0 .1 0 .3.1.2.1-.1.2-.1.2-.1s.1.2 0 .3c-.2.1-.2 0-.3 0l-.3-.1s-.2.1-.1.2.2.2.3.2c0 .1.1.1.1.1s0 .1-.1.2c-.1 0-.2.1-.3.2-.1.1-.2.2-.2.1s-.1-.1-.1 0-.2.2 0 .4l.2.1.2-.2s.1 0 .1.1l-.2.5c-.1 0-.1.2-.1.2l-.2.1c-.1 0-.2-.1-.2-.1 0-.1-.1-.2-.2-.1s-.1 0-.2.2v.2c0 .1.1.2.1.2s.2.2.3.1c.1-.1.3-.2.3-.1l-.3.4s-.3-.1-.2.1c-.1.1.1.2.1.2s.1.2.2.2c0 .1-.1.3.1.2.2-.1.2-.1.3-.1s.2 0 .2.1l-.2.3-.1.3c-.2.1-.2.2-.2 0-.1-.1-.2-.2-.3-.2-.1.1-.1.1-.2.1s-.1-.2-.2 0l-.1.3s0 .1-.1.2-.2 0-.2.3.1.4.3.4c.2 0 .2.1.3.2 0 0 .1-.1.1-.3-.3 0-.4-.1-.4-.3.1-.2.1-.7.2-.3 0 .4.1.6.1.7 0 .1.1.2.2.2s.1-.1.2 0c0 .1 0 .1-.1.2-.1 0-.1-.1-.3 0-.2.1-.2.2-.2.3s.1.1 0 .2c-.1.2-.1.3-.1.3s.1.2.2 0l.4-.2c0-.2.1-.2.1-.2s0 .1.2 0c.1 0 .2 0 .3-.1.1-.1.2 0 .2.2s-.2.3 0 .4v.1c0 .1.2.2.3.2h.3c.1 0 .2 0 .3-.1l.1.1c.1.1.1.3.1.4 0 .1-.1.3-.3.1-.2-.2-.2-.3-.3-.3h-.4c-.1 0-.1-.1-.2-.2s-.1-.3-.2-.2c-.2.2-.2.2-.2 0s-.1-.2-.1-.2-.1.3-.1.2.1-.4-.1-.3c-.2 0-.6.2-.6.2s-.2-.1-.3-.1l-.1.4s.2.3.3.3c.1 0 .2-.2.2-.2s0-.1.2-.1c.1.1.3 0 .1.2l-.3.3c-.1.1-.3.4-.3.2-.1-.1-.1-.3-.2-.3s.2-.2-.2-.1c-.4.2-.4.2-.5.2l-.2.2c-.2.2-.4 0-.4.3v.5s.2.1.2.2 0 .2.1.1.1-.1.2-.1l.3.1c.1 0 .2 0 .3.2s.1.1.3.2c.1 0 .2.3.1.4-.1.1-.1 0-.2-.1-.2 0-.2-.2-.3-.2-.1 0-.1-.1-.3 0l-.2.1c-.1.1 0 .1-.2 0-.4 0-.5-.1-.6.1l-.2.3-.2.3.1.3c0 .1-.1.1 0 .3.1.2 0 .3 0 .4 0 .1.3.2.3.2s0 .1.1-.1l.1-.3.3.4c.1 0 .2 0 .1.2l-.3.2c-.1.1-.1.3-.1.3l-.1.3c0 .1 0 .3-.1.2l-.2-.2h-.1l-.2.1c0 .1-.1.1.1.3.1.2.1.2.2.3.1 0 .3-.1.2.1l.1.2c0 .1-.1.1-.2.2v.3s.1-.1.2-.1.1.1.2.2c0 .1.1.1.2 0 0-.1.1.1 0 .2l-.2.2v.3c0 .1 0 .2-.1.3l-.1.2s-.1.4 0 .4c.1.1.2.1.2.1l.2-.2s.1.2.2.2.1 0 .1-.2-.1-.4 0-.4.1.2.2.1c.1-.2-.1-.2-.1-.3 0-.1 0-.1.1-.1s.1-.2 0-.2-.1-.1-.1-.2 0-.2.1-.3c0-.1 0-.2.1-.2s.1 0 .2.2l.2.2s0-.2.2-.2.2-.1.2.1.1.4.2.2l.1-.1c.1 0 .2 0 .2-.1 0-.2 0-.2.1-.3.1 0 .2.1.1-.1l-.2-.5c-.2 0-.5.2-.5.2s-.1 0-.1-.2v-.4c.1-.1.2 0 .3.1l.1-.1c.1 0 .3.2.3 0 0-.1-.2-.3 0-.2.2.1.4.1.5.1 0 0 .1.4.1.5v.1c-.2-.1-.4-.4-.3-.1.1.3.3.5.2.5-.1.1-.2.1-.2.1 0 .1 0 .2.1.2.2 0 .2-.1.3 0 .1 0 .1.2.2.3.1.1.1.7 0 .7s-.1 0-.1.2.1.3.1.3 0 .2.1.2 0 .1.3.1c.2 0 .2 0 .3.1.1.1 0 .2-.1.3l-.3.1-.1-.3c-.1-.1-.2 0-.3 0l-.1-.1s0-.1-.1-.1h-.30000000000000004l-.1-.4v-.2c0-.1-.1-.1-.1-.3 0-.1.1-.3-.1-.1-.1.1-.2.3-.2.3s-.1 0-.1-.1c0-.2.1-.3 0-.3h-.3c-.1 0-.3-.2-.2 0 0 .2.2.3.1.4-.1.1-.2 0-.3-.1l-.1-.1s-.2-.2-.2-.1c-.1.1-.3.2-.2.4.1.1.2.3.1.4-.1.1-.2.2-.2.3v.3s.1.1.1.2.1.2.3.3c0 0 .1 0 .1.1 0 0 0 .1.1.2.1.2.2 0 .3.1.1.1.3 0 .5-.1.1 0 .1.1.1.2 0 0-.1.1-.1.2 0 .2-.3.1-.2.4s.1.5.2.4c.1 0 .1-.1.1-.1v.1c0 .1.1 0 .3-.1v.1s-.1 0-.1.2-.1.3.1.3.3-.1.4-.2l.1-.1.2.2c.1.1 0 .3.2.2.3-.2.4-.2.4-.3v-.3c0-.1.1-.1.1-.1 0-.1.1-.2.1-.1s-.1.2 0 .3l.2.4.1-.2c0-.1.1-.1.1-.1.1 0 .1.3.1.3s0 .1.1.1h.1s.2-.1.1-.2c-.1-.2 0-.2 0-.3 0-.1.1-.1-.1-.2s-.3-.1-.3-.1-.1-.1 0-.1l.2-.1c.1.2.1.1.1.3 0 .1.1.2.2.3l.1.1c0 .1.1 0 .2-.1 0 0 .1 0 0 .1l-.1.2c0 .1-.1.1-.2.2-.2.2-.3.2-.4.4 0 .2-.3.1-.1.2l.2.1.1-.1c0 .1.1.1 0 .3-.1.2-.2.1-.2.3s0 .3.1.6l.1.5h.2c.1 0 .2.1.2.1s.1.2 0 .3c-.1.1-.2.3-.1.3 0 .1.2.2.3.3.5.1.5.3.6.1 0-.1.1-.2.1-.2.1.1.2-.1.3-.1h.1l.2.3c.1.2.3-.1.4-.3 0-.2-.1 0-.1 0s-.1 0-.1-.1l.1-.1h.3l.1.2-.2.1c-.1.2-.3.4-.3.4s-.1.1 0 .2.2 0 .2.2v.2s-.1.1-.1.2l-.1.1c-.1.1-.1-.1-.2.1s-.3.3-.2.4c.1.1.3.1.3.2l.1.3v.2h-.1l-.1-.1c-.1-.2-.1-.2-.2-.3h-.5c-.1.2-.1.4-.1.4v.1c.3.1.4.1.5.2.1.1 0 .3-.1.3s-.1-.2-.2-.1c-.1 0 0 .3.1.3 0 .1.1.1-.1.3-.2.1-.3.3-.3.5s0 .4.1.4c.2 0 .5-.1.5-.1s.1-.2 0-.2l-.1-.2s.3-.1.4.1c.1.2.2 0 .1.3s-.2.4.1.4h.3l.3.2h.1l.1.1c0 .1.1.1.1 0s0-.1.2-.1c.1 0 .1.1.2-.1.1-.1.1-.2.1-.2v.1c0 .1.1 0 .3 0h.2c.2 0 .5-.1.5-.1.1 0 .3.1.3 0l-.1-.3s-.1 0-.1-.1l.2-.2.3.3.2.2c.1.1.2 0 .3 0l.1-.3v-.1c.1 0 .2 0 .1.2s-.1.1 0 .4l.1.4c0 .1.3.1.4.1.1 0 .3-.2.5-.1s.4.1.4 0h.1c.1.1.1 0 .1 0h.1s0-.2-.1-.3-.3 0-.3-.1-.2-.2.1-.2h.1v.1c.1.1.1 0 .2 0h.2c0 .2.2 0 .3 0 .1-.1.1-.2.2-.4s.1-.3 0-.3v-.1c0-.1 0-.1-.1-.2v-.1h.1l.3.3.2-.1c.1-.1.1-.1.1-.2v-.1h.1c.1.1.1.3.2.2l.1-.1.1-.1c.1-.2.3.1.2-.3s-.2-.4-.1-.5h.30000000000000004c.2 0 .5 0 .6-.1 0 0 0-.1.1-.1 0 0 .1 0 .1-.1h.5c.1.1.1.2.2.1.1 0 .4.1.2-.1h.2v.2c0 .1-.1.1-.1.1v.2c0 .1 0 .1-.1.2-.1.3-.1.6-.1.8v.2c0 .1 0 .2-.1.4s.1.4.1.6v4.4c0 .6 0 1.9-.1 2.8v.7999999999999999c0 .3-.1 1.1-.2 1.8v.1c-.1.4-.1.7-.2.9l-.1.3c-.3.2-.3.2-.5.2-.1 0-.1.1 0 .1h.4v.1c.1 0 .1 0 .3-.1.1-.1.2-.1.3-.1.1 0 .3.1.3.1h.3v-.1h.1l.6.1h.2v-.1h.8c.1 0 .3-.1.2-.1-.1 0-.5 0-.7-.2l-.2-.2-.1-.3c0-.1-.1-.6-.1-1.3l8.9.3v.4h10l-.3 1.2 16.2.3-.3-1.5 16.9-.1v.3h5.4v.3h-.1v.1l.1.1v.5l-.1.1v.2h8.7v-.2h-.2v-.3h.1v-.1l-.1-.1v-.1c.1 0 .2.1.2.1h.30000000000000004l.5.1h.6000000000000001c.1 0 .2-.1.1-.1h4.1v-.7h.5v-.2h.4l.1-9.5.2.1c0 .1.1.1.1.1s.1.1 0 .1-.1.1-.1.2c-.1.1 0 .3.1.4.1.1.1 0 .1 0s-.1.1 0 .2.2 0 .1.2c0 .2-.1.4 0 .4h.4c.1 0 .1 0 .1-.1h.1c.1 0 .3.1.3.1s.1-.1.1-.2.1-.2.1-.2c.1-.1.1-.2.2-.1 0 .1 0 .1.1.2 0 .1-.1.1 0 .2s.1.1.1.2l.2.2s.1-.2 0-.3c-.1-.1-.2-.1-.2-.2s0-.1.1-.1c.1.1.1.2.2.2.1.1.1.4.2.2h.1v-.1c.1-.1.1-.1.1-.2s0-.2-.1-.3h-.1v-.30000000000000004h.30000000000000004v.3c0 .1.1.1.1.1s0 .2.1 0v-.1c.1-.1.3-.2.3-.3h.1s.1-.1 0-.2c0-.1.1-.2 0-.2h-.1s.1 0 .1-.1c.1 0 .2 0 .2-.1-.1-.1-.2-.1-.2-.1s-.1 0 0-.1l.2-.2s.1-.2 0-.2h-.1v-.30000000000000004s-.1 0-.1-.1v-.30000000000000004c.1-.1.2 0 .2-.2l-.1-.2-.2.1c-.2.1-.3.1-.3.1s-.1.1-.2 0c0-.1.1-.2 0-.3l-.2-.1h-.1v-.2c.1 0 .1 0 .1-.1v-.2c0-.1 0-.1-.1-.1v-.1s.1 0 .1.1h.1l.1.1h.1s.1.1.1 0h.2l-.1.1c0 .1-.3.2-.1.3.1 0 .1 0 .2.1l.1.1.1-.1v-.1h.1l.1.1-.1-.3h.2l.1.1h.2s.1.2.2.2v-.1c.1 0 .2-.1.3-.2.1-.1.1 0 .1-.2v-.2c.1 0 .2-.1.2-.2v-.30000000000000004h.1s.1 0 .1-.1v-.1c.1 0 .1-.1.1-.2l-.1-.2s0-.1-.1-.1v-.1c-.1-.2 0-.1 0-.2 0 0 0 .1.1.1l.1.2s0 .2.1.2v.1l.1-.3s.1 0 .1-.1l-.1-.2c0-.1.1-.1 0-.2l-.1-.3c-.1-.1 0-.2-.2-.3l-.3-.1-.1-.3s-.3 0-.1-.1c.2 0 .2-.1.3 0s.3.2.3.1c-.1-.1-.1-.1-.1-.2-.1-.1-.1-.2-.1-.3-.1-.1-.1-.2-.2-.2s-.2.1-.1.2c0 .1-.1.2-.1.1s-.1-.1-.2-.2v-.1c0-.1.1-.2.1-.2s-.2-.1-.1-.2.1-.2 0-.2-.1-.2-.2 0l-.2.2-.2-.1h-.1v-.1s.1 0 .1-.1c.1 0 .1 0 .2-.1 0 0 .1 0 .1-.1.1 0 .2 0 .2-.1h.2c.1 0 .1-.1.1-.1.1.1.1 0 .2.2.1.1.2.1.2.1s.2.1.2.2 0 .2.1.2h.2s0-.2-.1-.2c0-.1-.1-.2-.2-.2l-.1-.1c.1 0 .1-.1.1-.1h.5v-.3c.3-.1.4-.1.3-.2zm-2.6-6.9c.1-.1.1-.1.1-.2l.1-.1v.2l.1.1c-.1.1-.2 0-.3 0zm-12.3-8.2c-.1 0-.2-.1-.2-.2s-.2-.1-.2-.1c-.1 0-.1-.1 0-.2l.2-.1c-.1-.1-.1-.1 0-.2l.2-.1c-.1-.1-.2-.1-.2-.2v-.3c0-.1-.1-.1 0-.2l.1-.1c.1 0 .2.1.2.1s.2-.2.1 0-.2.4-.1.5c.1.1.1.1.1.2s.1.2 0 .3h-.2s-.1.2 0 .2c0 .1.2.2.2.2-.1.1 0 .2-.2.2zm-67.4-12.6c-.2 0-.2-.1-.3-.2 0-.1-.2-.1-.3-.1-.1 0-.2-.1-.1-.2s.3 0 .2-.2c-.1-.2-.1-.2 0-.3l.3-.1-.3-.2v-.5c0-.1-.2-.1 0-.3.1-.2 0-.2.2-.2.1 0 .2.2.2.2s.2-.3.1 0-.3.6-.2.7c.1.1.1.1.1.2 0 .2.2.3 0 .4h-.2s-.1.3 0 .3c.1.1.3.2.3.2.1.2.2.3 0 .3zm-9.2 7.8c-.2.1-.2 0-.2.2 0 .1 0 .1.1.2 0 .1 0 .3.1.3 0 .1-.1.2-.1.2-.1 0-.1.1-.1.1s0-.3-.2-.3l.1-.2.1-.2v-.2c-.1-.1 0-.1.1-.1 0-.1.1-.1.1-.1v.1zm-1.7 11.1l-.1.1v-.1c.1-.1.1-.3.2-.3 0 .1 0 .2-.1.3zm.1-.7c0-.1.1-.1 0-.2h.1c-.1 0-.1.1-.1.2zm0-1.3c0-.1 0-.1-.1-.1s0-.5 0-.5l.1.1v.2c.2-.1.4-.3.3-.4 0-.1.1-.1.1 0 .1.1.2.3.1.3 0 .2-.1.2-.2.2s-.1.1-.1.1c-.1.1-.2.1-.2.1zm1.1 2.5c-.1.1-.1.1-.2.1l-.1-.1s-.2-.1-.1-.2h.3l.1.2zm0-2l-.2.2h-.1s-.1 0-.2-.1h-.1l-.1-.1c-.1-.1-.1-.1-.2-.1s-.1-.1-.1-.1l.3-.1h.1l.1.1c.1.1.2.2.3.2.1 0 .3 0 .3-.1s0-.3.1-.1l-.2.2zm0-1c-.1 0-.1-.1 0 0v-.2c-.1-.1-.1-.2 0-.2h.1c0 .2.1.3.1.3l-.2.1zm-1.4 7.4h-.1c0-.1 0-.2.1-.3v.30000000000000004zm.3.3zm1.9-7.1c.1-.3.1-.3.2-.4 0 .1.1 0 .1.2-.1.1-.2.2-.3.2zm.2-8.6c-.1 0-.1-.1-.1-.2v-.4l.1.3c.1 0 .1.2.1.2l-.1.1zm2.3 24l-.1.3h-.1v-.2c.1-.2.1-.3 0-.3-.1-.1-.1-.1-.2-.1s-.2 0-.1-.1l.1-.1c.1 0 .2 0 .2.1s.1.1.1.1c.1.1.2.2.1.3zm4.2-20.8v-.2s.1 0 .1.1c.1.3.3.6.4.8v.2s0 .1.1.1l-.1-.1-.1-.1h-.1v-.1s0-.1-.1-.2c-.1 0-.1-.1-.1-.1v-.2c0-.1-.1-.1-.1-.1s-.1-.1 0-.1zm-.5.7l.1.2c-.1 0-.1-.1-.1-.2zm-.3 2.2s.1 0 .2.1.1.2 0 .2-.2.1-.2 0v-.3zm-.2-9.9v.1s0 .1-.1.1c-.1.2-.3.2-.2.3l.1.2v.3c-.1.1-.2.1-.2 0s.1-.2 0-.3c-.1-.1-.1-.2-.1-.2l.1-.2c-.1-.1-.2-.2-.1-.3l.2-.2s.1.1.3.2zm-.4 4.1c.2.1.3.2.3.2-.1-.1-.3-.2-.3-.2zm.2 12.4h0zm-.6-18l.2-.2v-.5h.2c.1.1 0 .4 0 .4s.1 0 .1.1-.2.2-.2.2-.1 0-.1.1-.1.1.1.2l.2.2.1.1s-.1 0-.1.1c-.1 0-.2-.1-.2-.1s.1-.2 0-.2-.1 0-.2-.1-.1 0-.1-.3zm-.3 5.4c.1 0 .1.1 0 0l.1.1.1.1v.2h-.1c-.1 0-.1-.1-.2-.2.1-.1.1-.2.1-.2zm0 7.3c.1 0 .2.1.2.1h.3c.1 0 .1 0 .2.1.2.1.1.4 0 .3-.1 0-.1-.1-.1-.2s-.1-.1-.1 0 0 .4.1.5.1.1 0 .2-.1.1-.3.1c-.1 0-.1-.3-.1-.1 0 .2-.1.1 0 .3v.3s.1.1.1.2c0 0 0 .1-.1.1-.1-.1-.2-.2-.2-.4s.1-.3.1-.4c0-.1 0-.1.1-.3v-.30000000000000004l-.1-.1s0-.1-.1-.1c-.1-.1-.1-.2 0-.3zm.5 4.7c.1-.1.1-.2.1-.2h.1c0 .1-.2.2-.2.4v-.2zm-.7-13.5l.2.2c0 .1 0 .2-.1.2s-.2 0-.3-.1c-.1-.2-.1-.2-.1-.3l-.1-.1c.1 0 .3 0 .4.1zm-.2 11.2c0 .1 0 .1.1.2s.1.1.1.3v.1c-.1-.2-.2-.4-.2-.6 0 .1-.1 0-.1-.1 0 .1 0 .1.1.1zm-.1-9.2c.1.1.1.2.1.2 0-.1 0-.1-.1-.2zm.1 7zm-.4 3.1zm-.2-9.8c.1 0 .2.2.2.3h-.2c0-.1 0-.1-.1-.1-.1-.1-.1-.2.1-.2zm-.7-.9c.1 0 .1-.1.2 0 0 .1 0 .1.1.1-.2.2-.2.2-.2.3 0 .1-.1 0-.1-.1-.1-.1 0-.2 0-.3zm-.3 6.7l.2.2s-.1.1 0 .2c.1.2.2.3.2.4 0 0-.2 0-.3-.1l-.2-.4c.2 0 .2-.2.1-.3zm-1.4-1.2v.1s-.1 0-.1-.1h.1zm-.5-1.2c.1 0 .1-.1.1-.2.1.1.1.3 0 .3h-.1c.1-.1 0-.1 0-.1zm.3 7.1c0 .1-.1.1 0 0-.1.1-.1 0-.1 0v-.1c0 .1.1.1.1.1zm-.1 3.6v.2h-.1s.1-.1 0-.2h.1zm-.1 1.2v-.30000000000000004h.1s.1 0 .1.1v.2h-.2zm.3-.4c-.1 0-.1-.1-.1-.1v-.1c.1.1.1.1.1.2zm.1-.4v-.2l.1.1c0 .1-.1.1-.1.1zm.1-6.3v-.5c0-.1-.2-.1-.2-.1s0-.1.1-.1l.1-.1h.1c.1.1.1.2.2.1l.1-.1h.1l-.2.4c0 .2.2.1.2.2l.1.1-.1.1c-.2.2-.2.2-.3.2-.1-.1-.1-.2-.2-.2zm.2 1.3c-.1.1-.1.2-.1 0v-.2h.1v.2zm-.1-.4c0-.1 0-.1.1-.2s.1-.1.1-.2c.2.2.4.3.2.3-.1.1-.3.1-.4.1zm.4.8c-.1-.2-.1-.3-.1-.4 0-.1.2-.1.2-.1l-.1.2c0 .1.1 0 .2.2v.1h-.2zm.1.6zm.2-3.9c0-.2 0-.1-.1-.3-.2-.2-.2-.3-.3-.3l-.2-.1c-.2-.1-.3 0-.2-.2v-.2c0-.1.1-.1.1-.1.1 0 .1-.1 0-.2 0-.1.1-.2.1-.1l.1.4c.1 0 .3.1.3 0s0-.3.1-.2l.1.2h.1v.1c0 .1 0 .1.1.1l.1.2.1.1.1.1c0 .1 0 .2.1.3.1.2.2.5.1.5s-.1-.1-.3-.1c-.3-.1-.4 0-.4-.2zm1.2 16.4zm.2.5c.1.1 0 .1 0 0zm.1 1.3c-.1-.1-.1-.2 0-.2v.2zm.4-.4l-.3-.3h-.1c0-.1 0-.1.1-.1.1.1.1.2.2.1.1.1.1.1.1.3zm-.2-1.4s.1.1.1.2v.1c-.1-.1-.1-.2-.1-.3zm2-.7l-.3.1s0 .1-.1.1c0 0-.1 0-.1-.1l-.1-.3-.1-.2v-.1l.1-.1h.1c0 .1 0 .1.1.1s.2-.1.2-.1c.1.1.2.1.1.2s-.4.1-.1.2c.1 0 .2.1.2.1.1.1 0 .1 0 .1zm-.6-1.6c.1 0 .1.1 0 0zm.3-1zm.5-4.3c-.1 0-.3 0-.2.2l.1.1v.4c-.1 0-.2 0-.2.1s.1.3.1.3c0 .1-.1.2-.2.2s-.2-.1-.2-.3c0-.2-.1-.1-.2 0v.1s-.1.1-.1.2l-.2-.1h-.3l-.1-.1c0-.1.1-.1 0-.2s-.2-.2-.3-.1c-.1.1-.1 0-.2.2 0 .2-.1.1-.2.1l-.1-.3s-.1 0-.2-.1l-.1-.2c.1 0 .1 0 .1-.1v-.2s0-.1-.1-.1c0 0 0 .1.1 0h.1c.1-.1.2-.1.2-.1.1 0 .1 0 .1-.2-.1-.2-.1-.3-.2-.4h-.1c0-.1.1-.2-.1-.1-.1 0-.1-.1-.2 0 0 0 0 .1-.1.2s-.3.2-.3.2l-.1.3c0 .1 0 .2.1.2h.1c.1 0 .1 0 .1.1v.1c-.1-.1-.2-.1-.3-.1-.1.1-.1.2-.1.2s-.2.1-.2.2-.2.2-.4.2v-.2l-.1-.3-.1-.2h.1l.5-.2c.1-.2.1-.1.1-.3v-.2s.1 0 .1.1c.1 0 0 .1.2.2.2 0 .3-.1.3-.1v-.2c0-.2 0-.1.1-.2l.1-.1h.2c.1 0 .1-.1 0-.2v-.2h.1c.3.1.3.2.4.2h.1c0 .1.1.1.2.2.1 0 .2 0 .4.1l-.1.2c0 .1.1.2 0 .2s-.4.1-.2.1.3.1.3.1h.1v.1c0 .1.1.1.2.2 0 0 0 .1-.1.1h-.4s-.2-.1-.3 0v.2h.5l.2.1c.1 0 .1 0 .1-.1s.2 0 .1 0v.2l.1-.1.1-.1c.1-.1.2 0 .2-.2l-.1-.2c-.2 0-.3.2-.3.1v-.1l.1-.1c.2-.2.2.1.2.1s.1-.1.1-.2c.1-.1.1-.2.1-.2.1-.2.2 0 .3 0h.1l-.1.3zm.1-8.2s-.1 0-.2-.2v-.2c0-.1.1-.2.1-.2v.1l.1.1v.2s.1.1.2 0l.1.1c-.1.1-.3.2-.3.1zm0-2.3c0-.1 0-.1.1-.3l.1.1s0 .2-.2.2zm.5 0c.1-.2.1-.3.1-.3v-.1c0-.3 0-.4-.1-.4-.1.1-.1.3-.2.2l-.2-.2s.3 0 .2-.1c-.1-.2-.1-.3-.2-.4-.1-.1-.1 0-.1.1h-.1v-.2s.1-.1.1-.2c.1 0 .1 0 .2.1 0 .1.1.1.2.1h.1c.1-.1.1-.1.2-.1v.2c0 .1 0 .1-.1.2s0 .1 0 .1l.2.3c0 .1.3.1.3.3 0 .2.1.2-.1.2h-.1c0 .1.1.2-.1.3-.1.1-.4.1-.3-.1zm.7 16.4c-.2.1-.2-.1-.3.2 0 .3 0 .6-.1.4l-.1-.1s0-.1.1-.2c.1-.2 0-.3 0-.4h.4v.1zm-.2-17.1l-.2-.2c.1 0 .1-.1.1-.1h.1l.2.2s0 .1.1.1c-.1 0-.2.1-.3 0zm1.2 18.5l-.3.1h-.1s-.1-.1-.1-.2c-.1-.1-.2 0 0-.2s.2-.3.2-.3.1-.2.2-.1l.2.3c.1.2.1.4-.1.4zm12.1-4.3v-5.7h4.5v5.8h-3l-1.5-.1zm-10.2-17.5c-.1.1-.1 0-.2 0 0 0 0-.1.1-.3l.1.1c-.1 0-.1.1 0 .2-.1-.1-.1 0 0 0zm.4 18.9zm.2.4v-.4c.1.2 0 .3 0 .4zm.1.1c0 .1-.1 0 0 0zm.1-5.2c0-.2.1-.2.1-.3l.2.2c.1.1.1.2.1.3v.30000000000000004c0-.1-.2-.1-.2-.1s-.1 0 0 .1l-.1-.1c-.2-.2-.2-.3-.1-.4zm-.1-.4zm1.8-6.6h.2l-.2.1v-.1zm.6-8c0-.1-.1-.2-.1-.4.1 0 .1.1.1.1.1.2 0 .3 0 .3zm.1.8c0 .1.1.2.1.2v.1h-.2l.1-.3zm-.1 1.1c.1-.1.1-.2.2-.2v.30000000000000004c0 .1 0 .2-.1.3-.1.1-.2 0-.2 0s0-.2-.1-.3l.2-.1zm-.2-1.6c-.1 0-.1 0 0-.1v.1zm0 .7zm-.1 1.4c.1-.1 0 .1 0 .1v.1h-.1l-.1.1v-.3c.1.1.1 0 .2 0zm2.2.1s0 .1-.1.1c0 0-.1.1-.1.2v.1l-.1-.2c0-.2.2-.3.3-.3l.1.1h-.1c.1 0 0-.1 0 0zm0 .5zm-.1.5c.1 0 0-.1 0-.3.1-.2.1-.1.1-.1l.1-.1v-.1s0-.1.1-.1v.4l-.1.3v.1c0 .2-.1.2-.2.4 0 .1 0 .1-.1 0s-.1-.3-.1-.4c0-.1.1-.1.1-.1.1-.1.1 0 .1 0zm1.3-10.3v-.1c.3-.2.5-.6.5-.5 0 .1 0 .1-.1.3-.1.1-.1.2-.1.2-.1.1-.1.2 0 .2l.1.1c0 .1-.1.2-.1.2 0 .1 0 .4-.1.3l-.2-.2-.1-.1v-.2l.1-.2zm.2-1.1zm.3 1.6c0 .1 0 .2-.1.3 0-.1 0-.2.1-.3zm-.2 10.4c-.1.1-.1.1-.2.1h-.1s.1 0 .1-.1c0 0 .1-.1.2 0zm-.3.4c0 .1.1.2.2.2s.2-.2.2 0v.1c-.1 0-.2.1-.2.1 0-.1-.1-.1-.3-.1-.3.1-.4.2-.4.2-.1 0-.1.1-.2 0 0-.1.1-.2.1-.4 0-.1-.3-.2-.1-.3.1 0 .2-.1.2-.1v.1c.1.4.3.3.5.2zm-.1-14.3c0 .1-.1.1-.1 0 0-.2-.2-.2-.2-.2 0-.1.1-.1.2-.1s.2.2.1.3zm-.3 1.8c.1.1.1.2.1.2v.1c-.1.2-.1.2-.1.3 0 0-.1 0-.1-.1.1-.1.1-.2 0-.2-.2.1-.2.1-.3.1-.1.1-.1.2-.2.2v-.1c0-.1.1-.3.3-.4.1 0 .1-.2.1-.2h.1c.1 0 .1.2.1.1zm-1 11c0-.2-.1-.2-.1-.2v-.2c.1.2.1.4.1.4zm-1.1 11.9c-.1-.1 0-.3 0-.4l.1.2v-.2h.1c.1-.1.1-.1.1-.2.1-.1.1 0 .2.1s0 .3-.1.4c-.1.1-.1 0-.2.2v.2c-.1 0-.1-.2-.2-.3zm.1 3c0 .1-.1.1-.1.1-.1-.1-.1-.1.1-.1-.1-.1 0-.1 0 0zm.5-2.1l.2-.2.1-.1v.1c-.1.2-.1.2 0 .2-.1.1-.1.2-.1.2h-.1c-.1.1-.2.2-.2.3l-.2.1v-.1c0 .1.2-.3.3-.5zm.1-.3c.1 0 .1 0 .1.1 0 0-.1 0-.1-.1zm.1-1.9c-.1.1-.3.1-.4.1l-.2.2c0 .1 0 .1-.1 0l.1-.3v-.1c.1-.2.3-.2.3-.2.2.1.4.2.3.3zm-.1-1.1c0 .1-.1.2-.3.3v.2c0 .3-.1.1-.3 0l-.1.1c-.1 0-.1.2-.2.3v-.1l.2-.3c.1 0 .1-.1 0-.1l.2-.3c0-.1.1-.1.1-.1.3-.1.4-.2.5-.1 0 0 .1.1.2.1l-.1.1-.2-.1zm-1.2 2.1c.1.2.2.4.2.2v-.2s.1 0 .1.1c.1.1-.1.3-.1.3s-.1 0-.3-.1v-.5s.1.1.1.2zm0-.5h.1c0 .3-.1.1-.1.3v-.3zm.6-2.3v.2l-.1-.1c-.1.2-.1.3-.2.1-.1-.2-.1-.3-.1-.4l.1-.1v.1c0 .1.1.1.3.2zm-.1-.6c.1-.1.2-.1.2-.1l-.1.3s-.1 0-.1.1v-.3zm-1.8-2c-.1 0-.1-.1 0 0zm1.9-1.5c.1-.1.2-.1.2-.1l-.2.1zm1.6-.6l-.2.1v-.2c0-.1.1-.1.2-.1s.2 0 .2-.1v-.2c.1-.1.2 0 .3.1l-.5.4zm8.3-8zm-.3-.3v.2c-.1-.1-.1-.1 0-.2zm-2.1-2.4zm-.1 1.1l.1-.1v-.30000000000000004l.1.1v.4c0 .1.1.1.1 0l.1-.1c0-.1.1-.1.1-.1s.1-.1.2-.1l.1.1c.1 0 0 .2 0 .2v.3c0 .1 0 .2.1.2l.1-.1h.1l.1.1c.1.1.1.2 0 .3l-.2.1c-.1.1-.1.2-.1.2v.2c-.1 0-.1.1-.1.2h-.1c-.1-.1 0-.1 0-.2s.2-.6.1-.6 0 .1 0 .3v.4c0 .1.2.4.1.5l-.1-.2c-.1-.2-.1.1-.2.1 0 0-.1.1-.1.2 0 0 0 .1-.1.1 0 .1-.1.1-.1 0s-.1-.1 0-.2.3-.1.2-.3c0-.2-.1-.4-.1-.5h-.1c0-.1 0-.1-.1 0 0 0-.1 0-.1.1-.3.1-.1 0-.1-.1s0-.2.1-.2.1-.1.1-.3v-.30000000000000004c0-.2-.1-.2-.2-.1v-.3zm-1.3-3.9c.2 0 .3 0 .4.1.1.1.1.3.2.2 0-.1.2-.1.1-.3-.1-.2-.2-.3-.2-.3 0-.1-.2-.2.1-.1.2.1.2.3.3.2v-.1c.1.3.1-.1.1-.4.1-.1.1-.1.2 0 0 .2.1.3 0 .4-.1.1-.2.2-.2.3 0 .1-.1.3-.2.4 0 .1.1.2-.1.2s-.2 0-.3-.1l-.2-.2c-.1-.1-.5-.3-.2-.3zm-1-2.3c.2-.1.3.2.4-.1.1-.2.1-.2.1-.3 0 0 .1-.1.2 0s.1.1 0 .2 0 .2 0 .2.2.1 0 .2l-.2.1s-.2-.1-.2 0 0 .1-.1.2v-.30000000000000004c-.2 0-.2-.1-.2-.2zm-1.1 1.3c.1 0 .2-.1.3 0l.2.3c.1.1.1.1.2.1s.2.1.2 0c0-.2.1-.2 0-.3-.1-.1-.1-.1-.2-.1l-.1-.3v-.1s.1-.2 0-.2l-.1-.1s0-.1.1-.1.1 0 .2.1v.2c0 .2 0 .3.2.3.1 0 .1 0 .1-.1 0 .1.1.1.1.1h.2c0-.1.1-.1.2-.2v-.1c0-.1.1-.1.1-.1 0 .1.1 0 .1.2s-.1.3-.1.3-.1 0-.2.1c-.1 0-.1.1-.1.2s.1.2 0 .3c-.1.1-.1.1-.1.2h.2s.1-.3.1-.2v.6c0 .1-.2.1-.3.1 0-.1 0-.2-.2-.2-.1 0-.2.2-.3.1-.1 0-.1-.2-.1-.1v.3c-.1.1-.1.1-.1.2s-.3.1-.2 0c.1-.2.1-.3 0-.3s.1-.2-.1-.1v-.30000000000000004c-.1-.2-.1-.1-.2-.2s-.2 0-.1-.2c0-.1.1-.1 0-.2l-.1-.1c0-.1-.1-.1.1-.1zm-.2 1.5c.1-.1-.1-.2 0 0 .1-.1.2 0 .2 0v.1l-.2.2c-.1-.1-.1-.2 0-.3zm-1.1-4.7l.1-.1c.1-.2.2-.1.2-.2s0-.2-.1-.3c0-.1 0-.3.2-.2.1.1.1 0 .1.2l-.1.4c0 .3-.1.3-.2.4 0 .1-.2.3-.2.2-.1-.1-.1-.1-.1-.3-.1 0 .1-.1.1-.1zm-.1-1s.1 0-.1.3-.4.7-.4.6c-.1-.1-.1 0-.1-.2s0-.2.1-.2.2 0 .2-.1 0-.1.1-.2c0-.1.1-.3.2-.2zm-1.2.4c-.1 0-.2.1-.2 0 0-.2 0-.1.1-.3.1-.1.3-.2.3-.3 0-.1 0-.1.1-.2s.4-.2.4-.2c.1 0 .4.1.2.2s-.4.1-.4.2l-.3.2c-.1.1-.3.3-.1.2.3-.1.4-.1.4-.1s-.4.3-.5.3zm-.2 1.5l.1-.2c.1 0 .1.1.2.2 0 .1.1.2.2.2.2 0 .3.1.1.2-.1.1-.3.1-.3 0s0-.2-.1-.2c-.2-.1-.2-.1-.2-.2zm-.2 11.1c.3-.2 0 .2.1.4 0 .1 0 .2-.1.2v-.1l-.1-.4.1-.1zm-.5 5.7v0zm-.1-4.2zm0-3.1zm-.3 3.1c-.1.2-.1.3-.2.4-.2.1-.2.1-.3.2-.1.2-.2.1-.3.2-.1 0-.1.1-.1.1v-.7c.1 0 .1 0 .2-.1.1-.2.1 0 .2-.1s.1 0 .1-.2 0-.1-.1-.2v-.4c0 .1.1.2.1.2l.1.2c0 .1.1.1.2 0 0 0 .1-.1.1-.2.1.3.1.4 0 .6zm-.3-1v-.1l.1-.1s.1 0 .1.1v.1c0-.1 0-.1-.1 0h-.1zm.1-2.2l.1.1.1.2s-.1-.1-.1 0h-.1c-.1.2-.1.2-.1.4v.1l-.1.2h-.1v-.1c0-.1-.1-.1-.1-.1v-.1s0-.2-.1-.3v-.2l.1-.1v-.2c.3.1.3.1.4.1zm-1-11.5c0-.2.2-.2.2-.3 0-.1 0-.1.1 0l.2.1c.1 0 .1-.1.2-.2 0-.1.1-.3.1-.3l.1.2v.5s-.1-.2-.2 0c0 .2.1.7-.1.4-.2-.3-.1-.5-.2-.4s-.2.4-.3.2-.1 0-.1-.2zm-.1 12.4v0c0 .1 0 .1-.1.1.1 0 .1 0 .1-.1zm0 6.8c.1 0 .1 0 .2.1 0 0 0 .1-.1.1l-.2.2c0-.1 0-.4.1-.4zm-.2-5.2zm-.1.4c0 .1 0 .2.1.2h-.1v-.2zm-.1-2.5c0 .3.1.4-.1.6-.1.1-.1.1-.1.2h-.1v-.1c.1-.1.2-.1.1-.3v-.4c.1-.1.1-.2.2 0zm-.2-1.1v.2c-.1-.1-.2-.2 0-.2zm-.2 8.5s0-.1.1-.1l-.1.1c.1 0 .1.2 0 0v0zm-.5-17.6c.1 0 .1 0 .1.2 0 .1 0 .1.1.2v.3c0-.1-.1-.1-.2-.1-.1-.1-.1-.3 0-.6-.1 0-.1-.1 0 0zm-.2 10.2c.1 0 .1-.1.1-.1.1-.1.1-.1 0-.1 0-.1.1-.1.2.1 0 .1.1.1.2.2 0 0-.1 0-.2.1-.1-.1-.1-.3-.2-.3-.1.2-.2.2-.1.1zm-.2 2.3v-.4s.1 0 .1-.1v.1c0 .3-.1.3-.1.4v0zm0 11.7c0 .1 0 .1-.1 0 0-.1.1 0 .1 0zm-.5-5.2l.2-.1.1-.1.1.1c0 .2 0 .3.1.3h.1v.1c-.1.1 0 .1 0 .2l-.1.1s-.1-.1-.2-.1c0-.1 0-.2-.1-.2h-.1v-.1h.1c.1-.1.1-.1 0-.2v-.1c-.1.1-.2.1-.2.1zm.1 4.9s0 .1.1.1c0 .1 0 .1-.1.2v-.30000000000000004zm-.1 1.5c0 .2.1.2.2.3h.1s0 .1.1.1c0 .1 0 .2.1.3-.1.1-.2.2-.2.4h-.1v-.30000000000000004c-.1-.4-.2-.7-.2-.7v-.3l-.1-.2.1.1s0 .1.1.1v.1c-.2 0-.2.1-.1.1zm-.3-13.4c-.1.1 0 .2.1.3v.1c0 .3.1.3.1.4v.1c-.1 0-.3 0-.3-.1-.1-.1-.1-.1-.1-.2s0-.2.1-.4c0-.1 0-.2.1-.2zm-.8-12.2s.2-.1.4 0-.1.2-.3.2c-.1 0-.1-.2-.1-.2zm-.1 1s.1 0 .2-.1.1-.3.1-.5c.1-.2.2.1.2.2s-.1.4 0 .5c-.1 0-.1.1-.1.2l-.1.1c-.1.2 0 .2.1.3s0 .1.2.3c.2.1.1.1 0 .3s-.2-.1-.2-.2c-.1-.1-.2-.2-.2-.3s-.1-.2-.2-.2-.2 0-.2.1c-.1 0 0-.3 0-.4l.2-.3zm-.2-.8c.2 0 .3.2.2.3-.1.1-.2.3-.2.1-.1-.1-.1-.4 0-.4zm-.2 11.9c-.1.1-.1.1-.3.4-.2.3-.1 0-.1-.1 0 0-.1-.3 0-.2.2.2.4-.1.4-.1-.1 0 0-.2 0-.5 0-.2-.1-.1-.1-.1v-.2s0 .1.1.1.1.1.1.2l.2.2c.1.1 0 .1-.1.2s-.1.1-.2.1zm4.5 20.9zm-.2 6.3v-1.5c0-1 .2-2.4.1-2.9 0-.5 0-.7-.1-.9-.1-.2 0-.3 0-.5v-.1l.2.1c.1 0 .2.1.2.1s.2.1.1.2c-.1.2-.2.1-.3.2l-.1.1.2.2c.1 0 .1.2.2 0l.2-.3c.1-.2-.1-.2 0-.3.1-.1.1-.1 0-.3-.1-.1-.1-.2 0-.3l.1-.1 1.6.1.4 5.8-2.8.4zm11.6.3h-4.8v-5.3h1.4c0 .1 0 .2.1.2l.5-.1c.1 0 .1 0 .1-.1 0 0 .1 0 .1-.1.2 0 .3.1.4.1l.2-.2h.5s0 .1.1.1l.2.3c.1.1.2.3.2.2s.1-.3 0-.4c-.1-.1-.2-.2-.2-.3h.3c.1.1.1.2.2.2.1.1.1.5.2.3 0 0 .1.1.1 0v-.1c.1-.1.2-.1.1-.3v-.1h.4v5.6zm13.2-.2h-5.2v-5.3h5.2v5.3zm.4-10.4h-5.4v-6.3h5.4v6.3zm49.5 7c.1-.1.1-.1.1 0s-.1.1-.1 0zm.3-8.2c.1 0 .3-.1.2.1-.1.2-.1.2-.1.3s0 .1-.1.2v-.1c0-.1 0-.1-.1-.1v-.1l-.1-.1v-.1c0-.1 0-.1-.1-.1 0 0 0-.1-.1-.1-.1-.2 0-.1.1-.3l.1.3c.3 0 .2.1.2.1zm0-6.6c-.1.1-.1.1-.2.1h-.1c-.1-.1-.2-.2-.1-.2l.2.1h.2zm-.2-.6c.1 0 .2.2 0 .2-.1 0-.2.1-.3 0 0-.1 0-.2-.1-.2h-.2c.1-.1.1-.2.1-.2l.1.1c.3.1.3.1.4.1zm-.3 8.3l-.1-.1c.1 0 .1.1.1.1zm-.2-9.4zm0 .3v-.2c.1 0 .1.1 0 .2.1.1.2 0 .2-.1l-.1.1c-.1 0-.1 0-.1.1-.1.1-.1 0-.1 0l.1-.1zm-.1 7.7c.1 0 .1 0 .1.1v.2l-.1.1c-.1.1-.2.2-.2.1 0-.2-.2-.1-.1-.2l.3-.3zm-.2-8.2v0zm-1.5-1.7zm-.1.8l.1-.1v-.30000000000000004l.1.1v.3c0 .1 0 .1.1 0l.1-.1s0-.1.1-.1l.1-.1.1.1v.4s0 .1.1.1c0 0 .1 0 .1-.1h.1s0 .1.1.1v.2l-.1.1c-.1.1-.1.1-.1.2v.1c-.1 0-.1.1-.1.1-.1-.1 0-.1 0-.2s-.1-.3-.2-.3 0 .1 0 .2v.3s.1.3.1.4l-.1-.1c-.1-.1-.1.1-.1.1s0 .1-.1.1v.1c0 .1-.1.1-.1 0s-.1-.1 0-.2.2-.1.1-.2c0-.1-.1-.3-.1-.3s0-.1-.1 0h-.1l-.1-.1c0-.1 0-.2.1-.2s.1-.1.1-.2v-.30000000000000004l-.2-.1zm.1 5.3s-.1.2-.1.3c-.1-.1-.1 0-.1-.2v-.1c.1.1.1.1.2 0zm-1.1-8.1c.2 0 .3 0 .3.1l.1.1c0-.1.2-.1.1-.2s-.1-.2-.1-.2-.2-.2.1 0l.2.1c.1.2.1-.1.1-.3h.1c0 .1.1.2 0 .3-.1.1-.2.1-.2.2l-.1.3c0 .1.1.2-.1.2-.1 0-.1 0-.2-.1s-.1-.1-.2-.1c0-.2-.3-.4-.1-.4zm-12 4.2c.1.1.1.1 0 .1v-.1zm.9-.2c.1.1.2.1.2.1-.1 0-.2-.1-.2-.1zm3.7 1.1h-.1v-.2s0 .1.1.2zm1.9 5.6v-.6000000000000001c.1 0 .1 0 .2.1h.1v.1c0 .2-.1.1-.1.2v.1l-.2.1zm.4-6.2l-.1-.2.1.1c.1 0 0 .1 0 .1zm.1.6s0 .2.1.1v.1h-.1v-.2zm-.1.7l.1-.2v.30000000000000004c0 .1 0 .2-.1.2-.1.1-.1 0-.1 0v-.2s.1 0 .1-.1zm-.1-1.1c-.1-.1 0-.1 0 0zm-.1.5zm0 1c.1-.1 0 .1 0 .1v0c-.1-.1-.1-.1 0-.1zm1.5.2v.1s-.1 0 0-.1c-.1.1-.1 0 0 0zm.2-.1c-.1.1-.1.1-.1.2v.1l-.1-.1c0-.1.1-.2.2-.2 0-.2.1-.1 0 0 .1-.1.1 0 0 0zm-.1.3zm0 .3c.1 0 0-.1 0-.2s.1-.1.1-.1v-.2l.1-.1v.2l-.1.2v.1l-.2.3-.1-.3c.1.1.1.1.2.1-.1 0-.1.1 0 0zm1-7.1c.2-.3.3-.5.4-.4 0 .1 0 .1-.1.2l-.1.1c0 .1-.1.1 0 .2 0 0 .1 0 .1.1l-.1.2c0 .1 0 .3-.1.2-.1-.1-.1-.1-.1-.2s0-.1-.1-.1v-.2c0-.1 0-.1.1-.1zm.3.3v.2c0-.1-.1-.2 0-.2zm-.1 7.3c-.1 0-.1.1-.1.1h-.1l.1-.1s0-.1.1 0zm-.2.3c0 .1.1.1.1.1s.2-.1.2 0v.1s-.1 0-.2.1c0 0-.1-.1-.2 0-.2.1-.3.1-.3.1s-.1.1-.1 0l.1-.3c0-.1-.2-.1 0-.2h.2c-.1.2 0 .2.2.1zm-.3 1.9c0 .1-.1.1-.2.2l-.3-.1v-.2c0-.1.1-.1.2-.1h.1v-.2c.1-.1.2 0 .2.1h.1v.1l-.2.1s.1 0 .1.1zm.2-12c0 .1-.1.1-.1 0s-.1-.1-.1-.1l.1-.1c.1 0 .1.2.1.2zm-.2 1.3l.1.2c0 .1-.1.2-.1.2l-.1-.1v-.1l-.3.1-.1.1v-.1c0-.1.1-.2.2-.3.1 0 .1-.1.1-.2h.1c0 .1 0 .3.1.2zm1.5 10.8c0-.1.1-.1 0 0l.1-.1c0 .1 0 .1.1.1 0 0 .1 0 .1.1 0 0-.1 0-.1.1h-.1c-.1-.1-.2-.1-.1-.2zm.5-.5l.1-.1v-.1h.1s.1-.1.1-.2h.1l-.1.1c-.2 0-.2 0-.2.1l-.1.3v-.1zm1.6 8c.2 0 .1.1 0 .1v-.1zm-1.3-18.8c.1-.1.2.1.3-.1.1-.1.1-.2.1-.2s.1-.1.1 0v.1c-.1.1 0 .2 0 .2s.1.1 0 .1-.1.1-.2.1-.2-.1-.2 0 0 .1-.1.1v-.30000000000000004zm-.9.9c.1 0 .1-.1.2 0l.2.2c.1.1.1.1.2.1s.2.1.2 0 .1-.1 0-.2l-.1-.1s0-.2-.1-.2v-.1s.1-.1 0-.1l-.1-.1.1-.1c.1 0 .1 0 .1.1v.1c0 .2 0 .2.1.2h.1l.1.1h.1s.1-.1.1-.2v-.1s.1-.1.1 0c0 0 .1 0 .1.1s-.1.2-.1.2h-.2c-.1 0-.1.1-.1.1s.1.2 0 .2l-.1.1h.1s.1-.2.1-.1v.4c0 .1-.2.1-.2 0s0-.1-.1-.1-.2.1-.2.1-.1-.2-.1-.1v.2c0 .1-.1.1-.1.1-.1.1-.2.1-.1 0s.1-.2 0-.2v-.30000000000000004c-.1-.1-.1-.1-.2-.1l-.1-.1v-.1zm-.1 1.1c0-.1-.1-.2 0 0h.1l-.2.2c0-.1 0-.2.1-.2zm-.8-3.3l.1-.1.1-.1c0-.1 0-.1-.1-.2s0-.2.1-.1.1 0 .1.2l-.1.3c0 .2-.1.2-.1.3 0 .1-.1.2-.2.1l-.1-.2c0-.2.1-.2.2-.2zm-.1-.8s.1 0-.1.2c-.1.2-.3.5-.3.4v-.1c0-.1 0-.1.1-.2.1 0 .2 0 .1-.1 0-.1 0-.1.1-.1 0 0 0-.1.1-.1zm-.9.3h-.1c0-.1 0-.1.1-.2l.2-.2c0-.1 0-.1.1-.1s.3-.1.3-.1c.1 0 .3.1.1.1-.2.1-.3.1-.3.1 0 .1-.2.1-.2.1 0 .1-.2.2 0 .2s.3-.1.3-.1-.4.2-.5.2zm-.1 1.1c0-.1 0-.2.1-.2s.1.1.1.1 0 .1.1.1.2.1.1.1c-.1.1-.2.1-.3 0 0-.1 0-.1-.1-.1-.1.1-.1 0 0 0zm-.2 7.8c.3-.1 0 .1.1.3 0 .1 0 .1-.1.1v-.1l-.1-.3h.1zm-.4 1zm0-2.1zm-.1 5.5v.30000000000000004h-.2v-.1c.1-.1.2-.1.1-.2h-.1v-.1s.1 0 .2.1zm-.2-3.4c-.1.2-.1.2-.2.3-.1.1-.1 0-.2.2-.1.1-.1.1-.2.1l-.1.1v-.4s.1 0 .1-.1l.1-.1v-.2c0-.1 0-.1-.1-.1v-.30000000000000004c0 .1 0 .2.1.2l.1.2c0 .1.1.1.2 0l.1-.1c.2 0 .2.1.1.2zm0-.8v.1c0-.1 0-.1-.1 0 0 0-.1 0-.1.1v-.1l.1-.1h.1zm-.1-1.4c.1 0 .1.1.1.1.1.1.1.1.1.2 0 0-.1-.1-.1 0h-.1c-.1.1-.1.1-.1.3v.1h-.1c0-.1 0-.1-.1-.1v-.5l.1-.1v-.1c.1.1.1.1.2.1zm-.8-8.1l.1-.2c0-.1 0-.1.1 0l.2.1s.1 0 .1-.1.1-.2.1-.2c0 .1.1.1.1.1s.1-.1 0 .1-.1.2-.1.3-.1-.1-.1 0c0 .2.1.5-.1.3-.1-.2 0-.3-.2-.3-.1.1-.2.3-.2.2v-.3zm0 8.8v0zm-.1 4.7c.1 0 .1 0 .1.1 0 0 0 .1-.1.1v-.19999999999999998zm-.1-3.6zm-.1.3s0 .1.1.1h-.1v-.1zm0-1.9c0 .2.1.3-.1.4l-.1.1h-.1c.1 0 .1-.1.1-.2v-.2c.1-.1.1-.1.2-.1zm-.2-.7v.1c-.1 0-.1-.1 0-.1zm-.1 6zm-.5-12.4s.1 0 .1.1 0 .1.1.2v.2l-.1-.1c-.1 0-.1-.2-.1-.4zm-.1 7.1c.2-.1.1-.1.1-.1 0-.1.1-.1.1 0l.1.2s-.1 0-.1.1c-.1 0-.1-.1-.2-.2 0 .1-.1.1 0 0-.1.1 0 .1 0 0zm-.1 1.7v-.3l.1-.1v.1c0 .2-.1.2-.1.3zm-.6-.4c-.1 0 0 .1.1.2v.1c0 .2.1.2.1.3v.1c-.1 0-.2 0-.3-.1-.1-.1-.1-.1-.1-.2s0-.2.1-.3c0 0 0-.1.1-.1zm-.3-8.5c.2.1-.1.1-.2.1s-.1-.1-.1-.1c0-.1.1-.1.3 0zm-.4.7s.1 0 .1-.1c.1-.1.1-.2.1-.4.1-.2.1 0 .1.1s-.1.3 0 .3c-.1 0-.1.1-.1.1l-.1.1c-.1.1 0 .1.1.2l.1.2c.1.1.1.1 0 .2s-.1-.1-.2-.1-.1-.1-.1-.2l-.1-.2c-.1 0-.1 0-.2.1-.1 0 0-.2 0-.3h.3zm-.2-.6c.1 0 .2.1.1.2s-.1.2-.1.1v-.3zm-.4 8.5c.1.1.3-.1.3-.1v-.3c0-.2-.1-.1-.1-.1v-.2s0 .1.1.1l.1.2c.1.1.1.1.1.2.1.1 0 .1-.1.1h-.2l-.1.2c-.1.2-.1 0-.1-.1 0 .1-.1-.1 0 0zm-1.1 1.5l-.1-.2h.1c.1 0 .1.1.1.1s0 .1.1.1h-.2zm-.3-1.4v0c.1-.1.1-.1.1 0 .1.2.2.4.3.5v.30000000000000004l-.1-.1h-.1s0-.1-.1-.1l-.1-.1v-.1s-.1-.3 0-.4zm-.4.6l.1.1c-.1 0-.1-.1-.1-.1zm-.1.2c.1 0 .1 0 .1.1s.1.1.1.1c.1 0 .1-.1.1-.1v.2c0 .1 0 .1-.1.1v.1c0 .1.1.1.2.2s.2.1.2.2v.1l-.6-1zm-.3-5.7v.2l-.1.2s0 .1.1.1v.2c-.1 0-.1.1-.2 0 0-.1.1-.1 0-.2l-.1-.2s.1-.1.1-.2c-.1-.1-.1-.1-.1-.2s.1-.1.1-.1l.2.2zm-.6-1l.1-.2v-.4h.1c.1.1 0 .3 0 .3.1 0 .1 0 .1.1s-.2.1-.2.1-.1 0-.1.1-.1.1 0 .2.1.1.1.2l.1.1h-.2s.1-.1 0-.2h-.1c.1-.2.1-.1.1-.3zm-.2 3.8l.2.2v.1h-.1c-.1 0-.1-.1-.1-.1v-.2zm-.2-1.1l.1.1c0 .1 0 .2-.1.2s-.1 0-.2-.1-.1-.1-.1-.2l-.1-.1c.2 0 .4.1.4.1zm-.6 1.6c.1 0 .2.1.1.2h-.2c0-.1 0-.1-.1-.1l.2-.1zm-.5-.6h.1v.1l-.1.2-.1-.1s.1-.1.1-.2zm-2.1-.5zm-.6.6v-.1c.1-.1.1 0 .1-.2v-.1c-.1-.1 0-.1.1-.1s.1 0 .2-.1v.1s0-.1-.1 0l-.1.1v.30000000000000004l-.2.1zm16.9 16.9c-.1.1-.2.2-.2.1v-.2c.1 0 .1 0 .2.1.1-.1.1-.1.1-.3l-.1.3zm.1-3.3c-.1.2-.2.2-.2.4 0 .1 0 .2-.1.1 0-.1-.1-.1-.1 0s-.1 0-.2 0h-.30000000000000004v-.5c0 .1.1.1.1.1.1.1.1 0 .1.2s.1 0 .1-.1l.2-.1c.1-.1.1-.2.1-.4v-.1l.1.1c.2.2.2.2.2.3zm.1-6.2h-.2c0 .1-.1.1-.2 0l-.1-.3-.2-.3c-.1 0-.1-.1-.2 0v-.2h.2c.1 0 .1-.1.1-.1v-.1c0-.1.1-.1 0-.2s-.1-.2-.1-.2v-.1h.1l.2.1c.1 0 .1 0 .1-.1l.1-.1.1-.1h.1c.1 0 .1-.1.1-.2s-.1-.1-.1-.1v-.1l.1.1c.1.1.1 0 .1-.1 0 0 .1.1 0 .1 0 .1 0 .3-.2.4-.2.1-.2.3-.2.3s.1.2.2 0c0-.1 0-.1.1-.2s.2-.1.2-.2 0-.2.1-.2c0 0 0 .1.1.1h.2l-.1.1c-.1 0-.1 0-.1.1v.2l-.1.2h-.1v.2l.1.1s0 .1.1.1l.2.2c0 .1.1.2.1.2h-.1l-.2-.2c-.1 0-.2-.1-.1.1 0 .1 0 .3.1.3h.2c0 .1.1.2-.1.2s-.3-.2-.3-.1c-.2.1-.2.1-.3.1zm.4 9.3v0zm.4.1l-.1-.1c0-.1-.1-.1-.1-.1h-.30000000000000004v-.2l.1-.1.1-.1v.2h.30000000000000004s0 .1.1 0l-.1.2c.1.1.1.1 0 .2zm0-4.1c0-.1-.2 0-.2.1s0 .1.1.1c.1.1.1.1 0 .2h-.30000000000000004c0 .1 0 .1-.1.2h-.2v-.1c0-.1-.2 0-.1-.3 0-.1 0-.1.1-.2.1 0 .1-.1.1-.1l.1.1.1.3.1-.2.2-.1c0-.1 0-.3-.1-.3s-.3.1-.2 0c.2-.2.2-.2.3-.2.1 0 .2 0 .2-.1s-.1-.2-.1-.2.1-.1.1 0l.2.2c-.1.1-.1.1-.1.2s-.2 0-.1.2c.1.1.1 0 .2.2v.1c0-.1-.1-.1-.2-.1s-.1.1-.1.2c.1 0 .1-.1 0-.2zm.5 3.7c.1.1 0 .1 0 .2h-.2l-.1-.1c0-.1 0-.1.1-.3.1-.2.1-.2.1-.3 0-.1-.1.1-.2.2 0 0-.1.1-.2.1v-.1c0-.1 0-.2.1-.2v-.1h.1c.1 0 .1-.1.1-.1v0l.1.1c-.1.2 0 .1.1.1 0 .1-.1.2-.2.3.1.2.2.2.2.2zm.3.4v.2c-.1 0-.1-.2 0-.2zm0-1.6l-.1.1c0-.1 0-.1.1-.1zm.3-2.3c-.1.1-.2.1-.2.2l-.2.2c-.1 0-.2 0-.1-.1l.2-.2c0-.1.1-.1.2-.1h.1zm.4-3.2c-.1.1-.1.1-.2 0 0 0 0-.1-.1-.1-.1-.1-.2-.2-.2-.1l-.1-.1c-.1 0 0-.1 0-.2h.4l.1.2c.3.1.1.3.1.3zm.1-1.8c-.1 0-.2.1-.2 0s-.1-.1 0-.2h.2c.1.1.1.1.1.2h-.1zm.3.9c-.1.1-.1.3-.2.1v-.2h.2s.1 0 0 .1zm1.3 3.4zm-1 1.4zm-.1-4.3v-.1l.1-.1s-.1.1-.1.2zm1.8.2c-.1-.1-.1-.2-.2-.1h-.1c0-.1-.1-.2 0-.2h.1l.2.2c.1-.1.1.1 0 .1.1 0 .1.1 0 0zM20.8 52.2zM20.7 52.2c-.1 0-.1.1-.1.2 0-.1.1-.2.1-.2zM20.2 52.8l.3-.2v-.2c-.1.1-.3.3-.3.4z"/></svg>