<svg xmlns="http://www.w3.org/2000/svg" width="100" height="100"><circle fill="#B2B2B2" cx="50" cy="50" r="50"/><path d="M82.466 43.098c-.196-.724-.459-5.19-.459-5.584s-1.051-3.351-1.707-4.139c-.657-.788-.92-1.445-1.841-1.379-.919.065-3.546-1.052-3.811-1.314-.262-.263-.459-1.379-.787-2.3-.329-.919-.656-6.371-.592-9.393.065-3.022 0-7.029-2.102-8.211-2.104-1.183-3.284-.723-3.284-.723-2.627-.132-7.227 1.051-7.227 8.014 0 0-.394 2.102 0 3.284 0 0-.132 2.891.264 4.073.396 1.183.263 1.708-.131 2.299 0 0-.492.789 0 1.117.317.212.381.333.235.58.731-.357 1.752-.986 1.847-.612.112.451.451 2.596.451 2.596.563 1.918 1.918 5.754 1.918 5.754 1.129-2.257 5.19-5.981 5.19-5.981.338-2.143 0-2.933 0-2.933l1.918-.677s-.564.226.112 1.579l2.256 4.513h-3.157c-3.61 2.031-6.656 6.431-6.656 6.431-1.128-4.061-3.835-6.092-3.835-6.092l-3.273-.451c.863-.617 1.18-1.396 1.297-1.98-.652.511-1.347.884-2.046 1.214-1.116.526-3.088.264-3.416.854-.329.591-1.577 5.846-1.774 7.357-.113.874-.558 3.329-.961 5.423-.497-4.446-1.027-8.838-1.207-9.52-.367-1.397-1.249-2.791-2.351-3.085-1.101-.294-5.729-2.351-6.316-2.646-.587-.292-1.763-2.202-1.763-2.202l-.012-.048c-.097.795-.355 2.967-.355 3.524 0 .685-.294 6.071-.294 7.638s-.293 4.407-.392 3.329c-.098-1.077-1.86-11.652-1.958-11.947l-.098-2.252 1.896-2.133c-.143-.107-.301-.204-.478-.285.033-.511.046-1.116.046-1.116s.979-2.389 1.051-2.819c.072-.431.751-.417 1.013-1.091.262-.674.308-2.774.308-2.774s.111-2.222.073-3.335c-.036-1.114-1.055-2.619-1.47-3.37-.417-.751-1.385-1.699-2.733-2.161-1.35-.462-3.871-1.075-5.575.557 0 0-1.989.512-2.976 3.209-.987 2.699-.233 5.002-.12 5.437l.17.684s.318 2.417.74 2.921c.42.504.922.206.922.206s.57 2.176.873 2.491c.301.315.056.249.056.249s.133.63.169 1.263l-.088.051c1.172 1.027 3.185 2.508 3.185 2.508s1.175 1.665 1.175 1.958c0 .294-.98 13.22-.98 13.22s-1.566-6.659-1.762-7.345c-.196-.685-2.057-7.344-2.154-8.127-.071-.563-.244-1.07-.444-1.386l-.143.21-1.469 1.91s-2.351.882-3.085 1.027c-.734.148-3.819.442-4.26 1.177-.44.735-2.351 4.994-2.644 6.757-.294 1.763-1.322 8.372-1.322 8.372s-.441 2.643-.588 3.085c-.147.44-.441 8.227-.587 8.813-.148.588-.881 9.694-.881 10.429l-.294 3.23c.587-.293.587 1.176.587 1.176l.515-.074s0 2.572-.147 2.864c-.147.294-.147.881 0 1.103.147.221 1.175 2.277 1.469 2.569.294.295.587.956 1.028 1.03.441.072 2.645.734 2.645.734s.148 5.215.201 7.619c2.953 2.211 6.166 4.09 9.574 5.611.136-1.295.258-2.416.287-2.678.073-.661.881-6.074 1.101-6.44.221-.366 1.47-4.553 1.616-5.067.146-.514.294-1.689.514-1.322.22.367.074 1.615.147 2.203.073.588.514 2.719.733 3.525.221.809.588 5.119.588 6.293 0 1.176.808 3.086.881 3.82.022.221.078.963.147 1.902 3.071.918 6.263 1.552 9.551 1.865.284-6.148.858-17.216.805-17.699l-.075-.662s1.03.146 1.249.146c.22 0 2.277-.22 2.497-.367.221-.147.734-1.102.88-1.543.147-.44.809-1.615.955-1.91.147-.293 0-1.396-.072-1.615-.073-.221-.073-1.616-.073-1.616.44.073.587-.515.587-.515l.441-.367s-.131-4.049-.26-8.232c.203.736.35 1.317.367 1.553.059.756.373 2.691.946 3.629-.155.973-.377 2.152-.377 2.152l.683.262c.137 3.847.455 11.875.85 14.584.525 3.613.854 9.394.854 9.394s4.402 1.116 5.849.854l.091.86c6.403-1.495 12.331-4.218 17.526-7.911.112-4.459.25-10.125.25-11.211 0-1.84-.789-7.619-.789-7.619l1.248-.593s-.525-1.772-1.184-3.351c-.656-1.576-1.182-5.387-1.182-5.387s2.89-1.576 3.547-2.166c.656-.592 2.563-2.301 2.496-3.416-.065-1.117-.461-9.591-.592-10.708-.127-1.109-.064-2.489-.261-3.211zm-63.259 36.938c0 .489-.587-.882-.587-.882v-1.174l.587-.59v2.646zm3.329-24.384c-.097.783-.88 4.309-.979 4.798-.099.489-.979 3.917-.979 3.622 0-.293-.098-2.055-.098-2.74s.098-1.176.098-1.861.293-1.763.391-2.351c.099-.589.49-2.448.49-2.742 0-.295.293-1.665.197-2.252-.098-.587.587-1.862.587-1.862s.392 4.604.293 5.388zm24.091 6.855c-.099.392 0 3.917 0 4.603s-.196 2.742-.196 3.035-.392-2.938-.392-3.722c0-.784-.294-2.155-.294-2.155l.392.196s-.49-3.623-.685-4.407c-.196-.783-.294-2.644-.294-3.23v-1.762c0-.687.196-2.938.294-3.43.098-.49.196 1.078.196 1.078s.196 2.84.293 3.329c.099.487.099 1.86.197 2.153.098.295.294 1.959.294 2.254-.001.294.293 1.666.195 2.058zm2.252 15.667c-.195.295-.587 1.273-.587 1.273l-.588-.293s.49-1.371.392-1.666c-.098-.293 0-.781.294-.588.294.198.685.98.489 1.274zm7.182-20.231c-.131.656-.525 1.838-.593 1.576-.065-.264-.395-1.773-.395-2.232 0-.46 0-1.053-.132-1.248-.131-.197.395-1.314.593-2.168.196-.854.459.329.459.723.001-.002.198 2.692.068 3.349zm18.787-.461s-1.512-2.562-1.643-3.086l-.066-1.117c-.132-.525 1.84-3.679 1.905-4.204.065-.525.524-.854.524-.854s.724 1.971.724 2.496c0 .525.459 2.432.459 2.432s-.459.92.198 1.313l-2.101 3.02z"/></svg>