<svg xmlns="http://www.w3.org/2000/svg" width="100" height="100"><circle fill="#B2B2B2" cx="50" cy="50" r="50"/><path d="M95.893 61.754c0-2.434-11.936-7.411-16.842-8.021-4.906-.611-12.258-8.479-25.438-8.479-.886 0-1.762.246-2.625.246h-48.771c-.092.991-.148 1.992-.179 3h.962c.829 0 1.5.671 1.5 1.5v3c0 .828-.671 1.5-1.5 1.5h-.783c.321 3.452 1.004 6.799 2.018 10h72.16c11.234 0 19.498.049 19.498-2.746zm-84.393-8.754c0 .828-.671 1.5-1.5 1.5h-2c-.829 0-1.5-.672-1.5-1.5v-3c0-.829.671-1.5 1.5-1.5h2c.829 0 1.5.671 1.5 1.5v3zm7 0c0 .828-.671 1.5-1.5 1.5h-2c-.829 0-1.5-.672-1.5-1.5v-3c0-.829.671-1.5 1.5-1.5h2c.829 0 1.5.671 1.5 1.5v3zm7 0c0 .828-.671 1.5-1.5 1.5h-2c-.829 0-1.5-.672-1.5-1.5v-3c0-.829.671-1.5 1.5-1.5h2c.829 0 1.5.671 1.5 1.5v3zm6 0c0 .828-.671 1.5-1.5 1.5h-2c-.829 0-1.5-.672-1.5-1.5v-3c0-.829.671-1.5 1.5-1.5h2c.829 0 1.5.671 1.5 1.5v3zm7 0c0 .828-.671 1.5-1.5 1.5h-2c-.829 0-1.5-.672-1.5-1.5v-3c0-.829.671-1.5 1.5-1.5h2c.829 0 1.5.671 1.5 1.5v3zm7 0c0 .828-.671 1.5-1.5 1.5h-2c-.829 0-1.5-.672-1.5-1.5v-3c0-.829.671-1.5 1.5-1.5h2c.829 0 1.5.671 1.5 1.5v3zm7 0c0 .828-.672 1.5-1.5 1.5h-2c-.829 0-1.5-.672-1.5-1.5v-3c0-.829.671-1.5 1.5-1.5h2c.828 0 1.5.671 1.5 1.5v3zm8.217-2.016c-3.385-.691-4.751-1.484-4.751-1.484h9.612l5.244 2.273s-6.72-.099-10.105-.789z"/></svg>