<svg xmlns="http://www.w3.org/2000/svg" width="100" height="100"><circle fill="#B2B2B2" cx="50" cy="50" r="50"/><path d="M68.8 86h-11.2s-10.1-21.5-11.1-22.3l-11.1-2.1 2 3.8-2 1 10.3 19.6h-12.7l-2.4 2h40.6l-2.4-2zM61.7 15.9c-6.4 3.1-7.7 4-7.7 4-4.3 3-4 2.7-9.7 6.6-6.4 4.3-7.8 3.5-9.2 4.9-1.4 1.4-.1 0-1.8 2.2-1.2 1.6-1.4 11.2-2 13.7-.6 2.4-2.5 6.1-1.7 11 .6 3.9-.9 4.6.5 6.2 1.5 1.6 3.3-1.1 3.3-1.1s1.8-3.1 1.6-3.6c-.2-.5 1.5 1.5 4.2-1.3 2.6-2.8 2-.8 3.7-3.7l2.6-2.6s5.1-.8 4.7-3.2c1.4-1.2.9.1 3.9-4.5 3-4.7.7-.3 7.7-6.8 7-6.4 3.8-7.3 8.5-9 .9-.3 1.6-.6 2.3-.9v-16.8c-1 .3-5.2 2.2-10.9 4.9zm-26.2 36.1c.3-.7 1.3-4.9 1.3-4.9l1.1 1.5-2.4 3.4zM75 90h-1v-1h1v1zm-2 0h-1v-1h1v1zm-2 0h-1v-1h1v1zm-2 0h-1v-1h1v1zm-2 0h-1v-1h1v1zm-2 0h-1v-1h1v1zm-2 0h-1v-1h1v1zm-2 0h-1v-1h1v1zm-2 0h-1v-1h1v1zm-2 0h-1v-1h1v1zm-2 0h-1v-1h1v1zm-2 0h-1v-1h1v1zm-2 0h-1v-1h1v1zm-2 0h-1v-1h1v1zm-2 0h-1v-1h1v1zm-2 0h-1v-1h1v1zm-2 0h-1v-1h1v1zm-2 0h-1v-1h1v1zm-2 0h-1v-1h1v1zm-2 0h-1v-1h1v1zm-2 0h-1v-1h1v1zm-2 0h-1v-1h1v1zm-2 0h-1v-1h1v1zm-2 0h-1v-1h1v1zm-2 0h-1v-1h1v1zM25.9 89.1l-.6-.8.8-.6.6.8-.8.6zm49.1-.1l-.8-.7.7-.7.8.7-.7.7zm-47.5-1.1l-.6-.8.8-.6.6.8-.8.6zm46-.3l-.8-.7.7-.7.8.7-.7.7zm-44.3-.9l-.6-.8.8-.6.6.8-.8.6zm42.8-.5l-.8-.7.7-.7.8.7-.7.7zm-41.1-.8l-.6-.8.7-.5c.1-.1.2-.1.3-.1h.1v.7l.2.2-.7.5zm39.8-.4h-1v-1h1v1zm-2 0h-1v-1h1v1zm-2.1 0h-1v-1h1v1zm-2.1 0h-1v-1h1v1zm-2 0h-1v-1h1v1zm-2.1 0h-1v-1h1v1zm-2.1 0h-1v-1h1v1zm-2 0h-1v-1h1v1zm-2.1 0h-1v-1h1v1zm-2.1 0h-1v-1h1v1zm-2.1 0h-1v-1h1v1zm-2 0h-1v-1h1v1zm-2.1 0h-1v-1h1v1zm-2.1 0h-1v-1h1v1zm-2 0h-1v-1h1v1zm-2.1 0h-1v-1h1v1zm-2.1 0h-1v-1h1v1zm-2 0h-1v-1h1v1zm-2.1 0h-1v-1h1v1z"/></svg>