<?xml version="1.0" encoding="utf-8"?>
<!-- Generator: Adobe Illustrator 15.0.0, SVG Export Plug-In . SVG Version: 6.00 Build 0)  -->
<!DOCTYPE svg PUBLIC "-//W3C//DTD SVG 1.1//EN" "http://www.w3.org/Graphics/SVG/1.1/DTD/svg11.dtd">
<svg version="1.1" id="Ebene_1" xmlns="http://www.w3.org/2000/svg" xmlns:xlink="http://www.w3.org/1999/xlink" x="0px" y="0px"
	 width="100px" height="100px" viewBox="0 0 100 100" enable-background="new 0 0 100 100" xml:space="preserve">
<circle fill="#B2B2B2" cx="50" cy="50" r="50"/>
<g>
	<g>
		<g>
			<path fill="none" stroke="#231815" stroke-miterlimit="10" d="M67.14,81.554c-9.534,1.595-18.263-1.829-19.498-7.646
				c-1.233-5.816,5.494-11.823,15.028-13.417c9.529-1.593,18.259,1.833,19.493,7.647C83.398,73.955,76.67,79.962,67.14,81.554z"/>
			<path fill="none" stroke="#231815" stroke-miterlimit="10" d="M66.676,79.382c-7.564,1.266-14.495-1.452-15.474-6.07
				c-0.98-4.616,4.361-9.385,11.926-10.648c7.567-1.266,14.496,1.453,15.475,6.069C79.583,73.352,74.244,78.118,66.676,79.382z"/>
			<path fill="none" stroke="#231815" stroke-miterlimit="10" d="M66.223,77.243c-5.629,0.941-10.785-1.08-11.514-4.518
				c-0.729-3.436,3.246-6.983,8.873-7.923c5.631-0.941,10.787,1.081,11.516,4.515C75.827,72.753,71.854,76.304,66.223,77.243z"/>
			<path fill="none" stroke="#231815" stroke-miterlimit="10" d="M65.765,75.075c-3.669,0.612-7.03-0.704-7.507-2.942
				c-0.474-2.239,2.117-4.55,5.787-5.163c3.666-0.613,7.021,0.704,7.497,2.942C72.02,72.151,69.432,74.462,65.765,75.075z"/>
			<path fill="#231815" stroke="#231815" stroke-miterlimit="10" d="M65.133,72.108c-0.982,0.165-1.883-0.189-2.01-0.789
				s0.566-1.219,1.547-1.383c0.986-0.164,1.885,0.189,2.014,0.787C66.811,71.325,66.117,71.944,65.133,72.108z"/>
		</g>
		<g>
			<line fill="none" stroke="#231815" stroke-miterlimit="10" x1="63.083" y1="71.396" x2="47.765" y2="73.956"/>
			<line fill="none" stroke="#231815" stroke-miterlimit="10" x1="66.697" y1="70.792" x2="82.284" y2="68.187"/>
			<line fill="none" stroke="#231815" stroke-miterlimit="10" x1="64.707" y1="70.101" x2="62.625" y2="60.292"/>
			<line fill="none" stroke="#231815" stroke-miterlimit="10" x1="65.133" y1="72.108" x2="67.137" y2="81.554"/>
		</g>
		<g>
			<line fill="none" stroke="#231815" stroke-miterlimit="10" x1="63.877" y1="72.032" x2="54.448" y2="80.451"/>
			<line fill="none" stroke="#231815" stroke-miterlimit="10" x1="66.103" y1="70.046" x2="75.695" y2="61.479"/>
			<line fill="none" stroke="#231815" stroke-miterlimit="10" x1="63.713" y1="70.519" x2="50.878" y2="65.481"/>
			<line fill="none" stroke="#231815" stroke-miterlimit="10" x1="66.34" y1="71.548" x2="78.705" y2="76.398"/>
		</g>
	</g>
	<path fill="none" stroke="#231815" stroke-miterlimit="10" d="M67.424,82.639c-10.611,1.774-20.326-2.037-21.7-8.513
		c-1.375-6.475,6.113-13.162,16.725-14.934c10.61-1.775,20.327,2.036,21.7,8.512C85.526,74.18,78.035,80.865,67.424,82.639z"/>
</g>
<polygon points="47.254,20.275 47.254,31.666 32.609,20.275 32.609,31.666 17.963,20.275 17.963,51.891 61.9,51.891 61.9,31.666 "/>
</svg>
