<?xml version="1.0" encoding="utf-8"?>
<!-- Generator: Adobe Illustrator 15.0.0, SVG Export Plug-In . SVG Version: 6.00 Build 0)  -->
<!DOCTYPE svg PUBLIC "-//W3C//DTD SVG 1.1//EN" "http://www.w3.org/Graphics/SVG/1.1/DTD/svg11.dtd">
<svg version="1.1" id="Ebene_1" xmlns="http://www.w3.org/2000/svg" xmlns:xlink="http://www.w3.org/1999/xlink" x="0px" y="0px"
	 width="100px" height="100px" viewBox="0 0 100 100" enable-background="new 0 0 100 100" xml:space="preserve">
<circle fill="#B2B2B2" cx="50" cy="50" r="50"/>
<path fill="#3E3333" d="M87.826,60.535c0.63-7.164-1.353-10.863-1.431-11.818c-0.066-0.786-0.24-2.101-0.748-5.655
	c-0.666-4.658-4.325-8.401-5.325-9.315c-0.997-0.914-4.454-3.505-5.74-5.239c-1.413-1.913-2.452-2.321-3.408-2.828
	c-0.59-0.312-1.328-0.655-2.149-1.068l0.319-0.512c0.061-0.097,0.031-0.225-0.068-0.286c-0.096-0.061-0.225-0.03-0.285,0.066
	l-0.337,0.543c-1.051-0.543-2.219-1.204-3.387-2.069c-2.032-1.506-4.325-2.578-5.736-2.828c-1.068-0.188-4.16-0.333-6.239-0.915
	c-1.951-0.546-7.154-1.83-9.981-1.249c-2.164,0.444-6.559,2.301-8.511,3.148c-0.038-0.016-0.081-0.018-0.121-0.001l-1.63,0.625
	c-0.086,0.032-0.129,0.129-0.097,0.214c0.035,0.086,0.128,0.128,0.214,0.096l0.862-0.33c1.442,1.47-2.771,3.602-5.224,4.857
	c-0.038-0.017-0.081-0.019-0.124-0.003l-1.635,0.612c-0.084,0.031-0.128,0.126-0.097,0.213c0.031,0.087,0.129,0.13,0.215,0.097
	l0.815-0.305c0.641,0.449,4.399,1.632,5.101,4.001c0.628,2.116-0.002,5.192-0.493,6.583l-0.958,0.716
	c-0.074,0.055-0.09,0.158-0.034,0.232s0.159,0.089,0.232,0.034l0.927-0.691c1.201,0.259,6.335,1.487,8.728,4.022
	c2.63,2.787,4.037,6.578,4.087,7.829l-0.714,0.773c-0.062,0.069-0.058,0.174,0.012,0.235c0.068,0.061,0.172,0.059,0.236-0.01
	l0.703-0.765c0.757-0.004,3.168,0.051,5.826,0.795L41.604,66.219c-0.133-0.037-0.249-0.039-0.301,0.021
	c-0.092,0.1-2.144,3.369-2.681,4.211c-0.535,0.844-1.813,1.156-2.678,0.662c-0.867-0.5-0.638-1.537-0.419-1.881
	c0.22-0.344,0.634-0.996,0.974-1.529c0.342-0.537-0.698-0.93-0.844-0.703c-0.145,0.232-0.422,0.752-0.998,1.568
	c-0.577,0.82-0.89,2.5,0.856,3.563c1.746,1.055,3.323,0.014,4.079-1.172c0.756-1.188,2.222-3.582,2.56-4.02
	c0.083-0.109,0.068-0.229,0.001-0.34l10.14-16.061c1.419,0.458,2.877,1.121,4.16,2.088c3.498,2.641,5.671,6.125,6.156,7.404
	l-0.394,0.998c-0.034,0.088,0.008,0.184,0.094,0.219c0.085,0.031,0.182-0.012,0.215-0.096l0.394-0.996
	c0.958-0.488,4.836-2.268,8.589-1.041c3.708,1.211,6.193,4.318,6.825,5.178l-0.025,1.096c-0.002,0.094,0.071,0.17,0.163,0.172
	c0.093,0,0.169-0.07,0.171-0.162l0.03-1.293c0.511-1.141,2.105-4.248,4.397-4.576c1.993-0.285,3.982,1.377,4.516,1.863l-0.024,1.039
	c-0.002,0.092,0.071,0.168,0.162,0.17c0.094,0,0.168-0.07,0.17-0.162l0.043-1.748C87.936,60.619,87.889,60.561,87.826,60.535z"/>
</svg>
