<?xml version="1.0" encoding="UTF-8" standalone="no"?>
<!-- Generator: Adobe Illustrator 15.0.2, SVG Export Plug-In . SVG Version: 6.00 Build 0)  -->

<svg
   xmlns:dc="http://purl.org/dc/elements/1.1/"
   xmlns:cc="http://creativecommons.org/ns#"
   xmlns:rdf="http://www.w3.org/1999/02/22-rdf-syntax-ns#"
   xmlns:svg="http://www.w3.org/2000/svg"
   xmlns="http://www.w3.org/2000/svg"
   xmlns:sodipodi="http://sodipodi.sourceforge.net/DTD/sodipodi-0.dtd"
   xmlns:inkscape="http://www.inkscape.org/namespaces/inkscape"
   version="1.1"
   id="Ebene_1"
   x="0px"
   y="0px"
   width="100px"
   height="100px"
   viewBox="0 0 100 100"
   enable-background="new 0 0 100 100"
   xml:space="preserve"
   inkscape:version="0.48.4 r9939"
   sodipodi:docname="admin-health.svg"><metadata
     id="metadata3302"><rdf:RDF><cc:Work
         rdf:about=""><dc:format>image/svg+xml</dc:format><dc:type
           rdf:resource="http://purl.org/dc/dcmitype/StillImage" /><dc:title></dc:title></cc:Work></rdf:RDF></metadata><defs
     id="defs3300" /><sodipodi:namedview
     pagecolor="#ffffff"
     bordercolor="#666666"
     borderopacity="1"
     objecttolerance="10"
     gridtolerance="10"
     guidetolerance="10"
     inkscape:pageopacity="0"
     inkscape:pageshadow="2"
     inkscape:window-width="1366"
     inkscape:window-height="744"
     id="namedview3298"
     showgrid="false"
     inkscape:zoom="4.72"
     inkscape:cx="47.561404"
     inkscape:cy="50.749644"
     inkscape:window-x="0"
     inkscape:window-y="24"
     inkscape:window-maximized="1"
     inkscape:current-layer="Ebene_1" /><circle
     fill="#B2B2B2"
     cx="50"
     cy="50"
     r="50"
     id="circle3278" /><path
     d="M 24.0625 18.125 L 24.0625 83.75 L 72 83.875 C 72 83.875 71.99025 83.33525 72.28125 83.28125 C 72.57425 83.22725 74.53125 82.84725 74.53125 82.15625 L 74.53125 42.25 C 74.53125 42.25 74.485 41.04725 75.125 40.78125 C 75.762 40.51525 78 40.0315 78 38.3125 L 78 31.28125 L 78 26.84375 L 78 22.0625 C 78 20.3415 75.762 19.891 75.125 19.625 C 74.485 19.359 74.53125 18.125 74.53125 18.125 L 67.1875 18.125 C 67.3035 18.437 67.31325 18.75625 67.28125 18.90625 L 67.78125 25.75 L 67.9375 31.40625 L 67.90625 32.375 C 67.90625 32.375 67.81 33.7445 66.625 34.0625 C 65.586 34.3965 65.09375 33.625 65.09375 33.625 C 65.09375 33.625 64.78625 33.2565 64.78125 32.6875 C 64.75025 31.9725 64.5 22.90625 64.5 22.90625 L 64.4375 21.65625 C 64.4375 21.65625 64.735 21.39225 64.75 21.53125 C 64.819 21.79625 64.8125 23.21875 64.8125 23.21875 L 65 29.21875 L 65.09375 32.5625 C 65.09375 32.5625 65.26825 33.64075 65.78125 33.71875 C 66.23125 33.93075 66.897 33.7825 67.25 33.3125 C 67.55 32.8245 67.59375 32.53125 67.59375 32.53125 L 67.59375 29.8125 L 67.46875 27.09375 L 67.25 23.375 L 66.96875 19.34375 C 66.96875 19.34375 67.018 18.612 66.75 18.125 L 65.28125 18.125 L 64.96875 18.125 L 24.0625 18.125 z M 46.28125 39.5625 L 52.875 46.0625 L 53.3125 45.5625 L 57.46875 50.15625 L 65.53125 50.15625 L 65.53125 47.65625 L 65.4375 47.53125 L 65.4375 46.75 L 65.8125 46.75 L 65.8125 46.3125 L 66.65625 46.3125 L 66.65625 46.78125 L 67.125 46.78125 L 67.125 47.5625 L 67.03125 47.625 L 67.03125 50.28125 L 67.125 50.28125 L 67.90625 56.4375 L 68.03125 57.40625 L 66.9375 57.40625 L 66.9375 64.59375 L 67.6875 64.875 L 68.0625 64.875 L 68.0625 65.125 L 67.8125 65.3125 L 66.9375 65.28125 L 66.90625 65.59375 L 66.71875 65.59375 L 66.71875 66.1875 L 66.71875 75.71875 L 66.1875 75.71875 L 66.1875 75.9375 L 65.96875 75.9375 L 65.96875 76.96875 L 57.78125 76.96875 L 57.78125 77.25 L 57.90625 77.375 L 57.90625 77.59375 L 57.78125 77.59375 L 57.78125 77.96875 L 57.96875 77.96875 L 57.96875 78.21875 L 46.125 78.21875 L 46.125 77.96875 L 46.28125 77.96875 L 46.28125 77.59375 L 46.15625 77.59375 L 46.15625 77.375 L 46.3125 77.25 L 46.3125 76.96875 L 38.96875 76.96875 L 38.96875 76.625 L 31.65625 76.625 L 31.65625 75.3125 L 31.5 75.3125 L 31.5 74.46875 L 31.6875 74.46875 L 31.6875 73.71875 L 31.78125 73.71875 L 31.78125 66.71875 L 31.65625 66.59375 L 31.65625 66.125 L 30.21875 66.125 L 30.21875 65.59375 L 30.03125 65.59375 L 30.03125 65.28125 L 29.53125 65.25 L 29.40625 65.15625 L 29.40625 64.875 L 34.09375 63.9375 L 34.09375 56.1875 L 32 55.0625 L 31.9375 54.78125 L 32.34375 54.75 L 46.28125 39.5625 z M 46.90625 57.5 L 46.90625 62.8125 L 50.8125 62.8125 L 50.8125 57.5 L 46.90625 57.5 z M 37.28125 57.65625 L 37.28125 62.53125 L 40.90625 62.53125 L 40.90625 57.65625 L 37.28125 57.65625 z M 32.65625 66.28125 L 32.65625 66.65625 L 32.5 66.84375 L 32.5 71.40625 L 34.53125 71.40625 L 34.53125 70.6875 L 34.28125 70.6875 L 34.28125 66.28125 L 32.65625 66.28125 z M 46.78125 67.15625 L 46.78125 71.625 L 50.53125 71.625 L 50.53125 67.15625 L 46.78125 67.15625 z M 37.40625 67.28125 L 37.40625 71.75 L 40.90625 71.75 L 40.90625 67.28125 L 37.40625 67.28125 z "
     id="path3294" /></svg>