<?xml version="1.0" encoding="UTF-8" standalone="no"?>
<!-- Generator: Adobe Illustrator 15.0.0, SVG Export Plug-In . SVG Version: 6.00 Build 0)  -->

<svg
   xmlns:i="&amp;ns_ai;"
   xmlns:dc="http://purl.org/dc/elements/1.1/"
   xmlns:cc="http://creativecommons.org/ns#"
   xmlns:rdf="http://www.w3.org/1999/02/22-rdf-syntax-ns#"
   xmlns:svg="http://www.w3.org/2000/svg"
   xmlns="http://www.w3.org/2000/svg"
   xmlns:sodipodi="http://sodipodi.sourceforge.net/DTD/sodipodi-0.dtd"
   xmlns:inkscape="http://www.inkscape.org/namespaces/inkscape"
   version="1.1"
   id="Ebene_1"
   x="0px"
   y="0px"
   width="100px"
   height="100px"
   viewBox="0 0 100 100"
   enable-background="new 0 0 100 100"
   xml:space="preserve"
   inkscape:version="0.48.4 r9939"
   sodipodi:docname="kultura_religija.svg"><metadata
     id="metadata27"><rdf:RDF><cc:Work
         rdf:about=""><dc:format>image/svg+xml</dc:format><dc:type
           rdf:resource="http://purl.org/dc/dcmitype/StillImage" /></cc:Work></rdf:RDF></metadata><defs
     id="defs25" /><sodipodi:namedview
     pagecolor="#ffffff"
     bordercolor="#666666"
     borderopacity="1"
     objecttolerance="10"
     gridtolerance="10"
     guidetolerance="10"
     inkscape:pageopacity="0"
     inkscape:pageshadow="2"
     inkscape:window-width="1366"
     inkscape:window-height="744"
     id="namedview23"
     showgrid="false"
     inkscape:zoom="2.36"
     inkscape:cx="50"
     inkscape:cy="50"
     inkscape:window-x="0"
     inkscape:window-y="24"
     inkscape:window-maximized="1"
     inkscape:current-layer="Ebene_1" /><switch
     id="switch3"><g
       i:extraneous="self"
       id="g7"><circle
         fill="#B2B2B2"
         cx="50"
         cy="50"
         r="50"
         id="circle9" /><path
         fill="none"
         d="M65.897,30.772l-4.915,3.933l-3.748-4.238l-4.718,3.741l-3.614-4.437l-4.039,4.038    c-0.144,0.144-0.144,0.376,0,0.52c0.142,0.143,0.375,0.143,0.519,0l3.463-3.462l3.558,4.368l4.74-3.759l3.75,4.24l4.867-3.894    l3.034,4.096c0.071,0.097,0.182,0.148,0.295,0.148c0.076,0,0.153-0.023,0.219-0.072c0.162-0.121,0.197-0.352,0.076-0.515    L65.897,30.772z"
         id="path11" /><g
         id="g13"><path
           d="M69.639,21.229c-2.57-3.062-7.105-8.209-7.105-8.209s-1.212-1.83-4.168-1.656C55.116,12.9,44.134,22.186,43.457,22.638     c-0.033,0.022-0.066,0.173-0.096,0.437l27.791,1.459C70.931,23.378,70.486,22.238,69.639,21.229z"
           id="path15" /><path
           d="M24.031,41.925c0.857,6.861,2.45,42.514,2.45,42.514s12.206,1.762,13.639,1.836c0.01-5.564,0.108-53.59,0.682-60.636     l-16.779,10.72C23.782,37.412,23.68,39.12,24.031,41.925z"
           id="path17" /><path
           d="M56.254,11.268c-1.262,0.075-2.836,0.555-4.779,1.801c-6.494,4.166-15.437,9.925-15.437,9.925s-2.205,1.225-4.657,3.675     c-2.45,2.45-7.009,6.267-7.357,7.789l16.779-10.72c0.042-0.528,1.839-2.223,1.887-2.255     C43.367,21.031,53.006,12.804,56.254,11.268z"
           id="path19" /><path
           d="M71.151,26.435l-28.196-1.396c-0.608,5.213-0.713,55.373-0.722,61.067c0.03,0.001,0.063,0.003,0.084,0.003     c0.98,0,24.871-1.346,24.871-1.346s3.922-49.87,3.922-52.076C71.11,31.208,71.603,28.791,71.151,26.435z M69.31,36.996     c-0.065,0.048-0.143,0.072-0.219,0.072c-0.113,0-0.224-0.051-0.295-0.148l-3.034-4.096l-4.867,3.894l-3.75-4.24l-4.74,3.759     l-3.558-4.368l-3.463,3.462c-0.144,0.143-0.377,0.143-0.519,0c-0.144-0.144-0.144-1.376,0-1.52l4.039-4.038l3.614,4.437     l4.718-3.741l3.748,4.238l4.915-3.933l3.488,4.708C69.507,35.644,69.472,36.875,69.31,36.996z M69.31,33.23     c-0.065,0.048-0.143,0.072-0.219,0.072c-0.113,0-0.224-0.051-0.295-0.148l-3.034-4.095l-4.867,3.893l-3.75-4.24l-4.74,3.759     l-3.558-4.368l-3.463,3.462c-0.144,0.143-0.377,0.143-0.519,0c-0.144-0.144-0.144-1.376,0-1.52l4.039-4.038l3.614,4.437     l4.718-3.741l3.748,4.238l4.915-3.933l3.488,4.708C69.507,31.879,69.472,33.109,69.31,33.23z"
           id="path21" /></g></g></switch></svg>