<?xml version="1.0" encoding="UTF-8" standalone="no"?>
<!-- Generator: Adobe Illustrator 15.0.2, SVG Export Plug-In . SVG Version: 6.00 Build 0)  -->

<svg
   xmlns:dc="http://purl.org/dc/elements/1.1/"
   xmlns:cc="http://creativecommons.org/ns#"
   xmlns:rdf="http://www.w3.org/1999/02/22-rdf-syntax-ns#"
   xmlns:svg="http://www.w3.org/2000/svg"
   xmlns="http://www.w3.org/2000/svg"
   xmlns:sodipodi="http://sodipodi.sourceforge.net/DTD/sodipodi-0.dtd"
   xmlns:inkscape="http://www.inkscape.org/namespaces/inkscape"
   version="1.1"
   id="Ebene_1"
   x="0px"
   y="0px"
   width="100px"
   height="100px"
   viewBox="0 0 100 100"
   enable-background="new 0 0 100 100"
   xml:space="preserve"
   inkscape:version="0.48.4 r9939"
   sodipodi:docname="order-safety.svg"><metadata
     id="metadata3437"><rdf:RDF><cc:Work
         rdf:about=""><dc:format>image/svg+xml</dc:format><dc:type
           rdf:resource="http://purl.org/dc/dcmitype/StillImage" /><dc:title></dc:title></cc:Work></rdf:RDF></metadata><defs
     id="defs3435" /><sodipodi:namedview
     pagecolor="#ffffff"
     bordercolor="#666666"
     borderopacity="1"
     objecttolerance="10"
     gridtolerance="10"
     guidetolerance="10"
     inkscape:pageopacity="0"
     inkscape:pageshadow="2"
     inkscape:window-width="640"
     inkscape:window-height="480"
     id="namedview3433"
     showgrid="false"
     inkscape:zoom="2.36"
     inkscape:cx="50"
     inkscape:cy="50"
     inkscape:window-x="0"
     inkscape:window-y="24"
     inkscape:window-maximized="0"
     inkscape:current-layer="Ebene_1" /><circle
     fill="#B2B2B2"
     cx="50"
     cy="50"
     r="50"
     id="circle3425" /><path
     inkscape:connector-curvature="0"
     id="path3431"
     d="M 52.062,33.979 H 51.874 V 33.674 H 51.758 L 51.748,30.377 C 51.748,30.377 51.758,30.063 51.424,29.58 50.345,28.03 48,28.288 47.097,28.571 46.193,28.854 45.731,29.611 45.731,29.611 L 45.574,29.506 C 45.574,29.506 45.563,29.401 45.563,29.35 45.563,29.296 45.636,29.244 45.636,29.244 45.636,29.244 45.5,28.919 45.479,28.814 45.458,28.709 45.185,28.415 45.111,28.384 45.038,28.353 44.986,28.079 44.986,28.079 L 44.954,28.406 44.366,28.143 C 44.366,28.143 43.977,27.86 43.809,27.702 43.641,27.544 43.022,27.303 43.022,27.303 L 42.749,26.968 C 42.749,26.968 42.98,26.674 42.812,26.569 42.644,26.464 42.78,26.286 42.78,26.286 42.78,26.286 42.917,26.181 42.917,25.824 42.917,25.468 42.791,25.236 42.644,25.131 42.497,25.026 42.612,24.953 42.612,24.953 43.63,24.743 44.271,23.892 44.408,23.756 44.544,23.619 44.491,23.504 44.491,23.504 42.885,21.918 41.53,21.656 41.824,21.625 42.118,21.593 42.318,21.477 42.307,21.373 42.297,21.268 42.045,21.079 42.045,21.079 41.509,20.648 40.27,16.941 38.653,15.734 36.963,14.472 34.883,14.768 33.266,15.608 31.649,16.447 30.851,18.874 30.851,18.874 30.851,18.874 30.777,18.884 30.672,19.294 30.567,19.704 30.488,21.331 30.488,21.331 30.488,21.331 30.43,21.415 30.394,21.504 30.357,21.594 30.394,21.641 30.394,21.641 30.394,21.641 29.937,22.203 29.937,22.313 29.937,22.423 30.194,22.439 30.194,22.439 L 31.459,22.502 V 26.928 L 31.334,27.001 C 31.334,27.001 31.313,27.222 31.323,27.337 31.334,27.453 31.438,27.463 31.438,27.463 H 31.669 C 31.669,27.463 31.511,27.631 31.406,27.684 31.301,27.736 31.112,27.935 31.091,27.967 31.07,27.998 31.007,28.092 31.007,28.092 L 30.902,28.009 30.672,28.187 30.262,27.788 30.137,27.862 30.042,27.841 C 30.042,27.841 29.706,28.114 29.685,28.146 29.664,28.178 29.685,28.293 29.685,28.293 L 29.591,28.325 29.37,28.513 C 29.308,28.545 29.172,28.679 29.181,28.859 29.191,29.08 29.286,29.269 30.032,30.099 30.777,30.928 30.998,30.97 31.229,31.023 31.46,31.075 31.754,30.54 31.754,30.54 31.754,30.54 31.754,30.54 31.786,30.593 31.818,30.645 31.944,30.698 31.944,30.698 31.944,30.698 31.965,30.781 31.996,30.834 32.028,30.887 32.143,30.908 32.143,30.908 32.143,30.908 31.996,31.055 31.849,31.202 31.702,31.349 31.45,31.79 31.45,31.79 31.45,31.79 31.335,32.095 31.24,32.242 31.146,32.389 30.431,33.397 30.431,33.397 30.431,33.397 30.001,33.838 29.707,34.374 29.413,34.909 29.571,35.109 29.571,35.109 29.571,35.109 28.983,35.539 28.773,35.96 28.563,36.379 28.595,36.811 28.595,36.811 L 27.944,38.207 C 27.944,38.207 27.944,38.207 27.661,38.27 27.377,38.332 27.283,38.658 27.283,38.7 27.283,38.742 27.21,38.825 27.095,38.972 26.979,39.119 26.948,39.445 26.906,39.466 26.864,39.487 26.717,39.676 26.696,39.749 26.675,39.823 26.318,40.086 26.171,40.191 26.024,40.295 25.93,40.485 25.93,40.485 L 25.675,40.5 24.982,40.899 C 24.982,40.899 24.909,40.888 24.793,40.888 24.677,40.888 24.53,40.93 24.53,40.93 L 24.288,40.616 C 24.288,40.616 24.13,40.5 23.962,40.468 23.795,40.437 23.637,40.489 23.637,40.489 L 23.29,40.195 C 23.29,40.195 22.965,40.216 22.786,40.237 22.607,40.258 22.576,40.447 22.576,40.447 22.576,40.447 22.46,40.384 22.397,40.342 22.335,40.3 22.23,40.342 22.23,40.342 22.23,40.342 21.946,40.458 21.883,40.605 21.82,40.752 21.977,40.878 21.977,40.878 21.977,40.878 22.155,41.087 22.103,41.129 22.051,41.171 21.904,41.15 21.904,41.15 L 21.263,40.972 V 40.887 H 21.389 V 40.824 L 21.168,40.782 21.158,40.687 C 21.158,40.687 20.874,40.582 20.843,40.582 20.812,40.582 20.728,40.708 20.728,40.708 H 20.287 L 20.224,40.866 C 20.224,40.866 19.762,40.74 19.741,40.676 19.72,40.614 19.132,40.404 19.132,40.404 19.132,40.404 18.45,40.257 18.387,40.184 18.324,40.11 18.261,40.046 18.261,40.046 18.261,40.046 17.053,39.741 16.969,39.721 16.885,39.7 16.885,39.857 16.885,39.857 L 16.791,40.183 C 16.791,40.183 16.728,40.162 16.623,40.087 16.519,40.014 16.235,39.657 16.15,39.542 16.067,39.426 15.793,39.29 15.846,39.352 15.899,39.415 15.395,40.728 15.301,41.012 15.206,41.296 15.091,41.642 15.091,41.642 L 15.5,41.61 C 15.5,41.61 15.941,41.463 16.162,41.401 16.383,41.338 16.393,41.474 16.393,41.474 16.393,41.474 16.288,41.748 16.288,41.842 16.288,41.937 16.383,41.989 16.383,41.989 L 17.58,42.356 17.832,42.293 C 17.832,42.293 18.63,42.566 18.84,42.608 19.05,42.65 19.218,42.545 19.218,42.545 L 20.131,42.87 20.036,43.333 C 20.036,43.333 20.246,43.427 20.288,43.427 20.33,43.427 20.414,43.26 20.414,43.26 L 21.37,43.649 21.276,44.111 21.885,44.3 21.895,44.404 22.567,44.572 22.609,44.436 C 22.609,44.436 22.903,44.498 23.124,44.551 23.345,44.603 23.408,44.593 23.408,44.593 L 23.702,44.331 C 23.702,44.331 23.618,44.94 24.153,45.707 24.689,46.473 25.392,46.515 25.939,46.462 26.484,46.41 26.999,45.538 26.999,45.538 L 27.188,45.559 C 27.188,45.559 27.262,45.633 27.335,45.654 27.408,45.675 27.661,45.486 27.661,45.486 27.661,45.486 27.734,45.56 27.776,45.58 27.818,45.601 27.923,45.402 27.923,45.402 L 28.165,45.308 29.173,45.655 28.847,47.02 C 28.847,47.02 28.512,48.553 28.501,49.508 28.49,50.465 28.648,51.862 29.299,52.836 29.949,53.815 31.084,53.95 31.084,53.95 L 31.116,54.298 C 31.116,54.298 30.937,55.148 30.937,55.21 30.937,55.274 31.063,55.441 31.063,55.441 31.063,55.441 31.011,55.673 30.916,55.767 30.821,55.862 30.905,56.24 30.905,56.24 30.905,56.24 30.696,56.461 30.549,56.744 30.402,57.027 30.129,57.572 30.129,57.572 30.129,57.572 29.919,58.339 29.898,58.476 29.877,58.613 29.909,58.664 30.276,58.853 30.644,59.042 31.106,59.126 31.106,59.126 31.106,59.126 31.096,58.632 31.138,58.338 31.18,58.044 31.474,57.582 31.474,57.582 31.474,57.582 31.495,57.949 31.506,58.076 31.516,58.203 31.411,58.863 31.411,58.863 31.411,58.863 31.306,58.874 31.211,58.968 31.117,59.063 31.242,59.136 31.242,59.136 L 31.389,59.24 C 31.389,59.24 31.399,59.871 31.431,60.103 31.462,60.332 31.347,60.532 31.263,60.648 31.179,60.763 31.2,60.858 31.2,61.026 31.2,61.193 31.305,61.236 31.305,61.236 L 31.2,61.508 C 31.2,61.508 30.759,62.978 30.444,64.259 30.129,65.54 30.067,67.893 30.088,68.313 30.109,68.732 30.256,69.341 30.318,69.406 30.381,69.468 30.444,70.205 30.465,70.434 30.486,70.665 30.906,71.148 30.906,71.148 30.906,71.148 30.508,72.241 30.444,72.66 30.382,73.08 30.297,73.94 30.297,73.94 30.297,73.94 30.297,75.264 30.235,75.81 30.172,76.357 30.318,77.05 30.318,77.05 30.318,77.05 30.57,78.855 30.465,78.982 30.36,79.108 30.297,79.319 30.297,79.319 L 30.402,80.262 C 30.402,80.262 30.297,80.389 29.814,80.724 29.331,81.061 29.373,81.439 29.457,82.027 29.541,82.615 29.772,82.887 29.772,82.887 L 29.415,83.453 C 29.415,83.453 29.373,83.58 29.205,83.644 29.037,83.706 27.609,84.61 27.609,84.61 27.609,84.61 26.895,84.734 26.391,84.839 25.887,84.944 25.446,85.303 25.403,85.532 25.361,85.763 25.676,86.246 25.676,86.246 25.676,86.246 27.671,86.457 29.94,86.498 32.208,86.54 36.66,86.185 36.66,86.185 V 85.848 C 36.66,85.848 37.225,85.873 37.752,85.891 42.855,86.058 44.031,85.427 44.031,85.427 V 85.049 C 44.031,85.049 44.682,82.676 44.745,81.983 44.808,81.29 44.283,80.872 44.283,80.872 44.283,80.872 44.451,80.43 44.514,80.24 44.577,80.052 44.577,78.876 44.577,78.876 44.577,78.876 47.098,75.412 47.979,72.534 48.86,69.656 49.007,66.989 48.525,63.608 48.041,60.226 46.402,56.941 46.402,56.941 46.402,56.941 46.434,55.994 46.402,55.427 46.371,54.861 46.55,53.097 46.612,52.466 46.675,51.837 46.991,50.672 46.991,50.672 L 47.064,50.178 C 47.064,50.178 47.252,50.377 47.494,50.377 47.735,50.377 47.842,50.029 47.842,50.029 L 48.345,50.018 48.481,49.883 H 49.152 C 49.152,49.883 49.152,49.883 49.184,49.913 49.215,49.945 49.531,49.934 49.531,49.934 L 49.72,49.891 C 49.72,49.891 49.803,50.449 50.224,50.375 50.643,50.301 50.748,49.502 50.623,49.052 50.497,48.6 50.161,48.517 49.94,48.621 49.719,48.726 49.635,49.117 49.635,49.117 L 49.519,48.99 49.225,48.999 49.004,49.146 V 48.379 H 49.508 V 47.875 L 49.75,47.686 V 47.287 C 51.745,46.742 51.787,45.083 51.787,45.083 V 36.703 L 51.903,36.682 51.891,36.492 C 51.891,36.492 52.05,36.461 52.08,36.377 52.111,36.293 52.05,36.156 52.007,36.041 51.965,35.925 52.101,35.936 52.101,35.936 V 34.213 H 52.059 V 33.979 z M 30.58,43.152 C 30.58,43.152 31.029,43.001 31.195,42.952 31.361,42.904 31.439,42.766 31.439,42.766 31.439,42.766 31.468,43.026 31.41,43.279 31.351,43.533 31.023,43.87 31.023,43.87 L 30.354,43.646 30.58,43.152 z M 29.91,43.323 C 29.91,43.323 29.91,43.504 29.852,43.518 29.794,43.533 29.559,43.411 29.559,43.411 L 29.91,43.323 z M 31.174,52.539 31.088,53.367 C 31.088,53.367 29.654,53.329 29.172,51.241 28.691,49.152 29.692,45.78 29.692,45.78 L 30.73,46.126 30.854,46.373 C 30.854,46.373 30.545,46.397 30.384,46.595 30.223,46.792 29.704,47.547 29.791,48.35 29.878,49.152 30.199,49.697 30.409,49.869 30.619,50.043 31.385,50.313 31.385,50.313 L 31.174,52.539 z M 31.471,49.893 C 31.471,49.893 30.804,49.599 30.568,49.413 30.334,49.228 30.259,48.709 30.247,48.128 30.235,47.547 30.742,46.929 30.742,46.929 30.89,46.917 30.903,47.226 30.903,47.263 30.903,47.299 30.866,47.337 30.829,47.399 30.792,47.46 30.841,47.585 30.841,47.585 L 31.57,49.709 31.471,49.893 z M 38.653,76.674 C 38.594,76.734 38.653,77.049 38.653,77.049 L 38.298,78.83 C 38.298,78.83 38.179,79.086 38.081,79.226 37.981,79.363 37.665,80.194 37.685,80.432 37.705,80.67 38.021,80.868 38.1,80.927 38.18,80.986 38.258,81.045 38.258,81.323 38.258,81.599 38.021,82.904 37.862,83.221 37.704,83.537 38.021,83.696 38.021,83.696 L 36.715,84.428 36.537,83.676 C 36.537,83.676 36.794,83.24 36.873,83.161 36.952,83.082 36.992,81.659 36.992,81.659 36.992,81.659 36.893,81.262 36.952,81.223 37.012,81.182 37.012,80.392 37.012,80.214 37.012,80.035 36.873,79.698 36.814,79.66 36.755,79.619 36.992,78.037 36.992,78.037 36.992,77.859 37.19,77.634 37.19,77.634 37.19,77.634 37.269,76.336 37.288,76.157 37.308,75.979 37.604,74.833 37.604,74.734 37.604,74.635 37.604,74.2 37.684,74.022 37.763,73.843 37.763,72.479 37.763,72.479 37.763,72.479 39.029,75.069 39.069,75.208 39.108,75.348 38.713,76.613 38.653,76.674 z M 46.521,65.031 46.41,65.093 46.509,66.031 46.583,66.056 C 46.583,66.056 46.632,68.082 46.521,68.862 46.41,69.64 45.884,72.837 45.144,73.877 45.144,73.877 45.049,73.42 45.129,73.309 45.207,73.2 45.271,72.743 45.238,72.695 45.207,72.648 45.176,72.318 45.176,72.27 45.176,72.223 45.207,71.893 45.081,71.813 44.955,71.734 44.86,71.388 44.923,71.214 44.986,71.042 45.081,70.931 45.112,70.789 45.143,70.647 45.237,69.135 45.049,68.474 44.861,67.813 44.325,66.789 44.325,66.789 44.325,66.789 44.199,66.411 44.263,66.332 44.325,66.252 44.829,65.261 44.877,64.474 44.924,63.686 44.735,61.984 44.735,61.984 L 44.971,61.45 44.186,60.721 C 44.186,60.721 44.395,60.09 44.334,59.916 44.272,59.744 44.346,59.484 44.346,59.484 44.346,59.484 44.494,59.15 44.494,59.05 44.494,58.951 44.507,58.865 44.507,58.865 H 44.865 C 44.865,58.865 45.507,60.348 45.755,61.214 46.002,62.078 46.213,62.906 46.213,62.906 L 46.274,63.683 46.521,65.031 z M 48.325,48.953 H 47.831 V 48.858 L 47.727,48.828 47.685,48.68 C 47.685,48.68 47.433,48.638 47.264,48.649 47.095,48.66 47.043,48.91 47.043,48.91 L 46.981,49.015 46.834,49.047 46.865,48.67 46.981,48.627 46.929,48.144 45.931,48.04 C 45.773,47.157 45.417,46.915 45.417,46.915 45.532,46.79 45.617,45.896 45.617,45.896 46.205,47.051 47.601,47.335 47.601,47.335 L 47.612,47.682 47.822,47.891 V 48.406 H 48.325 V 48.953 z" /><path
     d="M 76.924253,44.77786 C 77.176961,44.081834 78.443952,42.055856 78.253343,40.980336 78.062734,39.903955 78.189519,38.764611 78.189519,37.625268 78.189519,36.485925 78.189519,35.410406 78.063596,34.587595 L 77.95061,33.811358 C 77.95061,33.811358 77.377058,30.782309 76.546484,28.677845 75.716773,26.573381 74.076326,26.477645 73.039619,26.126613 72.003774,25.775582 70.394376,24.978645 70.394376,24.978645 L 69.947609,23.958325 69.355944,23.941938 C 69.355944,23.941938 69.308507,23.606431 69.468929,23.463258 69.628489,23.319223 69.723362,23.032878 69.834623,22.873318 69.946746,22.714621 69.866535,22.331678 69.866535,22.060857 69.866535,21.790037 69.866535,21.629614 69.962271,21.279445 70.058007,20.928414 70.089919,20.721417 70.13908,20.450597 70.186517,20.178914 70.153743,20.003829 70.169267,19.796833 70.184792,19.588974 70.393514,19.573449 70.440088,19.302629 70.488387,19.031808 70.440088,18.904161 70.440088,18.904161 70.440088,18.904161 70.328827,18.776513 70.265003,18.743738 70.200317,18.712689 70.282253,18.34527 70.282253,18.265921 70.282253,18.18571 70.282253,17.277513 70.282253,17.277513 L 70.297778,17.16539 70.44095,17.086041 C 70.44095,17.086041 70.887718,16.687573 71.078327,16.528013 71.269799,16.368453 71.621693,16.161457 71.621693,15.953598 71.621693,15.746602 71.397447,15.443869 70.951542,15.092838 70.505637,14.741806 70.090781,14.423549 69.165334,14.120817 68.241613,13.818084 67.93888,13.657662 66.552004,13.689574 65.165127,13.721486 64.590712,14.136341 63.681652,14.48651 62.772593,14.837542 61.895445,15.539605 61.656537,15.842337 61.417628,16.145932 61.417628,16.224418 61.608237,16.479714 61.799709,16.73501 62.78898,17.628545 62.78898,17.628545 H 62.94854 L 63.07705,18.967122 C 63.07705,18.967122 63.268522,18.839474 63.331483,19.030946 63.384095,19.188781 63.457406,19.582074 63.482418,19.66056 63.457406,19.579487 63.167611,19.620886 63.07705,19.98658 62.980452,20.369523 62.94854,20.848203 63.171923,21.102636 63.395307,21.357069 63.810163,21.931484 63.936948,22.251466 64.065458,22.569723 63.936948,24.196371 63.936948,24.451667 63.936948,24.706962 63.203835,25.248603 62.94854,25.344339 62.694107,25.440075 62.215427,25.663459 61.450403,25.950666 60.685378,26.237874 59.251065,26.651867 58.324756,27.066722 57.400171,27.480715 57.400171,27.576451 56.986178,28.310426 56.571323,29.044401 56.603235,30.254468 56.603235,30.669324 56.603235,31.084179 55.902897,33.156732 55.582915,34.081316 55.263795,35.005038 54.626418,37.84434 54.434947,38.54554 54.244337,39.246741 54.434947,40.331747 54.562594,41.352068 54.690242,42.372388 55.965858,44.093909 56.730883,45.178915 57.128488,45.742118 57.565768,46.448494 57.89265,47.048784 57.8892,47.070346 57.878851,47.08932 57.877988,47.111745 L 57.873676,47.23853 C 57.705491,47.39464 57.590781,47.618024 57.581293,47.877632 L 57.420008,52.413443 C 57.413109,52.608364 57.47607,52.781724 57.568356,52.930934 57.565768,53.024945 57.561456,53.119818 57.559731,53.213829 57.527819,54.585181 57.464858,57.29511 57.464858,57.29511 L 57.515744,57.339959 57.121588,68.444458 C 57.112101,68.712691 57.321685,68.936938 57.589056,68.946425 57.857289,68.956775 58.081535,68.747191 58.091022,68.478958 L 58.375642,60.455256 C 58.532615,60.95981 58.720636,61.56355 58.740474,61.759334 58.772386,62.078454 58.899171,63.831024 58.931083,64.853069 58.962995,65.874252 59.251065,68.743741 59.154467,68.998174 59.059593,69.252607 58.899171,70.497174 58.931083,70.848205 58.962995,71.199237 59.026819,71.804701 58.962995,72.856934 58.900033,73.910028 58.485178,82.295111 58.485178,82.295111 L 58.867259,82.421896 V 82.80484 C 58.867259,82.80484 58.452403,83.219695 58.102234,83.410305 57.752065,83.602639 57.145738,84.240016 56.88958,84.750607 56.634284,85.261198 56.763657,86.216832 56.763657,86.216832 56.763657,86.216832 57.592506,86.598913 58.19797,86.727423 58.80516,86.854209 60.047139,86.727423 60.461994,86.6636 60.87685,86.600638 61.802297,85.642417 62.088642,85.484582 62.375849,85.32416 62.758793,85.356072 62.949402,85.292248 63.140874,85.229286 63.39617,85.005903 63.491906,84.877392 63.586779,84.750607 63.395307,84.464262 63.395307,84.464262 63.395307,84.464262 63.269384,84.112368 63.269384,83.920034 63.269384,83.729424 63.108962,83.060136 63.108962,83.060136 L 62.949402,81.944942 63.459994,81.752608 C 63.459994,81.752608 63.39617,81.401576 63.39617,81.30584 63.39617,81.210104 63.683377,80.827161 63.748064,80.44508 63.811888,80.062999 63.938673,77.670464 64.002497,76.618232 64.065458,75.565138 63.842937,69.060273 63.842937,69.060273 L 64.57605,67.402576 64.702835,66.221834 C 64.702835,66.221834 65.021955,65.648281 65.085778,65.265337 65.149602,64.884119 65.659331,61.598912 65.819754,60.833025 65.979313,60.068 66.330345,59.622095 66.489042,59.654007 66.64774,59.685919 66.712426,64.916031 66.712426,64.916031 66.712426,64.916031 67.412764,66.254608 67.765521,66.829023 68.11569,67.403439 68.051866,71.262198 68.082915,72.919895 68.113965,74.576729 68.561595,81.529224 68.561595,81.529224 68.561595,81.529224 69.104098,82.389122 69.135147,82.613368 69.166197,82.836752 68.68838,83.060136 68.465859,83.092048 68.243337,83.12396 68.274387,83.6656 68.274387,83.6656 68.274387,83.6656 68.625419,83.697512 68.625419,84.048544 68.625419,84.39785 68.593507,85.132688 68.68838,85.387121 68.784116,85.642417 69.676788,85.579455 70.251203,85.738153 70.825619,85.89685 71.526819,86.50404 72.06846,86.694649 72.610963,86.885258 73.56746,86.949945 74.364396,86.981857 75.161333,87.012906 76.054005,86.726561 76.149741,86.694649 76.243752,86.661875 76.243752,86.184058 76.243752,86.184058 L 76.021231,86.024498 C 76.021231,86.024498 75.894445,85.705378 75.798709,85.258611 75.702974,84.810981 75.383854,84.685058 75.128558,84.270203 74.874125,83.85621 73.629559,82.995449 73.629559,82.995449 L 73.375125,82.452946 73.661471,82.006179 C 73.661471,82.006179 73.599372,81.430901 73.534685,80.794387 73.470861,80.15701 73.151742,77.413444 72.992182,75.915307 72.833485,74.41717 73.024094,67.625097 73.024094,66.413305 73.024094,65.200651 73.316476,64.20793 73.569185,63.700789 73.822755,63.19451 73.759794,62.245776 73.759794,62.245776 L 74.582605,57.053614 C 74.582605,57.053614 75.721948,56.674983 75.721948,56.10488 75.721948,55.534777 74.899137,49.204997 74.899137,48.760817 74.899137,48.318362 75.152708,47.811221 75.596025,47.367903 76.03848,46.930623 76.671545,45.474748 76.924253,44.77786 z"
     id="path3115"
     inkscape:connector-curvature="0"
     style="fill:#000000" /></svg>