<?xml version="1.0" encoding="UTF-8" standalone="no"?>
<!-- Generator: Adobe Illustrator 15.0.0, SVG Export Plug-In . SVG Version: 6.00 Build 0)  -->

<svg
   xmlns:i="&amp;ns_ai;"
   xmlns:dc="http://purl.org/dc/elements/1.1/"
   xmlns:cc="http://creativecommons.org/ns#"
   xmlns:rdf="http://www.w3.org/1999/02/22-rdf-syntax-ns#"
   xmlns:svg="http://www.w3.org/2000/svg"
   xmlns="http://www.w3.org/2000/svg"
   xmlns:sodipodi="http://sodipodi.sourceforge.net/DTD/sodipodi-0.dtd"
   xmlns:inkscape="http://www.inkscape.org/namespaces/inkscape"
   version="1.1"
   id="Ebene_1"
   x="0px"
   y="0px"
   width="100px"
   height="100px"
   viewBox="0 0 100 100"
   enable-background="new 0 0 100 100"
   xml:space="preserve"
   inkscape:version="0.48.4 r9939"
   sodipodi:docname="pio_mio.svg"><metadata
     id="metadata3634"><rdf:RDF><cc:Work
         rdf:about=""><dc:format>image/svg+xml</dc:format><dc:type
           rdf:resource="http://purl.org/dc/dcmitype/StillImage" /></cc:Work></rdf:RDF></metadata><defs
     id="defs3632" /><sodipodi:namedview
     pagecolor="#ffffff"
     bordercolor="#666666"
     borderopacity="1"
     objecttolerance="10"
     gridtolerance="10"
     guidetolerance="10"
     inkscape:pageopacity="0"
     inkscape:pageshadow="2"
     inkscape:window-width="1366"
     inkscape:window-height="744"
     id="namedview3630"
     showgrid="false"
     inkscape:zoom="2.36"
     inkscape:cx="50"
     inkscape:cy="50"
     inkscape:window-x="0"
     inkscape:window-y="24"
     inkscape:window-maximized="1"
     inkscape:current-layer="Ebene_1" /><switch
     id="switch3618"><g
       i:extraneous="self"
       id="g3622"><circle
         fill="#B2B2B2"
         cx="50"
         cy="50"
         r="50"
         id="circle3624" /><path
         fill="none"
         d="M65.897,30.772l-4.915,3.933l-3.748-4.238l-4.718,3.741l-3.614-4.437l-4.039,4.038    c-0.144,0.144-0.144,0.376,0,0.52c0.142,0.143,0.375,0.143,0.519,0l3.463-3.462l3.558,4.368l4.74-3.759l3.75,4.24l4.867-3.894    l3.034,4.096c0.071,0.097,0.182,0.148,0.295,0.148c0.076,0,0.153-0.023,0.219-0.072c0.162-0.121,0.197-0.352,0.076-0.515    L65.897,30.772z"
         id="path3626" /><path
         fill-rule="evenodd"
         clip-rule="evenodd"
         d="M75.229,61.693c-0.364-0.166-2.828-1.198-2.828-1.198s-1.076-1.296-1.41-1.755    c-0.332-0.459-0.834-1.199-0.834-1.199c0.043-0.212-0.023-0.576-0.023-0.576s0.356-0.277,0.532-0.468    c0.214-0.232,0.273-0.379,0.368-0.618c0.097-0.239,0.478-0.57,0.653-0.735s0.22-0.401,0.153-0.74    c-0.065-0.339-0.358-2.399-0.375-2.845c-0.019-0.446-0.046-1.783-0.076-2.542c-0.03-0.76-0.091-1.571-0.091-1.571    s-0.022-3.017-0.073-3.828c-0.072-1.126-0.407-2.293-0.511-2.945c-0.107-0.651-0.347-1.402-0.347-1.402    c0.177-0.164,1.805-0.78,2.585-0.969c0.291-0.071,0.33-0.302,0.19-0.506c-0.14-0.205-0.328-0.354-0.328-0.354    s0.018-0.211-0.124-0.468c-0.142-0.257-0.874-1.978-1.182-2.629c-0.401-0.851-1.461-3.065-1.764-4.049    c-0.121-0.396-0.63-2.625-0.693-2.884c-0.062-0.26-0.101-0.532-0.29-0.723c-0.301-0.303-0.975-1.378-1.178-1.896    c-0.205-0.516-0.704-1.179-1.137-1.502c-0.252-0.188-0.512-0.321-0.726-0.443c-0.216-0.123-0.865-0.594-1.243-0.868    c-0.376-0.274-2.222-1.118-2.222-1.118s-0.603-0.606-0.714-0.785c-0.111-0.18-0.614-0.92-0.778-1.071    c-0.162-0.152-0.366,0.014-0.366,0.014s0.519-0.808,0.51-1.017c0,0,0.356-0.907,0.372-1.222c0.013-0.315,0.213-1.871,0.255-2.109    c0.044-0.238,0.361-1.483,0.173-1.608c-0.189-0.123-0.157-1.278-0.554-1.368c-0.396-0.09-0.487-1.055-0.803-1.042    c0,0-0.718-0.89-1.844-0.818c0,0-0.496-0.586-0.999-0.724c-0.504-0.136-1.504-0.175-1.757,0.045    c-0.254,0.219-0.92-0.042-1.256,0.076C54.16,9.351,53.956,9.49,53.956,9.49s-0.559-0.162-0.765-0.075    c-0.204,0.088-0.559,0.443-0.496,0.703c0.063,0.26-0.417,0.857-0.371,1.196c0.036,0.287,0.253,0.436,0.253,0.436    s-0.116,0.346-0.183,0.689c-0.064,0.344-0.097,0.845-0.169,1.004c-0.073,0.161-0.406,0.331-0.292,0.588    c0.115,0.259-0.017,0.237-0.005,0.525c0.013,0.288,0.122,0.416,0.186,0.702c0.064,0.286-0.057,1.182-0.048,1.418    c0.009,0.236-0.193,1.241-0.198,1.608c-0.006,0.524,0.144,0.965,0.233,1.224c0.087,0.258,0.538,0.373,0.572,0.528    c0.126,0.61,0.792,0.754,0.792,0.754c-0.759,0.11-3.855,1.388-4.498,1.729c-0.466,0.247-0.885,0.822-1.078,1.25    c-0.192,0.428-0.934,1.559-1.368,2.548c-0.048,0.111-0.16,0.391-0.299,0.747c-0.045-0.383-0.085-0.742-0.095-0.923    c-0.028-0.495-0.386-1.677-0.812-1.925c-0.427-0.248-1.54-0.675-2.517-0.812c-0.977-0.138-2.627,0-2.627,0    s-0.564-0.701-0.591-0.922c-0.028-0.22,0.053-0.729,0.136-0.893c0.083-0.166,0.423-0.537,0.423-1.321c0,0,0.361,0.111,0.527-0.082    s0.233-1.017,0.246-1.25c0,0,0.346-0.262,0.429-0.455c0.082-0.193,0.48-0.481,0.563-0.674c0.083-0.192,0.413-0.619,0.386-0.865    c-0.028-0.249,0.058-0.937,0.027-1.28c-0.083-0.895-0.413-1.238-0.44-1.458c-0.027-0.221-0.068-0.73-0.207-0.949    c-0.137-0.22-1.031-0.674-1.252-0.84c-0.22-0.165-0.604-0.673-0.894-0.811c-0.288-0.137-1.044-0.316-1.319-0.398    c-0.275-0.083-1.308-0.331-1.651-0.248c-0.343,0.082-1.458,0.564-1.677,0.784c-0.221,0.22-1.115,0.536-1.391,0.895    c-0.3,0.39-0.343,1.347-0.452,1.622c-0.111,0.276-0.262,1.458-0.386,1.651c-0.123,0.193-0.427,0.591-0.398,0.839    c0.027,0.247,0,0.77-0.083,1.031c-0.083,0.26-0.166,0.826,0,1.004c0.166,0.178,0.178,0.688,0.371,0.811    c0.193,0.124,0.413,0.62,0.606,0.702c0.192,0.083,0.509,0.193,0.509,0.193s-0.056,0.288,0.22,0.48    c0.275,0.193,0.399,0.537,0.564,0.537c0.166,0,0.441,0.192,0.441,0.192s0,0.868-0.028,1.032c-0.028,0.166-0.13,0.564-0.269,0.729    c0,0-0.68,0.166-0.983,0.482c0,0-4.139,1.169-5.323,2.255c-0.439,0.404-0.577,1.003-0.577,1.513c0,0.509,0.014,1.375-0.11,1.678    c-0.124,0.302-1.571,3.569-1.773,4.057c-0.302,0.729-1.335,2.71-1.679,3.164c0,0-0.564,0.29-0.743,0.688    c-0.179,0.398-0.371,0.714-0.398,0.907c-0.028,0.193,0.055,0.22,0.055,0.22s0.083,0.591,0.027,0.895    c-0.055,0.303-0.232,1.622,0.056,1.65c0,0,0.371,1.898,0.673,2.38c0,0-0.061,0.232,0,0.384c0.055,0.137,0.124,0.532,0.124,0.725    c0,0.192-0.177,0.542-0.151,0.734c0.027,0.193,0.11,0.261,0.11,0.468c0,0.206,0.02,1.029-0.191,1.213    c-0.21,0.183-0.63,0.289-0.446,0.656c0,0-0.42,0.341-0.236,0.577c0.184,0.236,0.63,0.996,0.813,1.075c0,0,0.052,0.34,0.209,0.499    c0.158,0.156,0.667,0.918,0.84,1.021c0.13,0.078,0.262,0.211,0.262,0.211s0.158,2.877,0.236,4.718    c0.074,1.759,0.261,4.301,0.156,4.51c-0.104,0.21,0.027,0.367,0.027,0.367s-0.061,0.352-0.027,0.523    c0.053,0.263,0.263,3.147,0.315,4.459c0.053,1.31,0.184,4.377,0.156,4.588c-0.025,0.209,0.053,0.445,0.053,0.445    s-0.079,0.235,0,0.445c0.079,0.21,0.262,3.068,0.367,4.353s0.314,4.037,0.262,4.247c-0.052,0.21,0.053,0.444,0.053,0.444    s-0.059,0.219-0.034,0.466c0.026,0.264,0.294,3.128,0.321,3.914c0.026,0.786,0.208,3.842,0.208,3.842s-0.103,0.039-0.103,0.223    s0.057,0.734,0.078,0.917c0.018,0.146,0.247,0.233,0.575,0.227c0.326-0.007,0.526-0.096,0.526-0.252    c0-0.158-0.019-0.789-0.036-0.974c-0.016-0.156-0.112-0.178-0.112-0.178s-0.087-3.307-0.087-3.909c0-0.813-0.124-3.66-0.124-3.844    s-0.136-0.465-0.136-0.465s0.076-0.227,0.05-0.438c-0.026-0.21-0.288-3.46-0.341-4.273c-0.053-0.812-0.302-4.255-0.275-4.518    c0.025-0.263-0.118-0.332-0.118-0.332s0.052-0.185,0.026-0.395c-0.026-0.208-0.158-2.831-0.21-4.509    c-0.052-1.679-0.236-4.3-0.209-4.535c0.025-0.236-0.078-0.394-0.078-0.394s0.051-0.158,0-0.367    c-0.052-0.209-0.236-3.775-0.262-4.614s-0.184-4.013-0.184-4.013s0.158-0.077,0.158-0.288c0-0.392-0.223-0.721-0.223-0.721    l-0.037-0.931c0,0,0.417,0.12,0.705,0.132c0.681,0.026,0.473-0.341,0.29-0.499c-0.184-0.158-0.184-0.34-0.159-0.498    c0.026-0.157,0.052-0.892,0.079-1.179c0.026-0.29-0.21-1.548-0.263-1.861c-0.052-0.315-0.235-0.578-0.235-0.578    s0.235-0.156,0.157-0.34c-0.078-0.183-0.272-0.478-0.331-0.804c-0.046-0.251-0.089-0.691-0.089-0.848    c0-0.185-0.209-0.393-0.209-0.393s0.054-2.728,0.026-2.938l0.08-0.261c0,0,0.472,0.052,0.708,0.158    c0.236,0.104,0.681,0.183,0.76,0.025c0.077-0.157,0.419-0.865,0.602-0.917c0.184-0.053,0.498,0.157,0.55-0.027    c0.054-0.183,0.29-0.551,0.315-0.839c0.026-0.288,0.366-0.786,0.499-0.969c0.13-0.184,0.34-0.367,0.34-0.367    s0.262,0.524,0.42,0.681c0,0-0.053,1.075,0.13,1.521c0,0-0.209,0.654-0.157,1.047c0,0-0.314,0.106-0.419,0.42    c-0.104,0.315-0.472,0.761-0.472,1.075c0,0.315,0.079,1.285,0.184,1.548c0.104,0.261,0,0.917,0,1.257    c0,0.341,0.07,0.58,0.104,0.865c0.08,0.655-0.183,2.02-0.236,2.334c-0.053,0.315,0.079,0.733,0.079,0.733    s-0.068,2.283-0.026,2.805c0.078,0.997,0.419,2.255,0.419,2.675s0.105,3.854,0.157,4.353c0.052,0.498,0.367,2.596,0.42,3.066    c0.052,0.473,0.288,1.862,0.445,2.359c0.157,0.5,0.839,2.623,0.891,3.018c0.053,0.392,0.158,0.97,0.288,1.282    c0.132,0.316,1.023,2.938,1.232,3.357c0.21,0.418,0.976,2.334,1.185,2.489c0,0,0.004,0.385,0.075,0.684    c0.114,0.478,0.625,2.746,0.773,3.526c0.023,0.116,0.167,0.181,0.164,0.223c0,0-0.122,0.788-0.15,0.97    c-0.079,0.498-0.105,3.461-0.079,3.775c0,0-0.412,0.451-0.499,0.709c-0.078,0.234-0.183,0.942-0.078,1.232    c0.105,0.288,0.289,0.706,0.524,0.811c0.236,0.106,1.495,0.157,1.731,0.106c0.236-0.053,1.258-0.525,1.468-0.708    c0.21-0.184,0.184-0.84,0.184-1.103c0-0.262,0-1.258,0.078-1.52c0.08-0.262,0.184-0.734,0.236-1.05    c0.053-0.313,0.158-0.837,0.132-1.284c-0.026-0.446-0.4-1.712-0.47-1.992c0,0,0.16-0.072,0.073-0.367    c-0.154-0.524-0.363-2.045-0.363-2.045s0.366,0.079,0.602,0.236c0.236,0.157,1.131,0.314,1.368,0.288c0,0-0.083,1.285-0.083,1.652    c0,0.366-0.13,1.729-0.13,1.939c0,0.209,0.13,0.288,0.13,0.288s-0.052,0.893,0,1.6c0.058,0.785,0.184,1.966,0.184,1.966    s-0.026,0.473-0.078,0.656c-0.053,0.184-0.262,0.76-0.184,1.101c0.078,0.342,0.314,0.629,0.341,0.839    c0.026,0.211,0.14,0.84,0.114,1.049c-0.025,0.209,0.41,0.541,0.7,0.593c0.288,0.054,1.022,0.089,1.546,0.089    c0.524,0,1.992,0,2.202-0.078c0.21-0.078,0.524-0.733,0.473-0.97c-0.052-0.236-0.55-0.683-0.524-0.865    c0.026-0.185-0.015-0.575-0.053-0.893c-0.104-0.864-1.203-4.798-1.203-5.296c0,0,0.207-0.078,0.207-0.262    s-0.026-0.917-0.026-1.258c0-0.342,0.443-4.063,0.443-4.536c0,0,0.187,0.131,0.212-0.053s0.079-1.546,0.131-1.94    c0.052-0.394,0.393-2.123,0.393-2.543c0-0.419-0.157-5.583-0.078-6.109c0.078-0.523,0.21-1.494,0.236-2.018    c0.026-0.524,0.76-7.813,0.812-8.73c0.053-0.919,0.262-1.26,0.236-1.73c-0.025-0.473-0.367-2.125-0.339-2.387    c0.026-0.262-0.046-0.917-0.028-1.311c0.028-0.576-0.603-0.891-0.603-0.891s-0.052-1.048-0.052-1.337    c0-0.064-0.021-0.189-0.053-0.349c0.662-0.108,1.188-0.185,1.367-0.185c0.152,0,0.402,0.135,0.699,0.299    c-0.08,0.178-0.155,0.328-0.208,0.408c-0.124,0.189,0.067,0.339,0.154,0.545c0.086,0.206,0.264,0.724,0.264,0.724    c-0.316,2.558,0.067,6.242,0.314,8.49c0.098,0.887,0.648,3.727,0.815,4.611c0.167,0.886,0.725,3.041,0.85,3.534    c0.125,0.493,0.462,1.401,0.372,2.084c-0.141,1.056,0.123,1.78,0.337,2.506c0.211,0.727,0.958,3.635,1.194,4.255    c0.234,0.62,0.891,1.934,0.926,2.168c0.035,0.233-0.148,2.839-0.181,3.339s0.168,0.913,0.335,1.168    c0.167,0.256,1.38,1.701,1.38,1.701c0.011,0.263-0.305,1.535-0.478,1.83c-0.172,0.297,0.3,0.277,0.3,0.277    c-0.333,0.827-1.195,1.597-1.375,1.708c-0.178,0.112-0.144,0.32-0.144,0.32s-1.442,0.688-1.693,1.617    c-0.129,0.472,0.065,0.993,0.065,0.993s-0.239,0.649-0.097,0.844c0.222,0.307,1.587,0.375,2.478,0.294    c1.046-0.093,1.688-0.435,2.023-0.578c0.336-0.146,0.789-0.609,0.789-0.609c0.073,0.495,0.312,0.591,0.312,0.591    c-0.52,0.755-0.129,1.369-0.09,1.656c0.037,0.287-0.221,1.715-0.308,2.164s0.231,0.542,0.231,0.542s0.016,0.367,0.203,0.491    c0.19,0.122,1.099,0.164,1.92,0.104c0.854-0.06,2.347-0.382,2.497-0.545c0.151-0.163,0.004-0.525,0.004-0.525    s0.507-0.493,0.436-0.961c-0.048-0.316-0.312-1.222-0.351-1.535c-0.04-0.312,0.16-0.609,0.06-1.104    c-0.061-0.31-0.474-0.741-0.474-0.741s0.127-0.085,0.065-0.318c-0.062-0.232,0.642-0.996,0.833-1.45    c0.192-0.453-0.005-0.786-0.091-0.966c-0.087-0.182-0.031-0.734-0.031-0.734s0.99-0.88,1.604-2.61    c0.238-0.675,0.677-2.729,0.713-3.151c0.036-0.421,0.155-1.37,0.269-1.795c0.115-0.425,0.176-0.873,0.102-1.394    c-0.074-0.522-0.04-4.933-0.034-5.457c0.004-0.525-0.144-1.595-0.114-2.198c0.026-0.606,0.094-2.892,0.102-3.337    c0.008-0.447-0.197-1.016-0.197-1.016c0.055-0.58-0.021-1.783-0.057-2.044c-0.037-0.262,0.114-0.424,0.283-0.8    c0.17-0.373,0.301-0.983,0.336-1.431c0.034-0.447,0.332-0.879,0.448-1.225c0.12-0.346,0.205-0.796,0.235-1.374    c0.028-0.577-0.035-2.176,0.037-2.966c0.061-0.657,0.467-1.488,0.656-1.968c0.191-0.48,0.347-1.167,0.461-1.566    c0.116-0.398,0.172-0.978,0.204-1.478c0.032-0.499,0.065-1.656-0.069-2.384c-0.087-0.471-0.366-1.297-0.428-1.505    c-0.062-0.208,0.117-0.372,0.117-0.372c0.443-0.044,0.462-0.255,0.666-0.394c0.205-0.14,0.272-0.405,0.272-0.405    s0.585,2.249,1.132,3.365c0.429,0.875,1.534,3.586,1.572,3.874c0.037,0.287-0.046,1.472-0.092,1.631    c-0.046,0.158-0.401,0.488-0.513,0.964c-0.068,0.292-0.307,0.879-0.307,0.879c-0.261,0.011-0.331,0.223-0.331,0.223    s-0.391,0.043-0.406,0.358c-0.007,0.177,0.18,0.518,0.18,0.518c0.005,0.184,0.314,0.669,0.427,0.849s0.296,0.172,0.296,0.172    c-0.073,0.16-0.062,0.448-0.062,0.448s-0.314-0.039-0.494,0.125c-0.195,0.183-0.162,0.557,0.078,0.626    c0.239,0.069,0.48,0.19,0.48,0.19c0.01,0.263,0.21,0.647,0.21,0.647l-0.23,0.168c0,0-0.649,0.156-0.686,0.525    c-0.026,0.236-0.247,1.715-0.313,2.06c-0.064,0.343-0.583,2.438-0.675,2.756c-0.093,0.318-0.909,3.501-0.979,3.765    c-0.067,0.266,0.06,0.812,0.003,1.365c-0.058,0.553-0.065,2.941-0.046,3.411c0.018,0.473,0.272,4.871,0.313,5.236    s0.148,1.071,0.236,1.303c0.088,0.232,0.786,0.625,1.002,0.772c0.215,0.15,0.826,0.31,0.988,0.46    c0.164,0.151,0.423,0.062,0.602-0.077c0.177-0.138,1.222-0.286,1.43-0.32s0.387-0.172,0.457-0.411    c0.069-0.239,0.32-1.797,0.409-2.22c0.087-0.424,0.429-2.379,0.514-2.907c0.057-0.367-0.202-2.406-0.243-2.746    c-0.039-0.338-0.091-0.992-0.047-1.179c0.045-0.186,1.186-1.831,1.437-2.156c0.248-0.325,1.268-2.412,1.46-2.841    c0.193-0.428,0.922-1.872,0.967-2.085C75.396,61.922,75.39,61.765,75.229,61.693z"
         id="path3628" /></g></switch></svg>