<?xml version="1.0" encoding="UTF-8" standalone="no"?>
<!-- Generator: Adobe Illustrator 15.0.2, SVG Export Plug-In . SVG Version: 6.00 Build 0)  -->

<svg
   xmlns:dc="http://purl.org/dc/elements/1.1/"
   xmlns:cc="http://creativecommons.org/ns#"
   xmlns:rdf="http://www.w3.org/1999/02/22-rdf-syntax-ns#"
   xmlns:svg="http://www.w3.org/2000/svg"
   xmlns="http://www.w3.org/2000/svg"
   xmlns:sodipodi="http://sodipodi.sourceforge.net/DTD/sodipodi-0.dtd"
   xmlns:inkscape="http://www.inkscape.org/namespaces/inkscape"
   version="1.1"
   id="Ebene_1"
   x="0px"
   y="0px"
   width="100px"
   height="100px"
   viewBox="0 0 100 100"
   enable-background="new 0 0 100 100"
   xml:space="preserve"
   inkscape:version="0.48.4 r9939"
   sodipodi:docname="culture.svg"><metadata
     id="metadata11"><rdf:RDF><cc:Work
         rdf:about=""><dc:format>image/svg+xml</dc:format><dc:type
           rdf:resource="http://purl.org/dc/dcmitype/StillImage" /><dc:title></dc:title></cc:Work></rdf:RDF></metadata><defs
     id="defs9" /><sodipodi:namedview
     pagecolor="#ffffff"
     bordercolor="#666666"
     borderopacity="1"
     objecttolerance="10"
     gridtolerance="10"
     guidetolerance="10"
     inkscape:pageopacity="0"
     inkscape:pageshadow="2"
     inkscape:window-width="640"
     inkscape:window-height="480"
     id="namedview7"
     showgrid="false"
     inkscape:zoom="2.36"
     inkscape:cx="50"
     inkscape:cy="50"
     inkscape:window-x="283"
     inkscape:window-y="127"
     inkscape:window-maximized="0"
     inkscape:current-layer="Ebene_1" /><circle
     fill="#B2B2B2"
     cx="50"
     cy="50"
     r="50"
     id="circle3" /><path
     clip-rule="evenodd"
     d="M 42.986294,53.238316 C 42.44491,53.265142 42.378254,53.695973 41.84012,53.725237 42.802582,52.103522 44.199126,50.852486 44.564113,48.716213 44.949422,48.639801 45.233934,48.475598 45.424962,48.22848 46.457332,47.171724 46.652426,45.94426 47.720563,44.805402 49.061829,43.369027 51.173716,42.548822 51.874427,40.895404 52.499539,39.430577 52.706825,38.332365 54.315533,37.476392 54.320411,35.899386 56.381085,34.42887 55.029251,33.200594 54.458601,33.118492 54.451286,33.522498 53.882263,33.443648 51.737049,31.660982 50.929036,29.992119 50.583559,26.970611 51.26476,25.694374 52.918176,24.445776 55.029251,25.135919 57.2208,22.645225 60.878802,26.828355 57.610173,27.94689 57.840221,29.332867 57.167962,32.440542 59.474942,32.590114 61.303943,32.707983 61.473024,30.883859 62.201374,29.657209 62.638708,28.912602 63.409327,28.250911 63.777566,27.58109 65.025351,25.309064 65.265153,22.831378 66.500744,20.739 67.087651,19.744024 67.385169,18.802698 67.792426,17.930467 68.90202,15.525941 71.542285,14.350503 72.093424,12.186591 72.093424,12.431271 72.093424,12.675137 72.093424,12.921443 72.455972,13.053131 72.648627,12.347544 72.666511,12.921443 72.592538,13.50835 72.019451,13.673366 72.093424,14.385457 72.438088,14.438294 72.403134,14.164351 72.811205,14.264337 72.802264,14.829295 71.931659,14.656149 71.660153,14.998375 71.411409,16.129104 70.37335,16.586761 69.651504,17.319174 69.293833,19.246535 68.632954,21.19178 67.792426,23.18092 66.973033,25.118848 66.647877,27.177897 65.927658,29.047543 65.598438,29.897824 64.809122,30.730223 64.636789,31.613022 64.394548,32.849426 64.493721,35.053169 65.4952,35.522206 67.362407,35.15478 67.277054,33.130685 68.363887,32.101568 69.03127,32.248701 69.155641,32.386892 69.942519,32.223501 69.89781,32.750254 69.931138,33.20791 70.515606,33.20222 71.312237,33.167265 71.317114,32.448671 72.234054,32.835607 73.683435,31.755276 73.883406,29.863683 74.528027,28.069637 75.117372,26.438981 76.215585,24.811576 76.537489,23.059799 76.993521,20.58699 77.0553,18.660442 77.826732,16.707882 78.091734,16.038061 78.520126,14.949603 79.403737,14.752883 80.621445,15.734853 79.272862,17.710987 79.548431,19.394481 80.736063,19.713947 80.209311,20.824353 79.976825,21.716093 79.242785,21.783563 78.9599,22.232278 78.541261,22.571252 77.925092,25.370031 78.608732,27.504678 77.826732,30.020571 77.243078,31.895906 74.525589,33.241238 75.101114,34.910913 74.866189,35.24176 74.389836,36.009127 74.81579,36.499299 75.469353,36.485479 75.58966,36.018068 76.392796,36.133499 76.277365,36.686264 75.405135,36.594407 75.244182,37.111404 75.874984,37.707252 74.959672,37.970629 75.244182,38.453485 75.883927,38.379512 76.726892,37.843818 77.253645,38.086059 76.457826,38.668901 75.105991,38.781079 74.528027,39.552512 75.280762,39.654122 75.986351,39.551698 76.820375,39.430577 76.597644,39.993098 77.33656,39.915873 77.537343,40.408484 76.95125,40.558056 76.253791,40.61252 75.818895,40.895404 75.774999,41.136019 76.012363,41.138458 76.105032,41.262017 75.207603,41.637573 74.021597,41.767635 73.957379,42.853655 74.580865,42.847965 75.253124,42.80732 75.533571,43.095083 74.985684,43.120283 74.302044,43.025988 74.242703,43.464134 75.225486,43.765717 76.696816,43.651913 77.396714,44.198174 76.848827,44.133143 76.636662,44.365629 76.537489,44.683469 76.645604,44.99887 77.596685,44.596489 77.537343,45.05252 77.410532,45.594718 76.375725,45.362232 76.391982,46.029613 76.4814,46.277545 77.116267,46.062942 76.965069,46.51816 76.214773,46.651474 76.143238,47.363565 75.388064,47.496066 74.792216,47.548904 74.151659,47.008333 73.66799,47.374133 73.702131,47.83179 74.255709,47.849673 74.671908,47.984612 73.792362,48.41138 74.810099,49.280358 74.241891,49.694931 73.91267,49.521786 73.177818,49.061691 72.664885,49.450251 72.899809,50.186729 73.902915,50.269644 73.956565,51.160572 73.35584,51.18577 73.511916,50.559846 72.809579,50.672838 72.586035,51.637738 73.322512,51.781618 73.523296,52.383157 72.639685,52.887149 72.128378,54.036574 70.801742,53.482183 70.596894,54.014626 71.290288,54.043077 70.944811,54.338156 70.648106,54.695827 69.832778,54.612912 69.796198,55.193315 69.240995,55.298991 69.561274,54.662498 68.936974,54.824263 68.389087,55.805421 67.959068,56.499629 68.219193,57.516553 68.582554,58.934232 68.745945,60.575456 68.792279,61.668792 68.842679,62.837727 68.175297,63.698576 67.932243,65.336549 67.811123,66.158379 68.142781,67.050933 68.076124,67.899589 67.90623,70.076506 66.128442,73.072004 66.928324,75.474092 67.06489,75.886226 67.562378,76.226827 67.642855,76.696677 67.859083,77.916824 67.356717,79.819798 67.071393,81.093596 66.885242,81.940627 66.530009,83.051846 65.209064,83.047781 65.174922,82.955112 65.086317,82.904713 64.921301,82.927474 63.19635,80.350615 65.50333,77.474612 65.35132,74.742491 65.195244,71.975416 63.737734,68.697034 64.347401,65.822657 64.455515,65.301594 64.864399,64.820364 64.921301,64.35783 65.248082,61.428176 64.49616,58.933419 63.486551,57.149127 62.13878,57.924624 60.52357,57.174327 59.187179,56.90526 58.763664,56.693096 59.109955,55.826556 58.325516,55.926542 57.975161,56.240317 57.83697,56.734553 57.606922,57.149127 57.114312,57.095477 56.806226,57.196275 56.459935,57.270248 54.855292,55.555864 56.563985,53.413087 56.174611,51.404438 58.092217,50.472867 57.728856,47.599303 59.471691,46.518973 58.113353,45.911745 58.236912,44.61356 58.896978,43.586881 58.039379,42.279755 56.105516,41.893633 54.598419,41.144961 54.077356,42.496796 52.669432,43.394227 51.586664,44.564787 51.170464,45.013502 50.920095,45.570332 50.438864,46.032052 49.61053,46.822994 46.416687,48.43414 46.135428,49.451878 45.856607,50.470429 47.028794,51.498734 45.850104,52.38397 45.113626,52.223831 45.76475,51.493043 45.421711,51.161384 43.852022,51.656434 44.128404,53.72605 42.696093,54.338156 42.26201,54.002432 43.521175,53.630942 42.986294,53.238316 z"
     id="path5"
     inkscape:connector-curvature="0"
     style="fill-rule:evenodd" /><path
     style="fill-rule:evenodd"
     inkscape:connector-curvature="0"
     clip-rule="evenodd"
     d="M 33.00987,41.420714 C 32.907295,41.459547 32.894839,41.5885 32.768816,41.601689 32.686756,41.707195 32.505782,41.546005 32.43691,41.632461 32.296967,41.735037 32.441305,41.941655 32.376829,42.053756 32.332868,42.129956 32.254471,42.180511 32.105736,42.173916 32.114527,42.26477 32.198053,42.281622 32.166548,42.414971 32.132844,42.582023 31.912306,42.56224 31.864681,42.716105 31.83977,42.936643 31.902049,43.10223 31.864681,43.227519 31.834641,43.327166 31.742323,43.360137 31.713748,43.468574 31.227243,43.63123 30.712898,43.389444 30.238117,43.34768 30.045421,43.513267 30.010252,43.770441 29.967023,44.130923 29.953102,44.246687 29.923061,44.34047 29.936983,44.432056 29.980212,44.714141 30.310653,44.815985 30.207344,45.064365 30.069599,45.029929 30.008786,44.935412 29.936983,44.822579 29.873239,44.725132 29.882764,44.532434 29.725969,44.521445 29.69886,44.628417 29.802169,44.710477 29.846862,44.792538 30.202215,45.449759 30.520934,46.199297 30.840386,46.960558 30.863099,47.014777 30.911456,47.058739 30.930506,47.111491 30.948823,47.162047 30.940764,47.236781 30.961278,47.291733 30.978863,47.34009 31.036012,47.395041 31.0514,47.442666 31.142984,47.717424 31.202332,48.003172 31.292453,48.315295 31.32689,48.434724 31.385505,48.538033 31.412613,48.647203 31.767234,50.077407 31.584795,52.095958 31.201599,53.496122 31.374514,53.57745 31.578933,53.597966 31.773828,53.647056 31.960663,53.693214 32.148963,53.748166 32.346057,53.797256 32.532891,53.844148 32.746103,53.874921 32.948325,53.91815 33.253122,53.981893 33.489047,54.134292 33.791647,54.009003 33.884698,54.075678 34.031235,54.091064 34.184367,54.099123 34.286211,54.200967 34.119891,54.339444 34.184367,54.40099 34.454729,54.548993 34.747071,54.60834 35.025491,54.732164 35.28706,54.84793 35.550828,54.998862 35.808001,55.124151 36.338465,55.37986 36.874059,55.615785 37.434564,55.846581 37.658034,56.135993 37.75768,56.547762 37.856592,56.960997 38.362878,57.05991 38.89774,57.079693 39.423076,57.142703 39.935225,57.203516 40.447372,57.251874 40.958054,57.322945 41.482659,57.396213 42.006529,57.445303 42.524539,57.503918 42.90114,57.546414 43.263087,57.607227 43.608914,57.713466 43.791354,57.771348 43.917376,57.805052 44.060982,57.895172 44.081498,57.909094 44.126925,57.907628 44.150371,57.925213 44.195797,57.958184 44.240491,57.99555 44.331344,58.046839 44.495465,58.136959 44.718935,58.365557 44.873532,58.528213 45.044248,58.709187 45.196647,58.912875 45.324135,59.130483 45.338055,59.150997 45.338055,59.198622 45.35564,59.221336 45.38568,59.263099 45.427443,59.312189 45.475067,59.401576 45.486058,59.421359 45.490453,59.471182 45.505108,59.492429 45.533682,59.530529 45.5901,59.583282 45.626733,59.67267 45.654576,59.745939 45.677289,59.830931 45.716122,59.913724 45.733707,59.954022 45.754221,60.014102 45.776201,60.06539 45.803311,60.124005 45.807708,60.247096 45.836282,60.365792 45.850204,60.42514 45.883907,60.48815 45.89563,60.546765 45.98282,60.939485 46.021652,61.38276 46.108842,61.781343 46.177714,62.107388 46.27736,62.410721 46.407778,62.714785 46.653228,63.284082 46.988799,63.941303 47.281872,64.52159 47.324368,64.604383 47.34928,64.670325 47.402033,64.762644 47.42841,64.808071 47.454054,64.846903 47.491421,64.912844 47.51853,64.958271 47.544175,64.997103 47.583008,65.063778 47.673128,65.220574 47.859962,65.453568 47.973529,65.636006 48.02555,65.720266 48.110541,65.837495 48.184543,65.936408 48.202127,65.960586 48.195533,65.999418 48.214583,66.026528 48.247554,66.072688 48.304703,66.104926 48.334744,66.147422 48.490073,66.354772 48.669582,66.622203 48.846158,66.840543 49.292365,67.384197 49.647718,67.960821 50.052161,68.555763 50.071211,68.585802 50.061686,68.620239 50.082201,68.646616 50.107113,68.679586 50.164262,68.718418 50.201628,68.766777 50.219213,68.790222 50.214085,68.832718 50.233135,68.85763 50.297611,68.940423 50.396523,69.015157 50.472723,69.097951 50.779718,69.428393 51.126279,69.761032 51.255966,70.242407 51.394443,70.397004 51.505812,70.571383 51.617912,70.753822 51.672864,70.844675 51.742469,70.931133 51.797421,71.024917 51.828926,71.076205 51.815005,71.117968 51.858966,71.175117 51.891937,71.220543 51.96374,71.216148 51.949087,71.29601 51.992315,71.393458 51.976928,71.548054 51.978394,71.686533 51.996711,71.800099 52.177684,71.750276 52.189408,71.867506 52.309569,71.997925 52.415808,72.063134 52.671515,72.10856 52.774092,72.126144 52.894984,72.153987 52.972649,72.139333 53.120653,72.110025 53.265724,71.910735 53.453292,71.747345 53.61082,71.610333 53.793259,71.462331 53.9354,71.356091 54.169859,71.179513 54.43729,70.995609 54.71791,70.844675 54.914269,70.737703 54.978012,70.709861 55.260097,70.663702 55.444002,70.633661 55.570024,70.638791 55.712165,70.723782 55.781038,70.765546 55.795691,70.827823 55.861633,70.873983 55.927575,70.920875 56.000843,70.915013 56.072647,70.964103 56.131262,71.005134 56.138589,71.087927 56.224313,71.11577 56.28073,71.187572 56.39283,71.206623 56.403821,71.326051 56.246293,71.710711 55.969338,71.974478 55.742205,72.288801 56.00011,72.2148 56.20453,72.322505 56.373781,72.409694 56.409682,72.427278 56.433862,72.422883 56.463169,72.440466 56.521784,72.473438 56.639746,72.576746 56.704222,72.650749 56.715213,72.661005 56.693966,72.70057 56.704222,72.710828 56.731332,72.736472 56.873473,72.701303 56.885928,72.800948 56.97092,72.882277 57.022208,72.957011 57.096942,73.042003 57.171676,73.126262 57.258866,73.146777 57.276451,73.283057 57.298431,73.439119 57.209044,73.606171 57.126983,73.734392 57.111597,73.757837 57.058843,73.789343 57.036862,73.824512 57.006822,73.868473 57.002425,73.938079 56.975317,73.974712 56.935019,74.029665 56.85076,74.08315 56.795808,74.155687 56.764303,74.195984 56.758442,74.247272 56.734263,74.276579 56.630954,74.403334 56.476358,74.535218 56.34374,74.667834 56.197204,74.814372 56.079241,74.975563 55.983259,75.05909 55.907059,75.125764 55.800087,75.170457 55.712165,75.23933 55.619114,75.312599 55.560499,75.418839 55.471111,75.419572 55.502617,75.49284 55.557568,75.528742 55.590539,75.600545 55.624975,75.67308 55.635966,75.748547 55.652085,75.841599 55.332633,76.014512 54.958963,76.124415 54.598481,76.263626 54.201365,76.416024 53.707534,76.57575 53.273051,76.745001 53.174138,76.799953 53.284774,76.869558 53.273051,76.925243 53.260596,76.9736 53.144099,77.083503 53.091345,77.136256 53.034928,77.193406 52.919897,77.279862 52.790943,77.286456 52.594583,77.297447 52.486878,77.178019 52.308836,77.106216 51.482365,77.383171 50.702054,77.707751 49.869722,77.978846 49.764215,77.962727 49.701936,77.845497 49.628668,77.767832 49.591301,77.728267 49.559795,77.680642 49.508507,77.618364 49.463814,77.561946 49.39201,77.482084 49.327534,77.40735 49.056439,77.413944 48.706215,77.480618 48.424864,77.43739 48.26294,77.413211 48.143512,77.327488 48.032877,77.286456 48.010896,77.193406 47.97939,77.104017 47.942757,77.01463 47.90832,76.930371 47.859229,76.862231 47.823328,76.774309 47.754456,76.607988 47.741268,76.409431 47.642354,76.263626 47.596928,76.195486 47.5537,76.152991 47.490688,76.11196 47.435737,76.075325 47.348548,76.066533 47.281141,76.022573 47.256228,76.00572 47.245239,75.947838 47.220327,75.931719 47.185158,75.908273 47.136068,75.92659 47.100166,75.901679 47.075255,75.884094 47.064264,75.828411 47.040086,75.811559 47.010779,75.791043 46.972679,75.804232 46.950698,75.781518 46.919193,75.750746 46.898677,75.684804 46.859113,75.631317 46.788774,75.532405 46.68107,75.371946 46.618059,75.23933 46.525008,75.040772 46.475918,74.802648 46.377005,74.607022 46.338172,74.527891 46.281023,74.472207 46.227536,74.39674 46.201892,74.362304 46.193101,74.315411 46.167457,74.276579 46.16013,74.264124 46.111039,74.256065 46.108109,74.24654 46.10005,74.231152 46.115436,74.20038 46.108109,74.185726 46.086861,74.154954 46.037038,74.133705 46.016523,74.095606 45.996008,74.057506 46.010661,74.012813 45.986483,73.974712 45.949116,73.916098 45.869986,73.858948 45.835549,73.794472 45.782796,73.692628 45.765945,73.576864 45.715389,73.463297 45.591564,73.184144 45.422314,72.850772 45.293361,72.529855 45.205439,72.309316 45.146824,72.07852 45.052308,71.867506 44.964386,71.668948 44.836898,71.485777 44.721865,71.29601 44.249283,70.5157 43.877078,69.727329 43.427208,69.007098 43.145857,69.007098 42.864505,69.007098 42.583154,69.007098 42.514281,69.37857 42.572896,69.879728 42.553114,70.301754 42.558242,70.388945 42.759731,70.276843 42.764128,70.362568 42.764128,70.723782 42.764128,71.08573 42.764128,71.446211 43.063796,71.457934 43.414753,71.417637 43.666798,71.476984 43.666798,72.389912 43.666798,73.303571 43.666798,74.217232 43.813334,74.280976 44.035339,74.269985 44.178945,74.33666 44.16136,74.44876 44.228036,74.647319 44.118864,74.668567 44.216312,74.700805 44.167955,74.879581 44.178945,74.999009 44.093954,75.044435 43.989912,75.072278 43.848504,75.059821 43.725411,75.51995 43.55836,75.933184 43.396436,76.354479 43.419882,76.501749 43.507805,76.585275 43.487289,76.775775 43.542973,76.880548 43.649213,76.928173 43.728343,77.016096 43.79282,77.090097 43.858761,77.191208 43.937891,77.287922 43.983318,77.342874 44.052923,77.381706 44.088824,77.438855 44.144508,77.525313 44.196529,77.681375 44.27053,77.80007 44.318156,77.879932 44.3438,78.002292 44.389959,78.160552 44.4559,78.386219 44.536497,78.759889 44.51012,79.154807 44.496198,79.379742 44.445644,79.536537 44.389959,79.726303 44.358453,79.834741 44.361383,79.951971 44.329878,80.027437 44.306432,80.083121 44.225104,80.180568 44.178945,80.268491 44.088824,80.437742 44.008229,80.558635 43.877811,80.720559 43.849969,80.755728 43.818463,80.771114 43.788423,80.810679 43.759848,80.845848 43.755452,80.902265 43.728343,80.93084 43.703431,80.955751 43.638955,80.966009 43.60745,80.990921 43.493883,81.081774 43.367861,81.238568 43.216194,81.322094 43.047676,81.415879 42.819812,81.518455 42.583154,81.593189 42.304732,81.680378 41.885637,81.758776 41.468737,81.712616 41.283367,81.693567 41.084077,81.617367 40.897242,81.563148 40.835696,81.544831 40.758031,81.549227 40.715535,81.532376 40.670109,81.514058 40.586583,81.425404 40.505987,81.382175 40.425392,81.340412 40.333073,81.335282 40.265666,81.291322 40.197526,81.248826 40.128653,81.142587 40.053919,81.081041 40.029008,81.060525 39.986512,81.072981 39.964532,81.051 39.949145,81.037812 39.948413,81.002643 39.934492,80.990921 39.904451,80.967474 39.831183,80.948425 39.813598,80.93084 39.793815,80.91179 39.802609,80.860502 39.783558,80.839987 39.722012,80.774044 39.620169,80.664142 39.542505,80.569625 39.453849,80.460455 39.374719,80.286076 39.27141,80.11829 39.220855,80.034031 39.195211,79.909475 39.151249,79.756343 39.094833,79.562914 39.044277,79.368751 39.030357,79.063954 39.027425,78.998746 39.027425,78.958448 39.030357,78.882981 39.033287,78.812643 39.045743,78.718126 39.030357,78.642659 39.009841,78.532756 38.932909,78.46535 38.880889,78.371566 38.853779,78.324673 38.849382,78.273385 38.820808,78.221365 38.768787,78.128314 38.713836,78.068233 38.669875,77.920231 38.59221,77.665255 38.524802,77.309903 38.548248,76.896667 38.55411,76.797022 38.559239,76.666603 38.579754,76.565492 38.590744,76.509809 38.650092,76.451926 38.669875,76.384519 38.690389,76.310518 38.675736,76.23725 38.699182,76.174238 38.724826,76.109029 38.778312,76.015245 38.820808,75.933184 38.841323,75.88849 38.855244,75.861381 38.880889,75.813023 38.924116,75.724369 38.960018,75.685537 39.030357,75.60201 39.037683,75.593951 39.086773,75.580029 39.091902,75.57197 39.113883,75.51995 39.1322,75.48478 39.18129,75.421036 39.25236,75.330183 39.324897,75.284024 39.452383,75.181448 39.519791,75.125031 39.570346,75.041505 39.631892,74.999742 39.687576,74.963107 39.793815,74.951385 39.872946,74.909622 39.940353,74.874453 39.991641,74.815104 40.053919,74.788728 40.130119,74.757222 40.238556,74.75649 40.325014,74.72938 40.402679,74.705201 40.470086,74.652448 40.536027,74.63926 40.758031,74.595298 40.994689,74.617278 41.259189,74.608486 41.389607,74.378423 41.451152,74.078022 41.560323,73.825977 41.514164,73.64134 41.395469,73.528507 41.34931,73.344603 40.980768,73.588586 40.570464,73.882394 40.174813,74.157151 40.140376,74.180598 40.092752,74.193053 40.053186,74.217964 40.041464,74.224558 40.032672,74.272917 40.023879,74.278045 39.864886,74.349848 39.69124,74.464148 39.481691,74.548407 38.76146,74.838551 37.47413,74.72938 36.379497,74.72938 35.633621,74.72938 34.888479,74.72938 34.151396,74.72938 34.004127,75.004138 33.916204,75.295747 33.790182,75.57197 33.665625,75.845995 33.51176,76.100237 33.368886,76.354479 33.150547,76.742803 32.932206,77.108414 32.675765,77.468896 32.560001,77.633017 32.414197,77.78102 32.284511,77.950271 32.236886,78.013281 32.211242,78.072629 32.164351,78.130511 32.076428,78.237484 31.962862,78.324673 31.862484,78.431645 31.762106,78.540817 31.690302,78.657314 31.591389,78.763553 31.502735,78.857337 31.383306,78.946725 31.290255,79.033915 31.078508,79.232472 30.886544,79.425902 30.657947,79.606142 30.231522,79.943178 29.77799,80.302195 29.272436,80.599665 28.77714,80.891274 28.251071,81.177755 27.676645,81.412947 27.607039,81.44079 27.536702,81.477425 27.465631,81.502335 27.30444,81.560951 27.186477,81.587327 27.013563,81.653268 26.576149,81.821054 25.926989,81.996898 25.386998,82.104603 23.772158,82.429184 21.673745,82.295103 20.237679,81.894323 19.873534,81.791747 19.524041,81.691369 19.184075,81.563148 19.099816,81.53091 18.994309,81.505266 18.91298,81.473028 18.836782,81.442988 18.773037,81.38364 18.701967,81.352134 18.623569,81.317699 18.548103,81.300847 18.460914,81.261281 18.266019,81.174092 17.986865,81.051 17.768524,80.93084 17.696721,80.891274 17.62565,80.819471 17.557511,80.780639 17.421231,80.701509 17.259307,80.639964 17.106175,80.539586 17.001401,80.470713 16.93033,80.407701 16.805041,80.328572 16.706128,80.267758 16.613077,80.195956 16.503175,80.11829 15.969046,79.736561 15.480344,79.322593 15.028276,78.85294 14.572545,78.379625 14.124874,77.893854 13.762926,77.347269 13.399513,76.796289 13.054419,76.23212 12.769404,75.599812 12.69467,75.434958 12.62653,75.281826 12.55839,75.118436 12.50124,74.979959 12.455813,74.869323 12.408189,74.727182 12.347376,74.541812 12.268246,74.337393 12.197175,74.094873 11.95026,73.252283 11.732652,72.249235 11.685027,71.173652 11.624947,69.810855 11.838891,68.52499 12.136363,67.469188 12.200106,67.244254 12.279236,67.014923 12.347376,66.807572 12.37009,66.737234 12.408189,66.655173 12.438229,66.56725 12.537874,66.264652 12.732036,65.912229 12.860257,65.602303 12.899821,65.50632 12.95111,65.350991 13.010457,65.241821 13.029508,65.207385 13.082993,65.18687 13.10131,65.151701 13.121826,65.111403 13.108637,65.071105 13.131351,65.03154 13.149667,64.998569 13.200956,64.977322 13.222204,64.940687 13.246383,64.898191 13.261769,64.856428 13.282285,64.820526 13.344562,64.712821 13.388524,64.609513 13.463258,64.489352 13.525537,64.389707 13.598072,64.298854 13.674272,64.187485 13.795165,64.010907 13.905068,63.843122 14.035485,63.676802 14.341016,63.287746 14.692706,62.843738 15.059049,62.471533 15.322084,62.205568 15.653258,61.904434 15.962452,61.658983 16.221823,61.454564 16.46654,61.242818 16.745694,61.055982 18.084313,60.164303 19.6845,59.433814 21.654695,59.129017 21.723568,59.067471 21.665684,58.879171 21.684735,58.767802 21.642239,58.634453 21.864976,58.76707 21.864976,58.676949 21.86351,58.295219 21.894283,57.948659 21.985869,57.652653 22.024702,57.526631 22.103099,57.417461 22.166843,57.291438 22.229854,57.166882 22.253298,57.029137 22.317774,56.929492 22.40936,56.787351 22.561026,56.706022 22.648949,56.56901 22.489224,56.524316 22.374925,56.412214 22.226922,56.327955 22.081118,56.243697 22.073059,56.251024 21.925788,56.086902 21.82248,55.971137 21.778519,55.894205 21.684735,55.725688 21.546257,55.473644 21.44075,55.223065 21.473722,54.731431 21.495702,54.40392 21.62612,54.032449 21.654695,53.677095 21.684002,53.317346 21.629783,53.044054 21.684735,52.774426 21.716241,52.616165 21.771925,52.533372 21.864976,52.413211 21.919194,52.344339 21.996127,52.29012 22.046682,52.232238 22.070128,52.203662 22.083317,52.139186 22.106762,52.111345 22.170506,52.038076 22.309715,51.972867 22.347815,51.84025 22.168309,50.876035 21.999058,49.777739 21.926521,48.708748 21.913333,48.514587 21.917729,48.316028 21.896481,48.135788 21.876698,47.968002 21.807094,47.816336 21.865709,47.653679 21.343303,47.718889 20.858264,47.856634 20.360038,47.955546 19.86987,48.052994 19.373842,48.152639 18.853632,48.226641 18.747393,48.082301 18.72468,47.853704 18.703433,47.624372 18.891733,47.503479 19.127659,47.513736 19.335742,47.474172 19.548954,47.432408 19.757037,47.395774 19.968051,47.353278 20.527823,47.241177 21.033376,47.072659 21.714775,47.052144 21.760201,46.955429 21.614397,46.877764 21.534534,46.81109 21.525742,46.803763 21.512554,46.753941 21.503761,46.750277 21.489108,46.743683 21.456137,46.759802 21.442948,46.750277 21.418037,46.732693 21.407779,46.676276 21.382868,46.660156 21.346234,46.635245 21.302272,46.652097 21.262708,46.629384 21.138151,46.559046 21.058288,46.515084 20.84068,46.47845 20.622339,46.442549 20.444297,46.450608 20.177598,46.50849 20.124113,46.520214 20.053774,46.553184 19.996625,46.568571 19.924089,46.589086 19.855216,46.583224 19.785611,46.59861 19.032409,46.77006 18.067461,46.960558 17.286417,47.079986 17.214614,46.910735 17.092254,46.633047 17.165523,46.417637 17.147938,46.348764 17.25198,46.337042 17.286417,46.327517 17.350893,46.309932 17.408775,46.310665 17.46739,46.297476 18.019835,46.175118 18.605252,46.087196 19.214116,45.966302 19.555548,45.898895 19.833236,45.832953 20.237679,45.785329 20.34172,45.772873 20.467743,45.756021 20.568853,45.755288 21.097121,45.749427 21.558712,45.931133 21.924324,46.207356 22.077455,45.685684 22.223992,45.199913 22.49655,44.761766 22.530987,44.706082 22.592533,44.608634 22.647484,44.520712 22.734674,44.380769 22.860696,44.191002 22.978658,44.039336 23.168424,43.795352 23.387498,43.584338 23.610967,43.346215 23.631482,43.324235 23.647602,43.272946 23.67178,43.256095 23.701087,43.236312 23.738455,43.248768 23.7619,43.225322 23.854219,43.135202 23.935547,43.042151 24.032994,42.954228 24.098935,42.895613 24.161947,42.800364 24.244008,42.743214 24.273316,42.722699 24.307752,42.732957 24.334861,42.713174 24.406665,42.656757 24.46528,42.593746 24.545875,42.532201 24.569321,42.514616 24.608886,42.521943 24.635995,42.50216 24.661639,42.483843 24.671164,42.429624 24.696808,42.41204 24.725383,42.391524 24.75982,42.400316 24.786928,42.381267 24.836018,42.347564 24.885109,42.289681 24.937862,42.260374 25.160599,42.137282 25.441951,42.052291 25.720372,41.959239 25.837602,41.919675 25.968752,41.848603 26.112359,41.838347 26.143131,41.610481 26.23545,41.447824 26.353413,41.266118 26.4428,41.127641 26.555634,40.995023 26.654547,40.84409 26.702904,40.769356 26.690449,40.652859 26.80548,40.63381 26.754192,40.1539 26.87362,39.702565 26.80548,39.248299 26.797421,39.194081 26.751261,39.04388 26.71536,38.946432 26.678725,38.85045 26.598863,38.766191 26.594466,38.676069 26.588605,38.563969 26.665537,38.34343 26.71536,38.163922 26.750529,38.032038 26.771777,37.956571 26.80548,37.802707 26.823065,37.722844 26.88168,37.606347 26.925641,37.50084 26.976197,37.378481 27.023821,37.273707 27.076575,37.139626 27.114674,37.042912 27.140318,36.956454 27.196735,36.868531 27.231904,36.815046 27.267073,36.717598 27.317628,36.627478 27.348401,36.571794 27.404085,36.540288 27.438521,36.476544 27.516186,36.331473 27.519117,36.257472 27.648802,36.14537 27.669318,36.127786 27.690566,36.132914 27.709616,36.115329 27.805597,36.023744 28.008552,35.877207 28.10087,35.753383 28.306023,35.705758 28.457689,35.598053 28.643058,35.513061 28.693613,35.489615 29.180117,35.422208 29.365487,35.422208 29.563312,35.422208 29.829278,35.48522 30.088648,35.542369 30.586876,35.653005 30.980329,35.885266 31.413346,36.114598 31.431663,36.124122 31.482952,36.129251 31.504199,36.144637 31.515923,36.152697 31.523249,36.198857 31.53424,36.205451 31.640479,36.261867 31.751115,36.27066 31.835374,36.325611 31.914504,36.377632 31.99803,36.502921 32.106468,36.596705 32.132112,36.618685 32.171677,36.637003 32.197322,36.657518 32.234688,36.687558 32.266926,36.738846 32.318214,36.778411 32.332868,36.790134 32.395147,36.793797 32.408334,36.808452 32.425919,36.828966 32.424454,36.876591 32.438375,36.899305 32.451563,36.919819 32.486,36.941068 32.499187,36.959384 32.514575,36.982098 32.511644,37.025327 32.529228,37.050238 32.556338,37.086139 32.635467,37.16527 32.679429,37.231212 32.7124,37.279569 32.765153,37.341115 32.770282,37.351372 32.805451,37.427572 32.801054,37.551396 32.830362,37.652507 32.857472,37.745558 32.912423,37.829816 32.921215,37.89356 32.960047,38.188101 32.861868,38.592543 32.860402,38.977204 32.859669,39.317172 32.969572,39.619771 32.800323,39.850567 32.556338,40.011759 32.75343,40.479212 32.830362,40.75397 32.897037,40.99942 32.99888,41.211167 33.00987,41.420714 z M 33.190844,56.780023 C 33.088268,56.799073 32.910225,56.741191 32.858938,56.810064 32.939533,56.867946 33.138823,56.8445 33.190844,56.780023 z M 22.770575,57.562533 C 22.695108,57.703208 22.648217,57.84535 22.619641,58.013868 22.580809,58.242466 22.552234,58.45641 22.558829,58.706989 22.699505,58.706989 22.84018,58.706989 22.980856,58.706989 22.961074,58.234407 23.021154,57.682694 22.950816,57.261399 22.903924,57.391816 22.829923,57.45263 22.770575,57.562533 z M 21.50596,60.905049 C 21.449542,60.930693 21.407046,60.992239 21.355026,61.02521 21.297877,61.062577 21.232667,61.086023 21.174785,61.116063 21.053159,61.178341 20.911751,61.245749 20.78353,61.297037 20.672894,61.340997 20.549071,61.343196 20.452356,61.387157 20.443564,61.39082 20.432573,61.439178 20.422316,61.447238 20.399603,61.464089 20.351978,61.465554 20.331463,61.476545 19.920425,61.720529 19.51818,62.020931 19.156966,62.289827 18.983319,62.420245 18.801613,62.549198 18.704897,62.741895 19.472754,63.432085 20.304353,64.207268 21.054625,64.909914 21.254648,65.098214 21.467859,65.294575 21.656893,65.452102 21.700854,65.488737 21.823946,65.659452 21.837866,65.542222 21.837866,64.980252 21.837866,64.419014 21.837866,63.855578 21.842995,63.770586 21.640774,63.892212 21.686933,63.765457 21.66715,62.801975 21.72723,61.757896 21.656893,60.844236 21.631982,60.916772 21.553584,60.884534 21.50596,60.905049 z M 16.597691,63.043761 C 16.538343,63.100911 16.390341,63.138277 16.446757,63.224002 16.512699,63.267963 16.595492,63.12802 16.627732,63.043761 16.694406,63.008592 16.816031,62.873045 16.777932,62.832748 16.72811,62.892828 16.666564,62.974156 16.597691,63.043761 z M 21.777053,67.560041 C 21.731627,67.465525 21.624654,67.431088 21.62612,67.28968 21.582891,67.198094 21.620991,67.109439 21.656893,67.018586 21.221677,66.563588 20.800382,66.076351 20.391543,65.633808 20.283106,65.515846 20.146093,65.401547 20.060368,65.301901 20.021536,65.257207 20.009814,65.194929 19.970248,65.151701 19.903574,65.079164 19.826641,65.014688 19.759234,64.940687 19.511586,64.669592 19.217779,64.375786 19.006765,64.12887 18.757651,63.836528 18.443329,63.487037 18.193482,63.255507 18.192017,63.236458 18.189819,63.218873 18.163442,63.224735 17.902606,63.506819 17.698187,63.843855 17.470321,64.158178 18.286533,64.907716 19.097619,65.663116 19.909436,66.417051 20.158549,66.647847 20.429642,66.909416 20.662638,67.108707 20.899295,67.310928 21.141081,67.562973 21.355026,67.741747 21.495702,67.858245 21.615863,67.982068 21.747013,68.102962 21.840797,68.188687 21.944106,68.316906 22.04888,68.404096 22.185892,68.516931 22.298725,68.598991 22.500214,68.553564 22.491422,68.363799 22.505343,68.198212 22.530987,68.041416 22.467975,68.062665 22.46358,67.995257 22.410093,67.982068 22.215933,67.935177 21.969017,68.040683 21.837866,67.952029 21.881828,67.757867 21.742617,67.746144 21.777053,67.560041 z M 41.141226,63.70611 C 40.411471,63.7171 39.837044,63.643099 39.213528,63.615989 38.707974,63.594009 38.292541,63.583018 37.79871,63.585217 37.774532,63.592543 37.762075,63.610861 37.768669,63.645297 37.768669,63.665079 37.768669,63.685595 37.768669,63.70611 38.500624,63.776448 39.362996,63.716367 40.146238,63.73615 40.226834,63.726625 40.119129,63.904668 40.237823,63.856311 40.497927,63.830667 40.884786,63.890015 41.140494,63.856311 41.215228,63.846053 41.377884,63.891479 41.321467,63.73615 41.315606,63.640169 41.176395,63.705378 41.141226,63.70611 z M 15.844489,63.796231 C 15.791003,63.803557 15.784408,63.856311 15.753636,63.886351 15.660585,63.979402 15.570464,64.049739 15.482541,64.157445 15.463492,64.180891 15.470086,64.226317 15.452502,64.247565 15.43272,64.27321 15.382896,64.282002 15.362382,64.307646 15.342599,64.331092 15.349194,64.376519 15.331609,64.398499 15.311826,64.42341 15.261271,64.432935 15.241488,64.458579 15.22317,64.482758 15.226102,64.526718 15.210715,64.549432 15.20925,64.550898 15.185071,64.574344 15.180676,64.578739 15.113268,64.64981 15.078099,64.720148 15.030475,64.789753 14.950611,64.901855 14.859758,65.011025 14.78942,65.120927 14.642883,65.348793 14.530049,65.598639 14.397433,65.843357 14.364462,65.904903 14.305847,65.933477 14.277273,65.99429 14.246499,66.055103 14.246499,66.140828 14.217192,66.204571 14.125607,66.400199 14.01204,66.600955 13.946098,66.7768 13.889681,66.926268 13.840592,67.050092 13.795897,67.168054 13.715302,67.375404 13.647162,67.579823 13.584152,67.79963 13.374602,68.53598 13.248581,69.342668 13.192896,70.209436 13.661816,70.196248 14.127071,70.179396 14.578407,70.148624 14.403294,67.53513 15.082495,65.540757 16.023998,63.945698 15.946333,63.915659 15.92362,63.827003 15.844489,63.796231 z M 22.530254,63.82627 C 22.530254,63.856311 22.530254,63.886351 22.530254,63.916392 22.548571,64.592661 22.506075,65.38616 22.530254,66.024331 22.533185,66.115917 22.486293,66.241939 22.590334,66.295424 22.614513,65.587649 22.706099,64.669592 22.711227,64.037284 22.711227,63.995521 22.760318,63.837994 22.651148,63.82627 22.610116,63.82627 22.569819,63.82627 22.530254,63.82627 z M 23.824911,64.338418 C 23.915031,64.338418 24.005885,64.338418 24.096005,64.338418 24.13557,64.19701 24.126778,64.007976 24.126045,63.82627 24.025667,63.82627 23.925289,63.82627 23.824911,63.82627 23.824911,63.997719 23.824911,64.167702 23.824911,64.338418 z M 25.571637,63.82627 C 25.430227,63.84532 25.210422,63.787438 25.119569,63.856311 25.260977,63.837261 25.48005,63.895876 25.571637,63.82627 z M 16.928866,65.090888 C 16.885637,65.200791 16.799912,65.312892 16.747891,65.422794 16.699534,65.525371 16.654107,65.608164 16.627732,65.663849 16.607216,65.706345 16.626999,65.754702 16.627732,65.753236 16.557393,65.971577 16.489986,66.172333 16.416718,66.325464 16.390341,66.381149 16.34931,66.448556 16.326597,66.506438 16.266517,66.663233 16.224021,66.868386 16.175664,67.048626 16.123643,67.241323 16.053305,67.435485 16.02473,67.620122 15.995422,67.808422 16.01374,68.018703 15.993957,68.221658 15.975641,68.414354 15.919223,68.613645 15.933876,68.824659 17.364813,68.758717 18.793553,68.692043 20.239877,68.643685 20.253798,68.533781 20.148291,68.49788 20.088943,68.433403 20.009814,68.345481 19.895514,68.23338 19.848622,68.16231 19.773888,68.050208 19.642737,67.96888 19.576795,67.891215 19.558478,67.868502 19.562875,67.821611 19.546023,67.800362 19.533567,67.783511 19.502794,67.758599 19.485942,67.741015 19.354792,67.595943 19.196531,67.463326 19.064647,67.318255 18.997239,67.244987 18.951813,67.151935 18.883673,67.078666 18.796483,66.983417 18.667531,66.890366 18.612579,66.807572 18.564954,66.734304 18.512933,66.683016 18.461645,66.626598 18.32097,66.472002 18.107026,66.291029 18.009579,66.145224 17.952428,66.058766 17.887219,66.028726 17.829337,65.96425 17.761197,65.890248 17.716503,65.797198 17.648364,65.723928 17.561174,65.62868 17.432953,65.535628 17.37727,65.452835 17.269565,65.290178 17.097384,65.193464 17.016055,65.03154 16.985282,65.03154 16.980154,65.006628 16.955243,65.000767 16.910548,65.000767 16.942786,65.054986 16.928866,65.090888 z M 23.915031,65.633808 C 23.93628,65.573728 23.995627,65.553213 24.065966,65.542955 24.065966,65.372239 24.065966,65.201523 24.065966,65.03154 23.995627,65.03154 23.926022,65.03154 23.855684,65.03154 23.87913,65.227168 23.797801,65.5305 23.915031,65.633808 z M 39.785757,65.241821 C 37.918138,65.241821 35.678315,65.217642 33.973353,65.272593 34.077395,65.378834 34.238585,65.328278 34.364609,65.331941 35.424073,65.363446 36.49233,65.331941 37.526883,65.331941 38.644963,65.331941 39.862688,65.396417 40.92948,65.331941 40.971243,65.329011 41.110453,65.378834 41.110453,65.272593 41.110453,65.201523 41.110453,65.131918 41.110453,65.061581 41.096533,64.993441 40.962451,65.049124 40.899439,65.03154 40.755834,65.315089 40.226834,65.241821 39.785757,65.241821 z M 26.535119,65.241821 C 26.095507,65.219841 25.609736,65.258673 25.209689,65.241821 25.186242,65.248415 25.175253,65.266732 25.179648,65.301901 25.682271,65.372239 26.313848,65.312159 26.866294,65.331941 26.841382,65.177345 26.635497,65.246949 26.535119,65.241821 z M 27.197467,65.331941 C 27.373312,65.371507 27.824647,65.350991 27.830508,65.241821 27.589455,65.241821 27.348401,65.241821 27.10808,65.241821 27.083169,65.309228 27.152773,65.321683 27.197467,65.331941 z M 29.305407,65.241821 C 29.282694,65.248415 29.27097,65.266732 29.275367,65.301901 29.243862,65.3041 29.251921,65.340733 29.305407,65.331941 29.907675,65.312159 30.637431,65.359051 31.203065,65.331941 31.258017,65.329011 31.406019,65.381031 31.414079,65.272593 30.771513,65.201523 29.998528,65.261604 29.305407,65.241821 z M 25.26977,67.560041 C 25.320325,67.587151 25.362088,67.522674 25.390662,67.500694 25.713778,67.244254 26.003921,66.90795 26.294065,66.657372 25.943108,66.657372 25.592151,66.657372 25.240462,66.657372 25.222144,66.986347 25.293215,67.226669 25.26977,67.560041 z M 27.318361,67.409841 C 27.171091,67.570299 27.027484,67.716836 26.896333,67.861176 26.721221,68.055338 26.530723,68.261222 26.384185,68.434136 26.395176,68.421681 26.220797,68.515465 26.354145,68.523525 28.046652,68.629031 29.813158,68.658339 31.503466,68.764578 31.48808,68.057535 31.460239,67.362215 31.442654,66.656639 30.298198,66.656639 29.153741,66.656639 28.010017,66.656639 27.770429,66.899158 27.53084,67.179044 27.318361,67.409841 z M 32.135775,66.747492 C 32.135775,66.978288 32.135775,67.209817 32.135775,67.440613 32.135775,67.500694 32.135775,67.560041 32.135775,67.620855 32.135775,67.650894 32.135775,67.680934 32.135775,67.710975 32.135775,67.727827 32.160687,67.745411 32.166548,67.710975 32.155557,67.34976 32.220035,67.061814 32.196589,66.687411 32.189994,66.664698 32.170945,66.652242 32.135775,66.657372 32.135775,66.687411 32.135775,66.718185 32.135775,66.747492 z M 34.484769,66.747492 C 34.646693,67.40398 34.702376,68.160844 34.755863,68.886204 34.773448,69.120664 34.826933,69.367579 34.846716,69.608633 34.935371,70.640256 34.866498,71.711444 34.696515,72.650016 35.287793,72.650016 35.882002,72.650016 36.47328,72.650016 37.196442,72.650016 38.066873,72.728413 38.581952,72.589202 38.899938,72.504211 39.145388,72.274148 39.362996,72.1386 39.391571,72.121749 39.426008,72.126877 39.454582,72.107827 39.500009,72.076322 39.530781,72.019172 39.574743,71.987667 39.60112,71.968617 39.64215,71.975211 39.665596,71.957626 39.791618,71.860912 39.96673,71.740018 40.056117,71.656492 40.080296,71.634512 40.119129,71.646234 40.146238,71.625719 40.187268,71.59568 40.225368,71.534866 40.267864,71.506291 40.292775,71.487974 40.335271,71.490172 40.357252,71.476251 40.451768,71.416904 40.563869,71.305535 40.628346,71.265238 40.655456,71.248386 40.689891,71.254247 40.717733,71.235198 40.760229,71.20589 40.793933,71.146542 40.83936,71.115037 40.93241,71.049095 41.070889,71.016857 41.110453,70.904023 41.110453,69.487739 41.110453,68.072922 41.110453,66.657372 38.901403,66.657372 36.693086,66.657372 34.484036,66.657372 34.445936,66.657372 34.447402,66.740898 34.484769,66.747492 z M 41.742763,66.747492 C 41.745693,66.850068 41.739831,66.978288 41.742763,67.108707 41.745693,67.228868 41.698801,67.443544 41.802842,67.440613 41.87318,67.239857 41.8131,66.90795 41.834348,66.657372 41.802842,66.657372 41.772802,66.657372 41.742763,66.657372 41.742763,66.687411 41.742763,66.718185 41.742763,66.747492 z M 32.828897,68.826124 C 32.959315,68.826124 33.090466,68.826124 33.220884,68.826124 33.089001,68.355006 32.984226,67.857512 32.828897,67.409841 32.828897,67.880959 32.828897,68.353541 32.828897,68.826124 z M 41.742763,68.193082 C 41.742763,68.862758 41.742763,69.53976 41.742763,70.210901 41.742763,70.895963 41.747158,71.561976 41.834348,72.167907 41.834348,70.812437 41.834348,69.458432 41.834348,68.102962 41.802842,68.102962 41.772802,68.102962 41.742763,68.102962 41.742763,68.133002 41.742763,68.163043 41.742763,68.193082 z M 42.555311,68.283204 C 42.695988,68.263421 42.916526,68.322768 43.007379,68.253163 42.955359,68.226053 42.952428,68.147656 42.916526,68.102962 42.796366,68.102962 42.676938,68.102962 42.555311,68.102962 42.555311,68.163043 42.555311,68.22239 42.555311,68.283204 z M 20.812837,69.759567 C 19.218512,69.6841 17.471786,69.58885 15.934609,69.548553 15.969046,69.714872 15.94267,69.941273 15.99469,70.090009 17.80809,70.016007 19.637608,69.957392 21.415107,69.848954 21.253183,69.695823 21.006999,69.768359 20.812837,69.759567 z M 32.798857,69.577861 C 32.798857,69.789606 32.798857,69.999888 32.798857,70.210901 32.990088,70.220427 33.226745,70.185257 33.371085,70.240941 33.354233,70.007214 33.319797,69.791072 33.311004,69.548553 33.128565,69.54782 32.940266,69.538295 32.798857,69.577861 z M 31.473427,69.608633 C 30.649155,69.681902 29.693731,69.689961 28.793259,69.728794 27.919164,69.766161 27.036276,69.796934 26.203945,69.879728 26.376126,69.988898 26.58421,69.931749 26.775441,69.94054 28.318478,70.001353 30.035163,70.097335 31.533507,70.150088 31.513724,69.979373 31.573072,69.729527 31.503466,69.608633 31.493942,69.608633 31.483684,69.608633 31.473427,69.608633 z M 13.194362,71.115037 C 13.396583,73.913899 14.420147,75.892154 15.844489,77.468896 16.042315,77.164831 16.372023,76.913519 16.566918,76.655614 16.668029,76.521532 16.816031,76.403569 16.898092,76.294399 16.981618,76.184496 17.098116,76.12002 17.139147,75.993998 15.99469,74.698607 15.113268,73.140915 14.730072,71.08573 14.195944,71.087927 13.690391,71.06155 13.194362,71.024917 13.194362,71.054224 13.194362,71.084997 13.194362,71.115037 z M 32.798857,72.408961 C 32.824501,72.173037 32.954919,72.042618 32.97983,71.807425 33.008406,71.774455 33.091199,71.797169 33.070683,71.716572 33.126367,71.490905 33.184982,71.268901 33.251658,71.054224 33.100724,71.054224 32.949791,71.054224 32.79959,71.054224 32.84062,71.52754 32.725588,72.004519 32.798857,72.408961 z M 27.558682,71.295277 C 27.531573,71.374408 27.641476,71.402983 27.679576,71.445478 27.731596,71.506291 27.777023,71.570036 27.830508,71.625719 27.908906,71.710711 28.018077,71.800099 28.071563,71.866773 28.103068,71.907803 28.098672,71.950299 28.131644,71.987667 28.234219,72.099035 28.360974,72.208938 28.462818,72.318108 28.517036,72.37599 28.562463,72.445596 28.613751,72.499082 28.665039,72.553301 28.717792,72.633896 28.794724,72.650016 29.738424,72.650016 30.682126,72.650016 31.625826,72.650016 31.570874,72.172304 31.613369,71.597144 31.565012,71.114304 30.232988,71.17878 28.87532,71.216148 27.558682,71.295277 z M 16.205704,71.265238 C 16.287032,71.689463 16.415985,72.196483 16.597691,72.469774 16.703931,72.630966 16.797714,72.889604 16.868785,73.042003 16.879043,73.063983 16.883439,73.089627 16.898825,73.132123 16.97649,73.341672 17.043164,73.501397 17.139879,73.643539 17.23293,73.782016 17.327447,73.910236 17.410973,74.035526 17.455667,74.1022 17.517212,74.150557 17.561907,74.216499 17.745811,74.481732 17.882824,74.779935 18.134135,74.968237 18.945219,74.064833 19.77169,73.162163 20.573249,72.288068 20.707331,72.142996 20.862661,72.011845 20.994544,71.866773 21.062684,71.792772 21.10811,71.699721 21.175517,71.625719 21.24439,71.550253 21.368947,71.504826 21.386531,71.385398 19.650065,71.31506 17.93924,71.218346 16.177128,71.174385 16.180792,71.210286 16.170534,71.260109 16.205704,71.265238 z M 27.107347,72.499082 C 27.082436,72.475635 27.072911,72.430942 27.046534,72.408961 27.015761,72.381851 26.960078,72.379654 26.925641,72.348149 26.836253,72.26682 26.759322,72.142996 26.684588,72.077787 26.64722,72.045549 26.595932,72.046282 26.563694,72.017707 26.459652,71.92319 26.318976,71.723166 26.172439,71.656492 26.16438,71.652829 26.151191,71.603739 26.142399,71.59568 26.048616,71.517282 25.924058,71.375141 25.840532,71.355358 25.631716,71.30407 25.45807,71.435221 25.238996,71.385398 25.153273,71.627185 25.426564,71.767861 25.54013,71.896814 25.584825,71.948101 25.6134,72.026499 25.660291,72.077787 25.694728,72.115886 25.762868,72.148857 25.811225,72.197948 25.9519,72.343019 26.110893,72.608253 26.263292,72.650016 26.558564,72.730611 26.845045,72.591401 27.226775,72.650016 27.24729,72.567221 27.150576,72.541577 27.107347,72.499082 z M 40.357252,72.228721 C 40.324281,72.250701 40.308162,72.292464 40.267864,72.318108 40.225368,72.346683 40.158694,72.349613 40.116198,72.378921 40.081761,72.403833 40.059781,72.445596 40.02681,72.469042 39.991641,72.493953 39.94768,72.50128 39.905184,72.529122 39.836311,72.576746 39.768904,72.65954 39.695635,72.710095 39.665596,72.729145 39.607714,72.747463 39.574743,72.770176 39.209131,73.032478 38.795897,73.243492 38.248579,73.282324 37.176659,73.358523 35.908379,73.225174 34.575622,73.282324 34.512611,73.540962 34.442273,73.791541 34.364609,74.034793 35.851229,73.952732 37.513695,74.157884 38.760728,74.004753 38.85964,73.992297 38.982731,73.993763 39.063327,73.97398 39.107289,73.96299 39.157843,73.908038 39.212795,73.883859 39.275806,73.857483 39.379115,73.84576 39.423809,73.823779 39.538841,73.76663 39.719081,73.614963 39.785024,73.552686 39.80847,73.529972 39.845836,73.542428 39.874411,73.522645 39.910313,73.498466 39.924967,73.459634 39.965997,73.431792 40.130851,73.321889 40.275924,73.219312 40.416599,73.13139 40.521374,73.066914 40.557275,73.033943 40.627613,72.98119 40.825438,72.83392 41.052571,72.72475 41.199109,72.559162 41.152949,72.438269 41.167603,72.244107 41.139761,72.167907 41.131702,72.14959 41.084077,72.10563 41.109721,72.048479 41.109721,71.947368 41.109721,71.84699 41.109721,71.746612 41.108255,71.729029 41.104592,71.711444 41.079681,71.716572 40.879658,71.905605 40.579256,72.076322 40.357252,72.228721 z M 22.259161,72.650016 C 22.201278,72.702768 22.141932,72.769443 22.108228,72.800215 22.08698,72.819998 22.040821,72.810473 22.018107,72.830256 21.900877,72.937228 21.812222,73.078637 21.716973,73.162163 21.675942,73.197332 21.610733,73.211253 21.566039,73.251551 21.275896,73.517516 20.999673,73.814987 20.692677,74.094873 20.559328,74.217232 20.395206,74.343254 20.24061,74.486128 19.893316,74.809242 19.716738,74.979226 19.337207,75.32945 19.266869,75.393927 18.884406,75.714844 18.885872,75.750746 18.888802,75.818886 19.38703,76.114159 19.427327,76.142 19.473487,76.174238 19.506458,76.23212 19.547488,76.262894 19.57533,76.281944 19.614163,76.273883 19.638341,76.292201 19.777551,76.398441 19.941674,76.520066 20.060368,76.593335 20.077953,76.605058 20.1014,76.640227 20.121181,76.653415 20.312413,76.780903 20.577646,76.909124 20.753491,76.985322 20.809907,77.008769 20.878047,77.019026 20.933731,77.04467 21.048763,77.100355 21.148408,77.195603 21.234865,77.225644 21.318391,77.254951 21.418037,77.231505 21.50596,77.255684 21.650298,77.295981 21.760934,77.409548 21.927254,77.406617 21.960957,77.452777 22.014444,77.479886 22.048148,77.526778 22.289933,77.545827 22.462114,77.634483 22.679722,77.676979 22.620374,76.713496 22.591067,75.717775 22.558829,74.726449 22.05694,74.705934 21.475186,74.766746 21.023118,74.696409 21.035575,74.46781 20.993811,74.184994 21.053892,74.00402 21.544792,74.00402 22.03789,74.00402 22.529521,74.00402 22.533918,73.748312 22.476767,73.55415 22.498749,73.281591 22.426945,73.263274 22.280408,73.318959 22.257695,73.250819 22.191022,73.094756 22.238645,72.817067 22.259161,72.650016 22.390311,72.661738 22.521462,72.67053 22.469441,72.499082 22.35734,72.455854 22.31924,72.595064 22.259161,72.650016 z M 24.005885,72.619975 C 24.009548,72.579677 24.009548,72.400902 23.975112,72.499082 23.971449,72.53938 23.970716,72.717422 24.005885,72.619975 z M 27.137387,73.674311 C 27.245825,73.793006 27.346203,73.964455 27.498602,74.005485 27.666387,74.050912 27.902312,74.005485 28.10087,74.005485 28.290637,74.005485 28.484065,74.005485 28.703138,74.005485 28.791061,73.988633 28.65698,73.958593 28.673099,73.914632 28.457689,73.798868 28.352182,73.5732 28.130911,73.463297 28.043721,73.219312 27.690566,73.283057 27.348401,73.283057 27.13519,73.283057 26.938096,73.260344 26.806213,73.313096 26.907324,73.417871 27.018693,73.544626 27.137387,73.674311 z M 29.877635,73.884592 C 29.925993,73.936613 29.980945,74.018674 30.058609,74.035526 30.690918,74.035526 31.323226,74.035526 31.955534,74.035526 31.954069,73.97398 32.022208,73.963723 32.046388,73.914632 32.129182,73.747579 32.046388,73.480882 32.076428,73.283057 31.173025,73.302107 30.189026,73.242759 29.335448,73.313096 29.544996,73.476486 29.716444,73.71241 29.877635,73.884592 z M 25.119569,74.005485 C 25.280759,73.986436 25.520348,74.045051 25.631716,73.974712 25.434624,73.869939 25.324721,73.680172 25.148876,73.553417 25.088063,73.652331 25.13349,73.858948 25.119569,74.005485 z M 23.915031,74.727914 C 23.880596,74.732311 23.882793,74.77554 23.884991,74.818035 23.808059,75.804965 23.790475,76.85124 23.734058,77.859418 23.919428,77.844031 24.022004,77.912903 24.216165,77.888725 24.211037,77.134058 24.15755,76.354479 24.125312,75.631317 24.115787,75.417373 24.145095,75.204894 24.125312,74.998276 24.118718,74.932335 24.111392,74.723519 24.034459,74.727914 23.995627,74.727914 23.95533,74.727914 23.915031,74.727914 z M 28.643058,76.805082 C 28.533888,76.69811 28.467213,76.587474 28.371965,76.50468 28.317012,76.456323 28.24521,76.432876 28.19099,76.383786 27.968254,76.177902 27.700823,75.890688 27.468562,75.691398 27.200399,75.462799 26.968869,75.232003 26.716093,74.999009 26.584941,74.879581 26.475771,74.753558 26.384185,74.728647 26.21347,74.682488 25.971683,74.728647 25.75261,74.728647 25.538665,74.728647 25.253651,74.728647 25.090261,74.728647 25.026518,75.780052 24.997942,76.864429 24.939327,77.920231 25.384801,77.844031 25.847127,77.877002 26.264758,77.80007 26.397374,77.775159 26.516801,77.717276 26.656012,77.679176 26.906591,77.61177 27.165962,77.553155 27.408481,77.498936 27.420205,77.496005 27.483215,77.443985 27.499334,77.438855 27.535969,77.427133 27.582128,77.446915 27.620228,77.438855 27.631218,77.435925 27.694962,77.384637 27.710348,77.378042 27.774092,77.355329 27.867143,77.345804 27.921362,77.317962 28.011483,77.271803 28.078157,77.184614 28.162416,77.137721 28.260596,77.082037 28.367568,77.060056 28.46355,77.016096 28.547077,76.979461 28.626939,76.872489 28.735376,76.926707 28.804982,76.847577 28.6709,76.833657 28.643058,76.805082 z M 29.636582,76.383786 C 29.912072,76.117821 30.304792,75.968353 30.539252,75.661358 30.301861,75.476721 30.021975,75.152873 29.786782,74.938929 29.767,74.922077 29.716444,74.924275 29.696661,74.908889 29.601413,74.836352 29.584561,74.755757 29.485648,74.728647 29.365487,74.695676 29.070947,74.728647 28.823299,74.728647 28.553671,74.728647 28.206378,74.705934 28.10087,74.757955 28.647455,75.265707 29.095126,75.871638 29.636582,76.383786 z M 31.022092,75.14921 C 31.118806,75.116972 31.195738,75.035643 31.263145,74.968237 31.32982,74.900828 31.411149,74.825363 31.443387,74.727914 31.192075,74.747697 30.861633,74.687617 30.660877,74.757222 30.808879,74.860531 30.908526,75.012197 31.022092,75.14921 z M 40.056117,75.842331 C 40.111801,75.983007 40.335271,76.075325 40.417332,76.143465 40.503789,76.213804 40.592444,76.271686 40.658386,76.323706 40.750704,76.064336 40.858409,75.821817 40.92948,75.54193 40.532364,75.536069 40.321351,75.715576 40.056117,75.842331 z M 39.454582,76.956015 C 39.628228,76.918648 39.794548,76.876153 39.99677,76.865895 40.054652,76.745001 40.212179,76.720823 40.267864,76.5948 40.114732,76.426282 40.018751,76.201348 39.845103,76.053345 39.659735,76.298063 39.47876,76.549373 39.454582,76.956015 z M 17.892349,76.745734 C 17.854249,76.743536 17.850586,76.706169 17.802228,76.715694 17.683532,76.869558 17.54652,76.980926 17.41024,77.106949 17.323783,77.186811 17.237327,77.289387 17.169187,77.348002 17.131086,77.380973 17.083462,77.375845 17.049026,77.408083 16.922271,77.523114 16.825557,77.676246 16.687078,77.738524 16.67902,77.742188 16.665831,77.791278 16.656306,77.799337 16.566918,77.875537 16.449688,77.948072 16.415252,78.070432 18.027895,79.479387 19.938743,80.589408 22.79915,80.749866 22.758852,80.237719 22.73907,79.705788 22.73907,79.154075 20.71539,78.760622 19.167223,77.889457 17.892349,76.745734 z M 30.570024,77.438122 C 30.632303,77.446182 30.630837,77.518719 30.660877,77.558283 30.745136,77.538501 30.787632,77.43446 30.84185,77.377309 30.89607,77.32016 30.962011,77.289387 30.992785,77.257149 31.013299,77.235169 31.002309,77.191208 31.022824,77.167029 31.075578,77.105483 31.151778,77.051265 31.203798,76.986788 31.23164,76.950887 31.2397,76.898866 31.264611,76.865895 31.279997,76.844646 31.37891,76.821201 31.324691,76.775042 31.118073,77.042471 30.783968,77.179484 30.570024,77.438122 z M 39.484623,77.408083 C 39.532247,77.335547 39.592327,77.274734 39.63409,77.197069 39.536642,77.214653 39.495612,77.176554 39.424542,77.167029 39.443591,77.248357 39.436264,77.354596 39.484623,77.408083 z M 41.26212,78.040391 C 41.319269,78.033797 41.328061,78.074827 41.382281,78.071164 41.372756,77.951003 41.452618,77.919498 41.441627,77.80007 41.396201,77.784684 41.365429,77.754643 41.3222,77.739257 41.289229,77.82718 41.294358,77.952469 41.26212,78.040391 z M 29.847595,77.920231 C 29.723771,77.88726 29.39333,78.159086 29.275367,78.221365 29.148612,78.287307 29.010135,78.317347 28.88338,78.371566 28.83722,78.392081 28.809379,78.44117 28.763219,78.461686 28.594701,78.538618 28.402737,78.605293 28.221031,78.6727 26.973998,79.138688 25.388464,79.45814 23.673977,79.305008 23.649066,79.781987 23.618294,80.253105 23.613165,80.750599 25.14741,80.737411 26.486029,80.31465 27.52791,79.847196 27.999026,79.636915 28.42545,79.394397 28.823299,79.125499 28.897301,79.075678 28.977896,79.029518 29.034313,79.00534 29.043837,79.000211 29.053362,78.951853 29.065086,78.945259 29.079007,78.934268 29.10978,78.951853 29.125166,78.945259 29.134691,78.940863 29.144215,78.892505 29.155206,78.883713 29.216019,78.843415 29.277564,78.836821 29.336179,78.793593 29.389666,78.755494 29.427766,78.689552 29.487114,78.643392 29.692998,78.482202 29.960429,78.350317 30.089381,78.101937 29.962627,78.009618 29.94724,77.946608 29.847595,77.920231 z M 40.116198,78.401606 C 40.325746,78.515904 40.60783,78.710067 40.92948,78.61262 40.913361,78.35105 40.866469,78.326872 40.749239,78.160552 40.674505,78.055044 40.620287,77.930488 40.538226,77.889457 40.363113,78.025737 40.163089,78.137839 40.116198,78.401606 z M 42.977339,78.70274 C 43.189086,78.691016 43.307047,78.774544 43.519527,78.763553 43.474101,78.515904 43.453585,78.247009 43.308513,78.101204 43.226452,78.328337 43.085777,78.499785 42.977339,78.70274 z M 42.525271,79.244195 C 42.635907,79.364356 42.701849,79.501369 42.796366,79.636183 42.883555,79.760007 43.007379,79.875771 43.067459,80.027437 43.199344,79.997397 43.255027,79.850127 43.308513,79.756343 43.419149,79.566578 43.490953,79.277167 43.519527,79.063954 43.518061,79.04637 43.515131,79.028785 43.489487,79.033915 43.197878,79.135757 42.796366,79.124035 42.525271,79.244195 z M 40.448837,80.088984 C 40.54775,79.906544 40.700149,79.779056 40.77928,79.576835 40.466422,79.598083 40.31329,79.460338 40.056117,79.426635 40.13305,79.700659 40.265666,79.919 40.448837,80.088984 z M 40.628346,80.239183 C 40.635673,80.30659 40.722862,80.349086 40.77928,80.389385 41.004214,80.54911 41.40133,80.697113 41.681949,80.660478 41.599889,80.362275 41.561056,80.017912 41.500975,79.696995 41.495114,79.67355 41.475332,79.661826 41.440896,79.667688 41.183722,79.86991 40.913361,80.061141 40.628346,80.239183 z M 41.923736,80.660478 C 42.375803,80.630439 42.693789,80.465583 42.916526,80.208411 42.622718,80.05015 42.393388,79.828147 42.104709,79.667688 42.013856,79.967357 41.97942,80.324175 41.923736,80.660478 z"
     id="path3096" /></svg>