<svg xmlns="http://www.w3.org/2000/svg" width="100" height="100"><circle fill="#B2B2B2" cx="50" cy="50" r="50"/><path d="M42.401 72.167c-.048.108-.048.373-.048.433l-.193.864-.06.897s-.12.139-.12.246c0 0-.144.961-.108.986.036.022.12.227.12.335 0 .109 0 .59-.036.613l.024.265s-.024.864-.072.912l-.205.313.108.457.793-.444s-.192-.097-.096-.288c.096-.193.24-.986.24-1.154s-.048-.205-.096-.241c-.048-.035-.24-.155-.252-.3-.012-.145.181-.648.24-.734l.132-.239.217-1.081s-.036-.193 0-.229c.036-.036.276-.806.252-.89-.024-.084-.793-1.658-.793-1.658s.002.828-.047.937zM37.604 56.565c-.052-.488.263-.946.361-1.066.098-.121.285-.136.285-.136l-.075-.15-.63-.209s-.608 2.05-.316 3.318c.293 1.269 1.165 1.291 1.165 1.291l.052-.503.127-1.351s-.465-.167-.593-.271c-.128-.104-.323-.434-.376-.923zM37.677 53.51l-.213.055.178.064.035-.119zM38.589 53.483c.035-.154.017-.311.017-.311s-.047.082-.148.112l-.374.122-.136.3.406.136c0 .001.199-.203.235-.359zM38.235 55.987l.044-.083s-.007-.211-.097-.203c0 0-.309.376-.301.729.008.354.053.669.196.781.143.112.548.294.548.294l.06-.114-.443-1.291-.007-.113zM47.583 65.41s-.127-.502-.277-1.028c-.151-.525-.542-1.426-.542-1.426h-.217l-.008.111c0 .062-.09.263-.09.263s-.045.158-.007.264l-.09.488.477.443-.144.325s.115 1.034.086 1.513c-.029.479-.335 1.082-.373 1.129-.038.048.038.278.038.278s.326.623.44 1.023c.115.403.058 1.321.039 1.408l-.115.257c-.039.106.019.317.095.365l.058.277.038.259c.02.028-.019.306-.067.372-.048.068.01.345.01.345.45-.632.769-2.574.837-3.047.067-.474.037-1.704.037-1.704l-.045-.016-.06-.571.068-.036-.15-.82-.038-.472zM75.112 19.612c-.64-.266-.586-1.488-.586-1.488h-7.333c.116.312.135.635.103.785l.479 6.835.165 5.656-.026.985s-.09 1.358-1.275 1.676c-1.039.334-1.534-.436-1.534-.436s-.318-.362-.323-.931c-.031-.715-.268-9.793-.268-9.793l-.062-1.246s.296-.272.311-.133c.069.265.064 1.702.064 1.702l.176 6.01.091 3.327s.184 1.09.697 1.168c.45.212 1.102.038 1.455-.432.3-.488.337-.772.337-.772v-2.717l-.101-2.711-.236-3.736-.288-4.025s.071-.723-.197-1.21h-42.705v65.62l47.946.132s0-.53.291-.584c.293-.054 2.233-.452 2.233-1.143v-39.893s-.054-1.223.586-1.489c.637-.266 2.885-.742 2.885-2.461v-16.233c0-1.721-2.248-2.197-2.885-2.463zm-23.947 29.413s-.082-.006-.057.064.063.153.044.204l-.115.07.008.114-.071.014v5.092s-.025 1.008-1.237 1.34v.242l-.147.114v.308h-.307v.465l.135-.089.179-.007.069.076s.052-.236.186-.3.339-.013.415.262.013.76-.243.805c-.254.044-.306-.294-.306-.294l-.115.025-.211-.013-.02-.017h-.408l-.083.082-.306.008s-.064.21-.21.21c-.147 0-.261-.121-.261-.121l-.045.3s-.191.707-.23 1.091c-.039.382-.146 1.454-.127 1.8.019.344 0 .918 0 .918s.996 1.998 1.29 4.053c.292 2.056.204 3.676-.333 5.425-.536 1.748-2.067 3.855-2.067 3.855s0 .713-.038.827l-.141.384s.319.255.281.676c-.038.422-.434 1.864-.434 1.864v.228s-.715.384-3.815.28l-.664-.024v.204s-2.706.217-4.084.191l-2.591-.153s-.191-.293-.166-.433c.025-.142.293-.358.6-.422l.74-.142s.868-.549.97-.587c.103-.038.128-.113.128-.113l.217-.346s-.141-.165-.191-.522c-.051-.358-.076-.588.217-.791.293-.204.357-.282.357-.282l-.064-.574s.039-.127.102-.203c.064-.077-.089-1.175-.089-1.175s-.089-.422-.051-.753l.038-1.136s.051-.522.09-.778c.039-.255.281-.92.281-.92s-.255-.293-.269-.433c-.012-.141-.051-.587-.089-.626-.038-.038-.127-.408-.14-.663-.013-.255.025-1.686.217-2.464.191-.778.459-1.672.459-1.672l.064-.166s-.064-.023-.064-.127c0-.102-.013-.16.039-.229.051-.07.121-.192.102-.332-.02-.141-.026-.523-.026-.523l-.089-.064s-.077-.045-.019-.102l.121-.063s.064-.403.058-.479l-.02-.3s-.179.28-.204.46c-.026.177-.02.477-.02.477s-.281-.051-.504-.165c-.223-.113-.243-.147-.23-.229l.141-.549.255-.504.217-.307s-.051-.229.006-.286c.057-.06.089-.198.089-.198l-.076-.142.108-.555-.02-.211s-.689-.083-1.084-.676c-.396-.593-.492-1.441-.485-2.023.007-.58.211-1.511.211-1.511l.197-.829-.612-.213-.146.059-.089.108-.07-.058s-.153.114-.198.104l-.089-.059-.115-.013s-.312.529-.645.561c-.332.033-.76.007-1.085-.458-.326-.466-.274-.837-.274-.837l-.179.16-.172-.025-.313-.071-.025.084-.408-.104-.01-.064-.37-.114.057-.28-.581-.236-.077.102-.153-.058.058-.28-.555-.198s-.102.063-.23.038c-.127-.025-.613-.191-.613-.191l-.152.039-.728-.224-.058-.09.064-.224s-.006-.081-.14-.045l-.402.129-.249.019.127-.382c.058-.173.364-.971.332-1.009-.031-.038.135.045.186.115s.223.287.287.331l.102.059.058-.198.051-.083.785.198.077.083c.038.044.453.134.453.134s.357.127.371.166c.013.037.293.113.293.113l.038-.095h.268l.071-.077.191.064.006.057.134.025v.038h-.076v.051l.389.109.122-.013c.031-.025-.077-.153-.077-.153s-.096-.076-.057-.165c.038-.09.21-.16.21-.16h.102l.108.064s.019-.115.127-.129l.306-.023.21.178s.096-.033.198-.014l.198.09.147.19.16-.025.115.007.421-.242.153-.013s.057-.114.146-.178.307-.224.319-.269l.127-.172c.025-.014.044-.211.115-.301l.115-.166s.058-.224.23-.262l.172-.038.396-.849s-.02-.261.108-.517c.128-.254.485-.517.485-.517s-.095-.121.083-.446c.179-.325.44-.593.44-.593l.492-.702.127-.275s.153-.268.242-.357l.179-.178-.089-.044-.032-.083-.096-.064-.02-.032s-.178.326-.318.293c-.141-.032-.275-.057-.728-.562-.453-.504-.511-.619-.517-.753-.005-.109.077-.191.115-.21l.134-.114.058-.02v-.09l.217-.186.058.014.076-.045.249.243.141-.109.063.051.051-.077c.013-.019.127-.14.191-.172l.16-.134h-.14l-.07-.077.006-.204.077-.045v-2.689l-.769-.039s-.156-.009-.156-.076.277-.409.277-.409v-.083l.058-.105s.048-.989.112-1.238c.063-.249.108-.255.108-.255s.485-1.474 1.468-1.985c.983-.51 2.246-.69 3.274.077.982.733 1.735 2.986 2.061 3.248 0 0 .153.115.16.179.006.063-.115.133-.294.152-.179.02.645.179 1.621 1.143 0 0 .032.069-.051.153-.083.083-.472.6-1.091.727 0 0-.071.045.019.108.089.064.166.205.166.421 0 .217-.083.281-.083.281s-.083.109.019.172c.103.063-.038.243-.038.243l.166.205s.376.146.479.242c.102.096.338.268.338.268l.357.16.019-.198s.032.166.077.185c.044.019.21.198.223.262l.096.261-.044.064.006.095.095.063s.281-.459.83-.631c.548-.172 1.974-.329 2.628.613.204.293.198.485.198.485l.006 2.002h.07v.186h.115v.147h.025v1.049zm15.313 9.149c.234.311.312 3.358.312 3.358l-.026.702-.757-.052c-.051-.156-1.038-.105-1.038-.105l-.574 4.711c.13 1.383-1.225 3.907-1.225 3.907-.388.337-.623.806-.623.806.155.417-.263 3.386-.263 3.386-.129.209-.076.859-.076.859.521.204.859 1.793.859 1.793l.338.368c.156-.028.989.363.989.363.962-.053 1.327.78 1.327.78.157.494-2.654.677-2.654.677-.574-.13-2.603-.077-2.603-.077-.494.077-1.484.103-1.484.103-.26 0-.103-.44-.103-.44l-.938-.025c-.312 0-.185-1.123-.185-1.123-.311.054-.206-1.013-.206-1.013.052-.599.206-4.868-.026-5.648l-.029-.106c-.159-.786.342-2.004.342-2.004l.285-1.484c.055-.701.366-1.508.366-1.508-.159-.444-.027-3.279-.027-3.279-.493 0-1.066-.34-1.066-.34-.26 0-1.171-.39-1.171-.39-.523-.236 0-.938 0-.938-.025-.338.468-1.353.468-1.353.18-.157.416-1.563.416-1.563-.34 0-.391-.442-.391-.442-.389.026-.468-.365-.468-.365 0-.206-.702-.153-.702-.153-.365-.027-.392-.312-.392-.312 0-.233.262-.13.262-.13-.13 0-.079-.417-.079-.417.026-.287.312-.235.312-.235l.051-.364c-.413-.13-.623-1.12-.623-1.12-.023-.261-.078-.572-.078-.572-.337-.44.365-1.145.365-1.145-.026-.571.311-1.17.311-1.17-.025-.442.626-1.12.626-1.12-.052-.468.077-1.72.077-1.72-.754-.729-.154-1.562-.154-1.562.104-.262.104-.625.104-.625-.208-.808 1.301-2.368 1.301-2.368s0 .544.052.08c.053-.47 1.223-.73 1.223-.73.262-.104.652-.573.652-.573l.913-.813.109-.5-.068-.006-.212-.01-.269-.062c-.241-.023-.277-.368-.27-.556.013-.277.188-.482.366-.683.084-.095.168-.196.219-.313.058-.134.076-.281.099-.424.018-.109.035-.218.076-.323l.028-.192.059-.216.239-.778c.156-.488.383-.939.85-1.217.183-.108.35-.146.554-.195.094-.022.14-.079.218-.132l.131-.082.093-.055.106-.033.051-.076.121-.015.076-.091c.08-.034.186.015.255.052l.095.061.093.013.032.075.103.05.031.082.091.035.094.042.071.063.114.075.276.096c.148.06.285.165.401.268.493.438.599 1.107.67 1.715l-.003.237.025.219.015.47c.027.313.245.491.496.661.079.053.198.093.24.18l.014.073-.091.052-.308.078c-.147.038-.262.148-.422.129l-.219.021-.02.23.312.912c.078.26-.182.339-.182.339l-.312.103c.104.132-.077.496-.077.496l-.08.208c-.104 0-.026.338-.026.338 0 .496-.729.573-.729.573l-.415.313c.339.077 1.274 1.796 1.274 1.796l-.548.13c.287.312 1.406 3.045 1.406 3.045.444.209.702 2.553.702 2.553-.022.31-.022 1.012-.022 1.012.544.653.624 2.631.311 2.97l-.04.051c-.265.398-.193 1.634-.193 1.634zM48.562 56.287l-.128-.127-.006-.211s-.849-.172-1.206-.874c0 0-.051.542-.122.618 0 0 .217.147.313.684l.606.063.032.293-.07.027-.02.229.089-.02.039-.063s.032-.153.134-.16l.255.02.026.09.063.02v.057h.3v-.331h-.306v-.315z"/></svg>