<svg xmlns="http://www.w3.org/2000/svg" width="100" height="100"><circle fill="#B2B2B2" cx="50" cy="50" r="50"/><path d="M42.733 12.997l-1.54.472-1.196-.268-.943.401-1.133-.268-2.412.401-.999.535-.731.133-1.006.535h-.668l-.07-.331-1.4.204-.471-.612-.401.134-1.069 1.541-2.342 1.274-.732 1.005-.204 1.196-.07.07-.534.668-1.337.936-1.195.274-.876 1.203-.802.464-.668 1.4-.928.753-1.414 2.061-.331.936.19-.331.408.929-.464.872.126 1.611-.802 2.068-.936.943.739.858-.071.542.81-.133-.669.267-.274-.197-.204.865h.478l-.478.197.668.07-.331.268.401.07-.133.261.936-.261-.535.204.401.19-.464.274.204.331.26-.126-.126.26.331-.204.134.943.401.197.401.204-.204.331.338.134.063.872.337-.063-.464.134.732.732-.063.401 1.133.598 2.209 2.075 1.14.472 1.336-.668 2.076-.268 1.934.535 2.005-.936 1.407-.542 2.477-.527-.409.267 1.006.07.668.598.338-.205-.338.275.471.063-.337.063.141.204.331-.204-.331.401.668.943.732-.07v-.268l.134.268-.063-.337.198.337.133-.401.267.268.943-.071-.07-.394.33.464.338-.268.331.802.541-.134.127.268h-.261l.395.802-.669 2.005.408.07-.07.668-.338-.07.669.337-.465.134-.204-.267-.204 1.069h-.468l1.006 1.808 2.209 2.139.464 1.337.535.268-.465.133 1.203 2.406-.401.668.465.943.464 1.062-.189 1.28-1.146 1.196-.732 2.483.133 2.139 2.744 4.474.471 3.609 2.139 3.418.928 1.534.071.731-.401.274.471 1.267.337-.197 1 .668 2.272-.73 1.941.196 1.941-.535 2.878-2.005.935-1.203.401-.471 1.062-.872.872-2.265-.134.189-.268-.331 2.947-1.737.261-1.871-.598-1.604.063-.872.204.204 1.47-1.006.605-.999 3.011-1.407.134-.267.928-1.337-.189-1.941.189-.204-.133-1.471.337-.669-.598-.464-.274-.204v-.062l-.26-1.744.197-.465h-.269l.401-.872-.738-.999.472-1.407.802-1.674.204-.401.802-.465-.204-.33h.541l2.14-2.821 2.265-1.801 1.675-2.138 2.208-5.15v-.605l-.062-.338.464-.126h-.331l.064-1.4-.472-.204-1.062.668-1.814.204-.796.464-.604-.204-1.069.535-1.4-1.273-.604.07.802-.464-.133-.471-2.21-2.209-.936-.331-.203-.338-.198-.197-.062.401-1.407-3.011-1.209-.809-.528-2.265.197.127-.527-1-1.211-.872-.331-.936h.261l-.668-.535-1.801-3.144-1.006-1.069-.239-.802-.007-.014-.035-.077c-.046-.184-.155-.376-.155-.612v-.099l-.028-.31-.337.049-.197-.408-.802-.07-1.611.668-1.864-.528-1.611-.07-.267-.401-1.471-.197-.204-.408-1.203-.26-1.406.668v1.196h-.063l-.942.479-.999-.542-1.871-.464-.472-.872-1.604-.464-.928.063-1.815-.802-.134-.408 1.077-.858-.534-.809.534-.802-.534.33-.548-.535zm-23.728 12.121l.056-.085-.204.204.148-.119zm11.08-10.996l.014.021.035-.021h-.049zm-7.879 6.036l-.472.338.338-.141.134-.197zm-.472.401l-.668.668.401-.134.267-.534zm-1.8.197l-.668.204.063.337.605-.541zm.196.337l-.133.268.331-.063-.198-.205zm43.673 3.94l.338 1.077-.936.204-.873 1.133.535-1.07.802-.197.134-1.147zm-45.009 7.225l.668.542.471.999-1.14-1.47-1.533.063 1.534-.134zm52.571.802l.063.274.4.063-.4-.338h-.063zm-43.679.204l.338.401-.268.063-.07-.464zm17.665 1.745l.189.668.408-.204v.33l.936.134-1.203.605-.739-1.407.409-.126zm24.003 1.666l-.127.732-.338-.528.465-.204zm-33.705 1.007l.598.464-.197.936v.141l-.063-.141-.204-.401.394-.535-.528-.464zm-5.346 2.342l1.062 1.266.07.134.204-1.273-.274 2.94v-.331l-.063-.063-.738-.337.668.204.07-.141.134-.527-.134-.204-.204-.07h-.464l.599-.197-.668-.338-.134-.598h-.739l.675-.071-.064-.394zm7.485.465l.401.872-.401 2.469.337-2.54-.337-.801zm-11.769.534l-.267.732.133.204.26-.204-.127.535-.401-.464.402-.803zm42.468 3.609l.465 2.413-.802-1.336.337-1.077zm-28.153.942l-.542.395v.07l.267.134.275-.599zm9.695 1.401l-.471 3.011.738-1.541.873-.464.731-.401.197-.141 2.195-.176.084-.014.015.007.119-.007 2.209 1.526-2.328-1.52-.099.007-2.393.513-.731.204-.942.668.07.865-2.342 2.272-.07.942-.064-.872 1.674-1.871.535-3.008zm13.774.07l-.204.731-.731.668-.07-.464 1.005-.935zm2.075.731l-.4.141.133.331-.668-.204.935-.268zm-.134 1.203l.134.337.472-.063.261.668.478-.274.126.204-.802.267-.062.999-.803.534.668.204-.471.338-.471-.134.069.464-.267.204.062-.534-.598-.268-.4.598-.205-.872.401-2.068.669-.331.337.197.402-.47zm-3.545.669l-.535.535.134-.464.401-.071zm-20.802.739l.337.133-.337.204v-.337zm8.969.801l-.274.408.338.127-.401.604-.142-1.006.479-.133zm10.967 0l.331.464-.535.472.204-.936zm.261 1.872l.605 2.547-.269.464.866.732.541 1.878-.668-.268-.338-1.273-.936-1.203.063-2.146-.197.274.333-1.005zm9.898 2.476l-.127.464.33.338-.133-.534-.07-.268zm-7.351 1.935l.604.541-.604-.133v-.408zm-2.273.942l.394.063-.668.401.274-.464zm-.605.134l-.471.872-.394.063.062-.472.803-.463zm4.883.935l.465.472.337 1.534-.337.998.407 2.012-.605-.267-.471-1.936.408-.604-.268-1.737-.07-.274h.07l.064-.198zm-4.215 1.407h.071v.401l-.338.134.267-.535zm13.043.535l-.133.331.196.204-.063-.535zm5.283.597l-.534.465-.07.942-.527.464-.274-.196v.669h-.204l-.395.801.063-.4-.465.534.127.269-.26.133.07-.401-.479.338v.464l-.26-.267-1.605.472-.668 1.337.134 2.476-1.076 1.266-.394 1.007.133 2.61.732.394 1.871-.464 3.278-6.62.197-.999.407-.338v-1.337l.261-.069.141.533.331-.533-.135-2.47-.533-.738.134-.342zm-4.348.071l-.196.134.261.197-.065-.331zm-15.117 4.615l-.929.268-1.14 1.14.865-1.14 1.204-.268zm24.818 3.412l-.273.534.337-.274-.064-.26zm-1.674.872l-.33.127.33.337v-.464zm-26.486 6.212l-.204.401-.358-.113h-.015l.239.184-.33-.134.091-.05-.021-.014.036.014.562-.288z"/></svg>