<svg xmlns="http://www.w3.org/2000/svg" width="100" height="100"><circle fill="#B2B2B2" cx="50" cy="50" r="50"/><path d="M92.848 46.242c-1.987-1.031-4.203-1.536-4.312-1.62-1.886-1.475-3.166-1.483-3.315-1.486-2.026-.044-11.071 1.134-11.071 1.134s-.389-.422-.452-.416c-.062.006-.231-.01-.186.059.049.07.163.411.017.432-10.366 1.453-15.666 3.239-15.773 3.251-6.525.743-7.435 1.08-7.684 1.015-.401-.103-9.175-2.324-9.314-2.343-.139-.021-.911.064-.996-.008-.16-.135-3.795-1.771-3.974-1.755-.105.011-1.664.046-1.508.175.718.592 1.944 2.262 2.32 2.209.376-.055 2.12.764 2.12.764l.595.055s-.556.154-.26.171c.299.015 3.681 1.676 3.661 1.677-.15.009-10.849 1.394-10.849 1.394s-.109-.303-.279-.289c-.168.017-.141.332-.141.332s-.567.039-.946.083c-.795.092-3.273-.178-3.748-.517-.348-.249-14.17-8.718-14.529-8.96-.285-.192-3.372.274-4.938.496 1.253 1.977 6.039 10.324 6.039 10.324-1.467-.081-3.267.149-3.414.162-.284.025.017.191.017.191s1.961 1.153 1.893 1.188c-.172.09-.21.638-.21.638l-.14.012.07.814.169-.017c.069.49.907.925 1.527.96l3.757.268c.427.027 9.799.733 9.799.733l-.103.239c.341.08.478-.188.478-.188.52.006 6.977.525 8.963.617 1.769.08 5.586-.216 5.586-.216l-.029.267c.241-.021.409-.303.409-.303l2.744-.295.023.487c.134-.023.408-.525.408-.525.081-.016.576-.051.576-.051l.04.454s.352-.063.509-.003c.15.06 2.777.307 2.777.307v.146l-.198.126 2.974-.221.051.216.197-.038.006.201c-.627.678-.669.82-.641.998.073.46.275.569.512.651.185.07.27.055.437.024.383-.064.747-.646.747-.646s.175-.099.211-.019c.091.203.243.195.433.225.129.022.278.003.426-.067.16-.077.96-.857.926-1.254-.055-.633-.644-.622-.652-.696-.02-.22.735-.772.735-.772v-.476l.523-.069.073.818c-.203.029-.44 1.14-.427 1.287l.046.747c-.111.053-.342.229-.31.578.065.732.613.725.772.712.473-.03.828-.55.803-.833-.013-.156-.05-.381.024-.338.179.099.319.046.52.028.274-.025.681-.559.659-.81-.009-.106-.02-.319-.09-.416-.172-.238.061-.302.292-.322.406-.037.609-.635.717-.613.108.023 1.797 0 1.797 0l.05.302-.241.045.025.165 2.288-.221c2.624-.264 2.644-.605 2.644-.605l-.027-1.783c.301-.028 5.109-.937 5.109-.937l-.043.458c.378-.032.46-.562.531-.574 1.072-.211 6.54-.916 6.846-.942 2.185-.193 7.071-1.352 7.071-1.352l.094.658-.424.482.03.208.526-.023s.236.761.154.778c-.085.019-.741.245-.682.928.052.577.751.61.857.601.587-.053.856-.634.835-.875-.029-.316-.323-.421-.285-.559.104-.379-.301-1.139-.301-1.139l.149-.106-.056-.515.59-.286-.074-.554c4.62-1.475 6.172-2.821 6.511-3.112.579-.496.851-.773.812-1.214-.038-.466-.713-.823-.878-.911z"/></svg>