<svg xmlns="http://www.w3.org/2000/svg" width="100" height="100"><circle fill="#B2B2B2" cx="50" cy="50" r="50"/><path fill="#1D1D1B" d="M77.674 37.055l-3.893-2.356-.152-2.634c-.146-2.547-.216-2.662-2.105-3.456-2.113-.887-2.268-1.262-1.393-3.396 1.011-2.467 1.066-2.81 1.274-7.698.247-5.816.478-5.612-6.816-6.047-2.869-.171-9.674-.65-15.124-1.065-5.45-.415-10.278-.637-10.729-.494-.708.226-8.76 16.167-11.665 23.096-.706 1.683-2.04 3.157-5.398 5.962-2.454 2.049-4.541 3.974-4.638 4.278-.238.742 2.914 2.026 13.273 5.409 4.782 1.562 9.812 3.247 11.179 3.746s2.965 1.042 3.551 1.207c.814.228 1.112.767 1.255 2.269.103 1.084.003 1.971-.221 1.971-.962 0-27.469-9.142-27.75-9.57-.185-.281-.459-.232-.677.12-.559.904.112 1.312 4.961 3.015 2.459.863 5.59 2.073 6.956 2.689 1.366.614 3.602 1.479 4.968 1.92 9.013 2.907 8.889 2.8 9.119 7.862.152 3.346.066 3.939-.515 3.583-.384-.235-3.818-2.789-7.632-5.674s-8.009-5.979-9.323-6.875l-2.39-1.631.153 2.626.155 2.624 4.205 1.685c3.534 1.416 6.13 2.959 8.679 5.158.493.425-.646.114-5.432-1.48-4.902-1.635-6.072-2.254-5.8-3.071.214-.639.131-.648-.578-.063-1.278 1.057-.998 2.087 1.168 4.293l1.993 2.031-1.388 1.329c-.997.956-2.054 1.667-2.616 1.854l-.183.903 3.017 1.533c1.66.843 3.255 1.533 3.544 1.533.904 0 7.21 2.677 9.154 3.886 1.02.634 2.074 1.018 2.343.851s1.34.132 2.38.662c1.041.531 2.939 1.122 4.218 1.315 1.279.19 2.647.604 3.04.915.705.562 1.473 5.784.851 5.784-.179 0-4.672-1.583-9.989-3.518-5.316-1.935-11.062-3.993-12.77-4.572-1.973-.67-3.105-1.328-3.105-1.805 0-.629-.137-.613-.852.101-.748.748-.763.94-.125 1.579.687.687 26.489 10.704 27.554 10.697.274-.002 2.51-2.178 4.971-4.834 2.459-2.657 7.05-7.519 10.205-10.804 3.154-3.284 6.693-7.089 7.866-8.454 1.174-1.367 2.841-2.825 3.706-3.24 1.535-.737 1.573-.838 1.573-4.089 0-2.896-.147-3.438-1.12-4.116-1.504-1.056-1.417-1.395.622-2.366l1.738-.829v-5.413c.005-6.155.399-5.49-5.292-8.936zm-38.718 37.715c-1.34-1.213-4.513-4.176-7.051-6.584-2.538-2.407-4.51-4.379-4.383-4.379s1.913.777 3.968 1.728c2.279 1.053 4.826 2.748 6.527 4.347 2.379 2.234 2.834 2.951 3.083 4.856l.293 2.235-2.437-2.203zm21.503-28.644c-.598-.08-3.656-.374-6.8-.654v-.001c-3.143-.28-10.079-.892-15.414-1.359l-9.701-.848.014-3.426.012-3.426 1.988.279c2.027.284 19.635 1.947 26.827 2.534l3.976.324.092 3.36c.088 3.191.037 3.352-.994 3.217z"/></svg>