<?xml version="1.0" encoding="utf-8"?>
<!-- Generator: Adobe Illustrator 15.0.2, SVG Export Plug-In . SVG Version: 6.00 Build 0)  -->
<!DOCTYPE svg PUBLIC "-//W3C//DTD SVG 1.1//EN" "http://www.w3.org/Graphics/SVG/1.1/DTD/svg11.dtd">
<svg version="1.1" id="Ebene_1" xmlns="http://www.w3.org/2000/svg" xmlns:xlink="http://www.w3.org/1999/xlink" x="0px" y="0px"
	 width="100px" height="100px" viewBox="0 0 100 100" enable-background="new 0 0 100 100" xml:space="preserve">
<circle fill="#B2B2B2" cx="50" cy="50" r="50"/>
<g>
	<g>
		<path d="M62.299,44.921c0,0-0.459,1.429-0.531,1.619s-0.514,0.783-0.418,0.783c0.095,0,1.069,0.451,1.069,0.451l3.786,1.177
			l-0.055,1.783c-0.332,0.049-1.64,0.914-1.83,1.343c-0.124,0.279-0.401,0.778-0.667,1.124c3.448,1.391,5.466,3.427,5.548,5.706
			c0.057,0.406,2.148,7.874,2.269,9.555h15.932c0.014-0.069-0.479-9.729-0.484-9.803c0,0-0.915-2.326-2.364-2.562
			c-1.451-0.238-3.312-0.744-4.092-1.332c-0.455-0.346-1.938-0.945-2.625-1.195c-0.32-0.115-0.869-1.063-1.059-1.491
			c-0.189-0.429-1.498-1.294-1.831-1.343l-0.054-1.784l3.785-1.176c0,0,0.977-0.452,1.07-0.452c0.096,0-0.451-0.718-0.522-0.909
			c-0.071-0.19-0.428-1.491-0.428-1.491s1.278,1.562,1.926,1.854c0,0-1.272-2.39-1.651-3.72c-0.381-1.332-0.631-3.411-0.631-3.602
			c0-0.191-0.785-5.777-1.213-6.704c-0.428-0.928-1.008-2.187-2.002-2.806c-0.994-0.618-2.467-1.498-4.583-1.615
			c-0.031-0.002-0.062-0.002-0.095-0.005c-0.031,0.003-0.062,0.003-0.096,0.005c-2.115,0.117-3.588,0.997-4.582,1.615
			c-0.992,0.619-1.574,1.878-2.002,2.806c-0.429,0.927-1.213,6.513-1.213,6.704c0,0.19-0.222,2.354-0.602,3.686
			s-1.68,3.636-1.68,3.636C61.023,46.483,62.299,44.921,62.299,44.921z"/>
	</g>
	<g>
		<path d="M29.353,60.394v-0.097l0.01-0.096c1.031-4.451,6.393-6.577,9.32-7.853c0.004-0.002-0.004,0.001,0,0
			c-1.777-0.812-2.715-1.419-3.154-1.518c-0.179-0.36-0.565-3.078-0.565-3.078s2.136-1.888,2.615-5.502c0,0,1.052,0.582,1.117-1.617
			c0.049-1.694,0.341-2.356-0.812-2.852c0,0,0.083-1.172,0.12-2.213c0.057-1.542,0.341-3.707-2.327-5.448
			c-0.379-0.247-2.337-1.336-2.35-1.33c-0.698-0.424-1.584-0.693-1.584-0.693l0.028,0.636c-0.048-0.047-0.096-0.097-0.14-0.14
			c-0.176-0.182-0.275-0.883-0.258-1.16c0.034-0.493,0.034-0.493,0.034-0.493c-1.265,0.943-2.136,2.162-2.136,2.162l0.113-1.179
			c0,0-0.235,0.361-3.127,2.167c-2.838,1.771-2.368,4.386-2.29,5.934c0.052,1.04,0.155,1.758,0.155,1.758
			c-1.152,0.495-0.548,1.202-0.519,2.896c0.037,2.344,1.219,1.931,1.219,1.931c0.544,3.192,2.221,5.143,2.221,5.143
			s-0.475,2.734-0.657,3.082c-0.523,0.116-1.73,0.949-4.264,2.004c-3.733,1.554-2.561,0.652-5.6,2.171
			c-4.803,2.401-3.851,12.417-3.851,12.417h15.13L29.353,60.394z"/>
	</g>
	<g>
		<path d="M70.589,73.982c0-2.855-3.224-14.931-3.224-14.931c0-1.765-2.32-3.78-6.896-4.955c-2.375-0.609-4.366-1.974-4.366-1.974
			c-0.294-0.167-0.249-1.709-0.249-1.709l-1.474-0.222c0-0.126-0.126-1.975-0.126-1.975c1.764-0.588,1.582-4.058,1.582-4.058
			c1.119,0.616,1.848-2.127,1.848-2.127c1.324-3.814-0.659-3.584-0.659-3.584c0.63-2.855,0-7.026,0-7.026
			c-0.882-7.726-14.157-5.629-12.583-3.104c-3.879-0.714-2.994,8.059-2.994,8.059l0.841,2.268c-1.653,1.063-0.504,2.352-0.448,3.835
			c0.081,2.188,1.427,1.734,1.427,1.734c0.084,3.611,1.875,4.086,1.875,4.086c0.337,2.268,0.127,1.882,0.127,1.882l-1.596,0.191
			c0.071,0.573-0.125,1.538-0.125,1.538c-1.88,0.83-2.28,1.317-4.144,2.128c-3.602,1.567-7.517,3.607-8.212,6.354
			S28.432,73.98,28.432,73.98h42.157V73.982z"/>
	</g>
</g>
</svg>
