<svg xmlns="http://www.w3.org/2000/svg" width="100" height="100"><circle fill="#B2B2B2" cx="50" cy="50" r="50"/><path d="M50.368 23.664s-.947-.662-1.033-.852c-.086-.19-.163-.069-.163-.069s.249-.396.3-.627c.052-.233.164-.233.207-.121.043.111.155.345.283.318.131-.026.414-.138.526-.138.112 0 .354-.06.37-.138.018-.078.104-.095.147-.095s.609.121.696-.223c.087-.345-.067-.293.052-.637.121-.346-.008-.362-.008-.422 0-.061.025-.172.138-.259.11-.086.396-.274.335-.481-.06-.207-.042-.156.061-.232.103-.079.216-.25.129-.501-.085-.249-.138-.43-.12-.508.018-.078.595-.017.637-.525.043-.508-.697-1.196-.896-1.618-.049-.105.119-.249.139-.319.024-.094.077-.242-.078-.438-.154-.198.129-.155.216-.198.085-.044.216-.258.216-.258s1.85-.078 2.229-.311c.379-.231.096-.507 0-.61-.094-.104-.619-.767-.989-2.11s-1.593-3.46-5.915-3.289c-4.321.173-5.854 2.514-5.889 4.77-.026 1.761-.099 3.094.078 3.651.05.156.185.171.267.215 0 0 .588.23.873.27.283.038.581.038.632.341l.162.795.051.69c.039.162.02.4.02.4s-.401-.044-.413-.012c-.013.032-.091.819-.188 1.175-.098.354-.175.709-.162.774.012.065.064.226.025.284-.039.058-.374.052-.613.374-.24.323-.291.355-.465.529-.175.174-.737.956-.969 1.163-.233.206-.472.478-.556.605-.083.13-.652.917-.548 1.26.025.082.136.103.136.103s-.646 1.157-.646 1.415c0 .259-.201.53-.239.737-.039.206-.026 1.084.025 1.348.052.266.059.802.064.983.007.18.117.709.201 1.116.084.406.206 1.072.316 1.22.11.149.232.188.311.576.077.387.232.974.335 1.188s.167.369.258.775c.09.407.316 1.104.322 1.272.007.167.136.368.168.496.033.13-.039.124-.11.259-.07.135-.303.459-.303.601s.02 1.163-.032 1.466c-.053.304-.142.51-.142.788 0 .277.064.857.089 1.116.026.259-.051.923.033 1.168.084.245.336.705.408.885.07.181.335.684.335.774s-.517.73-.517.878c0 .149-.167.239-.149.451.02.214.136.537.188.66.051.123.051.419-.013.503-.064.084-.213.316-.336.316s-.162-.059-.258.006c-.097.065-.633.356-.691.452-.058.098-.128.214-.052.336.079.123.866.684.976.761.109.078.232.201.212.318-.02.115.064.076.104.134.039.058-.019.188-.071.271-.052.084-.136.439-.155.62l-.213.729c-.013.174-.058.458-.051.627l-.085.342.046.31c.045.111.052.169.052.279 0 .108.023.151-.038.174-.061.021-.099.017-.065.11l.074.181c.014.057 0 .103-.06.096-.061-.009-.094-.15-.182-.065-.086.087-.055.181-.009.237.048.057.104.06.086.146-.017.087-.029.172.009.235l.048.126s-.28.202-.207.374c.073.173.207.164.207.164s-.052 1.3-.134 1.873c-.082.572-.263 3.107-.254 3.181.009.074.091.085.104-.025.013-.113.085-.577.177-.826.09-.251.095-1.791.18-2.098.086-.305.164-.575.164-.753v-1.48s.147-.137.156-.061c.008.076-.014.251-.061.379-.046.129-.013.456.061.599.074.142.757.986.757 1.161 0 .283.164.54.239.613.074.07.078.076.074.22 0 0-.281 2.392-.217 3.012.064.619.129 1.937.135 2.376.007.439 0 2.538 0 2.538l.026.058.085.491c.064.348.116.646-.013.827-.13.181-.182.218-.162.361.02.142.038.477-.026.658-.065.181-.077.639-.058.806.02.169.09.13-.04.245-.129.117-.147.531-.206.726-.059.191.039.263-.064.477l-.277.341c.026.137-.007.66 0 .886.006.226 0 .394-.078.535-.078.144-.22.943-.22 1.182 0 .24-.045.687-.045.705s-.052.193.019.271c.071.077.02.232-.019.322l-.033.381s-.071 1.937-.026 2.318.006 1.342.078 1.471c.071.13.207.846.129 1.176-.079.33-.174.75-.162.917.013.169.097 1.24.136 1.407.04.169-.013.278.161.291.174.014.646.169.743.498s.232 1.612.465 2.479c.232.865.31 1.279.31 1.421s-.463.529-.476.697c-.013.168-.349 2.814.193 2.995.197.065-.358.222-.387.497-.045.433-.182 1.311-.009 1.363.067.02 1.612.191 3.573.232.219.003-.009-.623.22-.62.71.008 1.859.136 2.647.181 2.573.149 4.83.034 5.72-.672.121-.096 1.498-.258 1.188-1.162-.065-.19-.296-.244-.296-.244s-.271-1.046-.555-1.061c-.285-.012-.491.015-.491.015s-.104-.491-.544-.519c-.438-.025-1.471.221-1.769.155-.296-.063-.618-.116-.773-.425-.156-.312-.143-.646-.569-.673-.425-.024-.258-.258-.58-.258-.323 0-.271-.283-.453-.271-.18.013-.219-.192-.427-.245-.206-.052-.4-.311-.516-.387-.117-.078-.078-.311-.233-.374-.155-.064-.245-.233-.283-.259-.04-.026.116-.374-.13-.491-.246-.116.09-.373-.091-.53-.18-.153.065-.696-.128-.942-.194-.244-.194-.748-.194-.878 0-.129.374 1.82.878 2.093.503.271 1.045-.349.491-1.084-.556-.736-.814-.775-.93-1.292-.117-.517-.117-.71-.117-.775 0-.063.155-.116.194-.063l.038.05c.195.014.285-.037.434-.265.148-.226.368-.542.497-.922.13-.381.427-1.04.124-1.66s-.479-.659-.497-1.215c-.02-.554-.143-1.264.044-1.394.188-.128 1.014-.652 1.278-.69.265-.039.299-.1.928-.503.629-.405.775-.483 1.016-.664.241-.182.577-.301.568-.698-.009-.396-.103-.877-.051-1.084.051-.207.508-1.765.646-2.609.138-.843.224-1.607.242-2.064.015-.457.274-2.084.326-2.454s.198-.645.248-.758c.053-.111.294-1.351.207-1.869-.085-.516-.257-.56-.257-.56s-.044-1.195.06-1.429c.104-.23.087-.998.232-1.462.146-.466.104-1.017.104-1.05 0-.035-.14-.775.035-1.129.17-.354.411-.766.411-.836 0-.068-.111-.49-.017-.81s.241-1.229.241-1.868c0-.636-.035-2.367-.035-2.367s.421.087.749-.18c.327-.267.576-.292.768-.447.188-.155.765-.585.756-1.369-.008-.784-.207-1.826-.258-2.032-.052-.207.111-.19.111-.241 0-.052.044-1.972.103-2.359.062-.387.097-2.238.097-2.6 0-.362.035-.627-.138-.748l-.44-.215c-.025-.06.019-.517-.215-.491-.231.026-.567.156-.602.035-.035-.121.018-.87.018-.87s.085 0 .12.173c.034.172.241.18.31.06.068-.121.086-1.214-.104-1.249l-.353-.077-.026-.43s.499-.611.586-1.025c.085-.414-.431-1.816-.49-2.144-.061-.326-.198-.732-.319-.886-.121-.155-.053-.664-.053-.664s.259.121.285-.318c.026-.439-.009-.878-.009-.878s-.163-.061-.189 0c-.025.06-.163.077-.155-.018.009-.095.112.018.165-.318.051-.336-.362-1.292-.681-1.455-.32-.163-.688.086-.767.12-.078.035-.181.052-.181-.077 0-.128-.37-1.111-.784-1.464-.165-.142-.225-.34-.249-.413-.044-.121-.723-1.042-.818-1.153-.095-.112-.198-.207.009-.328.206-.12.198.079.344.104.147.026.414.077.56.198.146.121.828.817 1.068.8.241-.017.353-.154.533-.163.182-.009.259-.086.311-.104.052-.018.214-.095.38-.008.163.086 1.248.456 1.704.861.457.405 1.48 1.171 2.265 1.438.782.267 2.022.508 2.091.473.07-.034-.267-.473-.439-.524-.172-.052-.86.103-2.048-.671-1.189-.775-1.68-1.257-1.877-1.395-.198-.138-.922-.49-1.136-.508-.216-.018-.923.026-1.137.06-.216.034-.303.165-.483-.009-.181-.172-.878-.508-1.359-.594-.481-.086-.604-.086-.688-.146-.087-.061.078-.284-.181-.431l-.542-.328c-.13-.061-.198-.104-.233-.189s-.12-.301-.301-.301c-.182 0-.224.129-.275.129-.052 0-.095-.009-.095-.069l.05-1.894"/></svg>