<svg xmlns="http://www.w3.org/2000/svg" width="100" height="100"><circle fill="#B2B2B2" cx="50" cy="50" r="50"/><path fill="#13110C" d="M62.534 47.201s-3.357-10.082-5.037-11.343c0 0 .699-3.778-2.384-3.778 0 0-2.098-3.221-4.197-1.965 0 0-1.683.144-1.959-1.116 0 0 .232-2.736-.278-3.38l5.738-9.216c.279-.702 1.82-.702 1.82-.702 1.26.418 5.599 5.876 5.599 5.876 0-1.818-5.46-7.556-5.46-7.556 0-1.122-1.819-1.821-1.819-1.821-2.94-2.103-7.143-3.084-7.143-3.084s-.978.144.284.144c1.259 0 5.457 3.78 5.457 3.78.141.418-.14 2.242-.14 2.242l-6.07 9.946c-.503.011-.934.171-.934.691 0 0-.275.144-.417.981 0 0-.686.195-.329 1.086l-.996 1.631c-.369-.472-2.45-2.96-5.116-2.579 0 0-4.337 1.401-2.522 5.465 0 0 .219 1.144.702 1.796-.175.385-.354.811-.51 1.253-.545 1.542.43.635.43.635l1.013-1.126c.376.508 1.103 1.423 1.31 1.218l.54.158-2.16 3.529c-.222.131-.406.372-.483.79 0 0-.702.424-.702 1.265 0 0-1.258 1.536 1.264 1.82 0 0 0 1.536 1.118 2.098 0 0 2.38 1.4 3.922.98 0 0 2.519-1.118 2.519-2.24 0 0 1.962 3.5 2.661 4.337 0 0 .978 2.522.978 4.063 0 0 .702 4.623 1.122 5.461 0 0 .138 2.936.138 3.779 0 0-.558 10.223.423 12.461 0 0 2.099 3.92 2.099 4.896 0 0 0 1.547-1.534 2.383 0 0-3.086 2.803.975 2.381l2.101-1.262s.557 2.799 0 3.637c0 0-.838 1.824-2.94 1.963 0 0-3.221 1.961-.421 2.104 0 0 4.345-.562 5.042-.143 0 0 5.321 0 5.321-1.676l-.701-2.525s-.141-11.34-1.261-12.596c0 0 0-7.139-.7-8.264 0 0 4.48-8.682 4.34-9.656-.001.001 1.677-6.159-.703-8.821zm-21.701-4.76h-1.255s.978-1.848.067-2.306l2.087-3.35c.23.035.455.054.644.054-.001.001-1.68 3.499-1.543 5.602zm4.904-11.479l-.246-.221.917-1.468c.31.23.671.458 1.006.567l.561.839-2.238.283z"/></svg>