<svg xmlns="http://www.w3.org/2000/svg" width="100" height="100"><circle fill="#B2B2B2" cx="50" cy="50" r="50"/><path d="M84.433 64.028c-.349-.524-.853-.925-1.385-1.25-2.946-9.08-5.725-18.219-8.565-27.332-.463-1.252-.33-2.636.118-3.872 1.502-.292 3.893-.833 3.749-2.786-.479-.642-1.19-.978-1.976-1.068-.781.438-1.454 1.061-2.276 1.42l-.244-.475c-.246.251-.532.566-.913.349-2.776-.887-5.416-2.174-8.189-3.068-3.837-1.438-7.848-2.481-11.893-3.048.327-1.194-.633-2.128-.846-3.231.081-.81-.004-1.615.233-2.402l-.584-.257c.057-1.198.449-2.348.614-3.532-.091-.171-.238-.306-.359-.453-1.255-.102-2.512-.084-3.765.029l-.239.42c.214 1.123.524 2.231.595 3.376-.937.354-.255 1.253-.43 1.957.313 1.15-.471 2.139-.837 3.166.294.406.09.809-.23 1.119-.602.02-1.215.095-1.801-.087-3.209 1.088-6.488 2.044-9.522 3.579-2.275 1.015-4.497 2.156-6.689 3.337-1.415.63-2.666-1.214-4.072-.418-1.213.37-1.295 1.838-1.008 2.861.528.863 1.551 1.228 2.475 1.503-2.818 9.178-5.717 18.333-8.55 27.506.155 1.755 1.834 2.75 3.15 3.659 2.341 1.006 4.953.94 7.455.917 2.779-.318 5.727-.604 8.147-2.142.909-.965 2.342-1.891 2.145-3.404-3.31-8.663-6.625-17.328-9.94-25.993-.25-.503.033-1.036.104-1.544 3.675-.924 7.05-2.816 10.79-3.522 1.196-.289 2.409-.549 3.638-.66 1.46.041 2.892-.474 4.354-.263.14.782.638 1.421.897 2.155.045 1.411.019 2.825-.146 4.228-.182 5.45-.07 10.913-.118 16.368-.112.839-.173 1.695.011 2.534l-.555.416-.002.668.604.407c-1.351 2.563.266 5.462-.104 8.154-.6 1.403-.768 3.307.502 4.396-.349 1.613-1.372 3.164-1.198 4.901-3.44.625-7.101 1.103-10.025 3.182-1.046.447-2.094 1.414-1.885 2.665-.242 1.968 1.503 3.256 2.976 4.167 3.515 1.808 7.535 2.273 11.428 2.378 3.867-.172 7.867-.633 11.349-2.472 1.698-.841 3.501-2.5 3.028-4.593-.603-1.661-2.23-2.615-3.707-3.407-2.521-1.132-5.314-1.481-7.983-1.919.207-1.433-.5-2.731-.926-4.053-.661-1.134.949-1.924.755-3.085.249-1.199-1.054-2.12-.624-3.291.21-1.376.412-2.752.471-4.141.32-.886-.04-1.822-.408-2.634-.097-.437.404-.68.623-.984-.191-.325-.441-.604-.68-.892-.147-2.472.228-4.967-.197-7.41.041-4.9.197-9.812-.125-14.703-.071-1.164.617-2.202 1.096-3.215.669-.116 1.347-.013 2.018.041 4.079-.229 8.076.876 11.986 1.913 2.071.758 4.227 1.232 6.406 1.511.286 1.643-.926 3.058-1.496 4.528-3.059 8.43-6.098 16.869-9.141 25.303-.231.337-.546.607-.824.905-.396 2.44 2.088 3.891 3.771 5.135 3.802 1.541 8.01 1.69 12.055 1.496 2.471-.171 4.757-1.441 6.411-3.248.342-.503.742-1.169.503-1.795zm-54.41-23c2.311 6.024 4.604 12.058 6.92 18.08.052.168.075.347.104.522-1.025-.364-2.171-.386-3.261-.441-.556-3.587-1.684-7.079-2.291-10.66-.453-.937-.247-2.019-.709-2.952-.459-1.5-.659-3.068-1.089-4.576l.326.027zm1.81 14.715c.211 1.062.584 2.097.608 3.188-2.588-.024-5.159.256-7.727.495-1.734.287-3.534.502-5.11 1.335l-.244-.187c2.562-8.198 5.097-16.41 7.737-24.583l.201.224c1.498 6.512 3.03 13.017 4.535 19.528zm41.069-1.634c-.325 2.268-.193 4.549-.149 6.826-2.42-.375-4.849.01-7.272.08-.497.027-1.153.597-1.54.232 2.801-7.945 5.73-15.85 8.559-23.789.157-.452.443-.843.605-1.29-.152 5.985-.215 11.952-.203 17.941zm1.057 6.85c-.192-5.468.387-10.929.113-16.402.288-1.654.053-3.301.109-4.97l.301.098c2.15 6.855 4.307 13.71 6.451 20.569.208.584.404 1.18.427 1.81-2.444-.511-4.906-.951-7.401-1.105z"/></svg>