<svg xmlns="http://www.w3.org/2000/svg" width="100" height="100"><circle fill="#B2B2B2" cx="50" cy="50" r="50"/><path d="M40.087 45.096h.166c.124-.308.184-.479.184-.516v-.24h-.35v.756zM74.397 20.677c-.596-.248-.546-1.39-.546-1.39h-6.851c.109.293.127.594.097.734l.447 6.385.155 5.284-.025.92s-.085 1.269-1.192 1.566c-.971.313-1.432-.407-1.432-.407s-.298-.338-.304-.871c-.027-.667-.25-9.149-.25-9.149l-.058-1.164s.277-.253.29-.124c.065.247.061 1.59.061 1.59l.164 5.615.085 3.106s.171 1.02.651 1.092c.421.199 1.029.036 1.36-.402.28-.457.313-.723.313-.723l-.001-2.539-.093-2.533-.22-3.49-.27-3.76s.065-.676-.185-1.132h-1.374v.001h-.299l.002-.001h-38.22v61.305l44.791.123s0-.496.272-.546c.274-.049 2.087-.421 2.087-1.066v-37.268s-.05-1.143.546-1.391c.597-.248 2.696-.693 2.696-2.299v-15.166c0-1.607-2.1-2.051-2.697-2.3zm-6.562 31.677c-1.008.861-1.518 1.291-1.529 1.291-.418.332-.669.498-.756.498l-.517-.02h-.514c-.407 0-.609.067-.609.203 0 .074.031.166.093.276l-.036.092c-.025.811-.351 1.48-.979 2.007-.575.48-1.227.721-1.952.721-.65 0-1.253-.222-1.806-.663-.626-.49-.959-1.113-.995-1.861l-.054-.055c-.014-.259.004-.47.054-.628 0-.061-.067-.092-.203-.092l-.221.038v.902l-.046.156-.045.157c-.051.317-.258.681-.627 1.087-.368.405-.72.651-1.052.736l-.146.056c-.666.073-.988.116-.972.125l.032.005-.032-.005c-.368-.003-.714-.062-1.036-.181-.419-.173-.725-.35-.922-.535-.27-.319-.442-.539-.516-.663-.185-.38-.295-.65-.332-.809l-.018-.296-.037-.055c-.013-.345 0-.554.037-.628l-.111-.092h-1.456l-.072.074.035.111c.013.073.005.22-.027.441l-.064.478c-.135.713-.497 1.279-1.087 1.696-.516.369-1.091.552-1.732.552-.822 0-1.529-.294-2.119-.883-.649-.652-.926-1.45-.829-2.396l-.036-.074h-.221l-.057.038v.942l-.054.073c-.049.332-.209.713-.479 1.143-.223.332-.595.621-1.124.866-.407.196-.824.294-1.254.294-.43 0-.841-.09-1.235-.275-.244-.11-.441-.228-.589-.35-.405-.332-.668-.657-.791-.977l-.074-.239c-.147-.271-.209-.498-.185-.683l-.056-.055v-.755h-1.952c-.1 0-.273-.113-.527-.342l-.395-.359c-.381-.062-.663-.093-.848-.093-.111-.048-.166-.134-.166-.257 0-.161.117-.307.351-.442l.028-.369.027-.275-.027-.092-.028-.074c0-.271.006-.467.018-.59-.012-.393-.042-.638-.092-.737l-.129.46c-.11.049-.196.073-.257.073-.16 0-.337-.14-.534-.424.11-.121.177-.183.202-.183.038 0 .118.036.24.111v-.038c-.098-.258-.147-.405-.147-.443 0-.171.056-.276.167-.312.146-.048.228-.086.239-.11-.233-.111-.417-.149-.553-.111-.061-.049-.092-.185-.092-.405 0-.294.118-.436.351-.423v-.24c0-.025-.066-.277-.203-.755-.135-.479-.202-.73-.202-.756l.036-.202 7.757.019.166-.074c-.097-.248-.195-.369-.294-.369h-1.492c-.037 0-.11-.048-.221-.147h-.719c-.06 0-.097-.031-.111-.092l.056-.092v-1.843h1.4c.075-.122.155-.19.24-.202.615-.038 1.05-.057 1.309-.057l4.771-.128c.369 0 .552-.099.552-.294l-.018-.13v-.13c0-.121.081-.183.24-.183l.166.019.165.017.204-.045.203-.047c.062 0 .111.046.147.13-.073.099-.111.215-.111.351 0 .208.068.313.204.313.024 0 .078-.076.156-.23.081-.154.175-.231.285-.231.125 0 .21.049.258.148l.149.313.331-.074c.036-.012.19-.019.46-.019.332 0 .535.029.609.092.294.221.589.449.883.681l1.438-.496c.136.024.216.104.238.239l.075.368.238.019c.321.196.565.357.737.479.074.025.253.038.534.038h5.251l.148-.074.441-.037.12.056.14.055.312-.028.312-.027c.086 0 .16.03.222.093v.46c-.062.048-.149.074-.259.074l-.221-.038-.223-.036-.32.045-.323.047c-.159 0-.295-.019-.405-.056l-5.675.038c-.318.135-.564.264-.737.386l-.22.019-1.476-.038c-.098-.024-.178.074-.238.295l-.13.479c.246.036.77.055 1.566.055.208 0 .328-.034.36-.101.03-.068.175-.103.431-.103l2.708.039c.125.024.191.082.204.174s.098.138.259.138c.085 0 .144-.027.175-.082.03-.056.106-.084.23-.084l.616.037.619.038.321-.13c.228-.085.433-.129.617-.129.234 0 .479.056.739.167.462.185.693.292.699.321.042-.011.085-.051.126-.138.32 0 .561-.005.721-.017h.202c.11 0 .164.085.156.258-.006.171.046.257.157.257l.275-.257.056.036.056.038c-.036.109-.05.183-.036.221l.164.019h.13l.239-.037.204-.038c.062 0 .392.136.993.407.037.147.08.231.13.257.367.172.648.295.839.369.189.073.303.111.341.111l.129-.055v-1.144l.036-.055.038-.239.147-.075c.048 0 .104.056.166.167-.088.247-.02.43.202.553v.737c.195.209.3.314.313.314.048-.136.042-.241-.02-.314.062-.062.184-.091.369-.091.22 0 .349.029.386.091l-.055.256c.172.271.232.493.185.665.185.136.336.227.45.277.117.048.25.091.395.128.175-.357.291-.632.354-.829h.108c.307.148.462.252.462.313l-.019.055-.085.093-.054.12-.027.121v.091l.166.185c.122.222.184.369.184.442.004.143-.665.782-2.005 1.912zM39.313 44.377v.681c.074.025.166.038.276.038.136 0 .24-.019.314-.055v-.682c-.074-.038-.172-.057-.295-.057-.134 0-.234.026-.295.075z"/></svg>