<svg xmlns="http://www.w3.org/2000/svg" width="100" height="100"><circle fill="#B2B2B2" cx="50" cy="50" r="50"/><path d="M46.745 79.538c-3.866-.402-8.458-1.449-12.324-3.705l2.255-6.444c2.819 2.095 6.686 3.786 10.391 4.35l1.208-22.876c-5.961-5.075-12.244-10.391-12.244-18.769 0-8.539 6.283-13.21 13.936-13.774l.483-8.78h5.316l-.483 9.021c2.578.322 5.559 1.128 8.861 2.497l-1.853 5.639c-2.015-1.047-4.753-1.933-7.331-2.336l-1.208 21.588c6.122 5.155 12.646 10.713 12.646 19.655 0 8.457-6.041 13.29-14.419 14.016l-.563 10.149h-5.155l.484-10.231zm2.014-37.939l.886-17.238c-3.544.645-6.364 2.9-6.364 7.169 0 3.947 2.337 7.089 5.478 10.069zm4.511 13.533l-.967 18.606c4.189-.805 6.848-3.705 6.848-7.894s-2.498-7.49-5.881-10.712z"/></svg>