<svg xmlns="http://www.w3.org/2000/svg" width="100" height="100"><circle fill="#B2B2B2" cx="50" cy="50" r="50"/><path d="M92.47 51.062c-.238-.061-1.793 1.954-1.972 2.071-.18.119-13.88 4.335-17.037 5.39-1.903.639-8.29 2.161-13.06 3.271l-.322-3.215-1.186-.779-.233 4.396c-2.255.521-3.835.877-3.835.877s-4.629-2.638-8.899-5.097c-4.271-2.458-6.653-1.639-7.668-.812-1.014.828-.792 4.161 1.221 5.954 1.749 1.558 3.633 2.577 4.1 2.819-.238-.113-.813-.332-1.139-.01-.419.415-.004 1.012-.004 1.012s-2.418.888-5.156 1.846l-.206-.087c-.772-.243-1.785.108-1.785.108-.619.216-.979.605-1.136 1.049-1.649.549-3.122 1.01-3.93 1.188-2.62.582-12.266 2.677-12.266 2.677l-1.245-.898-.535-.061 1.658 1.494c.442-.096 9.155-1.205 12.185-1.591l1.26 1.061-.233-1.19 3.592-.627c.27.376.569.637.868.826.475.301 2.256.845 3.388.552 1.132-.291 1.435-1.599.784-2.256l4.819-.52c.232.547.625 1.47.706 1.678.118.298.41 1.368.41 1.368l-.301.712s-.061.238-.062.476c-.001.237.113 1.131.411 1.312.296.179.593.062.596-.177.001-.238-.057-.595-.057-.595l.833-.055s-.122.593.473.716c.593.121.484-1.961-.348-2.023-.533-.182-.766-1.313-.766-1.313l-.976-2.197 3.249-.35s1.664.246 2.731.608c1.069.363 7.964 1.347 7.964 1.347s.295.477.652.419c.357-.057.242-.771.242-.771l1.07-.172s.116.535.414.477.362-.95.126-1.308c.3-.475.544-1.604.544-1.604s11.021-3.694 11.378-3.931c.358-.236-.892.055-1.13.054l-10.662 3.103-1.064-1.195-.115-.893s2.199.427 3.213-.044c1.014-.472.425-1.901.425-1.901l2.026-.766s.947.959 1.185.959c.237.002-.232-1.189-.232-1.189l3.636-1.41s.887 1.014 1.125.897c.239-.119-.173-1.251-.173-1.251l3.933-1.289s.889.837 1.127.719l-.292-1.071 2.025-.705-.354-.655s12.453-4.758 12.693-4.936c.236-.178 1.554-2.432 1.317-2.492zM54.625 27.75v-2.5h-41.25v17.5h2.625v3.5h42.25v-18.5h-3.625zm-22.975.219l2.376 5.598 2.322-5.598h2.916l-2.79 5.598h1.71v1.71h-2.573l-.271.522v.828h2.844v1.71h-2.844v2.484h-2.736v-2.484h-2.825v-1.71h2.825v-.828l-.252-.522h-2.573v-1.71h1.71l-2.754-5.598h2.915zm25.6 17.281h-40.25v-2.5h37.625v-14h2.625v16.5z"/></svg>