<svg xmlns="http://www.w3.org/2000/svg" width="100" height="100"><circle fill="#B2B2B2" cx="50" cy="50" r="50"/><g fill="#12100B"><path d="M63.674 69.032c-.783-.642-1.923-.072-1.923-.072-.854-.996-4.344-.213-4.344-.213-.783.071-3.702.569-3.702.569-1.354.072-4.059.354-4.059.354-1.209-.14-2.846-.14-2.846-.14-2.35.214-3.133-.854-3.133-.854.285-.568.925-.926.925-.926 7.619-3.062 5.411-5.482 5.411-5.482 0-.569-1.282.215-1.282.215l-5.553 2.42c-2.492.355-4.628 1.709-4.628 1.709-2.492.927-4.201 2.562-4.201 2.562-2.492 2.352-5.055 1.639-5.055 1.639l-11.312-1.131v11.685c5.183-.22 12.167-.586 12.167-.586 1.139-.284 2.563.071 2.563.071 7.049 1.14 10.538-.355 10.538-.355 1.495-.071 3.061-.57 3.061-.57 4.984-.427 5.768-2.064 5.768-2.064 1.852-.354 2.99-1.424 2.99-1.424l1.639-1.424c11.816-6.055 6.976-5.983 6.976-5.983zM72.389 21.026l-4.953-.718c-2.08-.152-7.259-2.268-7.484-2.306-1.787-.298-4.083-1.588-5.746-2.381-1.286-.605-2.344-.038-2.344-.038s-.188-.076-.529-.152c-.341-.075-1.021-.335-1.814-.302-.769-.034-2.255 2.161-2.835 2.419-.647.188-2.419.794-3.214 1.096-.793.303-1.208.454-1.89.983-.681.529-2.155 2.193-2.495 2.57-.34.378-.34.455-.87.567-.529.114-.945.302-1.247.644-.303.34.189 1.208.075 1.247-.113.039-.604.53-.832.945-.227.416-.832 1.021-1.437 2.003s.265 1.701 1.021 1.966c.755.265 1.209 0 1.814-.378.604-.378 2.759-2.533 3.024-2.684.265-.152.719-.832.719-.492 0 .34-.076 1.852-.076 1.852-.037.681-.189 1.096-.302 1.286-.227.151-.567 1.172-.567 1.172l.416.038s-.038 1.021-.038 2.117 1.172 1.134 1.852 1.021c.681-.113 1.437-1.739 1.437-1.739 1.323 0 4.801-1.965 5.972-2.08 1.173-.113 2.346-.038 3.139.076.795.114 3.818.076 4.764.076s2.23-.265 2.646-.302c.416-.039 1.398.529 3.101.755 1.701.227 2.382-.643 2.986-.907.604-.265.944-.113 1.928-.113.982 0 4.386.983 6.465 1.625 2.08.643 6.955 1.702 6.955 1.702v-11.228c-.003 0-8.132-.303-9.641-.34zm-27.182 5.557c-.227.037.265-1.513.529-1.777.264-.265.869-.832.869-.832s1.172.757 3.062.529c0 0-2.646 1.967-4.46 2.08zM38.653 39.666c1.651.165 2.63 1.178 2.63 2.63 0 1.453-1.178 2.63-2.63 2.63s-2.63-1.177-2.63-2.63c0-1.452 1.185-2.775 2.63-2.63zM46.127 44.462c1.607-.092 2.914 1.305 2.914 2.914s-1.305 2.914-2.914 2.914-2.914-1.305-2.914-2.914 1.19-2.815 2.914-2.914zM39.268 49.417c1.162 0 2.077.942 2.104 2.104.036 1.553-.942 2.104-2.104 2.104s-2.104-.941-2.104-2.104c0-1.162.942-2.104 2.104-2.104zM41.768 55.934c-.224.572-.33 1.469-.33 1.469s-.061.355.235.843c.44.725.798.999 1.034 1.217.234.218.669.218.669.218s1.085 0 1.424-.045c.339-.043.531-.269.531-.269s.895-1.052 1.033-1.296c.139-.242.156-.398.148-.737-.009-.338-.209-.999-.348-1.372-.139-.375-.451-.607-.451-.607s-1.155-.853-2.224-.627c-.58.123-1.251.617-1.251.617-.193.137-.314.188-.47.589zM46.57 41.397c.392-.006 2.129-.898 2.521-1.303.545-.562.647-2.785.606-2.879-.416-.971-1.77-2.164-1.77-2.164s-.006-.054-.652-.09c-1.061-.06-2.02.097-2.02.097-.923.362-1.792 1.948-1.96 2.34s.494 2.521.729 2.841c.236.319 2.154 1.163 2.546 1.158z"/></g></svg>