<svg xmlns="http://www.w3.org/2000/svg" width="100" height="100"><circle fill="#B2B2B2" cx="50" cy="50" r="50"/><path d="M70.896 31.717c-.054-.029-.166-.041-.295-.041l.01-.026v-.125l-.018-.034-.005-.113-.021-.031.004-.057-.005-.06-.029-.03.014-.057-.016-.06-.019-.028-.005-.118-.025-.035v-.109l-.024-.033-.004-.115-.021-.037.008-.049-.01-.061-.029-.033.013-.053-.015-.061-.019-.03-.004-.117-.021-.035.004-.052-.008-.06-.028-.031.013-.054-.016-.061-.018-.031-.004-.113-.023-.039.007-.048-.007-.061-.027-.033.012-.054-.016-.06-.02-.034-.003-.113-.028-.035.012-.052-.012-.061-.022-.029-.003-.118-.018-.029-.006-.118-.027-.035.012-.049-.016-.06-.02-.035.012-.053-.017-.06-.019-.033-.002-.114-.028-.034.013-.053-.016-.06-.021-.031.012-.057-.016-.06-.024-.029v-.118l-.025-.035.012-.05-.016-.061-.02-.032.008-.051-.01-.061-.029-.033-.002-.114-.021-.038-.002-.109-.021-.035.004-.053-.008-.059-.027-.031-.004-.116-.02-.035.014-.053-.016-.059-.023-.031.007-.054-.007-.061-.028-.032-.003-.112-.02-.035.01-.053-.014-.059-.026-.038.011-.05-.011-.059-.023-.034-.004-.114-.019-.035.005-.053-.009-.06-.029-.031.014-.056-.016-.06-.019-.029-.004-.117h-.001l-.019-.036.002-.048-.005-.06-.096-.083-.024-.007-.041-.04-6.539-5.452.621-3.409.002-.025-.093-.092c-.061-.026-.11-.04-.146.009l-3.774 4.864c-4.057-.752-12.373-2.766-17.167-3.949l-4.54-7.249c-.038-.058-.105-.041-.167-.011l-.076.062-.003.009-.001.021.001.011.811 4.901-7.819 1.731c-.067.003-.135.017-.146.054l-.005.034c-.072.017-.133.05-.169.099l-.038.121.011.038-.031.117.01.041-.03.109.01.043-.03.111.01.041-.03.108.01.043-.03.111.011.04-.032.112.012.041-.032.111.012.039-.032.115.011.037-.031.113.01.041-.03.113.01.041-.03.108.01.041-.031.114.01.043-.031.11.011.041-.032.11.012.039-.032.116.01.037-.031.112.012.039-.033.116.01.041-.03.109.01.041-.03.112.01.042-.03.111.01.041-.031.109.01.041-.03.113.011.04-.032.11.01.039-.031.115.01.042-.03.11.012.041-.032.112.011.037-.031.117.01.041-.03.109.01.042-.03.111.01.037-.031.113.01.042-.031.112.012.039-.032.113.011.039-.031.113.01.041-.03.113.01.043-.03.107.01.041-.03.114.01.042-.03.107.011.041-.032.113.011.04-.032.113.012.041-.03.093-.169-.011c-.101 0-.137.017-.154.048-.06.109-.017.225.048.342l.083.058.139-.082-.037-.088-.024-.052c.168.008.482.052.625.093l-.052.031c-.058.031-.061.042-.035.1.031.054.07.125.124.095.055-.029.224-.116.236-.233.004-.056-.022-.109-.075-.148l-.188-.074.003-.005.038-.105v-.016l-.01-.043.031-.106-.01-.042.031-.096v-.016l-.012-.039.033-.095v-.018l-.011-.039.032-.113-.009-.041.03-.113-.012-.038.032-.113-.009-.041.029-.113-.008-.042.029-.109-.009-.042.031-.096-.001-.016-.012-.04.033-.114-.01-.041.031-.093-.001-.016-.012-.039.033-.098v-.018l-.011-.037.031-.112-.009-.042.029-.113-.009-.041.029-.11-.008-.041.029-.112-.01-.042.031-.092-.001-.02-.012-.039.033-.11-.009-.042.03-.095v-.017l-.012-.039.033-.094-.001-.017-.011-.039.031-.115-.008-.042.029-.11-.01-.041.03-.11-.011-.038.031-.118-.01-.042.031-.092v-.016l-.012-.039.034-.1-.001-.016-.011-.038.032-.112-.011-.04.031-.114-.01-.043.03-.109-.009-.041.029-.11-.009-.042.029-.113-.009-.042.03-.092v-.016l-.01-.042.03-.111-.011-.039.033-.095-.001-.016-.012-.041.033-.098-.001-.016-.011-.037.031-.116-.009-.041.029-.11-.01-.042.03-.111-.011-.037.032-.113-.01-.042.021-.039 8.447 2.907 1.835 11.049.004.026.06.16.009.021c.286.766 1.452 3.878 2.785 7.434-.026.124-1.729 8.003-1.73 8.017-.004.008-9.206 31.633-9.206 31.633l-.007.042.001.005-.004.017-.632 9.141h.847c1.525-1.111 5.828-4.242 8.958-6.526l4.413 6.204h.436c.68-.486 2.917-2.074 5.131-3.656l.738.016c3.582 2.551 7.382 5.257 8.472 6.035h.66c.231-.619 1.165-3.104 2.065-5.477 2.592 1.638 5.117 3.229 5.864 3.709h.42l-.747-8.117-.003-.029-8.528-30.043v-.511l-1.099-15.094-.002-.006 2.085-4.596.041-.087s.138-2.337.26-4.351l6.772.578.004.116.019.029.002.115.028.032.004.114.02.038.004.109.024.035v.113l.026.03.004.116.018.034.004.113.029.031.001.116.022.031.002.112.018.037.005.11.027.033.005.113.018.035.004.113.022.033.001.114.028.031.003.116.019.029.004.119.027.035v.109l.023.032.004.114.019.033.004.114.025.035.007.112.018.035.005.112.019.029.002.119.029.035.004.112.018.029.005.115.024.038v.108l.027.036.003.112.019.033.003.115.027.033.002.113.021.033.005.114.018.034.006.114.028.031.003.113.02.034.002.112.021.035.002.112.029.035.002.112.019.035.004.112.026.035v.112l.024.028.004.119.02.035.003.108.027.037.004.11.021.034.003.112.02.035.001.113.029.034-.007.071-.098.012c-.094.02-.133.042-.141.078-.035.119.028.226.114.328l.094.041.097-.129-.032-.057-.034-.045c.17-.026.481-.042.631-.031l-.043.043-.005.097c.038.046.081.115.13.077.043-.037.199-.159.184-.272-.016-.049-.051-.1-.11-.125zm-40.35-14.448l.071.041-.083.044h-.002l.014-.085zm-.022.157l.011-.002.055.028.007.012-.08.042-.006-.001.013-.079zm-.022.155l.013-.003.061.036-.082.044-.007-.001.015-.076zm-.022.15h.014l.062.037-.083.045-.006-.002.013-.08zm-.021.154l.015-.004.054.029.006.007-.082.045-.006-.002.013-.075zm-.021.154l.016-.003.055.024.006.012-.082.044-.006-.001.011-.076zm-.11-.615l.057.011-.007.059h-.01l-.061.012-.062-.039.083-.043zm-.062-.107l.144-.058-.01.083h-.011l-.061.012-.05-.03-.012-.007zm.041.261l.058.01-.008.059-.009.001-.061.009-.062-.036.082-.043zm-.021.153l.058.008-.009.059h-.008l-.061.014-.062-.04.082-.041zm-.021.15l.058.012-.01.058-.006.001-.061.01-.062-.037.081-.044zm-.02.154l.057.008-.01.059h-.005l-.061.015-.05-.03-.012-.008.081-.044zm-.019.15l.055.012-.01.059h-.004l-.06.011-.051-.025-.012-.012.082-.045zm-.021.153l.054.008-.01.062h-.003l-.062.011-.049-.028-.011-.008.081-.045zm-.021.152l.053.009-.01.06h-.002l-.061.013-.05-.027-.012-.013.082-.042zm-.02.152l.052.011-.011.061-.062.01-.062-.037.083-.045zm-.022.154l.052.007-.01.06-.061.015-.062-.039.081-.043zm-.02.15l.05.011-.01.06-.06.009-.05-.024-.012-.013.082-.043zm-.019.155l.048.005-.01.061-.059.014-.062-.037.083-.043zm-.022.149l.048.01-.011.061-.057.01-.051-.026-.011-.012.082-.043zm-.019.153l.046.009-.01.062-.058.011-.05-.029-.012-.008.084-.045zm-.021.153l.045.007-.008.062-.057.012-.05-.028-.012-.012.082-.041zm-.02.152l.044.011-.008.062-.058.009-.05-.027-.012-.01.084-.045zm-.021.154l.043.005-.006.062-.058.014-.062-.039.083-.042zm-.022.149l.044.011-.006.062-.056.008-.062-.037.08-.044zm-.02.155l.042.006-.006.062-.056.013-.062-.037.082-.044zm-.02.149l.041.01-.007.063-.054.009-.062-.038.082-.044zm-.022.155l.041.009-.007.062-.053.01-.062-.038.081-.043zm-.02.153l.039.006-.006.064-.053.012-.05-.029-.012-.011.082-.042zm-.019.15l.037.008-.006.065-.052.007-.049-.026-.012-.01.082-.044zm-.021.154l.037.004-.007.066-.05.012-.062-.038.082-.044zm-.021.151l.038.008-.009.066-.049.006-.05-.025-.012-.012.082-.043zm-.02.153l.037.006-.01.064-.048.01-.05-.029-.012-.008.083-.043zm-.02.151l.037.007-.011.067-.047.008-.062-.039.083-.043zm-.022.154l.037.008-.012.064-.045.008-.062-.036.082-.044zm-.021.153l.036.003-.011.068-.044.011-.05-.03-.012-.011.081-.041zm-.019.15l.034.007-.012.069-.043.006-.062-.037.083-.045zm-.021.154l.034.004-.012.067-.042.01-.049-.029-.011-.007.08-.045zm-.02.15l.032.007-.012.069-.041.005-.05-.025-.012-.012.083-.044zm-.02.153l.031.006-.012.066-.04.009-.062-.037.083-.044zm.036.924l.047-.012.062.04-.121.052.012-.08zm.049-.08l-.035-.008.007-.066.047-.006.062.037-.081.043zm.02-.155l-.034-.004.006-.065.047-.011.055.029.006.008-.08.043zm.02-.149l-.032-.008.007-.067.046-.006.055.025.006.012-.082.044zm.021-.154l-.032-.008.007-.063.045-.01.062.037-.082.044zm.021-.152l-.031-.005.007-.068.044-.009.055.028.006.012-.081.042zm.019-.152l-.029-.007.007-.067.043-.007.062.036-.083.045zm.023-.154l-.03-.002.007-.068.042-.01.062.039-.081.041zm.02-.15l-.028-.008.007-.068.04-.005.062.037-.081.044zm.02-.154l-.028-.005.008-.066.039-.01.056.03.006.008-.081.043zm.019-.149l-.026-.006.009-.071.038-.005.062.037-.083.045zm.022-.155l-.028-.005.011-.066.037-.008.055.029.006.008-.081.042zm.02-.152l-.027-.002.012-.072.036-.008.055.028.006.012-.082.042zm.02-.151l-.026-.005.012-.069.036-.006.062.037-.084.043zm.022-.155l-.026-.002.011-.07.035-.008.062.038-.082.042zm.02-.149l-.025-.006.012-.072.032-.003.063.037-.082.044zm.021-.155l-.024-.005.012-.068.031-.008.062.037-.081.044zm.02-.149l-.023-.005.012-.073.031-.004.055.026.007.012-.082.044zm.019-.154l-.021-.004.013-.07.028-.007.063.037-.083.044zm.022-.154l-.021-.001.012-.073.029-.007.054.03.007.01-.081.041zm.02-.149l-.019-.004.012-.072.027-.005.055.026.006.011-.081.044zm.021-.155l-.018-.003.011-.071.027-.007.062.038-.082.043zm.021-.15l-.017-.004.01-.075.027-.002.062.037-.082.044zm.02-.154l-.017-.004.009-.07.027-.007.055.029.006.008-.08.044zm.02-.151l-.015-.002.008-.077.026-.003.062.039-.081.043zm.022-.153l-.015-.003.007-.071.026-.006.055.029.007.008-.08.043zm.019-.153h-.012l.008-.075.025-.005.055.028.007.01-.083.042zm.02-.15l-.011-.003.008-.074.023-.004.055.025.006.011-.081.045zm.021-.155l-.01-.002.008-.073.023-.005.062.036-.083.044zm.022-.15l-.011-.002.009-.077h.018l.028.006.037.03-.081.043zm.014-.151l-.004-.002.008-.077.021-.005.062.037-.087.047zm.026-.154h-.008l.008-.079.019-.003.062.039-.081.043zm.021-.153l-.008-.001.008-.074.019-.005.062.037-.081.043zm.021-.153l-.008-.001.01-.076.016-.004.055.029.007.01-.08.042zm-.152-1.077l.123-.074.041.046-.004.028h-.012l-.169.064.021-.064zm-.038.178l.012.013.011.005-.028.02.005-.038zm-.021.156l.023.017-.028.019.005-.036zm-.021.15l.022.018-.026.02.004-.038zm-.02.154l.022.018-.028.018.006-.036zm-.021.151l.023.02-.027.019.004-.039zm-.019.151l.011.012.012.006-.028.019.005-.037zm-.021.154l.012.008.012.01-.028.019.004-.037zm-.02.15l.011.013.011.005-.027.02.005-.038zm-.021.154l.012.008.011.009-.027.02.004-.037zm-.021.151l.022.019-.027.02.005-.039zm-.02.154l.022.017-.027.019.005-.036zm-.02.151l.011.01.012.01-.029.02.006-.04zm-.022.152l.024.018-.027.018.003-.036zm-.019.154l.01.008.013.01-.028.018.005-.036zm-.021.149l.012.013.011.005-.027.02.004-.038zm-.021.154l.012.009.012.01-.029.019.005-.038zm-.02.151l.012.012.012.008-.028.02.004-.04zm-.021.155l.022.017-.027.019.005-.036zm-.021.152l.023.019-.028.019.005-.038zm-.021.152l.023.017-.027.019.004-.036zm-.021.154l.023.017-.026.019.003-.036zm-.02.149l.023.017-.028.02.005-.037zm-.019.153l.011.008.011.01-.027.018.005-.036zm-.021.151l.011.011.011.009-.027.02.005-.04zm-.021.154l.023.017-.028.019.005-.036zm-.02.153l.011.008.012.01-.027.018.004-.036zm-.02.15l.012.013.011.005-.028.02.005-.038zm-.021.156l.022.017-.028.019.006-.036zm-.021.149l.022.018-.026.02.004-.038zm-.019.152l.01.009.012.01-.028.019.006-.038zm-.022.153l.023.02-.027.019.004-.039zm-.02.151l.011.012.011.006-.027.018.005-.036zm-.02.154l.011.009.011.01-.028.019.006-.038zm-.021.152l.023.017-.028.018.005-.035zm-.021.153l.022.018-.026.018.004-.036zm-.021.15l.023.019-.028.02.005-.039zm-.02.155l.024.018-.028.018.004-.036zm-.02.15l.011.01.012.011-.028.019.005-.04zm-.02.152l.012.013.012.006-.028.018.004-.037zm-.027.195l.006-.041.011.008.084.043-.101-.01zm.144-.046l-.084-.038-.011-.012.082-.044.024.005-.011.089zm.023-.171l-.036.008-.051-.029-.012-.008.083-.044.025.004-.009.069zm.021-.15l-.037.004-.05-.025-.012-.012.082-.043.027.005-.01.071zm.02-.154l-.037.008-.062-.039.082-.042.028.001-.011.072zm.021-.153l-.038.008-.062-.037.082-.044.029.006-.011.067zm.022-.152l-.039.007-.062-.039.082-.043.03.005-.011.07zm.156.852l-.031.029-.106-.02v-.012l.161-.062-.024.065zm.036-.18l-.023-.018.031-.018-.008.036zm.02-.152l-.023-.02.031-.018-.008.038zm.02-.15l-.008-.013-.014-.005.031-.018-.009.036zm.02-.155l-.008-.007-.015-.01.033-.02-.01.037zm.021-.151l-.022-.017.033-.019-.011.036zm.02-.152l-.008-.008-.015-.01.033-.019-.01.037zm.021-.152l-.022-.018.033-.021-.011.039zm.032-.187l-.011.033-.023-.017.034-.02v.004zm.01-.118l-.023-.02.031-.019-.008.039zm.019-.151l-.008-.013-.016-.006.033-.018-.009.037zm.022-.155l-.023-.018.031-.019-.008.037zm.019-.149l-.008-.013-.015-.005.031-.021-.008.039zm.021-.154l-.008-.008-.015-.009.033-.02v.002l-.01.035zm.021-.151l-.022-.02.032-.021-.01.041zm.031-.188l-.01.034-.022-.016.033-.02-.001.002zm.01-.119l-.023-.019.033-.02-.01.039zm.021-.151l-.023-.018.031-.018-.008.036zm.019-.153l-.008-.008-.016-.01.033-.019-.009.037zm.022-.15l-.023-.018.031-.02-.008.038zm.02-.153l-.008-.008-.015-.01.031-.019-.008.037zm.02-.152l-.008-.011-.015-.009.033-.021v.003l-.01.038zm.021-.154l-.023-.017.033-.019v.002l-.01.034zm.021-.153l-.023-.018.031-.018-.008.036zm.02-.149l-.008-.013-.016-.005.035-.021v.002l-.011.037zm.021-.156l-.023-.018.031-.018-.008.036zm.02-.148l-.008-.013-.015-.007.031-.02-.008.04zm.021-.154l-.008-.009-.015-.009.033-.019-.01.037zm.031-.189l-.011.037-.008-.01-.016-.01.035-.02v.003zm.01-.116l-.023-.017.031-.018-.008.035zm.03-.188l-.01.034-.022-.017.033-.019-.001.002zm.021-.152l-.01.036-.023-.017.033-.02v.001zm.01-.118l-.023-.017.032-.018-.009.035zm.021-.15l-.022-.018.03-.021-.008.039zm.02-.153l-.008-.01-.016-.009.035-.019-.011.038zm.021-.152l-.008-.01-.015-.009.031-.018-.008.037zm.031-.187l-.011.036-.008-.013-.015-.005.034-.02v.002zm.02-.154l-.01.034-.023-.017.033-.019v.002zm.011-.116l-.023-.017.031-.02-.008.037zm.03-.188l-.01.036-.008-.009-.016-.01.034-.019v.002zm.01-.116l-.007-.005.008.003-.001.002zm34.649 6.543l.544.272-.593-.251.049-.021zm.035-.759l1.146 1.149c-.373-.185-.758-.375-1.132-.569l-.014-.58zm-.106.524l-2.051-1.037 1.451-.195.593.592.007.64zm-.137.132l-.068.027-.548-.231-.013-.113.629.317zm-2.651-1.068v-.002l.426-.058 1.382.701-.137.064-1.671-.705zm1.444.806l-1.527.692.079-1.311c.455.2.947.41 1.448.619zm-1.435-.925l.012-.146.226.116-.238.03zm1.899.84l.01.09-.111-.045.101-.045zm.858-1.087l.009.405-.359-.364.342-.045.008.004zm-.125-.103l-.328.042-1.857-1.862 2.185 1.82zm-.551.074l-1.522.204-.519-.26.31-1.683 1.731 1.739zm-1.401-5.063c-.058.304-.187 1.004-.324 1.79l-1.074.013c.608-.788 1.175-1.52 1.398-1.803zm-.349 1.903l-.098.563-.08.226-.93-.779 1.108-.01zm-.286 1.117l-.558 1.702-.209-.105c-.062-.806-.153-2.122-.191-2.559l.958.962zm-.712 2.155l-.015-.004-.026-.346.135.068-.094.282zm.106.242l-.065.007.006-.032.059.025zm-.756 2.087l.199-.607.311.378-.51.229zm.582-.138l.275.336-.699-.146.424-.19zm-.957.082l-.465-1.823.957 1.169-.233.705-.259-.051zm.182.31l-.053.185-.048-.205.101.02zm-12.944 54.945l-.578-.413 5.216-.041.002.447-4.64.007zm3.894 2.77c-1.369-.97-2.644-1.88-3.642-2.597l3.631-.005.011 2.602zm-5.064-4.557c-.137-.979-.38-2.722-.68-4.905l.986.364-.306 4.541zm.153 2.372c.645.431 3.903 2.611 4.754 3.174l-4.835-.08.081-3.094zm-6.091-1.221l-.085.032-1.582-.155.035-.427c1.774-.037 3.773-.07 5.766-.103l-.862.632-3.272.021zm2.9.247l-.1.07-.661-.062.761-.008zm-10.377-.702l.554-.011 3.158.318-.136 2.643-3.576-2.95zm3.568 3.095l-.062 1.213-3.27-3.964 3.332 2.751zm-1.456-3.129c.982-.02 2.229-.038 3.623-.061l-.034.412c-1.305-.124-2.563-.247-3.589-.351zm1.565 3.219l.589.486-.646.647.057-1.133zm.008-.144l.137-2.726 1.86.187-.159 1.906-1.177 1.185-.661-.552zm2.112-2.526l1.482.142-1.631 1.629.149-1.771zm6.395-.659l.788.557-1.575.016.787-.573zm.559-.074l.456-.004.054.37-.51-.366zm-3.75-15.505l.617-.104-6.911 10.815 6.294-10.711zm-5.038 7.951l-1.569-.592 2.041-.215-.472.807zm3.459-5.94c-.233-.097-2.294-.943-3.069-1.271.478-.075 1.613-.253 2.716-.435l.353 1.706zm-.176-1.729l1.349-.222-1.029 1.756-.32-1.534zm2.934-29.658l-.123-2.132 3.608.389.105.144-.041.11-1.731 3.281-1.818-1.792zm1.476 1.707l-1.403-.475-.059-.964c.466.455.961.943 1.462 1.439zm-4.016-14.88l-.278-.058-1.292-.447 1.116-.804.454 1.309zm-.591-2.534l1.22.304-.892.644-.328-.948zm.366 1.06l.996-.722.325.892-.833 1.241-.488-1.411zm1.384 4.001l.02-.131.533-1.236.14 3.361-.693-1.994zm.695 2.82l-1.115.652.348-2.863.767 2.211zm-.799-3.124l-.645-1.864 1.28.267.001.121-.636 1.476zm-.671-2.143l.789-1.174.501 1.391.002.053-1.292-.27zm.865-1.288l.34-.51.07 1.644-.41-1.134zm-.074-.211l-.271-.746.662.164-.391.582zm-.333 3.847l-.812.302.226-1.997.586 1.695zm.058.172l.052.15-.41 3.366-.961.56.426-3.748.893-.328zm-.19 3.624l1.077-.628-1.521 4.302.444-3.674zm1.244-.56l.044.064.271 4.733-.05.067c-.116-.226-1.115-2.225-1.165-2.325l.9-2.539zm15.907-1.944l-.298-.062-.358-.839.79-1.003.812.161-.946 1.743zm1.099-1.452c.091.365.257 1.019.46 1.778l-1.285-.267c.207-.381.598-1.103.825-1.511zm-1.003 2.606l1.055 2.473-1.157-.203c.042-.894.078-1.701.102-2.27zm-.22-.906l-.004.014-.004.066-.036-.086.044.006zm-2.101-.711l1.469-.377.32.751-1.789-.374zm.827.621l-.028.073-.042.025c.003-.055-.016-.117-.057-.174l.072-.051.055.127zm-.202.153l.041.014-.039.02v-.015l-.002-.019zm-.026-.085l-.031-.056.074-.049.052.131-.001.009-.094-.035zm-.1.175l.037.009-.034.021-.003-.03zm-.031-.088l-.032-.054.053-.034.012.009.045.038.016.06v.016l-.094-.035zm-.022-.306l.002-.013.093.034-.074.047-.005-.009-.016-.059zm.025-.078l.027-.011.157.031-.06.038-.124-.058zm-.133.475l-.035-.056.053-.037.013.012.052.039.009.072-.092-.03zm.066.095l-.033.021-.003-.031.036.01zm.005-.382l-.071.047-.008-.008-.017-.059.001-.015.095.035zm-.069-.099l.039-.021v.03l-.039-.009zm1.149-1.002l-1.856-1.497c.952.208 1.836.398 2.603.554l-.747.943zm-.111.05l-1.629.42-2.571-.536c.496-.35 1.946-1.363 2.144-1.5l.062.011c.257.212 1.85 1.487 1.994 1.605zm-4.356-.15l-.08-.016c-.252-.294-1.607-1.904-2.096-2.475 1.495.349 2.976.688 4.33.991-.457.319-1.881 1.313-2.154 1.5zm-.254-.052c-1.844-.382-3.759-.783-5.533-1.152l3.319-1.359.114.029c.264.316 1.621 1.919 2.1 2.482zm-5.727-1.194l-.189-.04-.687-1.129 1.71-.784c.815.198 1.654.395 2.486.591-.717.296-2.771 1.139-3.32 1.362zm-1.868.078l.01-.001-.012.091-.062-.058.001-.002.063-.03zm-.035-.058l.003-.036.029.029h-.017l-.015.007zm-.042.445l-.014.002.019-.091.041-.041.041.042-.005.009-.029.057-.053.022zm.031.061l-.005.037-.022-.03.009-.001.018-.006zm-.337-.994l-.048-.052h-.002l1.318-.6.642 1.05-1.91-.398zm.195.827h-.011l.013-.092.049-.042.041.042-.01.013-.026.055-.056.024zm.033.059l-.003.033-.029-.028h.018l.014-.005zm.041-.362l-.053-.058.001-.003.07-.026-.018.087zm-.031-.146l.008-.038.023.03-.031.008zm-.164.339l.021-.093.044-.041.041.041-.008.012-.027.053-.071.028zm.044.059l-.004.033-.019-.025.023-.008zm-.011-.418l.004-.005.054-.025.015-.001-.016.09-.057-.059zm-.125.246l-.013.001.013-.089.049-.042.04.042-.007.009-.03.058-.052.021zm.032.062l-.004.037-.027-.031.015-.001.016-.005zm.018-.385l.03.007-.006.017-.024-.024zm-.159.216l-.014.002.019-.096.048-.041.041.042-.012.014-.024.054-.058.025zm.03.06l-.003.033-.022-.027h.013l.012-.006zm-.136-.172l-.015.002.045-.153.062.062-.01.011-.031.054-.051.024zm.03.061l-.005.035-.021-.028.01-.001.016-.006zm1.481-1.299l-.761-1.248c.729.178 1.495.363 2.284.551l-1.523.697zm-.104.044l-1.579.724-.07-.014-.787-1.067 1.57-.984.056.013.81 1.328zm-1.441 1.027l-.047.155-.035-.056.003-.112.079.013zm-1.15-1.29l.675.917-1.604-.333.929-.584zm-.925.448l.468-1.069.391.534-.859.535zm1.012-.635l-.462-.628.303-.702 1.641.402c-.293.186-.908.571-1.482.928zm-.586-.796l-.575-.779.822.201-.247.578zm-.082.193l-.489 1.119-.078-1.885.567.766zm9.635 13.271l-5.55-1.064.504-1.502c1.786.907 3.947 2.007 5.046 2.566zm-4.989-2.74l.173-.522 3.917 2.604-4.09-2.082zm10.134 3.997l-.33.596-2.011 1.135-1.793-2.52 4.134.789zm-3.913-1.023l3.993-1.854.121.033c-.055 1.234-.104 2.242-.123 2.586l-3.991-.765zm3.744 17.641l-.695 2.911-.495-3.028.91-.167.28.284zm-.067-.323l.02-.003.008.031-.028-.028zm1.56 15.99l-.015.035-.02.006-.281-.382-.479-3.181.99 3.193-.195.329zm.354.179l.207.675-.477-.649.053-.003.012-.001.205-.022zm.523 10.014l-4.581-7.561 3.461.104c.479 3.211.911 6.066 1.12 7.457zm-.801-7.896c.21.082.62.253.87.36l-.816-.027-.054-.333zm-3.846.222l-.019-.028c.672-.045 2.745-.188 3.477-.235l.051.369-3.509-.106zm3.024-3.135c.142.926.28 1.851.413 2.759-.798.058-3.071.207-3.521.236l-.047-.074c.166-.464 1.015-2.879 1.713-4.879l1.442 1.958zm-11.741 12.398c.066-1.036.17-2.649.301-4.588l2.194-.257c-1.017 2.167-1.835 3.893-2.284 4.841l-.211.004zm.035.385l-.072.15.006-.149.066-.001zm.01-5.121l-.834-.312.848.036-.014.276zm.265.036l.022-.297 1.821.081-1.843.216zm.024-.407c.104-1.504.213-3.166.326-4.89.369.955 1.725 4.477 1.922 4.973l-.009.011-2.239-.094zm.349-5.158l.004-.048 4.625-.526c-.954 2.027-1.863 3.976-2.667 5.669l-1.962-5.095zm.018-.235c.115-1.748.234-3.545.35-5.279l4.285 4.762-4.635.517zm-2.789-28.226l2.426 1-2.109 1.582-.623-1.661.306-.921zm-.208-.238l.033-.2.035.007-.065.19-.003.003zm.618-10.275l2.407 1.226-.495 1.481-1.912-2.707zm1.518 2.817c-.726-.078-2.208-.235-3.476-.375l-.019-.258c.322-.421 1.207-1.593 1.576-2.084l1.919 2.717zm7.341 6.422c.127.637.301 1.455.469 2.259l-.062.12-1.212-.213-1.479-2.094.645-.361 1.639.289zm-1.271-.499l1.04-.58.167.794-1.207-.214zm3.461-.337l-.478.865-1.489-.264-.172-.805c.249.023 1.579.148 2.139.204zm-2.026-.466l1.421-.8.712 1.005-2.133-.205zm1.764 11.917l-.031.007-3.571-.502.218-.341 3.128-.748.256 1.584zm-.246-3.854l.065.173-.035.007-.03-.18zm1.103 9.006l-2.156-1.702-.122-1.249 1.737-.316.541 3.267zm-.391-4.69l.847.877-.681.123-.166-1zm1.364 6.771c.187.467.401.984.624 1.521l-.649.099-.179-1.182.204-.438zm-.136-1.036l.233.201-.082.168-.151-.369zm-11.207 2.243l-.281-.971.01-.021 1.014-.174-.743 1.166zm.039.763l-.369-.038.246-.381.123.419zm1.637-12.228l2.416 1.801-.242.441c-.7-.101-1.392-.197-2.048-.288l-.126-1.954zm.124 4.719l-.515-1.368.417-.102.098 1.47zm-.539-11.109l-.056-.82.283-.082.067.069-.205.851-.089-.018zm.049.192l-.032.129-.009-.137.041.008zm-.118-1.197l-.008-.201.161.16-.153.041zm7.378 4.502c-.185-.257-.489-.686-.873-1.236l.444-.801.429 2.037zm-.7-4.646l1.286.226-.902 1.62-.384-1.846zm-.918 20.5l-1.312-.133 1.087-.16.225.293zm-.021-.329l.572-.084-.321.428-.251-.344zm-1.66.133l.971-.76.412.556-1.383.204zm1.824.398l1.28 1.731-2.941-1.908c.553.054 1.115.117 1.661.177zm.572-.634l1.018-.148.076.779-1.458-.161.364-.47zm.091-.13l.818-1.082.096.945-.914.137zm.902-1.378l-.083-.852c.729-.565 1.388-1.082 1.772-1.385-.344.461-1.036 1.374-1.689 2.237zm-.09-.976l-.105-1.042 1.823-.31-1.718 1.352zm-.093.207c.027.306.054.608.09.901l-.965 1.271-.747.109-.468-.643 2.09-1.638zm-2.161 1.553c-.576-.784-1.109-1.514-1.6-2.17 1.376-.236 2.638-.45 3.639-.615l.105 1.106-2.144 1.679zm-1.775-2.416l-1.605-2.174.753-1.189 3.076-.561c.432.344.896.71 1.346 1.062.056.617.132 1.393.213 2.223l-3.783.639zm3.996-11.493l-.035.058-2.294.593.727-1.31c.716.29 1.283.527 1.602.659zm-1.513-.82l.466-.833.97 1.376.015.014.055.062-1.506-.619zm-1.175 1.562l-1.117.289-1.076-3.04c1.081.442 2.147.882 3.027 1.247l-.834 1.504zm-.674 3.972l.337.044c-.634 1.004-1.296 2.047-1.919 3.023l-1.333.241 2.915-3.308zm-.02-.185l.048-.013-.018.017-.03-.004zm.461.065l-.295-.041.066-.082.361-.085-.132.208zm.074.393l.706.706-1.307.234.601-.94zm-.73 1.15c.205.17.756.604 1.433 1.136l-2.44.444 1.007-1.58zm-2.706 2.252l1.073-.194-.563.888-.51-.694zm.41.855l-.646 1.012c.05-.73.09-1.309.114-1.719l.532.707zm2.238-6.8l-.425.761-.449-.869.874.108zm-.97-.304l-.325-.631 1.01-.261.361 1.026-1.046-.134zm.59 1.543l.272.521-.399-.294.127-.227zm.109-.19l.394-.714-.055 1.384-.339-.67zm.164-2.292l.935-.24-.627 1.122-.308-.882zm-.241-.125l-1.031.269-1.623-3.139.364-.79 1.174.48c.353 1.011.788 2.249 1.116 3.18zm-.839 1.036l-1.641-.206c.19-.052.699-.184 1.352-.35l.289.556zm.097.195l.564 1.088-.195.353-2.256-1.679 1.887.238zm.494 1.76l.559.415-.018.004-.71-.101.169-.318zm.066.532l-.413.098.081-.145.332.047zm.301.043l.369.054-2.871 3.259.002-.054 1.712-3.069.788-.19zm-2.606 2.903l-.054-.143-.13-2.091 1.642-.392c-.692 1.244-1.221 2.196-1.458 2.626zm-.087 3.271l.848-1.332 1.516 2.048-2.436.409.072-1.125zm4.933-3.27l1.071-.196.108 1.129-1.179-.933zm-.377-.3c-.815-.646-1.449-1.146-1.507-1.197.084-.014.703-.123 1.458-.262l1.244 1.244-1.195.215zm-.789-2.356l.061-.091 3.107.439-2.391.429-.777-.777zm-.227-.564l.974-1.109-.655 1.029-.319.08zm-.191.042l-.188.046.073-1.959 2.019-.405-.347.554-1.557 1.764zm-.009-2.116l.768-1.387 2.276-.586-.994 1.562c-.892.177-1.69.336-2.05.411zm3.386-2.013l.215 1.292-1.186.236.971-1.528zm-1.185-2.508l-.592-.842.968.171-.376.671zm-.205.37l-.544.976-1.621-.669-.197-1.865 1.442.254.92 1.304zm-2.283.258l-1.458-.597-.543-1.557 1.804.317.197 1.837zm-1.675-.691l-1.02-.416.491-1.064c.078.202.276.767.529 1.48zm-1.186-.484l-.813-.338.089-.358.602-.452.611.106-.489 1.042zm.082-1.295l.184-.14.214.211-.398-.071zm-.247-.044l-.388-.07.164-.673.522.518-.298.225zm-.203.148l-.289.218.063-.258.226.04zm.292 1.354l-.297.656-.448-.863-.003-.105.748.312zm-.395.864l-.245.531-.073-1.153.318.622zm.101.202l1.539 2.979-1.688.433-.177-2.707.326-.705zm1.951 6.099l-.147.272-1.729.416-.067-.958 1.943.27zm-1.867 7.702l2.632-.441 1.659 2.245-1.088.847-3.24-2.1.037-.551zm2.821 2.615l-2.023-.218c-.292-.479-.58-.949-.86-1.419l.018-.223 2.865 1.86zm-2.472-.259l-.501-.054.049-.694.452.748zm-.515-3.841l-.711 1.117-.436-.715 1.262-2.14c-.033.46-.074 1.049-.115 1.738zm-.53 1.33l.489-.771-.043.697-.446.074zm.425.203l-.018.336-.222-.146-.084-.138.324-.052zm-.856-.131l-.852.142.459-.783.393.641zm.138.252l.011-.004.631 1.04-.069 1.068-1.236-.13-.192-.649.855-1.325zm.823 2.31l.631.07 1.912 3.149-2.783.395.24-3.614zm1.079.12l2.242.234 3.476 2.26c-1.374.193-2.721.383-3.872.547l-1.846-3.041zm4.54.478l1.436.149.144 1.437-.157.34-1.423-1.926zm2.297.059l-.763-.081-.08-.805 1.355-.197-.512 1.083zm.831-1.132l.483-.068c.069.421.135.881.205 1.363l-1.232-.126.544-1.169zm-1.572 1.238l.659.068-.54 1.156-.119-1.224zm2.508 1.706l.076.468-.778 2.215-1.721-2.331 2.423-.352zm-2.348.07l.786-1.678 1.348.146.174 1.2c-.744.103-1.525.214-2.308.332zm2.015-4.918l-.153-.985.285.698-.132.287zm-.13 1.722l-.41.06.315-.675.095.615zm-.731.109c-.478.067-.956.138-1.429.21l-.1-1.063 1.788-2.372.307 2.019-.566 1.206zm-1.769-3.308l-.206-2.104 2.16 1.712.012.064-1.966.328zm-.572-3.831l-1.244-1.243c.949-.167 2.068-.37 2.645-.473l.282.039.215 1.333-1.898.344zm-1.651-2.848l1.384-2.181 1.348-.27.284 1.725-3.016.726zm2.64-4.885c-.121-.551-.314-1.49-.517-2.458l1.096-1.976c.551.095 1.021.177 1.322.234l-1.901 4.2zm-3.658-4.831l-.28-.396.744.129-.464.267zm-.236.332l1.282 1.814-1.316-.231-.156-1.472.19-.111zm-.208-.086l-.031-.253.14.192-.109.061zm.06 1.649l-1.863-.326-.003-.013-.021-.019.037-.082c.016-.004.702-.39 1.706-.954l.144 1.394zm-1.963-.579l-.036.04-.027.048-.207-.208 1.962-1.462.047.07.054.504-1.793 1.008zm-.396-.249l-.62-.611.047-.188 2.544-.696.009.015-1.98 1.48zm-.531-1.002l.732-3.003 1.66 2.354-2.392.649zm-.293.081l-.086.024-.382-.375-.346-5.334 1.634 2.306-.82 3.379zm-.557 1.095l-1.691-.297 1.642-.447.049.744zm-.101-1.632l-1.562-1.541 1.223-3.666c.06.902.183 2.861.339 5.207zm-1.778-1.754l-.347-.339 1.251-2.368-.904 2.707zm.15.402l1.64 1.62.034.436-2.051.559-.467-.082.844-2.533zm-.784 2.728l-.135.035.017-.056.118.021zm-.123.217l.536-.147 2.115.371.04.632-.22.162-2.471-1.018zm2.666 1.097l.001-.002-.001.002zm.089.785l.104 1.557-1.01 2.175.906-3.732zm.125 1.935c.056.823.111 1.633.155 2.412l-1.405.317.007-.03 1.243-2.699zm.169 2.592l.109 1.72-1.446-1.417 1.337-.303zm.113 1.976l-.9-.128-.444-1.19 1.344 1.318zm.031.185l.063 1.027-.45.109-.468-1.255.855.119zm.224 3.537l.016.19c-.396-.305-1.446-1.129-2.571-2.011l1.723-.414c.416 1.128.721 1.932.832 2.235zm-.019.622l-1.445 2.456c-2.192-3.624-3.838-6.342-4.117-6.808l5.562 4.352zm-3.923-.943c-.178.266-.938 1.404-1.269 1.907l-.238-1.7 1.488-.244.019.037zm.064.105l2.206 3.644-.682 1.165-2.386.399-.451-3.237 1.313-1.971zm-.957 6.478l-3.573-.38c.633-.104 1.885-.315 3.442-.58l.131.96zm.027.188l.26 1.879-.002.005c-1.768-.981-3.572-1.983-4.138-2.294.632.063 2.042.209 3.88.41zm.251-.161l-.144-1.029 2.168-.368-.892 1.518-1.132-.121zm2.293-1.234l.282.963-.328.514-.771-.082.817-1.395zm-.031 1.658l.529.061 1.078 3.695-2.959-1.641 1.352-2.115zm.724.076l1.171.124-.214 3.171-.957-3.295zm1.267 4.033l2.86-.408 2.19 3.624-.74 1.581-4.31-4.797zm3.244-.467l3.801-.542c-.599 1.264-1.203 2.55-1.806 3.837l-1.995-3.295zm4.061-.46l1.766 2.405-1.706 4.861c-.632-1.035-1.29-2.127-1.956-3.237l1.896-4.029zm1.924 2.305c.296-.857.567-1.614.731-2.085.18 1.231.379 2.543.58 3.866-.444-.599-.88-1.188-1.311-1.781zm1.002-2.838l1.421-.205c.328.817.576 1.432.656 1.606l-2.056-1.278-.021-.123zm-.04-.27l-.166-1.102 1.198.127.319.784-1.351.191zm-.19-1.289l-.222-1.463.681-.096c.226.561.461 1.139.688 1.682l-1.147-.123zm-.055-3.525l.149-.321c.613.532 1.397 1.223 2.172 1.906l-1.58.23c-.265-.654-.521-1.283-.741-1.815zm.064-.758l-.58-.509-.117-.289c.012-.065.558-2.359.732-3.088l.799 2.101c-.258.549-.539 1.146-.834 1.785zm-.532-4.841l-.984-1.035.835.121.338.882-.189.032zm-1.114-1.234l-.592-3.562.069-.014c.349.902.833 2.176 1.416 3.703l-.893-.127zm-.731-4.642l.686.787-.357.074-.329-.861zm-.151-.753l.414-.911 1.457 2.226.001.018-.608.12-1.264-1.453zm.504-1.107l1.316-2.901.047 4.988-1.363-2.087zm.039-4.105l.499-.891.004-.001.79 1.121-1.293-.229zm.425-1.316l-.677-.947 1.746-.981c-.278.499-.646 1.16-1.069 1.928zm-.94-1.005l-3.026 1.701-1.205-.213.022-.032 2.418-3.984c.297.416 1.05 1.477 1.791 2.528zm-4.522 1.237l-3.599-5.09 5.988 1.146-2.389 3.944zm-3.353-7.179l-2.682-1.364h-.002l-1.465-2.072 4.336 2.88-.187.556zm-2.969-1.108l-1.484 1.965-.254-4.423 1.738 2.458zm-1.566 2.488l-.032-.004.025-.104v-.002l.007.11zm.012.182l.115 2.022-.576-.566.371-1.464.09.008zm2.1 4.237l.37.364-.9 2.695-.064-.009.483-2.845.111-.205zm-.772 3.015l-.609-.104-.065-.174 1.067-2.02-.393 2.298zm-.519.095l.488.086-.047.278-.292.079-.15-.397.001-.046zm.409.561l-.067.394-.127-.34.194-.054zm-.009 1.32c.607 1.618 1.223 3.257 1.782 4.752l-2.539-2.483.757-2.269zm.821 1.428l2.247-1.677.123.055-1.167 4.824c-.384-1.018-.791-2.103-1.203-3.202zm1.709 5.314l-4.291-.6 3.749-.839c.186.502.368.985.542 1.439zm.068.194l.511 1.362-1.798.431c-1.198-.94-2.458-1.926-3.074-2.406l4.361.613zm-2.64 3.24l-1.439.233-.473-3.394 1.912 3.161zm-1.463 2.028l-1.855-1.369 1.627-.269.228 1.638zm.078.571l.403 2.898-3.845.646 3.442-3.544zm.725 6.422l-1.205 2.054-2.999-4.381 4.204 2.327zm-1.111 2.513l.214.305-.436.073.222-.378zm.101-.173l1.219-2.073.125.902-1.038 1.617-.306-.446zm1.16-4.424l1.009.103-.804 1.372c-.066-.499-.136-.991-.205-1.475zm1.354.139l.761.081-1.325 2.08-.506-.28-.007-.041 1.077-1.84zm-.709 2.383l-.238.376-.078-.548.316.172zm.099.059l3.118 1.728-2.694 4.076-.738-5.313.314-.491zm3.11 2.065c-.111 1.669-.232 3.4-.342 5.087l-2.298-1.016-.008-.058c.263-.401 2.075-3.149 2.648-4.013zm-.357 5.278l-.019.328-1.436 4.404-.8-5.729 2.255.997zm-.046.785l-.301 4.454-1.046-.048-.028-.203 1.375-4.203zm-.459 11.041l.334.243-.342.001.008-.244zm.121-.443l.302-.644c1.791-.029 3.555-.062 5.184-.091l.016.69-5.502.045zm.484-1.032l5.854-12.433 7.13 11.775.034.438-13.018.22zm12.122-9.024l.909.023c-.006 2.381-.007 4.489-.009 5.995l-.9-6.018zm-.089-.581l-.321-2.126.985 1.335.335 1.082-.001.126-.998-.417zm.992-.652l-.419-1.354.434-.038-.005 1.404-.01-.012zm-.475-1.533l-.086-.27.578-.945-.003 1.174-.489.041zm-.189-.615c-.608-1.951-1.295-4.159-1.397-4.497l2.086 1.302-.006 2.071-.683 1.124zm.199-5.232l.496-.069-.004 1.276c-.134-.324-.305-.738-.492-1.207zm-.11-.253l-.287-.714.896.098-.002.53-.607.086zm-.369-.9l-.716-1.76 1.651-.246.048.041-.005 2.063-.978-.098zm-1.23-4.262l.763-1.611 1.306 3.424-2.069-1.813zm.738-2.188l-.982-2.558 2.386-.431-1.404 2.989zm-1.107-2.901l-.315-.821 2.726.384-2.411.437zm-.388-1.011l-1.436-3.771.429-.084 3.688 4.229-2.681-.374zm-.574-3.94l.574-.118.001-.001.008-.001 2.043 3.137-2.626-3.017zm.52-6.785l-.788-1.107 1.353-2.427.861-.486.369.067-1.795 3.953zm.729-3.835l.164-.289.262.048-.426.241zm.102-3.586c-1.963.914-4.153 1.926-4.523 2.1l-.099-.009c-.73-.483-9.317-6.195-10.56-7.018l-.066-.101-.028-.023-.193-4.612 2.057.429-.009.139.072.105.041.012.07.095.037.016.067.095.039.012.071.1.039.016.067.091.039.016.067.095.037.012.071.1.041.017.065.09.036.016.071.096.04.011.069.099.039.016.064.091.041.017.071.095.04.017.065.093.038.014.068.094.037.015.073.097.039.012.065.097.039.016.07.094.041.014.066.098.039.017.066.091.038.02.074.09.038.016.065.096.039.016.065.09.041.02.073.093.037.016.065.095.039.017.072.09.041.019.064.093.041.016.063.095.038.016.076.091.037.017.066.094.038.012.067.098.041.013.07.096.041.016.062.095.041.017.072.093.038.013.066.096.039.014.064.098.04.015.073.092.04.019.063.091.042.017.066.095.041.012.068.095.037.016.067.096.04.016.072.096.073.02.067.099.036.011.071.098.041.019.067.09.042.017.063.095.036.012.076.096.039.016.065.094.04.017.064.095.041.017.071.091.041.02.063.09.039.013.07.099.041.011.067.096.039.019.063.092.018.006-.096.173c-.041.095-.041.134-.013.162.071.099.198.103.331.095l.082-.054-.043-.156-.071-.005-.052.003c.076-.153.242-.419.332-.535l.011.062.074.057c.066-.003.145 0 .141-.063-.005-.06-.021-.25-.114-.308-.054-.025-.113-.023-.168.006l-.107.094-.023-.022-.038-.019-.066-.092-.039-.017-.074-.096-.038-.012-.065-.094-.037-.018-.071-.095-.041-.015-.068-.096-.037-.012-.066-.095-.041-.017-.072-.095-.037-.012-.066-.098-.039-.018-.064-.091-.041-.016-.073-.095-.037-.012-.066-.096-.072-.021-.077-.101-.037-.016-.065-.091-.04-.018-.065-.093-.04-.012-.072-.1-.038-.012-.065-.095-.039-.017-.072-.094-.039-.012-.067-.099-.041-.017-.064-.091-.036-.015-.075-.096-.039-.016-.065-.093-.04-.018-.065-.091-.041-.014-.071-.098-.038-.012-.065-.096-.038-.019-.074-.091-.04-.016-.065-.095-.041-.017-.062-.09-.039-.017-.075-.095-.039-.012-.065-.098-.036-.012-.07-.096-.041-.018-.069-.092-.036-.012-.067-.1-.039-.016-.073-.09-.04-.018-.065-.094-.04-.016-.063-.095-.039-.012-.074-.095-.04-.017-.064-.095-.04-.016-.068-.094-.041-.018-.067-.091-.039-.014-.066-.097-.039-.016-.07-.092-.039-.019-.066-.091-.041-.017-.066-.095-.039-.012-.071-.095-.041-.02-.063-.09-.039-.013-.071-.099-.041-.016-.065-.091-.04-.017-.066-.094-.041-.017-.015-.029 11.294 2.353-.017.024-.107.055-.024.034-.108.05-.023.041-.109.049-.016.035-.116.055-.017.037-.111.051-.025.04-.103.047-.03.038-.103.052-.025.036-.106.053-.021.037-.113.049-.015.038-.115.052-.023.035-.103.055-.025.034-.106.05-.026.039-.106.051-.02.037-.114.053-.021.037-.111.05-.017.037-.107.051-.024.036-.107.054-.029.035-.103.054-.022.036-.11.05-.021.038-.113.051-.021.038-.104.052-.023.034-.107.051-.03.041-.102.049-.024.035-.107.055-.021.036-.111.051-.022.041-.106.047-.02.035-.108.054-.029.036-.104.054-.026.038-.105.047-.018.038-.114.052-.018.035-.114.055-.019.037-.107.048-.025.04-.106.049-.025.035-.107.055-.02.035-.112.051-.021.041-.11.048-.018.037-.107.052-.026.037-.105.052-.026.037-.106.048-.022.038-.078.026-.086-.108c-.07-.072-.105-.087-.142-.081-.118.032-.175.143-.218.272l.018.097.163.019.028-.06.024-.053c.107.133.29.388.357.522l-.065-.02-.082.048c-.017.058-.05.132.004.154.061.02.24.083.329.011.046-.035.073-.091.064-.154l-.073-.187.084-.046.02-.035.104-.055.029-.037.103-.048.028-.041.104-.048.022-.035.11-.055.021-.035.111-.053h.001l.016-.036.109-.05.027-.038.103-.053.025-.034.107-.055.024-.036.108-.05.021-.039.111-.051.018-.035.111-.055.022-.035.105-.051.027-.041.104-.049.026-.034.106-.055.021-.037.112-.051.017-.038.114-.049.018-.037.107-.053.025-.035.107-.055.029-.038.104-.047.02-.039.112-.051.018-.035.115-.054h.001l.02-.036.104-.05.026-.039.106-.05.026-.035.104-.054.023-.039.109-.049.018-.037.116-.05.021-.036.105-.053.027-.038.103-.052.025-.034.107-.05.024-.039.107-.051.021-.038.11-.052.02-.037.11-.048.022-.041.105-.049.025-.034.106-.055.027-.038.105-.049.018-.037.114-.05.021-.039.11-.051.019-.038.106-.052.025-.034.107-.05.029-.039.104-.051.039-.113v-.011l-.061-.159.005-.007 1.085.225.158.374c-.042.945-.176 3.776-.281 6.04zm-12.5-8.769l-.02.091-.052-.061.001-.003.071-.027zm-.045-.059l.004-.034.021.026-.025.008zm.004.315l.041.041-.011.013-.026.054-.069.027.018-.094.047-.041zm-.022.193l-.005.033-.021-.023.026-.01zm.156-.337h.01l-.013.086-.058-.059.001-.002.06-.025zm-.035-.061l.004-.037.029.032h-.015l-.018.005zm.005.315l.041.042-.009.012-.027.056-.055.024-.011.002.016-.094.045-.042zm-.017.194l-.002.032-.025-.029h.012l.015-.003zm.168-.342l-.016.092-.057-.056.001-.008.072-.028zm-.044-.059l.004-.033.024.027-.028.006zm.004.318l.041.042-.008.008-.031.056-.051.022-.017.002.019-.091.047-.039zm-.022.189l-.004.037-.021-.03h.01l.015-.007zm.154-.335l.015-.001-.017.089-.056-.061h.001l.057-.027zm-.034-.058l.008-.038.024.029-.013.001-.019.008zm.008.311l.041.042-.01.013-.026.054-.068.027.018-.095.045-.041zm-.021.195l-.001.032-.023-.024.024-.008zm.168-.339l-.015.088-.06-.059.002-.003.073-.026zm-.046-.061l.006-.036.026.03-.032.006zm.005.317l.041.042-.006.011-.031.057-.064.025.014-.093.046-.042zm-.016.194l-.004.032-.025-.028.029-.004zm.166-.342l.001.005-.02.085-.055-.058v-.003l.074-.029zm-.046-.058l.005-.035.021.026-.026.009zm.005.317l.041.042-.008.009-.027.055-.07.026.019-.089.045-.043zm-.021.19l-.003.038-.022-.029.025-.009zm.167-.338l.002.006-.017.083-.054-.058.004-.005.065-.026zm-.043-.059l.004-.037.024.029-.028.008zm.003.314l.041.042-.008.013-.027.054-.055.025-.012.001.013-.092.048-.043zm-.017.193l-.004.034-.026-.026.016-.001.014-.007zm.155-.339h.011v.003l-.015.085-.058-.055.005-.009.057-.024zm-.03-.061v-.033l.027.031h-.017l-.01.002zm0 .318l.041.043-.007.008-.03.058-.052.024h-.015l.02-.093.043-.04zm-.018.194l-.005.034-.021-.031h.011l.015-.003zm.167-.342l-.019.091-.052-.057.003-.007.068-.027zm-.044-.059l.004-.033.02.024-.024.009zm.004.319l.04.042-.009.008-.025.054-.057.026-.016.001.019-.089.048-.042zm-.021.188l-.004.038-.023-.03h.016l.011-.008zm.166-.337l-.01.088-.062-.059.002-.003.07-.026zm-.047-.058l.007-.039.03.029-.037.01zm.006.313l.041.042-.008.013-.025.053-.057.025-.009.002.011-.094.047-.041zm-.013.193l-.005.035-.029-.027.016-.001.018-.007zm.168-.339v.005l-.021.084-.059-.055.005-.009.075-.025zm-.046-.061l.005-.033.021.029-.026.004zm.004.319l.041.042-.009.008-.03.059-.052.023h-.018l.021-.09.047-.042zm-.023.192l-.004.035-.021-.031.009-.001.016-.003zm.152-.338l.017-.002.001.005-.021.086-.05-.059.005-.006.048-.024zm-.029-.061l.005-.033.021.026h-.008l-.018.007zm.004.317l.041.041-.01.01-.025.055-.067.026.016-.091.045-.041zm-.02.191v.035l-.024-.026.024-.009zm.166-.339v.005l-.011.083-.06-.056.006-.007.065-.025zm-.043-.058l.002-.038.03.029-.032.009zm.002.314l.041.042-.002.012-.033.054-.064.027.016-.095.042-.04zm-.015.194l-.005.032-.023-.026.028-.006zm.168-.342l.001.006-.021.086-.054-.056v-.01l.074-.026zm-.044-.059l.004-.033.018.028-.022.005zm.004.319l.04.042-.01.007-.025.059-.073.023.021-.09.047-.041zm-.024.191l-.003.034-.02-.028.023-.006zm.169-.34l.001.005-.015.086-.056-.059.006-.006.064-.026zm-.044-.06l.003-.032.027.024-.03.008zm.003.318l.041.041-.01.011-.026.055-.062.027.011-.092.046-.042zm-.015.192l-.005.034-.026-.026.031-.008zm.152-.337l.013-.001v.002l-.017.085-.058-.056.005-.008.057-.022zm-.028-.061v-.037l.023.03-.015.001-.008.006zm.149.166l-.02.093-.051-.056.003-.011.068-.026zm-.044-.059l.004-.033.021.029-.025.004zm.002.319l.04.042-.008.008-.025.057-.073.023.021-.09.045-.04zm-.023.19l-.002.036-.019-.028.021-.008zm-.084-.301l.041.042-.007.012-.033.054-.065.026.021-.094.043-.04zm-.019.194l-.004.032-.02-.027.024-.005zm.263-.23l.009-.001v.005l-.012.086-.061-.061h.002l.062-.029zm-.039-.058l.006-.036.03.027-.014.001-.022.008zm.006.313l.042.041-.007.012-.027.054-.065.027.013-.093.044-.041zm-.013.192l-.004.033-.028-.025.032-.008zm.152-.336l.017-.001-.021.088-.058-.056.005-.01.057-.021zm-.029-.061l.005-.036.021.03-.017.001-.009.005zm.004.316l.04.042-.009.011-.028.055-.071.026.021-.093.047-.041zm-.023.193l-.005.034-.021-.03.026-.004zm.151-.341l.016-.001-.018.092-.054-.057.003-.005.053-.029zm-.031-.058l.006-.036.023.028h-.008l-.021.008zm.006.317l.041.042-.009.007-.026.056-.064.025.013-.089.045-.041zm-.018.189v.038l-.028-.029.028-.009zm.164-.338l-.011.091-.062-.061.003-.001.07-.029zm-.041-.058v-.036l.03.026-.03.01zm0 .314l.041.042-.001.012-.034.054-.064.027.018-.094.04-.041zm-.014.194l-.004.031-.022-.023.026-.008zm.169-.339l-.021.088-.052-.057.001-.006.072-.025zm-.049-.061l.007-.036.02.03-.027.006zm.007.318l.041.041-.009.01-.024.056-.073.026.02-.093.045-.04zm-.022.192l-.005.033-.019-.029.024-.004zm.167-.342l.001.006-.013.086-.06-.058.001-.005.071-.029zm-.047-.058l.007-.034.026.026-.033.008zm.005.318l.042.043-.01.006-.025.056-.057.023-.008.001.011-.088.047-.041zm-.014.188l-.004.039-.031-.031.02-.001.015-.007zm.153-.335l.015-.001-.018.089-.059-.057.004-.007.058-.024zm-.028-.06l.001-.037.024.028-.017.002-.008.007zm.131.169h.017l-.021.09-.051-.058.002-.005.053-.027zm-.03-.06l.006-.036.021.032h-.006l-.021.004zm.005.316l.041.042-.009.008-.024.057-.071.025.018-.092.045-.04zm-.021.194l-.002.034-.023-.029.025-.005zm-.084-.304l.041.042-.008.012-.033.053-.049.024-.017.002.021-.095.045-.038zm-.02.192l-.004.033-.021-.025.006-.002.019-.006zm.27-.23l.002.005-.013.087-.062-.058.004-.005.069-.029zm-.045-.059l.006-.034.027.025-.033.009zm.004.319l.04.041-.003.008-.03.054-.064.027.013-.089.044-.041zm-.013.189l-.004.037-.027-.028.031-.009zm.169-.339l.002.006-.022.083-.057-.055.003-.007.074-.027zm-.044-.058l.004-.037.018.028-.022.009zm.001.315l.041.042-.008.01-.026.054-.056.025-.017.002.021-.094.045-.039zm-.021.191l-.005.035-.02-.027h.011l.014-.008zm.153-.338h.015l.001.004-.018.087-.053-.056.005-.011.05-.024zm-.03-.06l.004-.033.023.03-.009.001-.018.002zm.001.319l.043.042-.01.006-.024.058-.058.023h-.007l.01-.091.046-.038zm-.014.191l-.002.034-.03-.031.018-.001.014-.002zm.164-.341l-.013.094-.06-.06.007-.008.066-.026zm-.041-.058v-.033l.029.023-.029.01zm0 .317l.041.042-.003.009-.033.053-.064.027.019-.09.04-.041zm-.016.19l-.004.037-.022-.028.026-.009zm.151-.336l.016-.002-.02.088-.05-.055v-.008l.054-.023zm-.029-.06l.006-.038.02.03-.009.001-.017.007zm.004.315l.04.042-.009.011-.024.054-.074.026.021-.093.046-.04zm-.022.192l-.005.034-.021-.026.026-.008zm.166-.341l.001.005-.012.087-.058-.055.006-.012.063-.025zm-.042-.06l.004-.032.026.028-.03.004zm.001.321l.041.042-.007.006-.026.058-.064.022.009-.088.047-.04zm-.011.19l-.005.035-.031-.029.036-.006zm.149-.338l.018-.002-.021.094-.059-.06.007-.007.055-.025zm-.026-.061l.003-.032.021.025h-.015l-.009.007zm.132.171h.017l-.021.088-.052-.058.002-.006.054-.024zm-.031-.06l.006-.038.021.031-.007.001-.02.006zm.004.315l.041.042-.008.011-.025.053-.057.026-.013.001.018-.095.044-.038zm-.02.192v.033l-.024-.027h.016l.008-.006zm-.084-.301l.041.041-.008.01-.031.054-.051.024-.016.001.019-.09.046-.04zm-.022.19l-.004.036-.021-.028.008-.001.017-.007zm.273-.231l-.011.095-.062-.058.004-.006.069-.031zm-.044-.057l.002-.034.03.029-.032.005zm.002.319l.064.062-.121.067.014-.09.043-.039zm.029.172l-.012.068-.027-.009-.033-.033.072-.026zm.126-.322v.005l-.021.087-.055-.061v-.002l.076-.029zm-.048-.058l.007-.034.02.024-.027.01zm-.025.438l.039-.111.048.05-.087.061zm.05.053l-.009.06-.03-.046.039-.014zm.126-.302l-.014.07-.041-.04.055-.03zm-.048-.056l.01-.06.029.046-.039.014zm.019.305l.056.058-.024.045-.058.023-.007.002.033-.128zm.012.186l-.005.039-.03-.03.016-.001.019-.008zm.149-.335l.017-.001-.021.089-.018.016-.057-.062.079-.042zm-.071-.043l.007-.069.034.011.026.033-.015.001-.052.024zm0 .338l.028-.024.046.042-.026.048-.067.027.019-.093zm.024.153l-.004.033-.021-.024.025-.009zm.169-.34v.003l-.021.088-.009.012-.055-.05.014-.025.071-.028zm-.046-.061l.006-.033.02.029-.026.004zm-.015.331l.046.047-.021.049-.068.023.014-.09.029-.029zm-.002.181v.033l-.027-.029.027-.004zm.166-.342l.002.006-.013.089-.019.012-.052-.052.017-.028.065-.027zm-.043-.06l.003-.032.028.023-.031.009zm-.008.333l.046.046-.028.043-.051.025-.014.001.014-.089.033-.026zm-.002.175l-.005.038-.026-.03h.012l.019-.008zm.151-.335l.016-.002.001.005-.021.084-.013.016-.048-.053.009-.027.056-.023zm-.029-.06l.005-.037.02.03-.014.001-.011.006zm-.016.33l.046.044-.02.047-.058.025-.017.002.021-.095.028-.023zm-.002.176l-.005.035-.021-.027.015-.001.011-.007zm.167-.34l-.015.092-.015.013-.052-.049.018-.031.064-.025zm-.043-.06l.004-.033.024.029-.028.004zm-.013.332l.041.047-.02.048-.064.023.011-.09.032-.028zm0 .179l-.003.035-.029-.03.032-.005zm.153-.339l.011-.001-.016.094-.019.011-.048-.052.013-.026.059-.026zm-.03-.06v-.033l.026.026-.016.001-.01.006zm-.015.332l.046.046-.029.043-.064.028.02-.091.027-.026zm-.003.176l-.004.035-.021-.026.025-.009zm.168-.339l.001.004-.021.087-.008.016-.054-.054.015-.028.067-.025zm-.043-.059l.003-.036.02.028-.023.008zm-.018.33l.046.045-.02.048-.072.028.018-.094.028-.027zm-.002.179l-.005.034-.021-.028.026-.006zm.159-.341l.008-.001-.012.095-.018.011-.052-.049.018-.031.056-.025zm-.035-.06l.003-.032.029.029h-.016l-.016.003zm-.009.331l.044.047-.027.048-.055.021h-.009l.011-.088.036-.028zm-.004.178l-.003.036-.031-.031.018-.001.016-.004zm.153-.338l.017-.001-.019.093-.021.013-.044-.054.005-.022.062-.029zm-.031-.058l.006-.036.022.026-.018.001-.01.009zm-.014.33l.046.046-.023.044-.053.025-.017.002.021-.092.026-.025zm-.002.175l-.004.035-.021-.027h.008l.017-.008zm.167-.337l-.02.089-.011.016-.053-.054.015-.026.069-.025zm-.047-.059l.006-.038.021.029-.027.009zm-.014.328l.064.062-.105.059.014-.094.027-.027zm.058.152l-.043.073-.015-.004-.027-.035.085-.034zm.107-.314l.001.006-.024.108-.058-.057.012-.028.069-.029zm-.042-.058l.002-.034.027.028-.029.006zm.106.117l.009-.04.008.014-.017.026zm5.9-2.398l.039.014-.034.02v-.013999999999999999l-.005-.02zm-.022-.083l-.037-.057.05-.033.011.008.053.04.011.065-.001.009-.087-.032zm.042-.374l-.038-.014.037-.021-.003.017.004.018zm.024.087l-.064.046-.015-.005-.016-.077.095.036zm-.199.373l-.03-.052.045-.033.009.006.054.038.018.06-.002.017-.094-.036zm.06.099l-.033.021-.003-.032.036.011zm.005-.386l.001.002-.065.048-.012-.009-.016-.06v-.014l.092.033zm-.061-.098l.034-.021.003.033-.037-.012zm-.113.561l.041.009-.039.022.001-.015-.003-.016zm-.023-.087l-.03-.052.054-.038.002.011.053.038.016.073-.095-.032zm.042-.374l-.037-.01.035-.021v.013l.002.018zm.023.086l.001.003-.065.048-.013-.01-.009-.06.001-.014.085.033zm-.167.462l.039.012-.037.021v-.013999999999999999l-.002-.019zm-.032-.086l-.029-.054.055-.034.009.009.043.039.02.06-.002.015-.096-.035zm.044-.373l-.038-.012.036-.021-.002.016.004.017zm.031.087v.002l-.072.044-.01-.005-.011-.079.093.038zm-.175.46l.038.014-.034.021v-.018000000000000002l-.004-.017zm-.03-.087l-.031-.05.055-.034.009.005.05.039.012.06-.002.018-.093-.038zm.071-.288l.004.004-.074.047-.005-.01-.018-.074.093.033zm-.069-.097l.039-.021v.035l-.039-.014zm-.126.476l-.038-.051.053-.038.009.01.053.037.009.06-.001.014-.085-.032zm.059.094l-.034.022-.002-.03.036.008zm.005-.384l.002.005-.065.047-.015-.011-.018-.059.002-.014.094.032zm-.063-.096l.037-.021.002.03-.039-.009zm-.111.56l.037.01-.033.019v-.011l-.004-.018zm-.023-.086l-.03-.054.046-.034.008.008.052.037.018.067v.007l-.094-.031zm.042-.376l-.039-.01.038-.021-.003.015.004.016zm.024.09l.003.003-.066.042-.015-.007-.016-.076.094.038zm-.176.459l.039.014-.035.019v-.003l-.004-.03zm-.021-.086l-.031-.051.05-.033.003.003.053.04.019.061-.001.015-.093-.035zm.062-.287l.005.003-.065.047-.013-.009-.011-.025v-.051l.084.035zm-.06-.099l.034-.021.003.033-.037-.012zm-.137.472l-.028-.048.054-.039.005.009.047.039.017.075-.095-.036zm.07.098l-.039.021v-.03l.039.009zm-.027-.471l-.037-.009.034-.021-.001.013.004.017zm.029.089v.004l-.067.047-.015-.013-.009-.072.091.034zm-.203.376l-.028-.054.054-.034.007.008.048.039.014.059v.009l-.001.004-.094-.031zm.069.095l-.034.019-.003-.028.037.009zm.004-.382l.004.005-.072.042-.007-.007-.014-.028-.004-.048.093.036zm-.068-.099l.034-.019.002.027-.036-.008zm-.107.558l.036.013-.032.02v-.013999999999999999l-.004-.019zm-.023-.086l-.037-.049.055-.035.007.004.053.041.01.065-.002.008-.086-.034zm.041-.373l-.041-.013.041-.022-.002.018.002.017zm.024.088l.004.002-.069.047-.012-.008-.018-.062.002-.016.093.037zm-.197.372l-.032-.047.051-.038.006.007.053.038.014.059v.018l-.092-.037zm.06.1l-.034.021-.002-.031.036.01zm-.018-.472l-.037-.011.036-.021-.002.013.003.019zm.024.085l.002.008-.062.046-.019-.013-.018-.06.002-.013.095.032zm-.177.464l.038.009-.034.021.001-.004v-.009l-.005-.017zm-.022-.087l-.026-.051.046-.034.005.007.053.038.019.069-.002.004-.095-.033zm.042-.374l-.037-.01.036-.022-.002.014.003.018zm.023.087l.004.008-.063.043-.019-.011-.01-.073.088.033zm-.198.375l-.026-.049.055-.034v.004l.049.039.019.06-.002.015-.095-.035zm.07.098l-.041.019v-.031l.041.012zm0-.384l.002.003-.065.046-.017-.01-.01-.058.001-.018.089.037zm-.065-.1l.033-.021.004.032-.037-.011zm-.137.472l-.027-.045.056-.037.006.004.044.039.017.06-.001.017-.095-.038zm.069.102l-.034.019-.001-.031.035.012zm-.026-.472l-.038-.013.034-.021v.014l.004.02zm.033.084l.003.007-.072.046-.01-.014-.018-.06.002-.013.095.034zm-.176.464l.037.008-.033.02v-.011l-.004-.017zm-.027-.089l-.032-.048.055-.035.006.005.051.038.01.069-.001.005-.089-.034zm.069-.284l.005.007-.071.044-.011-.014-.018-.072.095.035zm-.069-.099l.041-.02v.028999999999999998l-.041-.009zm-.106.56l.037.011-.033.019v-.011l-.004-.019zm-.024-.088l-.034-.047.054-.035.005.005.054.039.011.059v.013l-.09-.034zm.066-.285l.005.004-.063.046-.019-.01-.017-.077.094.037zm-.061-.098l.034-.02.002.029-.036-.009zm-.137.471l-.025-.045.046-.037.005.002.054.04.017.061-.001.015-.096-.036zm.061.1l-.035.021-.001-.034.036.013zm.004-.386l.006.008-.062.046-.021-.013-.013-.075.09.034zm-.059-.1l.033-.019.003.032-.036-.013zm-.113.561l.041.01-.041.021.002-.014-.002-.017zm-.024-.086l-.026-.048.051-.035v.004l.051.038.019.069-.001.006-.094-.034zm.065-.289l.004.012-.062.045-.021-.016-.005-.072.084.031zm-.061-.095l.034-.02.003.028-.037-.008zm-.106.56l.036.009-.033.02v-.011l-.003-.018zm-.032-.089l-.024-.046.056-.035.002.003.045.038.017.059v.009l-.001.005-.095-.033zm.074-.284l.002.006-.067.044-.015-.011-.015-.06.001-.015.094.036zm-.069-.099l.034-.021.003.03-.037-.009zm-.106.558l.037.013-.035.022.001-.017-.003-.018zm-.028-.085l-.028-.046.056-.036h.003l.052.041.01.06-.002.014-.091-.033zm.071-.286l.008.007-.072.045-.014-.012-.017-.078.095.038zm-.069-.101l.039-.021v.034l-.039-.013zm-.128.474l-.035-.045.056-.038.003.003.053.039.009.059v.019l-.086-.037zm.061.098l-.035.021-.002-.032.037.011zm.002-.385l.008.012-.067.045-.017-.018-.018-.058.002-.014.092.033zm-.06-.098l.034-.021.004.033-.038-.012zm-.113.561l.037.009-.033.02v-.011l-.004-.018zm-.024-.087l-.027-.046.05-.035.002.002.054.037.016.074-.095-.032zm.043-.376l-.037-.008.035-.02-.002.013.004.015zm.023.09l.007.008-.062.044-.022-.013-.016-.073.093.034zm-.174.46l.04.013-.038.021.001-.005v-.009l-.003-.02zm-.024-.086l-.024-.044.048-.035h.002l.052.039.019.06-.001.013-.096-.033zm.064-.287l.009.009-.062.045-.023-.013-.008-.078.084.037zm-.06-.099l.035-.021.001.033-.036-.012zm-.106.56l.039.014-.037.019v-.015l-.002-.018zm-.03-.087l-.024-.042.055-.038.002.001.046.039.018.06-.002.018-.095-.038zm.073-.288v.014l-.062.045-.02-.018-.012-.059.001-.015.093.033zm-.068-.097l.034-.021.002.034-.036-.013zm-.106.562l.036.009-.032.018v-.001l-.004-.026zm-.029-.088l-.025-.045.055-.034.002.002.049.037.013.06-.002.014-.092-.034zm.072-.286l.007.011-.071.042-.013-.013-.018-.073.095.033zm-.07-.098l.037-.021v.028999999999999998l-.037-.008zm-.128.473l-.032-.043.056-.035.001.001.052.039.009.072-.086-.034zm.059.098l-.034.019-.002-.029.036.01zm.005-.385l.009.01-.07.045-.016-.013-.018-.077.095.035zm-.063-.098l.038-.021.002.031-.04-.01zm-.134.472l-.03-.041.054-.039h.001l.052.039.017.068v.008l-.094-.035zm.06.1l-.032.019-.004-.032.036.013zm.005-.387l.01.013-.063.044-.023-.017-.018-.061.002-.014.092.035zm-.061-.099l.034-.021.003.036-.037-.015zm-.114.562l.039.009-.037.021.003-.014-.005-.016zm-.024-.09l-.021-.042.047-.035.053.038.019.069-.002.006-.096-.036zm.044-.373l-.038-.01.037-.021-.004.014.005.017zm.023.089l.009.013-.062.042-.024-.015-.01-.06.001-.013.086.033zm-.199.375l-.021-.043.052-.035.048.038.017.059-.001.013-.095-.032zm.07.097l-.039.021v-.029l.039.008zm-.027-.471l-.037-.009.034-.021-.002.013.005.017zm.029.087l.003.012-.061.045-.024-.015-.01-.06.001-.015.091.033zm-.172.46l.038.014-.036.021.003-.015-.005-.02zm-.031-.083l-.021-.042.055-.04.047.041.015.065-.001.009-.095-.033zm.041-.374l-.037-.014.037-.022-.002.019.002.017zm.032.087l.007.012-.065.045-.019-.016-.017-.062.001-.017.093.038zm-.198.372l-.029-.042.056-.036.053.037.009.06v.009l-.002.009-.087-.037zm.059.099l-.032.021-.002-.03.034.009zm-.018-.471l-.041-.011.041-.022-.002.015.002.018zm.026.087l.008.015-.068.041-.018-.018-.018-.059.001-.014.095.035zm-.176.463l.036.009-.033.019v-.012l-.003-.016zm-.023-.09l-.03-.04.057-.036.05.037.015.069v.003l-.092-.033zm.042-.373l-.036-.009.035-.022-.002.015.003.016zm.024.089l.009.011-.066.044-.021-.016-.019-.06.003-.013.094.034zm-.175.46l.037.013-.034.021v-.013999999999999999l-.003-.02zm-.024-.086l-.022-.04.05-.039.05.04.018.059-.001.014-.095-.034zm.043-.373l-.038-.013.037-.021-.002.017.003.017zm.023.087l.011.013-.062.044-.027-.016-.011-.078.089.037zm-.197.374l-.022-.043.049-.035.051.037.017.06-.001.018-.094-.037zm.067.1l-.041.021v-.034l.041.013zm0-.389l.007.018-.06.043-.027-.02-.01-.059.002-.013.088.031zm-.064-.097l.035-.021.002.035-.037-.014zm-.135.476l-.022-.042.057-.036.042.035.018.06-.001.014-.094-.031zm.068.095l-.034.02-.002-.028.036.008zm-.027-.471l-.039-.009.038-.022-.003.014.004.017zm.032.086l.003.014-.062.043-.02-.017-.018-.06.003-.014.094.034zm-.243.347l.073-.047.048.037.009.073-.13-.063zm.105.128l-.063.028-.043-.079.106.051zm.005-.385l.012.016-.068.043-.021-.018-.017-.059.001-.018.093.036zm-.069-.098l.041-.021v.031l-.041-.01zm-.087.1l-.038-.014.036-.021-.001.017.003.018zm.023.085l.013.018-.074.049-.032-.101.093.034zm-.154.002l-.023-.022.02-.007.003.029zm6.763 3.631l.264.079-.338 1.514.074-1.593zm.011-.185l.006-.108.37-.176-.082.369-.294-.085zm.363.292l.018.008-.119.43.101-.438zm-.348-.705l.098-2.03.297 1.847-.395.183zm.486.07l.072-.029-.143.496-.028-.006.099-.461zm.011-.3c-.064-.426-.267-1.697-.376-2.354l.021-.379 1.196.207-.69 2.453-.151.073zm-.23-5.373l.024-.592 1.496.31.203.786-.601 2.134c-.167-.398-.674-1.588-1.122-2.638zm2.268-1.288l-1.048-1.284c.646.115 1.132.188 1.41.197l-.362 1.087zm-1.111-1.476l-.004-.012-.334-.628c.362.148 1.02.427 1.819.767l.008.085c-.269-.007-.788-.087-1.489-.212zm.276-.579c.499.077.876.122 1.121.125l.044.023.032.355-1.197-.503zm.98-2.435l.176 2.382-.017-.003c-.325 0-.961-.088-1.82-.243l1.661-2.136zm-1.907 2.364l.312.586-.67-.132.358-.454zm-.059-.101l-.422.529c-1.028-.208-2.27-.476-3.623-.782l1.887-.177c.803.17 1.528.316 2.158.43zm-8.474-1.85c2.021.475 4.018.929 5.731 1.296l-1.825.174-.02.004c-1.85-.416-3.867-.889-5.796-1.35l1.91-.124zm-5.361-1.28c1.506.366 3.139.758 4.76 1.139l-1.873.121-.02.006c-1.724-.413-3.353-.809-4.697-1.138l1.805-.123.025-.005zm-2.948-.714l.014-.005 2.375.58-1.836.125-.006.003-.35-.087-.006-.008-.378-.602.187-.006zm-.179.527l-1.751-.431 1.435-.074.316.505zm-.424-.678l-1.721.087-.195-.57 1.91.474.006.009zm-.143-.229l-1.845-.458-.65-1.876.497-.852c.713 1.138 1.467 2.343 1.998 3.186zm-2.927.258l-.137-.837.978.245.237.678-1.078-.086zm.592.228l-.533.135-.027-.179.56.044zm-3.29-1.007l1.783-.083-1.453.427-.33-.344zm.315.592l-.147-.015.106-.03.041.045zm1.973-.637l.136.804-1.836-.146-.118-.123 1.818-.535zm.164.988l.044.266-1.074.268-.646-.67 1.676.136zm-.103-2.265l.565-.297.555 1.604-.94-.233-.18-1.074zm1.169-1.515l-.464.799-1.194-3.447c.336.535.972 1.548 1.658 2.648zm-1.78-2.172l1.104 3.186-.555.123c-.216-1.313-.407-2.459-.549-3.309zm.361 3.819l.149.903-2.057.1 1.908-1.003zm-2.131.188l1.452-.319-1.467.476.015-.157zm-.036.351l1.962-.637-2.008 1.057.046-.42zm-.081.756l.282.295-.324.094.042-.389zm-.068-1.066l-.018.176-2.23.723-.004.001-2.298.11c.872-.192 2.867-.635 4.55-1.01zm-.039.37l-.044.427-1.486.07 1.53-.497zm-.263 2.459c-1.729-.596-3.468-1.192-4.404-1.518 1.039.084 2.828.227 4.528.366l-.124 1.152zm-3.887-1.656l4.085-.194-.055.516-4.03-.322zm4.189.517l.721.056.713.742-1.559.39.125-1.188zm.163 1.301l1.415-.354 1.214 1.257c-.761-.26-1.682-.575-2.629-.903zm1.62-.405l.962-.24.248 1.498-1.21-1.258zm1.223-.307l1.037-.258.015-.007.403 1.167-1.165.843-.29-1.745zm.347 2.097l1.239.426.02.005.443.092.014.043-.275 2.459-.883.328-.558-3.353zm.584 3.532l.833-.305-.358 3.158-.475-2.853zm.595 3.581l.938-.546-.435 3.57-.503-3.024zm.62 3.734l.773-2.183 1.134 2.274-.026.113-1.88-.2-.001-.004zm.063.192l1.772.188-.34 1.337-1.363-1.345-.069-.18zm.218.578l1.165 1.148-.297 1.168-.868-2.316zm.98 2.615l.333-1.319.642.634.06 1.044-1.03-.349-.005-.01zm.085.226l.962.328.15 2.65-1.112-2.978zm1.248 3.332l-.172-2.966 1.549.526-.05.29-1.247 2.366-.08-.216zm.177 1.523l.094-.026.298.797-.821 2.461-.222-.22.651-3.012zm-.697 3.221l.204.198-.702 2.103.498-2.301zm.421.409l2.723 2.666-.003.011v.004l-3.909.872 1.189-3.553zm-1.455 4.217l.526 3.778-1.709.28 1.183-4.058zm-1.271 4.356l1.999 1.476c-.165.171-2.567 2.649-3.465 3.574l1.466-5.05zm1.537 10.39l-.431.73c-.417.063-.95.15-1.506.241l-1.128-5.451 3.065 4.48zm-3.252-4.495c.205.991.756 3.652 1.139 5.493-1.193.198-2.447.398-2.87.464l1.731-5.957zm1.461 7.54l-2.556 4.348c-.158-1.354-.599-5.121-.666-5.675l3.222 1.327zm-3.363-.992c.151 1.279.562 4.804.659 5.598l-.101.174-2.311.239 1.753-6.011zm-1.83 6.283l1.711.642-3.759 6.398 2.048-7.04zm-.974 5.83l9.619-15.057 2.349 16.879-13.17.224 1.202-2.046zm-1.331 2.587l3.506 4.256-3.795-.055c.125-1.832.248-3.646.289-4.201zm-.588 8.483l.283-4.104 3.729.051-4.012 4.053zm.824-.448l3.557-3.592.004-.006 1.35.022c-1.954 1.426-3.855 2.806-4.911 3.576zm3.68-3.779l.636-.632.794.656-1.43-.024zm1.544-.027l-.828-.684 1.011-1.012-.139 1.665-.044.031zm.163-.119l.143-1.7 1.841-1.844.984 1.385-2.968 2.159zm3.113-2.271l-.908-1.273h.24l2.135.206c-.429.317-.927.678-1.467 1.067zm1.805 2.54l-1.581-2.223 1.674-1.223-.093 3.446zm2.726 3.827l-2.516-3.537 2.609.045c-.039 1.507-.076 2.948-.093 3.492zm.096-3.601l-2.599-.045c.434-.476 2.135-2.346 2.677-2.933l-.078 2.978zm.086-3.259l-2.795 3.07.092-3.564.027-.021 2.682.268-.006.247zm.013-.43l-2.471-.244.184-.135 2.294-.014-.007.393zm.075 7.412l.09-3.608 4.862.082c-2.237 1.589-4.426 3.15-4.952 3.526zm.181-7.025l.005-.198.6-.001c1.143.814 2.667 1.908 4.302 3.07l.002.41c-.246-.164-4.301-2.871-4.909-3.281zm5.082 2.994l.199.143-.198.142-.001-.285zm.148.404l.208-.154.213.161-.421-.007zm.379-.494l-.53-.377-.004-2.731.579-.001.064 3.033-.109.076zm.2-4.7c4.052-.067 7.239-.125 7.858-.131l.013.146-.934.631-6.93.047-.007-.693zm.013.968l6.521-.052-.728.493-5.783.007-.01-.448zm5.53.623l-.384.252-.406-.252h.79zm-1.376 0c-.591.413-2.256 1.601-4.079 2.907l-.06-2.907h4.139zm-4.075 3.319l-.004-.2c2.276-1.614 4.315-3.072 4.357-3.101l.551.35-4.645 3.131-.259-.18zm.416.29l4.655-3.141c.667.425 1.746 1.104 2.998 1.895l.098 1.385c-.678-.014-4.111-.066-7.739-.132l-.012-.007zm8.035-1.217l-.172-2.395.812-.001 1.027 1.929.091 1.572-1.758-1.105zm1.904 1.418l-1.801-.05-.084-1.141c.604.377 1.245.785 1.885 1.191zm-.912-3.815l.562-.001.071 1.183c-.204-.39-.422-.791-.633-1.182zm-.096-.183l-.27-.508 1.658-.011.046.516-1.434.003zm-.41-.778l-.328-.604c.52.105 1.265.26 2.092.435l.007.152-1.771.017zm-.212.27l.266.509h-.728l-.036-.506.498-.003zm-.522-.263l-.045-.658.052-.034.368.689-.375.003zm-7.616 4.691l7.589.125.409 5.576c-1.075-.77-4.596-3.28-7.998-5.701zm8.368 5.497l-.39-5.359 1.973.058.338.214-1.921 5.087zm1.991-5.262l-.051-.029h.055l-.004.029zm.047-.145l-.29-.008-.312-.2-.071-1.317.732 1.38-.059.145zm-.716-2.265l-.087-1.562.602-.001.26 3.014-.775-1.451zm2.896-1.567c.19.379.462.931.775 1.572-.992.693-2.017 1.403-2.46 1.717.524-1.384.987-2.621 1.244-3.289h.441zm-.376-.184l.125-.33.161.33h-.286zm2.276-.002l-.001-.016.095.016h-.094zm.942.181l.163.032-1.041.721-.049-.752.927-.001zm-.785 3.577c-.332-.68-.672-1.363-.974-1.99l.792-.547.182 2.537zm-.112.375l-3.841-.105.103-.263 2.649-1.844c.334.686.714 1.452 1.089 2.212zm-.941-2.528l-.7-1.42 1.491-.002.065.83-.856.592zm-.789-1.604l-.207-.419c.647.139 1.262.269 1.777.373l.005.045-1.575.001zm-.881.002l-1.551.002-.045-.518 1.729-.017.069.017-.202.516zm-1.615-.79l-.011-.113.519.113h-.508zm.083.975l1.468-.001-1.2 3.169c-.05-.607-.173-2.075-.268-3.168zm.2 4.118l.06-.17 3.937.112c.785 1.603 1.549 3.147 1.845 3.743l-5.842-3.685zm5.883 3.177c-.213-.445-.893-1.824-1.631-3.321l1.344.181.287 3.14zm-.295-3.254l-1.39-.188-.009-.018-.209-2.882 1.243-.863c.046.552.209 2.297.365 3.951zm-5.515-11.49c.051-.238.479-2.345.82-4.056l1.308 3.434c-.363.108-1.761.518-2.128.622zm2.168-.517l.17.442c-.604.026-1.459.064-1.952.08l1.782-.522zm.212.551c1.426 3.748 2.445 6.415 2.568 6.729-.234-.309-2.232-3.022-4.892-6.63l2.324-.099zm2.066 4.909l-1.876-4.91.475-.023 1.401 4.933zm-1.917-5.027l-.155-.399.629.385-.474.014zm.442-.169l-.646-.389-.769-4.558-.013-.066 1.428 5.013zm-.836-.861l-1.247-3.271.375-1.865c.076.429.651 3.825.872 5.136zm-1.325-3.466l-.683-1.795 1.065-.089-.382 1.884zm-.745-1.972l-.451-1.185 1.465 1.1-1.014.085zm1.067-.181l-1.598-1.198-.04-.1c.016-.429.086-2.855.122-4.034.493 1.724 1.006 3.535 1.516 5.332zm-1.738-1.569l-.9-2.367 1.021-1.666-.121 4.033zm-.73-4.411l-.899.13-.09-.23.989.1zm-1.06-.295l-.714-1.865c1.097.962 2.071 1.82 2.326 2.038l-1.612-.173zm1.716.478l-.947 1.545-.514-1.336 1.461-.209zm-2.451-9.231l.953 3.376-.959-.795.006-2.581zm-.007 2.723c.263.221.93.77 1.018.838.348 1.242.753 2.664 1.189 4.197-.747-1.687-1.992-4.502-2.207-4.994v-.041zm0 .316c.533 1.201 1.881 4.256 2.427 5.496l.039.131-2.477-2.17.011-3.457zm-.012 4.248l.552 1.449-.557-.063.005-1.386zm-.005 1.571l.63.063.104.282-.734.107v-.452zm-.001.721l.836-.117c.189.503.378 1.01.575 1.506l-1.422 2.323c.003-1.244.006-2.488.011-3.712zm-.012 4.228l1.545-2.515 1.496 3.936-3.045.251.004-1.672zm-.004 1.848l3.117-.259c.27.72.535 1.426.802 2.114l-.843 4.175c-.962-1.3-2.008-2.718-3.076-4.168v-1.862zm0 2.162l8.134 11.032-7.833-1.64-.289-.54-.005-.058-.001-.017-.029-.203.023-8.574zm-.028 13.537l-2.815-1.774.538-.361 2.122-.003c.05.648.101 1.379.155 2.138zm-.172-2.323l-1.843.004.731-.496 1.076-.01.036.502zm-.703-.762l.616-.421.037.415-.653.006zm.616-22.306l-1.35-3.524 1.359-2.883c-.003 1.275-.008 3.618-.009 6.407zm0-7.653l-.064-.069-2.766-4.244 2.326-2.625c.221 3.107.444 6.125.504 6.938zm-.527-7.19c-.419.479-2.139 2.41-2.379 2.681-.005-.382-.044-4.637-.048-5.568l.109-.244c.213.27 2.103 2.695 2.311 2.962l.007.169zm-.048-.651l-2.107-2.711-.043-.035c.549-1.206 1.129-2.498 1.686-3.714l.464 6.46zm-.542-7.217l-.237-.045.653-.871-.416.916zm.754-1.674l-1.193 1.591-.51-.102.012-.212.614-2.205 1.325.382-.248.546zm.323-.712l-1.354-.387.164-.592 2.073-.963-.883 1.942zm-1.095-1.322l1.258-4.516c.378 1.465.771 2.97.904 3.51-.207.099-1.073.504-2.162 1.006zm2.268-1.686c-.152-.606-.519-2.015-.863-3.349l.098-.342.871 1.899c-.047.759-.087 1.421-.106 1.792zm.134-2.173l-.702-1.518.784.164c-.033.451-.058.915-.082 1.354zm.103-1.746l-.222-.274.246-.113-.024.387zm.027-.511l-.328.145-.372-.452.41-1.23.31-.041.077.034-.097 1.544zm.12-1.95v.015l-.01.2-.295-.125.093-.272.225.115-.013.067zm.044-.252l-.204-.104c.176-.523.352-1.052.5-1.508l-.296 1.612zm.111 2.203l1.681-.757.343.149.036.354-2.099.923.039-.669zm.313.709l1.759-.773.082.928-1.841-.155zm1.829-1.266l.309.128-.284.125-.025-.253zm.124 1.433l-.083-.99.492-.215c1.47.622 2.861 1.216 3.641 1.55l-4.05-.345zm4.377.29c-.44-.203-1.178-.562-2.012-.981l-.006-.004s-.729-.735-1.646-1.652l-.009-.421c1.479 1.233 3.027 2.523 3.675 3.059l-.002-.001zm1.527 5.994l.003.025-.001.009-.02-.01.018-.024zm-.025-.146l.004.037-.012-.008-.008-.004.016-.025zm-.023-.144l.005.033-.014-.008-.015-.003.024-.022zm-.031-.146l.007.022-.003.008-.007-.007h-.011l.014-.023zm-.021-.147l.003.03-.025-.005.022-.025zm-.025-.146l.002.023v.006l-.01-.002-.017-.004.025-.023zm-.03-.148l.003.033-.02-.01.017-.023zm.004.24l-.054.063-.024.003-.015-.068.027-.013.055.012.011.003zm-.087-.083l-.014.002-.015-.065.021-.016.074.016-.066.063zm-.047-.144l-.004-.063.024-.019.058.013.004.007-.057.062h-.025zm.001.769l-.042.024-.051-.013-.013-.003.062-.062.039-.005.005.059zm.107-.929l.004.036-.014-.007-.015-.004.025-.025zm-.028-.147l.002.024-.002.011-.004-.007-.018-.004.022-.024zm-.082.161l-.019.002-.017-.067.029-.015.055.011.011.006-.059.063zm.055-.306l.004.031-.02-.01.016-.021zm-.083.159l-.015.003-.015-.068.024-.014.072.015-.066.064zm-.084-.359l.03-.013.053.008.012.005-.062.064-.018.003-.015-.067zm.015.836l-.042.021-.065-.015.06-.063.035-.004.012.061zm-.026-.915l-.012-.067.024-.014.069.014-.063.064-.018.003zm.068.213l.056.008.006.007-.056.062-.025.003-.007-.067.026-.013zm.086-.078l.005.03-.013-.008-.016-.001.024-.021zm-.03-.149l.005.024-.003.007-.003-.005-.017-.002.018-.024zm-.023-.146l.005.03-.023-.006.018-.024zm-.023-.148l.004.034-.013-.004-.017-.005.026-.025zm-.081.157l-.027.003-.011-.065.031-.016.051.013.012.003-.056.062zm-.087-.353l.026-.017.063.017-.059.063-.023.001-.007-.064zm.008.832l-.041.023-.051-.011-.013-.004.063-.063.034-.006.008.061zm-.004-.993l.048.008.013.006-.057.063-.025.004-.014-.066.035-.015zm-.044-.066l-.015-.066.025-.015.061.008.011.006-.063.064-.019.003zm.089.355l.059.013.014.006-.067.062-.016.001-.016-.064.026-.018zm.086-.077l.006.035-.01-.007-.012-.005.016-.023zm-.02-.149l.004.035-.027-.011.023-.024zm-.025-.144v.032l-.008-.007-.015-.004.023-.021zm-.03-.146l.006.022-.003.008-.012-.007-.007-.001.016-.022zm-.024-.146l.006.029-.029-.006.023-.023zm-.082.157l-.026.004-.005-.067.026-.015.062.015-.057.063zm.054-.304l.002.031-.004-.003-.016-.003.018-.025zm-.082.156l-.022.004-.013-.066.035-.016.051.012.014.003-.065.063zm-.02.774l-.039.021-.063-.019.059-.063h.031l.012.061zm-.023-.917l-.016-.066.023-.016.063.013.011.002-.062.063-.019.004zm.101-.161l.005.024-.003.009-.011-.005-.009-.005.018-.023zm-.024-.148l.005.036-.029-.011.024-.025zm-.083.161l-.027.001-.006-.062.028-.019.063.019-.058.061zm.051-.306l.006.035-.008-.008-.012-.003.014-.024zm-.081.16l-.02.002-.014-.063.03-.019.056.011.014.007-.066.062zm-.02.772l-.037.021-.069-.015.065-.063.028-.004.013.061zm-.024-.914l-.013-.067.028-.016.059.008.008.006-.059.065-.023.004zm.103-.164l.007.022-.003.011-.012-.007-.013-.005.021-.021zm-.023-.144l.002.029-.026-.008.024-.021zm-.082.157l-.029.004-.01-.067.031-.015.065.015-.057.063zm.052-.305l.003.032-.012-.006-.008-.002.017-.024zm-.081.157l-.022.003-.014-.065.029-.016.058.008.014.007-.065.063zm-.03-.225l.06.012.002.002-.055.064-.027.003-.009-.065.029-.016zm-.047-.065l-.014-.065.034-.014h.024l.041.014-.06.063-.025.002zm.134-.015l.006.025-.002.006-.013-.003-.016-.003.025-.025zm-.026-.147l.002.024-.002.009-.021-.009.021-.024zm-.028-.145l.006.033-.021-.01.015-.023zm-.082.158l-.021.001-.015-.063.031-.019.071.019-.066.062zm-.052-.143l-.006-.062.028-.02.058.011.005.006-.054.063-.031.002zm.111-.164l.007.024-.003.012-.012-.007-.018-.004.026-.025zm-.031-.144l.005.032-.021-.011.016-.021zm-.081.16l-.023.004-.013-.066.036-.017.064.015-.064.064zm-.022.771l-.036.02-.064-.014.059-.064.029-.004.012.062zm-.023-.915l-.015-.065.03-.017.06.008.011.007-.064.062-.022.005zm.104-.162l.005.032-.014-.008-.009-.001.018-.023zm-.024-.146l.006.031-.014-.006-.017-.002.025-.023zm-.082.157l-.031.004-.006-.065.032-.018.052.009.011.006-.058.064zm.05-.304l.006.031-.009-.003-.011-.004.014-.024zm-.082.157l-.021.004-.014-.065.032-.018.058.012.014.003-.069.064zm-.026-.225l.059.013.006.003-.06.062-.022.004-.015-.064.032-.018zm-.05-.065l-.009-.063.034-.019.05.013.012.006-.055.062-.032.001zm.136-.013l.005.032-.027-.01.022-.022zm-.022-.149v.036000000000000004l-.009-.006-.016-.004.025-.026zm-.032-.147l.007.034-.021-.011.014-.023zm-.082.162l-.023.001-.014-.062.031-.021.073.017-.067.065zm-.05-.143l-.011-.064.033-.018.06.008.002.007-.056.062-.028.005zm.109-.163l.005.033-.013-.008-.016-.004.024-.021zm-.027-.146l.002.022-.002.008-.003-.006-.016-.002.019-.022zm-.022.093l-.061.064-.028.005-.013-.065.04-.018.051.008.011.006zm-.101-.16l.08.014-.066.063-.023.005-.015-.072.024-.01zm-.065.561l-.032.019-.059-.013-.009-.006.062-.062.024-.002.014.064zm-.222-.491v-.062l.003-.006.065.006-.068.062zm.026.147l-.004-.03.012.005h.008l-.016.025zm.104-.169l.016.073-.032.018-.059-.008-.013-.007.088-.076zm-.082.317l-.004-.032.014.003.016.004-.026.025zm.083-.158l.032-.004.005.064-.031.018-.055-.01-.009-.004.058-.064zm-.051.304l-.005-.032.021.008-.016.024zm.083-.157l.023-.004.015.064-.037.019-.068-.015.067-.064zm-.06.304l-.005-.035.013.008.012.003-.02.024zm.022.148l-.002-.036.01.008.017.004-.025.024zm.082-.162h.034l.006.062-.033.02-.051-.011-.013-.007.057-.064zm-.05.307l-.004-.031.02.01-.016.021zm.082-.16l.024-.003.014.063-.033.019-.071-.014.066-.065zm-.059.304l-.007-.031.014.008.017.002-.024.021zm.081-.156l.027-.004.013.063-.032.018-.061-.007-.004-.007.057-.063zm-.056.302v-.03l.005.006h.016l-.021.024zm.082-.156l.031-.003.01.063-.04.019-.049-.008-.012-.007.06-.064zm-.053.305l-.006-.029.019.005-.013.024zm.083-.158l.024-.004.014.063-.036.019-.071-.014.069-.064zm-.061.305l-.004-.033.012.004.017.004-.025.025zm.081-.157l.032-.004.01.062-.035.02-.057-.013-.006-.002.056-.063zm-.05.304l-.003-.034.019.01-.016.024zm.082-.159l.027-.003.014.062-.041.021-.065-.019.065-.061zm-.059.307l-.005-.034.022.01-.017.024zm.081-.162l.028-.001.014.062-.034.021-.071-.018.063-.064zm-.057.306l-.005-.034.012.008.016.004-.023.022zm.081-.159l.036-.004.005.062-.036.021-.051-.008-.011-.007.057-.064zm-.051.305l-.004-.032.009.008.012.002-.017.022zm.084-.159l.026-.004.014.062-.037.021-.059-.008-.012-.007.068-.064zm-.061.304l-.005-.029.027.006-.022.023zm.023.148v-.031l.009.003.015.003-.024.025zm.082-.156l.038-.005.004.062-.037.021-.049-.011-.015-.004.059-.063zm-.051.303l-.005-.032.013.004.007.004-.015.024zm.083-.157l.027-.004.014.062-.035.021-.061-.013-.012-.002.067-.064zm-.06.305l-.004-.035.028.01-.024.025zm.083-.16l.028-.003.014.063-.037.021-.063-.019.058-.062zm-.055.305l-.003-.033.021.011-.018.022zm.082-.16h.032l.008.062-.04.021-.063-.018.063-.065zm-.056.307l-.004-.034.012.008.008.003-.016.023zm.081-.16l.031-.003.013.062-.037.021-.06-.008-.013-.007.066-.065zm-.057.304l-.007-.029.029.008-.022.021zm.081-.158l.032-.005.011.062-.038.021-.062-.014.057-.064zm-.052.306l-.004-.032.007.006h.014l-.017.026zm.082-.158l.031-.005.012.062-.041.022-.054-.008-.013-.007.065-.064zm-.057.304l-.005-.028.022.005-.017.023zm.021.147l-.003-.031.013.003.015.004-.025.024zm.082-.157l.038-.004.008.061-.041.022-.049-.013-.013-.002.057-.064zm-.05.305l-.004-.036.01.007.01.003-.016.026zm.081-.159l.031-.004.015.062-.04.022-.058-.013-.014-.006.066-.061zm-.058.306l-.004-.033.027.009-.023.024zm.024.145v-.033l.021.01-.021.023zm.082-.16l.039-.004.004.061-.04.021-.062-.015.059-.063zm-.052.305l-.005-.03.019.008-.014.022zm.081-.157l.033-.005.013.061-.04.022-.073-.015.067-.063zm-.058.303l-.004-.03.011.006.018.001-.025.023zm.081-.157l.033-.005.015.061-.041.022-.059-.008-.005-.006.057-.064zm-.052.305l-.002-.032.004.004.017.003-.019.025zm.026.146l-.007-.031.014.004.009.004-.016.023zm.081-.156l.034-.006.013.061-.04.023-.061-.013-.012-.002.066-.063zm-.059.303l-.005-.035.012.007.018.004-.025.024zm.082-.158l.034-.004.013.061-.042.023-.053-.013-.009-.006.057-.061zm-.05.306l-.006-.034.02.011-.014.023zm.082-.162l.033-.001.01.06-.041.022-.069-.018.067-.063zm-.06.307l-.005-.033.026.01-.021.023zm.022.146l-.001-.032.01.008.015.002-.024.022zm.081-.158l.041-.006.008.06-.041.023-.051-.008-.015-.007.058-.062zm-.05.302l-.005-.028.019.005-.014.023zm.083-.156l.034-.005.013.061-.041.023-.072-.015.066-.064zm-.06.305l-.004-.03.029.006-.025.024zm.081-.157l.037-.006.014.06-.044.023-.062-.015.055-.062zm-.054.304v-.032l.004.003.018.004-.022.025zm.029.147l-.005-.035.012.007.008.003-.015.025zm.081-.158l.036-.004.013.06-.043.024-.059-.013-.014-.005.067-.062zm-.062.291l-.004-.02.053.016-.049.004zm.026-.083l.059-.064.035-.001.018.081-.112-.016zm.124-.697l.023-.013.065.015-.061.063-.021.003-.006-.068zm.024.148l.024-.012.057.007.012.007-.065.064-.013.002-.015-.068zm.024.146l.029-.012.053.008.01.007-.059.064-.021.002-.012-.069zm.031.148l.021-.015.06.011.013.006-.065.063-.017.002-.012-.067zm.021.147l.03-.018.062.019-.075.07-.017-.071zm.137.115l-.032.051-.074.003v-.025l.11-.093-.004.064z"/></svg>