<svg xmlns="http://www.w3.org/2000/svg" width="100" height="100"><circle fill="#B2B2B2" cx="50" cy="50" r="50"/><path fill-rule="evenodd" clip-rule="evenodd" d="M83.434 25.287s-1.018-.793-1.109-1.891c-.102-1.196-.92-1.969-.92-1.969h-19.205s-1.514 2.052-1.785 2.702c-.27.648-1.516 1.077-1.516 1.077h-40.6c-.702 0-1.108 1.974-1.163 2.271-.055.297-.595.297-.595.297l.136 48.797h66.783l-.026-51.284zm-15.28 21.255c-.041.351-.471.637-.451.884l-.598.617s.432.185.062.432-.697.412-.822.596c-.125.186-.762.021-.762.021s.125.228.309.31c.186.08-.268.228-.039.33.225.102.41.327.389.572-.021.249-.451.146-.76.268-.309.125-.721.331-.842.537-.125.205-.393.224-.742.224-.348 0-.514.271-.822.289 0 0 .516.309.762.35s.205.576.391.822c.184.246.207.721-.061.76-.27.041-.74.124-.885.393-.145.266-.535.616-.904.801-.371.184-.822.021-.986.124-.166.102-.885.06-1.174 0 0 0 0 .246.33.266.328.021 1.068.187 1.439.454.369.266.658.617.76.841.102.228.125.74-.102.803-.229.059-.822.042-1.008.165 0 0 .184.225.432.267.248.04-.082.266-.268.329s-.369.287-.492.474c-.123.184-.516.246-.742.368-.225.123-.451.248-.842.268l.412.187c.225.103-.043.184-.268.161-.229-.018-.492.022-.721.125-.227.103-.473.021-.721.021-.246 0-.676-.164-.943.081 0 0 .473.082.74.245.268.167.473.412.76.557.287.144.514.638.721.741.205.102.35.328.143.472-.207.145-.041.207.104.328l.041.454s.082.452-.041.534l-.432-.082-.492.247c-.229.02-.617.342-.947.33-.514-.023-.904-.311-1.131-.27 0 0 .062.27.186.431.123.165.02.394 0 .639-.021.245-.145.144-.352.062-.203-.083-.533 0-.697-.041l-.781-.164c-.184-.041-.473-.35-.473-.35s0 .328-.164.265c-.164-.059-.268-.366-.434-.224-.162.143-.287.062-.473 0-.184-.062-.596-.247-.965-.289-.369-.041-.555-.328-.844-.266-.287.061-.574-.062-.801-.164-.227-.104-.412-.309-.74-.33-.33-.02-.68-.123-.781-.248-.104-.123-.186-.285-.432-.285l-.474-.044s.248 1.337.474 2.467c.226 1.132.391 2.14.575 3.169.187 1.028.432 1.726.596 2.095.164.371.288.639.535.781.247.145.473.122.473.371 0 .246.041.41.041.41s.35.062.514.289c.164.226.02.41-.164.45-.186.041-.246.206-.535.246-.286.039-.635-.558-.635-.558s-.186.021-.329.164c-.145.144-.308.104-.124-.246.186-.35.247-.597.082-.802-.164-.207-.412-.535-.555-.843-.145-.308-.269-.718-.412-1.334-.143-.618-.205-1.052-.349-1.852-.145-.804-.308-1.913-.492-2.714 0 0-.31-.042-.35-.205-.042-.166.287-.33.287-.33s.061-.309-.123-.513c-.186-.207-.268-.411-.124-.474 0 0 .021-.268-.144-.349-.166-.081-.124-.434-.124-.434s-.476.138-.72.269c-.267.143-.822.308-1.357.33-.533.019-1.007-.125-1.58-.229-.577-.102-1.091-.165-1.646-.246-.555-.082-1.007-.33-1.295-.35-.287-.021-.534.062-.822.02-.284-.04-.534-.08-.781-.205-.247-.121-.576-.369-.925-.389-.349-.021-.247-.246-.164-.413.082-.163.185-.514.534-.574 0 0-.103-.288-.329-.288s-.412-.083-.535-.268l-.453-.575c-.185-.247-.431-.475-.616-.475-.186 0-.062-.205 0-.389.061-.183.061-.434.226-.699s.39-.473.679-.574c.287-.104.657-.165.657-.165s-.082-.206-.268-.206c-.184 0-.657-.186-.821-.062-.164.125-.37.062-.514-.062-.145-.122-.268-.265-.514-.326-.247-.062-.123-.31-.329-.454-.206-.145-.309-.351-.535-.351-.225 0-.247-.287-.083-.327.165-.042.185-.309.185-.309s-.185-.041-.349-.124l-.514-.328c-.227-.124-.087-.245.062-.372.246-.204.143-.472.432-.739.287-.27.534-.452.862-.452.33 0 .637-.123.637-.123s-.41-.103-.719-.144c-.309-.041-.925-.493-1.211-.516-.289-.019-.083-.286-.289-.473-.205-.183-.349-.514-.596-.676-.246-.166-.206-.37-.391-.515-.186-.147 0-.207.145-.37.143-.165.37-.535.761-.657.39-.125 1.089-.125 1.089-.125s-.329-.329-.616-.513c-.289-.186-.392-.391-.638-.493-.246-.103-.123-.433-.39-.659-.268-.226-.103-.431-.103-.431s-.185-.144-.247-.33c-.062-.184-.062-.43-.226-.533-.164-.103-.021-.351.206-.433.226-.08.349-.287.986-.228 0 0-.226-.162-.328-.286-.104-.124-.268-.536-.391-.845-.124-.308-.226-.616-.082-.696.144-.081.369.021.369.021s-.062-.227-.164-.473c-.102-.247-.102-.535.042-.721.144-.186.596-.124.884-.082.288.043.678.227.904.392.227.164.351.37.351.37s.185-.249.267-.454c.083-.205.371-.226.494-.04.125.187.411.165.679.45l.514.7c.205.206.37.475.37.475s0-.906.061-1.112c.062-.206.248-.473.432-.473l.555.267c.206.104.451.475.451.475s.227-.206.413-.124c.185.083.246.205.473.473.226.268.473.268.575.536.104.268.104.45.288.656.186.206.494.475.679.741s.287.761.452.883c.163.124.225.494.391.597.165.103.431.72.431.72s.021-.536-.123-.804c-.143-.265-.288-.719-.432-1.148-.144-.434-.493-.988-.493-1.377l-.41-1.234c-.042-.473-.165-.885-.022-1.009.144-.121.063-.225-.04-.369-.103-.144-.144-.678-.165-1.131-.021-.453.082-.822.228-1.008.143-.183 0-.799.163-1.026.165-.229.966-.27 1.336-.185.371.081.493.431.884.574l.597.451s.021-.368-.082-.698c-.104-.327-.268-1.005-.247-1.706.021-.698.187-1.663.287-2.035.104-.369.104-.821.33-.821s.472.103.739.287.451.659.72.821c0 0 .123-.368.021-.697-.103-.33-.415-.895-.308-1.399.123-.575.226-1.027.37-1.232.143-.206.637.165.82.495 0 0-.018-.803-.018-1.091s.185-.657.185-.946c0-.211.308-.103.369.062.062.164.267.062.411.268 0 0-.041-.599.124-.761.163-.165.308-.392.555-.493.246-.104.473-.104.616-.02.145.08.021.411.021.411s.204.184.349.205c.145.02.247.266.145.411-.104.143-.268.266-.289.514-.021.246 0 .451 0 .451s.351 0 .515-.144c.165-.145.577-.145.657-.021.084.125-.039.411 0 .679l-.162.697c.02.331-.268.658-.268.658s.184.124.369-.061c.186-.186.391-.328.596-.392.207-.062.516-.019.637.063.123.081-.061.594.062.902.125.308-.041.679-.041 1.028 0 .352-.205.473-.205.864 0 .39-.205.658-.309.903 0 0 .393-.021.699-.143.309-.124.986-.144 1.396-.165.227-.01.309.185.268.474-.039.286-.121.841-.039 1.13.08.287-.207.698-.125.863s.145.39-.02.492l-.207.616c-.082.268-.471.639-.512.886 0 0 .594-.206.863-.43.266-.229 1.703-.269 2.014-.269.309 0 .492.08.41.431l.021.739-.494.7s.535-.145.74-.123c.207.02 0 .349-.082.472-.082.124-.287.659-.309.986-.02.329-.309.514-.35.844s-.453.782-.453 1.069c0 .288-.123.513-.266.699-.145.185-.289.555-.557.842-.266.288-.123.576-.348.822-.227.247-.35.349-.453.656-.104.31-.184.639-.184.639s.369-.021.555-.165c.184-.143.369-.533.883-1.253.514-.719 1.131-1.356 1.459-1.644.33-.29.207-.495.535-.639.33-.143 1.172-.452 1.438-.617.268-.164.455-.285.701-.285.244 0 .123.308.35.47.225.166.244.823.184 1.215 0 0 .328-.205.514-.452.186-.249 1.234-.844 1.811-1.027.576-.187.924-.084 1.049.021.121.101 0 .719-.084.965 0 0 .926-.533 1.338-.637.41-.104.861-.187.986-.04.123.144-.062.574-.062.574s.309-.144.699-.122c.391.018 1.111.43 1.316.472s.181.273.14.623z"/></svg>