<svg xmlns="http://www.w3.org/2000/svg" width="100" height="100"><circle fill="#B2B2B2" cx="50" cy="50" r="50"/><path fill-rule="evenodd" clip-rule="evenodd" d="M52.435 89.643c-.526.078-1.17-1.017-1.17-1.017s-.341.039-.604.303c-.265.262-.566.187-.229-.453.342-.642.455-1.098.152-1.474-.303-.38-.756-.982-1.019-1.548-.267-.566-.492-1.321-.757-2.451-.262-1.135-.376-1.93-.641-3.398-.266-1.477-.565-3.514-.905-4.982 0 0-.567-.08-.641-.38-.077-.304.527-.605.527-.605s.113-.565-.226-.941c-.341-.381-.49-.755-.226-.869 0 0 .036-.491-.266-.642-.303-.148-.227-.797-.227-.797s-.873.254-1.322.493c-.489.263-1.508.565-2.491.606-.982.036-1.851-.229-2.906-.417-1.058-.189-2.001-.306-3.021-.452-1.019-.149-1.849-.607-2.378-.642-.528-.038-.982.113-1.51.034-.522-.072-.981-.148-1.434-.377-.454-.224-1.057-.677-1.7-.714-.641-.039-.453-.453-.302-.758.152-.301.34-.945.982-1.055 0 0-.188-.53-.604-.53-.415 0-.756-.152-.982-.488-.228-.341-.49-.607-.83-1.061-.341-.452-.793-.869-1.131-.869-.342 0-.115-.377 0-.714.111-.338.111-.796.414-1.282.303-.492.717-.869 1.246-1.058.527-.19 1.208-.305 1.208-.305s-.15-.376-.492-.376c-.338 0-1.207-.342-1.509-.115-.302.229-.679.115-.942-.112-.266-.225-.493-.488-.944-.603-.454-.111-.227-.567-.604-.83-.379-.267-.568-.644-.982-.644-.415 0-.453-.529-.151-.603.303-.074.339-.566.339-.566s-.339-.074-.64-.227l-.944-.604c-.416-.227-.16-.449.114-.68.453-.377.264-.869.792-1.361.528-.491.981-.828 1.584-.828.605 0 1.17-.229 1.17-.229s-.753-.188-1.321-.263c-.566-.075-1.699-.905-2.226-.947-.53-.033-.152-.524-.53-.865-.376-.338-.642-.945-1.094-1.244-.454-.303-.378-.678-.718-.944-.341-.27 0-.378.265-.68.263-.303.679-.983 1.397-1.206.716-.229 2-.229 2-.229s-.604-.606-1.132-.943c-.53-.339-.718-.715-1.171-.904-.453-.189-.227-.795-.717-1.212-.493-.413-.19-.79-.19-.79s-.338-.264-.452-.606c-.113-.336-.113-.789-.414-.979-.304-.189-.039-.644.376-.794.415-.148.64-.526 1.811-.417 0 0-.414-.298-.603-.527-.19-.229-.492-.983-.718-1.55-.227-.564-.414-1.132-.15-1.28.265-.15.678.039.678.039s-.113-.416-.301-.868c-.188-.454-.188-.984.078-1.323.262-.342 1.094-.228 1.621-.152.53.079 1.246.416 1.66.719.417.303.644.681.644.681s.338-.457.49-.834c.151-.377.68-.413.905-.074.229.343.755.305 1.247.83.491.531.566.909.944 1.284.377.378.68.871.68.871s0-1.665.112-2.042c.114-.378.454-.869.794-.869.339 0 .641.303 1.02.491.377.191.829.872.829.872s.416-.378.756-.228c.339.152.453.375.867.87.416.489.868.489 1.058.982.188.492.188.828.529 1.206s.907.872 1.247 1.362c.338.487.527 1.397.831 1.62.301.229.413.909.717 1.096.302.188.792 1.321.792 1.321s.037-.984-.227-1.475c-.264-.487-.529-1.32-.792-2.109-.265-.797-.907-1.815-.907-2.53 0-.719-.679-1.402-.754-2.267-.077-.868-.302-1.624-.039-1.852.264-.222.114-.413-.075-.679-.188-.264-.264-1.244-.303-2.076-.037-.832.151-1.511.417-1.851.263-.336 0-1.467.3-1.885.302-.419 1.774-.495 2.455-.338.679.149.905.791 1.622 1.053l1.097.83s.037-.678-.152-1.284c-.188-.6-.489-1.846-.453-3.132.039-1.283.34-3.054.528-3.737.189-.68.189-1.509.604-1.509s.868.188 1.36.525c.491.341.828 1.212 1.32 1.509 0 0 .228-.675.038-1.281-.188-.604-.763-1.643-.565-2.568.228-1.057.415-1.887.68-2.266.264-.378 1.168.304 1.507.91 0 0-.034-1.475-.034-2.001l.339-1.738c0-.387.565-.189.678.113.114.303.489.116.755.493 0 0-.075-1.1.227-1.397.302-.303.566-.72 1.021-.906.452-.191.868-.191 1.131-.037.266.148.039.754.039.754s.377.338.643.377c.264.036.453.487.264.755-.191.263-.492.487-.529.944-.039.453 0 .829 0 .829s.643 0 .942-.264c.303-.266 1.058-.266 1.207-.038.154.229-.071.755 0 1.248.079.49-.336.679-.3 1.279.039.607-.49 1.209-.49 1.209s.338.228.681-.111c.339-.342.716-.603 1.093-.72.381-.114.945-.034 1.17.117.227.148-.112 1.09.116 1.657.227.566-.079 1.247-.079 1.888 0 .645-.375.869-.375 1.588 0 .716-.377 1.21-.564 1.66 0 0 .716-.038 1.28-.263.567-.227 1.813-.262 2.566-.303.416-.017.569.339.492.871-.073.525-.226 1.544-.073 2.074.15.527-.38 1.283-.228 1.586.15.303.263.716-.039.904-.303.188-.227.646-.378 1.132-.15.491-.866 1.173-.94 1.626 0 0 1.092-.378 1.585-.791.488-.417 3.131-.493 3.699-.493.564 0 .904.149.754.792-.151.644.225.793.038 1.359l-.906 1.284s.982-.265 1.358-.225c.378.035 0 .641-.15.867s-.529 1.21-.567 1.81c-.037.605-.565.945-.641 1.551-.078.606-.832 1.435-.832 1.963 0 .53-.226.942-.488 1.284-.265.339-.53 1.019-1.021 1.544-.488.53-.229 1.06-.644 1.511-.413.454-.641.641-.828 1.206-.191.568-.342 1.174-.342 1.174s.68-.04 1.021-.304c.338-.264.678-.979 1.622-2.301.945-1.321 2.076-2.491 2.682-3.019.603-.532.377-.909.979-1.172.605-.262 2.152-.83 2.644-1.134.493-.302.832-.524 1.284-.524s.226.565.643.863c.414.304.451 1.512.337 2.231 0 0 .605-.376.945-.83.341-.458 2.266-1.551 3.323-1.888 1.059-.341 1.699-.155 1.924.037.228.187 0 1.321-.153 1.772 0 0 1.703-.98 2.456-1.168.756-.19 1.587-.343 1.813-.073.227.261-.113 1.053-.113 1.053s.566-.263 1.284-.224c.717.033 2.039.79 2.418.868.376.076.336.488.262 1.131-.074.643-.867 1.169-.829 1.622.037.455-1.098 1.134-1.098 1.134s.792.34.116.793c-.681.453-1.285.755-1.513 1.093-.226.341-1.396.04-1.396.04s.228.417.567.566c.341.148-.491.418-.073.606.414.188.751.602.716 1.053-.039.457-.831.268-1.398.492-.567.229-1.322.605-1.546.983-.227.379-.72.413-1.362.413-.639 0-.942.496-1.509.53 0 0 .945.566 1.398.643.45.073.377 1.057.717 1.509s.378 1.322-.113 1.396c-.493.074-1.358.228-1.622.721-.267.486-.982 1.131-1.663 1.47-.68.338-1.51.04-1.811.227-.304.19-1.625.111-2.154 0 0 0 0 .454.604.489.604.039 1.964.342 2.643.832.681.49 1.209 1.134 1.398 1.547.187.417.226 1.358-.189 1.474-.416.108-1.508.075-1.849.305 0 0 .338.413.793.487.452.074-.153.489-.493.604-.339.116-.678.529-.904.869-.225.341-.944.454-1.359.678-.415.228-.831.457-1.548.49l.755.344c.415.189-.075.338-.491.298-.416-.034-.905.04-1.32.227-.416.192-.87.042-1.322.042s-1.247-.303-1.736.15c0 0 .868.149 1.359.451.49.303.868.753 1.396 1.02.528.265.945 1.171 1.322 1.36.377.188.643.603.263.868-.377.264-.074.379.189.6l.076.835c.227.378.149.832-.076.981-.228.153-.378-.191-.793-.149l-.904.451c-.418.038-1.133.63-1.739.605-.942-.04-1.658-.567-2.075-.494 0 0 .114.494.342.791.226.304.036.724 0 1.175-.039.45-.266.263-.646.112-.374-.153-.98 0-1.283-.073-.302-.08-1.092-.23-1.435-.306-.336-.074-.866-.639-.866-.639s0 .603-.303.486c-.302-.108-.489-.675-.793-.413-.302.265-.528.115-.867 0-.34-.114-1.096-.452-1.774-.53-.681-.073-1.019-.604-1.549-.486-.527.108-1.056-.117-1.473-.303-.416-.19-.754-.566-1.359-.605-.603-.036-1.245-.226-1.433-.453-.191-.229-.341-.529-.793-.529-.453 0-.871-.079-.871-.079s.455 2.456.871 4.533c.414 2.075.718 3.929 1.056 5.814.341 1.891.793 3.171 1.093 3.852.303.68.531 1.172.984 1.435.452.263.869.224.869.68 0 .452.074.756.074.756s.643.11.945.528c.299.416.036.753-.303.828-.341.072-.454.375-.984.45z"/></svg>