<svg xmlns="http://www.w3.org/2000/svg" width="100" height="100"><circle fill="#B2B2B2" cx="50" cy="50" r="50"/><path d="M41.197 45.653c-.084 1.352-.084 2.788-.084 4.224 0 1.014 0 1.943.084 2.872h16.641v5.407h-16.303c1.267 10.98 5.322 18.246 12.84 18.246 2.703 0 5.49-.761 9.039-2.619l1.857 5.913c-3.547 1.521-7.264 2.703-11.488 2.703-12.417 0-18.499-10.052-20.02-24.243h-5.406v-5.407h4.984v-2.365c0-1.604 0-3.125.084-4.73h-5.068v-5.575h5.66c1.943-12.671 7.94-22.385 20.442-22.385 3.549 0 6.674.76 10.307 2.449l-1.943 6.082c-2.872-1.689-5.322-2.449-8.025-2.449-7.349 0-11.572 5.997-13.093 16.303h16.134v5.575h-16.642z"/></svg>