<svg xmlns="http://www.w3.org/2000/svg" width="100" height="100"><circle fill="#B2B2B2" cx="50" cy="50" r="50"/><path fill-rule="evenodd" clip-rule="evenodd" fill="#231F20" d="M85.862 67.224c-.021-1.075-1.089-1.106-1.671-1.62-.413-1.767-.682-3.684-1.64-4.904-.092-.384-.228-.718-.335-1.08.007-.12.109-.144.153-.228-.009-.175.026-.304.078-.415-.149-1.345-.173-2.824-.745-3.75-.176-.149-.338-.312-.488-.486-.547-.371-1.453-.38-2.056-.693-.088-.046-.145-.129-.206-.204-.357-.089-.619-.271-.822-.515.011-.229.087-.393.155-.567l.31-.153c.641-.582 1.177-1.268 1.204-2.462.116-.305.123-.773.206-1.029l.052.152.026-.306.025.101.104-.229c.044.007.059.041.051.103l.078-.13c-.005.041.033.177.052 0l.05.156c.061-.692-.359-1.327-.517-1.977-.371-.332-.764-.639-1.358-.747-.12.041.117.129.182.154-.157.034-.248-.084-.258-.104l-.027.053-.847-.18.052.102c-.47-.231-1.182-.09-1.849.103-.05.055-.098.107-.179.129-.154.191-.341.343-.438.592l-.103.153-.052.075.052-.026c.041-.121.116-.206.181-.306.081-.108.176-.2.281-.284l-.617.875c-.031.155-.079.296-.129.438-.053.343.091-.2.129-.312-.208.997-.357 2 0 3.005-.017.12.097.037.104.079v.103c-.038.123.144.105.104.335.044-.135.129.136.15.202l.132-.075.022.154.131-.079.052.079c.198.889-.14 1.849-.671 2.26-.162-.136-.218-.379-.356-.539-1.036-.693-2.899-.562-4.369-.822-.158-.003-.139.164-.281.18-.486-.068-.927-.187-1.386-.284-.515-1.412-1.823-2.032-2.657-3.126.085-.173.151-.364.19-.583l-.3-.704c.011-.166-.025-.308-.165-.384-1.354-3.141-2.692-6.296-3.069-10.413-.251-.331-.382-.779-.492-1.253-.459-.718-.805-1.548-1.208-2.325.127-.321-.049-.707.045-.986.059-.175.281-.138.27-.356-.071-.817-.052-1.59-.27-2.416-.117-2.028.509-3.311.447-5.281-.096-.336-.2-.667-.269-1.027-1.243-2.117-3.125-3.829-6.218-3.939-.143-.261-.486-.324-.583-.626.142-.139.273-.292.358-.492.154-1.402.784-2.922.491-4.338.133-.215.184-.781.046-1.209.674-1.331-.31-2.46-.585-3.446-.473-.763-1.091-1.38-1.921-1.787-.962-.065-1.688-.181-2.504-.315-.292.207-.499.12-.85.134-.361.238-.955.239-1.389.402-.327.57-.858.932-1.118 1.566-.088.314.184.35.089.537-.423 1.258-.767 3.046-.402 4.608.125.234.444.274.402.671.737.188 1.215.636 1.566 1.208-.007.869-.092 1.709 0 2.551-.119.087-.391.027-.58.046-.133.508-.388.9-.673 1.251-.836.06-1.433.354-2.235.447-.293.188-.588.369-.94.492-.488.526-.999 1.033-1.524 1.521-.716 1.266-1.363 2.604-1.341 4.61-.27.801-.267 1.88-.268 2.953-.119.46-.246.916-.405 1.342.102.387.021.81-.086 1.116.015.269.304.262.355.495-.296.879-.592 1.762-1.027 2.503.044.724-.029 1.362-.211 1.932l-.255-.971c-.604-.827-.807-1.987-1.002-3.21-.211-1.329-.625-2.654-.665-4.043.266-.954.173-2.276-.042-3.21-.266-.43-.469-.921-.711-1.374-.458-.166-.817-.433-1.25-.625-.607.009-1.217.021-1.625-.169-.287-.388-.717-.707-1.292-.792-.44-.063-.933.14-1.335-.083-.022-.247.042-.403.083-.583.155.201.561.109.793.042.021-.464-.132-.757-.208-1.126.587-.458.91.3 1.542.125l-.25-.25c.212-.148.401-.323.334-.75.222.137.215.508.583.499-.102-.175-.496-.417-.458-.874.117-.049.159-.175.208-.292.235.244 1.089.435 1.125-.124-.232-.16-.689-.449-.75-.919.435-.341.154-.902.333-1.5.162.021.266-.01.335-.083.082-.46.285-.742.25-1.251-.102-1.434-.871-2.679-1.585-3.5-.917-.31-1.788-1.229-3.044-.793-.281-.108-.571-.207-.957-.208-.296.053-.539.157-.709.334-.169-.117-.355.043-.585 0-2.134 1.103-2.647 3.827-2.75 6.96-.064.203-.337.193-.417.375.121.16.3-.194.374-.081-.031.507-.425.657-.415 1.208.869-.132.521-1.477 1.083-1.918.195.736-.119 1.392-.459 1.836.236.013.472.036.544 0-.064.29-.63.279-.502.625.265.136.554-.06.752-.124-.095.293-.47.307-.501.666.434.11-.168.288 0 .584.262.103.574-.016.668-.21.267-.063.183-.485.542-.458-.05.385-.513.566-.377 1 .296.144.407-.41.543-.415-.203 1.256-1.826 1.094-2.501 1.874-.541.156-1.152.239-1.835.25-.32.25-.777.364-1.125.583-.138.467-.549.917-.709 1.46-.352 1.193-.03 2.542.165 3.71-.179 1.556-.415 3.058-.749 4.46-1.361 1.419-2.142 3.409-2.751 5.544-.301 1.055-.657 2.106-1.002 3.128-.351 1.048-.62 2.113-1.208 2.96-.389 1.389-1.125 2.43-1.333 4 .115.659-.206 1.346.041 1.919.177-.021.339-.272.458-.211-.061.259.027.466 0 .795.182-.123.397-.141.542-.375.121-.288-.051-.83.084-1.003l.165 1.044c.897-.207.164-1.803.585-2.501.169.412.137 1.027.458 1.291.546-.329-.031-1.199.125-1.916.145-.286.174-.689.25-1.043.346-.557.704-1.104.917-1.794-.485-1.143.48-2.071 1.001-2.875 1.374-2.123 2.98-4.208 3.541-6.879.246-.369.37-.854.627-1.209.158-.968.528-1.722.875-2.5.074.815.294 1.485.417 2.251.308 2.698-.536 4.568-1.126 6.502-.093.085.22.14.084.291-.705 1.407-1.013 3.211-1.5 4.837-.566 1.546-.826 3.4-1.042 5.295v1.043c.208.804.415 1.61.917 2.122.398 2.328.79 4.66 1.001 7.177.102.173.129.421.208.623-.795.632-1.31 2.177-1.21 3.5.15 1.995.861 4.234 1.084 5.963-.048.007-.047.065-.042.127l-.336.621c-.082.31.018.678.085.961-.136 1.352-.157 2.815-.542 3.918-.041 1.962.995 2.842 2.502 3.251.349-.009.661-.06.917-.168.38-.341.556-.889.583-1.582-.198-2.122-1.077-3.563-1.376-5.587.271-.297.082-.843-.083-1.17.358-1.212.672-2.467 1.084-3.624.403-1.181 1.01-2.155 1.043-3.709-.065-.144-.038-.38-.043-.584l-.124-.502c1.124-1.849.525-5.421.958-7.96.677-.171 1.177-.521 1.917-.625.489 3.433-.448 7.136.168 10.337-.517 1.428-1.339 3.013-1.502 4.877-.298 3.392.304 7.187-.167 10.549-.136.31-.241.648-.417.917-.01.227-.069.406-.041.666.1.414.385.646.458 1.086-.043.707-.23 1.47-.041 2.167-.26.474-.041 1.132.041 1.501.113.079.213.177.292.289.368.124.78.199 1.25.17.934-.06 2.167-.325 2.419-.96.021-1.759-2.089-1.875-2.168-3.669.358-.568-.048-1.328-.041-2.042.537-1.771 1.062-3.575 1.666-5.379 1-2.978 2.289-6.106 1.545-10.087.854-3.538 1.515-7.269 2.375-10.8.547-.161.833-.584.876-1.248-.015.303-.018.598.126.75.229-.106.372-.296.499-.502.106-2.783-.133-5.555-.833-7.671-.273-1.658-.522-3.337-1.127-4.668.064-.103.26-.076.251-.251-.958-2.405-1.388-6.463-.167-8.92.283 1.817 1.247 2.953 1.377 4.918.961 3.139 2.874 5.328 3.293 9.004-.468.521-.884 1.094-1.209 1.753.057.43.055.918.167 1.293.236.118.487.224.733.334.168.535.289 1.121.531 1.581.184.184.298-.187.401-.089.194.227.217.622.585.673.404-.216.345-.689.185-1.092.167-.173.289-.43.44-.616.153.191.445-.007.708.041.153-.305.556-.359.876-.498.068-.163.224-.341.125-.541.24-.067.351-.263.542-.377-.241-.721-.556-1.368-.916-1.969.131-.35.188-.773.273-1.168-.206-.672-.899-.858-1.074-1.563-.074-2.629.785-4.318 1.122-6.534-.154-1.285.224-2.299.672-3.041.364-.613.97-1.023 1.25-1.703.164-.395.095-.872.358-1.295.92 2.474 1.397 5.896.807 9.17.06.06.043.195.043.315l.268.447c-.71 5.887.388 11.668.628 17.358.028.712.024 1.373.134 2.058.095.61.271 1.255.312 1.881.05.705-.08 1.387-.135 2.103-.201 2.599.255 5.209.492 7.742.272 2.926.912 5.684 1.029 8.545l.895.09c.041 1.341-.713 2.344-.672 3.487.021.67.099 1.455.179 2.193.132.123.33.182.493.269 1.396-.177 2.873-.337 4.34-.356-.066-.693.213-1.304.089-1.881-.155-.711-.602-1.351-.628-2.193-.012-.45.083-.844-.041-1.34-.236-.036-.221-.317-.229-.582.561-.024 1.073-.098 1.302-.447.017-.435-.065-.773-.134-1.117.276-.022.371-.225.536-.361 1.053-2.055.678-5.533-.27-7.425.208-.182.403-.375.582-.582 1.233-2.542 3.294-4.252 4.342-6.981.81-.56 1.401-1.342 1.788-2.324.21-1.412-.22-2.866.045-4.34-.01-5.943-.767-11.133-1.341-16.511.928 1.338 1.82 2.712 2.55 4.248-.394.771.05 1.527.37 2.209-.063.077-.131.152-.166.259v.205c.062.2.149.371.256.527-.108.188-.244.346-.237.65.693-.005.571.801.984 1.073.305.104.488.1.851.178l.089-.097c.832 1.081 1.564 2.265 2.449 3.292.455.453 1.402.41 2.157.564-.021.354.065.604.178.823.963-.007 1.714.206 2.57.305.058.091.117.175.13.309.207.176.387.382.535.618l.027.051c0 .163.024.302.051.437.026 1.523.117 3.033.052 4.495-.063 1.434-.296 2.786-.54 4.033l.309.231c-.092.284-.043.709-.279.846.04.909.155 1.746.149 2.698.015.105-.047.139-.075.205l.103.257c.079.843.038 1.571.103 2.362.088 1.068.562 2.087.617 3.157.198 1.051.458 2.04.589 3.16.02.462-.017.874-.104 1.232-.038.714.271 1.085.26 1.771-.041.156-.093.3-.156.438.044.237.023.539.131.717.245.106.599.103.924.131-.115.121-.26.332-.438.435-.152.614-.844.7-1.309 1.001v.311c.488.482 1.493.568 2.336.614.094-.059.221-.084.284-.182.122.05.286.057.436.079-.124.724-.154 1.542-.311 2.233 0 .156.062.248.081.387l.202.129c.888-.046 1.898.029 2.441-.359l.025-.414c-.364-.547-.627-1.202-.925-1.822.603.033 1.181.223 1.749.206.11-.161.119-.423.175-.643-.122-.464-.395-.782-.457-1.31.085-.387.166-.79.282-1.155v-.357c-.438-1.866-.257-4.345-.156-6.522.033-.725.034-1.416.156-2.056-.098-1.484.222-2.771.226-4.237-.115-1.039.015-2.326-.179-3.29l.155-.127c-.258-1.724-.06-3.656.206-5.264.183-.031.35-.082.564-.077.142.335.219.743.284 1.153.429 1.123.969 2.13 1.542 3.111.649.896.896 2.197 1.206 3.438.291.247.291.786.564 1.055.723-.1-.137-.839.156-1.183l.178.103c.26-.022.446-.118.59-.259.054.182-.198.262-.256.414-.221-.012-.405.11-.334.307.262.063.571-.041.719-.18-.056.218-.533.312-.282.591.192-.043.352-.127.485-.229.09.073.071.254.259.229.084-.373.355-.553.564-.796-.052-.309-.355-.375-.48-.616zm-7.318-20.753l-.052-.025.052.025zm-3.493 1.18zm.128-.155c-.032.104-.032-.1 0 0zm.08-.076zm.127 3.674c-.012.157-.051-.1 0 0zm.052-3.802zm-59.156 2.299zm17.55-25.597zm19.62 24.415zm.803 12.84c-.007-.442.091-1.161.136-1.698.213.246.15.771.313 1.073-.074.28-.307.411-.449.625zm21.336-14.418c.052-.066.151-.223.256-.153-.047.063-.283.184-.256.153zm.33-.231zm1.8-.31l-.021-.025.046-.052-.025.077z"/></svg>