<svg xmlns="http://www.w3.org/2000/svg" width="100" height="100"><circle fill="#B2B2B2" cx="50" cy="50" r="50"/><path d="M10.137 58.255l-.503-2.003c-.117 0-.217.025-.25.069-1.334 1.788-.017 2.92 1.273 2.92h.021c.039-.299.085-.596.14-.889l-.253.034c-.146.001-.29-.036-.428-.131zM43.298 65.901l.349-.01-.03-1.287c-.09.44-.195.871-.319 1.297z"/><polygon points="12.179,48.615 12.185,48.619 12.185,48.621 12.188,48.621 12.195,48.624 11.946,48.898 11.917,48.934 11.265,49.69 9.93,52.37 8.973,55.832 9.242,55.92 9.372,55.999 10.318,52.592 11.651,49.947 12.585,48.861 14.129,49.088 14.056,49.014 13.914,48.869 13.911,48.864 13.776,48.785 12.055,48.541 12.112,48.575"/><path d="M87.647 59.264c-.758-.757-1.626-1.402-2.578-1.914v-.413l.121.058.563-5.444-.049.478-.515 4.968.154.081 1.286-12.455.025-.459-.128-.077-.351-.032.043-.529.028-.527-.14-.086-.054.516-.082.852-1.135 11.41-.021-.005 1.286-12.784-13.306-.018-.009-6.695-1.036-.388h-.295l-.003-14.774.165-.431.24-.333.174-.197-.004-.268-.003-.642.003-.635.004-.262-.922 1.063-.61.876-.229.828v14.773h-.30599999999999994l-1.04.383.011 6.697-9.559-.013v-.876h1.065v-1.687l-.763-2.255h-.847l-.008-.655-.004-.384h-1.443c-.173-2.11-.327-4.061-.352-4.504-.05-.931-.573-1.064-.87-1.064l-.192.018-1.539.207-.021-.32 3.351-.532c.89-.141.743-.989.714-1.123-.024-.401-.438-7.347-.47-8.277-.021-.718-.361-.877-.66-.877-.188 0-.361.065-.428.091l-3.185.557-.004-.036.435-.075.023-.004h.001c-.038-.476-.083-.949-.134-1.423l-.311-.189-.062.007v-.003l-.004-.004-.011.007-.025-.055-.029.02-.026-.053.421-.304c.069-.369-.048-.667-.374-.868l-.456.095-.035-.086-.146-.087-.295.132c-.183-.302-.397-.424-.697-.443l-29.285-.049c-.705.037-1.072.595-1.104 1.674l-.8.506-.235.273h-.139v.162l-.065.078-.003.004h.069v1.035h.071l-.029.321-.023-.006-1.707-.532v.126l-.042-.017c-.151 0-.563.72-.551 1.608.012.887.444 1.608.597 1.608h.001v.041l.016.009.333-.103.032-.011 1.113-.341.016-.005-1.435 15.855h-.266l-.006.249.004 1.924.003.207h-.7190000000000001l-5.074 5.252-.042.045.013.019v.001l-.012.015-.488.566-.163.188-.011.011-.008.01.94.133.81.081 1.302 1.248.152-.151.503.612-.199.19c-2.923 2.924-4.732 6.962-4.732 11.425 0 4.46 1.809 8.499 4.732 11.423 2.924 2.924 6.963 4.732 11.425 4.732 4.46 0 8.501-1.809 11.425-4.732 2.407-2.407 4.056-5.573 4.563-9.106l.661.093-.019.111.006.247 1.354-.032.556.379.001-.392.269-.006.152.311.681.005.207-.206.157-.004.009.369.111-.003.19-.137v.403l.027.127h.263l.016 3.273h-.239l-.05.366v.423l.027.125.264.002.001.6.035.058.225.038.284-.008.176-.046-.002-.642 5.658.01.002.608.035.058.226.04.283-.008.176-.048-.001-.65.359.003v-.425l-.048-.399-.021-.094-.278-.002-.016.121-.012-2.854.024-.001-.009-.392.264-.006.021.889.604-.014-.002-.063 1.627-.039.007.286.94-.021-.012-.52.2-.004-.008-.317.57-.014-.003-.128.201-.005-.003-.148.264-.006.011.444.201-.004-.011-.444.536-.014.003.175-.231.006.005.206.233-.005.001.063.438-.011-.002-.063.267-.006c.182-.005.332-.138.366-.308l.278-.008-.002-.062 6.246-.147c-.231 1.898.003 3.864.692 5.713h.002l.001.011.363.062.04.173.106.016.01.04-.065 2.533-.229 2.372.509-.283.298-2.463-.011-2.134c-.56-1.348-.868-2.827-.868-4.377 0-.646.066-1.276.17-1.893l.242.02c-.089.567-.149 1.144-.149 1.737 0 3.041 1.233 5.795 3.227 7.79 1.993 1.993 4.747 3.227 7.79 3.227s5.798-1.233 7.792-3.227c1.993-1.995 3.227-4.749 3.227-7.79.002-3.042-1.231-5.796-3.225-7.79zm-1.165-14.732l.003-.004-.132 1.238.129-1.234zm-33.953 20.391l-.037.116-1.218-.372 1.992-.05h.016l.012.456-.023.046h-.128l-.013-.005-.219-.004-.18.006.039-.117-.241-.076zm.799.745l-.094.242c-.127-.051-.232-.111-.248-.165l-.014-.077h.356zm21.646-16.399l.002.107-.002.097-.009-.014-.023-.125.032-.065zm-18.095-5.42l-.128.011h-1.541l-.003-.597 2.266.001c0 .193-.076.538-.594.585zm-.828-11.975l.023-.006v.001l.08-.008c.14 0 .419.074.45.645.029.54.268 3.485.485 6.136l-.644 1.662v1.687h.92l.072.873-2.269-.003-.719-10.771 1.602-.216zm.973-10.836l.058-.02.187-.041c.136 0 .299.076.311.428.015.431.11 2.141.212 3.899l-.014.001-.122.01-.144-2.257-.002-.003-.16-.255-.933-.083-.481.042-.172.295.311 5.178.205.332.359.03.174.014.196.021.204.016.475-.041h.01l.139-.246.017.28.013-.004-.021-.295-.164-2.635.124-.01.011-.001c.116 2.033.234 4.009.234 4.02l.005.037c.005.018.141.57-.39.653l-3.291.523-.621-9.316 3.27-.572zm-3.29-.102l-.026.029-.003-.029h.029zm-.584-2.449l-.006-.014-.002-.002-.062-.153.07.169zm-1.711.993l-1.029-.001-7.219-.012c2.749.004 5.499.008 8.248.013zm-2.208 45.233l1.316.403-2.229-.003-.001-.379.914-.021zm-.895 4.587l-.017-3.638h.003l1.835.001c.048.186.215.318.411.318h.009c.196-.003.355-.138.403-.316l1.309.003-.031.101.238.077.032-.101c.05.087.139.212.279.287l.321.145-.057.148.252.099.059-.153.221.077.129-.276-.243-.071.074-.191.175.031h.014l.229-.005.015 3.477-5.66-.013zm6.377-4.545l-.005.037h-.013v-.181h.259l.003.144h-.244zm4.387-.068l-.001-.075h.264l.002.069-.265.006zm.466-.009l-.003-.066h.537l.003.052-.537.014z"/></svg>