<svg xmlns="http://www.w3.org/2000/svg" width="100" height="100"><circle fill="#B2B2B2" cx="50" cy="50" r="50"/><path fill="#010202" stroke="#010202" stroke-width=".263" stroke-linejoin="round" d="M71.081 22.259c-.575-.239-.526-1.342-.526-1.342h-6.613c.105.282.121.573.094.708l.431 6.163.15 5.101-.024.888s-.08 1.225-1.148 1.512c-.938.301-1.385-.394-1.385-.394s-.287-.327-.291-.839c-.027-.645-.242-8.831-.242-8.831l-.057-1.124s.268-.245.28-.121c.062.239.058 1.535.058 1.535l.159 5.419.082 3s.165.982.627 1.053c.407.191.994.035 1.313-.389.271-.44.304-.696.304-.696l-.001-2.45-.089-2.445-.214-3.369-.26-3.63s.063-.651-.178-1.091h-38.509v59.171l43.233.12s0-.479.264-.526c.266-.049 2.016-.406 2.016-1.031v-35.973s-.049-1.102.526-1.342c.575-.239 2.603-.669 2.603-2.219v-14.638c0-1.552-2.028-1.98-2.603-2.22zm-28.663 31.105l-.003.017h.003l-.037 1.292.037.165v.006l-.003.017h.003l-.046 1.579-.442.22-.025.885c.102.11.161.227.16.347v.005l-.004.018h.002l-.046 1.579-.352.176-.014.467c.413.202.652.437.65.687v.007l-.003.018h.003l-.038 1.291.038.165v.007l-.003.017h.003l-.045 1.579c-2.282 1.274-6.759 1.382-9.635-.067l-.022-1.53v-.052h.007l.013-.069-.016-1.061c-.209-.086-.414-.175-.61-.274l-.022-1.529v-.049999999999999996h.008c.019-.179.156-.35.395-.505l-.011-.714-.11-.051-.022-1.53v-.05h.007l.014-.075-.018-1.212-.24-.11-.022-1.528v-.049999999999999996h.008c.01-.095.054-.185.126-.273l-.019-1.315v-.051h.007c.02-.179.156-.349.394-.504l-.011-.715-.109-.051-.022-1.529v-.05h.008l.014-.075-.018-1.214-.24-.109-.021-1.529v-.05h.007c.081-.74 2.222-1.332 4.854-1.33 2.679.002 4.847.618 4.841 1.376v.006l-.003.017h.002l-.027.935c.183.146.288.302.286.464v.007l-.003.017h.003l-.04 1.362.04.169v.006l-.003.018h.003l-.031 1.051c.102.111.161.228.16.348v.006l-.002.017h.002l-.045 1.58-.353.175-.013.466c.413.203.652.438.65.688h.001zm11.406 14.04l-.004.019h.004l-.048 1.647c-2.38 1.328-7.05 1.439-10.05-.071l-.019-1.286c-.218-.086-.431-.18-.636-.284l-.023-1.594v-.054h.008c.02-.187.163-.363.411-.525l-.011-.746-.114-.052-.023-1.594v-.054h.008l.015-.078-.007-.465c-.177-.077-.347-.158-.504-.246l-.045-1.578h.004l-.004-.018v-.006l.038-.165-.038-1.292h.001l-.003-.017v-.006c-.001-.197.148-.381.409-.55l-.008-.507-.169-.077-.023-1.594v-.051h.007l.025-.089v-.039h.003l-.003-.017v-.007c-.001-.12.058-.236.16-.347l-.03-1.052h.003l-.003-.018v-.006l.04-.169-.04-1.363h.003l-.003-.016v-.007c-.001-.163.103-.319.286-.464l-.027-.936h.003l-.003-.017v-.006c-.005-.759 2.162-1.375 4.842-1.376 2.632-.002 4.773.59 4.854 1.331h.008l-.001.037.001.002v.007l-.001.004-.022 1.529-.239.109-.018 1.213.014.075h.008l-.001.037.001.002v.007l-.001.004-.017 1.152c.175.146.274.301.273.464v.007l-.003.017h.002l-.03 1.062.027.098h.007l-.001.037.001.003v.006l-.001.005v.001c.122.123.19.254.188.389v.006l-.003.018h.003l-.048 1.647-.133.067.047.186v.008l-.003.018h.003l-.028.976c.19.151.299.314.298.483v.007l-.004.017h.004l-.041 1.422.041.177v.006l-.004.019h.004l-.031 1.097c.105.115.167.236.166.362v.006l-.003.018h.003l-.048 1.647-.366.182-.015.486c.431.212.681.456.68.715l-.003.005zm10.199-21.192l-.003.016h.003l-.045 1.562-.293.145-.037 1.26-.348.173-.014.462c.407.2.646.432.644.68v.006l-.004.017h.004l-.047 1.562-.184.092c.041.07.067.144.067.218v.007l-.004.017h.004l-.047 1.562-.161.08-.02.685c.308.18.484.381.483.595v.006l-.003.017h.003l-.045 1.562-.293.145-.037 1.26-.348.174-.014.462c.407.199.646.432.644.68v.006l-.004.017h.004l-.047 1.562c-2.256 1.259-6.683 1.365-9.526-.067l-.018-1.217c-.207-.084-.408-.173-.602-.271l-.022-1.513-.001-.005v-.006l.001-.002-.001-.037h.008c.019-.177.153-.346.39-.498l-.011-.864-.001-.004v-.006l.001-.003-.001-.037h.007c.018-.162.135-.316.335-.459l-.01-.724-.438-.2-.022-1.512-.001-.005v-.005l.001-.003-.001-.036h.008c.014-.126.084-.247.209-.361l-.015-.995-.001-.005v-.005l.001-.004-.001-.037h.009c.012-.113.08-.225.186-.329l-.008-.003-.018-1.217c-.207-.084-.409-.174-.603-.271l-.022-1.513v-.049h.007c.02-.177.154-.345.391-.499l-.013-.863v-.048h.007c.018-.162.135-.317.335-.459l-.01-.724-.438-.2-.022-1.512-.001-.004v-.005l.001-.003-.001-.037h.008c.014-.125.084-.247.209-.361l-.015-.996-.001-.004v-.005l.001-.003-.001-.037h.008c.08-.731 2.198-1.316 4.799-1.315 2.65.001 4.794.61 4.788 1.36v.006l-.003.017h.003l-.046 1.562-.161.081-.021.684c.31.18.485.381.483.594l.002.004z"/></svg>