<svg xmlns="http://www.w3.org/2000/svg" width="100" height="100"><circle fill="#B2B2B2" cx="50" cy="50" r="50"/><path d="M67.266 31.84h-.047v-.266h-.208v-.336h-.127l-.012-3.635s.012-.347-.358-.88c-1.188-1.708-3.774-1.424-4.77-1.111-.996.312-1.506 1.146-1.506 1.146l-.174-.116-.012-.173.082-.116s-.15-.359-.174-.475-.324-.44-.406-.475c-.08-.035-.139-.336-.139-.336l-.035.359-.647-.289s-.429-.313-.614-.486-.867-.44-.867-.44l-.302-.371s.255-.325.069-.44c-.186-.116-.035-.312-.035-.312s.151-.116.151-.509-.14-.648-.302-.765c-.161-.115-.034-.196-.034-.196 1.123-.232 1.829-1.169 1.979-1.32.15-.151.093-.278.093-.278-1.771-1.748-3.265-2.038-2.94-2.072.324-.034.544-.162.533-.277-.012-.116-.29-.324-.29-.324-.591-.475-1.956-4.562-3.739-5.893-1.864-1.392-4.156-1.065-5.939-.139-1.783.926-2.663 3.6-2.663 3.6s-.081.012-.197.463l-.203 2.246-.104.191c-.041.099 0 .15 0 .15s-.504.62-.504.741.284.139.284.139l1.395.069v4.88l-.139.081s-.023.243-.012.37c.012.127.127.139.127.139h.255s-.173.186-.289.243c-.116.059-.324.278-.348.313l-.092.139-.116-.092-.254.197-.452-.44-.139.081-.104-.023s-.37.301-.394.336v.162l-.104.035-.243.208c-.069.035-.218.183-.208.382.012.243.116.452.938 1.366.822.915 1.065.96 1.32 1.019.254.058.579-.532.579-.532l.035.058c.035.058.174.116.174.116l.058.15.163.081-.325.324c-.162.162-.439.648-.439.648s-.127.336-.232.498c-.104.162-.892 1.273-.892 1.273s-.475.487-.798 1.077c-.325.59-.151.81-.151.81s-.648.475-.88.938c-.231.462-.197.937-.197.937l-.718 1.54-.312.069s-.417.429-.417.475c0 .046-.081.138-.208.301-.128.162-.162.521-.208.544-.046.023-.208.231-.232.312-.022.081-.417.371-.579.486-.162.116-.266.324-.266.324l-.278.023-.764.44-.208-.012c-.127 0-.29.047-.29.047l-.266-.347s-.174-.128-.359-.162c-.186-.035-.359.023-.359.023l-.382-.325-.555.047c-.197.023-.232.231-.232.231l-.197-.116c-.069-.046-.185 0-.185 0s-.313.127-.382.29l.104.301s.197.232.14.278c-.058.047-.22.023-.22.023l-.707-.196v-.093h.139v-.069l-.243-.046-.011-.104-.348-.116-.127.139h-.486l-.069.173s-.509-.139-.532-.208c-.023-.069-.672-.3-.672-.3s-.752-.163-.822-.244l-.139-.15-1.424-.359c-.092-.023-.092.15-.092.15l-.104.359-.185-.104c-.116-.082-.428-.475-.521-.603s-.394-.278-.336-.208c.058.069-.498 1.517-.602 1.829l-.231.695.452-.035s.486-.162.729-.231c.243-.07.255.081.255.081s-.116.301-.116.406c0 .104.104.162.104.162l1.32.405.278-.069s.88.301 1.112.347c.231.047.417-.069.417-.069l1.007.359-.104.51.278.104.139-.186 1.054.429-.104.509.671.208.012.116.741.185.046-.15.567.127c.243.059.313.046.313.046l.324-.29s-.093.671.498 1.517c.59.845 1.366.892 1.968.833.602-.058 1.169-1.019 1.169-1.019l.208.023.162.104c.081.023.359-.186.359-.186l.127.104c.046.023.163-.197.163-.197l.266-.104 1.111.382-.359 1.505s-.371 1.69-.382 2.744c-.011 1.053.163 2.594.88 3.67.718 1.077 1.968 1.228 1.968 1.228l.035.382s-.197.938-.197 1.007l.139.255s-.058.255-.162.358c-.104.105-.012.521-.012.521s-.231.243-.394.556l-.463.915s-.231.845-.254.995.012.209.417.417c.405.208.915.301.915.301s-.012-.544.035-.868l.37-.834.035.544c.012.14-.104.869-.104.869s-.116.012-.22.116c-.104.104.035.185.035.185l.162.116s.012.694.046.949c.035.254-.093.475-.185.602-.093.127-.07.231-.07.417l.116.231-.116.301s-.486 1.621-.833 3.033c-.348 1.412-.417 4.006-.394 4.469.023.464.185 1.135.254 1.205.07.068.139.879.162 1.134.023.255.486.787.486.787s-.44 1.204-.509 1.667c-.069.464-.162 1.413-.162 1.413s0 1.458-.069 2.061c-.069.602.092 1.366.092 1.366s.278 1.991.162 2.13l-.185.371.116 1.041s-.116.14-.648.51c-.533.37-.486.787-.394 1.436.093.648.348.949.348.949l-.394.625s-.046.14-.231.209c-.185.069-1.759 1.064-1.759 1.064s-.788.14-1.343.255c-.556.116-1.042.51-1.088.765-.046.255.301.787.301.787s2.2.231 4.7.278c2.5.046 7.41-.348 7.41-.348v-.371l1.204.047c5.627.186 6.924-.51 6.924-.51v-.417s.717-2.616.787-3.38c.069-.765-.51-1.228-.51-1.228s.186-.486.254-.695c.07-.208.07-1.504.07-1.504s2.779-3.821 3.751-6.992c.973-3.173 1.134-6.113.603-9.841-.533-3.729-2.34-7.353-2.34-7.353s.035-1.042 0-1.667c-.034-.625.162-2.57.232-3.265.069-.694.416-1.98.416-1.98l.082-.544s.208.221.475.221c.266 0 .382-.382.382-.382l.556-.011.15-.15h.741l.034.034c.035.035.383.023.383.023l.207-.046s.094.614.557.533c.463-.082.579-.961.439-1.459-.139-.498-.51-.59-.752-.474-.244.115-.336.544-.336.544l-.127-.139-.324.011-.244.163v-.845h.557v-.556l.266-.208v-.44c2.2-.602 2.246-2.431 2.246-2.431v-9.239l.127-.023-.012-.208s.175-.035.209-.127c.035-.092-.034-.243-.08-.371-.047-.127.104-.116.104-.116v-1.899zm-23.733 9.847l.679-.22c.183-.054.269-.205.269-.205s.032.286-.032.565l-.426.651-.737-.248.247-.543zm-.738.188s0 .2-.064.215c-.064.016-.323-.119-.323-.119l.387-.096zm1.393 10.161l-.095.913s-1.581-.042-2.112-2.344l.572-6.021 1.144.381.136.272s-.34.027-.518.246c-.177.217-.75 1.049-.654 1.934s.449 1.485.681 1.675c.231.191 1.076.491 1.076.491l-.23 2.453zm.327-2.916s-.736-.327-.995-.531c-.259-.204-.341-.776-.354-1.417l.545-1.322c.164-.014.177.327.177.368l-.082.149c-.041.068.014.205.014.205l.804 2.343-.109.205zm7.921 29.526c-.066.064 0 .414 0 .414l-.393 1.963s-.131.283-.24.436-.458 1.069-.438 1.33c.023.262.372.48.459.545.088.065.174.132.174.437 0 .306-.261 1.745-.436 2.094-.174.349.175.523.175.523l-1.439.807-.197-.828s.284-.48.371-.567l.131-1.657s-.109-.437-.043-.479c.065-.044.065-.916.065-1.112s-.153-.567-.218-.61c-.065-.044.196-1.788.196-1.788 0-.196.218-.445.218-.445s.087-1.432.108-1.628l.35-1.569c0-.109 0-.589.086-.785.088-.196.088-1.701.088-1.701s1.396 2.857 1.439 3.01c.045.148-.392 1.544-.456 1.61zm8.672-12.837l-.122.068.108 1.036.081.027s.055 2.233-.067 3.092-.702 4.383-1.519 5.528c0 0-.104-.503-.018-.625.087-.121.156-.625.122-.677-.035-.053-.069-.417-.069-.469s.034-.417-.104-.504c-.14-.087-.243-.469-.173-.66l.207-.469c.035-.156.14-1.823-.068-2.553-.209-.729-.799-1.857-.799-1.857s-.139-.418-.07-.504c.07-.087.625-1.182.678-2.05l-.156-2.743.26-.591-.865-.805s.232-.695.164-.886l.014-.477s.163-.368.163-.478l.014-.204h.396s.708 1.635.98 2.589l.504 1.866.068.857.271 1.489zm1.99-17.726h-.544v-.104l-.116-.035-.045-.163s-.279-.046-.465-.035c-.185.012-.242.29-.242.29l-.07.116-.161.035.034-.416.127-.046-.057-.533-1.1-.116c-.174-.972-.568-1.239-.568-1.239.128-.138.221-1.123.221-1.123.648 1.273 2.188 1.586 2.188 1.586l.012.381.231.232v.567h.556v.603z"/></svg>