<svg xmlns="http://www.w3.org/2000/svg" width="100" height="100"><circle fill="#B2B2B2" cx="50" cy="50" r="50"/><path d="M23.172 54.312l-.181-.037c.051.076.114.07.181.037zM28.232 72.761l.031.064-.031-.064zM31.073 71.375c-.06-.019-.153-.148-.251-.299.01.137.079.246.251.299z"/><polygon points="22.248,41.822 22.243,41.828 22.243,41.83"/><path d="M24.073 48.258l.004.006-.004-.006zM83.045 56.471c.127-.324-1.037-.292-1.136-.488-.074-.147-.13-.692-.249-.692-.396 0-.774-.476-.266-.508.009-.001-.074-.146-.111-.155-.104-.024-.729.355-.752.176-.05-.388.626-.217.673-.461.09-.468.507-.439.758-.774.225-.298-.844-.397-.968-.545-.135-.16.236-.406-.266-.504-.37-.073-.456.243-.682.491-.233.257-.678.336-.864.593-.239.328-.608.656-.711.125-.221-1.147-.522.011-.739-.302-.113-.163.466-.74.484-.94.024-.251-.535.041-.549-.099-.012-.124.13-.553.159-.7.05-.251.71-.195.737-.521.022-.247.396-.221.272-.553-.104-.162-.181-.335-.23-.52.042-.203.425-.067.462-.307.028-.178-.377-.589-.354-.627.139-.227.799-.113.583-.521-.22-.416-1.811.29-1.82.386.024-.243.332-.972.561-1.059.219-.083.536.099.72-.015.129-.08.285-.703.188-.816-.164-.192-.759.319-1.036.2-.437-.188.564-1.097.433-1.147-.192-.073-.4.496-.505.462-.189-.062-.82-.728-.164-.647.323.041.854-1.027.846-1.029-.182-.046-.697.193-.644-.084.034-.166.377-1.107.339-1.107-.436 0-.58-.004-1.02.335-.181.14-.419.387-.637.467-.095.035-.468-.406-.466-.001.002.289.117.563.164.845.019.116-.526-.019-.59-.011-.4.047-.504.165-.93.079l-1.076-.021.295-.551c-.092-.246-.688.056-.792-.166-.116-.246.73-.168.741-.355.017-.277.068-.97-.348-.827-.315.109-1.273.356-.644-.343.245-.272.348-.159.641-.27.193-.072.122-.303.253-.371-.01.005.339.232.49.202.197-.04-.036-.713-.053-.786-.053-.22-.082-.78-.449-.717l-.384.143c.15-.458.137-.521.607-.384.65.189.737.031.892-.545.076-.287-.627-.392-.753-.44-.068-.025-.219-1.174-.172-1.218.14-.126.646.577.753.621-.108-.044.753-1.306.358-1.243-.358.057-.629.447-1.004.449-.169.001-.402-.605-.423-.595.175-.091.31.112.525-.081.289-.255.333.136.541.034.1-.05.141-.367.304-.27.18.109.6.392.789.385.127-.004-.172-.647-.21-.688-.624-.682.175-.209.157-.934-.003-.095-.847.146-.83-.2.022-.48 1.385.542 1.214-.438-.078-.45-1.324-.442-1.348-.37l.155-.096c.04.048-.661-.418-.592-.412-.439-.042-.653.358-.737-.241-.091-.664-.22-.392-.691-.247-.33.102-.173-.155-.005-.251.386-.224 1.027-.102 1.349-.364.099-.08-.551-.34-.602-.368-.917-.52 1.138-.936.38-1.279-.141-.063-.319.441-.573.324-.345-.159-.548.083-.888-.121-.437-.262-.643.413-.985.671-.184.138-.544-.33-.552-.472-.015-.308.727-.267.829-.571.087-.264-.633-.517-.244-.776.328-.218.795.255 1.121.156-.037.011.1-.576.069-.495.159-.451-.2-.297-.475-.27-.328.034-.31-.913-.433-1.017-.111-.095-.375.05-.513.004-.275-.092.057-.479-.168-.619-.34-.213-.146-.224-.193-.64-.036-.314-.985.538-.866.689-.149-.191.311-.627.225-.835.039.092-.836-.303-.828-.3.051.012-.613.629-.616.637-.003.006.254.744.062.639-.477-.26-.12-1.2-.485-1.563-.443-.444-1.062.793-1.26.782-.185-.012-.055-.345-.214-.41-.236-.097-.683.404-.803.125-.12-.276-.287-.562-.525-.091-.254.511-.265-.163-.41-.203.128.035-1.1.855-1.021.251.049-.361.711-.174.603-.661-.128-.567-.269-.254-.622-.57-.293-.26-1.021.604-1.092.571l-.18-.238c-.093.014-.087.411-.305.487-.509.178-.478.555-.834.88-.127.116-.5.384-.054.391.478.007.486.127.774.508.092.122-.255.327-.338.337-.183.023-.315-.613-.614-.236-.244.309-.346.714-.602 1.013-.226.264-1.108.173-1.121.496-.017.357 1.175-.083.863.789-.403 1.125-1.046-.436-1.364-.596-.326-.164-1.116 1.084-.732 1.202.411.126.513-.526.9 0 .04.052.453.641.372.641-.4 0-.76-.711-.937.005-.077.313-.137.763-.447.941-.264.15.198.36.272.405.14.085.328-.194.406-.256.474-.377.028.556.137.576.089-.038.167-.09.236-.159-1.182.737.445.65.446.683.047.713-1.052.533-1.303.822-.533.615 1.202.403.68.896-.251.236-.561.398-.867.541l-.195-.724c-.096-.082-.322.043-.441.003-.236-.079.049-.413-.145-.533-.291-.184-.125-.192-.166-.551-.024-.211-.523.188-.694.437l-.063.01c.048-.185.262-.435.205-.572.019.043-.192-.037-.39-.119.125-.373.265-.788.237-.788-.526 0-.7-.004-1.23.405l-.144.119-.081-.123c-.258-.259-.583.143-.82.428-.145-.087-.286-.136-.285.138l.016.103-.18-.349c-.203-.083-.587.348-.69.107-.104-.238-.247-.483-.452-.078-.219.439-.229-.141-.354-.175.11.03-.946.736-.879.217.043-.311.613-.15.52-.569-.11-.488-.231-.219-.535-.491-.076-.067-.187-.042-.304.018-.055-.02-.117-.026-.2.002-.381.132-1.536.429-.776-.414.295-.329.42-.192.773-.325.233-.087.146-.366.305-.447-.012.006.409.28.592.243.237-.047-.044-.86-.064-.948-.063-.266-.099-.941-.542-.865-.035.006-.459.163-.463.173.182-.552.165-.629.733-.463.784.229.89.038 1.075-.658.093-.346-.756-.473-.908-.531-.082-.031-.264-1.417-.207-1.47.168-.152.779.696.908.749-.131-.053.908-1.575.433-1.499-.433.069-.759.54-1.211.542-.204.001-.485-.73-.511-.717.211-.11.373.135.634-.098.349-.308.402.165.652.041.12-.061.17-.443.367-.326.217.132.723.473.952.465.152-.005-.208-.78-.254-.831-.753-.823.211-.252.189-1.127-.003-.115-1.021.176-1.001-.241.027-.58 1.671.654 1.465-.529-.095-.543-1.599-.534-1.626-.446l.188-.116c.048.059-.798-.504-.715-.497-.529-.051-.788.432-.889-.29-.11-.801-.266-.473-.835-.298-.398.123-.208-.187-.006-.303.466-.27 1.239-.123 1.628-.439.118-.097-.665-.41-.727-.444-1.106-.626 1.373-1.129.459-1.542-.17-.076-.386.532-.691.391-.416-.191-.661.1-1.071-.146-.527-.316-.775.498-1.189.81-.221.167-.656-.398-.665-.569-.019-.371.876-.321 1-.689.105-.319-.763-.624-.294-.937.395-.264.959.307 1.353.188-.046.014.118-.695.083-.596.192-.544-.241-.359-.572-.326-.396.041-.373-1.101-.521-1.227-.135-.114-.453.061-.619.005-.332-.11.068-.579-.202-.747-.41-.256-.176-.27-.233-.772-.044-.379-1.189.649-1.045.832-.181-.23.375-.757.271-1.007.046.111-1.007-.365-.999-.363.062.015-.739.759-.744.769-.004.007.308.897.075.771-.576-.313-.146-1.448-.586-1.886-.534-.536-1.281.957-1.519.943-.223-.014-.066-.416-.258-.494-.286-.117-.823.488-.969.15-.144-.333-.345-.677-.633-.11-.306.616-.319-.197-.495-.245.154.042-1.327 1.031-1.23.303.058-.436.857-.209.726-.797-.153-.684-.324-.307-.75-.688-.353-.313-1.232.728-1.316.689-.061-.104-.133-.2-.217-.287-.112.017-.104.495-.369.588-.612.215-.576.669-1.005 1.062-.153.14-.603.463-.065.472.576.009.587.154.934.613.111.146-.306.395-.407.407-.22.028-.381-.74-.741-.285-.294.373-.417.861-.726 1.222-.271.318-1.336.209-1.353.598-.019.431 1.419-.099 1.042.952-.486 1.358-1.263-.526-1.646-.719-.394-.197-1.347 1.308-.883 1.45.495.152.618-.635 1.086 0 .048.063.546.773.449.773-.484 0-.917-.858-1.13.007-.093.377-.165.92-.54 1.135-.318.182.239.435.328.488.169.103.396-.234.491-.309.572-.455.035.67.164.695.107-.045.203-.108.286-.191-1.426.89.537.784.539.824.056.86-1.27.643-1.573.992-.642.742 1.45.486.82 1.08-.452.426-1.073.676-1.583.9-.356.158-.291-.493-.367-.692-.136-.355-.587-.22-.854-.528-.57-.658-.543.552-1.102.44-.225-.045-1.773-.389-1.753-.365-.281-.343-.396-.2-.75-.013-.66.351-.318.295-.672.834-.274.409-.754.437-1.077.76-.079.079-.547 1.16-.256 1.085.263-.067.585-.784.835-.722.343.084-.424 1.121-.54 1.214-.327.263-.392.251-.786.228l-.902.472c-.489-.061-.937-.425-1.374-.155-.617.38-1.07.631-.29.971.197.086.598-.117.598.177 0 .419.536-.007.736.286.073.111-.75.576-.82.713-.112.217-.097.512-.065.749.104.774-.563 1.187-.866 1.83-.301.642.679-.27.782-.391-.028.033-.247.783-.011.726.061-.016 1.046-.738 1.003-.598-.146.483-.815.735-1.003 1.29-.073.225.974-.021 1-.123-.326 1.311.162-.13.458.022.02.151.016.301-.014.45.098.106 1.619-.993 1.725-.929.53.317-.704 1.491-.982 1.376.462.191 1.604-.349.872.509-.522.6-1.655-.337-1.677-.295-.522.99.393 1.542.293 2.494-.052.425.881-.183 1.26.083.465.324.776-1.299.993-1.09.093.09.066 1.119.109 1.293-.541-.205-.345.197-.204.5.062.134-.414 1.177-.324 1.188l.94-.669c.17.257-.248.507-.292.733-.031.152.911-.361.931-.27l-1.177 1.499c.161 1.081.911.006 1.11.055.558.136-.11 1.178.929.548.206-.122.56-.916.753-.881.07.013.615.391.636.468.028.101-.835.518-.983.617-.576.385-1.03.589-1.679.306-.707-.31-1.003-.523-1.058-1.354-.038-.569-.373-.562-.399.03-.487-.305-.45.214-.843.306-.173.04-.659-.13-.669-.221.061.116.095.239.103.369-.302.501-1.176-1.776-1.2-2.019-.035-.353-.178-.817.122-1.094.139-.128.392-.948-.066-.804l-.377.407c-.356.12-.248-.608-.124-.732.705-.702-.819-.4-.9-.422.038.01-.752-1.483-.85-.393-.034.382-.285.607-.652.652-.362.046-.209.595-.489.733-.095.047.13 1.064.248 1.15.262.192.575.016.778.35.272.448.014.839-.129 1.271-.207.603-1.335-.643-1.648-.66-.329-.018-.838.29-.838.66 0 .35.336.018.465.096-.044-.026.113.609.205.703.491.502 1.19.824 1.817 1.115 1.537.715.204.42-.274.817-.225.186-.982 1.267-.458 1.463.412.154.459.573.936.653.772.126.238.42.697.884.38.384.938.565 1.359.898.671.529-.512.357-.634.418-.258.129-.165.495-.324.691-.308.384-.357-.29-.593-.271-.285.024-.37.469-.597.582-.182.09-.381.024-.578.148-.743.468.519.367.57.444.017.026 1.082.169.472.705-.299.263-.896.241-1.268.288-.77.098-3.019.657-2.719 1.897.012.049 1.58-.741 1.746-.85.213-.14.042.598.064.605.751.24.739-.909 1.636-.186.376.303.951.506 1.432.506.569 0 .564-.379.975-.618.116-.067-.333 1.125-.658 1.289.272.039.747.098.647.197-.008.008-.774.608-.36.63.264.014.589-.707.766-.24.128.34.08.601-.292.704-1.024.285-2.007.095-3.053.447-.52.175-.951.336-1.26.816-.3.468.628.569.897.412.258-.151.279-.536.503-.729.068-.059.894-.186.881-.062-.054.537-1.371 1.569-.677 2.164.271.234.715-1.102.817-1.276.241-.41.733-.784 1.178-.924-.396.138-.09.987-.199 1.1-.279.289-.614.568-.854.891.153-.206.934.59 1.018.445-.213.366-.748.354-.698.906.046.512-.783 1.019-.648 1.385.106.332.677-.378.773-.399.506-.117-.485 1.193-.481 1.283.013.259.102.911-.386.616-.33-.2-.92.642-.978.555-.27-.408.032-.46-.356-.751-.273-.209-.629.556-.535.779.081.19.729.771.658.885-.059.094-.671.987-.689.966.39.455 1.461-.731 1.583-.956-.712 1.312.761.367 1.3.035-.762.675-1.228 1.954-2.114 2.486-.191.114-1.43.365-1.191.724.326.487 1.05-.103 1.069-.072.503.794-1.059 1.95-.896 2.688.093.425 1.003-.29 1.155-.443.147-.146.298-.4.515-.457l.367.127c.126-.064-.486-1.07.318-1.378.169-.064.189.722.619.44.161-.108.239-.83.528-.732.913.302.608.123.692.978.046.456-.433.979-.295 1.41.093.291 1.789-1.441 1.941-1.521-.043.022.792-.008.803-.006.172.024.682.124.759.302.032.074-.408.767-.143.736.568-.066.69-1.247 1.254-1.247.262 0-.737 1.369-.774 1.426-.211.322-.75.593-1.077.773-.499.275-2.252.562-2.303 1.386-.026.421.629.688.977.57.867-.293.806-.902 1.166.022.463 1.188 1.772-1.796 2.08-1.855-.168.033-.119 1.87.053 2.214-.09-.438.668-2.655.718-2.647.865.15.445.614.625 1.248.642.902.679-.716.851-.8.064-.031.236.27.396.515-.031-.423.528-1.117.588-1.263.141-.34.467-.072.532-.326.106-.438.521.1.688.245.02-.11.104-.338.207-.396.149-.084.212.302.445-.176.259-.509.568-.37 1.024-.406.594-.048.629-.26.687-.775.001-.009.087-.818.201-.724.155.128.28 1.122.211 1.305-.099.262-.881.477-1.105.561-.908.341-1.599 1.027-2.193 1.848-1.201 1.658.809 1.154.809.148 0-.245.898-.707 1.055-.443.446.747.322.341.845-.106.027-.022.111.421.258.39.203-.043.396-.7.378-.7.029 0-.358.198-.27.065 1.243-1.883 1.097 1.602 1.24 2.16.354 1.387 1.073 2.665 1.387 4.088.254 1.151.15 2.515.121 3.69-.023.92.105 2.926-.615 3.525h3.015c-.288-.822-.419-1.474-.376-2.348.062-1.257-.199-2.512-.083-3.758.106-1.14.008-2.282.043-3.425l.021-.223.001.1c.066.209 1.277-1.027 1.385-1.084-.031.015.565-.007.573-.006.123.018.487.09.542.216.022.054-.292.546-.102.526.405-.049.493-.892.895-.892.187 0-.526.978-.552 1.018-.15.23-.536.424-.769.553-.356.197-1.607.4-1.644.989-.019.299.449.491.697.407.619-.209.575-.645.832.015.331.848 1.265-1.281 1.484-1.323-.127.025-.082 1.515.061 1.626-.165-.13.452-1.942.49-1.936.618.107.318.439.446.892.458.644.484-.512.607-.572.046-.021.168.192.281.366-.021-.302.377-.796.42-.899.101-.243.333-.052.38-.233.076-.312.372.072.491.175.015-.079.074-.24.148-.282.107-.059.151.217.318-.124.185-.363.405-.265.731-.291.424-.034.448-.186.489-.554l.006-.048.001-.001.293.172c.011.133.011.247-.005.292-.071.188-.628.34-.789.4-.648.244-1.142.733-1.565 1.318-.856 1.184.578.824.578.106 0-.175.642-.505.753-.316.318.533.229.242.603-.076.018-.017.08.3.184.278.144-.03.282-.5.27-.5.021 0-.256.142-.192.047.886-1.343.783 1.143.884 1.541.253.99.766 1.901.99 2.917.181.822.107 1.796.086 2.635-.016.656.075 2.087-.439 2.516h2.151c-.203-.587-.299-1.053-.268-1.677.043-.896-.142-1.792-.059-2.68.075-.814.005-1.63.029-2.445.02-.634.239-1.265.239-1.892 0 .128.12.582.292.582.209 0-.264-.925-.266-1.039l.003-.015.165-.101c.164.073.394.316.416.369.172.411.309.329.416.084.146-.023.315-.19.488-.412-.056.185-.122.365-.205.531-.129.256.428.119.496.081.402-.228.366-.757.361-1.15 0 .104.222.921.341.998l.036.075-.014-.061c.156-.041.084-.523.145-.641-.072.145.037.531.279.501.363-.046.518.732.668.941.883 1.212.574-.935.514-.95.379.101.162 1.134.459 1.226.4.126.457-1.464.494-1.572.195-.587 1.041.883.232 1.134.131.056.912.553.967.521.115-.062.025-.454.018-.557.014.161.48-.108.514-.13.34-.23.125-.671-.012-.977.15.112.377-.056.602.073.305.176.424.502.818.545.281.03.117-.653.117-.785 0-.229.727.308.812.029-.01.035-1.439-1.56-.238-1.068.071.028.148-.021.23-.086.099.579.102 1.351.158 1.571.294 1.149.89 2.209 1.149 3.389.21.954.125 2.085.1 3.06-.019.762.087 2.425-.51 2.922h2.499c-.237-.682-.348-1.222-.312-1.946.051-1.042-.164-2.082-.068-3.114.088-.945.006-1.893.035-2.839.022-.736.277-1.47.277-2.197 0 .148.139.675.339.675.229 0-.241-.945-.298-1.166l-.004-.071c.033-.373.632.231.672.326.449 1.077.694-.758.812-1.114.102-.308.484-.245.402.103-.097.414-.211.866-.402 1.248-.149.296.497.139.575.094.469-.264.426-.879.42-1.337.001.13.294 1.208.422 1.176.183-.046.099-.607.168-.743-.084.168.043.617.324.582.422-.053.602.852.777 1.093 1.024 1.408.666-1.085.597-1.104.438.117.188 1.317.533 1.425.464.146.53-1.702.572-1.827.229-.681 1.211 1.026.271 1.316.151.064 1.059.643 1.124.606.134-.072.029-.528.02-.647.016.188.559-.124.597-.149.396-.269.145-.78-.015-1.135.177.131.439-.065.699.085.355.203.493.582.951.634.327.035.136-.761.136-.913 0-.265.845.358.944.033-.013.042-1.672-1.81-.277-1.24.222.091.485-.413.812-.442.335-.03.91.695.455.855-.274.098-.748-.139-.793.231-.069.588.256.442.652.297.334-.123.604.509.797.241.4-.556.437.006.819-.278.04-.029-.858-1.35.166-.605.093.067.974.948 1.017.839.075-.186-.094-.542.201-.605.272-.059-.369-1.739-.679-1.752-.478-.018-.838.063-.752-.529.11-.763.479.198.746-.156.15-.2-.103-.384.144-.608.266-.243.08-.685.271-.861.135-.124 2.062-.086 2.174-.041-.397-.16-.263-.104-.047-.435.087-.133-.168-.456-.168-.615 0-.443-.442-.035-.58.068-.22.166-1.064-.247-1.05-.301.095-.33 1.149-.969 1.126-1.078-.014-.065-.8.194-.777.05.031-.201.74-.604.734-.736-.005-.151-.258-.24-.081-.398.197-.179.492-.219.706-.377.198-.146 1.195-.726 1.125-.865-.493-.98.791-.405.729-.786-.033-.203-.54-.465-.637-.771-.1-.316-.702-.617-1.005-.735-.652-.254-.994-.575-1.641-.113-.205.147-.738-.094-.825-.316-.06-.149.429-.358.203-.732-.093-.155.102-.937.19-1.083l.255-.006c.157-.143-.954-1.324-.202-1.104 1.195.35.077-1.102.215-1.208.199-.152.438.227.636-.141.226-.42.482-.049.607.202.264.525.351-.076.6-.185.164-.071.214.074.376-.138.228-.298 1.221.071 1.515.087.653.033.15-.311.285-.644zm-53.427-14.887c-.249-.247-.528-.521-.448-.896.267.214.474.077.733.163.119.041-.241.662-.285.733zm-7.375.244l.005-.006c.638-1.039 1.827.949 2.073 1.513-.486-.284-2.38-.981-2.078-1.505v-.002zm2.873 6.625c-.384.842-.542.375-1.039-.188l-.004-.006c-.226-.264.288-.001.413-.157.224-.281-.529-.854-.715-.934-.352-.151-2.008-.973-1.682-1.596.18-.343.801.235 1.009.194.227-.044-.031-.879.423-.98.324-.073.465-.008.566.333.16.542-.331.519-.499.946-.11.28 1.367-.01 1.262-.082.529.362-.473.853-.128 1.318.48.647.774.319.394 1.152zm1.648-3.692c-.295.165-.552.119-.77-.169-.463-.61.245-.599.562-.844l.007-.004c.185-.151.804.24 1.018.325.104.075.159.175.166.302.096.255.513.052.69.228-.502-.013-1.219-.089-1.673.162zm10.51 25.215l.153.578-.032.043-.121-.621zm.416-.007l.069.109-.234.339c.04-.236.101-.501.165-.448zm.076 2.297l.028-.011c.062.098.069.204.057.313l-.085-.302zm-.1-.398c-.089-.377-.169-.76-.246-1.146l.057.019.003.01.001-.011c.097.006.211-.039.329-.114l-.007.125c0 .02.41-.307.452-.367-.053.455-.3 1.079.207.795l.019.011c-.178.238-.366.46-.6.6l-.215.078zm.536 1.762l.144-.099.119.038-.089.521-.174-.46zm1.754.195c.044-.384.111-.767.177-1.148l.015.451c.022.222-.125.467-.192.697zm10.687 2.733l-.087.523c-.417-.955-.59-1.922-.786-2.937l.146.554c.002-.054.074-.622.15-.559.143.116.08.407.08.559 0 .014.292-.221.323-.263-.038.324-.214.771.148.566.193-.108.035 1.491.026 1.557zm12.276-.806l-.102.608c-.259-.595-.435-1.194-.579-1.804.085.062.161.093.227.002.272-.377.352-.16.533-.17.007.521-.071 1.315-.079 1.364zm14.878-22.84c.009.061-.021.11-.088.147l-.001.001.089-.148zm-.162-2.677c-.098.077.274.544.146.704-.084.105-.184.195-.286.281.252-.233-.299-.639.14-.985zm-.87-3.856l-.494-.204c.168.112.378-.021.494.204zm.271 5.16l-.614-.171c.311-.577.469-.176 1.016-.143l.048.005c-.141.117-.291.221-.45.309zm.246.607l.127-.583c.016-.026.144.123.142.148-.013.117-.213.316-.269.435zm1.239 14.218l.27-.404c-.077.156-.002.345-.27.404zm.671-2.058l.002-.001h.002c.228-.084.343.062.538-.135.185-.184.145-.419.349-.621l-.103.036c.718-.403.633-.233.193-.664.139.136.564.063.741.251.117.125-.54.503-.603.561-.26.234-.177.678-.394.88-.329.307-.822.326-1.232.199.137-.134.24-.404.507-.506zm-.606-1.184v.007c-.095.563.476.8-.045 1.407.137-.158-.371-.32-.156-.534.127-.128.146-.382-.047-.436l.248-.444z"/><polygon points="79.194,64.305 79.192,64.306 79.196,64.305"/><path d="M45.343 75.142c-.043-.013-.11-.105-.18-.214.007.098.058.176.18.214z"/></svg>