<svg xmlns="http://www.w3.org/2000/svg" width="100" height="100"><circle fill="#B2B2B2" cx="50" cy="50" r="50"/><path d="M41.966 27.609c-1.658.2-3.363.419-4.371.593-2.447.419-3.285-.07-3.494 1.747-.21 1.818.069 4.264.418 4.543.351.28 3.916.7 3.916.7l3.405.529 5.194.319s-.213 7.574-.072 7.667c0 0-.21 21.588-.21 23.566 0 .406-.008.837-.018 1.278-.031 1.485-.111 3.007-.526 4.442-.209.721-.466 1.339-.847 1.861-.351.48-.807.88-1.428 1.202-.557.29-1.178.442-1.8.507-.962.1-1.932-.025-2.856-.3l-.526-.183c-.871-.212-1.759-.55-2.624-1.05-3.494-2.028-6.081-5.173-6.15-5.592-.07-.42 1.048.35 2.447-.14 1.397-.49 1.816-.91 1.816-.91s-3.774-1.746-5.591-4.682c-1.817-2.936-3.005-6.57-3.005-6.57s-2.726 6.64-2.167 10.554c.559 3.915 2.306 6.71 2.656 6.78.349.07 1.188-2.936 1.468-2.936.279 0 2.796 5.872 6.779 8.248 0 0 .743.581 1.864 1.363l1.928 1.282c.984.62 2.067 1.248 3.129 1.757 3.354 1.608 6.15 3.355 7.128 4.193.978.84 2.795 3.356 2.795 3.356s1.742-2.592 2.682-3.474 3.652-2.755 6.931-4.513c3.277-1.76 6.711-4.715 6.711-4.715 3.873-2.555 6.118-8.535 6.397-8.548.279-.014 1.254 2.951 1.601 2.865.346-.085 1.964-2.959 2.344-6.894.381-3.936-2.646-10.444-2.646-10.444s-1.021 3.684-2.703 6.7-5.372 4.932-5.372 4.932.438.401 1.856.825c1.419.426 2.501-.394 2.45.029-.05.421-2.49 3.681-5.889 5.865-3.399 2.185-7.338 1.734-8.851.823-1.51-.91-1.979-5.087-2.117-8.089l-.054-1.062-1.152-20.34c-.316-5.488-.569-9.863-.569-9.863l2.514-.114c1.885-.087 6.11-1.048 6.11-1.048s3.542-.581 3.877-.877c.337-.295.504-2.751.213-4.558-.292-1.805-1.108-1.278-3.57-1.586-2.464-.309-9.06-.706-9.06-.706l-.043-.978s5.944-1.6 5.082-8.208c-.928-7.124-7.385-7.209-8.489-7.173 0 0-7.658-.283-8.318 7.549-.26 3.079.895 5.014 2.206 6.206 0 0 .978 1.407 3.668 1.608l.067 1.211-5.134.453zm7.616-13.328c2.551-.07 4.369 2.272 4.369 4.158 0 1.888-1.294 2.377-1.294 2.377s-1.256-1.259-3.075-1.153c-1.804.104-2.813 1.238-2.828 1.255l-.002.003s-.14.314-.768.245c-.15-.017-.364-.078-.56-.317-.261-.319-.49-.956-.49-2.234 0-2.237 2.097-4.264 4.648-4.334z"/></svg>