<svg xmlns="http://www.w3.org/2000/svg" width="100" height="100"><circle fill="#B2B2B2" cx="50" cy="50" r="50"/><path d="M61.19 34.894l.425-.079s-2.177-4.897-2.177-6.171c0-1.273-1.394-4.379-3.105-5.096-1.712-.716-1.989-1.672-2.966-1.971-.975-.298-1.412-.431-1.412-1.068s-.465-.968-.85-.583c0 0-.267-.478.212-.664s.826-.004 1.095-.272l.577-.269c.284-.284.299.249.637-.268.339-.518.657-.199.657-.518 0-.318-.199-1.214-.199-1.214l3.682-2.906s-3.244-3.006-3.244-3.782l.798-.816s-.956-1.672-2.031-2.25-1.036-.617-2.13.22c-1.096.835-3.145 2.607-3.145 2.607s-.498-.577-1.115-.179c-.617.398-.756.438-1.234.299-.479-.14-.717-.478-1.055-.14-.339.339-.976.318-.976.637 0 .318-.557.417-.438.836.12.417-.279.318-.179.716.1.397.14.478.418.756.279.278-.09.389.04.517.129.13-.06.578.159.578s.339.119.339.119.1.916-.538 1.353c-.637.439-1.174 1.095-.835 1.434.338.338.656.537.378.816-.279.279-.199.432-.1.531l.1.099s-.298.192-.127.365c.173.172.398.292.226.664-.172.371-.212.61.478.875s1.26.451 1.726.451c.464 0 .663-.199.875.146.213.345.305.743.16 1.035l-.146.292s-.85.372-1.619.664-2.15.796-2.15 2.256c0 1.459-1.221 3.423-1.008 4.3.211.875.345 2.017-.186 2.919-.531.903-1.062 2.495-1.062 2.495s1.194 1.167 1.938 1.167c0 0-1.248.824-.743 1.992.504 1.168 1.725 2.123 2.708 2.123.981 0 1.034.106 1.034.106s.067.093-.265.425c-.332.331-2.057 1.857-2.057 3.808s.438 2.269 0 3.543c-.437 1.274-.437 2.827-.199 3.702.239.876-.04 2.827-.318 4.14-.279 1.315-.557 5.934-1.115 7.405-.557 1.474-.677 3.266-.677 3.266s.538.299 1.195.955c.657.657 2.986 2.229 4.021 1.831 0 0 .119 3.941.319 6.488.199 2.549.995 7.087.677 8.004 0 0-.797-.021-1.035.655-.239.678-.697 1.893-1.454 2.189-.756.3-2.409.876-2.707 1.752s.12 1.732 1.812 1.871c1.692.141 2.907-.139 3.623-.556.717-.419.996-.479 1.653-.359s2.487-.438 2.288-1.235c-.198-.794-.02-1.173.08-1.65.101-.478.418-2.012.101-2.131-.32-.119-.32.06-.32.06s-.517-3.204-.139-5.114c.377-1.911.703-5.607.703-5.607s.188 4.565.691 6.13c.502 1.567.45 3.691.265 4.486 0 0-.638.026-.876.584l.531.982s-.689.398-.478.61c.212.213.212.398.212.398s-1.061 2.441-1.061 2.998v.85s-.425.69.132.69 2.149.478 3.026.158c.876-.318 1.354-.61 1.354-.98 0-.372.08-.186.292-.664s.079-.77.079-1.354c0-.583 0-.901.213-1.512.212-.61-.134-.851-.134-.851s.346-1.354.16-2.044c-.186-.689.265-2.44.77-3.768.504-1.326.771-4.671.479-6.423s-.372-2.761-.372-3.318v-.822s4.564.12 4.564-.995c0-1.114-1.034-12.992-1.618-16.494-.584-3.505-2.282-9.981-2.282-9.981s1.618-.105 1.485-.796c-.133-.689-.266-2.069-.266-2.069s1.54-.372 1.991-.372 1.115-.054 1.327-1.143c.208-1.086.154-2.147-.562-2.864z"/></svg>