<svg xmlns="http://www.w3.org/2000/svg" width="100" height="100"><circle fill="#B2B2B2" cx="50" cy="50" r="50"/><path d="M90.52 54.007v-2.226h.483v-1.658h-.883l-2.082-13.665h-1.733v13.665h-.023c-.067-.229-.277-.4-.529-.4h-.227l.021-.138v-3.454c0-.306-.248-.553-.554-.553h-50.446000000000005c.576-.259 1.112-.559 1.632-.894-1.981-2.553-4.199-3.492-9.833-4.205-5.634-.711-8.161.101-10.569 1.626 1.289 1.661 2.897 2.734 5.782 3.473h-4.551c-.306 0-.553.247-.553.553v3.454l.02.138h-.227c-.251 0-.462.17-.529.4h-.024v-22.784h-2.792l-1.15 22.784h-.894v1.658h.484v4.16h5.2490000000000006v-2.625h1.866v1.657h2.072l9.38 4.214v1.397c0 .331.183.62.453.771l-4.441 1.949-.511 1.065h-3.36v3.175c-.261-.087-.54-.136-.829-.136-1.45 0-2.626 1.177-2.626 2.626 0 1.45 1.176 2.626 2.626 2.626s2.625-1.176 2.625-2.626l-.007-.139h.007v-3.315h58.17399999999999v.964c-.26-.087-.539-.136-.829-.136-1.449 0-2.626 1.177-2.626 2.626 0 1.45 1.177 2.626 2.626 2.626s2.626-1.176 2.626-2.626l-.008-.139h.008v-5.526h-12.713v-.242l4.542-1.97v-.754c.323-.132.553-.449.553-.82v-1.742h1.124v-3.8689999999999998h6.218v-.551h1.727v1.519h5.251v-1.519h.622v-.416h-.622zm-22.728 9.299l-.513 1.065h-38.042v-.242l4.542-1.97v-.754c.324-.132.554-.449.554-.82v-.55h27.611c.349 1.378 1.598 2.401 3.082 2.401h2.072c1.484 0 2.735-1.023 3.082-2.401h1.601v.55c0 .331.182.62.452.771l-4.441 1.95zm5.639-5.549h-41.989v-1.794h41.989v1.794zm11.838-3.75h-1.727v-.69h1.727v.69z"/></svg>