<svg xmlns="http://www.w3.org/2000/svg" width="100" height="100"><circle fill="#B2B2B2" cx="50" cy="50" r="50"/><path d="M34.536 40.585v1.165c0 .299.25.55.582.618l.214 2.057c-.193.146-.675.546-.675.909s.168.637.571.637c.402 0 .729-.362.729-.81 0-.125-.112-.021-.195.014-.106.775-.866.553-.816.07.036-.361.498-.405.63-.785.171-.488.02-1.337.02-2.106.302-.084.52-.323.52-.603v-1.165c0-.349-.34-.636-.757-.636h-.009l-.546-17.604h-.155l.594 17.605c-.394.022-.707.299-.707.634zM33.702 52.906v.067l-.589.896-.047.073.061 4.164.019-.23v1.488h5.731v-6.458h-.157l-3.087-5.829-.051-.124-.023.007v-1.008h-.178v.935l-.005-.002-1.562 6.021h-.112zm.293 4.97h-.525l-.08-3.642h.605v3.642zm0-3.8h-.609l-.002-.134.556-.903h.055v1.037zm4.323 3.8h-4.244v-3.642h4.244v3.642zm0-3.8h-4.244v-.845l.041-.192h3.928l.084.207.031-.008-.081-.199h.24v1.037zm-4.244-.997v-.04h.008l-.008.04zm4.611-.173h-.663l-2.266-5.529 2.929 5.529zm-3.125-5.927l.001.004h-.001v-.004zm-.156.054h.155v-.029l.045.087 2.384 5.815h-3.845l1.261-5.873zm-.029-.013l-1.265 5.886h-.262l1.527-5.886zM85.639 22.925l-4.856-.214-10.432-6.151-.387.076-.027.007-.006.049-.003.029s-6.305 1.166-10.535 1.809c-3.664.556-13.685 2.027-16.304 2.411l-4.35-.192-8.904-.388-.003.043 8.9.389 4.13.182-.408.06.935-.037 14.646.646.004-.044-14.415-.635c1.188-.165 6.519-.909 8.078-1.157 1.758-.281 6.51-.847 7.101-1.062.59-.214 3.562-.6 4.968-.801 1.407-.201 3.93-.723 5.034-.881l1.106-.159-.019.181-.151 1.539-.056-.003-.004.078.05.024-.02.196-.014.051-.033.12-.019.413-.004-.003-.019.096.017.013v.007l-.368.078.325.84-.007.122h-.018l.013.072-.005.03.005.007-.026.556-.003-.002-.019.095.017.012-.038.791-.35-.015-.437-1.056-.011.293.065.16-.07-.045-.006.172.013-.002v.001l-.014.02-.006.163.135-.185.16.383-.295-.191-.005.091.255.151-.06.033-.163-.008-.035-.084-.003.083-2.352-.103-8.906-.389-.003.043.211.009-.066.005-5.545-.269-.097-.028-.083-.002-.187-.016-.029.022-2.555-.124-6.439-.271-.1-.024-.083-.001-.185-.015-.03.022-2.555-.116-.123-.03-.084-.001-.186-.015-.037.026-.531-.024v.005l-5.17-.236-.1-.023-.084-.001-.186-.014-.029.021-2.555-.116-.124-.029-.084-.001-.185-.014-.036.026-.348-.017-.003.054.28.013-.06.042-.106-.029-.118.015-.102 1.366.047-.014 5.743.312.039.04.188.006.085.008.189-.027 2.169.118c.132.183.458.082.665.006l5.742.313.04.041.188.007.086.009.189-.029 2.168.119c.125.18.732.145 1.024.056l.06-.02.017-.011 5.621.249.039.042.188.007.085.009.189-.029 2.168.125c.128.181.732.147 1.024.06l.238.013.005-.057-.124-.007.016-.011 5.301.287.039.04.188.006.086.009.188-.028 2.169.118c.133.182.458.082.667.006l2.225.121.297.7.061-.069-.013-.029.231-.061.104-.027.05.114-.35-.024-.127 3.327.332.023-.011.255-.039-.001c-.39-.007-.194.625-.02.691l.026.009-.073 1.791-.027.006.021.17-.021.562-.033-.009-.018.099.046.014c-.038 1.026-.072 2.053-.102 3.082l-.024.005.007.098.016-.003c-.018.609-.033 1.219-.046 1.828l-.071.157c-.005.06.021.119.064.172l-.024 1.25c-.158.098-.108.391-.009.568l-.02 1.248-.047.036.01.093-.004.042.037.066-.038 2.567-.034.073.032.084-.049 3.628-.049.026.004.119-.006.054.047.117-.02 1.371c-.228.092-.077.292.035.419l-.052 3.628-.052.026.004.119-.006.054.049.117-.02 1.371c-.226.088-.143.467-.01.647l.027.034.017.012.025 3.549-.051.026.002.118-.008.055.05.118-.028 1.371c-.228.088-.146.467-.014.646l-.003.15h.073l.002-.077.006.004-.041 3.098-.05.028.004.119-.007.053.047.117-.018 1.371c-.229.091-.078.291.033.42l-.05 3.627-.052.027.003.118-.006.054.049.118-.02 1.371c-.226.087-.143.466-.01.646l.032.041.011.008.025 3.549-.051.026.002.119-.006.053.049.118-.027 1.37c-.228.088-.147.468-.016.646l-.003.151h.074l.001-.077.031.017.198.061h.714l.397-.071v.071h.072l.001-.085.502-.093v.178h.073v-.191l.024-.005-.024-.09.007-3.502.025-.063-.004-.053.007-.118-.028-.017.002-1.615-.045-4.063.024-.064-.004-.052.008-.117-.029-.019-.007-1.613.029-.078-.003-.054.007-.116-.035-.021-.002-.335h-.007l-.013-3.266.024-.064-.004-.052.007-.118-.028-.017-.007-1.615.011-.032.009-.002.074-.013.009-.003.042 5.182.09 12.188h.055l-.077-12.187-.048-5.622.063-11.554-.079-9.788.048-.009-.051-.196-.081-7.385.071-.01-.073-.189-.023-2.109.186-.035-.118-.456-.073-.009-.003-.251.213.015.026-.715.387 21.136-.013 5.93-.041 5.626.129 5.62.058 5.929.14 6.259h.056l-.139-6.259-.059-5.929-.129-5.62.041-5.626.032-5.93-.43-21.966.068-1.781-.118-.009-.016-.614 1.241.068.04.042.187.006.086.009.189-.029 2.169.118c.126.181.731.146 1.024.057l.06-.02.016-.01 5.622.248.038.041.19.008.083.008.19-.029 2.169.125c.124.182.729.148 1.023.061l.237.013.004-.057-.122-.007.028-.023.107-.147.042-.55-.091-.312.113.006.004-.056-.135-.007-.116-.394.279.014.004-.056-.302-.015-.005-.019-.146.012-4.123-.2-.188-.111 4.773.211.007-.043zm-49.316-2.095l-.468.334-.172-.008-1.847-.439 2.487.113zm-2.948-.134l.173.008 1.84.437-2.459-.125.446-.32zm-.292-.013l-.442.317-1.758-.417 2.2.1zm-2.69-.123l.203.01 1.756.417-2.109-.107-.066-.164.216-.156zm1.67.466l-.944.328-.537-.403 1.481.075zm-1.686-.086l-.12.042-.006-.047.126.005zm-.141.345l.025-.223.191-.067.537.404-.219.077.179.019.115-.04.084.063h.19l-.146-.108.972-.337.604.454-.157.068-.864-.043-.007-.008-.22-.013.009.01-1.353-.066.06-.19zm-.371.592c.083-.054.16-.135.223-.234l.463-.061-.195-.026-.236.03.031-.058 1.431.07.362.392-2.079-.113zm2.411.131l2.145-.27-.498-.024-1.784.261-.338-.365 2.122.104h.002l.498.024h-.002l.613.03.414.413-3.172-.173zm.695-.473l.827-.361.694.339-.431.149.059.006-1.306-.064.037-.016.008.007h.19l-.078-.06zm1.735-.017l.75-.259.677.508-.871-.043-.006-.006-.285-.01.003.003-.718-.036.332-.115.221.142.253.008-.356-.192zm1.263.691l-.233-.013-.415-.415 2.651.131-2.003.297zm2.184.087v.033l-1.872-.103 1.927-.284-.055.354zm.069-.425l-1.713-.085 1.109-.384.608.457-.004.012zm.108-.446l-.076.312-.512-.384.069-.035-.229-.012-1.256.462-.745-.559h-.065l-.119-.013-.788.275-.717-.351-.128.002-.066-.004-.81.354-.58-.435 3.596.183.165.012.005-.004 2.27.115-.014.082zm.025-.133l-2.21-.112.468-.335 1.75.416-.008.031zm.02-.085l-1.479-.351 1.543.071-.064.28zm7.03.034l-.468.347-.17-.009-1.847-.451 2.485.113zm-2.945-.134l.172.008 1.839.449-2.459-.125.448-.332zm-.293-.013l-.444.33-1.758-.43 2.202.1zm-2.691-.123l.202.01 1.756.429-2.11-.107-.065-.171.217-.161zm1.669.48l-.945.341-.536-.417 1.481.076zm-1.685-.086l-.121.044-.006-.05.127.006zm-.143.358l.026-.231.193-.07.536.418-.31.104.172.009.211-.055.085.066h.19l-.145-.114.971-.351.603.469-.156.071-.864-.042-.007-.007-.221-.014.009.011-1.354-.067.061-.197zm-.605-.622l.012-.164.459.021-.058.043-.106-.029c-.103-.006-.211.043-.307.129zm.233 1.236c.082-.055.159-.139.223-.243l.598-.093-.263-.013-.302.048.031-.061.271.013.263.013h-.001l.896.044.36.406-2.076-.114zm2.409.132l1.823-.249-.196-.027-1.763.241-.336-.379 3.232.159.412.428-3.172-.173zm.697-.491l.829-.376.693.35-.43.155.059.007-1.306-.065.037-.016.01.007h.189l-.081-.062zm1.737-.02l.752-.271.675.526-.871-.043-.007-.007-.283-.01.003.003-.718-.035.331-.121.212.106.193-.003-.287-.145zm1.26.713l-.233-.012-.414-.43 2.651.132-2.004.31zm2.185.088v.032l-1.873-.103 1.928-.298-.055.369zm.071-.443l-1.712-.085 1.109-.4.607.472-.004.013zm.108-.462l-.075.325-.512-.398h-.065l-.119-.012-1.234.446-.743-.579h-.064l-.119-.012-.789.285-.716-.361-.128.002-.066-.005-.812.369-.578-.45 3.595.183.164.013.005-.004 2.27.116-.014.082zm.026-.138l-2.212-.113.469-.348 1.749.427-.006.034zm.02-.088l-1.479-.362 1.554.099-.075.263zm7.34.036l-.468.347-.171-.01-1.847-.457 2.486.12zm-2.947-.143l.175.008 1.838.455-2.459-.132.446-.331zm-.291-.014l-.443.328-1.759-.435 2.202.107zm-2.691-.131l.203.009 1.755.436-2.109-.114-.066-.169.217-.162zm1.669.485l-.944.339-.537-.418 1.481.079zm-1.684-.09l-.12.043-.008-.05.128.007zm-.145.356l.027-.23.193-.069.535.419-.294.104.095.005.158-.01.114-.041.084.066h.191l-.145-.113.972-.349.603.472-.156.069-.865-.044-.007-.009-.221-.013.009.01-.737-.039-.134.009.039-.014-.521-.027.06-.196zm-.357-.749l-.002-.003.024.001-.022.002zm.196.006l-.03.022-.083-.028.113.006zm-.105 1.438l.092-.136.012-.165.014-.022.62-.089h-.351l-.236.031.031-.06 1.432.075.42.472-2.034-.106zm2.235.106l2.026-.335-.406-.021-1.687.274-.336-.38 2.023.106.135-.022.271.043.802.042.41.428-3.238-.135zm2.502-.553l.752-.269.674.529-.87-.045-.007-.008-.283-.011.002.003-.718-.038.333-.119.211.108.194-.003-.288-.147zm-.646.148l.059.006-1.069-.077-.078-.062.828-.374.691.352-.431.155zm1.906.571l-.233-.014-.413-.43 2.65.138-2.004.306zm2.184.094v.032l-1.871-.108 1.928-.293-.057.369zm.07-.442l-1.711-.091 1.108-.397.606.474-.003.014zm.109-.463l-.075.325-.513-.399h-.065l-.118-.013-1.233.442-.743-.582h-.066l-.119-.013-.788.283-.716-.363-.129.002-.065-.005-.812.366-.578-.451 3.596.194.163.012.006-.003 2.27.123-.015.082zm.025-.138l-2.208-.12.467-.346 1.75.434-.009.032zm.097-.35l-.076.263-1.478-.366 1.766.085-.212.018zm20.411-.982l3.087 1.881-.255-.011-2.899-1.775.067-.095zm-6.618-3.712l9.255 5.574-9.078-.4-.056-2.007.144-.054-.155-.346v-.013h-.004l-.154-.344-.038-.002-.003-.61h.003l-.003-.02v-.009l-.005-.06.028-.011-.038-.095-.001-.019h-.006l-.018-.045c-.017-.216-.083-.794-.144-1.289l.273-.25zm0 37.364v.073l-.031-.019.031-.054zm-.006-.052h.006v.015l-.006-.015zm-.034-.517l-.346-.034.378-.947-.032.981zm.021 17.745l.001.072-.031-.018.03-.054zm-.005-.053h.005v.015l-.005-.015zm-.033-.516l-.345-.034.375-.948-.03.982zm-.473-12.726l-.019 1.434-.106-.005-.427-.033.487-.341-.004-.04.009-.075-.649-.756.707-.495-.004-.04.01-.075-.417-.484.428-.468-.011-.079.002-.042-.522-.494.548-.384-.028 2.271-.008.104.004.002zm-.679 13.963l.06.068-.081.058.011.119.138-.096.513.596-.573.401-.102-.096.006-.546.009-.005.005-.139-.013.006.004-.47-.019-.08.02.022.003-.327.259.028.301.004.101.118-.511.356-.152-.18-.001.058.022.105zm-.046 2.541l-.004.002.006-.452.173.202-.125.139.016.121.172-.188.395.46-.642.45.005-.551.009-.003-.005-.18zm.233-.312l-.228-.264-.004.037.033-.676.075-.055.536.505-.412.453zm.443-5.055l-.007.104.007.004-.011 1.434-.105-.005-.427-.032.483-.342-.004-.04.009-.075-.654-.756.702-.495-.003-.041.01-.074-.419-.483.424-.469-.012-.08.003-.041-.528-.493.547-.385-.015 2.269zm-.75 2.455l-.055-.148.08.018-.009.903-.585.288.008-1.285.184.051h.215l.028.01.155.384-.021-.221zm.016-17.174l-.056-.148.081.018-.003.346.001.006-.001-.002-.004.553-.587.288.01-1.284.183.051h.214l.03.007.154.386v-.004l-.022-.217zm-.11-6.078l.082.016-.003.904-.504.246.019-1.313c.077.049.19.093.329.128l.157.372v-.166l-.08-.187zm.101-6.255l-.261.033-.172-.465.435-.22-.002.652zm.023-4.811l-.308-.22.312-.069-.004.289zm-.049 24.907l-.001.205-.002.493-.508.279.027-2.003.481 1.339.001-.108v-.207l-.448-1.111.453-.229-.005 1.341.002.001zm-.004.88l-.005 1.676-.508-1.247.001-.148.512-.281zm-.476-2.116l.011-.815.148.044h.328l-.002.526-.485.245zm.47-1.569l-.482-.019-.041.003.025-1.184.498 1.2zm-.494-1.398l.002-.146.534-.28-.018 1.676-.518-1.25zm-.014 5.708l.487 1.199-.465-.017-.04.001.018-1.183zm.019 1.683c.077.049.19.093.328.128l.157.372.001-.101v-.066l-.08-.187.081.016-.001.171.001.001-.001.065-.002.667-.504.246.02-1.312zm.537-8.506l-.005.507-.531.279-.024-2.045.56 1.259.002-.256-.459-1.049.472-.23-.013 1.279.037.084-.039.172zm.035-5.464l-.002.002.001-.453.175.203-.125.138.018.12.17-.188.398.46-.641.451.003-.551.008-.004-.005-.178zm.005-2.176l.001-.427.085.13-.081.057.012.12.138-.097.516.596-.571.4-.101-.094.001-.545.009-.006.004-.14-.013.006zm.014-3.503l-.003-.056-.003.001v-.092l.003.091h.001l.002.056.226-.233.385.459-.618.45.002-.549.009-.005-.004-.122zm.003-2.232l.002-.854.249.029.289.005.099.118-.489.357-.112-.135-.014.114.059.07-.078.056.011.121.133-.098.498.596-.551.401-.099-.095.002-.546.011-.005.003-.14-.013.006zm.007-2.23l.008-1.812.707.683-.002.43-.004-.002-.005.062-.642-.772-.014.114.621.745-.551.401-.104-.102-.007.123.035.034-.007.006.01.12.072-.053.52.503-.309.356-.062-.005-.112-.006-.131-.156-.012.114.034.041h-.049l.004-.687.026-.014.004-.139-.03.016zm-.201-18.283l.051.031-.028.013-.071-.003-.016-.035-.036-.088.076-.104.203.159-.041.019-.169-.111.031.119zm.108-.613l-.129-.312.259.012-.011.211-.119.089zm.039.413l-.104-.08.045-.06.059.14zm-.306-.239l-.122-.093.222.012.023.015-.123.066zm.17.049l-.039.054-.052-.039.091-.015zm-.323-.2l-.006-.016.08.02-.074-.004zm-.032-.079l-.013-.028.074.042-.061-.014zm-.029.635l.025.059-.034-.001.009-.058zm-.006-.718l.005.011-.005-.011zm-.04-.097l-.041-.097.106.006-.065.091zm.018.747l-.011-.016.005-.001.006.017zm.008.182l.071.003.035.084-.148.157.042-.244zm.141.17l.05.118-.183.047.133-.165zm.022.212l.064-.009.001.005-.004.024-.114-.006.053-.014zm.029-.785l.104.081-.044.062-.06-.143zm.353-.187l.064.004-.007.139-.057-.143zm.065 1.504l.039-.01-.029-.054.042-.124-.038-.093.002-.053.237.141-.003.058-.07.038-.082.088.149-.023-.004.13-.053.07-.198-.013.008-.155zm.164-1.012l.118-.053.001.001-.005.137-.108-.006-.008-.017h.081l-.079-.062zm.615 4.56l-.001.247h-.018l-.566-.045.01-.242.575.04zm-.48-5.089l-.177-.009.166-.122.016.015-.005.116zm.095 1.585l.114-.154-.109-.071-.072-.048.002-.084.019-.101.094.004.362.251-.003.264-.315.084-.174-.01.001-.022.081-.113zm-.076-.049l.001-.037.029-.004-.03.041zm.801 5.978l-.037-.032.025.001-.022-.111-.251-.009.002-.354.283.289v.216zm.004.694l.001.279-.233-.239.232-.04zm-.221-.732l-.056.015-.012.004v-.022l.068.003zm.222 1.118l.005 1.018-.31-.014.01-1.307.295.303zm.005 1.124l.003 1.002-.318-.34.006-.675.309.013zm.183-9.054l-.112-.005-.004-.403.18.091.007.266-.127.047.056.004zm-.671 40.417l-.007.952.001.001-.001.145-.001-.001-.002.337-.103-.005-.411-.032.467-.342.049.042.001-.145-.676-.769.678-.495-.004-.04.008-.075-.403-.484.41-.467-.012-.08.002-.042-.508-.494.526-.384-.015 2.271-.005.104.006.003zm-.612 2.593l-.081.057.012.12.138-.098.515.596-.569.401-.102-.096.001-.545.011-.005.002-.141-.013.007.002-.427-.001-.001.001-.073.002-.354.258.029.3.004.103.118-.508.356-.153-.189-.001.035v.074l.083.132zm-.063 1.257l.076-.054.538.505-.412.452-.228-.264-.004.037.003-.825.022.023-.008.007.013.119zm-.01-4.465l-.002-.056-.002.002v-.095l.002.093.002.056.227-.231.383.46-.617.449.001-.55.01-.004-.004-.124zm.025-1.269l.072-.054.52.504-.395.452-.22-.264-.005.037.002-.824.023.022-.009.006.012.121zm.141.966l-.17.145.001-.348.169.203zm-.179 2.301l.005-1.082.567.679-.555.404-.017-.001zm.165-4.574l-.112-.135-.012.113.059.071-.078.056.011.119.133-.096.497.596-.551.4-.099-.095.003-.547.009-.004.004-.142-.012.008.001-.49h.314l.041-.007-.208.153zm.439-.193l.115-.021-.006.871-.483-.577.374-.273zm-.579-.742l.012-1.083.583.68-.577.404-.018-.001zm.024-2.053l-.003.001.005-.453.173.203-.125.138.017.122.171-.188.396.459-.643.451.006-.551.009-.005-.006-.177zm.235-.313l-.228-.263-.005.037.034-.677.074-.054.535.506-.41.451zm-.223-1.178l.005-.547.009-.004.005-.141-.013.007.004-.467-.02-.082.021.023.003-.33.259.028.299.006.103.118-.511.356-.152-.179-.001.059.024.1.06.069-.081.058.011.119.139-.098.512.597-.573.402-.103-.094zm.601-2.754l.009-.075-.655-.756.702-.496-.003-.04.008-.075-.417-.482.424-.47-.012-.079.001-.042-.525-.493.547-.386-.017 2.273-.006.104.006.003-.009 1.435-.108-.005-.426-.033.485-.341-.004-.042zm-.63-6.567l.679-.495-.004-.041.009-.075-.403-.483.407-.468-.009-.081.001-.041-.508-.495.527-.384-.015 2.271-.006.104.005.003-.006.956v.143l-.001-.001-.002.336-.104-.004-.41-.033.467-.341.049.042.001-.142v-.002l-.677-.769zm.204-5.339l.515-.377-.007.936-.002-.024.001-.041-.507-.494zm.508.624l-.002.351-.261-.048.263-.303zm-.006.853v.08l-.062-.073.062-.007zm-.001.209l-.005.935-.483-.579.488-.356zm.013 5.526l-.001.08-.063-.073.064-.007zm-.003.208l-.005.937-.5-.579.505-.358zm-.454 6.288l.509-.356-.011.935-.498-.579zm.448-.56l.064-.007-.001.081-.063-.074zm.015-14.308l-.594-.573.598.053-.004.52zm.008-1.367l-.416-.251.119-.019.299-.056-.002.326zm.023 7.541v-.107l.454-1.184.008 1.569-.462-.278zm.46.462l-.429 1.121-.042-.003.01-1.396.461.278zm-1.07-12.162l.613.028-.004.622-.609-.65zm1.062 10.227l-.451 1.178.011-1.553.44.266v.109zm-.43-2.074l.209-.048.213.129.001.128-.432 1.124.009-1.333zm-.006-9.912l-.592-.632.595.028-.003.604zm.105 9.47l.318-.831.005 1.169-.059-.035.03-.068c.005-.085-.11-.17-.294-.235zm.325.832l.005 1.39-.437-.263.432-1.127zm.004-15.273l-.001-.219.016.001.003.235-.018-.017zm.015-5.181l-.001-.052.176.009.004.134-.179-.091zm-.001-.109l-.004-.27.172.042.007.237-.175-.009zm-.004-.327l-.001-.031.169.007.002.065-.17-.041zm-.001-.089l-.001-.094.166.006.002.095-.167-.007zm-.001-.138l-.021-1.928.131-.049.054 1.983-.164-.006zm-.02 19.108v.167l-.38.989-.033-.01.008-1.39.405.244zm-.396-12.363l-.003.434-.345-.188-.257-.263v-.003l.605.02zm-.602-.131l.002-.054.328-.034.273-.052v.161l-.603-.021zm.598.683v.046l-.098-.101.098.055zm-.563-.426l-.041-.022v-.019l.041.041zm.245.251l.304.312-.613.211.02-.681.289.158zm.317.417l-.003.332-.628-.022.002-.093.629-.217zm-.001 11.143l.002-.405.398.384.001.263-.401-.242zm.003-.513l.004-.583.39.035.004.931-.398-.383zm.004-.691l.002-.298.385-.017.002.348-.389-.033zm.003-.399v-.191l.294.178-.294.013zm.002-.303l.002-.382.375-.071.003.685-.38-.232zm.006-1.034l.006-.865.358-.08.003.975-.367-.03zm.006-.956v-.066c.179-.049.309-.131.357-.233l.001.22-.358.079zm.053-.739l.023-.006-.007-.039.017-.069-.08-.056.002-.467.286.304.023-.086-.309-.331.006-.693.335.015.006 1.681c-.043-.095-.152-.184-.302-.253zm-.039-12.262l-.194-.134.195.011-.001.123zm.332 10.727l-.331-.015.009-1.497.305.324.014-.058.007 1.264-.004-.018zm-.33-11.165v.114l-.092-.102.092-.012zm-.134-.035l-.106-.117.241.011-.001.088-.134.018zm-.021-1.335l-.261-.013.003-.116.269.124-.011.005zm.149.06l.014.006v.08l-.064-.003-.1-.024-.03-.001.18-.058zm-.269-.022l-.145.045.002-.052.143.007zm.041.153l.173.007.068.018-.002.342-.154-.008-.278-.179.001-.037.192-.143zm.239.423v.034l-.059-.037.059.003zm.005-.667l-.041.012-.374-.271.009-.259.407.296-.001.222zm-.43-1.944l-.03.012-.12-.588.167.126-.017.45zm-.014.391v.017h-.043l.043-.017zm0 2.09l.056.055-.058-.003.002-.052zm.115.114l.074.072h-.194l.002-.079.118.007zm.074.182l-.201.091.003-.091h.198zm.145.035l.104.102-.003.255-.295-.015-.156-.173v-.009l.35-.16zm-.295.337l-.062-.003.002-.063.06.066zm.054.06l.121.135-.244.034.006-.174.117.005zm.164.182l.176.195v.037l-.287-.016-.18-.124.002-.053.289-.039zm-.356-.094l-.049-.032h-.001l-.029-.069.083.003-.004.098zm.013-.396h-.002l-.112-.124h.119l-.005.124zm-.098.6l.039.091-.101-.006.062-.085zm.062.15l.01.022-.005.124-.193-.125.022-.03.166.009zm-.116 6.329l.629.021v.046l-.472.116-.158-.163.001-.02zm.072.201l-.08.016.003-.094.077.078zm.553.62l-.005.564-.652-.193.006-.224c.175-.051.423-.103.651-.147zm-.064.65l-.607.364.012-.541.595.177zm.058.073l-.004.6-.669-.03.004-.169.669-.401zm-.009 1.422l-.006.967-.686-.486.024-1.193.668.712zm-.074 1.033l-.628.128.01-.567.618.439zm.068.085l-.003.451-.699-.032.005-.276.697-.143zm-.009 1.292l-.003.494-.702-.489.011-.747.694.742zm-.004.614v.008l-.076.019c-.107-.03-.225-.05-.352-.059l-.28.002.006-.459.702.489zm-.459.814c.165.013.32.002.454-.027v.065l-.712.157.002-.23.256.035zm.453.128l-.005.845h-.027l-.246-.017-.437-.312.004-.357.711-.159zm-.528.805l-.188-.013v-.122l.188.135zm-.061.8l.576.348-.001.237-.711.03.003-.614.133-.001zm.574.686l-.001.289-.712-.062.001-.196.712-.031zm-.707 5.221l-.009.005.011.12.072-.053.519.503-.396.453-.219-.265-.004.038.002-.824.024.023zm.143 1.092l-.172.145.002-.348.17.203zm.391 1.899l-.553.404-.017-.001.004-1.082.566.679zm-.569 1.055l.259.028.299.006.103.118-.507.357-.154-.19v-.319zm.019 1.688l-.009.007.012.12.075-.053.538.504-.41.452-.228-.265-.005.037.002-.824.025.022zm.555 2.993l-.575.404-.017-.001.004-1.084.588.681zm-.601 15.708l.008-.005-.003-.179-.004.002.001-.453.176.202-.126.139.018.123.17-.188.398.459-.64.45.002-.55zm.231-2.625l.508-.357-.008.936-.5-.579zm.445-.561l.064-.004-.001.078-.063-.074zm.099-2.02l.463.277-.43 1.121-.041-.003.008-1.395zm.013 5.735l.479.278-.446 1.12-.044-.002.011-1.396zm.001-.182v-.109l.471-1.184.007 1.569-.478-.276zm.002-.296l.011-1.554.457.267.001.108-.469 1.179zm.013-1.736l.449-1.126.006 1.391-.455-.265zm.448-1.307l-.448 1.124.009-1.333.216-.049.224.13v.128zm-.063-.347l.031-.068c.002-.066-.066-.131-.186-.187h.214l.002.29-.061-.035zm.055-.435l-.367-.028.363-.946.005 1.115-.001-.141zm-.468-1.615v-.107l.456-1.185.006 1.57-.462-.278zm.455-1.473l-.454 1.177.012-1.553.442.267v.109zm-.44-.557l.432-1.127.007 1.391-.439-.264zm.431-1.309l-.431 1.126.006-.982h.015v-.084l.41-.077v.017zm-.403-.592l.019-1.396.477.277-.452 1.12-.044-.001zm-.023-5.93l.01-1.396.479.277-.446 1.121-.043-.002zm.01-1.58l.001-.107.471-1.184.007 1.568-.479-.277zm.471-1.472l-.469 1.177.01-1.553.459.268v.108zm-.457-.558l.449-1.126.007 1.39-.456-.264zm.448-1.307l-.448 1.123.009-1.333.217-.048.223.129v.129zm-.06-.348l.03-.069c.003-.065-.066-.131-.185-.187h.212l.001.29-.058-.034zm.053-.435l-.365-.027.362-.947.005 1.115-.002-.141zm-.006-17.631l-.001-.379.012.014.017-.09-.028-.028-.007-1.377.02-.004.022 1.985-.035-.121zm.01-6.965l.088-.012-.088-.012v-.042l.187.009.011.402-.193-.012-.005-.333zm-.09 4.476l-.149-.159.147.011.002.148zm-.046-5.071l.023.012.001.093-.074-.048h.061l-.011-.057zm-.019-.566l-.139-.101.179.008v.095l-.04-.002zm.04.059v.011l-.054-.014.054.003zm-.136-.201l.136-.044v.05l-.136-.006zm-.042-3.353l.01-.003h.153l.004.608-.172.004.005-.609zm-.009 1.536l.179-.067.002.293-.003-.014h-.181l.003-.212zm-.003.323l.184-.001.004.989-.192-.214.004-.774zm-.005.88l.192.215.002.196-.197-.143.003-.268zm-.004.377l.143.103-.144.045.001-.148zm-.001.322l.12.056-.121-.005.001-.051zm-.001.134l.202.05.001.29-.206-.01.003-.33zm-.003.386l.206.01v.004l-.001-.001-.129.002-.063-.004-.013.005v-.016zm-.002.368l.201.199-.202-.01.001-.189zm-.001.247l.211.01v.034l-.213.029.002-.073zm-.002.127l.213-.03.002.312-.15-.007-.065-.073v-.202zm.216.34v.104l-.098-.109.098.005zm-.217-.012h.02l.191.215.006-.037.002.142-.22-.152.001-.168zm-.002.276l.205.142-.206.056.001-.198zm-.003.307l.224-.06.001.096-.225-.016v-.02zm-.02 3.355h.004l.248.265-.254-.021.002-.244zm-.007.859l.27-.051.001.236-.271-.009v-.176zm.271.295l.005.945-.209-.214.139-.048-.005-.035.021-.066-.226-.124.003-.469.272.011zm-.277.648v-.07l.081.043-.081.027zm-.32-10.998l.08-.025-.078-.005.065-.782s.142-.145.203.014c.042.104.05.513.051.791h-.001v.125l-.331.001.011-.119zm-.015.228l.334-.001-.004.62-.021.012-.318-.354.009-.277zm-.011.379l.298.333.042.252-.001.146-.354-.27.015-.461zm-.02.569l.314.239-.327.13.013-.369zm-.024.761l.38-.143-.002.185-.382.002.004-.044zm-.007.152h.385l-.005.696-.389-.432.009-.264zm.379.802l-.001.295-.406-.293.016-.438.391.436zm-.394-2.477l-.001.014-.01-.011.011-.003zm-.173-.072l.168.188-.016.486-.178-.136.026-.538zm.116 1.748l-.007.187-.168-.187h.175zm-.202.075l.193.213-.017.465-.202-.146.026-.532zm-.03.637l.204.147-.011.259-.206-.149.013-.257zm-.024.509l.211.098-.005.146-.218-.009.012-.235zm-.014.278l.219.009-.002.079-.044.014-.177-.007.004-.095zm-.006.15l.025.001-.026.009.001-.01zm-.007.12l.069-.022.001.002-.071.052.001-.032zm-.013.287l.226.012-.003.082h-.227l.004-.094zm-.005.11l.011.057-.006.031.145.162-.11.05-.048-.118.008-.182zm-.027.546l.047.028.003.006.007.017-.029.017-.029-.021.001-.047zm-.007.179l.034-.005.014.01-.048.007v-.012zm.07.055l-.079.109.005-.099.074-.01zm-.076-1.45l-.004.093-.284-.012-.04-.096.328.015zm-.432.053l.008.022-.024-.001.016-.021zm.031.079l.142.343-.038-.009-.298-.194.106-.145.088.005zm-.116-.119l-.04.056-.17-.008-.006-.013.216-.035zm-.175-.044l-.051.056-.024-.059.075.003zm-.101.642l.024.055-.087.092-.006.146.127-.155.049.117-.176.045-.003.088.19-.049-.02.134-.394-.02-.006-.008-.221-.013.009.01-.677-.034h-.001l-.127-.006-.549-.027.061-.196.025-.231.193-.069.534.417-.308.104.043.002.128.006.211-.055.085.066h.19l-.145-.114.851-.305zm-.049-.222l-.002.064v.005l-1.747-.088-.064-.17.217-.162.203.01 1.393.341zm-1.108-.328l1.118.051-.01.221-1.108-.272zm-.506.372l-.119.043-.006-.05.125.007zm.741.428l-.536-.417 1.419.072.009.022-.892.323zm-10.029-1.297l-.026-.001-.004-.014.049.002-.019.013zm-.046-.072l-.003-.009 8.61.376 2.357.104-.003.093-1.403-.064-.122-.03-.085-.001-.185-.015-.036.027-.531-.024v.005l-5.171-.236-.1-.024-.084-.001-.186-.015-.027.021-2.556-.116-.124-.03h-.054l.004-.046-.301-.015zm3.251.272l.174.007 1.839.437-2.458-.125.445-.319zm-.734.303l-1.76-.417 2.201.1-.441.317zm1.196-.282l2.484.114-.466.333-.171-.009-1.847-.438zm-3.446-.157l.204.009 1.755.417-1.959-.099.002-.006-.135-.007-.055-.18.188-.134zm1.138.979l-1.182-.058.018-.238-.056-.198.143-.05.538.404-.221.075.179.019.115-.04.085.064h.191l-.147-.109.973-.337.603.454-.156.069-.863-.042-.008-.008-.222-.014.01.009zm-1.241-.568l-.011-.036.101.005-.09.031zm.294-.02l1.48.074-.942.329-.538-.403zm-.33.946l.073-.104.014-.184.213-.028-.194-.025-.016.002.002-.021 1.239.061.361.393-1.692-.094zm2.022.11l2.146-.27-.497-.024-1.786.261-.337-.366 2.122.105h.002l.498.024h-.003l.614.03.412.413-3.171-.173zm.696-.472l.826-.361.694.338-.431.149.061.006-1.308-.064.038-.017.009.007.189.001-.078-.059zm2.004.174l-.153-.007.151.005.09.003-.357-.191.751-.26.678.509-.871-.043-.007-.007-.193-.007-.09-.003.001.001zm-.165-.008l-.553-.027.332-.115.221.142zm1.158.508l-.232-.013-.416-.415 2.653.131-2.005.297zm2.186.088v.032l-1.872-.103 1.926-.285-.054.356zm.069-.427l-1.714-.085 1.108-.384.607.456-.001.013zm.108-.446l-.076.313-.513-.384.068-.035-.228-.012-1.257.462-.745-.559h-.063l-.118-.013-.789.274-.718-.35-.128.002-.064-.003-.812.354-.578-.435 3.594.183.165.012.005-.003 1.509.077h.001l.229.011-.002.001.533.027-.013.078zm.024-.133l-2.21-.112.468-.334 1.749.415-.007.031zm.086-.364l-.066.281-1.479-.351 1.767.08-.222-.01zm.271.174l.012-.165.461.021-.061.043-.105-.029c-.102-.006-.21.042-.307.13zm.232 1.237c.084-.055.16-.141.224-.243l.597-.093-.193-.01-.066-.003-.303.047.03-.061.339.017.196.009h-.003l.899.044.359.406-2.079-.113zm2.103-.097l-.008-.019v.01l-.157-.176.331.017-.046.306-.12-.138zm.402.605l-.038.264-.244-.582.035-.01.293.016-.046.312zm.109-.271l.077.183-.137.143.06-.326zm-.008.414l.12-.147.045.104-.165.043zm.096-.895l.207.01.005.003-.009.181-.056.059.054-.008v.01l-.091.013-.11-.268zm.132.317l.065-.008-.003.093-.029-.001-.033-.084zm-.051 4.06l.291.021-.008.242-.295-.012.012-.251zm-.042.974c.076.024.174.047.302.052l-.001.054-.058-.001.016.073-.004.03.042.043-.002.052-.296-.162-.007.02.008-.161zm-.012.253l.304.166-.021.746-.325.112.042-1.024zm-.045 1.135l.326-.112-.004.065-.075-.003.017.073-.005.031.06.062-.005.183-.329.065.015-.364zm-.037.886c.044.17.105.304.187.239l.145-.067-.005.178-.335-.099.008-.251zm-.011.353l.335.1-.015.607-.354.213.034-.92zm-.038 1.029l.356-.213-.029 1.406-.294-.208-.035.088.327.233-.012.635-.376.076c.019-.673.039-1.345.063-2.017zm-.068 2.116l.38-.076-.017 1.087-.372-.261-.011.044.02-.794zm-.02.864l.383.267-.006.519c-.163.022-.301.068-.398.131l.021-.917zm-.032 1.381c.096.078.236.144.402.188l-.002.265-.411.09.011-.543zm-.013.694l.409.293-.002.169-.352-.012-.063.005.008-.455zm-.021 1.149l.055.037c.086.032.199.075.368.09l-.003.621-.432.019.012-.767zm-.014.87l.297-.013-.3.234.003-.221zm-.007.373l.439-.342-.004-.049h.006l-.006 1.347-.437-.812.002-.144zm-.003.278l.438.816-.003.673-.461.233.026-1.722zm-.029 1.95l.139.376-.145.053.006-.429zm-.011.701c.075.05.186.094.318.129l.106.29.021-.125-.054-.146.077.016-.002.904-.484.246.018-1.314zm-.02 1.523l.481 1.339.001-.314-.448-1.113.452-.229-.005 2.041-.51.279.029-2.003zm-.031 2.187l.512-.281-.005 1.676-.509-1.247.002-.148zm-.005.344l.488 1.199-.465-.018-.04.001.017-1.182zm-.002 3.203l.437 1.135.021-.124-.421-1.097.47-.231-.007 2.042-.527.278.027-2.003zm-.03 2.187l.529-.279-.005 1.675-.527-1.248.003-.148zm-.023 1.528l.016-1.183.507 1.197-.481-.016-.042.002zm.036 13.462l.437 1.135.023-.125-.423-1.098.47-.229-.007 2.041-.527.278.027-2.002zm-.032 2.187l.53-.281-.006 1.676-.526-1.247.002-.148zm-.021 1.527l.018-1.184.505 1.2-.481-.019-.042.003zm.065 5.929l-.042.001.025-1.183.497 1.198-.48-.016zm.506-.132l-.52-1.247.004-.148.532-.28-.016 1.675zm.024-2.366l-.005.509-.531.279-.025-2.045.561 1.26v-.003l.002-.255-.459-1.048.471-.229-.012 1.277.037.084-.039.171zm.024-3.408l.004-1.083.587.68-.573.404-.018-.001zm.023 5.929l.013-1.082.582.681-.576.402-.019-.001zm.734-1.49l-.006.104.004.005-.019 1.433-.106-.004-.427-.033.486-.34-.003-.042.009-.074-.649-.757.707-.495-.004-.04.009-.075-.414-.483.427-.468-.012-.08.002-.041-.523-.494.548-.385-.029 2.269zm.032-2.427l-.499-.577.511-.357-.012.934zm.013-1.064l-.063-.072.064-.006-.001.078zm.009 5.037l.017-1.396.479.277-.453 1.121-.043-.002zm.494.177l-.036-.133-.345-.036.384-.946-.003 1.115zm.003-1.478l-.479-.277.003-.109.479-1.184-.003 1.57zm.003-1.751l-.477 1.177.021-1.553.456.267v.109zm0-.294l-.452-.265.454-1.125-.002 1.39zm.003-1.699v.127l-.455 1.126.018-1.334.215-.049.222.13zm.007-11.953l-.034-.135-.346-.034.383-.948-.003 1.117zm.004-1.478l-.478-.28.001-.106.479-1.184-.002 1.57zm.003-1.752l-.477 1.178.02-1.553.457.267v.108zm0-.293l-.452-.265.455-1.125-.003 1.39zm.003-1.572l-.454 1.125.018-1.333.216-.049.223.13-.003.127zm.132-6.534l-.036 11.556h-.027l-.004.346.006-3.501.025-.063-.004-.055.008-.116-.029-.018.003-1.614-.046-4.064.025-.063-.004-.053.007-.116-.03-.019-.007-1.613.031-.079-.004-.054.008-.116-.036-.021-.001-.335h-.007l-.014-3.265.024-.064-.004-.052.007-.118-.029-.017-.008-1.614.031-.079-.003-.055.008-.117-.036-.021-.005-1.393.042-.108-.004-.054.007-.117-.046-.028-.001-.237.003.004.026-.086-.03-.029-.005-.993.053.004-.02-.109-.033-.004-.001-.356h.009l-.006-.035.029-.056-.032-.02-.005-.741.086-.017.079 9.775zm-.084-10.208l-.019-.07-.064-.008-.004-1.051.018-.042-.019.004-.025-5.986.036-.005.077 7.158zm-.094-13.567l-.008-.608.194.01.018.613-.204-.015zm.2-2.086l2.105.097-.469.346-.17-.008-1.465-.359-.001-.076zm.004.134l1.167.285-1.161-.059-.006-.226zm.016.543l.254.128-.249.09-.005-.218zm.469.135l.75-.271.676.526-.871-.043-.006-.006-.284-.011.004.003-.72-.035.332-.12.213.107.192-.004-.286-.146zm-.451.621l-.011-.402.786.039.413.427-1.188-.064zm1.71.094l-.233-.014-.413-.429 2.65.131-2.004.312zm2.184.086v.033l-1.871-.103 1.927-.299-.056.369zm.07-.442l-1.712-.085 1.109-.401.607.473-.004.013zm.111-.463l-.076.325-.512-.397h-.065l-.118-.013-1.235.446-.743-.578h-.065l-.119-.012-.787.285-.377-.188-.004-.159 1.675.085.163.013.009-.004 2.269.115-.015.082zm.025-.138l-2.211-.112.47-.348 1.748.427-.007.033zm.019-.087l-1.478-.361 1.553.098-.075.263zm.895-.25l-.001-.003.024.001-.023.002zm.092 1.444l.091-.137.013-.165.014-.022.62-.09h-.352l-.234.032.029-.062 1.431.075.422.473-2.034-.104zm-.01-1.443l.114.004-.03.022-.084-.026zm2.682.456l-1.757-.436 2.201.107-.444.329zm.736-.314l.172.008 1.84.455-2.46-.133.448-.33zm-1.025.299l-2.109-.114-.065-.17.216-.16.203.01 1.755.434zm-.289.042l-.944.338-.535-.418 1.479.08zm-1.685-.091l-.121.043-.005-.05.126.007zm-.143.356l.027-.23.191-.069.535.419-.292.104.097.005.155-.011.113-.041.086.066h.189l-.145-.113.973-.349.601.471-.156.071-.863-.045-.007-.009-.221-.013.008.01-.733-.039-.138.01.041-.015-.522-.027.061-.195zm1.967.8l2.023-.335-.406-.021-1.684.274-.337-.379 2.021.105.14-.023.27.043h-.003l.806.042.411.429-3.241-.135zm2.502-.551l.75-.269.678.528-.871-.046-.006-.007-.284-.012.003.004-.719-.039.332-.119.212.108.194-.003-.289-.145zm-.644.147l.059.006-1.07-.077-.079-.062.828-.374.693.352-.431.155zm1.905.57l-.233-.013-.413-.431 2.65.14-2.004.304zm2.184.096l.001.031-1.873-.108 1.929-.292-.057.369zm.071-.444l-1.713-.09 1.109-.398.606.475-.002.013zm.109-.463l-.077.325-.511-.4h-.064l-.119-.013-1.235.443-.742-.581-.065-.001-.117-.012-.79.283-.716-.364-.128.002-.065-.004-.811.365-.579-.451 3.595.193.165.014.004-.005 2.27.123-.015.083zm.333-.504l-.214.016-.074.264-1.479-.366 1.767.086zm-.3.334l-.008.032-2.209-.119.469-.347 1.748.434zm-3.282-.509l1.241.061-.467.346-.171-.009-1.848-.457 1.245.059zm-.237-.067l-1.288-.062-.101-.024-.083-.002-.186-.014-.028.022-2.557-.125-5.776-.244-.003-.095 9.603.423.419.121zM61.349 74.907h-1.079v-5.916l-3.913-1.212-.587-26.721h-3.601l-.413 18.768h-.707v-1.595h-.245v7.827999999999999l-13.398-4.149-10.888 3.679h-2.812v.95l-7.258 2.452v2.36h-.59v3.525h-.858v3.127h.858v1.073h16.553v-.981h27.859v-2.82h1.079v2.698h.246v-2.698h.613v-.368h-.859zm-9.737-8.596l-.563-.175v-3.612h.647l-.084 3.787zm.087-3.912h-.65v-2.452h.704l-.054 2.452z"/></svg>