<svg xmlns="http://www.w3.org/2000/svg" width="100" height="100"><circle fill="#B2B2B2" cx="50" cy="50" r="50"/><path d="M73.141 5.83l-4.891 14.177c-.351-.153-.747-.249-1.171-.249-.549 0-1.054.152-1.468.403l-.008-.014-11.305-13.373c-.093-.112-.214-.166-.265-.123l-.019.016-5.609-6.634-.4.01 5.77 6.825-.019.015c-.053.044-.019.17.074.281l11.301 13.367c-.303.308-.5.687-.535 1.105l.03.035h-41.259c-1.058 0-1.922 1.275-1.922 2.833v50.932c0 1.558.864 2.834 1.922 2.834h3.689l-.017.07.045.14.384.629c.059.095.162.179.281.238.12.06.257.096.389.098h.663c.132-.002.27-.038.391-.098s.223-.144.281-.238l.384-.629.045-.14-.019-.07h40.358l-.017.067.044.143.384.629c.06.095.161.177.282.235.118.06.258.098.387.098h.664c.132 0 .271-.038.39-.098.122-.06.225-.141.281-.235l.386-.629.044-.143-.02-.067h3.566c1.056 0 1.921-1.276 1.921-2.834v-50.932c0-1.559-.865-2.833-1.921-2.833h-7.109l.031-.035c-.044-.521-.334-.986-.775-1.322l4.901-14.2-.539-.284zm-3.612 21.275c4.937 4.037 4.299 32.105 0 35.315 0 0-1.274 1.419-19.711 1.419-18.919 0-20.01-1.419-20.01-1.419-4.49-3.749-4.34-31.565 0-35.315 0 0 .472-.932 20.01-.932 19.242 0 19.711.932 19.711.932z"/></svg>