<svg xmlns="http://www.w3.org/2000/svg" width="100" height="100"><circle fill="#B2B2B2" cx="50" cy="50" r="50"/><g fill-rule="evenodd" clip-rule="evenodd"><path d="M34.078 37.605c-.039-.525.027-.759.134-1.232.11-.505.238-.947.224-1.473-.029-1.118-.354-2.676-.673-3.785-.223-.77-.276-.593-.567-1.16-.272-.528-.312-.951-.763-1.466-.297-.338-.854-.763-1.25-.971l-.36-.18-.368-.135c-.031-.022-.222-.284-.251-.332-.208-.324-.271-.63-.37-1.007l-.504.224-.259-.502c.119-.043.412.047.466-.153.03-.104.009-.762.117-1.033.144-.359.218-.576.306-.973.056-.256.15-.823.171-1.069l.017-.674-.043-.72-.171-.709-.314-.667-.548-.638c-.115-.116-.295-.245-.458-.27-.116-.018-.382.017-.512.017-.557-.001-.399-.12-.593-.215l-.262-.118-.396-.061c-.503-.055-1.509-.023-2.012.054-.219.035-.421.07-.622.16-.337.149-1.592 1.375-2.095 1.718-.248.17-.296.137-.566.386-.545.51-.35.531-.413.72l-.063.118-.053.161.009.062c.095-.11.146-.14.288-.172.041.057.08.126.153.145.046.01.137-.01.207.089l.117.234.049.022c.033.014.107.074.173.054.057-.02.124-.105.143-.163.035-.109.031-.171.271-.202-.056.17-.064.327-.064.507l.008.004c-.009.241.037.67.128.899l-.074.069.162.223c.032.16.03.139-.008.298-.091.37-.159.747-.181 1.133-.012.234-.021.318.342.36.095.01.195.001.233.097.064.159-.09.375.027.477.081.069.18.007.171.171l-.063.251.091.126.198.225.042.165-.016.034.017-.022-.007.13.034.358.045.064-.017.007c.029.058.124.144.182.171l.164.051-.003.014c.145 0 .286.015.428-.004l.004.004c.354.018.546-.031.889-.065.256-.025.265-.031.406.163l.002-.005c.077.116.136.251.294.31.122.047.096-.003.179.164l.114.217c-1.844 2.117-2.046 6.588-2.686 9.142l-.125.44c-.051.194-.151.709-.171.909-.032.316-.015.652-.008.971l-.064.216c-.068.208-.087.651-.081.872.013.422.112.84.271 1.232.065.153.393.937.521 1.052l.062.05-.026.67-.774.169c-.278.071-.146.071-.377.037-.247-.037-.505-.034-.755-.046-.195-.013-.317-.053-.548-.037-.825.064-1.15.571-1.375.702-.124.071-.427.354-.548.46l-.073.088-.005.155-2.665-.371c-2.313 1.15-4.542 2.321-6.833 3.487l.076.102 6.56-.001 2.892-1.642.12.031c.154.032.274-.008.558.072.199.056.39.16.602.17l.296.045c.331.069.182.072.305.117.078.027.259.004.342.01.14.011.345.064.503.008.224-.079.601-.601 1.042-.656.119-.014.251.017.355-.052-.123.587-.249 1.177-.39 1.76-.157.648-.331 1.292-.478 1.942l-.216 1.032-.116.784-.046.682c-.008.315.016.84.037 1.159.04.609.104 1.152.081 1.771-.061 1.121-.22 2.236-.323 3.354l-.108 1.222-.099 1.196-.055 1.194-.035 1.225.026 1.274.064 1.367.045 1.449-.127 1.31-.244 1.197-.358 1.104-.442 1.018-.503.96-.548.919-.532.83-.143.06-.934.674c-.375.163-.716.193-1.107.243-.465.062-.374.053-.826.053-.275 0-.687-.028-.918.146-.237.177-.211.408-.277.484-.077.086-.399.146-.189.325.091.076.108.059.251.215.145.149.153.175.315.27.205.119.399.203.621.298.281.111.232.194.612.296.504.133.812.26 1.375.261.812 0 1.941-.247 2.777-.307.11-.008.378-.028.477-.008.068.174-.036.352.18.367l2.741.044.243-.044c.065-.034.18-.323.188-.396.013-.097-.026-.234-.036-.331l-.01-.521-.041-.143.213.016c.136-.33.15-.333.215-.691.063-.352.082-.712.188-1.053l.144-.368.243-.388.369-.387.746-1.546.28-1.627-.019-.439c.289.416 1.092 1.445 1.223 1.815l.163.61-.009.541-.126.495-.189.494-.179.523-.088.384-.02.036-.045.352c-.045.413.008.998.136 1.401.047.153.103.336.129.493l-.236.229c-.403.342-1.369.913-1.88 1.042-.338.083-1.078.083-1.329.341-.197.2-.124.387-.153.485l-.031.073-.015-.011c-.034.084-.136.18-.145.27l.011.055v.09l.125.17.198.145c.123.071.417.181.557.215.143.038.502.099.656.117l.314.026.26.036c.26.023.923.024 1.196.021.948-.021 2.232-.16 3.155-.368l.488-.125.16.213c.186-.042 1.934-.426 1.996-.458l.189-.172.144-.252c.066-.155.139-.514.153-.655.013-.126.011-.556-.009-.674-.067-.222-.056-.458-.089-.729l-.027-.153-.029-.414.189-.862c.064-.361.176-1.382.197-1.752.019-.333.03-1.408.018-1.745-.01-.321-.082-1.316-.117-1.644l-.098-.746c-.129-.986-.258-1.971-.423-2.949-.197-1.127-.402-2.251-.638-3.37-.141-.67-.643-2.934-.764-3.292-.106-.31-.376-.812-.493-1.105-.064-.158-.206-.603-.226-.764l-.01-.404.071-.404.117-.424c.202-.876.188-2.061.18-2.967l-.009-.521.045-.377.098-.298c1.927-2.523 2.505-4.783 1.087-7.809l-.16-.703-.087-.267.554-.453.593-.629.423-.629.262-.619.151-.656.055-.694c.019-.504-.026-1.515-.091-2.012-.079-.617-.319-1.24-.366-1.9zM89.861 40.015l-1.774-.547c-.353-.102-2.283-.718-2.658-.836-.377-.118-2.109-.708-2.379-.808.042-.251-.081-.388-.104-.422-.022-.036-.109-.203-.667-.596-.557-.392-1.54-.813-1.669-.858-.127-.044-.741-.228-.761-.228l-.063.027-.06-.002-.026-.073s-3.241-.308-3.278-.304c-.032.004-.603.191-.954.413-.281.166-.412.471-.412.471l-.184.86c-.052.233.057.359.057.359l-1.354 7.738-.129.106-.173 1.126-.027.032c-.248-.024-.541-.039-.854-.039-.894 0-1.615.113-1.615.245l.006.425c-.807-.264-2.706.306-2.706.306-.692-.161-3.776.162-3.776.162-1.229-.729-3.389-.566-3.389-.566l-1.001-1.056c0-.73-.537-1.384-.537-1.384 0-.568-1.258-2.521-1.258-2.521.602 0 .794-1.13.794-1.13l.231-.729c.232-.406.541-.162.541-.162.384.081.538-.326.538-.326l-.081-1.137c.312-.081.312-1.625.312-1.625l.152-1.217.618.082c.075-.486-.926-1.705-.926-1.705-1.31-2.435-4.47-1.705-4.47-1.705-1.771.082-3.466 4.468-3.466 4.468-.152.241.228.646.228.646l-.536.327c-.308-.896-2.002.891-2.002.891-1.85 1.381-4.623 4.87-4.623 4.87-.438.793-1.544 2.785-2.516 4.536-.588.335-3.126 1.834-4.025 3.182-.057.063-.106.139-.141.239-.181.348-.237.68-.098.972l.013.031c.187 3.554 3.746 12.706 3.746 12.706.231.616.788 1.063 1.54 1.386-.73 1.682-1.954 5.226-2.218 10.553-.385 7.711.694.163.694.163s1.066-7.628 2.372-10.427c1.722.47 4.051.504 6.081.398l.337 1.328c-.607 1.912-1.37 5.12-1.559 9.591-.327 7.713.588.163.588.163s.573-4.815 1.366-8.198l1.214 4.789s.23-.484.081-2.434l-.821-4.087c.193-.581.394-1.03.597-1.282l.144-.013-.023.025.131-.036c1.397-.136 2.357-.289 2.357-.289.402-.045.718-.237.922-.491l.085.01.075.318c0 .403.886 2.227 1.404 3.259l1.309 6.076s.2-.486.068-2.436l-.343-2.004c.351.456.763.972 1.105 1.396v6.043l.074.084h1.541l.081-.084v-3.905l.465.502c-.311.812.919 1.215.919 1.215.305 0 1.543 1.379 1.543 1.379 3.391 1.463 2.696-1.704 2.696-1.704 6.159-1.947-2.004-2.434-2.004-2.434-.692-.325-.232-1.865-.232-1.865 0-.651.541-8.605.541-8.605 0-1.057.386-5.115.386-5.115 0-1.78-3.287-2.057-4.313-2.1v-5.201l-.081-.083h23.421l-.073.083v27.834l.073.084h1.546l.077-.084v-27.834l-.077-.083h1.54l.077-.082v-1.056l-.077-.081h-5.172v-.154c-.021-.077-.099-.115-.099-.115s-1.041-.44-.948-.45c.092-.011.229-.161.229-.161l2.47.087.22.134.238.149c.089.021.438.031.485.037l.046-.036.03-.242s1.001.055 1.115.053c.113-.002.111-.087.111-.087l.196-1.137.224-1.29.028-.157c.398-.021 1.267.042 1.409.05.141.01.145-.12.145-.12l.206-1.165.313-1.749c.065-.398.167-1 .349-1.788.179-.787.391-1.348.462-1.591.04-.14-.103-.14-.23-.178zm-14.177 8.576c.17.1.624.334.638.342l-.104.04-.623.297s-.247 0-.539-.056c-.293-.057-.785-.146-1.186-.191l-.108-.01c.056-.309.103-.665.139-1.007.181.131.285.147.333.168.056.024 1.207.353 1.45.417zm-15.775 2.636v5.141c-.586.011-1.252.037-1.814.064-.187-.565-.657-1.162-1.728-1.551.045-.91-.156-2.601-.156-2.601.31-.893.769-3.004.769-3.004h1.233c.104.307.306.511.541.649h-.385l-.079.081v1.056l.079.082h1.614l-.074.083zm10.977-1.302c.163-.142.19-.324.19-.324l.135-.051.141.293h2.078c.125 0 .229-.303.312-.721l.044.001c.22.002.886.114 1.249.182.187.035.383.036.383.036l-.809.396-.022.188h-3.701zm10.778-.808l-.006-.071.23.005s-.111.082-.224.066z"/></g></svg>