<svg xmlns="http://www.w3.org/2000/svg" width="100" height="100"><circle fill="#B2B2B2" cx="50" cy="50" r="50"/><path fill="#231F20" d="M22.622 74.061l-2.011 1.478 3.279-1.105-.176-.146c-.152.009-.305.026-.377.072-.18.099-.318-.038-.355-.115-.03-.057-.117-.1-.36-.184zm9.533 5.326c.181.102.375.185.577.248l.149-1.078-.726.83zm31.703-63.494l-.153-.067c-.155-.011-.244-.001-.365-.088-.032.163-.107.196-.178.267l.148.062-.186.003c-.027.091-.003.234.029.363l.115.318c.085-.163.329-.602.562-.828l.028-.03zm-.494-.355l.195.09c.05.007.254 0 .315.057l.074.129c.187-.144.221-.041.167.155-.054.206-.511.908-.699 1.133l.012.024c.049.121.475.647.486.942.009.284-.278.438-.467.438s-.383-.046-.383-.046c-.025.082-.067.386-.055.512.011.125-.186.214-.186.214s.065.094.039.309c-.023.218-.284.141-.259.24.105.423-.19.599-.177.687.013.087-.05.291-.203.379-.15.088-.633.327-.633.327.216.305-.074.658-.074.658.102.202-.266.379-.266.379.583 1.314 1.268 2.673 2.225 4.477.958 1.804 1.213 1.837 2.024 5.258 1.231 5.21 3.197 13.757 3.309 16.589s.406 13.237.443 13.388c.033.15-.073.279-.199.215h-.647c-.151-.062-.795.013-.922.028-.128.012-.557.061-.719-.016-.167-.075-.279.052-.407-.061-.125-.117-.491-.052-.491-.052s.037 1.113-.19 2.021c-.228.913-.861 4.994-1.062 6.513-.2 1.517-.949 7.673-.934 7.838.011.164-.128.151-.128.151.076.178 1.922 1.519 2.022 1.606.102.086.974.479 1.227.557.254.076.834.595 1.604.518.773-.076.786.785.786.785.327.29-.013.771-.013.771-.165.506-.836.467-3.352.494-2.517.023-3.414-.557-3.932-.822-.519-.266-1.541-.606-1.541-.606l-.052.377c0 .091-.013.191-.089.229-.077.036-.342.251-.835.151-.81-.166-1.996-.62-2.074-.67-.076-.052-.125-.216-.087-.381.037-.162.149-1.01.149-1.01-.047-.255.128-.442.128-.442-.038-.128.126-.987.126-1.115 0-.125.291-.77.291-.77s-.203 0-.14-.34c.022-.115-.048-.444.04-.976.088-.53.189-4.45.161-5.816-.022-1.365.281-5.182.281-5.182l-.835.671c-.367.289-2.111 2.352-3.287 3.083-1.176.733-3.262 3.109-3.326 3.211-.063.104-.176.09-.277.024l-.873-.543c0 .608-.669 1.342-.721 1.442-.052.102-.125.896-.102 1.189.026.289.039.77.203 1.072.165.306-.013.772-.013.772l.848 1.215c.403.58-.177.911-.177.911s.024.236-.176.201c-.205-.039-.686-.303-1.747-1.024-1.064-.721-1.997-2.125-2.086-2.29-.089-.162-.254-.252-.34-.303-.09-.052-.405-.141-.974-.655-.571-.521-1.528-2.139-1.581-2.265-.051-.126-.127-.292.052-.392.176-.103.719-.481.719-.481-.039-.228.239-.315.327-.315.089 0 .078-.038.13-.165.048-.125.985-.757 1.134-.836.154-.073.267-.06.331-.148.063-.091.379-.253.505-.253s.368-.04.368-.04l-.117-.127c-.037-.062-.011-.163.102-.238.117-.077 1.24-1.202 1.57-1.403.329-.201 2.517-2.68 2.517-2.68s.011-.14.465-.635l2.429-2.604c-.216.077-1.253-.149-1.429-.149-.178 0-.797-.193-1.088-.164-.289.022-.657-.368-.657-.368s-.229-.052-.329-.052c-.102 0-.154-.051-.141-.213.015-.166.064-.407.114-.521.05-.113.115-.264.115-.377 0-.168.069-.543.146-.984-.517.663-1.377 1.746-1.865 2.285-.734.811-1.745 1.833-2.604 2.656-.862.821-1.431 1.466-1.847 1.983-.416.52-.708.392-.708.392l-1.303 1.632s.039.127.127.191c.089.062.455.239.531.276.076.04.152.126.013.24-.141.113-.507.518-.596.646-.088.126-.114.126-.227.126l-.531.038s-.645.734-.759.973c-.113.24-.355.392-.455.457-.101.062-.859.657-1.061.781-.181.115-.726.408-1.102.622l-.49.742c.709.827 1.139 1.905 1.139 3.081 0 1.721-.918 3.229-2.292 4.059l.011.412c0 3.323-2.692 6.019-6.017 6.019s-6.02-2.695-6.02-6.019c0-1.863.847-3.53 2.176-4.634l-1.543-1.326c-1.635.556-4.859 1.646-5.373 1.775-.689.172-.926.037-.944-.211-.021-.249.116-.523.56-.83l3.136-2.164c.004-.142.115-.277.17-.311.1-.063.076-.075.088-.203l.011-.04c-1.031-.898-.545-1.474-.281-1.682l-.059-.06c-.368-.367.227-.898.569-1.076.34-.177.543-.454 1.213-1.53.671-1.074 1.1-1.199 1.113-1.275.035-.218.392-.394.745-.545.355-.151.924-.442 1.253-.442s1.656-.76 2.061-.872c.405-.115.494-.203.581-.266.088-.062.95-.327 1.139-.557.384-.462 2.112-.771 2.112-.771s.353-.491.457-.834c.336-1.141 1.186-2.529 1.364-2.718.177-.19.935-1.683 1.441-2.225.512-.551.643-1.62.68-1.734.041-.113.255-.074.443-.022.19.05.392.188.392.188.569-.292 1.279-.025 1.467.012.188.041 1.769.088 2.063.102.288.015.403-.05.667.064.266.114.318.151.912.316.595.165 1.214.579 1.771.682.556.102 1.743.833 1.957.935.216.103.366.355.366.634 0 .194.028.546.042.738.063-.307.336-.535.662-.535.272 0 .509.162.614.395l2.303-2.87c.056-1.263.094-3.046.213-3.645.164-.834.037-2.25-.076-3.097-.114-.85-.519-1.783-.519-4.236 0-3.454.253-5.437.253-5.437s-.228.039-.214-.125l.013-1.646c.013-.946.368-3.971.353-4.45-.011-.48.166-1.113.178-1.49.013-.381.733-5.603 1.075-7.106.343-1.504.998-2.844 1.427-4.021.43-1.175 1.645-2.04 1.645-2.04s.027-.185.014-.3l-.122-.214c-.011-.115-.081-.151-.131-.234-.052-.081.089-.202.138-.277.051-.078.184-.387.184-.387s-.354-.082-.436-.53c-.084-.449.422-.803.422-.803-.201-.052-.18-.253-.138-.303.044-.054.025-.253.025-.253l-.128.011-.195-.244c-.107-.09 0-.192.039-.229v-.115c-.443-.225-.594-2.63 2.351-4.69 2.946-2.061 4.11-.296 4.11-.296s.135-.076.207-.051c.076.025.123.153.223.159.102.007.144.188.144.188l.225-.061c.042-.033.104-.008.138.057l.037.17s.128 0 .22.055c.097.058.083.248.083.248l.134-.046c.05-.044.088-.037.159.075l.188.141c.112.125-.145.374-.145.374s.118-.026.232.031c.113.056-.062.22-.062.22.354.242 1.604.229 1.896.19.292-.038.783-.2 1.061.076.532.533-2.166 2.542-2.166 2.542l-.014.189zm-31.924 69.307l-1.41-2.65-.102.031-.449 2.833c.188.029.384.045.584.045.484 0 .95-.093 1.377-.259zm1.624-1.213l-2.336-2.033c-.066.065-.146.117-.231.153-.07.153-.183.285-.323.37l1.416 2.66c.58-.256 1.086-.653 1.474-1.15zm.777-1.68l-3.004-.475 2.327 2.025c.326-.45.562-.978.677-1.55zm-2.917-.624l2.942.467c.03-.167.045-.334.051-.509l-.333.013c-.917 0-1.771-.258-2.495-.709l-.106.151.024.208c0 .136-.029.264-.083.379zm2.398-1.575l.308-.087c-.149-.378-.354-.728-.607-1.032l-.146 1.042c.145.034.293.062.445.077zm-3.821.659l.008.008c.151-.203.38-.336.643-.344v-.235l-1.084-.94.433 1.511zm-2.386-1.796l2.172 1.637-.444-1.549-.939-.815c-.296.204-.562.448-.789.727zm1.414 2.299l.451.115c.044-.112.109-.207.19-.286l-.183-.116c-.072-.046-.141-.086-.215 0l-.243.287zm-2.242-.559l2.059.515.351-.422c.085-.104.274-.097.403 0l.229.171.056-.033-.024-.079-2.348-1.769c-.351.466-.606 1.02-.726 1.617zm.105 2.018l2.529-1.125.009-.067-2.674-.667c-.033.209-.05.426-.05.643-.001.424.066.832.186 1.216zm2.299.384l.617-.639-.074-.057-.543.696zm-1.249 1.294l.181-.188 1.496-1.913c-.119-.141-.194-.322-.206-.521l-2.469 1.099c.211.586.556 1.107.998 1.523zm2.018-1.858l-1.715 1.773-.165.212c.493.421 1.085.721 1.739.852l.443-2.785h-.019c-.1 0-.194-.018-.283-.052zm6.486-3.544l-.721-.648c.174.3.326.614.446.943l.275-.295zm.68-1.602l-2.155-.303-.107.119c.198.203.379.421.542.65l1.131 1.019c.314-.426.521-.93.589-1.485zm-2.039-.44l2.052.288.011-.234c0-.388-.07-.764-.2-1.106l-.148.16c-.087.085-.181.085-.321-.017l-.176-.15-.281.413c-.153.193-.386.02-.386.02l-.551.626z"/></svg>