<svg xmlns="http://www.w3.org/2000/svg" width="100" height="100"><circle fill="#B2B2B2" cx="50" cy="50" r="50"/><path d="M85.14 59.013c-.264-2.117-3.564-8.186-3.564-8.186l-.397-8.736s-.142-6.509-5.305-6.907c-1.869-.144-8.048-.235-15.466-.294v-1.366h-2.762l.063-2.15h1.584c0-5.318-4.311-9.628-9.629-9.628s-9.628 4.311-9.628 9.628h1.201l.064 2.15h-2.616v1.272c-7.5-.014-13.118-.009-13.118-.009s-5.945.155-6.541 4.721c-.519 3.998-.769 8.697-.74 9.709v.53l-.132.529s-3.298 5.912-3.298 7.699c0 1.786 2.635 17.586 2.635 17.586s-.004 3.001 3.523 2.667c4.421-.417 57.187 0 57.187 0s2.814-.24 3.176-1.786c.454-1.939 3.909-16.28 3.763-17.429zm-43.338-25.489l-.063-2.15h.896c0-3.883 3.147-7.03 7.029-7.03 3.883 0 7.031 3.147 7.031 7.03h.513l-.062 2.15h-2.544v1.327c-3.365-.019-6.815-.032-10.11-.042v-1.286h-2.69z"/></svg>