<svg xmlns="http://www.w3.org/2000/svg" width="100" height="100"><circle fill="#B2B2B2" cx="50" cy="50" r="50"/><path d="M32.476 29.959l-.366-.258.01-.008-.02-.016-.01.01c-.214-.164-.321-.318-.53-.795l-.055-.114-.02-.037-.036-.063-.022-.037-.031-.05-.024-.031-.034-.042-.021-.026-.035-.036-.02-.022-.037-.032-.015-.013-.098-.062-.012-.009-.03-.012-.015-.005-.026-.01-.015-.003-.02-.005h-.015l-.022-.002h-.045l-.021.003c-.154-.245-.396-1.221-.396-1.221.519-1.218.182-3.841.182-3.841-.883-3.442-3.412-3.442-3.627-3.289-.213.151-.643.06-.643.06-1.737-.123-2.649 2.043-2.832 2.62-.184.58.52 2.043.52 2.166l.364.64c0 .091.211.274.211.426 0 .152.154.883.186.976.03.091.365.457.365.642 0 .181.184.912.245 1.003l.272.642c0 .548.916.426.916.426.426-.062.58.974.58.974s-.154.458-.277.609c-.12.153-.729.58-1.248.611-.517.03-1.769.609-1.95.792-.183.183-1.739 1.858-1.892 2.013-.15.152-1.523 2.62-2.285 3.109-.762.485-1.007-1.159-1.066-1.25l-.021-.038-.002-.005-.03-.062c-.12-.266-.373-.912-.373-1.114 0-.243.181-1.005-.247-1.433-.427-.426-.453-.489-.453-.489.605-.456-1.769-1.371-1.769-1.371 1.735-.122.184-.733.184-.733-.278-.09-.858.243-.858.243-.332.094-.03.765-.03.765-.211.09.095.547-.181.699l-.042.028c-.232.186-.232.733-.232.733-.213.213.124.61.124.61-.183.245.577 1.341.879 1.523.271.162.802 1.438.965 1.862l.045.119c.06.184.456 1.189.456 1.189s-.124 1.373.46 2.651c.576 1.28 2.314 1.129 3.074 1.097.763-.03 1.586-.792 1.891-1.28.305-.486.486-.701.396-.12-.092.578.457 2.987.824 4.207l.174.588.005.013.038.132.027.103.01.026.089.312.083.319s.034 1.28-.154 1.736c-.182.459.091 7.163.188 7.59.089.427.761 2.285.789 3.323.031 1.036.183 4.235.46 5.273.272 1.035 1.185 6.704 1.31 7.771.12 1.068 1.764 6.34 2.101 7.041.337.702.397 1.86.397 1.951l-.305.702c-.122.09-.639 1.065-.761 1.249s-.642.398-.794.398c-.154 0-1.036.305-1.402.549s-1.13.639.059 1.311c1.189.67 4.117-.456 4.543-.609.428-.151.7-.396 1.007-.396.301 0 1.704-.243 2.101-.305.398-.061 0-1.492 0-1.797 0-.307-.061-1.495-.061-1.495s.397 1.584.397 1.89c0 .307.244.916.244.916l.302.212c0 .121-.059 1.189-.119 1.525-.062.335-.033 1.311-.033 1.311.275.761 2.684.426 2.684.426 2.042-.609.671-3.688.671-3.688.152 0 .241.092.395-.763.153-.852-.272-5.059-.395-7.225-.125-2.162-1.189-7.069-1.919-8.412-.734-1.34-.337-7.985.184-10.026.517-2.044-.704-9.754-.704-9.754s.105-.448.095-1.098l-.001-.153c-.033-.729 0-.854.273-.823.274.03 1.127-.03 1.127-.03s1.098-.09 2.045-.12c.941-.03 1.309-1.344 1.372-1.678.06-.336.213-1.371.213-1.371.456-1.159-1.921-7.406-2.259-8.718-.334-1.311-5.058-3.354-5.576-3.72zM83.412 52.938l-.095-.078c-.077-.052-.034-.13-.196-.138-.132-.01-.963.002-1.103 0-.089-.004-.146-.02-.141-.108.011-.216.02-2.488.02-2.641 0-.149.045-3.979.056-4.099l.075-5.419.141-7.224s.13-6.079.142-6.198c.01-.119.086-5.699.086-5.818l-.012-.898c0-.085.022-.216.141-.172-.021 0-.01.055.087.064h.194c.056 0 .109.01.141-.075.034-.086.076-.37.021-.542-.023-.078-.004-.16-.194-.205-.063-.016-.162.01-.194.043-.146.027-.292.021-.433.01-.142-.01-9.333-.075-9.506-.075-.172 0-7.509-.076-7.605-.076s-.113-.061-.008-.082c.123 0 .138-.037.173-.08s.138-.246.166-.456c.029-.208-.037-.245-.187-.309-.152-.066-.635-.052-.672-.052l-.071-.037c0-.042-.014-.086-.072-.086-.058 0-.136.009-.136.065l-.059.065-.341.044c-.05.006-.295.034-.235.302.057.266.092.323.122.382l.094.13c.078.043.137.108.007.108s-5.09-.093-5.19-.101c-.103-.007-5.603-.108-5.724-.108-.123 0-.462-.002-1.068-.015-.584-.009-5.473-.064-5.688-.109-.216-.043-.433-.215-.454.065-.022.282-.022.347 0 .499.021.151-.033.261.194.171l.357-.052c.194 0 .14.076.14.292 0 .303.033 2.173.033 2.302l.021 6.524c0 .106-.021 5.524-.01 5.654.01.13-.033 6.576-.033 6.674l-.074 7.226-.065 4.012s.031.097-.087.107l-.616-.011c-.065-.054-.336-.03-.421-.02-.086.01-.076.027-.238.235-.203.261-.351.785-.056 1.168l.25.336.379.022c-.012-.031.855-.022.995-.01.14.01 6.964.072 7.116.072l7.959.057 2.12.032c.086 0 .119.086.108.184-.011.099-.022 1.122-.022 1.22.004.021-.041.089.057.083.109-.008.124.042.118.136-.012.152-.012 1.774-.012 2.12l-.032 8.652-.022 7.397v3.852c0 .106.011.215-.194.215s-.194.021-.4.152c-.205.13-2.454 1.537-2.616 1.634-.161.097-8.821 5.439-8.954 5.505l-.142.075c-.022-.032-.054-.054-.13 0l-.389.249c-.217.139-.146.242.012.422.227.261.22.287.583.054.144-.092.228-.114.228-.215.162-.1 6.262-3.863 6.338-3.907.074-.042.086-.095.26 0 .171.098 4.502 1.977 4.637 2.035l.099.141.151.15c.032.065.064.131.151.142l.238-.011c.064.021.249.053.334.043.087-.011.185-.021.261 0 .075.021.173.054.216 0l.194-.229c0-.03.01-.121.131-.161.355-.118 1.037-.432 1.177-.495.142-.067 2.266-1.005 2.38-1.063.174-.085.185-.097.324.045.223.222 3.741 3.312 3.882 3.429l1.082.962c-.031.055-.043.119.065.206l.26.193c.064.044.193.132.367.055.173-.075.355-.335.27-.486-.128-.227-.258-.26-.345-.323-.092-.069-.141-.152-.216-.12-.088-.054-.574-.498-.64-.551-.063-.053-7.839-6.88-7.928-6.977-.085-.098-.93-.919-1.058-.931-.086-.007-.162-.021-.14-.323.021-.323-.013-3.384 0-3.494.009-.106.02-6.651.02-6.781s.022-5.766.033-5.949c.009-.166.033-5.579.036-5.699.003-.096-.018-.141.069-.146.088.007.086.009.086-.093l.004-.712v-.466c-.013-.063-.033-.216.129-.205.163.009 1.342.022 1.482.009.141-.009 5.505.046 6 .056.499.011 7.755.044 8.155.056.4.01 2.671.053 2.736.053.064 0 .14 0 .151-.053l.106-.12c.227-.279.422-.788.064-1.382zm-19.635 25.997l-.024 4.774s-.021.271-.098.279c-.075.014-.228 0-.303-.021-.076-.021-.141-.033-.173-.118-.032-.088.044-.075-.173-.152-.065-.022-3.926-1.731-4.121-1.786-.195-.053-.184-.095.034-.236l4.033-2.499c.087-.054.578-.366.672-.389.212-.021.153.037.153.148zm.61-59.915v-.179l.059-.124-.008-.217c-.001-.05-.021-.085.059-.079l.387-.006.281.028c.094.026.131.116.109.26-.01.064-.05.237-.101.339-.05.102-.138.072-.194.072l-.519-.014c-.122-.008-.073-.044-.073-.08zm-.599-.015l-.093-.31c-.065-.208.122-.246.179-.252l.297-.021c.122-.007.072.051.072.093l.007.202.021.101.036.093.008.108c.01.094-.044.094-.108.094l-.274-.014c-.109.001-.122-.05-.145-.094zm1.349 60.557c.054.065 2.779 2.425 2.976 2.61.193.185.085.15-.045.215-.086.044-3.082 1.365-3.146 1.387-.064.02-.248.075-.26.128-.011.056-.056.1-.13.118-.229.066-.141-.183-.107-.28.032-.096.519-2.052.551-2.182l.094-.391c.032-.152.059-.087.133.075l.542 1.124.031.15c.056.098.119.098.184.107l.261.034c.184.012.151-.13.161-.228.013-.097-.031-.172-.076-.259l-.129-.173c-.044-.089-.922-1.947-1.171-2.423s.077-.077.131-.012zm-.677.169c.101.219.195.399.276.548.055.099.055.14.043.228-.008.065-.274 1.002-.379 1.449-.093.404-.066-.062-.066-.14 0-.08-.012-1.735-.001-2.103.009-.313.031-.179.127.018zm6.754-38.056c-1.504 2.601-4.312 4.351-7.532 4.351-3.219 0-6.027-1.75-7.532-4.351-.74-1.278-1.166-2.763-1.166-4.349 0-1.584.426-3.068 1.166-4.348 1.505-2.599 4.313-4.35 7.532-4.35v8.698l7.532-4.348c.74 1.28 1.166 2.764 1.166 4.348 0 1.586-.426 3.07-1.166 4.349zm-6.306-6.472v-8.698c3.219 0 6.027 1.75 7.531 4.35l-7.531 4.348z"/></svg>