<svg xmlns="http://www.w3.org/2000/svg" width="100" height="100"><circle fill="#B2B2B2" cx="50" cy="50" r="50"/><path fill-rule="evenodd" clip-rule="evenodd" d="M77.27 18.563c.36-2.781-1.302-5.508-4.068-6.387-3.026-.962-6.245.642-7.331 3.592-1.321.385-2.565 1.001-3.673 1.814-1.032-1.543-2.572-2.763-4.479-3.369-4.47-1.421-9.247 1.052-10.667 5.522-.318 1.001-.431 2.017-.38 3.008-1.908.734-3.479 2.293-4.146 4.394-.532 1.672-.394 3.393.253 4.885-1.982.307-3.721 1.694-4.37 3.735-.337 1.059-.331 2.144-.048 3.14-.79.371-1.43 1.054-1.715 1.952-.359 1.129-.064 2.309.668 3.136.034.692.287 1.353.715 1.885-2.831.254-4.524.869-4.524.869 2.857 12.089-4.396 36.487-4.396 36.487 12.311 1.977 23.188 0 23.188 0s-7.253-24.397-4.395-36.487c-1.723-.454-3.345-.718-4.838-.855.211-.258.384-.553.51-.879.442.31.937.559 1.479.73 1.377.438 2.798.295 4.006-.283.957.813 2.086 1.456 3.359 1.86 4.257 1.353 8.749-.381 11.083-3.942l.188.071c3.509 1.114 7.257-.825 8.372-4.333.078-.247.138-.495.187-.743 3.705-1.019 6.839-3.831 8.09-7.766 1.4-4.411.059-9.035-3.068-12.036z"/></svg>