<svg xmlns="http://www.w3.org/2000/svg" width="100" height="100"><circle fill="#B2B2B2" cx="50" cy="50" r="50"/><path fill="#1D1D1B" d="M67.415 30.879c-.263-.957-.525-.825-.659-.793-.131.034-.56-.297-.856-.363-.297-.068-.891-.068-.891-.068s-1.45-.559-2.374-.593c-.164-.527-1.256-1.022-1.256-1.022l-.223-.343v.005c-.233-.359-.63-.973-1.063-1.674.1-1.648-.593-3.232-.593-3.232s-.297-.627-.33-.991c-.032-.36-.496-.691-.594-.757l-.11-.153-.11-.195-.042-.081-.084-.162-.041-.078-.087-.173-.022-.05-.032-.064.002-.002c0-.003.198-.396.362-.823.164-.43-.166-.727-.198-.825-.034-.099.032-.397.262-.463.231-.066.464-.395.496-.89.031-.494-.56-.957-1.024-1.583-.46-.625-1.748-.989-1.748-.989s-.23-.66-.331-.792c-.1-.133-.163-.033-.625.363-.461.396-.496.659-.496.659l-.593.068c-.265.032-.858.032-.858.032s-.23.13-.462 0c-.231-.132-.495-1.914-.495-1.914s0-.101.099-.101c.102 0 .362-.593.464-.955.099-.363.099-1.288.064-1.684-.033-.393-.297-.823-.297-.823l-.233-1.418s-.229-1.419-1.318-2.605c-1.09-1.19-3.299-1.553-4.486-1.222-1.187.332-2.572 1.946-2.837 2.772-.264.822-.199 2.111-.199 2.111-.625.523-.814.823-.941 1.209-.273.476-.24 1.089-.238 1.117l.098-.005.01-.296c.077.327.398.455.741.381.462-.099.726-.824.726-.824l.009.042v-.002l.685 3.125c.494 1.75 1.879 3.167 1.879 3.167l-.133.033c-.13.033-.197.198-.098.495.098.296.331.626.331.923s.066.594.23.826c.167.23.263.428.263.428s-.131 1.122-.131 1.22c0 .1-.396.661-.792 1.122-.396.462-.495.495-.891 1.287-.397.792-.364 1.616-.496 1.914-.131.296-.197 1.583-.163 1.847.031.264-.068 1.813-.133 2.244-.066.429-.165 1.055-.363 1.782-.199.726-.397 1.914-.528 2.639-.133.726-.296 1.386-.296 1.386s-.627-.067-1.024-.1c-.396-.032-.89-.263-1.188-.131-.297.131-.757-.198-.757-.198s-.991-.331-1.552-.331l-1.155.396-.395-.33.265-.494.263-6.499-6.928-4.485-.231.362-1.154.528-.33-.166v1.6500000000000001l-.758.263-.329-.164-.265 6.564s.923.66.825.66c-.098 0-.494.23-.494.397 0 .163.429.459.726.559.296.1.856.133.856.133l-.032.132c-.033.131.263.824.33.99.066.162.396.363.396.363s.032.13.229.231c.199.098.858.098.858.098s-.032.496.198.594c.231.1 1.155-.098 1.155-.098s1.847 1.648 2.045 1.648c.199 0 1.418-.562 1.418-.562l.198.66.297.298.198.363s.592.295.759.362c.165.066 1.252 1.023 1.353 1.188.099.165 1.32.364 1.32.364l1.649.461.132.33s-.33 2.606-.429 2.97c-.099.363-.263 2.011-.263 2.439 0 .429.23.496.825 1.387.593.89 1.979 1.155 1.979 1.155l.133.43-.331.595s-.528 2.243-.528 2.342l-.296 2.275c0 .099-.165 3.034-.165 3.034s0 1.156-.033 2.541c-.033 1.387-.396 2.539-.66 3.168-.264.625 0 .922 0 1.549 0 .626-.397 1.582-.56 2.739-.166 1.152.428 1.848.626 2.274.198.431-.099.462-.364.824-.264.363-.065.924-.032 1.782.032.858 0 1.682-.099 2.872-.099 1.187.395 3.264.825 5.013.429 1.75.296 2.31-.099 2.771-.396.461-.331.593-.396 1.188-.066.594.132 1.219.033 1.319 0 0-1.089 1.021-1.583 1.285l-2.276.758s-.428 0-1.484-.098-1.75.957-1.518 2.145c.231 1.187 2.111 2.309 6.465 2.54 4.357.23 5.873-.099 6.237-.596.362-.492.329-.955.329-.955l.165-.331s.133-.559.133-.988c0-.429.329-4.024.429-5.971.098-1.949.231-8.248.164-9.173-.066-.924 0-1.979-.032-2.87l-.067-2.144c-.031-.792.032-3.003.032-3.003s.626 1.419.793 1.914c.165.494.923 1.583 1.022 1.749.099.165.165.595.432 1.551.263.958 1.616 3.794 1.616 3.794l3.331 9.501s-1.252-.23-1.582-.23-.826.395-1.122 1.021c-.297.628 0 .991.265 1.716.262.725 3.299 1.483 3.299 1.483l2.539 1.155s2.243 1.582 3.168 1.387c.923-.198 1.518-.825 1.615-1.287.101-.462-.034-.858-.034-.858l-.296-1.815c-.065-.395-.692-.824-.692-.824l-.362-1.286s-1.089-3.759-1.847-6.103c-.76-2.342-2.245-6.498-3.53-10.161-1.286-3.662-2.309-5.476-2.408-5.805-.101-.331.031-.362.031-1.057 0-.691.068-2.672.068-2.672l.032-.625.363-.298s.23.067.395-.031c.166-.101.232-.43.232-.43l.032-1.452.297 1.52s.132.394.331.329c.198-.067.362-.429.428-.759s.032-.727 0-1.187c-.034-.465-.065-1.519-.065-1.519l.164-1.288.495-1.088s.43.362.889.264c.462-.1 1.649-2.408 1.649-2.408l.021-.012v.002l.398-.222.057-.033.183-.109.104-.061.164-.105.119-.079.145-.101.123-.089.128-.105.091-.077.153-.166c.295-.428 1.712-2.572 2.671-4.09.956-1.518 1.154-3.069 1.55-4.916.396-1.846.43-2.243.626-3.3.2-1.055.363-3.727.363-4.485-.002-.755-.167-.788-.433-1.744z"/></svg>