<svg xmlns="http://www.w3.org/2000/svg" width="100" height="100"><circle fill="#B2B2B2" cx="50" cy="50" r="50"/><path d="M25.887 42.168c-.711.882-.644 1.5-.557 2.072.087.573.318 2.06 2.583 2.587-.091.387-.089.964.643.593-.032.258-.153.433-.553.557-.401.123-.736.285-1.227.796-.493.511-.692 1.397-.767 2.188-.076.793.013 1.367.013 1.367l.641-.516s-.235-1.593.2-2.466c.435-.87.45-.978.91-1.189.755-.372 1.457-.443 1.553-.746.092-.303.188-.072.323.092.134.166.684.528.986.623.304.095.69.166.997-.169.307-.333.327-.376.274-.63 0 0 3.909 2.083 8.597 2.32 4.687.237 8.1.077 15.002-1.955 3.141-1.046 5.022-2.618 5.58-3.068.558-.449 1.531-1.194 1.845-1.376.654.827 2.499 2.097 3.175 2.433s1.765.847 2.932.629c1.166-.218 1.209-.755 1.143-1.349-.066-.596-.288-1.825-.391-2.247-.103-.424-.506-1.389-.549-1.966.877-.482 1.983-1.639 2.529-2.408.543-.77.79-1.548 1.542-2.519.752-.969 1.5-1.47 1.878-1.614.379-.144.746-.051 1.277-.116.532-.066.55-.129.807-.162.254-.032 1.747-.071 2.122-.321.375-.252.665-.967.274-3.258-.393-2.292-1.003-2.565-1.839-3.193-.176-.122.109-.473-.271-.864-.379-.391-.565-.277-1.071-.597-.503-.321-1.154-.53-2.626-1.539-1.471-1.007-2.33-1.079-3.266-1.509-.938-.433-1.603-1.022-2.903-1.507-1.302-.48-2.751-.398-4.367-.74-.259-.055-.457-.195-.457-.195s-.313-.371-.724-.504c-.195-.077-.534-1.024-.793-2.659-.259-1.634-.249-1.934-.093-3.863.158-1.927.374-1.829.254-2.701.035-.193.012-.212-.164-.335-.175-.121-.241-.182-.521-.234-.28-.054-.795-.097-2.161-.083-1.366.011-2.298.242-2.135.577-.336.144-.329.313-.329.313s-.332.248-.515.491c-.375.228-.479.277-.935 1.171-.456.893-1.177 3.101-1.7 4.427-.214.542-.576 1.067-.576 1.067s-1.402.208-2.797.029c-.324-.051-1.022.107-1.831.159-.81.054-1.408.079-1.982.145-.575.066-2.125.28-3.123.405-1 .124-1.851.203-3.422.46-1.569.255-1.787.178-1.942-.497-.155-.677-.218-1.699-.225-2.384-.007-.683-.053-1.299-.351-1.779.489-.063.046-.473-.105-.531-.153-.06-.434-.153-.647-.123-.042-.49-.137-1.79-.672-2.342.226-.201-.058-.362-.316-.435-.26-.077-1.186-.252-2.443-.158-1.257.093-1.509.189-1.719.262l-.284.374c-.251.161.054.254.054.254s-.266.312-.962 2.089c-.698 1.781-.565 1.903-.974 2.881-.408.979-.57 1.711-.805 3.301-.236 1.589-.064 2.096-1.31 4.558-1.246 2.464-2.111 3.269-2.864 7.378-.747 4.107 1.166 9.136 2.13 10.249zm5.346 4.887c.452.623-.668.881-.668.881-.798-.203-.25-.886-1.122-.808.5-.276 1.396-.335 1.396-.335l.394.262zm-1.31-.715c.259.054.395.261.077.338-.316.078-.634.113-.634.113s.054-.238.557-.451zm-2.444-1.802s.09.103.16.272c.072.167-.187.092-.187.092-.265-.201.027-.364.027-.364zM58.166 56.667c0 2.485-2.015 4.5-4.5 4.5s-4.5-2.015-4.5-4.5 2.021-4.686 4.5-4.5c2.89.216 4.5 2.015 4.5 4.5zM50.834 68.334c0 2.669-2.164 4.833-4.833 4.833s-4.833-2.164-4.833-4.833c0-2.67 2.168-4.977 4.833-4.834 2.793.149 4.833 2.164 4.833 4.834zM62.501 75c0 2.485-2.015 4.5-4.5 4.5s-4.288-2.023-4.5-4.5c-.2-2.336 2.015-4.5 4.5-4.5s4.5 2.015 4.5 4.5zM51.832 84.5c0 2.578-2.088 4.667-4.666 4.667s-4.666-2.089-4.666-4.667c0-2.577 2.09-4.594 4.667-4.666 2.712-.076 4.665 2.089 4.665 4.666z"/></svg>