<svg xmlns="http://www.w3.org/2000/svg" width="100" height="100"><circle fill="#B2B2B2" cx="50" cy="50" r="50"/><path d="M78.489 24.124c0-.875-.595-2.535-1.147-3.705l-1.9-4.028c-.764-1.616-2.801-2.882-4.636-2.882h-16.484c-1.865 0-3.855 1.319-4.53 3.002l-.644 1.604c-.802-1.04-2.17-1.771-3.471-1.771h-16.483c-1.62 0-3.415 1.113-4.085 2.534l-1.252 2.652c-.528.189-1.01.492-1.396.898-.658.693-.994 1.601-.946 2.555l.64 12.503-.037.377c0 .544.059 1.964.134 3.241-.082.329-.134.624-.134.84 0 .446.04 1.486.095 2.55-.061.269-.095.505-.095.69 0 .57.065 2.11.145 3.432l2.007 33.408c.098 1.636 1.558 2.968 3.254 2.968h45.278c1.699 0 3.148-1.335 3.233-2.975l1.841-36.005c.018-.331-.025-.653-.117-.96l.117-2.281c.02-.373-.035-.736-.153-1.078l.153-3.003c.02-.356-.032-.704-.139-1.031l.604-10.066c.083-1.333.148-2.888.148-3.469zm-1.908 16.115c-.492-.322-1.082-.503-1.692-.503h-21.075c-1.134 0-2.434-.851-2.837-1.859l-1.334-3.32c-.589-1.47-2.332-2.622-3.966-2.622h-16.483c-1.62 0-3.415 1.113-4.085 2.535l-1.77 3.75-.005-.358c0-.361.37-1.649.973-2.927l1.901-4.027c.47-.997 1.838-1.838 2.987-1.838h16.483c1.135 0 2.435.851 2.839 1.859l1.333 3.32c.589 1.47 2.331 2.622 3.966 2.622h21.074c.52 0 .99.196 1.328.552.312.328.47.756.447 1.207l-.084 1.609zm-52.274-1.222l1.901-4.027c.47-.997 1.838-1.838 2.987-1.838h16.483c1.135 0 2.435.852 2.839 1.859l1.056 2.63c-.648-1.393-2.32-2.464-3.895-2.464h-16.484c-1.62 0-3.415 1.113-4.085 2.534l-1.594 3.377c.166-.568.437-1.319.792-2.071zm29.507 1.934h21.074c.52 0 .99.196 1.328.552.118.125.206.266.279.415l-.016.284.123.006c.043.162.068.329.061.501l-.041.795c-.501-.339-1.107-.528-1.734-.528h-21.074c-1.134 0-2.434-.852-2.837-1.859l-1.057-2.629c.648 1.393 2.32 2.463 3.894 2.463zm-27.606-21.554c.47-.997 1.838-1.838 2.987-1.838h16.483c1.135 0 2.435.851 2.839 1.859l.055.136-.112.278c-.31.772-1.394 1.477-2.274 1.477h-20.88l.902-1.912zm48.614 62.559c-.051.985-.976 1.819-2.02 1.819h-45.278c-1.047 0-1.982-.835-2.042-1.824l-2.006-33.408c-.072-1.191-.134-2.605-.142-3.231l.142-.009-.04-.69c.148-.583.451-1.469.87-2.357l1.901-4.027c.47-.997 1.838-1.838 2.987-1.838h16.483c1.135 0 2.435.851 2.839 1.859l1.333 3.32c.589 1.47 2.331 2.622 3.966 2.622h21.074c.52 0 .99.196 1.328.552.139.146.242.314.318.494l-.055 1.046.166.009-1.824 35.663z"/></svg>