<svg xmlns="http://www.w3.org/2000/svg" width="100" height="100"><circle fill="#B2B2B2" cx="50" cy="50" r="50"/><path d="M25.954 42.968c.402-.065.43-1.013.316-2.471-.112-1.457-1.917-7.898-1.917-7.898l-.422-2.648-.575.091-.381-2.339s-.727-.626-1.99-.428c-1.264.202-1.761 1.022-1.761 1.022s5.139 33.689 6.499 37.052c.744 1.842 1.874 4.092 1.969 4.281.033-.211.415-2.699.554-4.68.141-2.014-1.505-13.299-2.993-22.928.157.494.448.986.701.946zm-.808-1.638c-.503-3.248-.983-6.271-1.363-8.64l.107-.018s1.809 6.441 1.922 7.899c0 0-.559.205-.658.693l-.008.066zM34.227 19.055v2.553h-1.857s-.154 0-.154.194l.154.194h1.856v.308h-1.856s-.154 0-.154.194c0 .193.154.193.154.193h1.856v2.012h-1.856s-.154 0-.154.194c0 .193.154.193.154.193h1.856v.309h-1.856s-.154 0-.154.193.154.193.154.193h1.856v2.012h-1.856s-.154 0-.154.194c0 .192.154.192.154.192h1.856v.31h-1.856s-.154 0-.154.193l.154.193h1.856v2.012h-1.856s-.154 0-.154.193l.154.193h1.856v.31h-1.856s-.154 0-.154.193l.154.193h1.856v2.012h-1.856s-.154 0-.154.192c0 .194.154.194.154.194h1.856v.31h-1.856s-.154 0-.154.192c0 .194.154.194.154.194h1.856v2.012h-1.856s-.154 0-.154.193c0 .192.154.192.154.192h1.856v.31h-1.856s-.154 0-.154.193l.154.193h1.856v2.012h-1.856s-.154 0-.154.194c0 .192.154.192.154.192h1.856v.31h-1.856s-.154 0-.154.193l.154.193h1.856v2.011h-1.856s-.154 0-.154.194c0 .192.154.192.154.192h1.856v.31h-1.856s-.154 0-.154.194c0 .193.154.193.154.193h1.856v2.011h-1.856s-.154 0-.154.194c0 .193.154.193.154.193h1.856v.309h-1.856s-.154 0-.154.194c0 .193.154.193.154.193h1.856v2.011h-1.856s-.154 0-.154.193l.154.193h1.856v.31h-1.856s-.154 0-.154.193l.154.193h1.856v2.011h-1.856s-.154 0-.154.193l.154.193h1.856v.311h-1.856s-.154 0-.154.193l.154.193h1.856v2.012h-1.856s-.154 0-.154.191c0 .195.154.195.154.195h1.856v.309h-1.856s-.154 0-.154.193l.154.193h1.856v2.012h-1.856s-.154 0-.154.193l.154.193h1.856v.309h-1.856s-.154 0-.154.193c0 .195.154.195.154.195h1.856v2.012h-1.856s-.154 0-.154.191c0 .195.154.195.154.195h1.856v.309h-1.856s-.154 0-.154.193l.154.193h1.856v2.01h-1.856s-.154 0-.154.195c0 .193.154.193.154.193h1.856v.309h-1.856s-.154 0-.154.193l.154.193h1.856v2.012h-1.856s-.154 0-.154.193l.154.193h1.856v.309h-1.856s-.154 0-.154.193c0 .195.154.195.154.195h1.856v2.01h-1.856s-.154 0-.154.195c0 .191.154.191.154.191h1.856v.311h-1.856s-.154 0-.154.193l.154.193h1.856v2.012h-1.856s-.154 0-.154.191c0 .195.154.195.154.195h1.856v.309h-1.856s-.154 0-.154.193l.154.193h1.856v2.012h-1.856s-.154 0-.154.193l.154.193h1.856v.311h-1.856s-.154 0-.154.191c0 .193.154.193.154.193h1.856v2.555h42.549v-61.89h-42.548zm2.321 59.57h-1.547v-.234h.386s.155 0 .155-.193c0-.191-.155-.191-.155-.191h-.386v-.311h.386s.155 0 .155-.193l-.155-.193h-.386v-.232h1.547v1.547zm0-3.096h-1.547v-.232h.386s.155 0 .155-.193l-.155-.193h-.386v-.309h.386s.155 0 .155-.195c0-.191-.155-.191-.155-.191h-.386v-.232h1.547v1.545zm0-3.093h-1.547v-.232h.386s.155 0 .155-.193l-.155-.193h-.386v-.311h.386s.155 0 .155-.191c0-.195-.155-.195-.155-.195h-.386v-.23h1.547v1.545zm0-3.094h-1.547v-.232h.386s.155 0 .155-.195c0-.193-.155-.193-.155-.193h-.386v-.309h.386s.155 0 .155-.193l-.155-.193h-.386v-.232h1.547v1.547zm0-3.096h-1.547v-.232h.386s.155 0 .155-.193l-.155-.193h-.386v-.309h.386s.155 0 .155-.193c0-.195-.155-.195-.155-.195h-.386v-.23h1.547v1.545zm0-3.094h-1.547v-.232h.386s.155 0 .155-.193l-.155-.193h-.386v-.309h.386s.155 0 .155-.195c0-.191-.155-.191-.155-.191h-.386v-.232h1.547v1.545zm0-3.095h-1.547v-.23h.386s.155 0 .155-.195c0-.193-.155-.193-.155-.193h-.386v-.309h.386s.155 0 .155-.193l-.155-.193h-.386v-.234h1.547v1.547zm0-3.094h-1.547v-.233h.386s.155 0 .155-.193l-.155-.193h-.386v-.309h.386s.155 0 .155-.195c0-.191-.155-.191-.155-.191h-.386v-.232h1.547v1.546zm0-3.094h-1.547v-.232h.386s.155 0 .155-.193l-.155-.193h-.386v-.311h.386s.155 0 .155-.193l-.155-.193h-.386v-.234h1.547v1.549zm0-3.095h-1.547v-.232h.386s.155 0 .155-.193l-.155-.193h-.386v-.31h.386s.155 0 .155-.193l-.155-.193h-.386v-.232h1.547v1.546zm0-3.095h-1.547v-.231h.386s.155 0 .155-.193c0-.194-.155-.194-.155-.194h-.386v-.309h.386s.155 0 .155-.193c0-.194-.155-.194-.155-.194h-.386v-.231h1.547v1.545zm0-3.094h-1.547v-.232h.386s.155 0 .155-.193c0-.194-.155-.194-.155-.194h-.386v-.31h.386s.155 0 .155-.192c0-.194-.155-.194-.155-.194h-.386v-.231h1.547v1.546zm0-3.094h-1.547v-.232h.386s.155 0 .155-.193l-.155-.193h-.386v-.31h.386s.155 0 .155-.192c0-.194-.155-.194-.155-.194h-.386v-.231h1.547v1.545zm0-3.095h-1.547v-.232h.386s.155 0 .155-.193l-.155-.193h-.386v-.31h.386s.155 0 .155-.192c0-.193-.155-.193-.155-.193h-.386v-.232h1.547v1.545zm0-3.095h-1.547v-.231h.386s.155 0 .155-.194c0-.192-.155-.192-.155-.192h-.386v-.31h.386s.155 0 .155-.194c0-.192-.155-.192-.155-.192h-.386v-.232h1.547v1.545zm0-3.094h-1.547v-.231h.386s.155 0 .155-.193l-.155-.193h-.386v-.31h.386s.155 0 .155-.193l-.155-.193h-.386v-.234h1.547v1.547zm0-3.094h-1.547v-.233h.386s.155 0 .155-.193l-.155-.193h-.386v-.31h.386s.155 0 .155-.192c0-.194-.155-.194-.155-.194h-.386v-.232h1.547v1.547zm0-3.095h-1.547v-.232h.386s.155 0 .155-.193-.155-.193-.155-.193h-.386v-.31h.386s.155 0 .155-.193c0-.194-.155-.194-.155-.194h-.386v-.232h1.547v1.547zm0-3.094h-1.547v-.232h.386s.155 0 .155-.193c0-.194-.155-.194-.155-.194h-.386v-.308h.386s.155 0 .155-.194l-.155-.194h-.386v-.231h1.547v1.546z"/></svg>