<svg xmlns="http://www.w3.org/2000/svg" width="100" height="100"><circle fill="#B2B2B2" cx="50" cy="50" r="50"/><g fill="#1D1D1B"><path d="M61.262 25.92c.338-.112.283-.727.452-1.396.17-.67.394-.727.678-1.005.28-.28.508-1.731-.508-1.843 0 0-3.216-2.85-4.29-2.793-1.074.055-2.935.726-3.5 1.285-.339.167-1.919-.503-2.652 1.173-.734 1.676-.847 4.078-1.581 4.581-.733.503-2.427 2.234-1.975 3.519l.164.326c-.32.261-.643.572-.955.959-1.393 1.722-1.725 1.661-1.777 1.524-.278.426-2.671 2.219-3.302 2.219-.678 0-2.089.894-2.372 1.509-.282.615-1.128 1.62-1.241 2.401-.113.783 1.468 8.771 1.468 9.888s.112 3.8 2.089 3.744c1.975-.058 2.765 0 3.161.279.225.158.741-.153 1.207-.616-.321 1.421-.584 2.825-.531 3.353.114 1.117-.395 3.743-.45 4.413-.058.671.45 2.795.45 3.632s0 2.011-.338 2.794c-.338.782-1.186 6.089-1.072 6.312.113.224.451.112.451.112s0 1.453.227 2.96c.226 1.509.395 4.973.226 5.755-.283.279-.79.279-.79.279s0 .949-.34 1.509c-.338.559-1.071 2.793-.45 2.904.62.112 6.321.449 7.225.56.902.112 3.668.225 4.289-.838.45.111 2.313.278 2.879-.896.51-.893.564-1.395.226-1.395-.338 0-2.935-.111-3.33-.504-.396-.392-1.298-1.396-1.863-1.563-.565-.168-1.016-.503-1.016-.503s.396-.949-.282-.671c-.226-.111-.225-3.688.339-5.363l.339-1.117 1.637.057s0-1.174.509-1.117c.507.055 1.975.504 2.201.055.226-.446 1.298-8.657 1.468-10.559.168-1.898-.734-10.055-.734-10.669 0-.615.338-.839.564-.783.226.056.959.391.903.671-.059.279-.284.613.338.559.339-.057.509.559 1.13-.057.168-.111.338.448.789-.334.281-.112.903 0 .846-1.118-.225-1.062-2.2-3.352-2.482-3.742-.282-.392-1.186-1.452-1.298-1.788-.113-.335-.565-5.139-.395-6.424.167-1.286-.789-5.364-1.072-5.978s-.904-1.341-.791-1.621c.111-.279.564-1.229 1.072-1.005.508.224 1.581 1.285 2.371.28.169-.335.339-.614.509-.783.169-.167.111-.559.111-.559s.227.28.451-.558c.396 0 .961-.056.678-.727-.343-.617-.4-1.176-.06-1.287zM45.317 32.249l.028-.072c-.018-.071-.052.008-.028.072z"/></g><path fill="#1D1D1B" d="M45.102 35.026c-.221-.799-.439-.688-.552-.662l-.715-.304c-.248-.056-.745-.056-.745-.056s-1.211-.467-1.983-.496c-.137-.44-1.049-.854-1.049-.854l-.187-.287v.004c-.194-.3-.526-.812-.889-1.399.084-1.377-.495-2.701-.495-2.701s-.248-.524-.275-.828c-.026-.301-.414-.578-.497-.632l-.091-.128-.093-.163-.035-.068-.07-.135-.033-.065-.073-.144-.02-.042-.026-.054.001-.001c0-.003.167-.331.304-.688.137-.36-.14-.607-.166-.689-.028-.083.026-.332.22-.387.193-.055.387-.331.414-.744.026-.413-.468-.8-.856-1.323-.385-.522-1.46-.826-1.46-.826s-.193-.552-.277-.661c-.083-.112-.136-.028-.521.302l-.416.551-.494.057c-.221.026-.718.026-.718.026s-.191.109-.385 0c-.193-.11-.414-1.598-.414-1.598s0-.084.082-.084c.085 0 .303-.496.387-.798.083-.304.083-1.076.055-1.407-.026-.329-.246-.689-.246-.689l-.195-1.185s-.191-1.186-1.102-2.177c-.91-.994-2.756-1.296-3.749-1.021-.992.277-2.149 1.625-2.371 2.316-.22.688-.166 1.765-.166 1.765-.522.438-.68.688-.786 1.01-.228.397-.2.91-.199.934l.082-.004.009-.248c.064.272.333.38.62.319.386-.083.605-.689.605-.689l.008.035v-.001l.572 2.612c.413 1.462 1.569 2.646 1.569 2.646l-.11.027c-.11.027-.166.166-.083.413.083.247.276.524.276.772 0 .249.055.497.191.69.14.192.22.358.22.358s-.11.938-.11 1.02c0 .083-.331.552-.661.937-.33.386-.414.414-.744 1.075-.331.662-.303 1.351-.415 1.6-.109.247-.165 1.323-.135 1.543.026.22-.057 1.515-.112 1.874-.056.359-.138.882-.302 1.489-.167.606-.332 1.6-.442 2.205-.112.606-.248 1.158-.248 1.158l-.854-.083c-.332-.027-.745-.22-.993-.11-.249.11-.633-.166-.633-.166s-.828-.276-1.297-.276c-.468 0-.964.33-.964.33l-.33-.275.221-.413.22-5.43-5.789-3.748-.193.302-.964.442-.276-.138v1.379l-.634.22-.274-.137-.221 5.485s.771.551.689.551c-.082 0-.413.193-.413.332 0 .136.358.384.607.467.247.083.716.11.716.11l-.027.111c-.028.109.22.688.276.827.055.136.331.303.331.303s.027.109.192.193c.167.081.717.081.717.081s-.028.415.165.497c.193.083.965-.082.965-.082s1.543 1.377 1.708 1.377c.166 0 1.185-.469 1.185-.469l.166.551.248.249.166.303s.495.247.633.302c.139.056 1.046.855 1.131.993.083.138 1.102.304 1.102.304l1.378.385.11.275s-.276 2.178-.359 2.481c-.082.303-.219 1.681-.219 2.039 0 .357.193.415.689 1.158.496.744 1.653.966 1.653.966l.112.359-.276.496s-.44 1.874-.44 1.956l-.248 1.903c0 .082-.138 2.535-.138 2.535s0 .965-.027 2.123c-.028 1.157-.331 2.121-.551 2.646-.221.522 0 .771 0 1.295 0 .521-.333 1.321-.47 2.289-.138.962.358 1.542.524 1.9.165.36-.083.385-.304.688-.22.303-.055.771-.027 1.489.027.717 0 1.404-.083 2.398-.082.992.33 2.728.689 4.188.358 1.464.248 1.931-.083 2.315-.331.387-.276.497-.331.994-.056.496.11 1.019.028 1.103 0 0-.911.854-1.324 1.073-.413.221-1.901.633-1.901.633s-.358 0-1.241-.081c-.882-.083-1.462.8-1.269 1.792.192.991 1.764 1.929 5.402 2.123 3.64.192 4.906-.083 5.211-.497.302-.413.275-.8.275-.8l.138-.277s.109-.467.109-.825c0-.357.275-3.362.359-4.987.082-1.629.193-6.893.136-7.665-.055-.771 0-1.653-.026-2.398l-.056-1.791c-.026-.662.027-2.509.027-2.509s.522 1.185.663 1.599c.137.413.771 1.323.854 1.463.082.137.139.496.36 1.294.22.801 1.351 3.171 1.351 3.171l2.783 7.938s-1.047-.192-1.321-.192c-.276 0-.689.33-.938.854-.247.524 0 .828.222 1.434.219.604 2.757 1.239 2.757 1.239l2.121.965s1.874 1.323 2.646 1.159c.771-.166 1.268-.69 1.35-1.076.084-.385-.028-.716-.028-.716l-.247-1.517c-.054-.331-.578-.69-.578-.69l-.303-1.073s-.911-3.142-1.544-5.1c-.634-1.957-1.875-5.43-2.948-8.49-1.075-3.061-1.93-4.576-2.013-4.851-.084-.275.025-.304.025-.883 0-.578.058-2.232.058-2.232l.027-.522.304-.248s.191.056.329-.027l.194-.357.026-1.214.248 1.269s.11.33.275.275c.167-.056.304-.357.358-.635.056-.274.028-.605 0-.99-.028-.389-.055-1.269-.055-1.269l.138-1.076.413-.909s.359.303.743.221c.386-.084 1.379-2.013 1.379-2.013l.017-.009.333-.186.047-.027.153-.091.085-.051.138-.087.1-.065.12-.087.104-.072.106-.088.077-.063.127-.139c.247-.358 1.431-2.149 2.232-3.417.799-1.269.964-2.565 1.295-4.108.331-1.542.359-1.874.523-2.757.167-.882.303-3.114.303-3.747.003-.634-.135-.662-.356-1.461z"/><path d="M58.01 52.952l.164.049c.043.255.11.632.176 1.173.105.85.835.751.835.751s.128.334.128.423l.028.344c.016.225.333.721.333.721s-.139.161-.219.396c-.078.233.021.735.141 1.096.119.361.369.792.369.792s-.088.115-.098.204c-.004.049.042.115.098.182-.038.028-.066.086-.07.163l-.048.886c0 .1.118.068.225.005.104-.062.104-.118.099-.203l-.055-.687c.124.155.629.984.928 1.907.305.961.666 1.738.902 2.015.233.277.573.225.626.251.251.126.478.287.911.078.435-.21.741-.476.741-.476l.021.272.035.139s-.173.639-.192.863c-.02.222-.888 3.119-.996 3.437-.11.318-.553 1.481-.736 1.842-.184.359-.209.84-.25 1.263-.043.421-.146 1.105-.203 1.361-.058.257.053.198.136.257.083.056.396.093.396.093s-.053 1.138-.04 1.345c.009.21.154.193.182.205.024.012.109.024.12.135.01.109.134.291.134.291-.25.568-.156 1.166-.14 1.57.016.407 0 .7 0 .7s-.167.021-.194.13l-.047.275s-.125.031-.151.204c-.025.172-.166.24-.396.465l-.225.392c-.052-.027-.135.092-.14.214-.007.119-.179.907-.21.922-.086.043-.094.429-.053.741.043.312.422.656.48.72.058.062.377.353.459.37.083.015.141-.126.219.03.365.73 1.039 1.382 1.482 1.644.441.262 1.836.288 2.362.058.528-.229.601-.432.631-.683l-.13-.371c-.059-.426-.502-.845-.6-.917-.1-.073-.574-.412-.584-.517-.012-.104-.263-.468-.414-.501-.15-.031-.15-.109-.15-.172s.11-.152.094-.24l-.322-.381c-.162-.229-.178-.15-.178-.15-.058-.037-.021-.104-.025-.157-.006-.052-.006-.177.029-.245.141-.26-.029-.512-.093-.517-.062-.005-.059-.059-.059-.104l-.067-.107.314-.832c.094.021.73.508.844.527.115.021.095-.094.939-.512.846-.417 2.713-.292 4.914-.187 2.201.104 2.723-.053 2.723-.053s.011.312.938 2.023c.93 1.712 1.202 3.353 1.202 3.353-.095.146.042.199.042.199s.1.443.186.611c.091.166.074.526.074.526s-.088.053-.088.21c0 .154.131.931.224 1.104.095.173.241.449.198.486-.107.093-.062.256.012.314.072.054.136.253.145.343.012.087.339.235.579.223.24-.011.903-.024 1.159-.088.255-.062.277-.37.324-.427.045-.058.099-.104.225-.131.125-.026.645.073 1.125.021.481-.054 1.094-.355 2.07-1.015.977-.655 1.023-.916 1.054-.983.032-.068-.047-.163-.15-.298-.104-.137-.135-.101-.135-.101-.198-.235-.731-.265-.993-.235-.26.033-.744.036-.871-.03-.125-.067-.479-.14-.589-.084-.11.059-.364.026-.364.026s-.037-.021-.094-.265c-.06-.246-.162-.246-.219-.324-.059-.079-.506-.288-.586-.329-.078-.041-.129-.062-.188-.015-.055.047-.24.172-.328.126-.088-.048-.082.062-.082.151 0 .088-.09.104-.09.104s-.074-.042-.074-.136-.104-.178-.197-.198-.291-.491-.303-.658c-.009-.165-.126-.229-.126-.229-.321-2.993-.933-5.296-.933-5.296l.136-.203s.038-.12.015-.267c-.02-.146-.885-3.655-.838-3.911.045-.256-.12-.641-.146-.688-.025-.049-.111-.09-.111-.382 0-.831-.209-2.021-.348-2.363-.141-.344-.138-.317-.111-.449.1-.503-.25-2.488-.25-2.488.168-.033.365-.455.428-.532.064-.078.35-.443.34-.542l-.064-.69c.072.033.199-.055.25-.108l.222-.125c.076-.063.341-.343.392-.396l.118.458c-.02.04-.062.229-.021.413.041.183.271.244.309.178l.056-.35c.054-.105.054-.194.06-.366.005-.172.011-.83-.074-.985-.084-.156-.145-.465-.136-.522l-.03-.432c-.012-.156-.146-.45-.256-1.106-.112-.657-.167-.855-.197-.896l-.061-.179s.047-.058.039-.183c-.012-.125-.143-.193-.143-.193.025-.214-1.021-1.372-1.021-1.372.053-.261-.041-.281-.084-.396-.042-.113-.265-1.285-.246-1.413.021-.131-.077-2.573-.25-3.053-.17-.48-.281-1.158-.29-1.413-.012-.256-.263-.881-.263-.881s.105.057.146.005l.131-.063c.041-.01.078-.073-.01-.177-.089-.104-.309-.601-.433-1.107-.126-.505-.231-.854-.435-1.116-.203-.261-.824-.641-.824-.641.067-.354.191-.386.257-.594.062-.209.317-.424.493-.539.179-.114 1.169-.475 1.621-.741.456-.266.169-1.006.138-1.08-.032-.073.021-.183.053-.292.032-.11-.041-.302-.093-.354l-.169-.1c0-.046.079-.172.159-.256.077-.084.03-.271-.086-.396-.113-.126-.15-.376-.15-.376.135-.104.115-.26.115-.354 0-.093.02-.145-.073-.25-.095-.104-.44-.262-.573-.313-.137-.052-.189-.073-.209-.136l-.015-.058.098-.098-.105.034-.041-.148-.052-.803c-.04-.095-.168-.156-.264-.46-.112-.353-.719-1.241-1.065-1.768l-.03-.038c.457.181 1.002.689 1.295 1.013-.306-.336-.855-.877-1.32-1.049l-.004-.002c-.105-.127-.252-.231-.414-.314l.043-.014c.076-.023.185-.042.324-.032.275.019.684.137 1.134.606-.453-.473-.851-.611-1.132-.631-.114-.007-.278.007-.396.056-.167-.084-.344-.143-.502-.184l.052.001-.093-.011c-.229-.054-.412-.071-.472-.056-.089.022-.784.087-1.403.151-.408-.074-1.18.029-1.889.19l-.161.038c-.306.023-.501.171-.56.219-.521.272-1.141.804-1.227.955-.11.195-.094.412-.18.444l-.363-.018c-.266.007-.563.079-.754.281.184-.194.49-.251.754-.257l.303.012c-.387.104-.948.895-1.07 1.708-.032.213-.025.446.006.68.016.48.062.967.146 1.336.037.687.141 1.345.32 1.604-.153-.221-.23-.777-.266-1.395l.042.124.014.147c.013.169.054.294.091.376.016.217.037.411.061.549-.023-.135-.041-.324-.054-.534l.081.132-.061-.129-.025-.075-.016-.348c.029.149.064.28.104.39.035.25.074.478.11.634-.035-.15-.071-.368-.102-.608l.047.108c.047.494.134.931.261 1.159l.002.025-.053.36c-.053.357.054.547.054.547l-.028-.137c-.013-.093-.017-.228.01-.405l.028-.205.034.205c.004.222.067.339.067.339l-.028-.139-.004-.059.082.228c.016.245.029.609-.008.734.037-.123.04-.431.035-.684l.015.022.027.044.096.459c.073.354.237.494.239.497l-.075-.121c-.042-.083-.093-.209-.13-.383l-.069-.332c.109.234.206.565.271.72.211.501.694.766.694.766h.005l.211.144c.127.069.281.13.441.138l.168.315-.004.139c-.104-.012-.18.064-.18.064-.168-.586-.73-.53-.824-.53-.092 0-.782.151-.912.094-.13-.058-.424.026-.668.14-.178.083-.771.257-1.127.346-.134-.136-.553-.552-.637-.569-.1-.021-.141-.046-.155-.098-.017-.053-.11-.085-.188-.063s-.463.183-.73.266c-.265.083-.355.1-.441.177-.09.078-.319.339-.289.694.021.232.059.499.082.658-.229.06-.305.167-.405.239-.151.108-.989.403-1.221.443-.229.04-1.054.271-1.231.343-.178.073-.438.126-.547.277-.111.151-.167.319-.167.319s-.151.042-.293.349c-.094.207-.087.616-.067.929l-.131.329c-.025.109-.056.283.038.307zm7.397-10.199c-.038-.256-.063-.554-.077-.866l.066.27.004.34.007.256zm.187.411l-.001-.067.076.375.031.229c-.044-.147-.079-.33-.106-.537zm-.039.159l.037.061.017.273-.05-.289-.004-.045zm-.11-.881l.064.764-.044-.149-.02-.615zm.047.024l-.001.092-.011-.127.012.035zm.028.318l.064.474.008.126-.037-.064-.049-.612.014.076zm.063-.045l.064.56-.063-.512-.001-.048zm.054.323l.049.135.046.468-.054-.208-.041-.395zm.043.043l-.04-.201.034.129.006.072zm.035-.107l-.004-.015.004.006v.009zm.001.225l-.005-.01-.024-.076-.003-.068.029.127.003.027zm.005.005l-.001-.01.001.001v.009zm.025.473l-.014-.037-.041-.454.028.054.003.037.024.4zm.014.16l-.049-.124-.024-.197.049.143.01.061-.01-.06.013.029.011.148zm.021-.615l-.014-.028-.001-.002-.003-.111.016.1.002.041zm.004.044l-.012-.048.008.012.004.036zm.097.111l-.045-.19.042.139.003.051zm.011.276l-.021-.112.02.083.001.029zm.002.027l-.057-.206-.009-.114.023.099.015.065.025.129.003.027zm.007.156l.023.379-.049-.289-.021-.235.024.071.005.028-.005-.028.023.074zm.032-.232l-.029-.126v-.046l.025.125.004.047zm.044.353l-.066-.218-.001-.041.064.237.003.022zm.025.081l-.007-.024-.002-.009.01.028-.001.005zm.026.262l-.02-.153.007.017.013.136zm.003.453l-.012.247c-.112-.209-.179-.615-.216-1.085l-.01-.125.034.055-.034-.056-.021-.389.033.12.035.409c.014.168.053.293.09.378.018.215.037.409.061.547-.023-.136-.04-.323-.054-.533l.08.13-.062-.129-.023-.075-.018-.368.08.228.039.28c.011.157.013.288-.002.366zm10.236 17.979c.047-.006.194-.178.194-.178l.05.03c-.067.018-.225.204-.225.204l-.019-.056zm-7.746-25.178l.789-.126c-.199.049-.468.107-.789.126zm-.043-.028c.731-.17 1.514-.307 1.92-.249l-.748.084-.252.016-.92.149zm-.567 10.111l.008.004h.002l-.009-.001-.001-.003zm-.476-.115l.15.062.186.092c-.118-.032-.235-.087-.336-.154zm.023-.037l.055.048-.102-.048h.047zm.041 0l.117.074.023.013-.054-.012-.096-.075h.01zm.045 0l.029.04-.059-.04h.03zm.18.022l.1.084-.012-.001-.065-.004-.124-.039-.064-.062.122.001.043.021zm.057-.001l-.046-.02.014.001.032.019zm.059.08l-.089-.066.063.021.026.045zm.024.047l-.091-.021.04.002h.02l.025.006.006.013zm.008.013l.016.024.006.012-.037-.008-.202-.074.075.012.142.034zm.051-.069l-.013-.011.009.003.004.008zm.012.022l-.027-.005-.012-.011-.006.006-.014-.033h.002l.009.001.046.039.002.003zm.003.058l.045.047.002.002h-.022l-.019-.009-.023-.037-.002-.008.018.004.001.001zm.015.012l.022.021.007.011-.029-.032zm-.008-.043l-.005-.001.005.001zm.008.015l-.003-.002.003.002zm.064-.024l-.039-.009-.013-.025.044.019.008.015zm.078.182l.013.027-.042-.04-.003-.005.032.018zm-.026-.041l.006-.001.001.001.003.003-.01-.003zm-.008-.06l-.003-.008.019.006-.016.002zm-.011-.028l-.002-.004.039.011.025.01v.001l-.062-.018zm.002.031l-.02.002-.016-.011-.01-.02.008.004.029.009.009.016zm-.052-.044l-.002-.001-.001-.003.039.011.001.005-.028-.008-.009-.004zm-.01-.02l-.003-.003.008.002.015.008-.02-.007zm.062-.01l-.021-.007-.005-.01.026.017zm.06.045l-.023-.006-.032-.014.054.017.001.003zm.002.001l-.002-.003.002.001v.002zm.034.065l.021.041-.06-.03.039-.011zm.039-.006l-.013-.007-.002-.006h.004l.011.013zm.033.036l-.022-.02.013.007.009.013zm.017.036l-.053-.02-.025-.049.004-.002.031.012.026.023.017.036zm-.023.043l-.014-.03.034.009-.02.021zm-.013-.006l-.11-.072-.002-.001.099.045.013.028zm-.048.074l-.033-.074.035.032-.035-.032-.013-.034.087.057-.041.051zm-.009-.005l-.076-.122.04.04.036.082zm-.008.042l-.148-.185.026-.002.123.18-.001.007zm-.027.089l-.099-.19.115.117-.016.073zm-5.122.548c.129-.282.156-.448.156-.448l.457.177.277.124c-.109.049-.23.132-.339.273-.21.271-.334.568-.334.568s-.021.044-.256.064c-.024-.176-.058-.549.039-.758zm-3.038 11.398l.026-.121.075-.047.04.125c.01.084-.053.112-.107.135-.057.022-.037-.054-.034-.092zm.071-.815l.014.102-.059.026-.012-.07.057-.058zm-2.026-6.419c0-.075.055-.141.126-.154l.004.043.037.269-.008.003c-.089 0-.159-.072-.159-.161z"/></svg>