<svg xmlns="http://www.w3.org/2000/svg" width="100" height="100"><circle fill="#B2B2B2" cx="50" cy="50" r="50"/><g fill="#1D1D1B"><path d="M60.49 16.512c.425-.141.355-.912.567-1.753.213-.842.495-.912.851-1.262.354-.351.638-2.173-.638-2.313 0 0-4.037-3.576-5.384-3.506-1.348.069-3.684.912-4.394 1.612-.425.21-2.408-.631-3.329 1.473s-1.062 5.119-1.984 5.75c-.92.631-3.046 2.804-2.479 4.417l.207.409c-.402.328-.806.718-1.198 1.204-1.748 2.162-2.165 2.084-2.231 1.913-.349.535-3.353 2.785-4.145 2.785-.85 0-2.621 1.122-2.976 1.894-.354.771-1.417 2.033-1.559 3.014-.142.982 1.842 11.008 1.842 12.411s.141 4.768 2.621 4.698 3.472 0 3.968.351c.281.199.93-.192 1.515-.772-.403 1.783-.733 3.545-.666 4.207.142 1.402-.496 4.697-.566 5.539-.071.842.566 3.507.566 4.559 0 1.05 0 2.522-.425 3.506-.424.981-1.487 7.642-1.346 7.921.142.281.566.142.566.142s0 1.823.283 3.715c.284 1.894.496 6.241.284 7.223-.354.351-.992.351-.992.351s0 1.191-.425 1.894c-.425.701-1.346 3.506-.566 3.646.779.142 7.934.562 9.067.702s4.604.281 5.383-1.052c.566.14 2.904.35 3.614-1.123.638-1.121.707-1.752.282-1.752-.424 0-3.684-.14-4.179-.632-.497-.491-1.629-1.752-2.338-1.962-.709-.211-1.275-.632-1.275-.632s.497-1.191-.354-.842c-.284-.14-.282-4.629.425-6.73l.425-1.402 2.055.07s0-1.473.638-1.401c.638.068 2.479.631 2.762.068.284-.561 1.631-10.866 1.844-13.252.21-2.383-.922-12.62-.922-13.391 0-.771.425-1.053.709-.982.282.07 1.202.491 1.133.841-.072.351-.355.771.425.701.425-.071.638.701 1.417-.071.212-.14.425.562.991-.42.354-.141 1.134 0 1.062-1.403-.284-1.333-2.764-4.207-3.117-4.697-.354-.492-1.488-1.823-1.629-2.244-.142-.42-.709-6.45-.495-8.063.211-1.613-.991-6.731-1.347-7.503-.354-.771-1.135-1.683-.991-2.033.141-.351.707-1.543 1.345-1.262s1.984 1.612 2.977.351c.212-.421.425-.771.638-.982.212-.21.141-.701.141-.701s.284.351.566-.701c.497 0 1.206-.07.851-.911-.423-.775-.496-1.477-.07-1.617zM40.479 24.455l.035-.09c-.023-.089-.066.01-.035.09z"/></g></svg>