<svg xmlns="http://www.w3.org/2000/svg" width="100" height="100"><circle fill="#B2B2B2" cx="50" cy="50" r="50"/><path d="M43.593 55.164c.039.021.067.097.067.185 0 .078-.021.145-.051.174.628 14.499 1.401 32.016 1.401 32.016s.109.049.113.237l.049 1.871c.004.166-.957.26-1.249.26-.291 0-1.177-.004-1.179-.17l-.038-1.855c-.004-.167.092-.253.092-.253l-.175-6.63h-.126v.083l-.064.062-.665-.115c-.085-.014-.084-.114-.084-.114s-.958.187-1.28.187c-.321 0-1.373-.176-1.602-.218-.229-.041-.271-.214-.271-.214s-.196-.008-.196-.155c0-.135.113-.134.113-.134s-.107-5.523-.107-6.463c0-.938.301-1.28.645-1.362.359-.088 2.996-.222 2.996-.222.192-.015.337.049.417.097l-.432-16.351-.759-.047c-.148-.007-.189-.133-.189-.133l-2.444-.04v.69s-.009.163-.134.16l-2.334-.077c-.153-.005-.164-.132-.164-.132v-.706l-2.737-.084c-.29-.009-.293-.318-.293-.318l-.039-2.341s-.006-.273.267-.263l3.98.164v-.317s-.005-.175.12-.203l4.303-.91s-.004-.145.083-.162l.214-.039-.387-14.686s.024-4.894.458-7.728c.402-2.625 1.023-4.671 1.471-5.856.449-1.184 1.975-5.592 6.899-8.658 1.555-.968 3.928-1.619 6.684-1.619 1.062 0 3.289.37 3.289.37s.108-.111.225-.097l.298.012c.078-.013.306-.093.433-.093.124 0 7.499 1.435 7.597 1.461.101.025.282.319.282.319s.348.074.411.127c.189.156-.305.382-.305.382s-.036.234-.202.379c-.168.147-1.031.614-1.405.625-.343.011-7.326-.979-7.461-1.041l-.209-.167s-.423-.011-.443-.141c-.029-.186.319-.42.319-.42s.097-.658.2-.856c0 0-1.96-.278-3-.278-2.664 0-4.801.766-6.411 1.78-3.538 2.227-5.473 5.807-6.202 8.22-.336 1.112-1.001 3.29-1.29 5.744-.337 2.875-.271 6.069-.271 7.472 0 .479.267 6.837.613 14.91.039.021.066.095.066.186 0 .076-.02.142-.05.172l.062 1.434c.042.016.074.094.074.188 0 .082-.024.153-.059.179l.066 1.522z"/></svg>