<svg xmlns="http://www.w3.org/2000/svg" width="100" height="100"><circle fill="#B2B2B2" cx="50" cy="50" r="50"/><path stroke="#000" stroke-width=".299" d="M72.411 51.103c0-.743-.477-1.368-1.139-1.604v-.218c0-1.309-1.546-1.709-1.546-1.709h-28.494999999999997l1.024-.968c0-5.351.252-21.044.323-26.334h.492v-1.69c0-1.988-2.442-2.442-2.442-2.442h-3.403c-.076-.443-.459-.781-.924-.781h-1.708c-.465 0-.849.338-.924.781h-4.081c-1.97 0-2 2.708-2 2.708v1.425h.488l.65 28.014c.419 4.822 1.509 4.208 7.871 11.076 5.929 6.399 1.205 17.986 0 25.282l2.391.001h22.83l-1.417-15.831c9.959-1.822 9.324-11.503 9.324-11.503l1.546-2.704v-1.898c.664-.237 1.14-.862 1.14-1.605z"/></svg>