<svg xmlns="http://www.w3.org/2000/svg" width="100" height="100"><circle fill="#B2B2B2" cx="50" cy="50" r="50"/><path stroke="#000" stroke-width=".299" d="M76.741 49.222c.07-.076.08-.144.028-.204-.181.009-.315.174-.466-.039-.103-.142-.184-.303-.373-.328-.722-.104-.641.02-.991-.551-.065-.103-.017-.521-.067-.561-.139-.105-.457.019-.623-.017-.251-.055-.292-.402-.202-.601.087-.193.245-.05.331-.143.03-.031-.163-.223-.217-.222-.336.008-.614.374-.953.337-.538-.058.914-.775.854-.662.14-.257.075-.481.361-.673.224-.15.809-.339.821-.673.018-.454-1.798-.286-1.404-.846.218-.309-.291-.499-.509-.536-.308-.052-.371.038-.558.28-.232.301-.467.604-.783.822-.231.16-.59.226-.785.427-.201.204-.931 1.057-1.026.448-.041-.26-.123-.901-.412-1.023-.076-.033-.654.553-.699.352-.101-.449.736-.9.708-1.372-.019-.293-.82.068-.793-.131.019-.136.145-.275.199-.398.094-.218-.034-.417.035-.615.121-.347 1.019-.257 1.06-.731.038-.439.625-.358.325-.948-.481-.944-.018-.368.363-.942.303-.455-.474-.685-.485-.963-.02-.447 1.136-.101.88-.741-.37-.929-2.107.527-2.601.564-.137.01.259-.737.288-.805.256-.604.412-1.01 1.21-.791.713.195.898-2.119-.294-.925-.25.252-.979.047-.759-.372.068-.13.768-1.266.735-1.266-.338.008-.455.528-.686.666.099-.059-.667-.5-.687-.515-.37-.301.482-.402.563-.433.439-.167.662-.833.979-1.151.621-.62-.917.006-.829-.439.053-.258.139-.484.242-.727.043-.103.498-1.04.124-.822-.359.209-.21.084-.427-.12-.199-.189-.843.495-.997.612-.179.137-.614.597-.845.618-.216.02-.711-.58-.67.066.023.394.169.765.233 1.152.024.148-.822-.037-.96.007-.562.179-.645.21-1.235.09-.301-.06-1.444.097-1.587-.046-.246-.245 1.112-.859 0-.907-1.159-.05-.394-.321.252-.477.215-.051.129-1.224.02-1.336-.293-.299-1.657.886-1.553-.026.105-.938.919-.517 1.319-.969.037-.041.179-.454.239-.429.351.143.236.379.679.292.312-.062-.193-1.72-.268-1.893-.166-.381-1.052-.203-1.018-.045-.053-.246.06-.56.269-.706.226-.159.398.063.615.125.21.061.856.274 1.028.096.142-.148-.063-.456.102-.649.517-.594-.62-.709-.948-.875-.091-.046-.26-1.455-.266-1.59-.023-.536.915.569 1.01.653.163.146.379-.558.53-.802.065-.105.448-.867.169-.912-.282-.047-.702.308-.931.43-.699.373-.954.05-1.202-.621.055.146.688-.068.763-.134.386-.341.507.184.779.049.32-.16.132-.517.575-.321.169.075.946.56 1.041.475.272-.244-.487-1.129-.643-1.226-.591-.372.647-.726.528-1.118-.038-.127-.987.116-1.181-.219-.211-.367 1.546-.025 1.61-.058.288-.143.19-1.039-.125-1.111-.291-.066-1.574.229-1.69-.047l.226-.139c.007-.084-.477.014-.498-.159-.064-.52-.495-.472-.888-.341-.87.289-.383-1.411-.951-1.092-.229.127-1.356.45-.69-.016.26-.182 2.068-.668 2.053-.683-.204-.241-1.584-.503-1.211-1.052.353-.516 1.457-.364.915-1.2-.072-.11-.498.368-.579.409-.326.162-.578-.2-.982-.02-.751.337-.82-.936-1.26.165-.093.235-.129.346-.314.201-.178-.135-.312.623-.619.506-.19-.072-.652-.535-.6-.753.071-.302.725-.423.978-.491.718-.189-.402-.965-.235-1.301.201-.41 1.737.146 1.732.07-.024-.332.104-.587.146-.909.055-.403-.546-.171-.747-.151-.444.043-.259-.635-.36-.831-.057-.11-.191-.102-.272-.177-.126-.111.046-.278.035-.403-.016-.183-.527-.034-.626-.034-.447.003-.259-.407-.287-.7-.039-.381-.479-.081-.44-.438.012-.1.053-.716.049-.715-.242.079-.457-.169-.641.073-.141.187-.306.914-.572.949-.101.013.349-1.168.294-1.226-.006-.005-.79-.151-.823-.145-.193.041-.27-.313-.384-.277-.095.031-.197.343-.256.417-.146.188-.561.305-.625.529-.044.149.179.346.214.484.155.608-.228.349-.351-.043-.055-.178-.076-2.365-.862-1.834-.113.076-.276.31-.433.287-.195-.029-.215-.241-.388.018-.14.208-.779 1.427-.779.459 0-.65-1.08.341-1.265.031-.095-.157-.032-.605-.317-.557-.299.052-.395.331-.561.534-.423.515-.236-.84-.727-.231-.144.178-.339.421-.595.417-.113-.002-.746-.094-.634-.309.281-.54 1.014-.234.831-1.012-.124-.535-.507-.654-1.028-.818-.327-.103-.368.339-.672.264-.219-.054-.477.174-.539.364-.195.575-.2.073-.441-.048-.113-.057-.131.533-.258.608-.248.148-.542.169-.769.361-.291.244-.321.667-.587.94-.086.089-.684.461-.381.585.307.125.62-.136.878.108.115.107.558.589.497.769-.291.853-.755-.073-1.1-.124-.441-.065-.874 1.214-1.066 1.504-.301.453-1.817.453-1.702.934.085.352.27.056.436.015.198-.05.864.33.893.529.037.267-.117.773-.32.955-.337.301-.762-.114-1.017-.319-.333-.267-.57-1.307-1.075-.898-.231.187-1.137 1.245-.838 1.559.322.339.587-.167.837-.263.29-.112.527.252.671.439.17.22.375.452.482.712.125.3-.662-.231-.718-.262-.597-.331-.59.309-.716.722-.117.388-.838 1.167-.534 1.395.285.213.449.311.716.042.094-.093.59-.553.543-.145-.02.175-.295 1.315.213.549-.125.188-.751.645-.558.912.252.348.849-.147 1.149.002.238.119-.486.729-.559.837-.217.321-.735.093-1.064.259-1.159.588.554.836.844 1.062.521.406-1.799 1.396-1.782 1.441l-.422.062c-.201-.155-.128-.799-.291-1.04-.135-.2-.512-.08-.718-.242-.341-.27-.605-.729-.914-.169-.363.662-.662.469-1.282.24-.346-.127-.889-.397-1.27-.27-.182.061-.115.16-.261-.062-.251-.376-.676.088-.951.191-.553.208-.486.205-.594.766-.085.452-.713.744-1.087.894-.441.177-.666.762-.687 1.203-.042.901 1.197-1.002 1.164-.433-.031.531-.582 1.689-1.249 1.623-.317-.032-.736-.161-.934.193-.283.507-.666.237-1.116.205-.294-.02-.476-.315-.758-.22-.349.118-.664.393-.931.637-.023.021-.374.4-.316.4.418 0 .639.412 1.11.303.365-.084.081.555.514.452.311-.074.887.028.347.337-.607.347-.939.676-.844 1.412.081.625-.118.957-.481 1.458-.072.098-.905 1.125-.454 1.14.252.007.809-.567.852-.805-.388 2.113.748-.44 1.177.095.006.008-1.116 1.369-1.196 1.604-.087.266 1.106-.03 1.188-.135-.265.338-.199 1.044.168.529.121-.167.079-.41.302-.51.278-.123-.03.523.087.543.18.032.53-.381.765-.425.442-.084.853-.72 1.249-.706.165.007-.004.81-.045.904-.146.341-1.142.535-1.153.697-.027.361 1.617-.317 1.399.224-.392.972-1.102.916-1.764.307-.701-.645-.415.109-.678.482-.215.305-.168.787.056 1.078.106.138.46.171.428.376-.048.263-.058 1.622.436.975.48-.649 1.251.434 1.485-.172.071-.184.793-1.432.803-1.069l-.047.729c.009.257.223.439.149.707-.562-.345-.455.244-.268.554.116.194-.461 1.456-.364 1.468.412.045.694-.777 1.086-.821.28-.031-.348.932-.289.962.296.145.814-.584 1.073-.42.257.162-1.159 1.34-1.289 1.524-.207.297-.025.466.194.662.3.269.313.493.715.044.8-.892.129.95 1.108.495.37-.172.616-.404.831-.753.419-.684.325-.373.857-.107.692.347-.315.539-.66.779-.644.448-1.338.902-2.092.572-.921-.403-1.385-.656-1.404-1.77-.014-.721-.409-.436-.476.126-.509-.379-.504.136-.852.31-.351.176-.862-.305-.945-.255-.1.06.343.661-.07.489-.384-.159-.688-.57-.859-.934-.28-.59-.834-2.23-.275-2.769.415-.398.344-.423.08-.889-.171-.298-.409.331-.585.391-.416.138-.308-.717-.148-.877.331-.33.039-.782-.417-.7-.501.089-.9.405-.9-.373 0-.338-.427-.397-.636-.207-.305.279-.113.755-.558.979-.506.256-.55.192-.773.752-.157.393-.339.318-.091.774.14.259-.08.52.146.773.315.351.828.054 1.062.606.161.381.039 1.299-.342 1.555-.597.402-1.438-1.234-2.255-.863-.23.105-.78.506-.566.833.109.167.647-.173.505.11-.628 1.252 3.271 1.886 3.352 2.667.028.27-.909.212-1.07.245-.479.1-1.32 1.726-.681 1.875.375.087.279.039.46.391.181.355.595.374.938.397.509.036.21.542.376.854.244.457.939.73 1.357.998.185.118.378.218.534.375.535.541-.78.34-.88.39-.333.166-.154.926-.583.951-.57.033-.367-.877-.975-.024-.244.34-.369.231-.716.345-.242.08-.795.601-.233.654.351.033.471-.339.684-.017.071.107.265-.078.334-.085.136-.015.276.354.32.418.551.774-2.923 1.153-3.354 1.223-.46.074-.822.62-1.075.971-.047.067-.609.979-.371.977.685-.008 1.352-1.094 2.033-1.064.31.017.066.45.043.64-.025.209.498-.112.608-.121.288-.024.154-.194.379-.344.474-.316 1.618.72 2.105.856.362.102.879.165 1.21-.064.095-.066.582-.504.574-.592.02.19-.061.727-.121.905-.098.294-.592.3-.812.466-.346.261 1.151.228.896.419-.208.155-.476.19-.507.508-.044.454.391.078.527-.047.563-.517.825.658.046.855-.527.134-1.009.177-1.547.066-.43-.085-.764.13-1.169.196-.895.147-1.969.496-2.428 1.338-.21.385.353.344.598.372.473.054.615.043.834-.395.12-.24.259-.537.555-.585.067-.012.727-.079.801.011.018.022-.474.773-.519.912-.158.468-.807 1.26-.282 1.71.322.278.863-1.34.999-1.564.261-.431.905-1.013 1.412-1.08-.479.062-.163 1.221-.235 1.296-.347.359-.677.756-1.045 1.094.208-.191.188-.067.326.107.149.19 1.086.283.812.504-.217.179-.545.35-.686.598-.251.438.094.729-.266 1.142-.066.074-.847.927-.494.992.25.046 1.088-.878 1.071-.32-.015.491-.695.711-.8 1.163-.088.378.222 1.268-.531.853-.407-.226-.699.472-.953.677-.257.203-.056-.794-.443-.826-1.32-.111-.636 1.346.009 1.84.298.228-.983 1.199-.781 1.289.293.13.612.05.827-.17.144-.148 1.042-.913 1.029-1.028.005.047-.609 1.053-.125.936.596-.142 1.162-.557 1.673-.873-.455.402-.601.974-.996 1.397-.321.344-.857.579-1.094.991-.294.514-.505.624-1.068.817-.245.086-.64.196-.799.421-.15.213.209.387.306.519.204.27.945-.56.99-.355.076.354-.152.788-.209 1.135-.107.641-.598.933-.862 1.468-.233.472.036.933.527.612.341-.225.705-.42.981-.722.129-.139.328-.405.547-.396.128.006.241.223.369.159.305-.155-.605-.889-.254-1.077.391-.21.625-.866.839-.24.179.54.599.135.723-.15.217-.5.296-.563.799-.397.138.046.49-.007.577.115.133.183-.123.699-.101.921.031.308-.551 1.532-.342 1.704-.144-.119.542-.133.461-.105.487-.167.929-.792 1.264-1.151.362-.388.457-.669.878-.417.158.094.39-.142.546-.17.251-.043.77.142.961.281.148.106-.394 1.114-.038.939.592-.289.735-1.148 1.298-1.438.474-.243-.181.885-.251.99-.292.436-.625.795-1.047 1.101-.853.618-1.897.669-2.685 1.351-.18.154-.8.572-.851.815-.1.477.639.72.987.716.308-.003 1.285-.894 1.424-.631.18.34.09 1.14.763.891.49-.183.798-.734.967-1.193.033-.093.734-1.404.918-1.292.042.026-.229 2.852.108 2.729.124-.046.266-1.723.361-1.948.152-.356.138-.975.342-1.262.102-.144.803.183.839.321.089.344-.22.892.058 1.181.292.302.739.252.811-.22.015-.101.061-.968.253-.743.081.096.567 1.019.693.932l-.238-.781c-.053-.547.454-.657.632-1.086.071-.171.176-.31.372-.269.297.062.192-.139.352-.32.127-.146.569.426.737.492.025-.086.26-.681.345-.391.095.336.687-.632.845-.737.401-.271 1.296.236 1.55-.347.114-.263-.034-1.375.3-1.494.053-.021.345 1.401.281 1.566-.126.335-1.226.681-1.534.728-.545.081-.727.499-1.174.771-.525.319-.946.948-1.286 1.455-.117.174-.785 1.317-.25 1.354.428.03 1.268-.832 1.268-1.248 0-.324 1.139-.938 1.314-.413.069.21.062.521.384.45.292-.064.45-.694.59-.702.136-.008.057.626.353.448.224-.134.419-.544.396-.804.005.056-.308.223-.341.114-.033-.108 1.041-1.151 1.18-.464.183.905.09 1.853.263 2.762.182.956.777 1.74 1.034 2.668.228.828.528 1.693.692 2.53.296 1.496.17 3.229.12 4.75-.023.707-.096 1.407-.191 2.109-.066.482-.063 1.452-.533 1.714h3.607c-.358-1.03-.497-1.848-.442-2.941.071-1.444-.242-2.885-.111-4.315.129-1.4.009-2.801.058-4.202.013-.349.049-.695.092-1.042.06-.49.478-1.623.312-2.084.04.113.298 1.278.588.945.231-.266-.885-1.794-.432-1.843.703-.074.801.26.992.956.185.675.9-.95.934-1.172.039-.268.024-.572.112-.83.049-.152.546-.456.631-.194.141.419-.335 1.363-.474 1.753-.178.498-.16.86.526.597.378-.144.581-.463.683-.842.025-.098.206-1.122.072-1.173.179.069.354 1.303.447 1.517.303.697.409-.934.445-.91.496.358-.378.822.523.869.559.028.79 1.303 1.065 1.637.457.552.821.887.952-.035.06-.418-.311-1.268-.144-1.607.021-.048.274.431.279.442.203.483.194 1.055.42 1.519.131.271.334-.167.402-.267.071-.104.253-.218.297-.332l.017-.583c.078-.278.244-2.59.934-1.353.244.439.343 1.789-.348 1.89.5.212 1.119.436 1.508.829.281.281.114-.854.142-.906-.101.19.845-.186.91-.233.514-.378.142-1.13-.07-1.604.262.191.301-.084.545-.057.235.025.47.164.655.302.311.23.805 1.038 1.306.771.329-.176.072-1.013.072-1.298 0-.246 1.073.29 1.346.072-.205.164-.973-1.051-1.036-1.216-.218-.562-.135-.939.484-.673.552.239.4-.154.881-.412.535-.289 1.591.132 1.34.896-.117.363-.936.28-1.212.213-.071-.019-.468 1.167.272.93.756-.242.693-.331 1.274.164.293.25.389-.001.549-.253.232-.362.269-.287.64-.159 1.163.403-.923-1.58.266-1.083.667.278 1.047.951 1.599 1.379.358.276.221-.353.261-.544.092-.449.751-.273.412-.873-.151-.267-.367-.484-.544-.731-.194-.274-.07-.669-.093-.976-.029-.443-1.134-.175-1.396-.269-.245-.088-.329-1.094-.163-1.225.465-.366 1.156.938 1.018-.232-.026-.228.196-.32.331-.466.272-.297.228-.622.25-.993.029-.521 3.208.19 3.203-.216l-.349-.111c-.298-.155.234-.427.294-.567.08-.192-.266-.607-.266-.844 0-.607-.584-.095-.804.074-.232.176-.481.408-.659.067-.241-.453-.701-.118-.882-.36-.158-.21.615-1.076.766-1.188.036-.027 1.138-.268.841-.506-.153-.119-.759.181-.968.158-.357-.041.246-.429.328-.54l.574-.644c-.144-.314-.313-.434.08-.645.714-.379 1.26-.98 2.023-1.208.504-.15.535-.257.315-.688-.209-.408-.08-.669.371-.681 1.505-.03.136-.473-.055-1.131-.126-.439-.337-.859-.867-.864-.318-.002-.629-.408-.972-.513-.453-.138-.792-.572-1.301-.449-.312.076-.885.682-1.192.527-.252-.129-.248-.468-.576-.528-.378-.068.129-.331.213-.498.167-.336-.147-.515-.177-.798-.041-.396.415-.749.382-1.19-.034-.453.343.053.389-.285.028-.21-.414-.757-.52-.97-.199-.405-.312-.735.281-.521.474.17.622-.114.749-.563.098-.338-.449-.705-.535-1.024-.095-.346.323-.127.5-.125.396.004.543-.757.919-.502.209.143.457.951.756.844.386-.141.255-.646.714-.524.196.051.283-.264.418-.354.43-.284 1.689.216 2.165.228.837.02.157-.497.33-.931zm-39.68-10.188c-.271-.269-.68-.652-.537-1.073.092.062.906.334.903.246.007.271-.236.601-.366.827zm-8.827.292c.259-.429.384-.292.812-.104.403.179.741.2 1.033.571.3.382.449.894.643 1.336-.628-.367-1.261-.724-1.899-1.073-.453-.247-.844-.298-.589-.73zm2.195 7.701c-.074-.042-.103-.098-.086-.167.142-.056.587.208.604-.113.02-.358-.44-.759-.703-.933l-.849-.297c-.408-.27-.743-.673-1.034-1.062-1.022-1.365.973-.113.99-.647.021-.713.828-1.507 1.1-.513.134.487-.173.589-.479.916-.418.446.42.252.636.287.246.039.636-.231.746-.203.512.128-.037.797-.165 1.074-.212.455.192.715.533.941.342.228.243.258.088.627-.125.3-.253.702-.494.933-.177.171-.783-.725-.887-.843zm.15 19.012c-.467-.064-.921-.344-1.391-.18.576-.346 1.187-.559 1.875-.405.126.028 1.386-.095 1.381-.071-.089.334-1.562.7-1.865.656zm2.825-24.422c.225-.182.949.282 1.217.39.183.073.137.269.218.405.145.241.603.027.807.229-.601-.015-1.458-.105-2.002.195-.385.216-.796.097-1.002-.335-.344-.723.397-.592.762-.884zm.34 23.059c-.257.338-.272-.408-.297-.483.03.09-.308.371-.425.284-.21-.155-.071-.394-.351-.337.3-.367.875-.313 1.249-.196.233.071.209.189.25.438.118.729-.231.032-.426.294zm1.61 3.168c-.217-.26-1.19-.094-1.294.122.33-.679 1.188-1.011 1.831-.61l-.537.488zm6.824-35.343c.187-.189.718-.295.902-.075.14.168.275.04.423.14.124.082.109.456.137.568-.281-.011-1.84-.268-1.462-.633zm-1.755 29.248c-.257-.128-.532.182-.78.1-.016-.006.783-.55.919-.593.193-.06.072.203.219.285.102.056.55-.322.664-.376-.114.401-.246.604-.63.749-.295.113-.231-.082-.392-.165zm.683 3.364s1.413-.146 1.558-.049c.027.585-.773.583-1.212.693-.172.043-2.058.524-2.067.486.003.014.635-.693.697-.789.23.141.469.521.757.329.251-.169.545-.36.267-.67zm-1.036-.413l-.379.021c.441-.011.795-.068 1.158-.322.153-.106.444-.019.631-.099.204-.088.43-.411.636-.437.04-.006-.07.47.175.513.24.042.427-.121.52-.337l.244.487-2.985.174zm2.497-29.713l.536-.342c.343-.226.46.384.34.585-.266-.15-.579-.18-.876-.243zm-.681 27.982c-.243 1.121-.292.146-.585.242.097-.135.806-1.251.712-1.321.162.121-.099.952-.127 1.079zm-.536-20.865c.083.417.153.945.33 1.329.13.281.395.652-.036.815-.111-.309-.838-2.076-.398-2.267.067.004.103.044.104.123zm-1.269-3.462c.147-.145.343.147.439.392-.631-.151-.101.659-.356.74-.229.073-.739-1.182-.802-1.307-.086-.168-.667-.8-.639-.996-.036.253 1.04.395 1.152.543.106.142-.417 1.26.206.628zm-1.947-3.655c-.045-.295.416-.297.594-.358.519-.177.138-.414.395-.537.22-.107-.028.328-.012.312.278.331.686-.131.765.083.12.324.115.921-.036 1.23-.191-.12-.555-.33-.781-.195-.197.119-.175.329-.441.195-.29-.144-.443-.416-.484-.73zm.437 10.335c.385-.309 2.293-.324 2.659.004.486.438.548 1.389.461 1.996-.425-.214-.861-.43-1.256-.699-.81-.552.926-.191.746.023.172-.204-.343-.867-.226-1.101-.058.114-1.037-.068-1.323.001-.509.124-1.31.758-1.745.265 0-.001.441-.294.684-.489zm.489 2.974c-.245.536-.389.731-.389.731-.382 0-.603-.695-.634-.994.006.054.954.105 1.109.022.018.087-.012.167-.086.241zm-1.074 5.068l.632.295c-.583.391-.695.534-.925-.244l.293-.051zm-1.122 11.263s-.583.146-.78.146c.376-.346.613-.386.462-.877-.082-.268-.157-.517.188-.417.242.068.355-.213.56-.177.168.029-.282.569-.353.625-.047.042.199.501-.077.7zm1.854 1.168c-.549.204-1.067.685-1.692.646.108.006.615-.301.716-.401.208-.206.298-.507.489-.73.257-.3.321-.057.584-.146l-.097.631zm1.314 3.316c-.245.05-.245.34-.049.438-.208-.023-.934-.32-1.072-.484.051.06.408-.331.448-.37-.161.154.54.066.497-.036.073.178.196.522.453.47-.089-.028-.182-.035-.277-.018zm2.683 1.218c-.265.195-.591.34-.883.347-.326.006-.598-.689-.322-.79.149-.056.382.297.597.267.334-.047.663-.233.996-.31.001 0-.196.341-.388.486zm.633-2.925c-.382-.445-.497.382-.739.141-.218-.219-.286-.07-.524.089-.393.262-.251-.122-.497-.231-.239-.105-.448.312-.56.441-.175.204-.437.03-.633-.058-.365-.165-1.004-.042-1.294-.252.067.048 1.171-.979 1.323-1.009 0 .228-.073 1.376.409.808.229-.271.764-1.275 1.069-1.364.325-.095-.184 1.622.515.775.039-.047.395-.445.395-.414 0 .25.826-.574.827-.574.405-.029-.26 1.566-.291 1.648zm1.265-36.902c-.144.292-.292 1.072-.292 1.072-.15-.45-.615-1.098-.401-1.535-.046.095.909.047.796-.186.07.143-.038.522-.103.649zm12.191.537c-.018-.004.856.367.567.526-.277.153-.967-.15-1.251-.234.297-.245.488-.341.684-.292zm-.783 27.737c.055-.035.038.46-.242.581-.369.158-.747.302-1.123.443.157-.259.324-.545.553-.748.219-.194.57-.115.812-.276zm-.437-23.545c.211-.253.031.461.016.503-.153.399-.492.611-.743.936-.299.391-.442.985-.636 1.436.175-.439.027-.967.195-1.355.226-.523.807-1.083 1.168-1.52zm-1.558-9.993c.095-.489.242-.536.242-.536.164 1.37.439.062.893-.115.136-.054-.004.476-.015.504-.095.231-.385.398-.57.545-.377.297-.574.745-.796 1.161 0-.001.149-1.073.246-1.559zm-1.027-.342c.021-.047.378-.562.382-.546.152.512.008 1.468.008 2.008-.325-.491-.617-.884-.39-1.462zm-.389 13.746c.105-.214.312-1.485.501-1.523.384-.077.406-.03.479.302.069.32-.771.584-.546.955.05.079.231-.064.297-.049-.045-.01-.142.539-.152.608-.036.257-.521.445-.722.536 0-.195.048-.634.143-.829zm-3.751-19.547c.137.198.311.473.532.583.155.079.544-.093.624.067.097.191.079.46.107.666-.478-.034-1.94-.712-1.263-1.316zm.584 15.209c.006-.025.441-.607.377-.582-.127.049-.338 2.16-.429 2.483.001-.61-.114-1.313.052-1.901zm-1.61-14.673c.097.194.39.39.39.39.009-.127.061-.487.243-.487.234 0 .198.687.292.83-.411-.1-.822-.228-1.204-.409-.263-.124-.442-.315-.684-.466-.26-.165-.626-.169-.864-.35-.153-.116.897-.338 1.067-.154.091.099.076.33.13.454.102.23.436-.197.63.192zm-.585 43.63c.171-.515-.712-.21-.659-.566.039-.257-.179-.457-.122-.749.494.165.577.142.73.647.187.62.531.083.879.618-.17.058-.39.078-.496.229-.119.171-.25.412-.482.443.014-.002-.614-.037-.517-.136.291-.289.518-.035.667-.486zm-1.218-13.65c-.244-.145-.051-.78-.051-.78.144.163.339.369.393.585.101.413.543.593.585 1.023-.259.1-.522.229-.793.146l-.847-.279c.227-.312 1.529-.202.713-.695zm.73 7.898c.354-.538.464-.334.584.146.064.247.397.084.488.195.108.132.097.49.097.633-.225-.098-.462-.181-.681-.293-.145-.072-.118-.264-.309-.306-.073-.016-.484.101-.501.05-.035-.107.268-.343.322-.425zm1.221-.78c-.19-.306-.665-.776-.713-1.13-.007-.048.671-1.055.736-.723.132.671.072 1.182-.023 1.853zm-1.902-42.12c.079.156.189.28.331.376.218.022-.166-.535-.173-.554-.034-.075.581-.073.668-.113.258-.12.556-.13.832-.293-.174.527-.698.887-1.121 1.17-.731.722-.934-.663-.651-.684l.114.098zm-1.269 24.961c.043.067.542.357.685.439.423.241.601.009 1.001-.058-.37.062.061.672.19.75.242.145.192.284.223.576-.862-.379-1.566-.925-2.099-1.707zm1.074 4.777c.394-.13.558-.08.78-.488.001-.003.374-.8.407-.778.581.387.082.975-.263 1.217-.347.25.175.435.344.536.3.179-.136.585-.245.731-.186-.146-1.719-.982-1.714-1.007.028-.121.596-.18.691-.211zm0 12.821l-.633-.196c.221-.187.446-.381.691-.536.297-.189-.006.626-.058.732zm1.804 19.889c-.1.635-.148.879-.148.879-.695-1.603-.99-3.223-1.316-4.925l.244.928c.009-.108.073-.991.227-.95.246.062.166.979.191.972.191-.052.382-.32.51-.459-.039.373-.071.746-.099 1.121.279.131.234-.224.393-.178.509.149.049 2.276-.002 2.612zm.585-10.333c-.923-.011-.712-.356-.895-1.021-.072-.26-.955-.704-1.203-.833.473.223.853.131 1.252.422.108.078.44.107.395.273-.036.131-.11.407.051.499.204.117 1.01-.42.982-.312-.09.362-.421.64-.582.972zm.437-24.523c-.159-.48-.408-1.045-.176-1.562.108-.239.451-.313.592-.554.176-.3.227-.662.388-.97-.461.886-.566 2.118-.804 3.086zm.83 15.942c-.356-1.066.506-.851.919-1.516.163-.261.405-.595.456-.901.056-.322-.108-.753-.108-1.093.114.545.47 1.487.103 1.995-.389.534-.941 1.006-1.37 1.515zm.293 1.365l.421-.793c.095-.181.614.214.748.257l-1.169.536zm1.413 6.679c-.028.189-.181.742-.459.733-.502-.018-.414.166-.223.633-.433-.055-.651-1.62-.366-1.767.225-.113.431-.033.485.192.171.723.456-.017.713-.272-.072.071-.141.398-.15.481zm.828-42.558c-.338.73-.584 2.242-.584 2.242-.065-.553-.114-1.027-.004-1.574.063-.319-.009-.716.154-1.006.135-.237.508-.384.726-.539 0-.001.049.145-.292.877zm.393 22.181c.113-.317.214-.639.384-.933.099-.134.179-.28.238-.437l-.023-.312c.109-.163.644.439.747.454.378.049.307-.895.749-.821.991.166-.618 1.323-.771 1.214.084.059-.199.754-.35.802-.26.083-.116-.526-.095-.521-.272-.067-.7.391-.879.554zm.387 16.867v-.828c.355.076.657-.556.877-.78-.213.685-.481 1.013-.877 1.608zm1.754 9.359c-.251-.112-.606-.268-.673-.56-.049-.215-.278-.908-.204-1.098-.116.344.447.748.701.84.323.119.226.562.176.818zm.197-9.896l.192.245-.924-.195c.24-.32.346-1.285.773-1.264.569.029.471.121.622.608.152.495.548.928.741 1.418-.179-.451-.308-.74-.693-1.03-.136-.102-.292-.332-.473-.362-.348-.056-.391.39-.238.58zm1.461 8.969c-.259-.232-.918-.737-.756-1.146-.014.029.434.298.468.333.337.339.363.298.288.813zm1.074-15.256l-.632.777c-.33-.209-.634-1.158.041-1.059.448.062.759.176.679-.464.033.255.008.506-.088.746zm1.658-9.507c-.196.633-1.077 2.584-1.077 2.584-.162-.257-.328-.592-.327-.902.003-.408.448-.431.672-.658.12-.119.626-1.191.751-1.153l-.019.129zm10.041-2.048c-.13.161-.947 1.803-.778 1.803-.333 0-.384-.708-.659-.813-.306-.117-.221-.297-.365-.539-.088-.146-.465.229-.481.079-.007-.062.281-.417.32-.457.021-.02 2.15-.217 2.108-.284.02.033-.148.214-.145.211zm-2.34-.633c.604-.55 1.271-1.068 1.921-1.549.021-.015.209.205.18.278-.051.128-.317.561-.434.663-.364.316-1.207.368-1.667.608zm2.022-2.01c.297-.252-.048-.505-.123-.815-.03-.125.349-.646.37-.624.19.199.27.926.095 1.118-.323.349-.683.587-1.086.819-.896.515-1.546.882-2.595.975.683-.228 1.189-.687 1.122-1.463.179.83.551.233.876-.098.109-.108.033-.252.193-.209.36.094.774.291 1.148.297.045-.038-.192-.003 0 0zm-2.363 5.324c-.636.181-.864-.946-1.073-1.366.134-.185.544-.574.812-.469.214.083-.063.707-.086.807-.106.473.072.295.396.4.154.051.048.606.097.582l-.146.046zm-1.073 1.317c-.244.34-.733.388-.733.388-.105-.249-.199-.917.251-.803.505.13.206-.52.582-.575.138-.02-.013.868-.1.99zm-.681-13.163c.112-.227.262-.375.486-.489.278-.139.347.222.565.086.095-.058.307-.51.419-.403.064.062.139.312.231.122.138-.269 1.681-.071 1.289.403-.363.443-.8.834-1.188 1.254-.026.029-.755.848-.738.528.044-.84-1.722-.193-1.064-1.501zm-1.413 2.584c.037-.076.506-1.175.51-.865.002.156-.46.53-.123.587.509.085 1.104-.231 1.578.081l.324.247c.127.072.86.086.906-.089-.112.425-.892.436-1.086.793-.191.351-.826-.102-1.155-.058-.745.099-1.458.253-2.225.279.587-.439 1.123-.683 1.271-.975zm-.928 19.109l-.729.196c.171-.197.676-.804.729-.196zm-.634-20.475c.355-.202.372-.013.527.278.347.648.686-.138.931-.015.208.103-.748.936-1.042.885-.358-.063-1.156-.274-1.223-.717-.095-.636.483-.243.807-.431zm-1.316-7.164c-.134-.405.1-2.238.639-2.284.172-.015-.104.583.143.472-.105.048-.81 1.735-.782 1.812zm1.853 37.339c-.002-.731-.252-.74-.829-1.021-.338-.166-.666-.468-.974-.684.338 0 .409.396.671.469.183.17.478-.144.738-.03.248.105.541-.141.541.245.001.343-.065.689-.147 1.021zm.681-3.265c-.021.069-.61.178-.506.306-.153-.188-.404-.866-.337-1.1.017-.054.329.331.354.356.255.249.338-.255.517-.181.128.052.003.528-.028.619zm.44-6.971c-.088-.242-.289-.479-.065-.663.353-.293.71-.389 1.139-.486.274-.061.568-.099.472.253-.109.406.238.578.302.895.022.109-.787-.68-.773-.68-.281 0-.457-.153-.587.195-.086.224-.261.404-.488.486zm1.558 2.486c-.189.154-.17-.669-.215-.738-.001-.002-.671.684-.711.738-.185-.463-.222-.879.209-1.2.117-.09.479-.591.627-.523.137.061.325.266.495.182-.072.035.02.589.023.646.038.496-.064.606-.428.895zm2.343 4.193c-.636.21-.781.191-1.006-.373-.101-.257-.811-.403-1.04-.651-.047-.264-.218-.476.163-.552.131-.027.968-.213 1.046-.021.113.273-.199.937.127 1.104.253.131.774.127.999.348-.07.091-.165.141-.289.145zm3.024.535c-.782.179-1.515.197-2.343.197.326 0 .769-.48 1.12-.554.112-.022 1.651-.114 1.629-.224.05.245-.179.53-.406.581zm.973-2.973c.351-.132.732.106.909-.388.065-.184.01-.735.374-.708l-.146.056c.271-.152.637-.229.848-.472.261-.302-.458-.375-.57-.486.127.124.755.174.974.295.385.217-.63.745-.774.876-.373.338-.256.922-.531 1.235-.44.498-1.229.501-1.816.324.194-.195.342-.585.732-.732zm-.879-1.707c-.071.406.085.445.271.843.207.434-.456 1.019-.343 1.198-.111-.179-.395-.597-.219-.772.49-.492-.117-.605-.443-.622-.751-.037-1.656-.113-2.385-.303.164-.062.781-.055.874-.221.091-.168.353-.271.332-.394l.508.413c.146.193.403-.034.562-.104.216-.094.279.127.451.074l.374-.3c.059.043.066.105.018.188z"/></svg>