<svg xmlns="http://www.w3.org/2000/svg" width="100" height="100"><circle fill="#B2B2B2" cx="50" cy="50" r="50"/><g fill="#1D1D1B"><path d="M28.134 22.79s-2.212 1.525-2.285 2.364c0 0-.521.866-.45 1.351 0 0-.537.968-.537 1.527l-1.008 2.308s-2.451.076-2.666.262l-1.51.597s-.146.372.035.818c0 0-.442.886-.529 1.308l-.011.146c.036.298-.433.672-.433.672l-.322.483-.182.521-.504.817-.143.748-.363.706-.538.895s.108 2.756.179 2.867c.073.111-.537 1.005-.537 1.005l-.219 1.454-.394 3.091s1.726 2.198 2.732 1.378l-1.329 5.325s.576 1.155.971 1.155c0 0 .038.561 0 .745l.038.821.144 2.494.109.484-.218.669s-.104 1.713.072 2.312c0 0 .361 1.302-.072 2.01l-.216 1.007-.574 1.303-.04 5.477-.214.147-.144 1.9s.25.446.433.483l.105 1.379.075.559s-.215 1.006-.035 1.268l-.18.854-.328 1.416-.25.745s-.829 1.305-.646 1.677l.14.26 2.703.112.071-.596.829-.148.143-1.901s-.107-1.49-.254-1.638l-.035-1.006-.069-.858.104-.893.218-.709s.829-.036 1.117-.447l.539-1.974-.036-.372-.034-.634-.11-.783.326-1.677.25-2.234s.542-1.711.433-1.786c0 0 .573-.558.611-2.868 0 0 .214-.672.288-.782.075-.112.576-.707.576-.707l.036-1.752.576-.708s-.108 6.333.397 8.119l.179 1.119s0 1.118.18 1.305l-.036 1.638s-.326 1.638.215 3.577l-.359.072.036 1.787s-.036.561 1.044.522l-.145 1.712v1.119l-.357 1.006s-.94 2.049-.725 2.049c0 0 .291.223.397.223l.611.038h.829l1.69.037.289-.448.075.373.681.075-.071-1.976s.217-1.079-.108-1.229c0 0-.537-2.271-.502-2.979 0 0 .646-.372.79-.745v-1.414l-.18-.15s-.323-5.587.071-6.518c0 0 .612-1.044-.286-2.234 0 0 .286-1.9.25-2.608 0 0 .938-6.184 1.622-6.704l.54-.223s.43-3.354.18-4.283c0 0 .179-1.639-.07-2.46 0 0-.328-1.414-.254-1.711 0 0-.074-2.907-.109-3.092 0 0 .179-.856.722-.893 0 0 1.295-1.676 1.51-2.608l.323-1.191s.11-.262.215-1.042c0 0 .183-1.566.218-2.124 0 0 .105-1.752.037-2.085 0 0 .069-.67-.394-.821l-1.515-.521-.648-.598-.611-.295s-.685-2.234-.038-3.018l.111-.447s2.194-2.458 1.547-4.06c.001-.001-1.66-2.294-4.789-1.741zM44.187 23.046l-1.919-.029s-2.686 1.128-3.011 2.104l.03.215s-.678.977-.532 1.801v.732s-.588 1.068-.413 1.161c0 0 .413.213.503.153 0 0-.028.427-.149.519l.03.246.236.184-.058.212.088.335s0 1.069.443 1.1l.293.306-.236.458s-1.12.427-1.207.946l-.209.671s-4.1 5.681-4.129 6.81c0 0-1.625 5.092.946 11.114l-.228 2.814 1.737.704s-.315 8.097-.102 8.79c0 0 .14 1.174.281 1.393 0 0 .035 1.024.177 1.1l.495.365s-.036 1.21.357 1.724c0 0-.425 5.858-.213 6.224l-.105.807s-1.1 1.685-.957 2.308c0 0-1.064 1.354-1.026 1.501 0 0-1.238.879-1.419.879 0 0-3.111.293-.599 1.574l1.311.146 2.935.111 2.337-.111.777-.036s1.629.221 1.771.147l.246-.44.071-.44s1.416-10.51.497-13.951c0 0-.073-.881-.179-.916 0 0 .179-.476 0-.623l-.069-.731v-1.832s.814-6.848 1.062-7.142l.354-.622s1.275.219 1.559-.365c0 0 .211-1.356.604-2.125 0 0 .281-2.563.281-2.747 0 0-.249-1.318.212-1.978 0 0-.356-.842-.356-1.025 0 0 .64-2.527.64-4.249 0 0 .67-6.774-.249-8.496 0 0 .671.183.53-1.904 0 0 .671-.512.461-1.283 0 0 1.203-.952 1.026-1.464 0 0-.034-1.171-2.76.256l-.567-1.464s2.266-3.042-.354-4.982c0 0-.21 0-.568-.514-.002-.002-.187-.406-.676-.441zM75.15 21.241s-1.618-.244-3.054.243c0 0-1.747 1.835-1.59 2.08l-2.479.487s-.261 1.645 2.295 1.213l.185-.026s-.13.728-.026.891c0 0-.681-.054-.444.376 0 0 .025.407.183.513 0 0-.312.406-.157.624 0 0 .13.296.445.351 0 0 .233.565.337.646l.131.108-.076.136s.206.243.206.434c0 0-.261 1.187.707 1.078 0 0 .729.81 1.539.893l-.522.916-.079.621-.808.623.155.295s-3.732 5.648-5.293 20.82c0 0 1.661.572 2.316.207 0 0-.123 4.42.191 5.021 0 0-.131 4.308.133 5.589 0 0 2.106 8.153 2.029 9.49 0 0-.711 3.711.999 3.926 0 0-.315.602-.446.656 0 0-1.239.327-1.765.981 0 0-.528.219-.581.301 0 0-1.237-.355-1.607.054 0 0-.633.845-.554 1.253 0 0 .736.52 1.925.547l3.926.163h.211l2.479-.027h1.475l2.477.056.5-.11.106-.027-.027-.626.185-.11-.078-1.663s.421-.6 0-.818c0 0 .078-1.008-.237-1.443v-1.065s.052-1.198-.314-2.372c0 0 .499-3.846.265-4.745 0 0 .92-9.518.447-11.208 0 0 .973-1.01 1.104-6.846 0 0 .347-.052.503-.191 0 0 .291-4.769.291-4.988 0 0 1.422-1.256 1.527-5.346 0 0 .026-1.417-.606-3.026 0 0-.396-1.992-.29-2.783 0 0 .053-1.444.026-1.771 0 0-.314-2.155-1.634-3 0 0-2.688-2.102-2.794-2.127l-1.026-.874s.632-.762 0-1.689l-.107-.165.055-.708-.081-.219-.106-.543v-.138s-.315-1.253-.579-1.5l-1.422-1.172-.571-.266zM52.651 17.567s1.122-.477 1.486-.307c0 0 1.644-.238 1.776.444l.492.441s.989-.1.791.923c0 0 .331.41.331.75 0 0 .658.271.495.582 0 0 .03.679-.361.918 0 0 .098.17-.068.339 0 0 .198 1.331-.329 1.776 0 0 .264.884.232 1.122 0 0 1.381.443 1.679 1.125l.099.752s2.041 1.976 2.503 3.51c0 0-.198 1.706-.064 2.317 0 0 .166 6.786 1.087 9.683 0 0 2.999 7.398 3.36 7.669 0 0-1.384 1.639-4.02 1.536v.306l-.792.102-.163 1.604-.361.271s0 1.703-.463 2.012c0 0-.758.272-.196 1.602 0 0 .359 2.046-.067 3.137 0 0 0 .853.364 1.297 0 0 .821 4.363.724 5.386 0 0 .494 4.637.527 4.772 0 0 1.218 7.159.428 8.318l-.066.853-.131.305v.683c0 .138.131.478.131.478l-1.218.207-1.481.17-.596-.036-2.373.036-1.713.033h-1.843l-.396-.308s-1.154-.374-.856-1.057l.79-.647h.889l1.517-.75s.527-.852 1.286-.785l.228-.58-.031-.783s-.461-.205-.428-.717l.134-.75s-.824-3.648-.824-4.228c0 0-1.683-3.306-2.012-6.408 0 0-1.318-8.114-1.318-9.784 0 0-.098-4.158-.624-4.943 0 0-.792-.988-.89-1.396l.032-1.435-.096-.475.064-1.706s.098-.238 0-.75c-.101-.509-.064-1.704-.064-1.704l-.067-3.24s.163-1.227.326-1.43l.329-.988.234-.617s.261-.509.261-.783c0-.271.133-.612.133-.612l.296-.512v-.409s-2.337-1.5-1.579-2.35l.856-.718.229-.238s-1.977-1.842-.791-2.762c0 0 .133-.514.727-.442 0 0 .162-.512.659-.411 0 0 .821-.477 1.12.035 0 0 .294.376.724.409l-.199-.579s-.524-.648-.689-.886c0 0-1.319-.171-1.088-1.16 0 0-1.022-1.191-.657-2.932l.064-.273s-.194-.271-.299-.647l-.064-.374s-.561-.888-.46-1.025c0 0 .032-.476.261-.647 0 0-.033-.783.165-.852 0 0 .464-.956.824-.988-.003 0 .688-.478 1.084-.479z"/></g></svg>