<svg xmlns="http://www.w3.org/2000/svg" width="100" height="100"><circle fill="#B2B2B2" cx="50" cy="50" r="50"/><path d="M86.868 60.282l-1.546-6.571c-2.859-7.73-10.281-5.179-10.281-5.179l-23.963 9.664c-1.448.278-2.69-.844-3.275-1.495.218-.084.925-.383.925-.732 0-.464.058-.881 0-1.265-.181-1.202-.679-2.086-.969-3.081-.433-1.479-.868-2.988-1.068-4.521-.348-2.667-.58-4.639-.58-4.639s-.464-2.319-3.363-2.319h-.928v-6.377h1.508s1.758-1.681 1.739-2.783l9.741.812s2.292.29 2.288-2.783c-.002-1.76.212-3.701-2.173-3.827-2.203-.116-9.856.464-9.856.464l-.812-1.507v-1.275s.486-.688-4.445-.978l-.473-.066-.223.029v-.029l-.695.066c-4.932.291-4.445.978-4.445.978v1.275l-.812 1.507s-7.653-.58-9.856-.464c-2.386.125-2.171 2.067-2.174 3.827-.003 3.073 2.29 2.783 2.29 2.783l9.74-.812c-.019 1.102 1.739 2.783 1.739 2.783h1.507v6.377h-.928c-2.899 0-3.363 2.319-3.363 2.319s-.232 1.972-.58 4.639c-.2 1.532-.635 3.042-1.067 4.521-.29.995-.789 1.879-.969 3.081-.058.384 0 .801 0 1.265 0 .412.994.758.994.758s-.919 15.085-1.212 16.211c-.488 1.878-1.215 2.365-1.215 2.365-.429.378-1.586.788-1.528 1.483v1.393h25.149v-.657h.006l-.006-.312v-.423h-.086c-.191-.56-.603-.813-.603-.813-3.943-3.091-.31-5.256-.31-5.256s18.397-9.431 19.789-10.282c1.392-.849 3.247-.695 3.247-.695 1.392-.231 1.778 2.319 2.242 3.247l1.082 1.005 9.277-2.551c.619-.078.541-1.16.541-1.16z"/></svg>