<svg xmlns="http://www.w3.org/2000/svg" width="100" height="100"><circle fill="#B2B2B2" cx="50" cy="50" r="50"/><path d="M34.128 64.969c-3.987.002-7.219 3.232-7.219 7.221s3.231 7.219 7.219 7.221c3.988-.002 7.22-3.232 7.221-7.221-.001-3.989-3.233-7.219-7.221-7.221zm2.96 11.66l-1.954-3.746.096-.17 4.223-.18c-.085 1.338-.658 2.537-1.551 3.43-.249.248-.521.471-.814.666zm-6.733-.666c-.892-.893-1.466-2.092-1.552-3.43l4.225.18.096.168-1.955 3.748c-.293-.193-.565-.418-.814-.666zm.814-8.215l1.955 3.75-.096.168-4.225.18c.086-1.338.66-2.537 1.552-3.43.249-.248.521-.471.814-.668zm2.959-.894c.853 0 1.654.199 2.366.553l-2.268 3.564-.098-.004-.099.004-2.268-3.564c.715-.354 1.515-.553 2.367-.553zm.694 5.335c0 .383-.311.693-.693.693-.384 0-.694-.311-.694-.693s.311-.693.694-.693c.383 0 .693.311.693.693zm-.792 1.219l.099.004.099-.004 2.267 3.564c-.712.354-1.514.553-2.366.553-.852 0-1.652-.199-2.365-.553l2.266-3.564zm1.199-1.742l-.095-.17 1.954-3.746c.293.195.565.418.813.666.893.893 1.466 2.092 1.551 3.43l-4.223-.18zM69.604 39.064c-11.141 0-20.172 9.031-20.172 20.172s9.032 20.174 20.172 20.174c11.142 0 20.173-9.033 20.173-20.174s-9.031-20.172-20.173-20.172zm17.483 19.086l-.95-.039c-.354-5.264-3.159-9.852-7.288-12.631l.438-.841c4.44 2.95 7.454 7.869 7.8 13.511zm-17.166-2.826l-.316-.018-.314.018-6.289-9.891c1.998-.958 4.237-1.496 6.604-1.496 2.368 0 4.607.537 6.605 1.496l-6.29 9.891zm-3.544 1.688c-.117.172-.218.354-.308.541l-11.713.502c.286-3.754 1.922-7.126 4.431-9.636.665-.665 1.393-1.266 2.169-1.8l5.421 10.393zm-.308 3.908c.089.189.19.371.308.543l-5.421 10.393c-.776-.535-1.503-1.137-2.169-1.801-2.509-2.51-4.145-5.881-4.431-9.637l11.713.502zm3.22 2.23l.315.018.317-.018 6.288 9.889c-1.999.959-4.237 1.496-6.605 1.496-2.366 0-4.604-.537-6.604-1.496l6.289-9.889zm3.546-1.687c.117-.172.219-.354.309-.543l11.711-.502c-.287 3.756-1.923 7.127-4.432 9.637-.665.664-1.392 1.266-2.168 1.799l-5.42-10.391zm.308-3.908c-.09-.189-.19-.373-.309-.543l5.421-10.393c.776.534 1.503 1.135 2.168 1.8 2.509 2.51 4.145 5.882 4.432 9.636l-11.712-.5zm-3.539-15.836c2.805 0 5.453.663 7.803 1.834l-.51.801c-2.2-1.081-4.675-1.689-7.293-1.689-2.617 0-5.091.608-7.292 1.688l-.509-.8c2.35-1.172 4.999-1.834 7.801-1.834zm-9.681 2.92l.438.841c-4.129 2.779-6.933 7.368-7.287 12.629l-.95.041c.346-5.642 3.36-10.561 7.799-13.511zm-7.799 15.683l.95.041c.354 5.262 3.159 9.852 7.288 12.631l-.439.842c-4.439-2.951-7.453-7.871-7.799-13.514zm17.48 16.434c-2.803 0-5.451-.664-7.801-1.834l.509-.801c2.201 1.08 4.676 1.689 7.292 1.689 2.618 0 5.093-.609 7.293-1.689l.51.801c-2.349 1.17-4.998 1.834-7.803 1.834zm9.683-2.92l-.438-.842c4.129-2.779 6.934-7.369 7.286-12.631l.952-.041c-.346 5.643-3.36 10.563-7.8 13.514zM81.284 20.59h-5.521c-.233 0-.425.19-.425.425h-3.185c-1.643 0-2.973 1.331-2.973 2.973v4.247h-2.548v-.377c0-.469-.381-.849-.85-.849h-21.725c-.47 0-.85.38-.85.849v.377h-1.844c-1.643 0-2.972 1.332-2.973 2.972v3.823h-.212v14.227h.212v.849h-2.395c-.581.006-1.102.212-1.571.506-.467.298-.883.693-1.174 1.193l-11.582 20.39.554.314-6.587-3.342-.318.314-1.199-.607.192-.379-2.462-1.25-.192.379-.568-.287-.864 1.705.568.287-.097.189 2.462 1.248.097-.189.631.32-.159.158 9.469 4.803.096-.189.568.289.864-1.705-.567-.289.191-.377-1.177-.597 3.16-5.564.785.398.836-1.648-.707-.357 5.909-10.404h5.237v4.672h-.212v-1.061h-.021c-.1-.486-.526-.85-1.041-.85-.513 0-.941.363-1.04.85h-.021v1.061h-1.273v1.699h1.273v7.818l-2.548 1.312c-.703 0-1.274.57-1.274 1.273v.213c0 .703.571 1.273 1.274 1.273l7.008-3.609c.703 0 1.274-.57 1.274-1.273v-.213c0-.703-.571-1.273-1.274-1.273l-2.336 1.203v-6.725h38.434v.309h2.606c.319 0 .579-.26.579-.578v-1.158c0-.32-.26-.58-.579-.58h-2.606v.309h-5.733v-10.83h.424v-14.227h-.424v-11.042000000000002c.001-.703.57-1.272 1.273-1.273l3.185-.001v.001c0 .234.191.424.425.424h.213c0-.234.19-.424.425-.424s.425.19.425.424h.212c0-.234.19-.424.425-.424s.425.19.425.424h.212c0-.234.19-.424.425-.424s.425.19.425.424h.213c0-.234.189-.424.425-.424.234 0 .424.19.424.424h.212c0-.234.19-.424.425-.424s.426.19.426.424h.212c.234 0 .425-.19.425-.424v-1.699c-.003-.235-.193-.426-.428-.426zm-42.893 33.764h-4.634l.968-1.705c.112-.199.35-.439.609-.604.258-.168.539-.246.662-.24h2.395v2.549zm1.698-5.097h8.494v1.94l-.465.607h-8.029v-2.547zm0 10.829v-7.008h9.229l1.663 1.275.977-1.275h4.893l1.222 7.008h-17.984zm9.981-9.105v-1.724h6.114l.443 2.548h-5.482l-1.075-.824zm7.192-1.724h7.51l.445 2.548h-7.511l-.444-2.548zm1.886 10.829l-1.22-7.008h7.51l1.221 7.008h-7.511zm10.033 0h-1.443l-1.222-7.008h2.665v7.008zm0-8.281h-2.887l-.444-2.548h3.331v2.548zm0-16.775h-29.091v-3.823c.001-.702.57-1.272 1.273-1.273h27.817v5.096z"/></svg>