<svg xmlns="http://www.w3.org/2000/svg" width="100" height="100"><circle fill="#B2B2B2" cx="50" cy="50" r="50"/><path d="M60.811 61.36c-.666 0-.055.559.277.568.082-.22.045-.568-.277-.568zM62.865 61.524c-.258 1.25.145 0 0 0zM60.707 53.472c-.037-.394-.244-.518-.613-.391v.521c.269.114.474.069.613-.13zM66.969 33.256l.043.233c.139.047.348.041.477-.087-.125-.121-.104-.207.068-.235-.023-.157-.129-.269-.291-.324-.162.101-.27.244-.297.413zM69.078 32.566c.453-.343.352-.524-.268-.52-.111.157-.154.297-.133.547.137.021.27.011.401-.027zM80.201 33.965c.096.202.365.224.537.162-.263-.884-.736-.319-.537-.162zM65.861 31.259c.264.129.477.043.605-.234-.205-.232-.477-.317-.787-.259-.018.168-.002.332.045.493h.137zM66.547 30.549c.703-.429.443-.454-.309-.259.082.114.186.2.309.259zM91.316 39.562h-.061l-.02.234-.049-.233c-.129.638-.073.591.13-.001zM78.367 49.588c.221.729.494.309.754-.187l-.32-.336c-.188.078-.191.218-.012.418-.185-.075-.326-.04-.422.105zM93.723 37.094c-.156-.052-.242-.143-.178-.309l-.299-.041.018-.033c-.166.057-.293.018-.377-.116-.828-.472-2.197-.925-3.287-1.064-.277-.101-.605-.13-.914-.083v.075c-.684.071-1.334.106-2.096.113-1.365-.441-3.18-1.223-4.475-1.931.109.019.191-.021.25-.115l-.004-.003c.141.055.275.043.371-.076v.024c.514.221 1.074.233 1.547-.027l-.18-.224.107-.105c-.205-.21-.631-.238-.896-.212v-.068c-.246-.137-.398-.132-.459.016-.658-.229-1.277-.339-1.99-.355.037.164-.039.212-.229.146v.123c-.904.393-.266.718.578.965l-.043.066c.213.148.217.329.121.502-.166.181-.344.345-.514.47-.465.08-.791-.006-.982-.394-.24.178-.418.385-.547.633-.037-.083-.086-.111-.148-.087l.088-.086c-.098-.146-.119-.318-.043-.457-.443-.499-1.006-.735-1.686-.749-.193.431-.502.549-.928.335-.48-.121-1.156-.285-1.615-.393.318-.216.459-.541.398-.929h-.135c-.025-.074-.104-.109-.184-.11-.318-.301-.752-.402-1.236-.304-.01-.148-.072-.27-.174-.354l-.111-.039-.074.038c.207-.165.127-.32-.135-.446.01-.165-.1-.281-.264-.293l-.014-.115c-.342-.185-.682-.229-1.068-.106-.268-.255-.443-.422-.41-.587-.447-.506-.975-.621-1.568-.402l.033-.063c-.309-.051-.617-.078-.932-.083v.581h.402c.033.097.031.187-.008.271l-.037-.04-.209.202c.229.239.404.319.662.347 0 .066.039.13.078.17.451.166.92.268 1.453.314l-.182.139c.166.302.416.395.707.249-.129.279-.373.409-.695.372v.112l-.078.021c-.02-.076-.064-.103-.139-.079-.279-.486-.479-.592-.475.05l-.365.034v.024c-.75.202-1.578.495-2.244.789l-.051.007v.007c-.273.058-.465.171-.449.378-.297-.032-.545.071-.701.312-.178-.035-.338.019-.484.147v-.237h-.07l.018-.027-.172-.138c-.295-.005-.561.096-.789.29l.014.01-.109.11c-.037-.048-.082-.066-.135-.056l-.021-.224c-.242-.126-.496-.131-.715 0 .072.039.102.099.09.18-.609.346-.979.997-.971 1.725l-.037.002c-.502-.285-1.291-.507-1.875-.53-.102-.209-.244-.396-.404-.542.004-.162.092-.281.264-.357l-.025-.035c.115-.043.279-.294.352-.397l-.008.004c.07-.214 3.857-1.88 2.201-1.88l.01.233-.059-.233c-.395.13-.77.266-1.148.415v-.004l-.012-.016c-.863.224-1.592.339-2.104.984-.008.191-.156.292-.367.304-.285.479-.408.95-.352 1.497l.176.062-.047.062c.467.211.938.277 1.408.191.008.11.064.202.174.273-.262.117-.52.182-.807.203l-.027-.23c-.621.324-.715.073-1.1-.093l-.117.202.072-.233c-.555-.351-.979.6-.482.686l-.148.053-.021-.046-.211.099c-.014-.512-.479-.597-1.139-.395.27.247.324.483.229.801l-.16-.021c-.008-.261-.139-.454-.377-.55l-.031.017.023-.035-.184-.199-.096.079-.053-.034-.041.026c.002.068-.025.126-.084.174-.002-.079.025-.142.086-.187l-.021-.041c-.371-.261-.809-.416-1.256-.445-.119-.162-.295-.251-.506-.262l.012-.002c-.105-.212-.338-.344-.631-.381l-.012-.111c-.211-.038-.428-.002-.602.105-.273-.152-.568-.108-.85.093-.193.151-.432.212-.701.183-.219.183-.758.439-1.225.584l.117.114.016.045-.09-.019v.155c-.108.11-.25.182-.398.198l-.026.295c-.128.08-.273.191-.383.295.052.041.046.098-.016.171-.306.446-.652.811-1.085 1.145l-.002-.038c-.204-.029-.353.011-.413.208h-.074c-.11.14-.283.317-.402.418-.039.117-.015.226.085.295l-.117.158.009.008-.008.005c.042.092.082.216.106.323l-.188.101c.148.07.212.182.192.331h.05c.124.301.372.457.711.466l-.061.095-.055-.018c.03.107-.002.178-.103.205l.066.054-.062.067c.117.064.131.137.028.211.044.05.028.092-.05.126.168.079.242.198.232.354v.007l-.082.019-.012-.037c-.077.048-.155.029-.236-.056v.117l-.166-.005c-.011.109-.078.144-.192.104-.057.167-.155.327-.283.453-.03.042-.085.068-.143.065l-.027.047c.027.067-.062.073-.143.074l-.029-.022.035-.056-.028-.013.015-.041.034.009c.049-.36-.129-.603-.451-.748-.075-.264-.264-.616-.48-.891.242-.302.249-.568-.08-.779.09-.171.073-.339-.048-.498.046.047.103.067.167.059l.005-.109c.373-.053.397-.199.104-.401l.047-.084c-.212-.078-.38.016-.478.235.024.097.071.196.141.291l-.272-.007c-.081.031-.145.105-.178.194l-.151-.095-.153.207c-.44.007-.653.397-.652.973l.281-.039.002.092.007.009-.072-.042c-.357.233-.654.47-.949.761.159.084.155.206-.015.367l.163.038c-.075.03-.144.082-.194.146.007.061-.028.108-.104.144l.06.049-.153.199.136.024-.039.058c.154-.009.292.049.354.169.208.005.436-.026.648-.091l-.001-.016.134-.019-.008-.072.143-.003-.087.154.242.044-.084.098.01.01c-.209.079-.289.263-.249.504.149-.021.256-.005.373.046-.109.173-.107.378-.013.579h.045v.062c.228-.017.411.046.53.179.217.166.268.423.149.691-1.618-.266-2.158.445-1.805 1.868-.061.226.106.343.268.398l.005.006.008.006c.115.036.247.028.348-.026-.078.143-.965 1.876-1.047 1.876l-.226.156-.007-.015c-.334.162-.657.48-.777.842-.18.3-.355.605-.526.915l-.018.002v.45c.074-.008.127.033.161.104-.045.702-.096 1.338-.163 2.036.203-.051.214.041.058.254l.284-.014.063.033c.108.098.327.328.426.453.083.057.117.133.072.244.406.412.861.754 1.37 1.035l-.001.07c.157-.012.313.002.466.041.143-.229.463-.293.723-.203 1.09-.309 1.978-.273 2.915.131.33.424-.016 1.191.381 1.811l-.041.042c.309.16.43.402.335.73l.089-.018v.117c.363.646.279 1.473-.171 2.26.018.143.015.285-.007.426l.043-.002c.145.496.936 1.199.743 1.777.153.65.423 1.24.814 1.785h-.152c.109.387.195.648.32.969l.199-.053c.502.021 1.092-.006 1.613-.074l.104.062c.822-.486 1.541-1.213 1.984-2.006-.023-.162.002-.318.072-.467h-.064c.416-.178.666-.334.812-.781h-.178c.01-.172-.004-.342-.047-.51l-.043.012c.521-.455 1.088-1.164 1.463-1.859h-.133c-.064-.258-.043-.564.068-.826-.174-.072-.256-.211-.246-.414l-.064.064c-.061-.396-.055-1.326-.111-1.389l.17-.068v.021c.238.055.414-.047.523-.299 1.213-1.062 2.939-5.314.416-3.238l-.045-.072c.158-.033.32-.098.457-.182l.018-.16c.223.154.566.065.877-.189l.01-.016v.008c.15-.036.311-.088.455-.145l-.086-.221c.227.131.439.087.752-.072l-.049-.1c.311-.08.58-.259.742-.494.109-.001.217-.021.32-.061l-.025-.317c.48-.343.605-.73.213-1.13l-.186.146.121-.208-.1-.075c.137-.03.279-.016.396.039v.016c.332-.003.689-.019 1.027-.042l.023-.094.023.094.227-.018c.344.561.846.98 1.424 1.156.115 1.437.785 2.651 1.74 3.007 1.213 1.217.84-.17.586-1.199l-.232-.04.236-.013-.23-.03v-.017l.232-.022-.039-.409h.201c.426-.41 1.076-1.063 1.465-1.473.207-.049.42-.052.607-.008l.113-.115.219.315-.012.018c.426.3.543.713.371 1.206.412.122.582-.033.859-.125.111.39.182.713.234 1.076l-.107.639.014.002c.086.195.275.467.473.666l.092.383c-.326-.387-.785-.564-1.34-.508-.074.354.055.596.348.768-.34.141-.305.295.037.445l-.045.029c.338.57.65.912.996.785.25.504.711.953 1.197 1.174l-.051.238c.764.252 1.637.42 2.426.471v-.051c.129.141.289.236.482.293-.021-.219.141-.244.418-.137v.17c.258.109.955.297.9-.186l.174.006c.256.697.771.289 1.264-.354l.172-.072c-.184-.371-.465-.477-.83-.359v.119c-.107-.033-.188 0-.238.102-.275-.057-.754-.053-1.064.008-.068-.021-.096-.062-.078-.125h-.57v.014c-.168.051-.303.045-.344-.078h-.256c-.109-.076-.559-.322-.857-.459-.318.293-.633.215-.92-.109l-.084.086-.008-.211h.74l-.021-.051c.207-.014.434.037.58.137h.146v.016c.549.258.986.078 1.289-.496l-.096-.096c.08-.008.135-.045.186-.145-.207.762-.047 1.279.738 1.145.104.029.18.068.271.146.029-.074.076-.105.141-.094.014-.094.043-.113.094-.014.18-.018.229-.123.148-.318l.029-.006c.066-.24.025-.426-.209-.467v-.096c.133.047.271.068.424.062.428.445 1.086.533 1.652.227.014.205.152.346.383.346.096.814.295.729.539.045.254.016.396.129.373.383l.059-.02c-.182.139-.256.334-.221.59.396-.133.752-.127.875.193h.416c-.121.219-.229.439-.334.688.115.244.092.641-.062.953-.184-.051-.504-.338-.686-.408-.102-.131-.062-.219.119-.229v-.32h-.016c.09-.176-.088-.445-.15-.594-1.029-.203-1.705-.047-2.074.842-.143-.16-.322-.289-.525-.381 0 .209-.102.277-.309.201v.127l-.287.16c.033.125-.023.201-.168.23l-.041-.072c-.049.086-.123.113-.221.08-.045.24-.227.535-.4.643-1.867.586-2.354 1.92-1.453 3.91h-.139c.352.879 1.117.965 1.889.686.791-.576 1.854-.816 2.783-.582.141.176.244.506.422.645l-.025.014c.248.348.57.447.959.332.086.389.357.658.754.775l.061-.088.207.09c.039.367.369 1.375.93 1.439l.018-.082.008.002-.012.084.219.031c.092-.184.242-.365.383-.473l-.004-.289v.004c-.057-.158-.047-.305.074-.367-.031-.037-.021-.07.023-.098-.242-.189-.441-.367-.287-.502 1.414-.336 1.514-3.012 1.172-4.189l-.129.197c-.104-.076-.156-.176-.156-.293h-.102c-.02-.195-.162-.354-.363-.441l-.008.014-.049-.115.098-.096c-.252-.199-.479-.336-.727-.441-.096-.521-.361-1.008-.729-1.301-.061-.287-.098-.482-.141-.762l-.059-.033-.062-.006c.109-.061.213-.156.279-.248l.039-.08c.297.322.688.553 1.117.639v.018c.172.086.33.086.48.008.064-.07.146-.111.25-.125l-.068-.068.129-.164c-.184-.281-.447-.422-.791-.451.002-.094-.061-.162-.188-.201l.078-.084c.121.051.152.064.295.064l.02-.234.031.234c.234-.049.443-.121.666-.229-.055-.234.059-.105.18-.246-.004.268.193.619.482.613l-.047.031c.127.141.266.27.416.387.096-.029.264-.057.365-.064-.008.305.17.441.479.389.125.225.346.287.607.197-.033-.51-.32-.916-.832-1.135v.027c-.223-.123-.5-.211-.709-.223-.092-.203-.242-.256-.295-.477-.137-.039-.264-.025-.377.041-.871-.783-1.449-.271-.779-.133-.414.607-1.77-.156-2.211-.512-.369-.133-.783-.227-1.133-.252-.127-.207-.316-.281-.564-.217v.121c-.148-.334-.992-.307-1.244-.256.021-.311-.066-.572-.293-.795l-.072.072-.014-.031c-.172.102-.291.24-.359.412-.543-.027-1.094-.004-1.664.064l-.016.01c-.004-.092-.059-.115-.166-.068-.018-.064-.098-.238-.172-.328l.271-.113c.006-.111.084-.221.197-.293.238.082.572.004.668-.27.123.17.311.336.506.457.43-.207.617-.559.521-1.008h-.035c-.01-.154.057-.232.201-.232-.084-.279-.201-.381-.354-.307.049-.301-.049-.546-.293-.715.031-.163-.018-.266-.178-.238l-.012-.075h-.154c-.057-.05-.223-.109-.342-.105.129-.168.209-.308.299-.514-.189-.149-.23-.367-.135-.63-.582-.085-.936.155-.916.801.012.22-.045.743-.088.85v.334c-.355.496-.754.973-1.186 1.416l.025.084c-.303.289-.635.49-.986.596v.145c-.082-.025-.145-.082-.188-.17l-.008.008-.004-.004c-.188.234-.344.418-.533.621.172.166.277.354.332.576-.33.041-.529-.035-.781-.244v-.275h-.135c.074-.602-.15-1.223-.635-1.666l-.078.014c.039-.125-.035-.16-.166-.129-.018-.211-.117-.408-.277-.547l.08-.229-.043-.02c.064-.115.162-.17.322-.146l-.006.008c.135.145.229.314.279.502.127-.025.184-.014.27.027-.029.133-.002.256.094.35l.074-.07c.189.203.436.096.709-.121v-.15c.785-.387.887-1.034.371-1.776l-.154.105c-.006-.066.027-.121.1-.161-.053-.06-.148-.129-.199-.153l-.012-.024c.166-.003.309.054.426.18.061-.133.156-.185.285-.153-.008-.098.041-.137.145-.116.104-.258.127-.426.061-.69l.611-.121-.014-.059.82-.229c.09-.175.229-.309.424-.419-.049.235.02.449.197.609.719-.305.838-.711.145-1.109l.197-.326.195.067c-.049-.202.014-.366.18-.499l-.051-.038c.014-.178.068-.515.115-.699-.221-.361-.396-.637-.629-.986.439-.169.68-.415.666-.875-.068.009-.146.006-.207-.024.102-.141.256-.223.42-.214-.146.339-.008.548.379.592.004.186-.049.352-.156.456.098.101.109.208.031.32l.047.03c-.188.081-.199.271-.033.568.496-.056.652-.233.707-.562.115.127.158.329.139.574h.119c.004.118-.072.203-.229.254.305-.032.42.077.346.329.16-.161.334-.188.518-.08l-.012-.065.025.011c.064-.153.111-.312.141-.473.096.082.182.058.258-.075l.029.057c.146-.037.254-.114.32-.227l.26.129c.127-.248.326-.378.584-.378l.174.171c.17-.265.418-.439.729-.524-.148-.235-.158-.446-.053-.686h.068c.174-.369.182-.749.033-1.13.139.03.258.081.383.163.094-.363.316-.57.699-.705l-.037-.038c.166-.08.324-.183.469-.301v.065c.279-.094.445-.212.609-.402l-.195-.415c-.445.168-.906.415-1.24.663-.201-.008-.383-.106-.521-.287l.041-.034v-.015c.354.121.439-.089.318-.52-.207.013-.268-.079-.191-.258.088.093.186.174.295.245-.006-.517-.045-1.173-.107-1.765-.066-.313-.201-.527-.504-.704-.27.091-.348.214-.238.367-.166-.313-.35-.376-.588-.278l.041-.169c-.094.002-.127-.041-.096-.13h-.002c.838-.613 1.133-1.202 2.262-.983.125.023.281.012.404-.03v-.06c.357.24.746.29 1.146.164.217-.013.373-.101.518-.326l-.213-.213c.357-.205.439-.416.795-.472 0 .282.107.362.305.38-1.197.684-1.574 1.743-1.096 3.12-.344.434-.189.508.361.255.24-.148.455-.407.57-.689.314.151 1.059-1.521 1.082-1.608l.191-.29-.289-.149.287-.117-.125-.125.018-.054.049.071.219-.088.002.018c.479-.334.908-.335 1.299.148.254-.549.729-.891 1.352-.978.225-.168.541-.251.803-.241l.059.057c.203-.193.217-.431.09-.698h-.115c.031-.068.023-.121-.023-.158 1.207-.333 1.387.187 2.32-.349l.199.053c.023-.168.113-.227.27-.176.045-.17.07-.343.076-.519h-.253zm-6.94 21.688l-.186.094c.022-.07.085-.102.186-.094zm-5.293-14.868c.162-.104.145-.178.213-.313.027.381-.029.868-.137 1.215l-.02.026-.105-.034c-.238.309-.312.643-.232 1.024l.016.003-.117.369c.111.069.082.165-.018.265-.127-.113-.227-.093-.299.063l-.072-.048c-.398.489-.939.799-1.621.946l.109-.278-.301-.616.039-.039c.442-.7 1.448-1.718 2.545-2.583zm-24.926 7.117c-.088-.151-.316-.387-.377-.526l-.002.007c0-.067-.029-.094-.086-.076l.014-.073h.021c0-.167-.148-.356-.225-.511.304.38.519.764.655 1.179zm-8.957-4.905l-.022.004.09-.072-.068.068zm4.27-7.32c.113-.096.242-.187.369-.257-.02.188.004.387.064.568l-.023.169.232.035c-.209.01-.412.003-.627-.021v.045l-.168-.091c.004-.157.061-.311.156-.443l-.003-.005zm5.059 6.526c.107.039.207.097.285.166-.184.082-.434.099-.615.048l-.221.004.012-.03c-.246-.082-.389-.166-.588-.342-.342.111-.799.246-1.15.341l.008.235-.062-.233c-.264.003-.35-.083-.166-.275 0-.228.037-.416.225-.255.045-.189.096-.317.184-.47l-.004-.003c.049.009.076-.017.084-.078.314.05.395.17.094.393.383.216.736.209 1.121.025.306.084.568.24.793.474zm2.394 3.844l-.035-.091c.137-.002.215.113.236.273-.097-.003-.16-.069-.201-.182zm-7.545-8.957l.023.008-.041.01.018-.018zm.061-.005l.064-.028-.064.028zm-.487.959l.037-.046c.068.043.113.018.145-.054l.012.073c.533-.233.707-.569.432-.993.041-.244.176-.348.41-.317-.014-.081.004-.134.051-.183.072.036.062.096-.025.173h.23l-.312.142.047.085-.012.004c.057.102.02.165-.113.19l.146.146c-.123.151-.203.317-.236.496l.098.008-.094.055c.066.215 0 .351-.195.427-.188-.147-.42-.154-.641-.033l.074.226-.117-.207c-.097-.001.016-.132.063-.192zm3.829 6.356c.107.107.287.06.4-.023-.031-.103.055-.154.203-.161.016.065.014.124-.01.194l.035-.003c-1.18 1.611-2.012-.338-3.424.356l-.002-.002c-.242.053-.564.32-.455.615-.887-.781-1.57-.251-1.788-1.329l.064-.132c.375.267.737.3 1.069.003l-.016-.014.07-.079-.037-.033c.191-.165.348-.377.424-.575h.234l.021-.082.045.095c-.078.042-.148.116-.096.19l-.004.002c.238.187.342.395.303.652.211.036.363.089.561.189-.012.088-.008.176.012.264.215-.078.385-.057.426.098.061-.005.1.035.115.121.098-.141.225-.177.379-.11.189-.108.293-.269.299-.529.135.021.211.052.324.127l.002-.002c.197.093.41.062.572-.087.098.081.23.159.326.195l-.052.06zm.083-.066l.051-.01-.051.01zm-1.576-.299l.061-.061c-.125-.035-.152-.104-.08-.208.092.088.17.188.23.298l-.033-.004v-.005l-.178-.02zm-.195-.727l-.006.147c-.068-.075-.131-.166-.178-.255l-.053-.035.156-.149c0 .098.035.192.104.26l-.023.032zm-.408.61l.027-.025-.016.069-.011-.044zm.359-.955l-.027.044.027-.044zm-2.541-.886l.211.086c-.082.005-.164-.029-.211-.086zm.858.511c-.143-.069-.252-.161-.342-.29h.029l.01-.04c.156.074.285.203.34.349l-.037-.019zm1.302 1.529zm.405-.515l.023-.102c-.014.054 0 .094.043.121l-.066-.019zm-3.604-.268c.061-.209.078-.407.05-.598l.001-.001-.082-.215c.047-.012.058-.046.031-.104.402.244.776.55 1.046.857-.227.064-.447.085-.703.064-.065.224-.199.302-.413.188l.07-.191zm3.127-8.758l.156-.021c-.361.299-.484.374-.156.021zm6.621 11.829c-.045-.021-.062-.06-.049-.114l.08.132-.031-.018zm.467.649c.053-.162.01-.322-.117-.456.166.143.336.229.537.267l.055-.12c-.032.255-.202.357-.475.309zm-11.953-4.495c-.038-.355.083-.401.329-.185.28.007.506-.062.707-.201-.019.108-.019.191-.003.293l-.172-.005c-.018.456.116.861.406 1.117-.72.251-1.58.068-2.395.383.158-.058.275-.16.331-.325l-.056-.018.059-.003c.805-.174 1.632-.397.712-.873l-.17.049c.101-.046.176-.13.212-.239l.04.007zm9.334 6.929c-.283-.098-.451-.327-.473-.656-.059-.049-.064-.119-.021-.209-.525-.069-.27-.288-.389-.662.381.437.723 1.017.91 1.557l-.027-.03zm19.107-6.134l.037.037c-.045.033-.078.023-.107-.028l.152-.182-.082.173zm-20.355-8.991c-.092.061-.16.145-.203.246-.059-.202.01-.299.221-.25l-.018.004zm-9.981 5.76l.005.003h-.023l.018-.003zm15.151 6.999l.037.011-.072-.025.035.014zm3.918-15.652h.039l-.047.014v-.022l.008.008zm-7.188 18.72l.002-.008-.002.01v-.002zm3.424-3.032l-.076-.018c.059-.011.109 0 .162.036l-.086-.018zm11.975 1.683c-.207-.195-.211-.374.039-.528-.025.204-.012.404.039.6l-.078-.072zm.125-.601l.025.021-.051.003.026-.024zm5.244-3.69l.062-.03-.066.036.004-.006zm-8.028 8.129c.082.08.025.145-.139.186l.139-.186zm3.077 1.252l.021.051-.021-.051zm4.914-.426l-.018.014.02.018-.172.172c-.031-.096-.025-.182.02-.262l.15.058zm1.453.262l-.004.031-.012-.014-.006.008.022-.025zm-1.639-.043l-.006-.014h.02l-.014.014zm-2.41-.348l-.01.01-.043-.107h.094l-.041.097zm6.859 10.285l.002-.006.004.004-.006.002zm-.418-.269c.131.086.25.178.369.283-.215.016-.369-.08-.418-.273l.049-.01zm-4.738-10.188c.068-.156.125-.25.236-.393-.066.238-.057.438.037.648l-.086.014v.211l.021.002v.076c.006-.227-.078-.316-.25-.273-.059-.043-.17-.057-.256-.039.116-.078.189-.137.298-.246zm-1.324-1.246c-.035-.119-.104-.209-.193-.256l-.002-.043c-.137-.027-.238-.068-.342-.137l.016-.014-.074-.074c.062-.07.133-.092.238-.061.158-.184.469-.582.434-.838l.098-.029c-.02.271.041.439.197.617-.09.072-.129.215-.191.281v.186c-.158.001-.218.126-.181.368zm-2.737 1.785v.096l-.072-.166.072.07zm-.134-5.488l-.086.006.094-.093.043.035-.051.052zM49.651 31.181c.132.474.399.835.731 1.052h.014c.098.268.268.392.5.355.168.289.43.367.788.233-.008-.373.178-.653.502-.76v-.076c.006.212.109.406.35.366v.142c.459-.062.807-.164 1.264-.364-.316-.196-.52-.368-.662-.567h-.166v-.085c.248-.027.445-.072.689-.154-.16.412-.027.486.383.232l.371.246c.27-.159.279-.354.137-.56-.238-.197-.447-.185-.527.095-.047-.136-.119-.181-.217-.136.592-.544.18-.782-.494-.904-.168.029-.367.01-.545-.05-.027.04-.068.048-.123.024.01.024.018.146-.049.146v-.021c-.25.013-.455-.087-.609-.293-.01.225-.107.327-.297.31-.057.104-.141.149-.213.058-.16.049-.295.11-.445.208l-.139-.142c-.188.238-.457.275-.812.11v.028c-.237-.021-.407.119-.512.422l.085.085h-.004zM51.902 34.059c.299-.16.396-.404.293-.732l-.77.187.477.545zM55.031 30.978c.186.03.463 0 .596-.149-.109-.437-.352-.487-.695-.295.099.132.132.28.099.444zM58.27 30.691l.035.087c.209.119.811.354 1.059.106.389.216.852.15 1.223-.126l.023-.005-.012.016c.559.312 1.15.338 1.684.062l-.029-.026c.785-.116 1.475-.272.793-.919-.33-.462-.59-.49-.65.159-.1-.118-.277-.159-.439-.144.084-.099.098-.219.041-.36-.314-.11-.607-.07-.766.138-.223.091-.461.163-.729.221l.031.067c-.074.006-.127.046-.117.116l-.162.013v.125l-.076-.002v.095l-.223-.155c-.763-.238-1.86.532-1.686.532zm4.693-.549l-.059-.042.059.042zM59.043 59.39l-.02.088.02-.088zM59.783 59.966l-.002.002c-.236-.238-.143-.652-.512-.926-.098.102-.174.219-.227.348.035-.076.111-.131.199-.131-.066.229-.227.314-.463.26-.574.607-.943 1.283-1.154 2.104.029.77.764 2.26 1.465.877.024-.065.747-2.534.694-2.534zM90.904 65.827c-.318.148-.521.113-.486-.285h-.174l.018-.016c-.709-.619-1.104-.74-.779.215.146.076.193.193.146.35h.1c-.043.043-.066.098-.062.17l-.207.053c-.082.182-.059.318.068.412h-.041v.064c-.326.109-.682.406-.967.789l.045-.018c-.117.094-.275.143-.426.16-.029.178-.145.295-.277.342h-.086v.465l-.029.006c-.021.121.035.211.17.268.107.338.34.371.648.26v-.141c.219-.059.393-.125.584-.225-.027-.426.156-.652.602-.6-.066-.342.051-.602.346-.699l.02-.234.027.234c.383-.017 1.206-1.373.76-1.57zM83.297 56.671zM79.201 58.616v-.033c.309.01.496-.143.439-.453l-.105.031c-.199-.254-.471-.217-.84-.047v.422c.164.045.334.072.506.08zM84.701 58.964c-.148.014-.262.111-.324.264.252.352.512.352.754.006-.09-.219-.233-.307-.43-.27zM27.842 41.08l.048.048c.051-.051.031-.093-.02-.121l-.129.106.101-.033zM33.349 70.048c-.407-.176-.854-.131-1.245.113l.024.023-.034.01c.163.324.375.506.715.594.066-.105.159-.156.28-.16-.004-.064.05-.09.161-.074l-.014-.043c.191-.11.229-.278.113-.463zM22.908 31.101c.495-1.202-.217-.01 0 0zM41.273 36.27l.263-.035-.008-.104c.134-.06.206-.104.316-.19l-.077-.201c.073-.014.121.039.142.163.109-.111.195-.237.26-.376.159-.205.024-.66-.056-.833.041-.095.06-.22.049-.329.298-.123.429-.226.58-.414l-.022-.033c.339-.254.539-.349.577-.835-.168-.35-.32-1.031-.347-1.483l-.22.222-.125-.09c.063-.066.188-.147.248-.172.336-.037.456-.228.303-.555.386-.436.945-.756 1.463-1.07-.015-.083-.045-.16-.091-.231-.708-.089-1.619-.4-2.226-.431-.128-.186-.311-.294-.537-.32l-.001.002c-1.083-.866-3.466-.567-4.553-.216-.188.01-.346-.154-.55-.006-.355-.075-.69-.003-.859.195l.035.051c-.199-.119-.416-.149-.652-.089l.066.214c-.78.101-1.561.192-2.486.291l-.006.058c-.127-.136-.466-.389-.748-.342-.153-.244-.273-.289-.311.046l-.028-.235c-.144-.004-.344-.035-.427-.062-.39-.006-.775-.037-1.158-.096l.001.234-.062-.234c-.848 0-1.714.08-2.562.104v.06c-.856.208-2.003.542-2.958.862l.01.233-.039-.104.021-.005c-.072-.147-.207-.174-.357-.056l.035.065c-.273.114-.495.336-.576.597-.156.147-.149.357-.018.576l.367.288c-.42 0-.814-.165-1.126-.172l-.014.136-.034-.138c-.093-.059-.249-.142-.375-.134-.726-.256-1.349-.15-.935.682-.108.017-.21.054-.307.107.005.275.135.524.387.643-.056.067-.053.139.003.212-.141-.053-.297-.087-.438-.013-.053-.224-.25-.525-.532-.427.579-.672-.656-1.07-.93-.619l.002.01c-.221-.101-.651-.108-.657.242-.395-.146-.956.124-1.255.378v-.002l-.412.218c-.158.069-.271.215-.344.34.053.041.061.09.024.146l.256.165.099-.212-.054.23.62.025c-.034-.075-.031-.138.008-.19-.009.205.092.318.29.327l.017-.235.051.234c.179-.027-.049.083.24.187-.216.037-.408.022-.619-.051.005.136-.033.204-.11.204l.07-.23c-.295-.175-.958.003-1.266.115.14.276.138.531-.082.694.007.965.545 1.314 1.513 1.043-.018-.063-.015-.123.009-.178.223.244.242.425.377.702-.411-.177-.842-.257-1.291-.231l-.006-.166c-.225-.045-.411.02-.554.19-.206-.368-.46-.484-.753-.191-.364-.027-.84.047-1.12.263l-.234-.269c-.086.275-.272.418-.556.426v.082c-.252-.146-.546-.272-.817-.284l-.004-.028c-.845-.095-2.108-.335-2.755-.518-.202-.017-.411-.02-.608-.008-.046-.087-.124-.146-.231-.178-.09.09-.159.069-.194-.052-.33-.04-.391.07-.609.242-.343-.004-.634.084-.906.26l.003.066c-.318.308-.735.483-1.281.492-.205.761.269.537.567.991-.505.149-.845.322-1.047.725.324.386.687.575 1.16.552v.032c.105-.053.192-.051.259.006-.484.093-.83.401-1.054.886.276.124.328.304.125.52.22.062 1.054.331 1.054.484l.102.071.007-.014.057.229c.107-.003.394-.11.39-.112l.367.193c-.172.138-.358.27-.546.386-.769.607-.394.745.357.687.317-.265.968-.665 1.022-.681.055.009.076.041.064.095.194.055.382.077.592.067v-.115c.088-.116.205-.156.367-.11-.081-.256-.007-.447.223-.573l-.101-.051c.188-.137.451-.261.713-.334.111.187.238.125.354-.062.908-.047 1.796.299 2.453.982.205.274.384.456.579.598-.046.092-.023.183.063.248l-.102.091.039.378c.298.367.584.522.958.236.07.095.151.177.245.248h-.025v.578c.272.003.445.136.465.382.188-.005.29.022.427.097-.166 1.703.339 3.255 1.5 4.343l-.04-.032c.377.351.737.822 1.004 1.307l-.061.011c.329.672 2.197 1.949 1.626 1.042 1.656 1.081 2.519 2.595 4.713 3.124l.04-.092c.212.018.379.102.518.264.032-.086.083-.135.154-.143-.152.107-.163.193-.041.262l.076-.09c.061.418.291.734.657.992.456.182.823.211 1.201.027.154.154.208.34.159.564.02.082.01.141-.068.229l.087.076-.376.275c-.806 1.271-.58 2.562.596 3.869l-.083.021c1.865 1.469 1.982 3.746.946 5.779-.045 1.105-.3 2.25-.74 3.268.167.223.187.453.101.723l-.031.008c.032.414.09.775.189 1.172l.122.006-.06.17c.089.035.171.082.244.141l-.019.027.168.193.079-.066-.043.102c.056.031.069.08.04.148l.197-.041c.808.461 1.642.418 2.089-.262-.444.002-.735-.219-.776-.596-.374-.553.173-.283.173-.736.485-.422.671-.85.078-1.162.424-.305.766-.768.949-1.283.305-.084 1.005-1.125 1.521-1.125.155-.16.209-.375.159-.594.141 0 .37-.037.492-.135l.182-.164-.165-.166.199.107c.078-.08.133-.156.227-.189.041-.162.115-.275.268-.391l-.009-.004c.98-.783.602-1.502 1.591-2.01-.035-.166.059-.225.187-.232.283.035.511-.039.619-.238.571-.658.572-1.41.721-2.305.124-.098.222-.273.321-.373.063-.057.087-.127.074-.205-.013.061-.09.145-.204.145 1.237-1.416.504-2.262-1.412-2.625l.01-.094c-.329-.047-.708-.186-1.075-.395-.145.188-.134-.035-.414-.059-.026-.373-.211-.779-.505-1.111l-.006-.104c-.74-.055-1.402-.352-1.841-.881-.306-.014-.414-.232-.382-.584l-.593.018.005.074c-.208-.047-.264-.248-.594-.117l-.01.188c-.344-.082-.602-.176-.924-.33-.082-.183-.218-.243-.415-.165-.315.019-.652.099-.952.22l-.068-.066c-.264.236-.396.41-.541.695-.287-.285-.687-.26-1.013-.049-.106-.039-.19-.1-.288-.207l-.004.004c-.12-.307-.054-.726.083-1.024-.049-.139-.129-.26-.238-.357l-.301-.126.002-.006c-.177-.054-.366-.055-.542 0l-.106.002.003-.009c-.119-.02-.124-.115-.072-.24.333-1.67-.608-1.194-1.66-.367-.576-.318-.81-.895-.542-1.442l.006-.492c-.096-.105-.001-.221.116-.305.103.021.232-.044.291-.108.41-.288.494.009.924.009l.004-.043c.197.102.417.108.622.018.017-.095.019-.188.005-.282l.233.064c.164-.017.443-.008.74.022l.13.135c-.017.215.018.419.102.623l.047.003.002.122h.062l.007.077c.287.359.596.395.872-.074l.05.039c-.11.228-.06.439.123.615-.738-.168-1.141-.427-1.773.257.127.081.167.203.12.364.139-.033.604-.277.747-.267.147.13.372.229.626.278l-.011.003c.073.026.143.111.195.174l-.019.021.146.152c-.32.795.726.648.752.386.025.088.084.06.162.096l-.001.002c.529.131 1.053.112 1.617-.056.058.184.131.145.281.145h-.001c.37.04.548-.177.511-.572-.232-.018-.517-.02-.722-.007-.107-.055-.175-.128-.195-.217h-.195c-.475-.248-.868-.36-1.289-.351-.161-.059-.419-.123-.55-.253l-.199-.067c.289-.093.278-.276.199-.536l.253.057c-.027-.234-.067-.438-.123-.617l-.197.132.167-.169c-.087-.123-.212-.181-.362-.164l-.004.04c-.108.021-.195-.026-.26-.141l-.073.163-.295-.821c.258-.445.731-.802 1.27-.97-.021-.701.283-1.324.883-1.687l-.018-.082.061.045-.011-.051c.146-.031.186-.083.351-.071v-.008c.258-.098.323-.282.154-.524l-.064.062c.064-.25.316-.399.625-.436l.132.302c.163.011.346.01.541-.003.024-.166.134-.261.284-.244.569-.123.958-.431 1.07-.932.107-.044.237-.056.377-.031l-.125.203c-.009-.002.569.065.723-.01l.042.146c.647-.038.856-.428.671-1.111l-.03.016v-.119l-.153.05c-.138-.147-.265-.232-.45-.309l-.112.104-.083-.043-.007.007c.14-.111.201-.216.193-.395-.056.017-.098-.001-.126-.054.043-.108.088-.173.176-.25-.222-.496-.601-.899-1.092-1.173h-.152l-.01-.138-.049-.032c-.21-.159-.469-.644-.579-1.103h-.084c-.161-.073-.23-.212-.197-.411-.096.007-.163-.043-.21-.125.134-.11.183-.267.146-.47h-.025c-.034-.161-.002-.253.091-.276l.027-.085h-.031c-.074-.137-.19-.478-.189-.519-.008-.074.027-.132.106-.171.069-.048.143-.002.199.093.708-.623.489-1.135-.277-1.548-.201.027-.371.018-.559-.029l.147-.016c-.691-1.082-2.019-2.186-3.445-2.518.276-.159.214-.32.26-.584l.122-.007c.221-.839.643-1.438 1.385-1.997l.035-.088.024.088c.325 0 .706-.314.93-.521.088.214.27.342.473.359-.314-.002-.614.048-.918.149l.018.052c-.498.007-.84.215-1 .669l.289.122c-.108.11-.006.321.1.417l-.024.037c-.068-.039.414.229.467.229l-.084.084c.893.307 1.719.416 2.564.355v.178c.3-.133.477.038.582.354.283-.016.307.12.051.404.363.026.432.122.193.287.1-.011.149.011.149.065h-.023l.004.018-.077.028c.103.067.128.163.077.285-.015.096.085.356.275.57h-.035l-.01.045.01.12h-.045c.093.149.087.273-.018.37.105.155.369.421.567.388-.072.166-.171.303-.306.424l.045.046-.211.22c.294.028.348.122.144.283.275.322.506.646.67.938-.045.231.061.435.272.549.084.248.245.521.452.763l.867.233.024.18c.401.073 1.001-.082.967-.591.025-.283.153-.53.378-.685l.011-.001c.065-.132.115-.266.152-.412l.076-.011c.019-.084.018-.166-.002-.245l.058-.014c-.019-.087.014-.151.093-.185l.004.021c.151-.003.289-.022.433-.058.407-.133.787-.38 1.094-.712.016-.153.124-.244.289-.244l.015-.11c.045.022.063.06.055.111.188.023.348-.002.537-.094l-.006-.032c.284.023.794-.166.988-.352zm-12.527 15.47l-.086-.046.259.049c-.036.042-.043.092-.025.146l-.148-.149zm13.615-20.067l-.038-.006.052.006h-.014zm-14.433 6.878l-.174.023v-.05c.092.033.142.001.147-.095-.023.053-.014.094.027.122zm-3.14 1.627c-.021-.216-.173-.315-.387-.291l-.014-.129-.23-.036c.079-.041.143-.033.191.022.118-.423.414-.74.845-.888.32-.573.817-.536 1.364-.138l-.079.11c.354.359.707.326 1.022-.062-.064.332.103.604.438.782l.062-.203c.126.194.13.37-.038.543l.006.007c.507.627.456 1.201-.494 1.645.171.066.279.168.205.268l.02.104c-.078-.078-.074-.127-.189-.112l-.026.232-.07-.892c-.847-.119-1.667-.363-2.478-.729l-.026.039-.122-.272zm1.17-4.142l-.264-.217c.144.089.3.138.488.139.064.144.026.238-.132.253.007-.07-.023-.128-.092-.175zm-.54-.221c-.062-.096-.151-.144-.265-.13-.087-.317-.278-.626-.544-.887.158-.183.429-.307.647-.493-.245.64-.184 1.119.413 1.489-.071-.022-.173-.013-.251.021zm.073-1.968l.187.019-.238.17c.014-.065.002-.134-.034-.197l.085.008zm2.034 4.776l.102-.005-.102.1v-.095zm-2.714-6.448l.091.148c-.083-.004-.236.071-.299-.013.114-.098.177-.163.161-.319l.048.014-.001.17zm4.72 6.29c.003.08.035.134.067.17-.303-.08-.522-.102-.824-.087-.009-.36.167-.413.468-.229l.022-.026.009.033c.097-.015.188.041.258.139zm-1.712 3.76v0zm-.048-.223l.028.059-.028-.059zm.303-2.842l-.046.091.043-.098.003.007zm.148-2.851c.048-.056.116-.066.157.014l-.13.119c.03-.052.022-.096-.027-.133zm-4.678-2.802l.089.107c-.035.054-.002.104.098.15-.099-.069-.197-.132-.307-.178l.12-.079zm2.561 10.28l.092.099c-.131.09-.148.039-.092-.099zm3.665-5.016l-.005-.027.08.027-.006.029-.069-.029zm-.495-1.874c-.16.091-.433.306-.363.512-.241.034-1.479.088-.843.745l-.116.103c-.077-.081-.131-.202-.137-.334-.254-.057-.516-.189-.76-.38.323-.188.88-.679.473-1.04.083-.053.141-.127.17-.225.01.368.179.502.488.36.026.902.772.188 1.119.218l-.031.041zm-4.972-5.157l.001-.071.108.087-.106.006-.003-.022zm-.6 1.101l.031.013-.03.009-.001-.022zm-4.88 3.086l.013-.009-.013.009zm4.063-3.956l.042.234c.203-.183.418-.241.633-.012-.077.03-.125.104-.14.191-.11-.06-.435-.056-.571-.049l.009-.03c-.218-.05-.423.021-.575.191l-.27-.127c.056-.148-.061-.296-.171-.396l.025-.001-.015-.207c.068.029.091.098.069.205l.091-.009c.301.439.452.242.861.242l.012-.232zm-1.281 1.612c.206.063.594.04.61-.249.1.022.243.012.343.001l-.05.185c.204.131.438.161.657.076l.051.03c-1.135.264-1.404.754-.451 1.469l.159-.171c-.101.555.191.374.593.281.006.129.001.243-.014.365-.147-.066-.323.003-.435.053l-.025.196-.15.047c-.391-.376-.757-.851-1.061-1.384.181-.945-.427-.81-1.219-.303l-.214-.067c-.365.119-.757.061-1.11-.152-.084-.118-.23-.242-.39-.339.376.069.637.409 1.074.275l-.05-.229.107.215c.317-.066 1.286-.153 1.508-.364l.067.065zm-1.315-1.107c-.159.083-.2.164-.141.331l-.34-.202c.031-.053.04-.109.025-.169.125.026.227-.03.348-.032l-.006-.234.062.234.134-.007-.082.079zm12.079 11.535v-.036l.088.09-.088-.054zm.252-.046c-.118.01-.164-.044-.136-.162-.083-.004-.146.027-.192.094l.044.046-.088-.005c-.241.044-.383.008-.532-.111.062-.056.139-.166.143-.262.175.053.387.054.571.006v-.319c.223.009.317-.094.497-.186l.004.008.005-.003c-.103.283-.255.493-.501.677l.203.202-.018.015zm-1.234-4.523l-.072-.061c-.115.137-.221.287-.316.45l.034.029c-.101-.006-.103.039-.16.135l-.042-.099c-.318-.055.043-.219.287-.338l-.418-.413-.139.139c-.142-.091-.419-.248-.546-.309.1.048.175.037.228-.03.185.072.758.313.937.247.011.102.099.201.207.25zm-15.544 3.09l.009.04h-.05l.041-.04zM42.999 38.571c.383-.206.838-.409 1.223-.548-.048-.098-.04-.172.023-.224-.046-.05-.026-.095.043-.132-.077-.044-.1-.112-.067-.203h-.211l.037-.037c-.067-.045-.083-.109-.048-.195h-.07l-.019-.114c-.297-.138-.443-.174-.87-.174.025.062.013.109-.037.142-.159-.011-.328-.013-.488-.006.009.111-.084.005-.157-.101-.28.104-.548.097-.925.016v.104l-.085.016c-.13.349-.163.57-.143 1 .613.198.264.059.804.34v.049c.086-.023.15.005.193.087l.02-.02c.214.067.529.073.777 0z"/></svg>