<?xml version="1.0" encoding="utf-8"?>
<!-- Generator: Adobe Illustrator 15.0.2, SVG Export Plug-In . SVG Version: 6.00 Build 0)  -->
<!DOCTYPE svg PUBLIC "-//W3C//DTD SVG 1.1//EN" "http://www.w3.org/Graphics/SVG/1.1/DTD/svg11.dtd">
<svg version="1.1" id="Ebene_1" xmlns="http://www.w3.org/2000/svg" xmlns:xlink="http://www.w3.org/1999/xlink" x="0px" y="0px"
	 width="100px" height="100px" viewBox="0 0 100 100" enable-background="new 0 0 100 100" xml:space="preserve">
<circle fill="#B2B2B2" cx="50" cy="50" r="50"/>
<path d="M92.47,51.062c-0.238-0.061-1.793,1.954-1.972,2.071c-0.18,0.119-13.88,4.335-17.037,5.39
	c-1.903,0.639-8.29,2.161-13.06,3.271l-0.322-3.215L58.893,57.8l-0.233,4.396c-2.255,0.521-3.835,0.877-3.835,0.877
	s-4.629-2.638-8.899-5.097c-4.271-2.458-6.653-1.639-7.668-0.812c-1.014,0.828-0.792,4.161,1.221,5.954
	c1.749,1.558,3.633,2.577,4.1,2.819c-0.238-0.113-0.813-0.332-1.139-0.01c-0.419,0.415-0.004,1.012-0.004,1.012
	s-2.418,0.888-5.156,1.846c-0.072-0.037-0.141-0.067-0.206-0.087c-0.772-0.243-1.785,0.108-1.785,0.108
	c-0.619,0.216-0.979,0.605-1.136,1.049c-1.649,0.549-3.122,1.01-3.93,1.188c-2.62,0.582-12.266,2.677-12.266,2.677l-1.245-0.898
	l-0.535-0.061l1.658,1.494c0.442-0.096,9.155-1.205,12.185-1.591l1.26,1.061l-0.233-1.19l3.592-0.627
	c0.27,0.376,0.569,0.637,0.868,0.826c0.475,0.301,2.256,0.845,3.388,0.552c1.132-0.291,1.435-1.599,0.784-2.256l4.819-0.52
	c0.232,0.547,0.625,1.47,0.706,1.678c0.118,0.298,0.41,1.368,0.41,1.368l-0.301,0.712c0,0-0.061,0.238-0.062,0.476
	c-0.001,0.237,0.113,1.131,0.411,1.312c0.296,0.179,0.593,0.062,0.596-0.177c0.001-0.238-0.057-0.595-0.057-0.595l0.833-0.055
	c0,0-0.122,0.593,0.473,0.716c0.593,0.121,0.484-1.961-0.348-2.023c-0.533-0.182-0.766-1.313-0.766-1.313l-0.976-2.197l3.249-0.35
	c0,0,1.664,0.246,2.731,0.608c1.069,0.363,7.964,1.347,7.964,1.347s0.295,0.477,0.652,0.419c0.357-0.057,0.242-0.771,0.242-0.771
	l1.07-0.172c0,0,0.116,0.535,0.414,0.477s0.362-0.95,0.126-1.308c0.3-0.475,0.544-1.604,0.544-1.604s11.021-3.694,11.378-3.931
	c0.358-0.236-0.892,0.055-1.13,0.054s-10.662,3.103-10.662,3.103l-1.064-1.195l-0.115-0.893c0,0,2.199,0.427,3.213-0.044
	c1.014-0.472,0.425-1.901,0.425-1.901l2.026-0.766c0,0,0.947,0.959,1.185,0.959c0.237,0.002-0.232-1.189-0.232-1.189l3.636-1.41
	c0,0,0.887,1.014,1.125,0.897c0.239-0.119-0.173-1.251-0.173-1.251l3.933-1.289c0,0,0.889,0.837,1.127,0.719
	s-0.292-1.071-0.292-1.071l2.025-0.705l-0.354-0.655c0,0,12.453-4.758,12.693-4.936C91.389,53.376,92.707,51.122,92.47,51.062z"/>
<path d="M54.625,27.75v-2.5h-41.25v17.5H16v3.5h42.25v-18.5H54.625z M31.65,27.969l2.376,5.598l2.322-5.598h2.916l-2.79,5.598h1.71
	v1.71h-2.573l-0.271,0.522v0.828h2.844v1.71h-2.844v2.484h-2.736v-2.484h-2.825v-1.71h2.825v-0.828l-0.252-0.522h-2.573v-1.71h1.71
	l-2.754-5.598H31.65z M57.25,45.25H17v-2.5h37.625v-14h2.625V45.25z"/>
</svg>
