<?xml version="1.0" encoding="utf-8"?>
<!-- Generator: Adobe Illustrator 15.0.2, SVG Export Plug-In . SVG Version: 6.00 Build 0)  -->
<!DOCTYPE svg PUBLIC "-//W3C//DTD SVG 1.1//EN" "http://www.w3.org/Graphics/SVG/1.1/DTD/svg11.dtd">
<svg version="1.1" id="Ebene_1" xmlns="http://www.w3.org/2000/svg" xmlns:xlink="http://www.w3.org/1999/xlink" x="0px" y="0px"
	 width="100px" height="100px" viewBox="0 0 100 100" enable-background="new 0 0 100 100" xml:space="preserve">
<circle fill="#B2B2B2" cx="50" cy="50" r="50"/>
<g>
	<path d="M40.542,39.463l-11.72-6.875c0.911-1.554,3.969-6.767,4.702-8.093c3.365-6.08,5.727-6.783,7.208-6.783
		c0.315,0,0.634,0,0.957,0c3.954,0,5.72,2.974,7.812,6.491L40.542,39.463z M66.614,38.219H51.499l5.556-3.208l-6.95-11.846
		l-0.007,0.009c-1.333-2.251-2.572-4.285-4.483-5.46c5.834,0.006,13.218,0.096,13.582,0.086c2.365-0.08,4.58,1.865,5.723,3.831
		c0.711,1.219,3.76,6.653,3.76,6.653l5.393-3.043L66.614,38.219z"/>
	<path d="M46.303,62.617l-0.087,13.591c-1.805-0.014-7.847-0.057-9.366-0.028c-6.946,0.125-8.735-1.565-9.475-2.849
		c-0.156-0.273-0.319-0.554-0.479-0.829c-1.979-3.426-0.285-6.444,1.717-10.009L46.303,62.617z M32.194,40.66l7.554,13.092
		l-5.552-3.208l-6.783,11.939h0.008c-1.279,2.283-2.422,4.372-2.484,6.614c-2.913-5.053-6.524-11.489-6.718-11.801
		c-1.253-2.014-0.672-4.899,0.456-6.876c0.703-1.227,3.885-6.58,3.885-6.58l-5.335-3.148L32.194,40.66z"/>
	<path d="M63.484,46.14l11.812-6.716c0.893,1.568,3.878,6.821,4.656,8.123c3.582,5.955,3.012,8.351,2.275,9.631
		c-0.159,0.274-0.319,0.555-0.482,0.833c-1.979,3.421-5.439,3.466-9.525,3.515L63.484,46.14z M51.521,69.343l7.558-13.094v6.417
		l13.733-0.098l-0.005-0.006c2.617-0.032,4.999-0.088,6.97-1.152c-2.921,5.043-6.688,11.394-6.862,11.716
		c-1.118,2.092-3.904,3.03-6.18,3.042c-1.416,0.008-7.641-0.072-7.641-0.072l-0.061,6.192L51.521,69.343z"/>
</g>
</svg>
