<?xml version="1.0" encoding="UTF-8" standalone="no"?>
<!-- Generator: Adobe Illustrator 15.0.2, SVG Export Plug-In . SVG Version: 6.00 Build 0)  -->

<svg
   xmlns:dc="http://purl.org/dc/elements/1.1/"
   xmlns:cc="http://creativecommons.org/ns#"
   xmlns:rdf="http://www.w3.org/1999/02/22-rdf-syntax-ns#"
   xmlns:svg="http://www.w3.org/2000/svg"
   xmlns="http://www.w3.org/2000/svg"
   xmlns:sodipodi="http://sodipodi.sourceforge.net/DTD/sodipodi-0.dtd"
   xmlns:inkscape="http://www.inkscape.org/namespaces/inkscape"
   version="1.1"
   id="Ebene_1"
   x="0px"
   y="0px"
   width="100px"
   height="100px"
   viewBox="0 0 100 100"
   enable-background="new 0 0 100 100"
   xml:space="preserve"
   inkscape:version="0.48.4 r9939"
   sodipodi:docname="admin-order-safety.svg"><metadata
     id="metadata3302"><rdf:RDF><cc:Work
         rdf:about=""><dc:format>image/svg+xml</dc:format><dc:type
           rdf:resource="http://purl.org/dc/dcmitype/StillImage" /><dc:title></dc:title></cc:Work></rdf:RDF></metadata><defs
     id="defs3300" /><sodipodi:namedview
     pagecolor="#ffffff"
     bordercolor="#666666"
     borderopacity="1"
     objecttolerance="10"
     gridtolerance="10"
     guidetolerance="10"
     inkscape:pageopacity="0"
     inkscape:pageshadow="2"
     inkscape:window-width="1366"
     inkscape:window-height="744"
     id="namedview3298"
     showgrid="false"
     inkscape:zoom="4.72"
     inkscape:cx="47.561404"
     inkscape:cy="50.749644"
     inkscape:window-x="0"
     inkscape:window-y="24"
     inkscape:window-maximized="1"
     inkscape:current-layer="Ebene_1" /><circle
     fill="#B2B2B2"
     cx="50"
     cy="50"
     r="50"
     id="circle3278" /><path
     d="M 24.0625 18.125 L 24.0625 83.75 L 72 83.875 C 72 83.875 71.99025 83.33525 72.28125 83.28125 C 72.57425 83.22725 74.53125 82.84725 74.53125 82.15625 L 74.53125 42.25 C 74.53125 42.25 74.485 41.04725 75.125 40.78125 C 75.762 40.51525 78 40.0315 78 38.3125 L 78 31.28125 L 78 26.84375 L 78 22.0625 C 78 20.3415 75.762 19.891 75.125 19.625 C 74.485 19.359 74.53125 18.125 74.53125 18.125 L 67.1875 18.125 C 67.3035 18.437 67.31325 18.75625 67.28125 18.90625 L 67.78125 25.75 L 67.9375 31.40625 L 67.90625 32.375 C 67.90625 32.375 67.81 33.7445 66.625 34.0625 C 65.586 34.3965 65.09375 33.625 65.09375 33.625 C 65.09375 33.625 64.78625 33.2565 64.78125 32.6875 C 64.75025 31.9725 64.5 22.90625 64.5 22.90625 L 64.4375 21.65625 C 64.4375 21.65625 64.735 21.39225 64.75 21.53125 C 64.819 21.79625 64.8125 23.21875 64.8125 23.21875 L 65 29.21875 L 65.09375 32.5625 C 65.09375 32.5625 65.26825 33.64075 65.78125 33.71875 C 66.23125 33.93075 66.897 33.7825 67.25 33.3125 C 67.55 32.8245 67.59375 32.53125 67.59375 32.53125 L 67.59375 29.8125 L 67.46875 27.09375 L 67.25 23.375 L 66.96875 19.34375 C 66.96875 19.34375 67.018 18.612 66.75 18.125 L 65.28125 18.125 L 64.96875 18.125 L 24.0625 18.125 z M 30.8125 50.15625 C 30.881813 50.150878 30.957214 50.157391 31.03125 50.15625 C 31.327391 50.151686 44.577593 50.444092 45 50.4375 C 45.422915 50.430908 55.637622 50.789871 56.21875 50.78125 C 56.79937 50.772122 57.1875 50.90625 57.1875 50.90625 L 57.1875 54.4375 C 57.1875 54.4375 57.667542 54.437817 58.21875 54.46875 L 58.21875 53.0625 C 58.21875 52.543745 58.636988 52.125 59.15625 52.125 C 59.675005 52.125 60.09375 52.543745 60.09375 53.0625 L 60.09375 54.65625 C 60.650537 54.786065 60.90625 55 60.90625 55 C 60.90625 55 61.427366 55.318592 61.9375 55.8125 C 62.448141 56.306914 63.189726 57.235174 63.65625 57.6875 C 64.123789 58.140332 64.447649 58.534993 64.9375 58.75 C 65.427351 58.965007 66.697405 59.273268 67.8125 59.59375 C 68.927595 59.914739 69.292283 60.141424 69.46875 60.59375 C 69.644711 61.044554 69.39262 62.494743 69.3125 62.78125 C 69.232379 63.068264 69.09375 62.9375 69.09375 62.9375 C 69.021236 63.01255 69.09375 63.09375 69.09375 63.09375 C 69.09375 63.09375 69.495819 63.313452 69.6875 63.40625 C 69.879181 63.498033 69.868408 63.795836 69.875 64.21875 C 69.881592 64.641665 69.375 65.78125 69.375 65.78125 L 68.875 65.71875 C 68.817192 67.421057 67.440326 68.816874 65.71875 68.84375 C 64.148286 68.867583 62.836519 67.765508 62.53125 66.28125 L 45.96875 66.25 C 45.679707 67.706368 44.41808 68.819409 42.875 68.84375 C 41.406462 68.866569 40.155674 67.90173 39.75 66.5625 L 38.375 66.59375 L 38.34375 68.1875 L 38.1875 68.1875 L 38.1875 67.25 L 37.78125 67.25 C 37.78125 67.25 37.712344 67.527194 37.4375 67.53125 C 37.162656 67.536321 37.096286 67.335761 37.09375 67.15625 C 37.090708 66.97674 37.40625 66.4375 37.40625 66.4375 L 33.3125 66.46875 C 33.3125 66.46875 33.208414 66.56675 33 66.78125 C 32.792092 66.995749 32.253356 66.933444 32.03125 66.9375 C 31.809144 66.940543 31.4375 66.5 31.4375 66.5 L 30.59375 66.5 C 30.59375 66.5 30.42723 66.633242 30.375 66.6875 C 30.322769 66.740238 28.901617 66.712158 28.5 66.71875 C 28.098384 66.724836 28.253043 66.242518 28.25 66.0625 C 28.246958 65.882483 29.09375 65.4375 29.09375 65.4375 L 30.59375 65.40625 L 30.5625 64.96875 C 30.555908 64.524537 30.540885 63.154276 30.53125 62.5625 C 30.521615 61.970723 30.412842 59.870367 30.40625 59.46875 C 30.399658 59.067133 30.46875 54.09375 30.46875 54.09375 C 30.46875 54.09375 30.409734 54.030108 30.25 53.96875 C 30.090773 53.907392 30.086589 53.870812 30.1875 53.5625 C 30.288412 53.254189 30.46875 53.09375 30.46875 53.09375 C 30.46875 53.09375 30.446628 51.311033 30.4375 50.71875 C 30.430654 50.274918 30.60456 50.172366 30.8125 50.15625 z M 43.53125 54.84375 L 43.53125 57 L 41.375 57 L 41.375 58.84375 L 43.53125 58.84375 L 43.53125 61 L 45.40625 61 L 45.40625 58.84375 L 47.5625 58.84375 L 47.5625 57 L 45.40625 57 L 45.40625 54.84375 L 43.53125 54.84375 z "
     id="path3294" /></svg>