<?xml version="1.0" encoding="UTF-8" standalone="no"?>
<!-- Generator: Adobe Illustrator 15.0.0, SVG Export Plug-In . SVG Version: 6.00 Build 0)  -->

<svg
   xmlns:i="&amp;ns_ai;"
   xmlns:dc="http://purl.org/dc/elements/1.1/"
   xmlns:cc="http://creativecommons.org/ns#"
   xmlns:rdf="http://www.w3.org/1999/02/22-rdf-syntax-ns#"
   xmlns:svg="http://www.w3.org/2000/svg"
   xmlns="http://www.w3.org/2000/svg"
   xmlns:sodipodi="http://sodipodi.sourceforge.net/DTD/sodipodi-0.dtd"
   xmlns:inkscape="http://www.inkscape.org/namespaces/inkscape"
   version="1.1"
   id="Ebene_1"
   x="0px"
   y="0px"
   width="100px"
   height="100px"
   viewBox="0 0 100 100"
   enable-background="new 0 0 100 100"
   xml:space="preserve"
   inkscape:version="0.48.4 r9939"
   sodipodi:docname="policija.svg"><metadata
     id="metadata3693"><rdf:RDF><cc:Work
         rdf:about=""><dc:format>image/svg+xml</dc:format><dc:type
           rdf:resource="http://purl.org/dc/dcmitype/StillImage" /></cc:Work></rdf:RDF></metadata><defs
     id="defs3691" /><sodipodi:namedview
     pagecolor="#ffffff"
     bordercolor="#666666"
     borderopacity="1"
     objecttolerance="10"
     gridtolerance="10"
     guidetolerance="10"
     inkscape:pageopacity="0"
     inkscape:pageshadow="2"
     inkscape:window-width="1366"
     inkscape:window-height="744"
     id="namedview3689"
     showgrid="false"
     inkscape:zoom="2.36"
     inkscape:cx="50"
     inkscape:cy="50"
     inkscape:window-x="0"
     inkscape:window-y="24"
     inkscape:window-maximized="1"
     inkscape:current-layer="Ebene_1" /><switch
     id="switch3679"><g
       i:extraneous="self"
       id="g3683"><circle
         fill="#B2B2B2"
         cx="50"
         cy="50"
         r="50"
         id="circle3685" /><path
         d="M63.398,43.592c0.293-0.807,1.762-3.156,1.541-4.403c-0.221-1.248-0.074-2.569-0.074-3.89c0-1.321,0-2.568-0.146-3.522    l-0.131-0.9c0,0-0.665-3.512-1.628-5.952c-0.962-2.44-2.864-2.551-4.066-2.958c-1.201-0.407-3.067-1.331-3.067-1.331l-0.518-1.183    l-0.686-0.019c0,0-0.055-0.389,0.131-0.555c0.185-0.167,0.295-0.499,0.424-0.684c0.13-0.184,0.037-0.628,0.037-0.942    c0-0.314,0-0.5,0.111-0.906c0.111-0.407,0.148-0.647,0.205-0.961c0.055-0.315,0.017-0.518,0.035-0.758    c0.018-0.241,0.26-0.259,0.314-0.573c0.056-0.314,0-0.462,0-0.462s-0.129-0.148-0.203-0.186c-0.075-0.036,0.02-0.462,0.02-0.554    c0-0.093,0-1.146,0-1.146l0.018-0.13l0.166-0.092c0,0,0.518-0.462,0.739-0.647c0.222-0.185,0.63-0.425,0.63-0.666    c0-0.24-0.26-0.591-0.777-0.998c-0.517-0.407-0.998-0.776-2.071-1.127c-1.071-0.351-1.422-0.537-3.03-0.5    s-2.274,0.518-3.328,0.924c-1.054,0.407-2.071,1.221-2.348,1.572c-0.277,0.352-0.277,0.443-0.056,0.739    c0.222,0.296,1.369,1.332,1.369,1.332h0.185l0.149,1.552c0,0,0.222-0.148,0.295,0.074c0.061,0.183,0.146,0.639,0.175,0.73    c-0.029-0.094-0.365-0.046-0.47,0.378c-0.112,0.444-0.149,0.999,0.11,1.294s0.74,0.961,0.887,1.332c0.149,0.369,0,2.255,0,2.551    s-0.85,0.924-1.146,1.035c-0.295,0.111-0.85,0.37-1.737,0.703s-2.55,0.813-3.624,1.294c-1.072,0.48-1.072,0.591-1.552,1.442    c-0.481,0.851-0.444,2.254-0.444,2.735c0,0.481-0.812,2.884-1.183,3.956c-0.37,1.071-1.109,4.363-1.331,5.176    c-0.221,0.813,0,2.071,0.148,3.254c0.148,1.183,1.627,3.179,2.514,4.437c0.461,0.653,0.968,1.472,1.347,2.168    c-0.004,0.025-0.016,0.047-0.017,0.073l-0.005,0.147c-0.195,0.181-0.328,0.44-0.339,0.741l-0.187,5.259    c-0.008,0.226,0.065,0.427,0.172,0.6c-0.003,0.109-0.008,0.219-0.01,0.328c-0.037,1.59-0.11,4.732-0.11,4.732l0.059,0.052    l-0.457,12.875c-0.011,0.311,0.232,0.571,0.542,0.582c0.311,0.012,0.571-0.231,0.582-0.542l0.33-9.303    c0.182,0.585,0.4,1.285,0.423,1.512c0.037,0.37,0.184,2.402,0.221,3.587c0.037,1.184,0.371,4.511,0.259,4.806    c-0.11,0.295-0.296,1.738-0.259,2.145c0.037,0.407,0.111,1.109,0.037,2.329c-0.073,1.221-0.554,10.943-0.554,10.943l0.443,0.147    v0.444c0,0-0.481,0.481-0.887,0.702c-0.406,0.223-1.109,0.962-1.406,1.554c-0.296,0.592-0.146,1.7-0.146,1.7    s0.961,0.443,1.663,0.592c0.704,0.147,2.144,0,2.625-0.074c0.481-0.073,1.554-1.184,1.886-1.367    c0.333-0.186,0.777-0.149,0.998-0.223c0.222-0.073,0.518-0.332,0.629-0.481c0.11-0.147-0.112-0.479-0.112-0.479    s-0.146-0.408-0.146-0.631c0-0.221-0.186-0.997-0.186-0.997l-0.185-1.293l0.592-0.223c0,0-0.074-0.407-0.074-0.518    s0.333-0.555,0.408-0.998c0.074-0.443,0.221-3.217,0.295-4.437c0.073-1.221-0.185-8.763-0.185-8.763l0.85-1.922l0.147-1.369    c0,0,0.37-0.665,0.444-1.109c0.074-0.442,0.665-4.251,0.851-5.139c0.185-0.887,0.592-1.404,0.776-1.367    c0.184,0.037,0.259,6.101,0.259,6.101s0.812,1.552,1.221,2.218c0.406,0.666,0.332,5.14,0.368,7.062    c0.036,1.921,0.555,9.982,0.555,9.982s0.629,0.997,0.665,1.257c0.036,0.259-0.518,0.518-0.776,0.555s-0.222,0.665-0.222,0.665    s0.407,0.037,0.407,0.444c0,0.405-0.037,1.257,0.073,1.552c0.111,0.296,1.146,0.223,1.812,0.407    c0.666,0.184,1.479,0.888,2.107,1.109c0.629,0.221,1.738,0.296,2.662,0.333c0.924,0.036,1.959-0.296,2.07-0.333    c0.109-0.038,0.109-0.592,0.109-0.592l-0.258-0.185c0,0-0.147-0.37-0.258-0.888c-0.111-0.519-0.481-0.665-0.777-1.146    c-0.295-0.48-1.738-1.478-1.738-1.478l-0.295-0.629l0.332-0.518c0,0-0.072-0.667-0.147-1.405c-0.074-0.739-0.444-3.92-0.629-5.657    c-0.184-1.737,0.037-9.612,0.037-11.017c0-1.406,0.339-2.557,0.632-3.145c0.294-0.587,0.221-1.687,0.221-1.687l0.954-6.02    c0,0,1.321-0.439,1.321-1.1c0-0.661-0.954-8-0.954-8.515c0-0.513,0.294-1.101,0.808-1.615    C62.371,46.088,63.105,44.4,63.398,43.592z"
         id="path3687" /></g></switch></svg>