<?xml version="1.0" encoding="utf-8"?>
<!-- Generator: Adobe Illustrator 15.0.0, SVG Export Plug-In . SVG Version: 6.00 Build 0)  -->
<!DOCTYPE svg PUBLIC "-//W3C//DTD SVG 1.1//EN" "http://www.w3.org/Graphics/SVG/1.1/DTD/svg11.dtd">
<svg version="1.1" id="Ebene_1" xmlns="http://www.w3.org/2000/svg" xmlns:xlink="http://www.w3.org/1999/xlink" x="0px" y="0px"
	 width="100px" height="100px" viewBox="0 0 100 100" enable-background="new 0 0 100 100" xml:space="preserve">
<circle fill="#B2B2B2" cx="50" cy="50" r="50"/>
<path d="M77.186,60.771c-1.762-1.211-5.836-1.981-7.049-1.981c-1.211,0-2.312-1.872-2.312-3.082c0-0.782,0-1.975,0-2.723
	c0.369-0.131,0.651-0.445,0.884-1.133c0.325-0.989-0.113-2.312-0.663-2.754c-0.552-0.438-2.534-1.76-2.534-1.76v-3.303h8.92
	c0-0.771,0.328-2.422-1.433-3.194c-1.761-0.771-6.387-1.21-6.387-1.981c0-0.881-1.869-1.32-3.082-1.32
	c-1.211,0-3.082,0.439-3.082,1.32c0,0.771-4.625,1.211-6.386,1.981c-1.762,0.772-1.432,2.423-1.432,3.194h8.917v3.303
	c0,0-1.98,1.32-2.531,1.76c-0.551,0.441-0.991,1.765-0.66,2.754c0.25,0.752,0.563,1.062,0.989,1.166c0,0.648,0,1.711,0,2.688
	c0,1.542-1.541,2.529-3.192,2.529c-0.934,0-4.402,0-7.242,0c-0.513-1.94-2.117-5.979-5.309-5.979v9.654v9.655
	c3.366,0,4.968-4.493,5.385-6.28c2.25,0,4.728,0,5.403,0c1.321,0,4.075,1.981,8.369,1.981c4.295,0,6.273-1.321,8.037-1.543
	c1.762-0.221,2.752,1.982,2.752,3.412c0,1.432,0,2.864,0,2.864h6.275c0,0,0.33-3.522,0.33-5.836
	C80.156,63.855,78.946,61.982,77.186,60.771z"/>
<path d="M27.526,26.632c-0.415-0.81-1.404-3.378-1.46-3.59c-0.081-0.3-0.121-0.5-0.22-0.5c-0.061,0-0.141,0.2-0.221,0.5
	c-0.056,0.212-1.044,2.781-1.46,3.59c-0.414,0.81-1.295,2.116-1.252,3.994c0.047,2.093,1.836,3.059,2.934,3.088
	c1.349,0.037,2.948-0.995,2.932-3.088C28.764,28.748,27.94,27.442,27.526,26.632z"/>
<path d="M19.796,32.031c-0.452-0.882-1.53-3.68-1.591-3.911c-0.087-0.326-0.131-0.544-0.24-0.544c-0.066,0-0.153,0.218-0.241,0.544
	c-0.061,0.231-1.137,3.029-1.59,3.911c-0.451,0.882-1.411,2.304-1.364,4.35c0.051,2.28,2,3.332,3.195,3.364
	c1.469,0.041,3.211-1.083,3.193-3.364C21.144,34.335,20.248,32.913,19.796,32.031z"/>
<path d="M27.15,42.077c-0.453-0.882-1.53-3.681-1.592-3.912c-0.087-0.326-0.131-0.544-0.239-0.544c-0.066,0-0.153,0.218-0.241,0.544
	c-0.061,0.231-1.137,3.029-1.59,3.912c-0.451,0.88-1.412,2.303-1.364,4.35c0.05,2.279,2,3.331,3.194,3.363
	c1.469,0.042,3.211-1.083,3.193-3.363C28.498,44.38,27.602,42.957,27.15,42.077z"/>
<path d="M34.885,33.202c-0.452-0.882-1.53-3.68-1.591-3.911c-0.088-0.326-0.131-0.544-0.24-0.544c-0.065,0-0.152,0.218-0.24,0.544
	c-0.061,0.231-1.137,3.029-1.59,3.911c-0.452,0.882-1.411,2.304-1.364,4.35c0.051,2.28,1.999,3.331,3.194,3.364
	c1.47,0.04,3.212-1.084,3.193-3.364C36.232,35.506,35.336,34.083,34.885,33.202z"/>
<path d="M34.428,15.553c-0.453-0.882-1.531-3.681-1.592-3.911c-0.088-0.326-0.131-0.545-0.24-0.545c-0.066,0-0.152,0.219-0.24,0.545
	c-0.061,0.23-1.137,3.029-1.59,3.911c-0.451,0.88-1.412,2.304-1.363,4.35c0.05,2.278,1.999,3.331,3.193,3.362
	c1.47,0.043,3.212-1.082,3.193-3.362C35.776,17.857,34.879,16.433,34.428,15.553z"/>
</svg>
