<?xml version="1.0" encoding="utf-8"?>
<!-- Generator: Adobe Illustrator 17.0.0, SVG Export Plug-In . SVG Version: 6.00 Build 0)  -->
<!DOCTYPE svg PUBLIC "-//W3C//DTD SVG 1.1//EN" "http://www.w3.org/Graphics/SVG/1.1/DTD/svg11.dtd">
<svg version="1.1" id="Ebene_1" xmlns="http://www.w3.org/2000/svg" xmlns:xlink="http://www.w3.org/1999/xlink" x="0px" y="0px"
	 width="100px" height="100px" viewBox="0 0 100 100" enable-background="new 0 0 100 100" xml:space="preserve">
<circle fill="#B2B2B2" cx="50" cy="50" r="50"/>
<path d="M93.403,63.605v-0.813c-0.017,6.377-8.934,11.544-19.935,11.544c-6.655,0-12.525-1.9-16.139-4.808
	c3.582,1.999,8.441,3.234,13.805,3.234c11.011,0,19.937-5.176,19.937-11.562l-0.001-0.761v-0.814
	c-0.016,6.378-8.934,11.545-19.935,11.545c-1.261,0-2.492-0.071-3.687-0.201c0.395,0.014,0.786,0.035,1.187,0.035
	c10.464,0,19.029-4.679,19.854-10.624c-2.341,4.875-10.034,8.458-19.188,8.458c-8.368,0-15.497-2.998-18.449-7.237
	c0.074-0.18,0.144-0.362,0.214-0.544c3.358,3.636,9.957,6.115,17.568,6.115c7.767,0,14.479-2.581,17.77-6.34
	c-3.625,2.884-9.479,4.766-16.104,4.766c-7.657,0-14.297-2.507-17.636-6.18c3.608,2.973,9.559,4.921,16.304,4.921
	c10.464,0,19.029-4.679,19.854-10.624c-2.341,4.875-10.034,8.458-19.188,8.458c-7.415,0-13.851-2.358-17.278-5.843
	c0.017-0.101,0.038-0.201,0.054-0.303c3.645,2.721,9.322,4.479,15.724,4.479c7.767,0,14.479-2.581,17.77-6.34
	c-3.625,2.884-9.479,4.766-16.104,4.766c-7.293,0-13.652-2.278-17.127-5.668c0.013-0.332,0.025-0.664,0.025-0.999
	c0-0.139-0.008-0.275-0.01-0.413c3.478,3.382,9.83,5.654,17.114,5.654c7.767,0,14.479-2.581,17.77-6.34
	c-3.625,2.884-9.479,4.766-16.104,4.766c-7.657,0-14.297-2.507-17.636-6.18c3.608,2.973,9.559,4.921,16.304,4.921
	c10.464,0,19.029-4.679,19.854-10.624c-2.341,4.875-10.034,8.458-19.188,8.458c-8.299,0-15.409-2.942-18.41-7.125
	c3.52,3.274,9.767,5.459,16.91,5.459c7.767,0,14.479-2.581,17.77-6.34c-3.625,2.884-9.479,4.766-16.104,4.766
	c-10.017,0-18.284-4.29-19.698-9.871c2.53,4.701,10.094,8.112,19.033,8.112c11.01,0,19.936-5.176,19.936-11.562
	c0-6.385-8.926-11.562-19.936-11.562c-10.839,0-19.639,5.02-19.91,11.268c-0.657,1.141-1.026,2.357-1.026,3.627
	c0,0.247,0.021,0.491,0.048,0.734c-4.239-7.328-12.156-12.263-21.231-12.263c-13.54,0-24.516,10.976-24.516,24.516
	c0,13.54,10.976,24.516,24.516,24.516c9.495,0,17.724-5.402,21.796-13.297c0.968,1.495,2.436,2.848,4.312,3.977
	c2.333,4.881,10.018,8.47,19.176,8.47c11.011,0,19.937-5.176,19.937-11.562L93.403,63.605z M64.016,30.63l6.326,4.007l6.323-4.007
	h2.982l-6.197,3.817h4.642v0.707h-5.808l-0.701,0.433v1.58h6.509v0.717h-6.509v3.931h-2.486v-3.931h-6.504v-0.717h6.504v-1.58
	l-0.698-0.433H62.59v-0.707h4.642l-6.195-3.817H64.016z M40.922,72.633l-12.739-9.735l-13.099,9.254l5.168-15.022l-13.22-9.735
	h16.224l5.047-15.503l5.168,15.744h14.858c-0.05,0.252-0.081,0.508-0.102,0.765l-12.472,8.609L40.922,72.633z"/>
<circle cx="28.183" cy="54.425" r="7.27"/>
</svg>
