<svg xmlns="http://www.w3.org/2000/svg" width="100" height="100"><circle fill="#B2B2B2" cx="50" cy="50" r="50"/><path fill="#231F20" d="M71.081 22.259c-.575-.239-.527-1.342-.527-1.342h-6.612c.105.282.12.573.093.708l.431 6.163.15 5.101-.024.888s-.081 1.225-1.149 1.512c-.938.301-1.384-.394-1.384-.394s-.288-.327-.292-.839c-.027-.645-.242-8.831-.242-8.831l-.056-1.124s.267-.245.28-.121c.062.239.058 1.535.058 1.535l.159 5.419.082 3s.165.982.627 1.053c.407.191.994.035 1.313-.389.271-.44.304-.696.304-.696l-.001-2.45-.089-2.445-.214-3.369-.259-3.63s.063-.651-.178-1.091h-38.509v59.171l43.234.12s0-.479.263-.527c.266-.048 2.015-.406 2.015-1.03v-35.973s-.048-1.102.527-1.342c.575-.239 2.603-.669 2.603-2.219v-14.638c0-1.552-2.028-1.98-2.603-2.22z"/></svg>