<svg xmlns="http://www.w3.org/2000/svg" width="100" height="100"><circle fill="#B2B2B2" cx="50" cy="50" r="50"/><path fill="#1D1D1B" d="M84.14 24.67s-1.046-.814-1.141-1.944c-.102-1.229-.945-2.023-.945-2.023h-19.742c-1.14 0-1.558 2.109-1.835 2.777-.278.667-1.558 1.107-1.558 1.107h-41.738c-.723 0-1.139 2.03-1.195 2.335-.056.306-.612.306-.612.306l.139 50.163h68.654l-.027-52.721zm-23.073 30.099c-.881-.377-.711-1.648-1.677-1.954-.211.205.19.655-.263.753-.725-.545-.004-1.177-.176-1.804-.173-.626-2.137-1.618-2.646-2.104-.295-.283-.45-.626-.706-.901-.665-.72-1.532-1.272-1.852-2.104-.928.461-2.117.698-2.644 1.503.405.631.481 1.43-.354 1.802 1.071.665.848 2.432 2.027 3.005-.24 1.235.812 2.554-.175 3.607-.213-.046-.402-.107-.706-.075-.143-.255-.227-.559-.441-.751-.483-.062-.271.472-.53.601-.822.168-1.816.629-2.645.15-.621 1.098-1.083 2.633-.882 4.435.035.283.286.581.353.9.375 1.767-.521 3.784-.617 5.485-.093 1.68 1.325 3.448.265 5.034-.101-.014-.155.017-.177.074-.813.001-1.031-.682-1.146-1.203-.175-.783-.484-1.953-.351-2.704.05-.288.355-.497.439-.751.492-1.478-.601-3.32-.706-4.659-.041-.521.163-1.07.088-1.576-.149-1.008-.56-1.536-.529-2.255.029-.672.129-1.683.353-2.554.16-.627-.105-1.053-.442-1.656-.383-.1-.187.292-.527.228-.022-.357-.524-.307-.707-.526-.212-.181.214-.198.088-.527-.815.344-1.129-.363-1.674-.674.123-.369.576-.46.439-1.052-.432-.069-.335.315-.705.299.032-.546.65-.599.794-1.051-.316-.239-.768.044-.97.15-.35-.255.276-.789-.265-1.052.256-.083.596-.094.617-.375-.297-.225-.69.107-1.057.075l-.97-.603c-.093-.279.297-.146.352-.3.01-.409-.626-.268-.704-.601-.036-.28.548-.034.615-.228-.061-.195-.191-.337-.528-.298.43-.335 1.334-.266 1.939-.452-.037-.269-.458-.211-.794-.227.172-.177.586-.152.97-.149-.039-.667-.769-.747-1.321-.978.057-.077.203-.078.175-.226-.268-.173-.696-.208-1.057-.299.124-.304.578-.255.441-.601.513.074.947.137 1.411.075-.356-.475-1.188-.543-1.677-.902.324-.149.843.181 1.236.226.174-.297-.388-.458 0-.825-.099-.318-.636-.262-.707-.602.494-.071.567.217.97.226.262-.302-.031-.773-.175-.978.354-1.026-1.318-1.853-1.676-3.007-.481-1.548-.062-2.859-.44-4.582-.257-.208-.431-.484-.883-.525-.143-.549-.467-1.232.263-1.428.17-1.036-.66-2.251.089-2.854.544.121.808.79.971 1.201.474 1.201.512 2.387.792 3.907.198 1.077.873 2.079 1.236 3.082.396 1.103.519 2.267 1.411 2.93.564-.238.567.204 1.057.226.36.003.38-.279.353-.604.484.101.56.017.971-.074.668.632.616 1.878 1.765 2.104.616-.289.676-1.644.528-2.404-.106-.542-.592-1.054-.794-1.577-.443-1.15-.643-2.417-1.147-3.608-.516-1.223-.923-2.42-1.143-3.604-.444-.45-1.082-.733-1.235-1.428-.167-.21-.703-.104-.708-.452.252-.061.23.108.441.075.046-.438-.307-.539-.352-.9.011-.353.129.081.352 0v-.452c.339 1.331 1.963 2.054 2.645 3.532.251.537.433 1.116.794 1.727.761 1.287.908 2.81 1.675 4.209l.97 1.276c.447.754.551 1.875 1.677 1.804 1.418-.092 1.004-2.004 1.146-2.856-2.011-.688.239-3.26 1.587-1.729 1.299-.425 2.315.343 2.734 1.128-.214 1.858-.709 2.884-2.029 3.981l-.705-.149c-.831.755.437 1.659.439 2.629.989.525 1.117 1.202 1.502 2.102.43 1.017 1.729 1.521 2.554 2.405.657.7.777 1.455 1.411 2.105.119.151.292.252.53.299.224 1.314 1.083 2.083 1.675 3.08l-.706-.298c-.324.245.451.472.181.678z"/></svg>