<svg xmlns="http://www.w3.org/2000/svg" width="100" height="100"><circle fill="#B2B2B2" cx="50" cy="50" r="50"/><path d="M94.373 34.491l-.03-.588-12.141.352-16.099.619c-.125-.876-1.494-.788-1.494-.788-.459-.54-.957-.173-.957-.173-.586.451-.66-.926-.66-.926l-1.631-9.054c-.25-1.604-.994-2.7-.994-2.7l-1.939.165 1.139.961 1.438 11.415-1.653.224.019.454-16.387 1.062-12.137.182.03.589 12.142-.353 15.818-.608.314.089c.219.759 1.457.688 1.457.688.138.16.274.234.404.269l.028 1.709-3.271.168c-.016-.477-.158-.592-.158-.592l-.961.056c-.887-.081-.604.926-.604.926l-1.543.06-.021-.844c.39.028.035-.308.035-.308l-1.154.085c-.372.024.037.333.037.333l-.055.931-.745.085c-.461 0-.498.674-.498.674l-2.009.027v.704l-.442.222-.355-1.294-.694.256.215 1.293c-.09.788-4.052 1.969-4.052 1.969l-10.555 1.687-3.25.338-6.326-10.631c-.212-.311-.07-.536-.07-.536.427-.195.318-1.232.318-1.232l4.728 2.474.391-2.394-6.113-1.998c-.532-.142-.373-1.094-.373-1.094l1.744-7.482-1.442-.59-1.013 7.312c-.018.814-1.437 1.211-1.437 1.211l-.038-.451-5.242-2.615-.46 2.252 1.438.673 3.821.98-1.05.226c-.585 0-.071.787-.071.787l1.744 3.601-1.368 4.981 1.062.419.764-4.554.409.785c.339.651-.036.984-.036.984-.441.422-.176.897-.176.897l.356 1.297-.372.111 1.546 3.489-.268.14-.25 2.197 2.486.194-.426.62c-.515.62.124 1.151.124 1.151l8.3 2.646.584 1.716.145.081.017.455-.373.5-.054-.363-.444.167.144 1.017-.197.279c-.745-.337-1.208.479-1.208.479-.371 2.025.782 1.91.782 1.91.978-.137.534-2.051.534-2.051l2.434-3.485c1.082-.479 5.685.337 5.685.337l.284 1.037.321-1.098 2.966.426.069 1.32.57-.026.09-1.21 3.998.365 4.392.7 4.936.171 5.969.254.038.621c-.463.08-.692.951-.692.951-.584 2.844 1.045 2.872 1.045 2.872 1.459.251 1.141-2.562 1.141-2.562l.462-.534.144.022c-.105.287.142 1.244.142 1.244.64 1.545 1.724.783 1.724.783 1.064-.841.623-2.865.623-2.865l.729-.059.036 1.018.264.055v-.955l.163-.032.017.899.268-.055.017-.9.194.029.018-.451 2.012.114.035.646.584-.646.09-.312 2.414-.312c.729 1.546 1.742 1.322 1.742 1.322.817.146.747-1.626.747-1.626-.196-.536.14-1.663.14-1.663.129-.927-.582-2.335-.582-2.335l.266-.141c.3-.392-.163-.759-.163-.759l-1.062-.056c-.836-.143-2.508-3.4-2.508-3.4-1.014-2.367-2.593-1.973-2.593-1.973-.659-.198-.552-1.15-.552-1.15 1.456 0-.124-.199-.124-.199l-.375.397c-1.045-.957-4.636-2.223-4.636-2.223-.408-.113-.18-.337-.18-.337 1.387-1.464.196-.676.196-.676-1.103 1.125-1.849.394-1.849.394l-.812-.783-.077-.612.033-1.052 1.49-.201-.02-.454 16.387-1.062 12.133-.177zm-28.57.352l-1.139-.225-.018-.282s1.567.028 1.157.507zm-6.199-.42v-.168l1.225-.086.054.254h-.347l-.176-.035-.545.035h-.211zm-.25 1.049l1.215.345.004.035c-.001 0-1.271-.023-1.219-.38zm1.882 2.522l.014-1.603c.188-.022.314-.116.314-.116.102-.077.187-.098.258-.084l.033 1.888-.619-.085zm.744.086l.065-1.68c.152.298.181.801.181.801l.021.122v.757h-.267zm4.641 16.875c-.125-.482-.873-.732-.873-.732l-.02-.451h.979l.106.561c.233.873-.192.622-.192.622zm-1.006-19.19v.167l-.871.062.115-.195.541-.035.215.001zM48.589 57.22h.262s4.108.035 3.997 0v4.259h-4.259v-4.259zM46.227 71.869c.003.205-7.492-1.215-7.492-1.215l1.213-7.491 5.271.854 2.221.359-.312 1.928c0 .001-.904 5.36-.901 5.565zM34.454 86.766l-1.314-10.121s10.117-1.568 10.12-1.312l1.313 10.121-10.119 1.312z"/></svg>