<svg xmlns="http://www.w3.org/2000/svg" width="100" height="100"><circle fill="#B2B2B2" cx="50" cy="50" r="50"/><path d="M90.689 57.73c-.378-.183-1.178-.629-1.178-.629s-.106-.144.037-.292c0 0 .275.225.433-.341.158-.565.614-3.43.267-4.319-.348-.892-1.022-1.339-3.221-1.972-2.199-.632-4.731-1.218-5.697-1.642s-1.572-1.237-2.494-2.13c-.92-.892-2.386-2.683-3.393-3.658-1.006-.974-2.026-1.615-2.026-1.615s-.548-.42-1.646-.676v-3.123c0-1.023-.829-1.853-1.852-1.853-1.024 0-1.854.83-1.854 1.853v2.757c-1.087-.061-1.985-.095-1.985-.095l-.025-6.943s-.755-.259-1.9-.241c-1.146.017-21.299-.689-22.133-.676-.833.013-26.988-.558-27.572-.549s-1.169-.086-1.151 1.081c.018 1.168.094 4.711.094 4.711s-.391.277-.59.885-.176.711.138.832c.315.121.421.222.421.222s-.138 9.844-.125 10.636.242 4.896.261 6.063l.074 4.753.014.875-2.959.046s-1.612.901-1.606 1.256-.334 1.319.458 1.307c.792-.013 3.586.005 3.689-.099.103-.107.474-.321.474-.321l1.648-.005s.7.844 1.138.838c.438-.008 1.504.142 1.914-.281l.646-.667 8.038-.053s-.589 1.052-.583 1.406c.005.354.096.792.638.782.542-.008.721-.554.721-.554l.772.01.029 1.812.312.016.055-3.17 2.698-.062c.8 2.641 3.269 4.547 6.165 4.502 3.043-.048 5.55-2.232 6.12-5.104l32.633.046c.602 2.927 3.211 5.105 6.308 5.058 3.395-.053 6.116-2.766 6.23-6.123l.938.081s1.001-2.226.988-3.06.017-1.394-.361-1.575zm-43.596-8.997h-4.255v4.254h-3.688v-4.254h-4.254v-3.688h4.254v-4.255h3.688v4.255h4.255v3.688z"/></svg>