<svg xmlns="http://www.w3.org/2000/svg" width="100" height="100"><circle fill="#B2B2B2" cx="50" cy="50" r="50"/><path d="M47.96 69.189c.171-.675 1.051-.197.639-.875.33.588.713-.255.644-.584.143.307.253 1.01.76.815 0 .882.078 1.768.292 2.625.118-.997.595 1.476.47 1.417.31.146-.167 1.808.113 1.329l-.468 1.75c.919-.812 1.708 1.854 1.87 2.37.27.857.639 1.617 1.392 2.153.42.298.836.646 1.329.817.321.112.618-.388.891-.035-.864-1.261-.616-3.072-2.145-3.86-.632-.325-1.313-.497-1.524-1.266-.123-.451-.271-1.293-.938-1.055-.129-1.034.398-3.324 1.573-3.561l-.115.699c.455-.03.905.086 1.27.364.545.417.512 1.263 1.18.863-.106.524.006.655.337.392.318-.018.577.251.842.378.471.225.014.847-.072 1.156.521.121 1.647-.521.936-1.052l.645.292c-.108-.163-.227-.318-.353-.468 1.287.808-.676-.39.584.061-.973-.455.258.159-.062-.413 1.18.65 2.14-1.2 2.225-2.097.173-1.812-.96-2.703-2.225-3.733-.49-.4-1.189-1.021-1.072-1.737.035-.212.516-1.262.842-1.184-.432-.446 1.41-.76 1.397-1.221.497.62 1.19-.335 1.048.809-.024.192.317.863.508.506.152-.286.024-.665.024-.969.102.322.733-.021.882-.101.575-.31.581-.695 1.215-.537-.003-.216-.021-.431-.055-.645.433 1.181-.035-.312.522.237l-.231-.76.875.638c-.313-.479.572-.467.826-.585.137-.063 1.27-.521.803-.752.308-.041.637-.231.645-.584.279.377.887-.457.292-.583l.698-.121c-.173-.252-.073-.435.237-.347-.031-.062-.243-.383-.19-.432l.651-.098c-.163-.455-.24-.584.054-.962-.023-.063-.072-.082-.134-.077.065-.073-.126-.196-.211-.242.658.323 1.167-1.021.583-1.344l.76-.291-.292-.814c.332-.004.763-.789-.054-.23l.461-.529c-.496-.16-1.027-.113-1.513.061l1.167-.936c-.376-.242-.762-.605-1.221-.651l1.105-.048c-.47-.324-.966-.636-1.148-1.213-.159-.502-.382-.767-.872-.951-1.312-.495.612-1.026-.082-1.567.487.058.176-.452.502-.624.163-.086 1.142-.407 1.145-.609.014-1.06-2.279.341-2.461.528-.301-.595-.438-.869-1.153-.868-.572.001.152-.837.307-.971.56-.483.997-1.743 1.73-1.951.312-.088.5.197.478.484-.044.539-.904 1.102.036.856l-.407.699 1.275-1.332c.37-.385.95-.163 1.404-.182-.021.304-.169.817.292.875-.312.047-.531.327-.523.638.106-.014.497-.185.292.122.636-.358 1.194.111 1.52.639-.784-.714-.132.861-.236.176-.01.234.115.514.407.407-.072.449-.354 1.111.177 1.404-.355.006-.15.202 0 .292.124-.205.261-.735.528-.292-.107-.292.037-.493.292-.237-.404-.569.102-.277.346-.23-.004-.598.491-.439.314-1.289-.195-.94-.759-1.495-1.52-2.031-1.037-.73-.508-1.153.156-1.928.455-.53-.139-.662-.048-1.186.057-.323.488-.557.282-.919.486.081.387-.525.407-.814 2.147.668 2.201-2.404 2.238-3.908.04-1.701-.3-4.804-1.831-5.895.61.13-.479-.537-.644-.591-.675-.221-.739.525-.991.943l-.17-.705-.121.644c-.117-.199-.138-.464-.321-.624-.257-.224-.636.269-.841.033-.43-.492.464-2.17.526-2.745.062-.565.316-3.154 1.396-2.438-.087-.581 1.194-.469.698-1.112l1.167-.231c-.45.594.089.479.337.208.219-.238.333-.546.538-.792-.175-.148-.329-.13-.462.055-.284-.277-.466-.635-.532-1.026-.109-.644.067-1.316.355-1.891.388.534.638.494.93.875-.089-.334-.075-1.119-.229-1.379-.145-.244-.805-.777-.117-.833-.215.522.908 1.22.954 1.884.065.932.754 1.724.532 2.688-.206.895.727 1.606 1.259 2.171.902.955 1.93 1.778 2.913 2.646-.134-.667-.716-1.353-.771-1.988-.042-.475.462-.514-.092-.908-.461-.328-.027-.766-.102-1.187-.08-.453-1.185-.704-.611-1.224-.412-.233-1.014-.392-1.112-.936-1.106 1.061-1.189-1.829-1.337-2.273l.462.346c-.506-.598-.083-1.17.645-1.051-.872-.505-1.497-2.038-1.057-2.984.428-.919-.795-.901-1.422-1.011.166.047-.338.051-.438.033.143.268.038.431-.231.522.152-.434.418-1.003-.016-1.379-.245-.213-.801-.236-.805-.662l.76.353c-.009-.667.065-.424.594-.474.199-.019.606-.1.281-.347.143.135.247.145.313.031-.13-.292-.903-.692-1.188-.499.395-.288-.23-.728-.749-.747-.961-.036-.059.714.342.808-.926-.167-1.86.042-2.757.268-.298.075-.636.091-.877.31-.284.258-.312.71-.688.881.266.343.874.137 1.051.583-.34.162-.751.216-1.105.061.349.592-.955.781-.468 1.397-.52-.199-1.071-.579-1.658-.453-.493.106-.649.688-1.113.847-.729.251-.758-.182-1.282-.372-.364-.132-.558.631-.438.853-.146-.126-.281-.262-.407-.407.26.381.449-.424-.292.176l.463-.414-1.46.353c.267.197.151.409-.054.583.316-.23.502.271.698.407-.553-.056-.671.1-.353.468-.481-.121-1.27.228-1.628-.061l.115.936c-.184-.1-1.544-.54-.991-.875-.631-.16-.128-.324-.685-.49-.382-.114-.816-.077-1.187-.209-.139 1.859-1.773-.286-2.504.929-.314-.45-.217-.423-.668-.427-.506-.004-.435.35-.092.196-.447.188-1.068.246-1.282.759.354-.781 1.023-1.345 1.629-1.926-.124-.131-.26-.249-.408-.352.757.417.208-.405-.151-.477-.389-.078-.817.014-1.19.13.268-.445-.282-.332-.523-.353 1.3-.687-1.564-.048-.936.699-.278-.308-.66.018-.93.121.209-.32-.438-.358-.542-.128.071.063.155.086.25.067-.434.087-.891.026-1.313.179-.228.082-.595.742-.729.344l.115.759c-.519-.016-1.641-.372-1.904.304-.163.417.123.673.288 1.014-.264-.062-.584-.332-.807-.43-.554-.246-.348.165-1.017-.067l.347.814c-.728-.228-.416-.995-.292-1.519-.078.463-.617.5-.879.807-.101.202-.151.415-.152.641-.108.399-.408.696-.658 1.008.251.042.516.169.724.341-1.164-.092-1.601 2.284-3.119.996 1.045.069 1.696-.483 2.122-1.39.267-.57 1.58-2.6.863-2.864.2-.018.373-.096.516-.237-.652-.133-1.062.571-1.464.945-.216.201-.566.038-.747.301-.221.32-.447.637-.645.972.747.167.083.876-.237 1.106-.146-.466-.101-.788-.463-1.133.989 1.774-3.228 2.12-4.057 2.758-1.071.824-1.732 2.148-2.699 3.094-.726.709-2.358.932-2.08 2.045.233.931-1.306.373-1.697.479-.36.098-.454.719-.261.993.221.314.762.289 1.092.379 1.007.274-1.068 1.087-.425 1.869.172.209.634.877.449 1.161-.337.515-.883-.217-1.287.131-.237-1.094-1.762-2.174-2.79-2.426-1.38-.336-2.106 2.002-2.403 3.019l-.008-.001c.276.25.92.625.571 1.078-.2.26-.825.401-.571.842-.239-.166-.407-.548-.753-.523-.348.025-.526.407-.353.699-.145-.167-.301-.324-.468-.468-.372.419-.331 1.371-.111 1.849.227.496-.284 1.198-.412 1.712.197-.338.801-.688.878-.055.1.82-.83.786-.878.115-.275.307-.553.666-.528 1.106-.02-.405.446-.001.237.353-.192-.26-.323-.118-.407.115.547-.081.171.757.073.968-.353.757-.906 1.36-1.703.699-.601-.498-.989-1.401-.736-2.171.193-.59.82-1.633 1.59-1.298-.909-.918-.625-1.842-1.168-2.889-.695-1.336-1.204-2.778-1.42-4.271.021.856.371 1.715.163 2.571-.221.912-1.025 1.097-1.714.511-.267-.227-.492-.551-.63-.872-.221-.514.123-1.163-.238-1.614-.572-.714-1.332-.377-1.799-1.317-.206.16-.247.354-.122.583-.128-.266-.282-.284-.461-.054-.141-.323-.398-1.243-.896-.745-.212.212.089.315-.026.54-.138.27-.515.436-.481.788-.096-.147-.115-.303-.055-.468-.292.217-.26.653-.317.969-.018.168-.086.313-.204.433-.446.382.503.555-.354.403.684.221.092 1.094.462 1.519l.413-.407c.254.451.125 2.365 1.106 1.635-.049.295.152.563.468.523-.672.73-.994 1.685-1.801 2.304-.748.574-1.42.979-1.665 1.949.078-.644-.161-1.933-.549-1.278-.378 1.002-.594 2.063-.589 3.136.373-.414.733-.868.973-1.377-.277.723-.68 1.339-.727 2.174-.035.634.005 1.274-.09 1.904-.087.578-.376 1.05-.199 1.647.309 1.04-.223 2.079-.283 3.131-.064 1.128.224 2.272.293 3.396.096 1.557-.755 3.218-.424 4.742.125.58.557.837 1.135.706.379-.086.757.057 1.104.19.606.233 1.037.222 1.675.234.43.009.758.238 1.173.264.498.029.359-.535.788-.57.482-.04.88.396 1.363.246.341-.105.561-.322.942-.182.275.101 1.335-.474 1.393-.697.233-.9.479-.476.936-.917.702-.679 1.005-1.415.461-2.312-.567-.936-1.416-2.015-.544-3.056-.466.253-.875.597-1.366.809-.756.327-1.001-.335-1.695-.254-.982.115.358-1.792-.208-2.128l-.462.99c-.043-.98-.107-2.059.045-3.032.087-.555.443-1.535-.167-1.927.343.052.462-.159.413-.468.146.24.373.464.583.115.011.322.335.423.488.655.181.275.101.673.05.969-.151.88.148 1.549.51 2.333.42.911.623 1.221 1.645 1.244.751.017.415 1.262.805 1.741.543.667 1.341 1.152 2.121 1.491.928.404 2.023.399 2.917.811.509.234.699.893.796 1.396.033.171.079.604.328.634.726.086-.282.74.719.277-.414.13-.227.542-.077.797.236.401.679.356 1.073.431-.249.469-.835.219-1.227.17.37.592.485 1.68 1.235 1.948.84.301 1.105-1.438 1.743-.952-.273.054-.564.43-.122.523-.481.199-.496 2.492-.442 2.929.189 1.544.472 3.079.915 4.571.421 1.417.607 2.91 1.232 4.262.143.309.447.911.896.686.603-.304.406-.6 1.19-.664-.505-.292.291-.859.645-.698 0-.787.348-1.512.434-2.286.053-.481-.097-.964-.035-1.447.144-1.11 1.779-.573 2.152-1.49.221-.541.929-.575 1.379-.811.589-.308 1.039-.835 1.668-1.071.451-.17 1.054-.299 1.16-.86.105-.55.806-.61.94-1.138l.116.584c.133-.142.271-.277.414-.408.108.149.205.306.292.468 0-.962.519.535.753-.644l.237.529.291-.645c.06 1.139.278.142.177-.177.694.004 1.132.748 1.265 1.347.048.216.207 1.356.601.817-.264.571 1.621 1.232.292 1.045.257.469.347.765.583.061.104.49.167.989.172 1.49.006.508-.509 1.744.174 1.251-.505.806.009-.152.291.468.24-.611.226-.178.418.014zm-3.269-46.204c-.596-.15-.332-.762-.198-1.165l.125.125c.551.679-.749.489.073 1.04zm2.157-1.343c-.505-.434.483-1.247-.291-.699l.635-.69c.16.469-.196.965-.344 1.389zM68.69 12.503zM68.902 13.243c-.035-.14-.049-.625-.229-.71l.018-.024-.025.018-.007-.006-.013.007.015.003-.341.245c.208.138.403.293.582.467z"/><polygon points="68.69,12.503 68.692,12.502 68.692,12.502"/><path d="M68.692 12.502l.017-.009h.001l-.018.009-.002.007.034-.024h.001l-.001.001.001-.001-.031.012-.045.017.009.008.034-.02zM51.357 14.034l.043-.037-.043.037zM51.357 14.034l-.717.607c.582.474 1.156-.064.717-.607zM51.4 13.997l-.046.033-.023.021v-.004l-.049.046.074-.06.044-.036zM51.336 14.002l-.005.045.023-.017-.018-.028zM50.586 14.756zM50.993 14.872l-.407-.116-.061.237c.171.017.328-.023.468-.121zM51.518 14.806l-.7.303c.183.218.916.731 1.175.373.348-.48-.636-.605-.361-.726l-.114.05zM51.631 14.756zM52.391 15.225l-.006.012.001.001.005-.013zM52.386 15.238l-.042.113-.001.001-.002.006.002-.006-.003.008-.295.799.93-.352c-.109-.218-.292-.472-.52-.179-.003-.055-.04-.339-.069-.39l.005-.014-.005.014zM52.344 15.352l.001-.009-.001.009zM52.34 15.361l.001-.002-.001.002zM52.365 15.253l-.021.089.04-.105-.019.016zM69.078 15.455l-.176-.23c-.358.187-.299.264.176.23zM62.35 15.291l.007-.038-.007.038zM62.37 15.294l-.017.003.07-.012-.062.005-.013.001h-.001l-.001.006.024-.003zM62.348 15.298l-.067.011-.847.146c.198.158.52.329.785.261.379-.096.139-.295.129-.418l.006-.001-.006.001zM60.267 15.631l.016.02-.016-.02zM60.267 15.631l.033.042-.033-.042.237.353-.705-.176c-.24 1.502 3.266-.177.468-.177zM60.3 15.674l-.018-.022.018.022zM61.734 16.895l-.008-.021.002.024.006-.003zM61.727 16.875l-.001-.016-.006.026.007-.01zM61.72 16.885l-.01.015-.007.019.011-.009.006-.025zM61.726 16.859l-.016.042.016-.042zM61.729 16.899l-.015.011c-.053.153-.092.31-.104.472.812-.269.29-.571.125-.487l-.006.004zM61.703 16.919zM61.693 16.926l.01-.007.007-.019-.017.026zM55.288 18.435zM55.308 18.433zM55.308 18.433c-.137.011-.272.031-.407.061.177.198.313.177.407-.061zM76.426 21.703zM76.426 21.703zM76.548 22.341l-.122-.638c-.19.255-.15.467.122.638zM79.551 29.417l-.001-.002-.03-.128.024.106.006.022.001.002.146.624c.058-.144-.062-.83-.146-.624zM79.538 29.366z"/><polygon points="79.548,29.42 79.55,29.417 79.55,29.415"/><path d="M79.52 29.287l.019.08-.019-.08zM72.682 29.884c.056-.11-.201.231 0 0zM72.694 29.87l-.064.101-.009.015.008-.012.001-.002.064-.102zM72.682 29.884l-.052.086.064-.101-.012.015zM72.629 29.974l-.004.006.055-.04.015-.069-.066.103zM72.68 29.939c-.079.245.254.385.422.454-.041-.056-.248-.532-.422-.454zM72.786 30.739l.002-.002c.091-.099.162-.156.226-.195l.088-.149-.316.346zM77.069 36.227c-.112-.716-1.076-.808-1.343-1.456-.235-.57-.032-1.273.699-.938-.598-.529-1.183-1.073-1.741-1.644-.336-.342-.661-.693-.975-1.056-.333-.386-.397-.776-.696-.591-.468.782.737 1.714 1.185 2.214 1.005 1.126 1.523 2.566 2.228 3.878-.032-.218-.297-.628-.023-.811.242-.161.598.21.666.404zM70.301 30.278l-.002.026.002-.026zM70.299 30.304zM70.301 30.278c-.012.136-.012.271 0 .407.201-.082.361-.395 0-.407zM70.301 30.278zM79.658 35.197l-.019.01-.024.014.016-.009-.016.009.032-.053-.134.051.061.025-.104.058.105-.037.014-.01.001.005.008-.011.097-.072h.001l-.038.02zM79.404 36.519c.062-.29.294-1.075.187-1.259l-.015.005c-.36.304-.199.807-.172 1.254zM79.661 35.195l-.03.017.009-.005.021-.012zM79.661 35.195l.035-.02-.035.02zM12.243 36.683l-.001-.021c-.028.204-.088.454.041.626.313.421.593-.289.906-.247l-.515-.307c-.302-.15-.492.134-.421-.155l-.01.104zm.004-.038zM12.241 36.662l.011-.082-.011.082zM12.243 36.683l.009-.104-.009.104zM79.112 37.57c.03-.243.225-.61.086-.848l-.021-.067c-.361.133-.171.675-.065.915zM79.059 36.67l.026-.005-.026.005zM79.174 36.646l.011-.002.013-.002-.024.004-.114.024-.011.002.011-.002h-.001l.115-.024zM79.059 36.67zM79.229 36.634l-.031.007h-.003l-.01.002-.011.002-.089.019.089-.019.003.01.052-.021zM76.62 37.187l-.036-.101.036.101zM76.617 37.179zM76.608 37.154l-.024-.068.024.068zM76.58 37.09c-.045.058.049.181 0 0zM76.608 37.154l.009.025-.009-.025zM76.548 36.986l.001.004.001.003.03.097.003-.004h.001l-.012-.032-.024-.068zM77.592 39.41c.336-.254.771.047 1.113.087 0-.659.254-1.285.639-1.811-.405.308-.527-.421-.639-.644.111.66-.523.597-.963.459-.312-.098-.61-.232-.904-.374-.148-.072-.216-.07-.248-.047.244.553 1.142 1.935.128 2.064.365.243-.062.505-.007.803.061.328.365.511.535.771l.522-.523c-.295.024-.735-.08-.699-.468.39.234.295-.145.523-.317zM76.584 37.086l-.001-.003.001.003.006-.006-.042-.094.036.1zM78.061 40.426zM79.328 42.495c-.008-.854-1.16-1.451-1.268-2.069l-.347.177.407.407c-.192-.05-.387-.088-.583-.115-.051.733.455 1.33.572 2.028.151.902-.311 1.717-.633 2.523-.318-.066-.38-.397-.231-.644-.682.336-.04 1.1-.093 1.62-.075.745-1.304.724-1.797.988-.462.247-.964.955-1.074 1.458-.164.74 1.157.546.922-.213.317.419 1.456-.868 1.75-.991.014.2.314 1.367.652.959.17-.205.278-.495.342-.749l-.295-.855c.049.22.834.002.353.353.204-.095.392-.215.562-.361.361-.333.146-.933.544-.168-.247-.684.338-.4.177-1.167.354-.021.314.421.291.644.274-.643.073-1.34-.253-1.92-.555-.983.009-1.023.002-1.905zM76.462 48.251c-.632.029-1.009.908-1.203 1.394.332-.248.475.178.529.407.265-.378.145-.814.723-.841.753-.034.051-.718-.049-.96zM76.443 48.191l.01.033-.01-.033zM76.454 48.225l-.131-.02.084.013.047.007zM76.34 48.207zM76.542 48.238l-.088-.014h-.001l-.046-.007-.067-.011.114.018.008.027.14-.004-.06-.009z"/><polygon points="74.389,49.522 74.376,49.534 74.376,49.534"/><path d="M74.445 49.469l-.057.053.057-.053zM74.369 49.529l-.027-.021.027.021zM74.445 49.469l-.076.06.007.005.069-.065zM74.376 49.534l-.745.695.25.216c-.158-.047.069.568.449.191-.246-.155-.285-.349-.116-.583.245.295.137.858.168 1.209.038.413.576 1.186.47.134.029.217.067.432.116.645.398-.343.491-1.011.423-1.5-.107-.771-.622-.672-1.012-1.004l.066-.067-.069.064zM18.906 51.863zM19.666 51.863c-.244-.059-.489-.065-.736-.021l.044.037c.231.095.461.098.692-.016zM19.021 51.919l-.046-.039-.009-.002.055.041zM18.965 51.878l-.06-.015.06.015zM74.852 54.429l-.346.352c.253.08.28-.2.346-.352zM74.852 54.429zM69.334 58.998l-.061.129.061-.129zM69.33 59.099c-.629 1.21-1.099 1.694-.021 2.859.148-.803.553-1.574.451-2.41-.018-.147-.183-.634-.341-.619l.005-.011-.005.011.005-.011-.006.011-.058.036.051-.063-.067.074-.011.022.015-.018-.018.119zm-.023.054zM14.707 62.833zM15.46 63.24c-.28-.15-.729-.344-.753-.407.133.29.427.483.753.407zM70.743 64.885c-.435.018-1.003-.075-1.198.406-.229.565.042 1.217.057 1.795-.761-.326-.296 1.326.176 1.521-.054-.172.053-.611.306-.286.172.221-.08.543-.129.754.33.111.51-.14.777-.261.382-.174.649.254.912.437l-.115-.644c.219.202.391.481.688.582.286.097.581-.127.654.293.244-.982-.017-.136-.339-.492-.165-.183-.055-.43.162-.499-.25-.172-.673-.146-.698.231-.106-.344-.887-.53-.699 0-1.41-.722-.125-1.688-.155-2.667-.011-.354-.234-.726-.304-1.073l-.008-.1.054-.007-.036.005.036-.005-.054.004-.087.006zM60.253 66.821c.493-.094.865-.726 1.038-1.149.212-.522-.278-.553-.312-.569-.463.081-.949.196-1.278.533-.409.419-.097 1.308.552 1.185zM61.021 65.096l.052-.009.205-.035-.098.017.004-.001.134-.022-.089.015.156-.026-.405.069.053-.009-.012.001zm.089-.016l.097-.017-.068.012-.029.005zm.194-.033zM61.317 65.045l-.04.007.04-.007zM73.69 69.208l-.015.005-.628.208c.27.204.936 1.027.115.82.033.482.411.821.699 1.167.102-.376.03-.754-.099-1.112l.62.061c-.149-.453-.267-.876-.692-1.149l.056-.019-.056.019zm-.014.005l.014-.005-.014.005zM73.689 69.208l.057-.019-.077.021.006.002.001.001.013-.005zm-.003-.004zM70.77 69.994c.136-.955-.742-.254-1.053-.628.166.1.956 1.305 1.053.628zM69.717 69.366zM69.717 69.366l.047.027-.047-.027zM69.764 69.394zM72.871 70.126l-.698-.529-.008.106.008-.053c-.01.177-.012.354 0 .53.157-.28.494-.275.698-.054zM72.165 69.703l-.002.011.002-.011zM72.165 69.662l.008-.065-.008.065zM72.165 69.662l-.002.052.002-.052zM71.138 70.558l.215 1.081c.339-.316.971-.599.874-1.167-.102.09-.938.174-1.089.086l.012.056-.012-.056zm.013.064zM71.121 70.472l.015.073-.015-.073z"/><polygon points="71.138,70.558 71.136,70.545 71.138,70.558"/><path d="M71.121 70.472l.017.086-.017-.086zM71.155 70.645l-.018-.087-.029-.018.047.105zM72.951 70.648l.035-.116-.01.033-.025.083zM72.939 70.684l.037-.121-.037.121zM72.939 70.684c-.154.514-.305 1.029-.476 1.538.155-.425.42-.799.535-1.242.202-.772-.181.099-.012-.447l-.039.125.003-.009-.003.01-.003.008.031-.101.01-.033-.01.03-.031.104-.005.017zm-.017.061l.001-.003-.001.003zM72.537 71.645c.006-.136-.189-.639-.268-.636-.104.383-.17.841-.565 1.037l.522.528c.248-.18.298-.657.311-.929zM72.287 70.944zM72.282 70.959l.006-.02-.006.02z"/><polygon points="72.236,71.116 72.236,71.115 72.236,71.115"/><path d="M72.283 70.957zM72.236 71.117l.017-.057-.017.055v.002zM72.253 71.058l.003-.007.012-.041-.001.002.001-.002.016-.053-.016.053-.031.105.012-.039.004-.018zm-.013.045l-.002.007.002-.007zm-.002.006l.001-.005-.001.005z"/><polygon points="72.253,71.061 72.257,71.045 72.253,71.058"/><path d="M72.268 71.01l.002-.001.018-.064-.02.065zM72.282 70.959l-.015.051.015-.051zM72.268 71.01l.02-.065.001-.005-.021.07zM72.257 71.045l.011-.035-.011.035zM68.963 71.699c.049.119.065.233.068.346l.086-.269-.154-.077zM69.139 71.312l.012.048-.012-.048zM69.15 71.357v.005l.015.054-.015-.053c.025.12.006.263-.033.413.145.023.078-.255.033-.419zM67.328 74.209c.173-.145.382-.345.595-.575-.234.201-.452.392-.595.575zM69.031 72.045c-.219.517-.673 1.116-1.108 1.589.528-.458 1.126-.974 1.108-1.589zM69.15 71.347l-.012-.031.012.042v-.011zM69.133 71.292l.003.013.003.008-.006-.021zM69.138 71.315l-.002-.011-.001.002.003.012.013.045v-.001l-.013-.047zM69.139 71.315l-.006-.023.006.021v.002zM74.798 72.282c.151-.462-.221-.709-.584-.874l-.012-.069.012.069c.145.874-.806 1.264-1.343 1.926.096-.189.07-.36-.077-.511-.316-.241-.61.271-.764.438-.223.24-.999.985-.387 1.239.08-.188.114-.879.462-.792.205.117.419.14.643.065.203-.164.015-.41.393-.287.528.172-.125.895.238 1.153.595.422.781-.579 1.005.268.44-.414-.192-1.016.176-1.458l.469.699c-.153-.399.722-2.007-.231-1.866zm-.563-.748l.009.054-.006-.036-.003-.018zm-.014-.082l.001.005-.001-.005zm.011.068zM73.102 71.463c-.86.916 1.224-.105 0 0zM45.615 71.601c-.118.134-.195.216.012.391l.055-.469-.067.078zM45.682 71.522l-.066.078.066-.078zM34.19 72.574l.407.292c-.378-.151-.407.208-.403.48.001.101-.146.727-.209.601.16.894.612 2.666 1.649 1.442.609-.716-.451-2.99-1.444-2.815zM33.985 73.947l-.026-.151.026.151zM71.86 74.672l-.332-.002-.061.237c.122-.095.253-.174.393-.235zM71.528 74.67zM66.907 75.345l.023.001-.003-.024-.02.023zM69.078 79.69c-.181-.086-1.447-.569-.82-.813l-.93-.875.638-.122c-.642-.625.143-.511.706-.699-.699-.559.021-.6.583-.931-.244-.067-.512-.028-.76-.047-.646-.046.011-.517-.76-.073.29-.483-.48-1.056-.644-.407-.016-.042-.066-.284-.138-.359l-.017.037-.043.091c-.232.541-.412 1.274-1.085 1.344.508.244-.419.52-.591.569-.743.215-.994.983-1.55 1.437-.469.383-1.189.494-1.404 1.135-.235.7-1.068.619-1.469.122-.305.327-1.367 2.099-.062 2.103-.362-.035.021.271-.176.468.171-.073.348-.132.528-.176l.23 1.282c.438-.08 1.443-.51 1.459.292.236-.131 1.599-1.022 1.574-.292l.76-.176c.029.193.05.389.062.584.241-.111 1.74-.764 1.336-1.168.495.122.453-.664.062-.76.327-.396 1.003-.458 1.242-.945.124-.252-.226-.517-.021-.744.172-.192.585-.452.298-.76.314.231.724.117.992-.117zM66.929 75.407zM66.937 75.393l-.076.146.034-.047.043-.091-.001-.008zM66.954 75.363l.022-.049-.024.048.002.001zM66.977 75.314l-.024.048.024-.048zM66.825 75.438l.082-.094-.082.094zM66.952 75.362l-.003.005.003-.005-.021-.017.006.047-.008.015.008-.015.015-.03zM46.265 76.307l.116.352c.185-.185-.131-.356-.116-.352zM46.271 76.323zM77.069 76.421c-.096.183-.155.393-.23.584.219-.139.296-.333.23-.584zM77.046 76.464l.023-.043-.023.043zM77.042 76.473zM77.042 76.473l.027-.052-.027.052zM76.602 76.89zM76.521 77.069l.08-.18-.144.322-.009.021-.004.009.155-.35.001-.002-.079.18zM77.186 77.181l-.843.732c-.021.497.144.966.666 1.255-.311-.204-.449-.579-.461-.936l.813-.061c-.198-.066-.393-.144-.583-.231.284-.133.48-.44.408-.759zM76.311 77.94l.032-.027v-.004l-.032.031zM76.602 76.89l-.001.002c-.143.322-.243.677-.258 1.018.339-.229.29-.665.259-1.02zM57.548 84.369c-.086-.445-.988-1.169-1.252-.468l.114-.39c-.396.13-.308-.336-.343-.562-.076-.491-.776-.329-1.105-.404l.462-.698c-.152-.158-1.15-.718-1.222-.407l-.642-.553c-.354-.307-.605-.896-.702-.146-.446-.447-.901-.901-1.46-1.21-.73-.4-.71-.434-1.061-1.068-.281-.51-.872-.657-1.407-.713-.556-.059-1.228-.321-1.203.116.377.748 1.087 1.301 1.696 1.847l1.292.943c.358.321.267.848.5 1.233.213.353.575.562.864.842.448.434.737.994 1.147 1.459.812.921 1.966 1.403 2.955 2.093-.09-.47.895-.145.99-.061.114-.606.499-1.216.377-1.853zM47.609 77.648l.053.138-.053-.138.071.185.044.115.019.049.021.055v.002l-.014-.037.04.104-.062-.254-.119-.219zm.134.35l.001.005-.001-.005zm-.046-.119l-.075-.195.075.195zM73.355 79.06c.419-.251.637-.639.915-1.02l-.019-.022c-.326.313-.6.699-1.031.876-.701.286-1.485.152-2.22.181-.233.029-.388.156-.463.38-.157.309-.144-.126-.334-.006-.258.162-.172.975-.603.887.072.197.151.392.236.583-.187-.19-1.654 2.712-.353 2.042-.028.487-.036.977-.115 1.459 1.449-.174.12-2.429 1.514-2.334-.25.695.585.887.292 1.397.477.135.774-.38 1.167-.522-.451-.363-.722-.295-.292-.82l-.99-.76c.574.16.982-.294 1.352-.729.074.304.437.1.528-.081-.169.003-.337.02-.503.052.147-.174.29-.343.434-.464-.479.129-1.036.163-1.427.503-.253.22-.523.633-.908.607-.683-.046-.481-1.146-.104-1.423.796-.582 2.055-.265 2.924-.786zM74.141 78.109l.111-.092.078-.077-.189.169zM74.291 77.976l-.02.017.02-.017zM74.271 77.992l-.075.067.075-.067zM74.33 77.94l-.039.035.039-.035zM74.196 78.06l-.005.004.005-.004zM74.191 78.063zM59.436 78.537l-.028.024.028-.024.001.002.016-.015-.017.013zM59.437 78.539c-.174.147-.239.267-.044.453.211-.174.086-.379.044-.453zM59.407 78.562zM76.174 78.955l.027.054.029-.042-.056-.012zM76.188 79.026l.007-.01c-.037-.05-.1-.128-.045.064l.038-.054zM76.188 79.026l.007-.01.013.016.003-.006-.01-.018.029-.042.008.001.018-.037-.025.036-.029.042-.006.008-.008.01zM76.208 79.032c-.117.248.082.296.34.136-.078-.133-.185-.191-.31-.2l-.027.059-.003.005zM76.311 79.63l-.177.292c.2-.013.395-.051.584-.116-.083-.081-.447-.184-.407-.176zM48.015 79.866zM48.015 79.866l.76.347c-.305-.251-.68-.312-.76-.347zm.057.027zM78.468 80.158l-.272.061.157-.035.052-.012-.049.011.046-.01.066-.015-.006.001h-.001c-.676.148-1.838.163-1.975 1.051.116-.476 1.918-.598 2.335-.529-.217-.456-.775-.429-.353-.523zm-.252.056l.125-.027-.125.027zM78.468 80.158l-.063.014.063-.014zM73.631 80.918c.304-.154.742-.426.814-.413-.327-.033-.742.018-.814.413zM74.445 80.505zM74.445 80.505c-.01-.014-.436-.044 0 0zM72.986 80.565l-.027.003.027-.003zM72.941 80.56zM72.959 80.562l.027.003-.027-.003-.001-.025-.013.023-.004-.001.004.001-.005.01.019-.002v-.006zM49.535 80.918l-.237.055c.18.266.425.487.705.645.117-.357-.308-.658-.468-.7zM54.025 80.973l.061.353c.328-.184-.061-.353-.061-.353zM56.184 81.088l-.031.011.013-.004-.329.115c.491.278.381.004.347-.122zM56.165 81.095l.019-.007-.019.007zM74.968 81.502c.316.269.739.165.996-.122-.163-.132-.393-.19-.41-.198l-.586.32zM75.559 81.145zM75.559 81.145l-.013.034.008.003.058-.032-.053-.005zM56.536 82.2l-.408-.176c-.151.265-.016.324.408.176zM50.702 83.015l.583.408-.292-.585-.291.177zM50.993 82.838zM72.394 83.112c-.145.239-.254.5-.282.778.172-.118.328-.254.469-.408-.236 0-.25-.198-.187-.37zM72.462 82.97l-.019.024.021-.026.037-.046-.107.19.125-.213-.057.071zM72.443 82.994zM72.519 82.899c-.015 0-.272.341 0 0zM57.41 83.119zM56.651 83.543c.359-.088 1.523 1.168 1.574.231-.19.031-.787-.444-.815-.645-.307-.004-.65.086-.759.414zM57.5 83.128l.026.003c-.147-.026-.091-.091-.115-.053l-.001.041.041.004-.041-.004v.001l.116.011-.026-.003zM57.526 83.131h0zM57.41 83.124v0zM57.493 83.131l-.083-.007v.006l.083.001zM72.094 83.161l.008-.002-.008.002zM72.227 83.131l-.11.025.058-.014-.062.015-.019.004h-.001l.059.003.075-.033zM71.82 83.774c.158-.028.524-.574.331-.61-.248.097-.373.344-.331.61zM72.184 83.141l.043-.01-.019.002-.106.026.111-.025-.029.007zM72.208 83.133c.133-.039-.333.035 0 0zM72.174 83.143l.01-.002-.01.002zM58.984 83.714l-.002.009.001.001.001-.01zM59.507 83.835l-.523-.111-.06.459c.285.037.479-.079.583-.348zM52.16 84.183l.23.352c.005-.17-.072-.287-.23-.352zM75.361 84.436l.135-.017-.135.017zM75.361 84.436c-.296.035-.629.059-.74.391.335-.155.769-.393.875-.407l-.135.016zm.04-.001l.021-.004-.021.004zM75.779 84.769c-1.057.388-2.909.848-3.261 2.1.666-.068 1.244-.415 1.755-.826.312-.251.604-.524.905-.787.237-.207 1.185-.701.141-.316l.469-.173-.009.002zm-.183.067l.143-.052-.143.052zm-.251.093l.05-.019-.05.019zM74.038 85.057zM74.038 85.057zM73.394 85.409c.348-.031.443-.353.645-.353-.279.003-.494.12-.645.353zM73.394 85.294zM73.394 85.294l-.292.115c.172.288.294-.139.292-.115zM72.078 85.645l.019-.035.076-.146-.067.127.067-.127-.005.007c-.514.956-1.841.512-2.621 1.045.597-.022 1.238-.214 1.803-.392.198-.062.416-.145.61-.255l-.003.005.003-.005.205-.123c.146-.134.029-.323-.087-.101zm-.093.174l.03-.058-.002.003-.028.055zM63.887 86.713c-.863-.122-1.289-.737-2.226-.393-.855.315-1.416.261-2.273-.021-.15-.049-1.608-.28-1.924-.117l.002-.013-.003.014.003-.014-.003.014h-.001l.004-.014-.006.014-.056.102c-.052-.175-.032.025.011.005-.119.286-.393.485-.702.518.623.063.819.244 1.372.452.585.22 1.316.016 1.926.025.762.013 1.522.135 2.285.108.917-.032 1.84-.232 2.754-.057.001-.664-.707-.559-1.163-.623zm-6.433-.492l.001-.007-.001.007zm-.02.089zM64.541 86.199l.019-.003-.009.002.024-.005.056-.011-.003.001.076-.015-.182.034h.001l.027-.005-.009.002zM64.596 86.255c-.024.011.205-.106-.072-.052l-1.047.197c.384.034.76.011 1.119-.145zM64.704 86.169l-.073.014.073-.014zM67.966 86.4c-.317.143-.22.26.292.353-.063-.004-1.769.145-1.151.372.707.26 1.355-.387 1.972-.609-.323-.033-.883-.085-1.113-.116zM66.496 86.771h.002l.01-.018-.012.018zM66.498 86.771l-.221.39c.301.092.635-.059.645-.407.03.002-.354.03-.424.017zM66.495 86.771l.013-.018-.013.018zM66.496 86.771zM65.463 86.868l-.037.001.037-.001zM65.463 86.868l-.468.055c.297.358.752.354 1.051 0-.151-.024-.65-.085-.583-.055zM65.426 86.869zM69.591 86.883l.068-.014-.081-.03.013.044zM69.591 86.883z"/><polygon points="69.66,86.869 69.662,86.868 69.66,86.869"/><path d="M69.659 86.869l.003-.001-.003.001zM69.66 86.869l-.873.291c.455.098 1.232.562 1.573 0-.226-.133-.462-.202-.7-.291zM10.212 39.776l.12-.288-.051.123-.074.179-.002.006-.079.19.099-.201.107-.297-.12.288zM10.281 39.61z"/></svg>