<svg xmlns="http://www.w3.org/2000/svg" width="100" height="100"><circle fill="#B2B2B2" cx="50" cy="50" r="50"/><path d="M90.408 52.779l-.056-.263-.186.007v-.432h.063l-.063-.259v-.219h-.063c-.051-.137-.134-.288-.255-.46l-.083-.117h-.005l-.248-.297v-1.177l-.329-.001v-1.492c0-.387-.039-.706-.078-.92.272-.125.339-.398.202-.804-.073-.262-.473-1.58-.925-1.914l-.166-.123-.054.038-.005-.017c-.104-.02-.54-.075-1.145-.153-1.487-.192-3.974-.519-5.064-.741l-.048-.01-.227.028.005-.079-.166-.05c-.362-.212-7.168-3.509-11.024-4.801l-.117-.037-.015.007v-.012c-.696-.23-1.254-.373-1.658-.431-2.778-.391-7.947-.811-11.207-.811-3.36 0-9.362.238-12.183.774-.496.095-1.113.273-1.833.527v.008l-.009-.005-.385.142v.005l-.006-.002-.119.043c-4.294 1.635-10.609 5.266-12.26 6.821l-.339-.013-.128.063-.012-.068c-.274-.01-.605-.017-.913-.017-.161 0-16.673 1.747-17.596 4.144h-.002l-.239.681h-.332l-.078.057c-.08.061-.139.139-.183.251h-.008l-.115.477h.006l-.103.446h-.02l-.031.22-.058.259h.068c.025.084.069.16.131.224l.085.085h.025l-.111.062-.315.185.014.049-.088-.002-.077.051c-.3.202-.483.389-.571.579l-.06.003v.182l-.083.3.084-.004v1.821c0 .163.049.411.312.56-.104.07-.167.187-.167.326 0 .089.026.17.074.235-.09.095-.142.224-.142.36 0 .16.068.31.188.406l.079.063h.182c-.125.148-.157.36-.083.546.073.178.231.289.42.311l-.017.12c0 .962 7.071 1.312 8.328 1.366v.008l.477-.001v-.005l.461-.025c.493-.025.962-.06 1.369-.092.991 1.785 2.895 2.993 5.075 2.993 2.261 0 4.227-1.302 5.183-3.194.326.153.638.229 1.068.258v.007l.462.018v.002l.219-.006h.258v-.009c.494-.03 1.287-.13 2.186-.242 1.299-.162 2.773-.345 3.602-.345l23.396-.097c.716 0 1.495.229 2.121.408.336.101.633.187.874.226v.024l.222-.002.256.016v-.027c.136-.012.233-.036.309-.077l.151-.081v-.139h1.034c.945 1.931 2.93 3.263 5.218 3.263 2.379 0 4.43-1.438 5.323-3.494h1.207c.093.093.222.165.378.21v.024l.207.02.268.048v-.031l.243-.006.134-.084.022.07.318-.033-.002.006.377-.058c2.331-.354 6.511-1.504 7.816-2.071l-.013-.065.132.014.078-.039c.424-.221.436-.745.36-1.096.194-.349.516-1.062.701-1.884h.002l.034-.202.057-.274h-.013c.027-.21.044-.414.044-.609.003-.15-.007-.29-.027-.428z"/></svg>