<svg xmlns="http://www.w3.org/2000/svg" width="100" height="100"><circle fill="#B2B2B2" cx="50" cy="50" r="50"/><path d="M62.299 44.921s-.459 1.429-.531 1.619-.514.783-.418.783c.095 0 1.069.451 1.069.451l3.786 1.177-.055 1.783c-.332.049-1.64.914-1.83 1.343-.124.279-.401.778-.667 1.124 3.448 1.391 5.466 3.427 5.548 5.706.057.406 2.148 7.874 2.269 9.555h15.932c.014-.069-.479-9.729-.484-9.803 0 0-.915-2.326-2.364-2.562-1.451-.238-3.312-.744-4.092-1.332-.455-.346-1.938-.945-2.625-1.195-.32-.115-.869-1.063-1.059-1.491-.189-.429-1.498-1.294-1.831-1.343l-.054-1.784 3.785-1.176s.977-.452 1.07-.452c.096 0-.451-.718-.522-.909-.071-.19-.428-1.491-.428-1.491s1.278 1.562 1.926 1.854c0 0-1.272-2.39-1.651-3.72-.381-1.332-.631-3.411-.631-3.602 0-.191-.785-5.777-1.213-6.704-.428-.928-1.008-2.187-2.002-2.806-.994-.618-2.467-1.498-4.583-1.615l-.095-.005-.096.005c-2.115.117-3.588.997-4.582 1.615-.992.619-1.574 1.878-2.002 2.806-.429.927-1.213 6.513-1.213 6.704 0 .19-.222 2.354-.602 3.686l-1.68 3.636c.649-.295 1.925-1.857 1.925-1.857zM29.353 60.394v-.097l.01-.096c1.031-4.451 6.393-6.577 9.32-7.853-1.777-.812-2.715-1.419-3.154-1.518-.179-.36-.565-3.078-.565-3.078s2.136-1.888 2.615-5.502c0 0 1.052.582 1.117-1.617.049-1.694.341-2.356-.812-2.852 0 0 .083-1.172.12-2.213.057-1.542.341-3.707-2.327-5.448-.379-.247-2.337-1.336-2.35-1.33-.698-.424-1.584-.693-1.584-.693l.028.636-.14-.14c-.176-.182-.275-.883-.258-1.16l.034-.493c-1.265.943-2.136 2.162-2.136 2.162l.113-1.179s-.235.361-3.127 2.167c-2.838 1.771-2.368 4.386-2.29 5.934.052 1.04.155 1.758.155 1.758-1.152.495-.548 1.202-.519 2.896.037 2.344 1.219 1.931 1.219 1.931.544 3.192 2.221 5.143 2.221 5.143s-.475 2.734-.657 3.082c-.523.116-1.73.949-4.264 2.004-3.733 1.554-2.561.652-5.6 2.171-4.803 2.401-3.851 12.417-3.851 12.417h15.13l1.552-7.032zM70.589 73.982c0-2.855-3.224-14.931-3.224-14.931 0-1.765-2.32-3.78-6.896-4.955-2.375-.609-4.366-1.974-4.366-1.974-.294-.167-.249-1.709-.249-1.709l-1.474-.222c0-.126-.126-1.975-.126-1.975 1.764-.588 1.582-4.058 1.582-4.058 1.119.616 1.848-2.127 1.848-2.127 1.324-3.814-.659-3.584-.659-3.584.63-2.855 0-7.026 0-7.026-.882-7.726-14.157-5.629-12.583-3.104-3.879-.714-2.994 8.059-2.994 8.059l.841 2.268c-1.653 1.063-.504 2.352-.448 3.835.081 2.188 1.427 1.734 1.427 1.734.084 3.611 1.875 4.086 1.875 4.086.337 2.268.127 1.882.127 1.882l-1.596.191c.071.573-.125 1.538-.125 1.538-1.88.83-2.28 1.317-4.144 2.128-3.602 1.567-7.517 3.607-8.212 6.354l-2.761 13.588h42.157v.002z"/></svg>