<svg xmlns="http://www.w3.org/2000/svg" width="100" height="100"><circle fill="#B2B2B2" cx="50" cy="50" r="50"/><path d="M74.924 18.153c.615-1.539-.308-2-.308-2l-45.848 7.231c-1.23.769-.307 1.692-.307 1.692l-9.847 54.463 1.846.154 8.77-50.771 8.154 45.848 1.539-.155-8.923-49.847 6-1.077c-.154.616.615 2.462.615 2.462l1.231 27.693-.615 6 11.385-.309 1.692-1.076-.923-5.386-1.846-31.075 5.692-.615c-.308.769.615 2.769.615 2.769l.462 28.77-.308 6.154 11.847-.309 1.847-1.231-1.231-6.615-.923-31.231 7.538-1.077-5.23 63.233h1.538l4.77-55.694 5.847 50.309 1.385-.769-6.464-57.541zm-25.95 35.847l.974 4.103h-1.231l.257-4.103zm-11.282 4.923l.462-4.153.922 3.385-1.384.768zm10.77-6.307l-.308 5.538-8.462.154-1.385-5.078-1.077-27.384v-1.846l9.077-1.693s0 1.231.77 2.001l1.385 28.308zm17.948.051l.77 4.769h-1.18l.41-4.769zm-11.897 5.487l.41-4.564.616 4.001-1.026.563zm11.282-6.769l-.513 6.051-8.974-.051-1.078-4.923-.692-28.771c.385-.769.539-2.539.539-2.539l9.153-1.231c-.229.924.539 2.309.539 2.309l1.026 29.155z"/></svg>