<svg xmlns="http://www.w3.org/2000/svg" width="100" height="100"><circle fill="#B2B2B2" cx="50" cy="50" r="50"/><g fill-rule="evenodd" clip-rule="evenodd" fill="#231F20"><path d="M56.469 36.246l-.086.006c-.026-.145-.106-.211-.214-.269l-.716-.39c-.095-.053-.156-.03-.189.028-.083-.039-.138-.017-.169.038-.082-.039-.137-.017-.168.038-.083-.039-.139-.016-.169.038-.083-.039-.138-.017-.169.038-.083-.039-.138-.016-.168.038-.084-.039-.139-.017-.169.037-.083-.038-.138-.016-.169.038-.083-.039-.139-.016-.168.038-.084-.039-.139-.016-.169.038-.083-.039-.138-.016-.169.038-.082-.039-.139-.016-.169.038-.083-.039-.138-.016-.168.037-.083-.038-.138-.016-.168.038-.084-.038-.14-.016-.17.039-.083-.04-.138-.018-.168.037-.137-.063-.197.039-.197.174l.001.346-.043.052.005.119-.068.022-.025-.017c-.057-.044-.153-.084-.253-.055l-.106.025-.097-.035.033-.062c-.004-.063-.084-.063-.168-.06-.083.004-.066.151-.091.164l-.034.076-.103.023-.086-.028.033-.062c-.004-.064-.084-.064-.167-.059-.084.003-.067.151-.093.163l-.029.064-.088.02-.088-.029.033-.063s-.084-.063-.167-.059c-.084.004-.067.151-.092.163l-.031.065-.093.021-.091-.031.034-.063s-.084-.063-.168-.059c-.084.003-.066.151-.092.163l-.031.067-.072.019c-.055-.032-.111-.045-.166-.031l-.019.005-.051.016-.066.032-.058.005-.019.005-.05.016-.012.003-.153-.016-.021.007-.059.018c-.073.019-.132.073-.17.152-.069-.047-.143-.066-.214-.048l-.022.006-.059.019c-.135.034-.219.192-.223.392l-.162.046-.099.006-.409-.43c-.05-.05-.116-.123-.184-.11l-.298.057-.019.004c-.172.042-.252.341-.213.718-3.406.007-9.211.021-9.402.026-.271.007-.547.028-.958.198-.338.138-.594.351-.674.422l-.731-.854c-5.708-6.566-11.814-10.686-13.281-9.41l-.026.025-.711.646c-1.354 1.178 1.677 6.548 6.638 12.529l-.21.097c-.08.034-.126.05-.171.147-.018.04-.371.666-.795 1.408l-.051-.003-.054-.058-.04-.001-.192.18-.001.04.053.058-.025.024-.002.054.077.082.021.013-1.231 2.172c-.023.045-.046.131.017.172.062.039.901.565.935.593l.121.068h.074l.057.039c.057.034.135.097.162.202l-.39-.013c-.08 0-.13 0-.13.115 0 .114.057 2.743.062 2.868.005.126.109.167.184.161l.523.003.2 5.929-.623 1.115s-.103-.009-.264.339c-.161.348-.359.815-.429.893-.07.076-.171.393-.188.48-.019.09-5.65 11.223-5.711 11.327-.061.105-.084-.025-.249.301-.166.326-.495 1.052-.528 1.117-.032.065-.069.11-.037.254l.05.104-1.038.375c-.054.021-.092.067-.092.142v.378l-.398.188s-.101.146-.046.201c.054.054.486.146.541.15h.155l2.37.604-1.21 3.24s-.17 0-.293.297c-.123.298-.473 1.098-.511 1.181l-.042.258-.925.475c-.038.019-.101.06-.101.114l.017.9-.201.252c-.046.045-.39.23-.423.246-.034.018-.038.135-.038.177 0 .041.029.101.101.126l1.165.436.256.084h.293l.151-.039.586-.301.23-.243c.037-.029 9-5.057 9.071-5.1.071-.04.138-.04.18-.029.042.014 11.208 2.745 11.279 2.771.072.025.482.129.558.129l.507.005c.05 0 .15-.013.188-.046l.762-.629c.042-.038.038-.108.021-.138l-.101-.185-.109-.07-.49-.047-.084-.071-.042-.863-.038-.092-.201-.034-.088.005-.775-.174-.021-.107-.059-.079s.072-.105-.025-.269c-.096-.163-.984-1.655-1.039-1.722-.054-.067-.386-.541-.481-.699-.097-.16-7.86-14.26-7.886-14.306-.024-.045-.017-.251-.079-.359l-.556-.984.02-.031c.631-1.019 1.713-2.338 2.955-2.519 1.839-.268 5.727-.097 7.001-1.608l.562-.677.213-.101c.085-.047.166-.122.241-.214.417.057.749-.008.976-.205l.027-.024.71-.646c.336-.291.421-.848.284-1.61l.292-.541.183-.145c.253-.126.396-.52.46-.713l.182-.363.352-.651c.254-.472.521-.977.589-1.183.13-.399 1.203-2.387 1.333-2.548.063-.08.334-.654.61-1.256l.986-1.824.113.075c.105.07.211-.087.105-.159l-.128-.085.031-.057c.2-.143.491-.282.68-.36.531-.219 1.667-.127 2.015-.075.351.052.828.07 1.143.061l1.521-.067c.69-.027 1.382-.044 1.574-.011.195.033.326.052.389.046.148-.013.057-.126-.005-.174l-.479-.294c1.341-.502 2.453-2.562 1.295-3.726-.144-.144-.212-.212-.424-.204zm-35.987 35.792l.423-1.005.097-.427 5.104-9.977-4.365 11.705-1.259-.296zm.025 6.214c.089-.273.438-1.341.54-1.587.089-.218.652-1.741.906-2.426l4.247 1.082-5.693 2.931zm7.515-6.383c-.05.102-.876 1.346-.914 1.405l-.055.158.002.158-4.472-1.057c1.274-3.437 4.506-12.151 4.537-12.222.039-.088.023-.217.106-.381.061-.122.328-.766.464-1.098l.438 12.968-.106.069zm21.398-32.05c.043.011.096.008.138-.045.087-.11.21-.347.21-.347l.076-.027.135-.255c.021-.028.3-.312.373-.43.074-.118.054-.255.062-.306l.002-.217.075-.049.006-.111.437-.127.625.381c.054.034.14.044.209.04l.035-.003v.244c0 .071-.028.146.048.186l.679.393c.097.056.144.06.197.039l.545-.201.019-.022.215.124.058.007.946.551.859.506c-1.816.548-3.332-.736-4.978-.107-.288.11-.582.166-.897.296-.161.067-.326.153-.5.273l.426-.793zm-11.985-.936c.264-.153.472-.219.78-.212.226.005 6.256-.042 9.434-.066l-9.776 1.829c-.311-.395-.632-.793-.961-1.192.141-.106.359-.263.523-.359zm1.271 35.689c.089.176.285.821.423 1.01 0 0-.033.084.076.353.075.186.151.334.19.407l-7.434-1.666 5.229-2.896c.164.3 1.434 2.627 1.516 2.792zm-3.048-4.007l-4.722 2.415c-.147-.201-.852-1.163-.881-1.22-.034-.063-.109-.284-.176-.294l-.025.003-.39-12.822.314.523.117.101s.021.176.063.226c.039.048 5.25 10.191 5.7 11.068zm4.904-16.653c-1.242 1.475-5.14 1.314-6.942 1.576-1.27.185-2.366 1.507-3.014 2.549l-.162-.291-.022-.036c.128-.315.322-.69.615-1.111.943-1.356 3.231-1.89 4.888-1.907 1.412-.014 4.035-.892 5.085-1.316l-.448.536zm.575-.693c-.893.382-3.736 1.363-5.214 1.378-1.661.018-3.994.55-4.965 1.948-.288.414-.483.786-.614 1.102l-.01-.001-.954-1.687-.179-5.894.542-.005c.085-.012.121-.051.121-.138l-.052-2.806s-.063-.126-.148-.126h-.429c.026-.106.086-.292.183-.319.137-.039.188-.034.228-.114l.125-.266c.358-.067 1.015-.192 1.16-.225.2-.046.216-.109.341-.222l.416-.422c3.935 4.16 7.648 7.026 9.685 7.508l-.236.289zm.226-.106l-.029.016.144-.176.063.013-.178.147zm4.252-6.243c-.064.197-.325.691-.583 1.168l-.352.651-.188.378c-.068.205-.202.552-.413.658l-.022.013 1.57-2.904-.012.036zm2.723-6.025l-.033-.021c-.105-.07-.211.087-.105.158l.045.031-4.813 8.634c-.684-2.154-2.589-5.388-5.315-8.9l9.734-1.749c.121.179.258.277.376.248 0 0 .164-.034.238-.083.074-.05.144-.189.141-.249-.003-.06.062-.046.19-.042.126.003.311-.104.42-.179l.007-.005c.02.075.041.192.015.275-.04.13-.166.342-.215.422-.048.078-.038.135.004.188l.012.015-.701 1.257zm7.676-.305l.007.006-.316-.046c-.204-.034-.908-.017-1.594.011l-1.52.067c-.31.008-.78-.009-1.125-.06-.346-.052-1.507-.149-2.065.082-.237.097-.42.195-.551.275l.034-.063c.228-.186.44-.303.644-.387.315-.13.609-.185.897-.296 1.633-.625 3.174.704 5.052.083l.537.328zm-.467-.453l-.06.021-.932-.548-.945-.551-.036-.048-.265-.155.006-.43-.041-.146-.3-.202.229.051c.054 0 .088 0 .088-.1l.008-.049.033.015c.136.061.271.115.326.022.074.021.136.018.169-.036.073.019.136.016.168-.039.073.021.136.017.169-.038.073.021.135.017.169-.038.073.021.136.018.168-.037.074.019.136.017.169-.038.073.02.136.017.169-.038.072.019.136.017.168-.038.074.019.136.018.17-.039.073.021.136.018.168-.038.073.02.136.018.168-.037.074.02.136.017.17-.038.073.02.135.018.168-.038.073.02.135.017.169-.038.073.02.135.017.169-.038.109.03.194.009.194-.165l.009-.855v-.033c.204-.031.269.004.43.167 1.111 1.116.004 3.106-1.275 3.574zM78.114 79.586c-.17-1.987-.434-3.995-.396-6.028h.104c.105.178-.022.477.021.73.061.092.212.093.208.249.19-.003.149-.238.354-.229-.043-1.73-.012-3.534-.021-5.299-.094-.086-.227-.135-.355-.187-.079.024-.013.196-.166.146-.097-.217-.015-.611-.042-.896-.149-.039-.325-.051-.397-.167-.064.039-.034.213-.145.146-.086-.124-.066-.352-.084-.544.228-.029.45-.064.688-.083l-.041-.542c.051-.08.257-.006.187-.208l.251.021.125-2.69-.208-.043v-.5c-.17-.067-.344-.131-.439-.271l-.334.021v2.211h-.416c-.254-3.916-.607-7.653-.855-11.515-.086-1.33.021-2.692-.021-4.108l.208-.021.062-.271.501-.021c.118.049.021.314.271.23.067-.063.028-.236.146-.25.015-.146-.021-.242-.083-.313v-3.837l.104-.105c.096-.407-.406-.31-.292-.667h-.229l-.084.188h-.646c-.016-1.415.029-2.767.021-4.172l.208-.167c.055-.152-.283-.315-.042-.48-.099-.13-.184-.276-.146-.542.201-.014.459.027.625-.021.128.053.105.109.229.083.371-.075-.021-.625.251-.875.105.097.137.267.333.271.067-.215.056-.596 0-.813-.233-.03-.224.283-.396.146-.08-.063-.057-.067-.062-.167v-.73c.176.037.228.25.396.354.381.238.901.022 1.001-.333.241-.866-1.105-1.308-1.335-.396-.097-.468-.015-1.102-.042-1.606-.176-.052-.296-.013-.333.125l-.71.042v-.5c.113-.231.384-.33.376-.543-.007-.18-.219-.168-.229-.292-.015-.151.289-.22.333-.397.035-.14-.014-.157-.042-.354.161.02.294.068.438.104.049-.215.008-.521.021-.772.16.077.277.057.396-.042v-4.631c-.138-.142-.304-.062-.417-.02v-.626c-.127-.095-.342-.103-.5-.167-.015-.605.027-1.265-.021-1.835-.116.058-.064.241-.064.354v1.314c-.164-.074-.144.146-.229.083-.138-.055-.069-.303-.062-.479.014-.317-.006-.672.104-.834-.129-.316-.033-.856-.062-1.273l.208.105c.177-.122.095-.42.105-.647l.041-1.168c.104-.015.331.05.354-.083l-.188-.208c-.005-.086.031-.137.167-.146l.396.167c.287-.004.311-.352.272-.5-.03-.114-.193-.337-.355-.334-.254.004-.077.243-.438.292-.092-.406-.028-1.016-.021-1.46l.083.041c.11.078.312.151.48.147.933-.026.736-1.716-.188-1.461-.166.045-.232.185-.376.251.072-.704-.088-1.416-.021-2.065l.083-.25c.052-.351 0-.765 0-1.147 0-.38.035-.771-.042-1.126-.096.677-.015 1.518-.041 2.232-.013.071-.122.045-.188.062-.014.647.027 1.349-.021 1.961l-.23-.021c-.014-.445.028-.946-.021-1.356-.115.031-.062.201-.062.292v1.126c.055.083.113.164.083.334-.026.064-.129.052-.104.167l-.293-.042c-.123.041-.119.259-.083.396.078.054.204.06.312.083 0 .126-.007.257.021.354.013.101.111-.028.125.021.001.293.005.589-.021.855-.188.054-.431.167-.584.188-.072-.115.028-.404-.125-.438-.093.038-.089.206-.104.313l-.041.375c-.116.009-.213.038-.167.209-.109-.055-.245-.06-.251.083-.8.014-1.566.061-2.377.062-.15-.192-.112-.333-.312-.375l-.459.146c-.32-.074-.007-.695-.021-.959l-.104-.292c-.044-.244-.056-.715 0-.918.036-.136.185-.158.229-.271.021-.244-.032-.414-.21-.459-.014-1.147.029-2.351-.02-3.463-.134-.005-.079.16-.085.229-.046.723.036 1.503 0 2.19l-.166.083c.013.348-.027.751.021 1.064l-.271-.062c-.12.172-.078.64.042.771.115.04.135-.126.187-.083-.026.328.038.641 0 .918l-.104.313c-.006.094.094.21.042.271-.117-.022-.067-.211-.125-.292l-.229-.062c-.022-1.288.064-2.577 0-3.838.018-.115-.139-.057-.188-.104.097-.876.245-1.702.334-2.586h-.084c-.053.434-.123.917-.188 1.397-.062.458-.186.955-.167 1.398.054 1.228.047 2.5.042 3.858.001.063-.073.052-.125.062.071.144.163.269.125.522-.002.067-.095.043-.146.062.104.118.178.266.146.521.02.096-.112.04-.146.083.123.105.145.314.125.562.007.071-.091.035-.125.063.101.128.151.307.125.563-.002.068-.095.045-.146.062.062.161.238.208.459.209v.98l-.229.042v.333c-.807-.655-2.201-.114-2.315.855v.5l.062.208c.112.315.521.617.521.772 0 .166-.153.152-.229.292 0 .244-.008.495.021.709l-.146.021c-.01.123-.098.165-.229.167v.375c.075 1.329-.048 2.857.062 4.151.088.065.228.079.334.125-.063.397.103.564.146.856.188.073.17-.066.208-.189.412-.045.5.282.668.501.151.199.312.338.354.5-.13.031-.245.076-.354.125-.01.143-.032.275-.021.438-.049.089-.181.097-.25.167.01 1.275-.037 2.494-.021 3.775.11.091.292.111.438.168v-.585l.188.063c.059.22 0 .68.021 1.001.261-.025.53-.04.813-.042-.028 1.397-.025 2.826-.063 4.212-.09.002-.187.008-.249-.02-.09-.009-.021-.175-.042-.25l-.229.02c-.056.113-.002.333-.229.271v.397c-.003.036.163-.042.188.02v.25c-.021.077-.138.058-.229.063.021.815-.021 1.702-.021 2.483 0 .288.043.609 0 .854-.052.306-.205.477-.188.793.036.662.562 1.003 1.043 1.377-.011 1.066.023 2.179-.062 3.171-.132-.026-.038-.168-.063-.313-.104-.029-.104.211-.312.146.002-.35-.102-.918.062-1.167-.172-.107-.474-.021-.416.167-.14-.021-.065-.255-.167-.312-.089.049-.1.177-.292.125.002.523.04.992.062 1.543.021.485-.035 1.039.146 1.251.025.414-.014.892.334.981.003.08-.016.183.042.208l.271-.083c.006.078.046.121.146.104-.191 2.801-.409 5.679-.605 8.468-.027.396-.04.793-.146 1.168.034 1.239-.194 2.571-.25 3.859l-.563-.021v-1.794c-.133-.01-.176-.028-.208.083-.036-.062-.062-.132-.167-.125-.112.048-.08.24-.313.166v5.444c-.026.097.106.034.126.084 0 .444.357.62.833.521-.257 3.763-.508 7.528-.75 11.306 3.261.049 6.612.007 9.908.021-.174-1.998-.327-3.983-.499-5.982zm-1.312-43.928c-.036.902.075 1.953-.063 2.753.079.178.096.418.084.688l-.688.021v-2.315l.188-.042c-.107-.152-.271-.43-.021-.542-.106-.144-.204-.295-.187-.562l.687-.001zm.145-7.468c.199.257.167.815.167 1.334 0 .915.112 1.875.062 2.795-.003.046.047.191-.062.188-.138.024-.077-.158-.084-.209-.068-.549-.042-1.276-.042-1.875 0-.73-.032-1.482-.041-2.17v-.063zm-.125-.605c.01 1.881.054 3.728.041 5.632l-.354-.104c-.008-1.876-.031-3.737-.062-5.59.046-.135.277.044.375.062zm-7.801.542h-.041c-.092-.057-.048-.32.041-.334.035.063.035.271 0 .334zm1.292 27.889c-.17.024-.244-.414-.229-.75v-.063l.229.146v.667zm.022-.876c-.027.087-.127-.089-.208-.084-.087-.747-.014-1.655-.063-2.44.027-.018.218.101.271 0v2.524zm.187-1.023c.018.095.062.452.021.605-.1-.131.021-.393-.021-.605zm0 2.003c-.051-.261-.005-.783-.021-1.147v-.062l.063.04c.022.198.011.456.021.688.008.172.098.407-.063.481zm6.947 18.273l-.376-.251c-.169-.496.034-1.211 0-1.835.169.652.237 1.402.376 2.086zm0-8.761c.014.069-.027.192.021.229l-.209.062-.21-.25c.099-.049.25-.042.398-.041zm0 .395v.293c.041.049.139.041.229.04.061.296-.012.626 0 .939l-.396.042c-.249-.252-.173-.828-.23-1.272l.397-.042zm-.417 3.046c-.085.032-.291-.167-.396-.25-.045-.541.001-1.092.041-1.606.137.599.237 1.237.355 1.856zm-2.045 4.568c-.01.191.01.352.021.522l-.563.062v-1.814l1.126.835c-.245.053-.566.03-.834.062v.25l.25.083zm-.23.813c-.071.145-.184.248-.271.376-.049-.083-.008-.257-.021-.376h.292zm-.333-4.025c.033-.104.333-.296.458-.396.48-.385 1.043-.848 1.439-1.189-.023.217.115.863.062 1.064-.048.184-.584.474-.751.604-.201.158-.553.534-.751.584h-.479c.052-.22-.05-.442.022-.667zm-.187-16.812c-.103-.023-.051-.2-.063-.312.112.012.044.205.063.312zm.459-25.573l.021.021c-.147.242-.345.434-.501.667-.08-.156-.011-.461-.062-.646l.542-.042zm-.523-.251c.019-.525.027-1.057.021-1.606.078.198.831.837.918 1.085.18.51-.447.55-.939.521zm1.168 24.947c-.146-.102-.256-.291-.417-.479-.121-.144-.369-.317-.396-.48l.104-.501c.258-.02.494-.062.772-.062-.038.469.079 1.127-.063 1.522zm.481-29.284c.149.393-.069.812-.083 1.23-.045-.39-.272-1.047.083-1.23zm-.23-.835c.091.212.258.439.104.667-.13-.126-.082-.432-.104-.667zm-.938 43.887l-.229.062v-.104l.229.042zm-.147-.231c.093-.053.22-.072.354-.083l.021.104-.375-.021zm.918 1.775c.241.197.464.347.646.521.111.308-.197.411-.396.563-.414.317-.889.73-1.251.959.016-.87-.033-1.677-.021-2.544.511-.126.74.269 1.022.501zm-1.022-.627v-.291l.251.229c-.045.059-.181.028-.251.062zm.98.146c.263-.046.63-.018.896 0 .007.266.034.51.021.793l-.917-.793zm-.271-.208c-.229-.063-.475-.458-.625-.563.556-.021 1.119-.036 1.689-.042.034.195.054.405.062.625-.422-.057-.787.073-1.126-.02zm-.021-1.523c-.027-.072.122-.168.209-.251l.271-.25.543-.021c.053.135.041.334.041.521l-1.064.001zm1.085.209v.167l-.584-.104c.15-.066.387-.046.584-.063zm.042-6.028c-.08-.198-.062-.495-.125-.71l.166-.166c.047.27-.057.568-.041.876zm-.104 5.11c-.079.033-.182.04-.292.042l.229-.271c.092.005 0 .194.063.229zm-.063-.522c-.056.22-.479.362-.585.542-.359-.001-.714-.008-1.042-.042.043-.181.236-.27.354-.375.377-.337.794-.729 1.168-1.084 0 .32.176.681.105.959zm-.146-9.992c-.101-.128-.065-.393-.125-.562l.125-.104c.083.14-.031.439 0 .666zm-.083 5.8c-.24.108-.519.177-.897.146-.012-.074.099-.161.167-.229.214-.215.496-.472.688-.71l.042.793zm0 .334v.167c-.245.024-.476.066-.688.124l-.125-.124c.25-.076.538-.115.813-.167zm.042.709c-.008.537.124 1.129.041 1.605-.384-.302-.765-.681-1.168-1.063-.156-.147-.421-.255-.375-.542h1.502zm.02-10.263l.062.021c.046.141.009.366.021.542-.081-.134-.044-.386-.083-.563zm.021-.855c.094.06.017.29.042.418-.089-.066-.021-.287-.042-.418zm.062-3.713c-.002.195-.014.41-.021.083-.023-.171-.037-.352-.042-.542l-.021-.042h.062c.028.076.025.325.022.501zm-.334-3.712c-.035-.633.096-1.102.146-1.648.075.531.108 1.282.146 1.919-.074.05-.206-.194-.292-.271zm.209.938c.046.22.019.547 0 .772-.168-.126-.229-.67 0-.772zm-.209-.063v-.604c.139.049.176.563 0 .604zm.042-5.401c.036.042.145.104.167.208.032.152-.014.458-.125.5-.095-.154-.014-.485-.042-.708zm-.042-.585c.007-.528-.05-1.12.126-1.481.084.507.11 1.071.104 1.669-.044.065-.168-.134-.23-.188zm.106 8.614c.091.577.082 1.253.125 1.878-.15-.051-.192-.211-.293-.313-.025-.602.132-1.024.168-1.565zm-.064 1.919v.334c-.09-.084-.039-.308-.104-.417l.104.083zm.125.98v.146l-.125-.021-.021-.188.146.063zm-.041 2.42c.064.52.099 1.068.146 1.606-.397-.293-.194-1.07-.146-1.606zm-.877 8.553c-.153.146-.254.333-.542.25.062-.304-.039-.581.042-.813.054-.156.444-.474.584-.605.269-.254.477-.426.667-.625l.146.897c-.254.271-.573.588-.897.896zm-.061.813l-.293-.125c.036-.048.16-.009.229-.021l.064.146zm-.334-10.054l-.271.021c-.031-.245.063-.359.292-.293l-.021.272zm.646 1.795c-.047.064-.185.038-.188.145l-.563.021c.037-.304.063-.618.084-.938.23.249.5.458.667.772zm-.688-1.608l-.042.438c-.077-.132-.216-.2-.188-.438h.23zm.542 2.17c-.181.084-.42.108-.625.166l.021-.249.604.083zm-.25.356c-.117.118-.251.22-.354.354-.048-.057-.008-.201-.021-.291l.375-.063zm.187 5.151c-.218.209-.355.403-.542.501.003-.859.003-1.714-.021-2.545l.021-.021c.381.37.721.78 1.084 1.168.101.494-.303.669-.542.897zm-.521-4.484c.045-.135.242-.292.376-.438.216-.238.343-.408.584-.564.006.29.108.577.042.834-.047.18-.343.427-.48.585-.185.211-.343.422-.521.542-.029-.296-.087-.699-.001-.959zm.313-3.527l-.062-.082c.035-.049.159-.008.229-.021l.042.063-.209.04zm-.522-.457c.036-.16.021-.369.043-.542.118.033.288.017.438.021-.091.237-.197.542-.481.521zm.188-2.713c.091.132.01.436.062.605-.123-.098-.035-.408-.062-.605zm.063 1.503l-.021.249h-.209c-.014-.07.026-.193-.021-.229.043-.048.174-.007.251-.02zm.187.104c-.016-.127.058-.165.188-.146v.146h-.188zm-.208-4.235v-.167l.292.021c-.092.055-.127.165-.292.146zm.063 1.043c-.018.137-.048.259-.042.417-.073-.087-.053-.268-.062-.417h.104zm-.25-2.023c-.049-.813-.007-1.717-.021-2.565l.021-.021c.328.319.623.67.938 1.001.123.502-.244.731-.459 1.001-.179.225-.304.435-.479.584zm.52-2.398c-.184-.205-.409-.396-.542-.647l.021-.021c.312-.095.815-.023 1.168-.021-.014.411.027.875-.021 1.252-.289-.084-.445-.363-.626-.563zm-.459-5.195l.146.146c-.012.393.048.854-.104 1.106-.082-.348-.024-.838-.042-1.252zm.042-6.57c.111.014.278-.027.355.021.004.101-.386.109-.355-.021zm.876.396c-.154.074-.328.186-.521.104l-.021-.167c.206-.061.355.044.542.063zm-.668.188h-.187c-.03-.128-.03-.275.041-.354l.146.354zm.627.292c.098.306.049.757.062 1.147-.053.031-.173-.123-.25-.209l-.25-.27c-.163-.181-.38-.37-.417-.626.269-.028.594-.004.855-.042zm-.271 2.921c.105-.064.247.016.375 0-.009.283-.079.505-.375.5v-.5zm.292 4.255c.043.3-.026.669 0 1.021-.114.004-.225.003-.313-.02-.341-.415.158-.694.313-1.001zm-.459-1.064c.172.247.509.407.438.793-.043.228-.307.337-.376.562-.043-.43-.044-.901-.062-1.355zm.438-.96c.049.341.007.772.021 1.147l-.375-.459c.11-.236.255-.439.354-.688zm-.709-2.607c-.051-.071-.002-.267-.104-.334-.035-.493-.017-1.039-.021-1.564.267.29.561.552.814.855.082.385-.132.543-.313.751-.118.134-.248.383-.376.292zm.25.939l-.271.021v-.563h.251c.024.161.021.353.02.542zm.166-.856c.031-.275.255-.358.354-.562.038.163.019.384.042.562h-.396zm.084-3.316l.334-.208c.097.043-.011.218 0 .313l-.334-.105zm-.125-.417c.052-.2.312-.37.417-.585.046.149.043.346.042.543-.147.009-.314.098-.459.042zm-.313.082l-.188.021c-.034-.202-.015-.53.042-.709.26.01.489-.011.729-.021-.171.259-.394.467-.583.709zm-.313 23.258c-.084-.355.016-.888-.021-1.335l.168.188-.147 1.147zm.417 8.093c-.041.085-.173.077-.271.104l-.021-.166c.091.027.174.063.292.062zm-.27.772c.459.403.92.805 1.355 1.23l.042.417c-.048.189-.564.499-.709.626-.284.247-.468.463-.688.584v-2.857zm.02 3.421c.306.006.562-.037.876-.021.017.07-.134.188-.229.271l-.312.251h-.334l-.001-.501zm1.44 5.987c.185-.072.436-.079.667-.104l.021.229-.688-.125zm.333.25c-.126.091-.358.072-.5.146l-.271-.209c.221-.026.499.07.771.063zm-.959-.459c.397-.332.816-.644 1.21-.98.062.287.043.653.083.96-.438-.001-.841.034-1.293.02zm1.252-6.571l.166-.167c.075.168-.04.5-.041.73-.061-.168-.076-.381-.125-.563zm-.021-.292c-.048-.112-.055-.267-.064-.417.08.094.161.188.21.312-.066.018-.115.053-.146.105zm-1.461 7.155c.123.044.165.169.271.229-.146 0-.382-.09-.562-.125l.291-.104zm1.543.563c.047.579.11 1.142.188 1.69-.668-.501-1.493-1.135-2.106-1.69h1.918zm.273-.604c.049-.055.107.058.166.062l-.041.375c-.103-.086-.056-.32-.125-.437zm.041 4.818c-.096.028-.141-.113-.209-.188l-.688-.73c.235-.33.491-.636.71-.98.112.582.118 1.271.187 1.898zm-.041-5.069c-.01-.164-.032-.315-.021-.501l.188.563-.167-.062zm-.022-1.606c-.046-.121-.06-.274-.084-.418l.084.021v.397zm-1.251 4.902c.031-.245.034-.521.041-.793l.229-.021.021-.146c.241.135.462.289.688.438.054.394-.164.563-.334.792-.119.162-.239.304-.333.458-.211-.241-.437-.467-.626-.729l.314.001zm1.167 1.898c-.346.005-.645-.037-1.001-.021-.062-.098-.168-.15-.354-.125l.501-.792c.3.283.637.64.854.938zm.147.105c-.001.202.036.368.021.584l-1.104-.021-.021-.542c.366-.009.717-.033 1.104-.021zm-.793.771c.304.005.567-.03.855-.041.035.36.035.757.083 1.104-.288-.282-.695-.735-.938-1.063zm.752 1.293c-.296.045-.642-.04-.981-.021-.005-.397-.022-.785-.041-1.169.36.377.674.801 1.022 1.19zm.186-8.573c.073.139-.009.477 0 .688-.028-.218-.23-.581 0-.688zm-.562-9.594c.041.126.043.471.062.688-.151-.164-.072-.426-.062-.688zm.292 3.607c-.075.031-.121-.107-.188-.188s-.177-.154-.208-.25c-.159-.492.095-1.324.021-1.878.144.754.249 1.546.375 2.316zm-.605-18.396c-.008-.085.13-.024.187-.042l.063-.229.417-.021c-.015 1.259.021 2.468.021 3.712l-.688.042v-3.462zm.166-16.98l.021 1.939c0 .867.062 1.755-.021 2.545-.186.014-.144-.186-.146-.333-.023-1.435-.026-3.174-.021-4.694l.021-.062h.083c.115.128.063.381.063.605zm-.187-1.209l.167.021-.021.271-.125.063c-.049-.078-.008-.244-.021-.355zm.229 31.267c-.111-.083-.243-.147-.334-.25-.005-.541.007-1.064.042-1.565.115.588.187 1.218.292 1.815zm-.104-34.563c-.115-.083-.056-.274-.062-.417-.01-.218-.036-.456-.021-.668l.041-.062c.096.299.014.778.042 1.147zm-.605-2.273c.201-.077.42-.136.604-.229 0 .25.08.549 0 .75-.063.162-.257.176-.333.292-.231-.131-.312-.411-.271-.813zm.147 4.213c.057.514.057 1.083.104 1.606-.081.045-.103.147-.25.125-.11-.627.03-1.209.146-1.731zm-.147 30.202l.083 1.67c-.079.044-.103-.079-.146-.125-.354-.378-.798-.815-1.147-1.21-.007-.132.003-.247.021-.354.42-.016.782.025 1.189.019zm-.083-.875l-.813.062c-.033-.082.085-.159.146-.229.187-.216.428-.479.604-.709.044.269.047.58.063.876zm-.501-5.006l-.042.104-.292.021.208-.459.501-.063c.017.164.062.299.062.479l-.437-.082zm.083-4.088c.062.042.197.011.292.02-.014.425.026.903-.021 1.294-.032.028-.265-.155-.292-.271-.064-.271.091-.724.021-1.043zm0 1.96c-.049-.146-.007-.382-.021-.563.101.099.119.455.021.563zm.292.042v.48c-.108-.044-.205-.101-.333-.125-.017-.183.123-.4.333-.355zm-.125 1.064c-.033.052-.146.008-.188 0v-.083l.125-.021.063.104zm.147-4.193c-.221-.011-.403.015-.605.021.04-.239.336-.221.626-.208l-.021.187zm-.022-.98c-.051.186-.273.257-.333.376-.246-.014-.533.088-.647-.083-.053-.358.214-.502.418-.751.189-.232.314-.438.458-.584h.062c.014.29.126.734.042 1.042zm.022-6.863c-.171-.019-.089-.207-.084-.333v-.835l.042-.062c.096.327.014.834.042 1.23zm-.042-9.219v.667c-.336-.015-.616.024-.938.021-.016-.098.155-.222.25-.333.104-.122.191-.266.292-.354l.396-.001zm-.167-.271l.104-.146.041.125-.145.021zm.125-1.898c.038.365.015.755 0 1.126-.354-.356-.726-.804-1.001-1.169.313-.007.797-.155 1.001.043zm-.918-2.086c.255.002.48.034.752.021.055.287-.215.406-.334.584-.185.025-.274-.046-.396-.083l-.022-.522zm.793-.146c-.214.019-.567-.002-.813-.021.002-.393.372-.438.772-.376.002.144.009.283.041.397zm-.772-1.251c.245.009.465-.008.688-.021l.043.709h-.793c-.043-.252-.107-.547.062-.688zm-2.087 3.42c-.184.254-.409.466-.584.729-.049-.181-.007-.451-.02-.667l.604-.062zm-.417-3.253h.355c-.006.334-.047.634-.042.98-.181-.25-.385-.478-.313-.98zm-.186 1.021c.341.139.565.394.5.939-.102.002-.22-.011-.292.021-.205-.186-.238-.54-.208-.96zm.27 6.55c-.111.178-.292.162-.521.104.01-.235.32-.051.521-.104zm1.001 47.829c-.083.032-.094-.086-.124-.125-.693-.858-1.411-1.843-2.087-2.732.016-.172.049-.328.041-.521l2.17-1.753c.055 1.681-.029 3.404 0 5.131zm-2.481-1.648l.021-.875c.226.268.407.579.625.854-.173.049-.438.008-.646.021zm.604.209c-.165.322-.457.517-.647.813-.055-.264.047-.553.021-.854.227-.005.443.001.626.041zm-.562-5.34h-.126l.104-.458c.049.11.007.312.022.458zm-.042.167l-.021.167c-.102-.009-.244.021-.312-.021v-.104c.095-.03.217-.033.333-.042zm-.167.604l.124.126c-.022.206-.023.546-.062.667-.016-.248-.033-.495-.062-.73v-.063zm.083 5.758c.043-.154.318-.403.459-.563l.521-.584.521.73c-.365.496-.781.943-1.168 1.417l-.396.085c.099-.39-.03-.758.063-1.085zm.793.75c.255-.313.558-.694.813-1.021.315.289.529.68.813 1.001v.312h-1.836c-.017-.089.121-.183.21-.292zm1.772-5.902c-.04.149-.44.386-.584.5-.585.469-1.238 1.005-1.794 1.419l.042-1.147c.03-.094.275-.243.396-.333.433-.325.938-.708 1.313-.981h.605l.022.542zm-1.73-9.825c.066-.198.426-.43.604-.605l.646-.626c.065.324.041.737.062 1.106-.3.013-.664-.039-.876.062l.062.188v.563c-.176.178-.387.433-.563.541.108-.432-.054-.874.065-1.229zm-.106-33.749c.045.192.106.658.105.896h-.084c-.086-.213.018-.593-.021-.896zm1.607 1.418c-.148.27-.58.051-.855.021.273-.122.637-.282.855-.021zm-.98-.5v-.793c.488-.095.596.134.792.375.124.152.246.284.293.396-.339.031-.717.02-1.085.022zm.563 1c-.181.25-.396.467-.584.709-.049-.188-.007-.466-.021-.688l.605-.021zm-.584.981c.035-.141.249-.32.376-.479.164-.208.282-.384.416-.522h.418v.771c-.258.388-.597.755-.897 1.126-.092.114-.156.293-.312.313.022-.426-.095-.841-.001-1.209zm.938 6.258c-.061.079-.015.263-.188.229-.04-.232-.021-.536 0-.772.126-.124.245-.255.355-.396.046.343.047.731.062 1.105l-.229-.166zm.209.354v.5l-.126-.042v-.438l.126-.02zm-.313.71c-.091-.01-.077-.179-.083-.272-.008-.135-.009-.283.021-.375l.084-.021c.084.151.037.523-.022.668zm-.104-1.753c-.063-.446.028-.917 0-1.397l.479-.021-.042.834c-.153.187-.302.379-.437.584zm-.354 1.023c-.129.061-.109-.083-.168-.146l.125-.229c.088.051.021.256.043.375zm-.188-.293c-.198-.241-.271-.932-.105-1.272.137.086.203.242.313.354-.032.344-.059.693-.208.918zm-.125.585l.333.395c-.084.049-.257.008-.375.021.024-.128.038-.268.042-.416zm.27-.126l.126-.021v.188c-.057-.041-.1-.095-.126-.167zm-.166-1.961c-.17-.073-.186-.301-.167-.562l.418-.042c.058.343-.151.419-.251.604zm-.146 4.423l.604-.021c.034.065-.075.129-.125.188l-.501.625c-.015-.204.001-.555.022-.792zm.146-6.446c.371-.045.961-.147.939.313-.198.016-.255-.108-.355-.188-.234-.002-.389-.084-.584-.125zm.959-.834v.459c-.333.056-.395-.323-.604-.459.156-.038.447-.03.604 0zm-.855-.375c-.036-.351.23-.553.416-.793.18-.229.342-.398.46-.584.039.408.028.946 0 1.356l-.876.021zm.313.855h-.584l-.041-.5c.378-.017.489.344.625.5zm-.625 11.034v-.293c.381.006.717-.032 1.084-.042.039.099.149.15.083.292-.367.037-.784.024-1.167.043zm.771.834c-.241.315-.515.597-.752.918-.042-.259.027-.586 0-.897l.752-.021zm-.188-2.023c-.164-.228-.444-.387-.354-.793.035-.158.321-.425.458-.584.213-.248.386-.422.521-.605.049.772.007 1.634.021 2.441-.374.13-.477-.227-.646-.459zm.104.417c-.204.053-.466.048-.709.063l.021-.73h.041c.306.132.411.466.647.667zm-.687 2.794c.045-.193.339-.416.5-.604.206-.24.349-.621.73-.605-.045.291.062.519 0 .772-.047.19-.452.595-.585.751l-.312.354c-.097.118-.165.292-.333.312.053-.377-.075-.662 0-.98zm1.062 11.64c.211.207.098.737.126 1.126-.045.062-.205-.11-.292-.146-.001-.764-.096-1.434-.168-2.127l.46-.605c.048.348.007.785.021 1.168l-.188.042c.154.053.269.482.041.542zm.147 12.578c.048.043.008.173.021.25h-.271l.25-.25zm-.23-.084v-.146h.104v.125l-.104.021zm.147-.751c-.256-.243-.068-1.16-.125-1.689h.229c.029.569.02 1.177.021 1.773-.023.103-.079-.075-.125-.084zm.062-5.861c.034.085.043.194.042.313h-.209l-.021-.23c.072-.018.145-.036.188-.083zm-.187-.083c-.005-.407.036-.771.021-1.188l.209-.021c.016.406-.029.75-.021 1.147l-.209.062zm.041 1.731l.146-.188c.039.05.045.136.042.229l-.188-.041zm.167.897l-.146.021-.041-.605.167-.021c.047.161.006.41.02.605zm-.188-2.065h.209v.208c-.095-.043-.166-.113-.209-.208zm0 3.525c.059-.412-.126-1.128.209-1.23-.014.424.017.804.021 1.21l-.23.02zm.209-5.464h-.229v-.397l.229-.021v.418zm-.021-.564h-.208c-.014-.063.026-.18-.021-.209l.188-.188c.063.084.035.257.041.397zm-.23-.397c-.047-.028-.008-.145-.021-.208h.208l-.187.208zm-.042-2.148c.114.066.229.133.21.334h-.188l-.022-.334zm-1.939 6.863c-.004-.114.015-.251-.021-.334h.062c-.023.101.052.302-.041.334zm0 4.881l1.251-.021c-.405.338-.866.732-1.271 1.001-.002-.335.035-.632.02-.98zm.418-.417c.3-.102.65-.185 1.001-.104.079.019.24.016.25.125-.32.062-.869-.007-1.251-.021zm-.334-.48c.013-.529.044-1.041.083-1.544.523.402 1.032.818 1.543 1.23-.005.12.017.267-.021.354-.533-.014-1.065-.032-1.605-.04zm.041-5.236h-.083c.009-.13.028-.249.062-.354.019.093.068.265.021.354zm.167 1.773c-.029-.246.04-.571.042-.855.307-.058.623.022.959 0l-1.001.855zm1.335-.855c.072.137.031.387.042.584h-.667c-.02-.068.146-.185.249-.271.128-.105.281-.192.376-.313zm-1.419-5.507l.21.147c-.038.269-.074.537-.084.833-.098-.27-.082-.654-.126-.98zm.168 4.86v-.083l.229.021-.229.062zm-.022-.228l.063-.585h.646v.563c-.231.012-.51-.024-.709.022zm-.166-5.007v-.083h.229c-.034.075-.152.111-.229.083zm.062 7.029c.065-.229.351-.257.48-.417h.917c.075.396-.153.475-.375.668-.324.281-.594.544-.918.812-.042.035-.106.104-.166.084.115-.368-.037-.799.062-1.147zm1.169 2.274c-.31-.24-.691-.507-.981-.771-.024-.357.325-.549.522-.729.235-.217.466-.431.688-.647.063.751.044 1.584.083 2.357-.116.009-.207-.126-.312-.21zm-.793-3.902c.39-.105.852-.127 1.251-.02-.264.337-.814.048-1.251.02zm1.272.46c.021.257.012.397-.063.584-.043-.172-.033-.396-.062-.584h.125zm0 1.147c.047.049.017.197 0 .251v.229c-.027.156-.037-.426 0-.48zm0-2.044c-.228-.002-.47.012-.667-.021v-.292l.145-.042c-.03-.403.719.093.522.355zm-.021-2.336c-.016.565.03 1.07.021 1.627-.152.021-.161-.103-.251-.146.032-.49.056-.988.062-1.502l.168.021zm-.021-.793l.042.647h-.168c.008-.251-.048-.563.126-.647zm-1.377-22.234c.226.207-.013.586 0 .896-.057-.273.031-.581 0-.896zm.022-8.344c-.055-.374.088-.697.104-1.064.034.259.225 1.032-.104 1.064zm.291.104c.016.196-.021.34-.021.522-.118-.039-.2-.528.021-.522zm0 1.252l-.271-.021-.042-.688c.192.149.384.297.313.709zm.584 19.878c.267-.062.553-.188.835-.167-.015.104-.028.207-.021.334-.273-.055-.552-.102-.814-.167zm.793.376v1.063c-.041.022-.158-.109-.229-.188l-.209-.271c-.146-.169-.461-.409-.416-.584.219-.107.559.023.854-.02zm-1.105-.731l-.043-.584c.034-.153.271-.332.397-.479l.438-.544c.127.11.245.229.354.355.035.398-.205.565-.396.793-.137.163-.258.314-.396.438-.088.037-.234.016-.354.021zm.229.104c.036.086-.109.15-.229.146l.021-.146h.208zm-.125-2.398l-.104-.062.104-.021v.083zm.208.084c.222-.114.517-.152.814-.188l-.021.146c-.235.156-.527.195-.793.042zm-.355-.397v-.5l.855-.021c.208.027.366.196.334.522l-1.189-.001zm-.041-.897v-.292h.396c.105.063.142.192.229.271-.166.049-.422.007-.625.021zm.126 1.543c-.01.047-.112.018-.126 0h.126zm-.085 2.9c.375.341.714.719 1.064 1.085v.334c-.369-.014-.728-.038-1.084-.063-.017-.475.031-.887.02-1.356zm1.169 2.274v.688c-.069.28-.494.52-.605.792-.163-.155-.232-.406-.417-.542l.835-1.002.187.064zm-.688 1.564l-.688.793c.027-.358-.048-.823.042-1.105.154-.487.538.043.646.312zm.292 1.961c-.073.035-.129-.087-.188-.146-.18-.18-.432-.394-.604-.585-.086-.6.34-.688.5-1.042.267.419.217 1.16.292 1.773zm-1.043-8.553l-.021-.042.083.042v.501l-.021-.104-.041-.397zm-.25-2.419c-.013-.175-.03-.346-.021-.542.228-.011.314.259.292.563l-.271-.021zm.187.751l-.021.021-.021.021c-.042-.02-.045-.08-.042-.146l.084.104zm-.187-1.94c-.062-.31.104-.74.104-1.126.053.344.229 1.053-.104 1.126zm.229 0c.046.204.046.455.062.688-.176-.06-.214-.561-.062-.688zm-.021 3.066l.104.084-.083.021-.021-.105zm.125-.376c-.142-.047-.048-.206-.021-.312.048.063.007.216.021.312zm-.042-3.879l-.041-.354.062.042c0 .089.008.516-.021.312zm-.166-3.462c-.007-.209-.015-.418.104-.501.062.174.057.416.083.626l-.187-.125zm-.105-.543c-.16-.358.092-.743.104-1.126.029.377.187.962-.104 1.126zm.188-3.212c-.109-.029-.071-.189-.083-.271l-.125-.896.042-.062c.327.122.155.858.166 1.229zm-.042-2.899c-.007.328.257.935-.166.959l.166-.959zm.104-2.566v.5c-.074-.088-.389-.518 0-.5zm-.104 3.609l.084-.062c.049.181.007.451.021.667-.137-.099-.088-.385-.105-.605zm.125 6.028c-.042.374-.024.809-.083 1.169-.119-.021-.111-.198-.125-.293l-.146-1.105.021-.062c.194.012.225.191.333.291zm-.23 1.835l-.125.021v-.208l.125.187zm-.061.438c.122.331-.035.725-.063 1.043-.062-.334.013-.711 0-1.064l.063.021zm-.064 3.942c.028.16.095.573.063.793-.184-.091 0-.531-.063-.793zm.084 1.336l-.042.563c-.034-.119-.022-.465-.042-.668l.084.105zm.083.667c.005.286.3 1.112-.083 1.168-.085-.343.085-.771.083-1.168zm-.061 3.359v-1.544c.096.07.158.175.229.271-.023.546-.009 1.131-.083 1.627-.207.027-.146-.219-.146-.354zm.103 1.689c-.037-.157-.02-.37-.042-.542.162.091.057.341.042.542zm-.042 4.797h.897c.021.097-.126.153-.209.229-.233.219-.506.562-.75.709l.062-.938zm.273-.396c.297-.119.646-.227.958-.063-.217.211-.62.108-.958.063zm-.21-.459l.063-1.314.021.021c.191.129.357.292.542.438.168.133.418.239.48.479-.084.014-.223-.027-.271.021-.042.195.224.082.312.146l.021.145c-.355.057-.764.058-1.168.064zm1.002-7.572c-.014-.079.113-.214.208-.334.107-.135.233-.255.313-.396.042.223.044.484.042.75l-.563-.02zm.292-1.73c.029-.089.11-.127.25-.105l.021.396c-.096-.091-.21-.165-.271-.291zm-.147-1.794l-.188-.251c.16-.048.41-.007.605-.02v.25c-.129.015-.263.028-.417.021zm-.583-.773v-.354c.326-.402.659-.799.979-1.209.035.521.024 1.088.042 1.626-.313-.048-.729.006-1.021-.063zm.542 7.447c-.281.332-.608.729-.896.981.009-.317.044-.61.062-.918l.834-.063zm-.918-14.892c-.007.129.011.445-.021.271-.024-.225-.071-.428-.083-.667l.126.146-.022.25zm0-10.201l-.021.167-.021.021-.062-.501.104.126v.187zm-.167-1.501c-.047-.176-.052-.394-.084-.585l.167.021-.083.564zm.042-1.023c-.099-.127-.282-.247-.209-.479h.292l-.083.479zm-.271 2.67c-.04-.3-.015-.667-.041-.98.268.178.029.672.041.98zm.042 24.739c-.059.171-.127.332-.167.521v-.626l.167.105zm.542 8.531c-.066.028-.245-.184-.334-.271-.067-.388.141-.498.334-.625.064.28-.022.59 0 .896zm.021.416v.251h-.627l.042-.729.585.478zm-.646-4.38l-.229-.02c-.03-.646-.064-1.286-.063-1.961.628.193.189 1.312.292 1.981zm-.398 2.629l.104-.084c.083.19.051.493.063.751-.201-.118-.174-.337-.167-.667zm.083 2.94l.021.146c-.11-.008-.163-.073-.251-.104l.23-.042zm-.208 2.942l-.271-.167.041-.459.168-.083c.054.203.021.492.062.709zm2.337-7.03l-.271-.062v-.521l.271-.021c.061.186-.02.391 0 .604zm0-20.107c-.048.196-.449.532-.585.688-.221.254-.391.479-.583.646.024-.378-.094-.724-.021-1.043.037-.164.281-.408.418-.584.193-.251.351-.432.5-.605h.271c-.05.357.071.612 0 .898zm-.334-12.891c.088-.059.23.006.334 0-.006.132.003.248.021.354-.14-.096-.227-.247-.355-.354zm.334-1.231c-.267-.001-.506.022-.752.042-.027-.078.086-.137.146-.209l.584-.73c.05.258.008.605.022.897zm0 .272v.709h-.543c-.123-.037-.191-.198-.271-.292-.092-.109-.245-.208-.188-.354.297-.057.666-.044 1.002-.063zm-.918.729h-.271l-.021-.187c.163-.048.248.059.292.187zm-.48 1.023c-.097-.021.007-.164 0-.229.034.029.034.2 0 .229zm.021-3.609c-.078-.11-.04-.335-.084-.48.113.077.081.295.084.48zm-.042 1.648l-.334.021.021-.167.188-.02c-.021-.174-.073-.521.062-.605.056.223.03.526.063.771zm-.167-1.877c.043.4.188 1.042-.167 1.106.034-.393.117-.733.167-1.106zm-.042-2.169c-.075-.334-.1-.721-.167-1.064.25.161.112.71.167 1.064zm-.186.187c.048.111.063.437.104.626-.18-.064-.079-.409-.104-.626zm-.022 1.127c.206.134.075.522.083.813-.123-.175-.073-.524-.083-.813zm-.188-1.773c-.048-.424-.007-.939-.02-1.397.131.363.02.962.02 1.397zm-1.647 4.171c.596.062 1.152-.079 1.48-.354.019.099.09.146.208.146.027.167.022.368.021.563-.118 0-.222.015-.312.042l-.063.167c-.466-.038-1.052.18-1.355-.021l.021-.543zm-.167 6.196v-.292l.168.25-.168.042zm.292-.251c-.098-.173-.141-.402-.146-.667l.125-.063v-4.359c.567-.062 1.078.025 1.564.104-.011 1.672.076 3.358.021 5.006-.464.097-1.033-.047-1.564-.021zm1.439.626c-.035.047-.159.007-.229.021v-.125l.229.104zm-1.147-.125c.164-.011.46.025.667.042v.709c-.231-.241-.423-.521-.667-.751zm.647 2.107c-.134-.083-.062-.369-.084-.563h.063c.078.091.1.452.021.563zm.249-1.711l.397-.021c.019.398.037.797.062 1.189-.071.028-.168-.121-.25-.209l-.25-.292.041-.667zm.021 1.751c-.019-.196-.026-.404-.021-.625.264.079.445.238.418.606l-.397.019zm.042 8.636c.137-.039.066.128.083.208.045.04.153.015.229.021.017 1.212-.028 2.364-.021 3.567-.089-.024-.198-.025-.312-.021.015-1.28-.033-2.498-.021-3.775h.042zm-.562 3.817c.116.036.077.229.104.354.044.062.189.02.167.146l.188.021c.064-.04.037-.171.187-.125-.003.109-.015.207-.041.292h.271c-.016.399.027.737.021 1.126-.612-.278-1.137-.944-.897-1.814zm.937 8.324c.048.022.009.13.021.188.003.06.087.038.146.042.081.483-.132.674-.312.896-.03-.372-.019-.881.145-1.126zm-.228-3.026l.124-.021c.031.26-.034.604-.062.877-.107-.199-.045-.566-.062-.856zm-.125 6.154c.086.115.045.357.083.521l-.104-.02.021-.501zm-.064.939c.24.096.111.365-.021.48-.047-.132.035-.315.021-.48zm.167.563c.043.158.045.546.062.834.009.141.061.307.042.396-.048.236-.322.327-.396.459.096-.565-.06-1.381.292-1.689zm-.313 5.485c-.005.103.151.803.085 1.044-.053.189-.286.215-.397.333l.312-1.377zm.125 2.315c-.033.564-.231.965-.312 1.481-.07-.59-.092-1.229-.146-1.836.161.112.327.217.458.355zm-.604 1.19c.052.081.058.387.104.543h-.084c-.09-.103.019-.355-.02-.543zm-.084.98l.167.084c-.064.297-.146.576-.188.896-.042-.292.044-.637.021-.98zm.208.751c.055.356.067.754.105 1.127-.086.131-.248.182-.354.292.03-.443.164-.963.249-1.419zm.125 2.316c-.068.058-.187-.185-.271-.25v-.479l.251-.167c.049.256.008.604.02.896zm-1.459-.897h.229c.003.144-.04.331.125.312.049-.542.007-1.175.021-1.752.153-.008.287.006.417.021-.034.619.001 1.308-.146 1.814-.333.067-.66-.045-.646-.395zm.25 11.597c.089-1.79.219-3.609.312-5.402.014-.243-.03-.509.083-.73l.085-.02c.11 2.016.155 4.098.229 6.152h-.709zm.584-13.203c-.163.011-.295-.011-.438-.021l-.021-2.044c.217-.016.382.021.584.02-.028.695-.102 1.344-.125 2.045zm.625 2.899c-.067.439-.115.899-.166 1.356h-.292c-.009-.619-.031-1.221-.021-1.857l.479.501zm-.458 1.543c.056-.041.182-.012.271-.021-.091.459-.182.917-.251 1.397-.048-.416-.006-.924-.02-1.376zm.23 1.627c.038.19.018.442.042.646h-.251c-.029-.349-.016-.539.209-.646zm-.126 3.588c-.019-.772-.024-1.561-.062-2.315l.229.062c-.056.737-.11 1.476-.146 2.232l-.021.021zm.146 3.567c.157-1.881.291-3.783.438-5.674.814-.006 1.615-.026 2.4-.062.116.056.062.23.062.312.01 1.754.085 3.634.083 5.424h-2.983zm2.962-58.717c-.042.167-.447.59-.563.73l-.291.354c-.102.121-.226.267-.417.209l.02-1.147c.031-.124.222-.302.334-.438l.418-.48h.5c-.048.277.066.511-.001.772zm-.145-1.835c-.089-.008-.215.021-.271-.021l-.021-.563c.115.176.341.243.292.584zm-.293-1.44c.143-.01.255.01.376.021-.004.331-.002.655.021.96-.07.049-.122-.091-.188-.167-.06-.071-.162-.138-.188-.229l-.021-.585zm.627 43.449c.058.054.082.25.042.333-.093-.033-.019-.232-.042-.333zm0 2.211c.105.346.084.931.062 1.334-.088-.378-.025-.906-.062-1.334zm0-16.75c.108.137.082.624.021.793.004-.276-.038-.506-.021-.793zm.02 15.414c.112.33-.013.78.021 1.169-.084-.301-.041-.834-.021-1.169zm0 3.151l-.021-.271h.083c-.02.091.053.274-.062.271zm.041-19.044c-.142-.145.01-.493-.041-.752l.041-.062c.07.176.009.577 0 .814zm-.041-1.753l.062.021v.188c-.101.012-.049-.131-.062-.209zm.041-.458c-.106-.037.009-.177-.02-.271h.062c-.022.081.049.256-.042.271zm0-11.369c-.039-.664-.118-1.506-.062-2.127h.042c.1.313.064.76.083 1.168.016.344.035.704-.063.959zm.147-3.984h-.188l-.021-.354c.268-.139.207.127.209.354zm.334 14.017c-.037-.345-.031-.822 0-1.167h.146c.027.376.022.784.021 1.188l-.167-.021zm.167.187v.335h-.188v-.313l.188-.022zm-.418-1.542c-.072-.169.076-.263.125-.376l.293-.021v.417l-.418-.02zm0 2.669v-.271h.042c.087.015.113.315-.042.271zm.063.46v.125h-.104v-.125h.104zm-.021-1.732c-.13-.07-.048-.333-.042-.48v-.7290000000000001h.042c.099.335.01.842 0 1.209zm.334-3.317c.016.104.028.208.021.334l-.146.021v-.333l.125-.022zm-.125-.417v-.188h.125v.188h-.125zm.125-.354c-.207-.002-.125-.365-.125-.563v-.73l.146.021c-.014.416.028.89-.021 1.272zm-.23-10.012v-.396h.188c.022.117.024.252.021.396h-.209zm-.021-.709l-.04-.542.229.02.062.522h-.251zm.209-.71l-.249-.042c.048-.341-.134-1.027-.064-1.355.039-.176.179-.183.355-.083-.003.505-.016.998-.042 1.48zm-.188-2.607l.229.062v.25c-.077-.103-.252-.108-.229-.312zm0-.314c-.039-.316.198-.357.292-.542.032.151-.023.394-.021.585l-.271-.043zm-.417-1.043v-.667l.751-.021v.688h-.751zm.564.419c-.147.186-.202.466-.584.417v-.459l.584.042zm-.418 1.125l.021.272h-.167l-.021-.251.167-.021zm-.041 1.211c.044.511.076 1.147.083 1.626h-.125c-.108-.163-.051-.444-.062-.709-.017-.366-.062-.711.104-.917zm-.105-.313v-.292l.271-.042c-.009.192-.108.295-.271.334zm.23 17.186l.126.042c-.015.104.026.264-.021.333-.181.022-.077-.242-.105-.375zm.126 36.921c-.109-1.771-.088-3.756-.126-5.632l.021-.063h.23c.019 1.887.068 3.853.062 5.695h-.187zm-.065-20.755v-.063l.084.021c.021.156.062.505-.02.626-.14-.075-.027-.405-.064-.584zm.084.772c.065.006.036.104.042.168l-.146.062v-.208l.104-.022zm.042 5.194v.271c-.078-.033-.056-.168-.062-.271h.062zm-.126-1.502l.064-.041c.069.389.054.974.04 1.377-.124-.355-.041-.918-.104-1.336zm.065-1.648c-.078-.036-.063-.32.02-.334.039.076.034.285-.02.334zm-.022.168c.097.34.014.861.041 1.272-.127-.324-.045-.859-.104-1.252l.063-.02zm.25-14.539c-.104-.032-.133-.204-.188-.354-.077-.21-.221-.548-.125-.896.039-.143.214-.245.418-.208.016.536-.051.991-.105 1.458zm.125-2.148l-.209.021v-.251l.209.042v.188zm0-.502l-.209-.021c-.008-.196.021-.354.209-.354v.375zm0-.855l-.209.021c-.04-.057-.012-.182-.02-.271h.229v.25zm-.167-6.799c-.037-.095-.015-.25-.021-.377.278-.111.16.225.208.397l-.187-.02zm.209-.583l-.229-.021c.015-.243-.037-.551.042-.73l.146-.021c.095.174.014.526.041.772zm-.021-14.29h-.708c.047-.395-.121-.888-.021-1.251.013-.047.268-.365.355-.397h.416c.003.566-.005 1.122-.042 1.648zm-.459-1.773c-.088.064-.185.121-.249.209-.022-.113.012-.349.02-.501l.25.042c-.028.063-.021.159-.021.25zm.522-1.417l-.334.021c-.094-.336.226-.386.334-.584v.563zm-.251-.564c-.139.154-.203.321-.501.292l-.02-.98c.268-.009.521-.034.771-.062.067.437-.047.524-.25.75zm-.52-.897c-.024-.248.071-.614-.146-.667-.071.179-.03.47-.084.667l-.459-.021c-.049-.172.029-.475-.146-.521l.062-.313c.452.02.963-.021 1.419-.021.114 0 .34-.062.355.105-.018.08-.143.052-.188.104-.004.217-.033.411-.021.646-.285-.014-.524.02-.792.021zm1.188 62.138h-.313c-.006-1.892-.059-3.737-.062-5.632l.021-.063h.355l-.001 5.695zm.458-13.538c-.127.047-.295.053-.438.084l-.021-.146c.131-.038.306.055.459.062zm-.416 3.443c.071-.292.449-.436.542-.689.273.221.469.519.73.752-.209.291-.432.569-.647.855l-.625.062c.053-.378-.074-.685 0-.98zm.355 1.252c.023.124-.24.314-.313.479-.064-.127.021-.284 0-.438l.313-.041zm-.334.854c.066-.317.432-.511.5-.793.192.135.362.292.522.459l.062 1.481h-1.084c.054-.435-.075-.792 0-1.147zm.354 7.989c-.024-1.895-.023-3.815-.062-5.695.742-.014 1.479-.036 2.231-.041.115 1.923.269 3.807.376 5.736h-2.545zm2.503-8.843c-.1-.667-.178-1.353-.25-2.045l.146.084c-.036.217.058.304.166.374l-.062 1.587zm.438 8.091c-.129-1.615-.276-3.324-.354-4.922h.084c.118.629.134 1.308.188 1.981.079.994.218 1.96.082 2.941z"/></g></svg>