<svg xmlns="http://www.w3.org/2000/svg" width="100" height="100"><circle fill="#B2B2B2" cx="50" cy="50" r="50"/><path d="M22.611 46.03v1.279c0 .328.275.604.639.679l.235 2.259c-.211.16-.741.599-.741.998s.185.699.626.699.801-.396.801-.889c0-.137-.123-.022-.214.016-.117.852-.951.607-.896.076.04-.396.547-.444.692-.861.188-.535.022-1.468.022-2.313.332-.092.571-.354.571-.662v-1.279c0-.384-.374-.698-.832-.698h-.01l-.599-19.334h-.17l.653 19.333c-.433.024-.777.329-.777.697zM21.695 59.561v.072l-.647.984-.051.08.067 4.572.021-.252v1.635h6.294v-7.092h-.172l-3.39-6.401-.056-.136-.025.007v-1.106h-.196v1.025l-.005-.002-1.715 6.613h-.125zm.322 5.457h-.577l-.088-3.999h.665v3.999zm0-4.173h-.669l-.002-.147.611-.991h.061v1.138zm4.747 4.173h-4.66v-3.999h4.66v3.999zm0-4.173h-4.66v-.929l.045-.21h4.313l.092.228.034-.009-.088-.219h.263l.001 1.139zm-4.66-1.095v-.044h.008l-.008.044zm5.063-.189h-.728l-2.488-6.072 3.216 6.072zm-3.432-6.51l.001.004h-.001v-.004zm-.171.06h.17v-.033l.049.096 2.618 6.387h-4.222l1.385-6.45zm-.032-.015l-1.389 6.465h-.288l1.677-6.465zM78.729 26.636l-5.332-.235-11.455-6.754-.426.083-.029.008-.006.053-.005.032s-6.923 1.281-11.568 1.987c-4.024.61-15.028 2.225-17.904 2.648l-4.777-.211-9.778-.426-.003.047 9.773.427 4.535.199-.448.066 1.027-.041 16.083.71.004-.049-15.83-.697c1.305-.181 7.159-.997 8.871-1.27 1.93-.309 7.148-.931 7.797-1.167.648-.235 3.912-.658 5.457-.879 1.544-.221 4.315-.793 5.527-.967l1.215-.176-.021.2-.166 1.69-.062-.003-.004.086.054.027-.021.214-.016.056-.036.132-.021.454-.004-.003-.021.106.018.013v.008l-.403.086.356.922-.008.134h-.021l.016.078-.006.033.006.007-.028.611-.004-.002-.021.104.019.013-.041.869-.385-.016-.479-1.16-.013.322.071.176-.077-.049-.006.188.014-.002v.002l-.015.021-.007.179.147-.203.177.42-.324-.21-.007.1.281.166-.066.037-.178-.009-.039-.092-.004.09-2.583-.113-9.78-.428-.002.047.232.011-.073.005-6.089-.295-.107-.031-.09-.002-.206-.018-.032.025-2.805-.136-7.071-.298-.11-.026-.091-.001-.203-.016-.033.024-2.806-.128-.135-.033h-.092l-.205-.017-.041.029-.583-.027v.005l-5.677-.258-.11-.026-.092-.001-.205-.016-.032.024-2.806-.127-.136-.032-.092-.002-.203-.015-.04.029-.382-.019-.003.059.308.014-.066.046-.117-.031-.129.016-.112 1.5.051-.015 6.307.342.043.044.206.006.093.009.208-.03 2.382.13c.146.201.503.09.73.007l6.306.343.044.045.207.008.094.009.208-.032 2.381.131c.137.198.804.16 1.125.062l.066-.021.019-.013 6.172.273.043.046.207.008.093.009.208-.031 2.381.137c.139.198.803.161 1.124.065l.262.015.005-.063-.136-.008.017-.013 5.821.315.043.045.207.006.095.01.207-.031 2.381.13c.146.201.504.09.733.006l2.442.133.326.769.066-.076-.013-.027.254-.068.114-.029.056.125-.385-.026-.14 3.653.364.025-.012.28-.043-.001c-.429-.007-.213.687-.021.759l.028.01-.081 1.967-.028.006.022.187-.022.617-.037-.008-.019.108.049.015c-.041 1.127-.079 2.255-.111 3.385l-.025.005.006.107.019-.002c-.021.668-.036 1.338-.051 2.007-.049.052-.076.109-.078.172-.005.066.022.131.069.188l-.025 1.373c-.174.107-.118.429-.01.624l-.022 1.371-.052.039.011.103-.004.046.041.072c-.016.94-.028 1.879-.041 2.819l-.038.081.036.092c-.019 1.328-.034 2.656-.055 3.984l-.054.029.004.131-.006.059.051.127-.022 1.506c-.249.102-.083.322.039.462-.021 1.327-.039 2.655-.057 3.982l-.057.029.004.131-.007.059.054.129-.021 1.506c-.249.097-.157.513-.011.71l.029.038.019.013.027 3.897-.056.028.002.131-.009.06.055.129-.03 1.506c-.251.096-.161.513-.016.71l-.004.165h.081l.003-.086.006.005-.045 3.402-.056.031.004.13-.006.059.051.129-.02 1.505c-.253.1-.086.32.036.462-.021 1.327-.036 2.655-.055 3.982l-.058.03.004.129-.007.06.054.129-.022 1.506c-.247.096-.157.513-.011.71l.035.045.013.008c-.025 1.28.053 2.617.026 3.897l-.056.028.002.131-.006.059.053.13-.029 1.504c-.25.096-.161.515-.018.71l-.003.165h.081l.001-.084.034.019.217.067h.785l.436-.078v.078h.079l.001-.095.552-.101v.195h.08v-.21l.026-.006-.026-.099.008-3.846.026-.069-.004-.059.009-.129-.031-.019.002-1.773-.049-4.462.026-.07-.004-.058.008-.128-.032-.021-.008-1.771.032-.086-.003-.06.007-.127-.039-.023-.002-.368h-.006l-.016-3.586.026-.069-.005-.059.009-.13-.031-.018-.007-1.774.012-.034.009-.003.082-.014.011-.004.045 5.69.099 13.385h.062l-.085-13.384-.053-6.173.069-12.688-.088-10.749.054-.01-.056-.215-.09-8.11.078-.012-.08-.207-.024-2.315.204-.039-.131-.501-.079-.01-.004-.277.234.018.029-.785.425 23.21-.016 6.513-.045 6.177.142 6.172.064 6.511.154 6.874h.061l-.152-6.874-.064-6.511-.142-6.172.045-6.177.034-6.513-.472-24.122.075-1.956-.13-.01-.019-.674 1.364.075.043.046.206.006.095.01.208-.032 2.38.13c.14.198.804.161 1.125.063l.065-.022.019-.011 6.174.272.041.045.21.009.09.009.209-.031 2.382.137c.137.2.801.162 1.124.066l.26.015.004-.063-.133-.007.03-.026.118-.161.045-.605-.099-.342.123.006.004-.061-.147-.009-.128-.432.307.016.005-.062-.333-.016-.004-.021-.161.013-4.527-.22-.206-.122 5.241.231.009-.045zm-54.155-2.3l-.514.367-.189-.008-2.028-.483 2.731.124zm-3.238-.148l.19.01 2.021.479-2.701-.137.49-.352zm-.321-.013l-.485.347-1.931-.458 2.416.111zm-2.953-.135l.223.011 1.928.457-2.315-.117-.073-.18.237-.171zm1.833.511l-1.036.36-.59-.441 1.626.081zm-1.852-.095l-.132.047-.006-.052.138.005zm-.154.38l.028-.245.21-.074.589.443-.24.086.197.021.126-.044.092.068h.209l-.161-.118 1.068-.37.663.499-.173.074-.948-.047-.008-.008-.242-.014.01.011-1.486-.073.066-.209zm-.407.65c.091-.059.175-.148.244-.257l.508-.067-.214-.028-.259.032.034-.064 1.572.077.397.431-2.282-.124zm2.647.143l2.355-.296-.547-.027-1.958.286-.372-.401 2.33.115h.002l.547.027h-.002l.674.032.455.455-3.484-.191zm.764-.519l.908-.397.763.374-.474.163.065.007-1.435-.071.041-.017.008.007h.208l-.084-.066zm1.905-.019l.823-.284.743.559-.956-.047-.007-.007-.312-.012.003.003-.789-.04.365-.125.243.156.278.008-.391-.211zm1.387.759l-.256-.015-.456-.455 2.912.144-2.2.326zm2.398.096v.037l-2.056-.113 2.116-.313-.06.389zm.076-.467l-1.881-.094 1.218-.421.667.502-.004.013zm.118-.49l-.083.342-.562-.42.076-.039-.251-.013-1.379.506-.818-.614h-.071l-.131-.015-.865.302-.787-.385-.141.002-.072-.004-.89.389-.637-.478 3.948.201.181.014.006-.004 2.493.125-.017.091zm.028-.146l-2.427-.124.514-.368 1.922.457-.009.035zm.022-.093l-1.624-.386 1.694.079-.07.307zm7.719.038l-.514.381-.187-.01-2.029-.496 2.73.125zm-3.234-.147l.189.009 2.02.493-2.7-.137.491-.365zm-.321-.016l-.487.363-1.931-.472 2.418.109zm-2.955-.135l.222.011 1.928.472-2.317-.118-.072-.188.239-.177zm1.833.528l-1.038.375-.589-.458 1.627.083zm-1.851-.094l-.133.048-.006-.055.139.007zm-.157.392l.029-.253.212-.077.588.459-.34.114.188.011.232-.06.093.072h.208l-.159-.125 1.066-.385.662.515-.171.078-.949-.046-.008-.008-.243-.015.01.011-1.487-.073.069-.218zm-.664-.682l.013-.18.504.022-.063.047-.117-.031c-.113-.007-.232.048-.337.142zm.255 1.357c.09-.06.175-.152.245-.267l.657-.102-.289-.014-.332.053.034-.068.298.015.289.014h-.001l.984.048.396.446-2.281-.125zm2.646.145l2.002-.273-.215-.029-1.937.264-.369-.416 3.549.175.453.471c-1.16-.066-2.32-.128-3.483-.192zm.765-.539l.91-.414.761.385-.472.17.065.007-1.434-.072.041-.017.011.007h.208l-.09-.066zm1.908-.022l.826-.297.741.577-.956-.047-.008-.008-.311-.012.003.004-.789-.039.363-.133.233.116.212-.002-.314-.159zm1.383.782l-.256-.013-.455-.473 2.911.146-2.2.34zm2.4.097v.035l-2.057-.113 2.117-.326-.06.404zm.078-.486l-1.88-.094 1.218-.439.667.518-.005.015zm.118-.508l-.083.358-.562-.438h-.072l-.13-.013-1.355.489-.816-.636h-.07l-.131-.013-.866.313-.786-.397-.141.002-.072-.005-.892.405-.635-.494 3.948.2.18.015.005-.004 2.493.126-.015.092zm.029-.151l-2.429-.123.515-.383 1.921.468-.007.038zm.022-.097l-1.625-.398 1.707.109-.082.289zm8.06.04l-.514.381-.188-.011-2.028-.502 2.73.132zm-3.235-.157l.191.009 2.018.5-2.7-.146.491-.363zm-.32-.016l-.487.36-1.932-.477 2.419.117zm-2.955-.143l.223.01 1.928.478-2.316-.125-.072-.185.237-.178zm1.833.533l-1.037.372-.59-.459 1.627.087zm-1.85-.099l-.132.047-.009-.056.141.009zm-.159.39l.029-.253.212-.075.587.46-.323.115.104.004.175-.011.125-.045.092.073h.21l-.159-.125 1.067-.383.663.518-.171.076-.95-.048-.008-.011-.242-.014.01.012-.809-.043-.147.01.043-.016-.572-.029.064-.215zm-.392-.822l-.002-.003.026.001-.024.002zm.215.006l-.033.024-.091-.031.124.007zm-.115 1.58l.101-.15.013-.18.016-.024.681-.098h-.386l-.259.034.034-.066 1.573.083.461.518-2.234-.117zm2.454.116l2.225-.368-.446-.022-1.852.3-.369-.417 2.221.117.149-.024.297.047.88.046.451.47-3.556-.149zm2.747-.607l.826-.296.74.581-.955-.049-.008-.009-.311-.013.002.004-.787-.042.365-.131.231.119.213-.004-.316-.16zm-.709.163l.064.006-1.174-.085-.085-.067.909-.412.759.387-.473.171zm2.093.626l-.255-.015-.454-.472 2.91.151-2.201.336zm2.399.103v.036l-2.055-.119 2.118-.322-.063.405zm.076-.485l-1.879-.1 1.217-.437.666.521-.004.016zm.12-.508l-.082.356-.564-.438h-.071l-.13-.015-1.354.487-.815-.639h-.073l-.131-.015-.866.311-.786-.399-.142.002-.072-.005-.891.402-.635-.496 3.949.212.179.014.007-.003 2.493.135-.016.091zm.028-.153l-2.425-.131.513-.379 1.922.476-.01.034zm.106-.383l-.083.29-1.624-.403 1.939.095-.232.018zm22.414-1.079l3.39 2.065-.28-.011-3.183-1.95.073-.104zm-7.267-4.075l10.163 6.12-9.969-.438-.062-2.205.157-.059-.169-.379v-.014h-.004l-.169-.378-.042-.002-.003-.67h.003l-.003-.021v-.01l-.006-.065.031-.013-.043-.104v-.021h-.006l-.021-.049c-.019-.238-.091-.873-.158-1.416l.301-.276zm0 41.029v.081l-.033-.021.033-.06zm-.007-.056h.007v.017l-.007-.017zm-.037-.568l-.38-.038.415-1.039-.035 1.077zm.023 19.486l.001.08-.034-.02.033-.06zm-.007-.058h.007v.018l-.007-.018zm-.035-.566l-.379-.037.412-1.042-.033 1.079zm-.519-13.976l-.021 1.575-.117-.005-.468-.036.534-.376-.004-.043.009-.082-.713-.831.776-.543-.004-.044.011-.083-.457-.531.47-.514-.013-.087.002-.045-.572-.543.603-.423-.032 2.495-.009.113.005.003zm-.746 15.333l.065.075-.088.064.012.131.151-.106.564.655-.63.44-.112-.105.006-.601.011-.004.006-.153-.014.006.004-.516-.021-.088.021.023.004-.358.284.03.331.005.11.129-.56.392-.168-.197-.002.063.026.115zm-.05 2.791l-.005.002.007-.495.19.221-.137.153.017.132.189-.206.433.505-.704.495.005-.605.01-.004-.005-.198zm.255-.342l-.25-.291-.004.041.036-.742.083-.061.587.555-.452.498zm.487-5.552l-.008.115.008.004-.013 1.575-.114-.006-.47-.034.531-.376-.005-.045.01-.081-.719-.83.771-.544-.003-.045.011-.081-.459-.531.465-.515-.013-.088.003-.045-.579-.541.601-.424-.017 2.492zm-.824 2.696l-.06-.162.088.021-.011.991-.642.316.009-1.411.201.057h.236l.031.011.17.421-.022-.244zm.017-18.859l-.061-.162.088.02-.002.381v.004l-.005.607-.645.316.011-1.41.201.056h.235l.033.009.169.422v-.004l-.024-.239zm-.12-6.675l.09.019-.003.992-.554.271.021-1.441c.085.054.209.102.361.141l.173.408v-.183l-.088-.207zm.112-6.867l-.287.035-.189-.51.479-.241-.003.716zm.024-5.284l-.338-.241.343-.076-.005.317zm-.054 27.351l-.001.226-.002.541-.558.307.03-2.2.527 1.471.001-.118v-.228l-.492-1.22.498-.251-.006 1.471.003.001zm-.004.967l-.006 1.84-.558-1.369v-.163l.564-.308zm-.522-2.324l.011-.895.163.048h.36l-.002.578-.532.269zm.515-1.722l-.528-.021-.045.003.026-1.301.547 1.319zm-.541-1.536l.002-.161.587-.307-.021 1.841-.568-1.373zm-.017 6.268l.535 1.315-.511-.019-.044.002.02-1.298zm.021 1.848c.085.054.208.103.36.141l.172.408.002-.11v-.073l-.088-.204.088.017v.261l-.002.732-.554.271.022-1.443zm.59-9.341l-.006.557-.583.307-.026-2.245.615 1.381.002-.281-.504-1.151.519-.253-.015 1.404.041.093-.043.188zm.039-6l-.003.002v-.497l.193.223-.137.151.019.132.187-.207.438.506-.703.496.002-.606.01-.004-.006-.196zm.004-2.39l.002-.468.094.142-.089.063.013.132.152-.107.566.655-.628.438-.11-.103v-.599l.011-.006.004-.154-.015.007zm.017-3.846l-.004-.062-.003.002v-.102l.003.1h.001l.003.062.247-.256.423.504-.678.494.002-.603.01-.007-.004-.132zm.003-2.451l.002-.938.273.031.317.005.108.13-.536.392-.122-.148-.017.125.065.077-.085.062.011.133.146-.107.547.654-.605.441-.107-.104.002-.601.012-.005.004-.153-.015.006zm.009-2.45l.008-1.99.777.75-.003.473-.004-.003-.007.068-.704-.846-.017.125.683.818-.605.44-.113-.111-.009.135.039.036-.008.006.012.132.078-.058.572.552-.34.391-.068-.004-.123-.006-.144-.172-.014.125.038.045h-.055l.006-.754.027-.016.005-.152-.031.016zm-.222-20.077l.057.034-.032.015-.078-.004-.018-.038-.04-.097.084-.115.223.175-.045.021-.186-.121.035.13zm.118-.673l-.142-.342.284.013-.012.232-.13.097zm.043.454l-.113-.088.049-.067.064.155zm-.337-.263l-.133-.102.243.013.025.018-.135.071zm.189.055l-.043.058-.058-.043.101-.015zm-.356-.221l-.007-.017.089.021-.082-.004zm-.034-.086l-.015-.031.081.046-.066-.015zm-.032.697l.026.064-.037-.001.011-.063zm-.007-.789l.005.013-.005-.013zm-.045-.105l-.045-.107.117.006-.072.101zm.02.819l-.012-.017.004-.001.008.018zm.009.2l.078.004.039.092-.163.172.046-.268zm.156.186l.054.131-.199.051.145-.182zm.023.234l.071-.011v.006l-.005.026-.124-.006.058-.015zm.032-.862l.114.089-.048.068-.066-.157zm.388-.206l.069.004-.007.153-.062-.157zm.071 1.652l.043-.011-.032-.059.046-.136-.041-.102.002-.059.261.156-.004.063-.077.042-.09.098.163-.026-.004.143-.059.076-.217-.014.009-.171zm.181-1.112l.129-.058.002.001-.007.151-.118-.007-.008-.018h.088l-.086-.069zm.676 5.009l-.003.27h-.019l-.622-.049.011-.265.633.044zm-.529-5.59l-.195-.009.183-.135.019.017-.007.127zm.105 1.742l.125-.169-.12-.079-.079-.052.002-.092.021-.112.104.005.397.276-.003.29-.346.092-.191-.011.001-.024.089-.124zm-.083-.054v-.041l.032-.004-.032.045zm.88 6.564l-.041-.035.028.001-.026-.121-.274-.011.002-.388.312.317v.237zm.004.763v.306l-.255-.263.255-.043zm-.243-.804l-.062.017-.013.004v-.025l.075.004zm.243 1.227l.007 1.118-.342-.015.011-1.436.324.333zm.006 1.235l.003 1.101-.35-.374.008-.742.339.015zm.201-9.944l-.123-.004-.005-.443.197.1.009.292-.14.052.062.003zm-.737 44.385l-.008 1.045.001.002-.001.158-.001-.001-.002.37-.114-.005-.45-.036.513-.375.054.046.001-.159-.743-.845.745-.543-.004-.044.008-.083-.442-.532.45-.513-.013-.088.002-.045-.558-.542.577-.423-.017 2.494-.005.115.007.004zm-.672 2.848l-.09.062.013.132.152-.107.566.654-.625.44-.113-.105.003-.599.01-.005.003-.156-.013.009.002-.47h-.002l.002-.08.002-.39.283.032.329.005.112.129-.558.392-.167-.208-.002.039v.081l.093.145zm-.069 1.38l.082-.061.593.556-.453.496-.251-.29-.004.041.004-.905.023.024-.009.008.015.131zm-.012-4.904l-.003-.062-.002.003v-.104l.002.102.003.061.25-.254.421.505-.678.493v-.604l.012-.004-.005-.136zm.028-1.393l.08-.06.57.554-.434.496-.242-.289-.005.04.003-.904.024.023-.01.006.014.134zm.154 1.061l-.187.158.002-.382.185.224zm-.194 2.527l.004-1.188.623.745-.61.444-.017-.001zm.179-5.024l-.122-.147-.013.124.064.077-.086.062.012.131.146-.106.545.655-.604.438-.109-.104.004-.601.01-.005.004-.156-.014.009.002-.538h.346l.045-.008-.23.169zm.483-.212l.127-.022-.007.955-.53-.633.41-.3zm-.636-.815l.013-1.188.641.747-.633.443-.021-.002zm.026-2.254l-.004.001.007-.496.188.222-.138.151.02.135.188-.207.435.504-.706.496.007-.606.011-.004-.008-.196zm.258-.343l-.251-.29-.004.041.036-.743.081-.06.588.556-.45.496zm-.244-1.294l.005-.601.01-.005.007-.154-.016.007.005-.513-.021-.09.022.025.003-.362.285.03.328.007.112.13-.561.391-.167-.197-.001.065.026.109.065.076-.089.063.013.131.152-.108.562.656-.629.442-.111-.102zm.659-3.024l.01-.083-.719-.83.771-.545-.003-.043.009-.083-.459-.529.467-.516-.014-.087.002-.046-.577-.542.601-.424-.02 2.497-.006.113.006.003-.009 1.576-.119-.005-.468-.036.533-.375-.005-.045zm-.691-7.211l.746-.545-.004-.045.008-.082-.441-.531.446-.514-.009-.089v-.045l-.558-.542.579-.423-.018 2.494-.006.114.006.004-.006 1.049v.156h-.002l-.003.369-.113-.004-.45-.037.513-.375.054.047.002-.156v-.001l-.744-.844zm.223-5.864l.565-.414-.008 1.027-.002-.026.001-.045-.556-.542zm.558.685l-.002.386-.286-.053.288-.333zm-.006.937v.088l-.068-.081.068-.007zm-.001.23l-.006 1.027-.531-.637.537-.39zm.015 6.067l-.002.088-.069-.08.071-.008zm-.005.23l-.005 1.028-.549-.636.554-.392zm-.497 6.903l.558-.39-.011 1.028-.547-.638zm.491-.614l.07-.008-.002.09-.068-.082zm.018-15.711l-.653-.63.657.058-.004.572zm.008-1.502l-.457-.276.131-.02.328-.062-.002.358zm.025 8.281v-.118l.498-1.3.009 1.723-.507-.305zm.505.507l-.471 1.231-.047-.004.011-1.533.507.306zm-1.176-13.355l.674.031-.005.683-.669-.714zm1.167 11.231l-.495 1.293.013-1.705.482.292v.12zm-.472-2.278l.229-.054.233.143.001.141-.475 1.234.012-1.464zm-.007-10.885l-.649-.694.651.031-.002.663zm.116 10.4l.35-.913.005 1.285-.064-.039.032-.075c.006-.093-.121-.187-.323-.258zm.356.913l.006 1.526-.479-.289.473-1.237zm.005-16.771l-.001-.24h.018l.003.259-.02-.019zm.017-5.69l-.002-.057.193.01.004.148-.195-.101zm-.002-.12l-.004-.296.188.046.009.261-.193-.011zm-.004-.359v-.034l.185.007.002.072-.187-.045zm0-.099l-.002-.103.182.007.002.105-.182-.009zm-.002-.149l-.024-2.118.146-.054.059 2.178-.181-.006zm-.022 20.982v.184l-.419 1.086-.035-.011.009-1.527.445.268zm-.435-13.577l-.004.476-.378-.206-.283-.288v-.003l.665.021zm-.661-.143l.002-.059c.104-.001.222-.012.36-.038l.301-.057v.177l-.663-.023zm.656.75v.049l-.106-.11.106.061zm-.617-.468l-.045-.024v-.021l.045.045zm.267.275l.335.343-.674.231.021-.749.318.175zm.349.459l-.003.364-.689-.024.002-.102.69-.238zm-.001 12.237l.002-.445.438.421v.29l-.44-.266zm.003-.565l.006-.639.427.038.004 1.022-.437-.421zm.006-.758l.002-.327.423-.02.002.382-.427-.035zm.002-.438v-.21l.324.196-.324.014zm.002-.333l.003-.419.411-.079.005.753-.419-.255zm.007-1.135l.007-.949.395-.088.002 1.07-.404-.033zm.006-1.051v-.073c.197-.054.34-.144.392-.255l.003.243-.395.085zm.059-.81l.024-.006-.006-.043.017-.076-.087-.061.002-.514.314.333.026-.094-.341-.363.007-.761.368.016.006 1.846c-.046-.104-.166-.202-.33-.277zm-.043-13.466l-.214-.147.215.012-.001.135zm.364 11.78l-.363-.018.011-1.643.335.355.015-.063.008 1.388-.006-.019zm-.362-12.262v.126l-.101-.112.101-.014zm-.147-.037l-.116-.128.264.012-.001.097-.147.019zm-.023-1.466l-.287-.015.004-.126.296.135-.013.006zm.164.065l.016.007v.088l-.07-.004-.109-.026-.035-.002.198-.063zm-.295-.023l-.16.049.002-.057.158.008zm.045.168l.188.007.075.02-.002.375-.17-.008-.305-.196.001-.041.213-.157zm.262.463v.039l-.064-.041.064.002zm.006-.731l-.045.013-.412-.298.011-.284.446.325v.244zm-.473-2.135l-.033.013-.131-.646.183.138-.019.495zm-.016.429v.018h-.048l.048-.018zm0 2.295l.062.06-.064-.004.002-.056zm.126.125l.082.08h-.213l.002-.087.129.007zm.082.2l-.222.101.005-.101h.217zm.159.038l.115.112-.004.28-.323-.018-.172-.188v-.011l.384-.175zm-.325.371l-.067-.004.002-.069.065.073zm.061.066l.133.148-.268.038.006-.191.129.005zm.18.199l.193.214v.041l-.315-.018-.197-.135.002-.059.317-.043zm-.39-.103l-.055-.035h-.001l-.032-.075.092.002-.004.108zm.013-.434h-.002l-.123-.137h.131l-.006.137zm-.108.658l.043.1-.111-.007.068-.093zm.069.166l.011.023-.005.136-.213-.137.025-.033.182.011zm-.127 6.948l.69.024v.05l-.519.127-.173-.179.002-.022zm.078.222l-.088.017.004-.103.084.086zm.607.681l-.005.619-.717-.211.007-.246c.194-.056.466-.114.715-.162zm-.069.713l-.667.401.013-.594.654.193zm.063.081l-.006.659-.733-.034.005-.186.734-.439zm-.009 1.562l-.007 1.062-.754-.534.027-1.311.734.783zm-.082 1.134l-.691.14.012-.622.679.482zm.075.092l-.004.496-.768-.034.006-.304.766-.158zm-.011 1.42l-.003.542-.771-.537.013-.819.761.814zm-.004.673v.009l-.084.021c-.117-.033-.246-.056-.386-.064l-.308.002.008-.504.77.536zm-.504.895c.182.014.352.002.499-.03v.071l-.782.173.002-.253.281.039zm.497.141l-.005.928h-.03l-.269-.02-.48-.342.004-.392.78-.174zm-.579.883l-.206-.014v-.134l.206.148zm-.067.878l.632.382v.262l-.78.032.002-.673.146-.003zm.63.754v.316l-.783-.067.002-.216.781-.033zm-.777 5.734l-.009.005.011.133.079-.059.57.553-.435.497-.24-.292-.005.043.002-.905.027.025zm.157 1.198l-.188.16.002-.382.186.222zm.431 2.086l-.608.444-.019-.002.005-1.188.622.746zm-.626 1.158l.284.031.328.007.114.13-.558.393-.169-.209v-.352zm.021 1.854l-.01.009.015.132.081-.06.591.554-.45.498-.25-.292-.007.041.003-.905.027.023zm.609 3.288l-.631.442-.019-.001.004-1.19.646.749zm-.659 17.248l.01-.004-.005-.197-.004.002.001-.497.194.222-.14.153.021.135.187-.207.437.504-.703.495.002-.606zm.254-2.882l.558-.392-.009 1.028-.549-.636zm.489-.616l.069-.004-.001.086-.068-.082zm.106-2.218l.51.304-.473 1.231-.045-.004.008-1.531zm.016 6.298l.525.306-.489 1.229-.048-.002.012-1.533zm.001-.2v-.12l.518-1.3.007 1.723-.525-.303zm.002-.325l.012-1.707.502.293.002.119-.516 1.295zm.014-1.907l.494-1.236.006 1.527-.5-.291zm.492-1.435l-.492 1.235.011-1.465.237-.054.246.144v.14h-.002zm-.069-.38l.034-.075c.002-.073-.071-.144-.203-.206h.234l.002.318-.067-.037zm.061-.479l-.403-.031.398-1.039.006 1.225-.001-.155zm-.514-1.773v-.118l.499-1.301.008 1.725-.507-.306zm.499-1.618l-.498 1.292.013-1.705.485.293v.12zm-.483-.611l.476-1.237.006 1.526-.482-.289zm.473-1.438l-.473 1.236.008-1.078h.015v-.093l.45-.083v.018zm-.442-.65l.021-1.532.523.303-.497 1.23-.047-.001zm-.025-6.512l.011-1.532.526.303-.49 1.231-.047-.002zm.011-1.736l.002-.117.517-1.301.008 1.723-.527-.305zm.517-1.616l-.516 1.292.012-1.705.504.294v.119zm-.502-.612l.492-1.236.009 1.526-.501-.29zm.492-1.435l-.492 1.233.01-1.465.238-.052.244.142v.142zm-.066-.383l.033-.076c.003-.071-.071-.144-.202-.205h.231l.002.318-.064-.037zm.058-.477l-.4-.029.398-1.041.005 1.225-.003-.155zm-.006-19.362v-.416l.013.015.019-.099-.032-.03-.008-1.512.022-.004.023 2.18-.037-.134zm.011-7.647l.097-.014-.097-.013v-.046l.206.01.013.441-.213-.013-.006-.365zm-.099 4.914l-.163-.175.161.012.002.163zm-.05-5.569l.024.013.002.103-.082-.054h.066l-.01-.062zm-.021-.622l-.152-.11.195.01v.103l-.043-.003zm.043.066v.012l-.058-.015.058.003zm-.148-.221l.147-.048v.055l-.147-.007zm-.048-3.682l.011-.004h.17l.004.668-.188.004.003-.668zm-.008 1.686l.194-.073.003.322-.003-.015h-.199l.005-.234zm-.004.355l.202-.001.004 1.086-.21-.235.004-.85zm-.005.966l.211.236.002.216-.217-.157.004-.295zm-.005.414l.158.114-.159.049.001-.163zm-.001.354l.132.062-.133-.006.001-.056zm-.001.148l.222.054.001.319-.226-.011.003-.362zm-.003.422l.226.012v.004l-.001-.001-.142.002-.069-.004-.014.005v-.018zm-.002.406l.221.218-.223-.011.002-.207zm-.002.27l.232.011v.039l-.235.031.003-.081zm-.003.139l.235-.032.002.342-.164-.007-.073-.08v-.223zm.238.374v.115l-.107-.119.107.004zm-.238-.013h.021l.21.236.007-.041.002.157-.242-.167.002-.185zm-.002.303l.226.155-.228.062.002-.217zm-.004.338l.246-.067.001.105-.247-.018v-.02zm-.021 3.684h.004l.272.291-.279-.023.003-.268zm-.008.942l.297-.056v.26l-.297-.011v-.193zm.297.325l.007 1.038-.229-.235.152-.053-.006-.039.022-.073-.247-.135.003-.516.298.013zm-.304.711v-.077l.089.047-.089.03zm-.351-12.077l.088-.028-.086-.004.072-.86s.155-.159.223.016c.045.115.055.563.056.869h-.001v.137l-.363.001.011-.131zm-.016.251l.366-.002-.004.682-.023.013-.35-.389.011-.304zm-.014.416l.329.364.045.278v.16l-.39-.296.016-.506zm-.02.624l.345.263-.36.143.015-.406zm-.027.837l.416-.158-.002.203-.418.002.004-.047zm-.008.166h.423l-.004.765-.428-.474.009-.291zm.416.88v.324l-.445-.322.017-.48.428.478zm-.432-2.719l-.001.015-.011-.012.012-.003zm-.189-.08l.184.207-.017.533-.196-.149.029-.591zm.125 1.92l-.006.206-.185-.206h.191zm-.22.083l.212.233-.019.512-.223-.161.03-.584zm-.033.7l.224.161-.013.284-.225-.164.014-.281zm-.028.558l.232.108-.005.16-.24-.01.013-.258zm-.014.305l.24.01-.002.088-.049.015-.193-.008.004-.105zm-.007.165l.028.001-.029.01.001-.011zm-.008.132l.077-.024v.002l-.077.057v-.035zm-.014.316l.248.013-.003.09h-.249l.004-.103zm-.006.12l.013.062-.007.035.159.178-.12.056-.054-.131.009-.2zm-.03.6l.053.03.003.006.008.02-.031.018-.032-.022v-.052zm-.006.196l.036-.004.015.011-.051.007v-.014zm.076.061l-.087.119.006-.108.081-.011zm-.083-1.593l-.004.103-.313-.014-.043-.105.36.016zm-.474.058l.008.024-.026-.001.018-.023zm.033.088l.156.375-.042-.009-.327-.213.116-.16.097.007zm-.127-.131l-.044.061-.187-.01-.007-.013.238-.038zm-.193-.049l-.056.062-.025-.064.081.002zm-.11.705l.026.06-.096.101-.008.161.14-.17.055.128-.194.049-.002.097.208-.054-.021.147-.434-.021-.006-.008-.242-.015.01.011-.743-.037h-.003l-.139-.006-.604-.03.068-.215.026-.254.212-.075.587.458-.338.115.048.002.139.006.233-.06.093.072h.208l-.158-.125.935-.337zm-.054-.244l-.002.071v.005l-1.918-.096-.071-.187.239-.178.222.012 1.53.373zm-1.217-.361l1.229.057-.012.242-1.217-.299zm-.556.41l-.131.047-.007-.056.138.009zm.815.47l-.589-.458 1.559.079.009.024-.979.355zm-11.013-1.424l-.029-.002-.004-.015.054.002-.021.015zm-.052-.08l-.002-.01 9.454.413 2.589.114-.004.103-1.54-.071-.135-.033-.093-.001-.204-.016-.038.029-.584-.026v.005l-5.679-.258-.109-.027-.093-.001-.204-.018-.029.024-2.807-.128-.136-.033h-.06l.004-.049-.33-.017zm3.571.299l.19.008 2.019.479-2.698-.137.489-.35zm-.806.333l-1.933-.458 2.417.109-.484.349zm1.312-.31l2.729.125-.512.366-.188-.011-2.029-.48zm-3.783-.173l.223.01 1.929.459-2.151-.109.002-.006-.148-.007-.06-.199.205-.148zm1.249 1.076l-1.297-.064.02-.262-.062-.217.157-.056.591.444-.242.083.196.021.126-.043.094.07h.209l-.161-.119 1.068-.371.663.5-.172.075-.948-.046-.008-.009-.244-.016.01.01zm-1.363-.624l-.012-.04.11.005-.098.035zm.324-.022l1.625.082-1.035.36-.59-.442zm-.362 1.038l.079-.114.015-.202.234-.031-.212-.028-.017.002.002-.022 1.36.066.396.431-1.857-.102zm2.22.121l2.357-.297-.547-.026-1.961.287-.371-.402 2.332.116h.002l.547.026h-.004l.674.033.453.454-3.482-.191zm.763-.518l.907-.396.763.371-.473.163.066.007-1.437-.07.042-.019.01.007.207.001-.085-.064zm2.202.191l-.169-.008.166.006.099.003-.391-.21.823-.285.744.559-.957-.047-.006-.008-.213-.007-.098-.004.002.001zm-.181-.008l-.607-.03.365-.126.242.156zm1.271.558l-.255-.015-.457-.455c.974.047 1.943.094 2.914.144l-2.202.326zm2.401.096v.035l-2.056-.114 2.115-.312-.059.391zm.075-.469l-1.881-.092 1.216-.423.667.502-.002.013zm.12-.49l-.084.343-.563-.42.074-.039-.251-.014-1.38.507-.818-.613h-.068l-.13-.015-.866.301-.788-.385-.142.003-.07-.003-.891.388-.635-.477 3.946.2.181.013.006-.002 1.658.084.252.013h-.003l.585.03-.013.086zm.025-.146l-2.427-.123.514-.367 1.921.456-.008.034zm.095-.4l-.073.309-1.623-.385 1.94.088-.244-.012zm.298.191l.013-.181.507.023-.066.047-.116-.032c-.113-.006-.232.047-.338.143zm.254 1.359c.093-.06.176-.154.246-.267l.656-.102-.213-.011-.072-.004-.333.051.033-.066.372.019.216.01h-.003l.986.048.395.446-2.283-.124zm2.309-.107l-.009-.021v.012l-.172-.194.362.018-.049.337-.132-.152zm.442.665l-.041.29-.268-.639.038-.011.322.017-.051.343zm.12-.298l.084.202-.15.157.066-.359zm-.009.455l.131-.161.05.114-.181.047zm.106-.983l.228.011.005.004-.01.198-.062.064.06-.009v.011l-.101.014-.12-.293zm.144.347l.072-.008-.005.103-.031-.002-.036-.093zm-.056 4.459l.319.024-.01.266-.323-.014.014-.276zm-.045 1.071c.083.026.19.052.331.057l-.001.059-.064-.001.019.081-.005.032.047.047-.003.058-.324-.178-.008.021.008-.176zm-.013.276l.333.182-.022.819-.358.124.047-1.125zm-.05 1.248l.358-.123-.006.071-.082-.002.02.08-.007.034.066.069-.005.2-.361.072.017-.401zm-.041.972c.048.187.115.335.205.263l.16-.074-.007.195-.366-.108.008-.276zm-.013.388l.369.109-.018.667-.388.234.037-1.01zm-.041 1.13l.391-.234-.032 1.544-.322-.229-.038.097.358.255-.013.698-.413.083c.02-.738.043-1.475.069-2.214zm-.074 2.324l.417-.083-.019 1.195-.409-.288-.011.048.022-.872zm-.021.949l.42.293-.006.57c-.181.023-.332.074-.438.144l.024-1.007zm-.038 1.516c.106.085.26.157.442.207l-.002.291-.451.099.011-.597zm-.013.763l.449.322-.002.185-.386-.013-.07.006.009-.5zm-.023 1.261l.06.041c.095.035.219.083.404.099l-.003.682-.474.021.013-.843zm-.014.955l.325-.014-.33.257.005-.243zm-.009.41l.482-.375-.004-.055h.006l-.006 1.48-.48-.892.002-.158zm-.003.306l.481.896-.005.739-.506.256.03-1.891zm-.031 2.14l.152.414-.159.058.007-.472zm-.014.77c.083.056.204.103.35.142l.116.32.023-.137-.06-.161.086.018-.003.993-.531.271.019-1.446zm-.02 1.673l.527 1.47.002-.345-.493-1.222.497-.252-.006 2.242-.56.307.033-2.2zm-.036 2.402l.562-.309-.006 1.841-.559-1.37.003-.162zm-.005.378l.535 1.316-.511-.02h-.043l.019-1.296zm-.001 3.518l.479 1.246.023-.138-.464-1.203.518-.254-.008 2.242-.579.305.031-2.198zm-.034 2.4l.581-.307-.007 1.84-.578-1.371.004-.162zm-.026 1.679l.019-1.3.557 1.314-.527-.017-.049.003zm.041 14.782l.479 1.247.024-.138-.462-1.206.515-.251-.007 2.241-.579.306.03-2.199zm-.036 2.402l.583-.31-.008 1.841-.577-1.369.002-.162zm-.023 1.677l.021-1.3.553 1.317-.527-.021-.047.004zm.072 6.511l-.047.001.027-1.299.546 1.316-.526-.018zm.555-.145l-.57-1.37.004-.162.584-.308-.018 1.84zm.026-2.598l-.004.559-.583.307-.028-2.245.615 1.383v-.004l.003-.28-.505-1.15.518-.252-.013 1.402.04.093-.043.187zm.027-3.743l.004-1.19.645.747-.628.443h-.021zm.025 6.51l.016-1.188.639.749-.633.441-.022-.002zm.806-1.636l-.007.115.005.004-.021 1.574-.116-.004-.469-.036.533-.373-.002-.047.009-.081-.713-.831.777-.544-.005-.044.01-.083-.455-.53.469-.513-.013-.088.002-.045-.574-.543.603-.423-.033 2.492zm.035-2.664l-.548-.634.561-.393-.013 1.027zm.014-1.169l-.068-.08.07-.006-.002.086zm.011 5.532l.019-1.534.526.305-.497 1.231-.048-.002zm.543.194l-.041-.146-.378-.039.421-1.038-.002 1.223zm.002-1.623l-.525-.305.003-.12.527-1.3-.005 1.725zm.005-1.923l-.524 1.292.022-1.705.502.293v.12zm0-.322l-.498-.292.5-1.235-.002 1.527zm.001-1.866v.14l-.5 1.236.021-1.465.236-.054.243.143zm.009-13.126l-.038-.148-.381-.037.421-1.042-.002 1.227zm.004-1.624l-.525-.307.002-.116.525-1.301-.002 1.724zm.003-1.924l-.524 1.294.022-1.706.502.294v.118zm0-.322l-.496-.29.5-1.235-.004 1.525zm.004-1.725l-.499 1.235.021-1.464.235-.054.246.143-.003.14zm.145-7.176l-.04 12.69h-.03l-.004.38.007-3.846.027-.068-.004-.061.009-.127-.032-.021.004-1.771-.052-4.464.028-.068-.004-.058.008-.129-.034-.021-.006-1.771.033-.088-.005-.058.009-.129-.04-.022v-.368h-.008l-.016-3.586.026-.07-.005-.057.009-.129-.032-.019-.009-1.773.034-.087-.004-.06.009-.128-.039-.024-.006-1.529.047-.118-.004-.06.006-.129-.049-.03-.003-.261.005.004.027-.094-.032-.032-.006-1.091.058.004-.021-.119-.036-.004v-.391h.009l-.007-.039.032-.061-.034-.023-.007-.812.095-.02.087 10.738zm-.093-11.21l-.02-.076-.071-.01-.004-1.154.019-.046-.02.004-.027-6.574.039-.005.084 7.861zm-.103-14.899l-.01-.667.215.011.02.673-.225-.017zm.22-2.29l2.312.107-.515.379-.188-.008-1.609-.395v-.083zm.005.148l1.28.313-1.274-.065-.006-.248zm.016.596l.279.14-.273.1-.006-.24zm.515.148l.824-.298.742.578-.957-.047-.007-.006-.311-.012.004.002-.791-.039.364-.131.234.118.211-.004-.313-.161zm-.495.682l-.011-.442.862.043.453.469-1.304-.07zm1.879.103l-.257-.015-.453-.472 2.91.144-2.2.343zm2.397.094v.037l-2.055-.114 2.117-.328-.062.405zm.077-.484l-1.881-.095 1.219-.439.667.519-.005.015zm.123-.509l-.083.356-.563-.436h-.071l-.129-.015-1.356.49-.816-.635h-.07l-.131-.013-.864.312-.414-.206-.005-.174 1.84.092.179.015.01-.004 2.491.126-.018.092zm.027-.152l-2.428-.123.516-.383 1.92.469-.008.037zm.02-.096l-1.623-.397 1.705.108-.082.289zm.984-.274l-.001-.003.025.001-.024.002zm.1 1.586l.1-.151.016-.182.015-.023.681-.099h-.387l-.258.034.032-.067 1.572.083.463.519-2.234-.114zm-.01-1.585l.126.004-.034.023-.092-.027zm2.945.501l-1.93-.479 2.417.118-.487.361zm.809-.344l.188.008 2.021.5-2.701-.147.492-.361zm-1.125.328l-2.316-.125-.072-.188.237-.175.223.011 1.928.477zm-.318.045l-1.038.371-.587-.459 1.625.088zm-1.851-.099l-.133.047-.005-.056.138.009zm-.157.39l.028-.253.21-.075.587.46-.319.113.106.005.17-.012.125-.045.094.072h.207l-.159-.123 1.068-.383.66.517-.172.077-.947-.049-.007-.008-.243-.015.01.011-.806-.043-.151.011.045-.016-.573-.029.067-.215zm2.16.879l2.222-.368-.445-.023-1.85.301-.37-.416 2.22.115.153-.025.297.047h-.004l.886.046.45.472-3.559-.149zm2.748-.605l.823-.295.744.579-.956-.051-.007-.007-.312-.013.003.004-.789-.042.364-.131.232.118.214-.002-.316-.16zm-.708.162l.064.006-1.174-.085-.087-.068.909-.411.762.386-.474.172zm2.092.625l-.257-.014-.452-.474 2.909.154-2.2.334zm2.399.106v.033l-2.057-.119 2.119-.319-.062.405zm.077-.488l-1.881-.099 1.219-.436.664.522-.002.013zm.12-.509l-.085.358-.561-.439h-.07l-.131-.015-1.355.487-.815-.638-.072-.001-.127-.013-.869.311-.786-.4-.14.002-.071-.004-.892.4-.636-.494 3.949.211.18.016.005-.005 2.493.135-.017.089zm.365-.553l-.234.018-.081.29-1.624-.402 1.939.094zm-.328.366l-.009.036-2.426-.13.515-.382 1.92.476zm-3.605-.557l1.363.066-.512.38-.189-.01-2.028-.502 1.366.066zm-.26-.076l-1.415-.067-.11-.027-.092-.002-.204-.015-.03.025-2.809-.137-6.343-.269-.002-.104 10.545.464.46.132z"/></svg>