<svg xmlns="http://www.w3.org/2000/svg" width="100" height="100"><circle fill="#B2B2B2" cx="50" cy="50" r="50"/><path fill-rule="evenodd" clip-rule="evenodd" d="M76.268 56.97l1.41.599c-1.184-1.995-2.902-3.534-3.351-6.162-.474-.094-.824-.296-1.059-.6-1.27-1.3-1.51-2.81-2.824-4.211-1.65-1.767-4.248-2.776-5.11-4.81-.769-1.802-1.024-3.153-3.003-4.206-.006-1.94-2.541-3.749-.878-5.26l1.411.299c2.639-2.193 3.633-4.246 4.058-7.963-.838-1.57-2.872-3.106-5.469-2.257-2.696-3.064-7.196 2.082-3.175 3.458-.283 1.705.544 5.528-2.294 5.712-2.25.145-2.458-2.099-3.354-3.608-.538-.916-1.486-1.73-1.939-2.554-1.535-2.795-1.83-5.843-3.35-8.417-.722-1.224-1.088-2.382-1.589-3.455-1.365-2.958-4.613-4.404-5.291-7.066v.904c-.446.162-.683-.706-.705 0 .091.722.796.925.705 1.801-.424.065-.381-.272-.883-.149.011.695 1.082.482 1.416.903.306 1.391 1.583 1.954 2.471 2.855.44 2.371 1.253 4.764 2.287 7.211 1.008 2.384 1.408 4.917 2.294 7.217.405 1.046 1.376 2.07 1.588 3.156.298 1.521.176 4.232-1.056 4.809-2.297-.452-2.192-2.942-3.529-4.208-.821.181-.974.351-1.942.15.055.648.014 1.211-.705 1.204-.98-.043-.986-.927-2.114-.451-1.783-1.329-2.029-3.656-2.822-5.863-.725-2.006-2.076-4.008-2.472-6.163-.561-3.042-.637-5.412-1.586-7.814-.326-.824-.853-2.163-1.94-2.405-1.498 1.208.161 3.639-.178 5.71-1.461.393-.813 1.759-.527 2.856.903.083 1.251.635 1.766 1.052.758 3.443-.083 6.069.879 9.164.718 2.307 4.061 3.962 3.353 6.016.289.407.875 1.351.351 1.954-.804-.017-.952-.592-1.94-.45.142.68 1.215.567 1.413 1.203-.776.733.35 1.057 0 1.651-.787-.091-1.824-.75-2.472-.452.979.717 2.642.855 3.353 1.804-.926.125-1.794-.001-2.82-.15.274.692-.635.597-.882 1.203.721.184 1.579.251 2.114.599.054.296-.238.299-.352.451 1.104.462 2.563.622 2.642 1.958-.767-.007-1.594-.057-1.939.297.674.031 1.515-.085 1.588.454-1.209.371-3.019.231-3.88.903.674-.08.935.206 1.057.597-.133.388-1.303-.107-1.23.454.156.667 1.429.381 1.409 1.202-.11.305-.891.041-.705.601.923.164 1.011 1.04 1.94 1.203.733.065 1.521-.6 2.116-.15-.042.563-.723.585-1.235.751 1.082.525-.17 1.594.529 2.104.405-.213 1.309-.779 1.94-.301-.289.906-1.523 1.008-1.589 2.104.739.031.547-.739 1.411-.6.275 1.187-.631 1.364-.878 2.104 1.087.62 1.716 2.034 3.348 1.352.252.655-.601.69-.176 1.053.365.44 1.368.338 1.413 1.052.683.13.289-.653 1.057-.454.674 1.207 1.203 2.061.883 3.312-.447 1.744-.648 3.763-.705 5.108-.062 1.438.759 2.497 1.058 4.512.149 1.011-.259 2.109-.177 3.153.209 2.678 2.396 6.363 1.412 9.318-.168.507-.78.926-.879 1.504-.266 1.501.352 3.842.703 5.409.229 1.042.666 2.409 2.291 2.404.042-.114.151-.176.354-.148 2.122-3.17-.716-6.708-.529-10.069.192-3.404 1.985-7.437 1.235-10.973-.133-.641-.636-1.233-.706-1.802-.402-3.604.523-6.673 1.765-8.868 1.658.954 3.645.031 5.289-.3.521-.261.095-1.327 1.06-1.204.431.386.601.994.884 1.504.606-.066.985.058 1.411.149 1.974-2.109-.128-4.745.351-7.216-2.359-1.146-1.912-4.681-4.056-6.01 1.671-.747 1.519-2.344.707-3.607 1.055-1.608 3.434-2.083 5.288-3.004.641 1.663 2.373 2.767 3.705 4.207.512.552.82 1.237 1.412 1.805 1.019.973 4.948 2.955 5.294 4.207.343 1.253-1.099 2.518.351 3.607.906-.197.105-1.096.527-1.504 1.931.609 1.591 3.155 3.353 3.908.534-.413-1.015-.87-.357-1.353z"/></svg>