<svg xmlns="http://www.w3.org/2000/svg" width="100" height="100"><circle fill="#C6C6C6" cx="50" cy="50" r="50"/><path d="M22.979 72.512l10.834.027c.07 0 .147-.035.231-.104-.136-.347-.273-.519-.411-.519h-2.084c-.052 0-.155-.063-.31-.205h-1.003c-.085 0-.137-.043-.155-.129l.078-.129v-2.573h1.956c.104-.172.215-.266.335-.28.858-.054 1.466-.076 1.828-.076l6.665-.181c.516 0 .772-.141.772-.411l-.026-.185v-.183c0-.17.112-.256.335-.256l.231.025.231.023.283-.062.284-.064c.086 0 .155.062.206.185-.104.14-.154.299-.154.485 0 .293.094.439.282.439.035 0 .108-.107.219-.322.113-.215.247-.321.398-.321.173 0 .293.069.36.206l.208.439c.12-.035.274-.07.462-.104.052-.017.266-.024.644-.024.462 0 .747.041.85.13.412.31.823.628 1.234.95l2.009-.693c.188.034.3.146.333.336l.104.517c.207 0 .315.01.333.024.447.271.791.498 1.029.67.104.033.354.049.746.049h7.336l.207-.103c.309-.036.516-.054.615-.054l.168.08.193.072.438-.039.438-.033c.123 0 .225.041.309.127v.645c-.084.066-.205.104-.355.104l-.311-.055-.311-.051-.451.063-.449.063c-.225 0-.412-.024-.564-.078l-7.93.054c-.441.188-.787.368-1.025.539-.02.018-.119.026-.31.026l-2.059-.055c-.136-.033-.249.104-.334.412l-.18.67c.344.053 1.072.078 2.187.078.292 0 .46-.049.503-.145.043-.095.245-.144.604-.144l3.782.053c.172.033.267.115.283.244.021.129.137.193.36.193.117 0 .201-.039.244-.115.043-.078.146-.117.317-.117l.86.054.865.053.448-.182c.316-.121.604-.183.859-.183.327 0 .672.08 1.032.231.771.31 1.089.463.949.463.067 0 .14-.065.207-.204.444 0 .78-.011 1.004-.027h.28c.154 0 .229.121.224.361-.01.241.062.36.22.36.016 0 .146-.119.383-.36l.08.051.076.054c-.054.153-.07.258-.054.311l.229.023h.183l.334-.052.282-.053c.086 0 .55.188 1.39.567.054.205.112.322.183.355.517.242.905.414 1.172.518.267.104.426.153.478.153.065 0 .129-.024.183-.075v-1.598l.049-.077.054-.332c.086-.069.153-.104.206-.104.066 0 .146.078.229.234-.12.342-.026.6.281.771v1.025c.274.293.422.438.438.438.065-.188.06-.336-.026-.438.086-.086.258-.129.517-.129.309 0 .487.043.54.129-.018.172-.045.293-.075.36.237.377.323.687.258.927.259.188.468.317.627.387.164.068.351.127.556.182.242-.498.403-.887.49-1.16h.151c.433.207.646.354.646.438l-.026.076-.117.131-.076.166-.034.168v.127l.229.26c.172.312.258.517.258.617 0 .205-.938 1.1-2.807 2.678-1.406 1.199-2.117 1.802-2.137 1.802-.582.465-.938.694-1.059.694l-.719-.024h-.721c-.568 0-.852.095-.852.282 0 .104.043.229.129.386l-.053.13c-.033 1.133-.488 2.068-1.361 2.807-.807.671-1.717 1.003-2.729 1.003-.907 0-1.752-.308-2.522-.927-.873-.688-1.338-1.554-1.389-2.599l-.076-.08c-.021-.358.006-.651.076-.872 0-.089-.097-.13-.283-.13-.121 0-.226.019-.31.052v1.262l-.063.22-.062.22c-.069.444-.36.95-.875 1.521-.519.562-1.006.906-1.469 1.027l-.205.074c-1.082.12-1.521.182-1.312.182-.533 0-1.031-.086-1.494-.256-.583-.242-1.01-.49-1.287-.746-.377-.447-.618-.758-.721-.93-.258-.529-.41-.908-.463-1.132l-.025-.409-.051-.08c-.019-.479 0-.771.051-.873l-.155-.129h-2.029l-.102.103.051.153c.018.104.005.312-.04.619l-.089.67c-.187.994-.695 1.782-1.518 2.364-.721.517-1.526.772-2.419.772-1.149 0-2.136-.409-2.96-1.235-.908-.907-1.294-2.022-1.158-3.347l-.05-.103h-.31l-.079.052v1.312c0 .067-.024.104-.076.104-.068.463-.291.993-.669 1.596-.309.464-.831.865-1.568 1.212-.568.271-1.15.409-1.751.409-.6 0-1.175-.129-1.725-.385-.341-.156-.617-.32-.824-.49-.565-.465-.933-.918-1.104-1.362l-.105-.336c-.206-.377-.292-.694-.257-.951l-.078-.075v-1.051h-2.728c-.138 0-.381-.156-.734-.477l-.553-.502c-.532-.088-.925-.127-1.183-.127-.155-.07-.231-.189-.231-.361 0-.223.163-.428.489-.619 0-.102.012-.273.039-.514l.038-.388-.038-.128-.039-.104c0-.377.008-.651.026-.823-.018-.55-.061-.892-.129-1.028l-.181.643c-.154.07-.274.104-.359.104-.222 0-.471-.194-.747-.592.155-.17.248-.256.283-.256.053 0 .163.053.334.153v-.051c-.136-.359-.206-.564-.206-.617 0-.24.078-.388.232-.438.205-.064.317-.119.334-.152-.325-.154-.582-.207-.772-.154-.085-.067-.128-.258-.128-.565 0-.41.164-.606.489-.592v-.334c0-.035-.093-.388-.282-1.058-.188-.666-.283-1.021-.283-1.057-.001-.115.015-.213.049-.281zm8.75-2.317c.173-.428.257-.67.257-.719v-.336h-.489v1.055h.232zm-.926 0c.19 0 .335-.025.438-.074v-.955c-.103-.051-.24-.076-.412-.076-.187 0-.325.035-.411.104v.953c.103.033.23.048.385.048z"/><path fill="#1D1D1B" d="M82.111 23.708l-.264.37-6.972.089-.51-1.371h-.722l-.879 1.107h-9.944s.055-1.038-1.527-1.038h-5.027l-.981-.123-1.077 1.832-.566-.308c-.179.168-.162.53-.472.566h-1.039c-.097-.163-.248-.126-.379-.283l-.188-.472c-.195-.27-.445-.443-.564-.755-.188-.499-.175-1.083-.188-1.794.295-.214 1.01-.21 1.133-.755.043-.198-.278-.799-.473-1.228-.193-.427-.398-.892-.566-1.226-.307-.609-.924-1.832-1.321-2.172-.484-.413-1.502-.589-1.983-.754h-1.133c-.545.102-1.646.378-2.266.566-.745.226-2 1.066-2.36 1.794-.083.169-.125.405-.188.566-.345.869-.438 1.884-.378 3.304.026.623.26 1.294-.094 1.889-.686.367-1.739.076-2.455.283-.457.131-1.139.724-1.604 1.133l-.662.472-.094.188c-.193.087-.253.12-.472.378-.5.594-1.527 1.986-1.605 2.927-.031.384.105.719.189 1.132.065.317.205.733.189 1.038-.031.595-.53 1.214-.755 1.889-.11.328-.188.688-.283 1.038-.349 1.263-.792 2.952-.85 4.438-.011.273.317.708-.095.944-.645.078-1.063-.069-1.038-.661-.315-.203-.975-.3-1.322-.188-.393.234-.395.862-.377 1.509.027.406-.444.311-.472.662-.495.48-.657 1.293-.943 1.983v.471c.344.32.267.646.188 1.039-.132.662-.127 1.446 0 2.172.094.53.462.956.755 1.415.337.529.593.928 1.039 1.134.307.141.666.218.944.377l.188.189c.27.202.621.294.661.661-.248.602-.502 1.198-.85 1.7.087.342.441.476.661.754.222.285.405.513.472.945.089.567-.021.643-.189 1.131-.091.267-.117.526-.189.756-.159.506-.351.981-.472 1.416-.318 1.144.272 3.453.566 4.438.157.524.297 1.139.472 1.322.312.325.617.678 1.133 1.036.53.373 1.181.746 1.793.851h1.417c1.014-.209 1.998-.517 2.548-1.228.127-.164.315-.621.378-.754l1.038-1.793c.157-.353.202-.586.284-.946l.188-.281c.529-2.097.47-4.226 1.511-5.947 2.711-.822 4.972-2.41 6.797-3.965l.188-.284.379-.188.472-.472.566-.474c.288-.26.528-.833 1.036-.755-.239.698-.366 1.457-.473 2.172-.124.843-.324 1.731-.188 2.549.072.438.436.809.473 1.228.027.307-.121.819-.188 1.229-.071.432-.098.895-.188 1.227-.188.684-.582 1.271-.66 1.982-.049.441.035.924 0 1.416.451.533 1.664.508 2.359.754l.659.379c1.134.463 2.298.848 3.306.943.987.096 2.549.143 2.645-.564.037-.287-.387-.65-.662-.85-.352-.258-.74-.314-1.037-.475-.211-.425-.809-.695-1.039-.943l-.094-.283c-.41-.428-.898-.729-1.133-1.322-.256-.643-.258-2.182 0-2.736.246-.537.596-.893.848-1.321.223-.375.426-.814.568-1.228 1.201-3.465 1.303-7.893 1.51-12.272.846-.099 1.668-.398 2.359-.754.662-.341 1.611-.958 1.889-1.511.207-.409.324-.962.566-1.51.203-.458.504-.875.754-1.322.246-.438.512-.872.756-1.322.197-.362.42-.736.566-1.038.217-.438.174-.889.379-1.322.176-.369.586-.69.942-1.039.752-.729 1.287-1.163 2.173-1.7.377-.229.879-.587 1.227-.661l.242-.718 2.881-.21.828-1.16 7.504-.211.152-1.039-.321-.057zm-50.279 16.609c-.208-.22.131-.425.283-.567.397.121.008.565-.283.567zm19.354-1.134c-.406-.605-.028-1.864 0-2.644v-.283h.188c.813.351 1.442.886 2.076 1.417-.583.677-1.552.966-2.264 1.51zm13.781-10.384c-.225.34-.875 1.026-1.32 1.321-.469.312-1.004.981-1.51 1.417-.344.295-.705.58-1.133.85l-.285.094c-.135.101-.285.239-.66.378-.324.121-1.397.496-1.793.473-.553-.034-2.156-1.079-2.268-1.7-.059-.343.182-.879.285-1.227.098-.331.182-.719.377-1.039.762-.07 1.23.153 1.982.095.021.703.014.137.096 2.077.92-.15 1.795-.343 2.643-.566.07-2.007.084-1.491.094-2.266 1.449-.501.926-.425 4.438-1.416.025.587-.643 1.055-.946 1.509zm8.486-4.79l.281-.721.352-.018.211.686-.844.053z"/></svg>