<svg xmlns="http://www.w3.org/2000/svg" width="100" height="100"><circle fill="#B2B2B2" cx="50" cy="50" r="50"/><path d="M40.515 44.996h.167c.123-.307.184-.479.184-.515v-.239h-.35v.754zM74.479 77.629c-.07-1.9-.297-7.396-.342-8.369-.045-.975-.463-11.205-.525-12.525-.064-1.32-.312-7.794-.398-9.484-.086-1.694-.479-10.913-.537-12.283-.059-1.371-.416-9.3-.479-10.61-.061-1.309-.066-2.191-.209-2.555-.143-.367-.543-.896-1.264-1.181-.723-.284-1.137-.22-3.09-.166-1.949.055-6.082.187-6.082.187l-4.189.142s-.621-.107-.939-.215c-.125-.633-.193-.997-.35-1.445-.154-.447-.287-.513-.67-.56-.381-.047-.979-.138-1.596-.763-.691-.703-.564-1.811-.852-2.335-.24-.433-.799-1.143-1.654-1.409-.85-.265-2.033.068-2.606.812-.571.742-.609 1.353-.654 1.894-.049.542-.307 1.125-.863 1.599-.553.477-1.032.515-1.255.55-.224.037-.615.255-.587.807l.066 1.261-.557.148s-5.326.068-7.553.141l-4.589.132c-.95.041-1.484.186-1.867.599-.382.411-.573.816-.591 1.69-.02.873-.149 4.573-.17 6.197-.022 1.627-.282 9.255-.354 12.242-.074 2.988-.271 9.312-.307 11.159-.035 1.842-.236 9.232-.294 11.152-.06 1.922-.229 9.209-.277 11.117-.049 1.908-.108 3.455.011 3.895.116.443.443 1.236 1.351 1.508.798.236 3.909.08 7.333.072s8.29 0 11.144-.004c2.856-.004 8.436 0 11.641-.012 3.207-.01 9.42-.035 11.014-.057 1.596-.023 1.803-.02 2.361-.459.559-.442.85-.972.779-2.872zm-23.787-62.242c.41-.017 1.059.413 1.189 1.095.123.641-.311 1.405-1.066 1.523-.756.12-1.514-.536-1.453-1.391.059-.857.895-1.211 1.33-1.227zm17.549 36.861c-1.006.86-1.516 1.289-1.527 1.289-.418.332-.668.498-.754.498l-.518-.02h-.516c-.404 0-.607.066-.607.203 0 .074.031.164.092.277l-.035.09c-.025.811-.35 1.48-.977 2.006-.576.48-1.227.721-1.951.721-.65 0-1.252-.223-1.805-.664-.625-.49-.957-1.109-.992-1.859l-.057-.055c-.012-.258.006-.467.057-.627 0-.062-.068-.092-.203-.092l-.221.037v.902l-.049.156-.043.156c-.051.32-.258.682-.627 1.088-.369.402-.719.648-1.051.734l-.146.057c-.666.072-.988.115-.971.125l.033.004-.033-.004c-.369-.002-.713-.062-1.035-.182-.418-.172-.725-.35-.92-.533-.271-.32-.443-.539-.518-.662-.184-.381-.293-.652-.33-.811l-.018-.295-.037-.055c-.014-.344 0-.553.037-.627l-.111-.092h-1.455l-.072.074.035.109c.012.074.004.223-.029.443l-.062.479c-.135.711-.496 1.277-1.086 1.693-.516.367-1.091.553-1.731.553-.821 0-1.528-.295-2.117-.885-.649-.65-.925-1.449-.83-2.393l-.036-.074h-.221l-.057.037v.938l-.054.076c-.049.33-.208.711-.479 1.141-.222.332-.595.619-1.122.865-.407.197-.823.295-1.253.295s-.839-.089-1.232-.274c-.243-.109-.441-.227-.589-.35-.404-.332-.667-.654-.79-.977l-.074-.238c-.148-.27-.209-.498-.185-.682l-.055-.055v-.754h-1.951c-.099 0-.272-.113-.526-.342l-.396-.359c-.379-.062-.662-.092-.846-.092-.111-.048-.166-.134-.166-.257 0-.159.118-.306.35-.441l.028-.369.027-.275-.027-.093-.028-.073c0-.27.006-.466.019-.59-.012-.392-.042-.638-.092-.735l-.129.46c-.111.049-.196.072-.257.072-.159 0-.337-.14-.534-.423.11-.122.177-.183.203-.183.038 0 .117.037.24.111v-.037c-.098-.258-.148-.405-.148-.443 0-.171.055-.275.166-.312.146-.048.228-.085.239-.111-.233-.11-.417-.147-.552-.11-.062-.049-.092-.184-.092-.405 0-.294.117-.436.351-.424v-.239c0-.025-.067-.277-.203-.755-.135-.479-.203-.729-.203-.754l.037-.203 7.75.019.166-.074c-.097-.246-.195-.369-.294-.369h-1.491c-.038 0-.11-.047-.221-.146h-.718c-.061 0-.098-.031-.111-.093l.055-.091v-1.84h1.399c.075-.123.154-.192.24-.204.614-.037 1.049-.056 1.308-.056l4.769-.128c.368 0 .552-.099.552-.294l-.019-.129v-.129c0-.121.08-.183.24-.183l.165.018.165.019.203-.046.203-.045c.061 0 .11.044.147.128-.074.099-.111.214-.111.35 0 .209.068.312.202.312.025 0 .078-.076.156-.23.082-.153.176-.229.287-.229.123 0 .209.049.256.147l.148.312.332-.072c.037-.013.188-.02.459-.02.332 0 .535.03.609.092.295.221.588.449.883.681l1.436-.497c.135.025.215.104.24.24l.074.367.238.02c.318.195.564.357.734.478.074.024.254.038.535.038h5.246l.148-.073.441-.038.119.055.141.056.312-.028.311-.028c.088 0 .162.03.223.093v.46c-.061.048-.146.074-.258.074l-.221-.038-.221-.037-.322.046-.322.045c-.16 0-.295-.018-.406-.055l-5.67.038c-.318.135-.562.264-.736.386l-.221.019-1.473-.037c-.098-.025-.178.073-.24.294l-.127.479c.244.036.766.055 1.564.055.209 0 .328-.033.357-.101.031-.068.178-.103.432-.103l2.709.038c.123.026.188.082.201.175.014.091.1.138.258.138.086 0 .145-.028.176-.083.031-.055.107-.084.23-.084l.615.038.619.037.32-.129c.229-.084.432-.129.617-.129.232 0 .479.056.738.167.461.186.693.292.699.322.043-.012.084-.052.127-.138.318 0 .559-.006.719-.019h.201c.111 0 .164.085.158.259-.008.17.045.257.156.257l.275-.257.057.036.055.038c-.037.11-.051.184-.037.22l.164.018h.129l.24-.037.203-.038c.061 0 .393.137.994.406.037.147.08.231.129.257.367.172.648.294.838.369.189.073.303.11.34.11l.129-.055v-1.141l.035-.055.039-.239.146-.075c.051 0 .105.055.166.166-.086.246-.02.43.201.553v.736c.197.209.301.313.314.313.049-.136.043-.24-.018-.313.061-.062.184-.091.367-.091.221 0 .348.03.387.091l-.055.257c.172.27.232.49.184.664.184.134.334.227.449.275.117.048.25.092.396.128.172-.356.289-.632.352-.829h.107c.309.149.463.251.463.312l-.018.055-.084.092-.055.121-.027.119v.092l.166.184c.121.221.184.369.184.442.004.149-.666.786-2.004 1.915zM39.743 44.278v.68c.074.024.166.038.275.038.137 0 .24-.02.314-.056v-.681c-.074-.037-.171-.055-.295-.055-.134 0-.233.025-.294.074zM22.287 46.053c.405-.065.432-1.021.318-2.489-.113-1.466-1.931-7.955-1.931-7.955l-.424-2.669-.58.092-.384-2.356s-.731-.629-2.004-.431c-1.273.205-1.774 1.03-1.774 1.03s5.177 33.935 6.546 37.323c.749 1.854 1.888 4.121 1.984 4.312.033-.213.417-2.719.557-4.715.142-2.027-1.515-13.396-3.015-23.095.159.497.452.993.707.953zm-.815-1.651c-.506-3.272-.99-6.316-1.374-8.703l.109-.018s1.821 6.489 1.936 7.956c0 0-.563.208-.664.701l-.007.064z"/></svg>