<svg xmlns="http://www.w3.org/2000/svg" width="100" height="100"><circle fill="#B2B2B2" cx="50" cy="50" r="50"/><path d="M69.12 23.843c.183-4.821-3.391-15.358-11.241-13.234-5.44 1.472-5.328 2.97-14.026 1.003-8.695-1.969-13.012 4.932-12.95 11.694 0 0-.713 7.502 4.786 14.125 1.551 1.865.631 4.098.316 6.306-.259.943-1.948 9.796-2.312 12.512-2.333 17.096 1.086 33.08 5.147 33.414 4.054.339 3.275-14.415 5.874-30.533 1.075-6.678 3.188-9.75 5.832-9.454 2.316.495 3.949 3.167 4.987 9.352 2.707 16.108 2.065 30.855 6.124 30.493 4.064-.367 7.113-15.115 4.94-32.22-.842-6.624-2.546-14.894-2.627-15.875-.211-1.788.109-2.825 1.156-4.626 3.282-5.633 3.84-8.831 3.994-12.957z"/></svg>