<svg xmlns="http://www.w3.org/2000/svg" width="100" height="100"><circle fill="#B2B2B2" cx="50" cy="50" r="50"/><path fill="#fc0" d="M50 12.287l-1.225 3.771h-3.974l3.212 2.332-1.226 3.783 3.213-2.331 3.212 2.332-1.226-3.783 3.2-2.332h-3.962l-1.224-3.772zm-16.382 4.39l-1.226 3.783h-3.973l3.212 2.332-1.225 3.771 3.2-2.333 3.212 2.333-1.226-3.771 3.212-2.332h-3.961l-1.225-3.783zm32.764 0l-1.225 3.783h-3.975l3.212 2.332-1.225 3.771 3.212-2.333 3.212 2.333-1.225-3.771 3.212-2.332h-3.973l-1.225-3.783zm-44.767 12.004l-1.226 3.771h-3.961l3.2 2.332-1.225 3.771 3.212-2.332 3.211 2.332-1.225-3.771 3.212-2.332h-3.973l-1.225-3.771zm56.76 0l-1.227 3.771h-3.962l3.199 2.32-1.225 3.783 3.214-2.332 3.212 2.332-1.227-3.771 3.212-2.332h-3.975l-1.221-3.771zm-61.15 16.381l-1.225 3.771h-3.962l3.201 2.333-1.226 3.771 3.224-2.331 3.201 2.331-1.226-3.771 3.212-2.333h-3.974l-1.225-3.771zm65.539 0l-1.225 3.771h-3.962l3.199 2.333-1.225 3.771 3.212-2.331 3.212 2.331-1.227-3.759 3.214-2.344h-3.975l-1.223-3.772zm-61.149 16.382l-1.226 3.771h-3.961l3.2 2.333-1.225 3.783 3.212-2.333 3.211 2.333-1.225-3.783 3.212-2.333h-3.973l-1.225-3.771zm56.76 0l-1.227 3.771h-3.962l3.199 2.333-1.225 3.783 3.214-2.333 3.212 2.333-1.227-3.783 3.212-2.333h-3.975l-1.221-3.771zm-44.757 11.993l-1.226 3.782h-3.973l3.212 2.332-1.225 3.771 3.212-2.331 3.2 2.331-1.226-3.771 3.212-2.332h-3.961l-1.225-3.782zm32.764 0l-1.225 3.782h-3.975l3.212 2.321-1.225 3.782 3.212-2.331 3.212 2.331-1.225-3.782 3.212-2.321h-3.973l-1.225-3.782zm-16.382 4.389l-1.225 3.783h-3.974l3.212 2.32-1.226 3.783 3.213-2.332 3.212 2.333-1.226-3.783 3.2-2.32h-3.962l-1.224-3.784z"/></svg>