<svg xmlns="http://www.w3.org/2000/svg" width="100" height="100"><circle fill="#B2B2B2" cx="50" cy="50" r="50"/><path d="M70.994 30.04s-2.373-2.482-3.163-3.237c-.794-.754-2.796-2.423-2.796-2.423l-7.525 6.592s-1.316.219-1.949.487c-.631.272-1.578 1.138-1.578 1.138l-.211.161s-1.058-4.211-1.373-5.072c-.318-.864-1.532-2.345-2.006-3.374-.476-1.024-.476-1.591-.476-1.591s.947.324 1.316-.002c.367-.322.156-.807.525-1.294.368-.486.576-.972.576-.972s.211-.055.316-.271c.104-.214.158-.702.158-.702s.631-.108.789-.433c.154-.323-.058-1.566-.058-1.566s.476-.486.634-.594c.156-.107.368-.917.366-1.403-.001-.256.043-.677.085-1.019l.202.158s.086-.433.126-1.075c.076-.196.115-.471.018-.826-.013-.546-.074-1.156-.234-1.754l1.51-.091c-.107.316-.311 1.07-.229 2.102l1.267.235s-.336-1.438.048-2.404l2.462-.149c-6.291-2.224-8.319-3.101-8.319-3.101-2.637.308-9.229.688-9.229.688l4.771 1.548c-.61.5-1.244 1.281-1.622 2.504l.207-.037c-.47 1.102-.753 2.297-.752 3.124.001 1.509.317 2.103.318 2.698l-.26 1.08-.58.486s-.579.704-1.053 1.189c-.475.486-3.001.974-3.528 1.137-.527.164-2.634.436-2.945 4.755-.311 4.316.273 7.931.695 9.444.426 1.51.954 3.453 1.639 4.099l.685.648s.219 6.044.115 8.581c-.102 2.536-.57 6.695-.57 6.695l.121.035-.634 20.597 3.488.774v.018c.057 3.131.536 8.419.484 9.285-.051.861-.786 2.537-.681 2.75.104.218 1.265.92 1.687 1.078.422.162 1.001.162 1.792.592.789.43 2.265 1.35 4.32 1.292 2.054-.056 3.846-.653 4-.976.16-.326-.422-1.188-.422-1.674 0 0-.42-.218-1-.484-.58-.271-1.478-.863-2.269-1.344-.792-.488-.792-.92-.792-.92s.264.271 1.318.271c1.055-.002 2.211-.652 3.214-.544.999.102 3.003.748 5.058.099 2.053-.647 2.631-1.297 2.524-1.674-.104-.38-.476-.921-.736-.919-.265 0-1.583-.266-2.267-.211-.686.055-1.688-.537-1.688-.537s-.685-.973-.422-1.893c.263-.916.521-6.64.519-7.717-.002-1.08-.065-10.365-.438-13.226-.372-2.86-.64-5.075-.64-5.075l.209-.432s-1.321-6.907-1.321-7.499c-.001-.545-.315-5.596-.369-6.416.3-.063.687-.116 1.147-.117 1.16-.001 2.058.483 2.058.483l1.09-1.014 2.757-.34-.056-1.51.896-.108.104-.487s.63-.483.944-.593c.316-.108.845-.325.845-.541v-.217s.313-.268.367-.484c.052-.218-.054-.433-.054-.433s.633-.325.633-.541c0-.217.053-.431.053-.431l.268-.442 5.521-4.634zm-21.115 53.567c-.051 1.188-.419 2.699-.419 2.699l-.578-.328s.315-1.349.418-2.479c.103-1.136.1-3.671.1-3.671s.531 2.59.479 3.779z"/></svg>