<svg xmlns="http://www.w3.org/2000/svg" width="100" height="100"><circle fill="#B2B2B2" cx="50" cy="50" r="50"/><path fill="#13110C" d="M47.541 35.778c-11.648-3.067-20.083 0-20.083 0 3.986 16.863-6.131 50.894-6.131 50.894 17.172 2.758 32.346 0 32.346 0s-10.118-34.032-6.132-50.894z"/><path d="M73.599 13.266c-4.547 4.546-8.525 9.738-9.152 10.598-.503.693-1.526 1.854-1.905 2.28-.103-.065-.941-.572-1.712-.169-.481.253-.845.655-1.042 1.11-.943-.422-3.489-1.542-4.375-1.716-1.094-.215-11.594-1.095-11.908-1.095-.312 0-.41.235.069.382.479.146 6.462 1.437 7.401 1.573.938.137 5.279 1.017 6.531 1.174.701.088 1.53.206 2.126.293-.013.13-.013.259.005.39.085.591.661 1.115 1.127 1.388l-2.137 57.776h3.383l-.202-57.566c.129-.014.248-.042.358-.08.082.925.381 3.779 1.03 5.483.781 2.053 2.895 6.003 3.305 7.019s1.543 3.52 1.623 3.597c.078.079.255.215.078-.449-.177-.666-1.486-5.201-1.996-6.57l-2.286-6.493c-.28-.723-.873-1.874-1.125-2.965.54-.508.733-1.288.733-1.629 0-.28-.238-.635-.479-.924.818-.679 2.784-2.318 3.177-2.712.497-.497 2.659-3.03 3.363-4.34.704-1.311 4.146-5.984 4.303-6.14.156-.156.147-.654-.293-.215z"/></svg>