<svg xmlns="http://www.w3.org/2000/svg" width="100" height="100"><circle fill="#B2B2B2" cx="50" cy="50" r="50"/><path fill-rule="evenodd" clip-rule="evenodd" fill="#231F20" d="M32.884 9.389c.029.074-.073.122-.111.168-.731-.002-1.459.057-2.189.111-.161.19-.373.401-.234.661-.697.108-1.522.263-1.802 1.006-.091.247.191.344-.462.789-.487.332-.483.577-.324 1.142.173.611.444 1.104.267 1.742-.147.546.144.978.375 1.446-.16.192-.121.424-.078.651.03.159.059.098.189.239.267.305-.234.678-.356 1.032-.326.002-.607-.235-.939-.155-.435.781-.472 1.687-.545 1.815l-3.581 3.285c-.434.402-1.758 1.662-2.056 2.147-.646 1.034-.49 2.323-.481 3.48.013 1.232.331 2.423.465 3.643.122 1.119.493 3.145.704 4.302.058.293.298 1.656.357 1.836.149.431.752.84 1.129 1.061.743 3.428.962 7.21 1.883 10.496.584.32 1.385.371 1.852.757l.047.044.101 1.53c.172 2.06.491 4.128 1.174 6.09.123.361.079.276.086.697.072 2.998-.056 6.01.193 9.002.083.954.132 1.926.027 2.884-.031.288.032.223.055.557.014.429-.062.791.028 1.228.245 1.273-.018 3.788.183 4.339.211.578.892 1.133.491 1.785-.21.348-.744.984-.385 1.395.195.224.292.521.541.691-.525.626-.439.517.09 1.33-.192.62-.521 1.321-.177 1.955.168.313 1.182.178 1.329.248l.341.21c.752.41 1.604.63 2.343 1.079.208.131.208.143.486.169.673.056 1.34-.089 1.977-.272.254-.077.333-.04.39-.268l-.117-1.243c.034-.111-.065-.262-.109-.365-.324-.718-.956-1.3-1.455-1.885l.418-.529c-.106-.367-.229-.717-.444-1.032.247-.307.622-.65.451-1.084-.156-.386-.096-.376-.379-.821-.196-.323-.44-.62-.669-.923.546-3.463.632-6.983.844-10.48.1-1.688.166-1.775-.08-3.489-.059-.368-.086-.289.011-.635.316-1.264.667-2.519.867-3.81.147.348.104.303.139.693.212 2.098.505 4.266 1.513 6.154l.106.189-.052 2.238c-.017 2.143.02 4.328.517 6.42.065.31.077.197-.028.486-.85 2.229-.355 4.666-.188 6.972.038.547-.052.522.377.729.384.179.089.368.362.872.308.565 1.213.315 1.723.464.51.146 1.07.297 1.489-.136 1.58.201 3.154.664 4.761.568.379-.024.328.116 1.171.003.347.346.712.774 1.228.846.192.022.142-.069.385-.112.461-.079.884.376 1.293-.152.412-.526.991-.938.978-1.661l-.027-1.633c.141-.089.29-.119.452-.12-.154-3.464-.695-6.951-.291-10.421.059-.515.035-.375.006-.926-.243-3.901-.211-7.701-.01-11.604.074-1.473.125-2.946.082-4.425.288.248.19.161.33.468.657 1.422 1.845 2.613 1.567 4.298l-.028.426c.021 1.187-.033 2.398.202 3.572l.105.642c.115.686.611 2.155.496 2.843-.036.191-.142.468-.195.862-.301 1.972.304 3.924.411 5.886.028.658.167 1.455.23 2.135.181 1.828.258 3.706-.117 5.52-.045.228-.071.189.007.411.158.464.164.441.591.435-.104 1.037-.249 2.103-.029 3.136.704.311 1.438.487 2.193.587.565.077.395.033.723-.292.08-.078.155-.052.262-.047 1.033.028 2.011.481 3.042.567.938.075 2.194.211 3.136.072.574-.089.605-.345.611-.776.005-.189-.041-.402-.272-.398-.188.004-1.852-.513-2.188-.652-.8-.334-1.512-.804-2.027-1.515-.195.016-.276.073-.387.218-.216-.161-.421-.313-.528-.558.346-.134.752-.075.951-.457.052-.112-.14-1.351.011-2.068.166-.766-.207-2.236.152-3.439l-.115-.146.258-9.151c.071-4.219-.004-7.681-.394-11.888.395-.355.853-.213 1.288-.036.225.093.203.075.463.085.644.021 1.296.028 1.944-.075.168.263.401.039.592.167.104.069.182.224.57.378.842.323.871.203 1.599-.235l.529.406c.021 1.303.55 2.558.395 3.867-.036.235.019.241.035.472.061 1.021-.76 1.673-.489 2.787.089.357.013.282.184.712.147.37.254.613-.023.939.446 1.667.267 3.417.408 5.117.037.49.078.224-.171.632-.912 1.511-.357 3.418-1.145 4.972-.527 1.036-.724 2.207-.555 3.362.036.256.043.236-.021.479-.306 1.208-1.059 2.694-.18 3.845.12.157.104.126.129.313.129.889-.125 2.197.911 2.633.615.26.996.335 1.668.354.266.006.298.002.526-.102.938-.413.279-1.364.266-2.234.865-.451.657-1.417.932-2.21l.382-1.804c.132-.589.395-1.654.453-2.212l.142-2.346.248-.263c1.088-1.344.105-3.467.886-4.965l.086-.15c.366 1.261.071 2.565-.331 3.779-.101.304-.087.304-.057.616.089.85.38 1.74.132 2.586-.063.206-.049.643-.074.889-.115 1.131-.459 2.462-.244 3.597.112.598-.058 1.428.559 1.802.083.055.119.13.182.217-.142.447-.653 1.503-.146 1.89.194.146.622.226.704.296.09.069.282.673 1.351.875.448.075.903.081 1.354.073.284-.004.195-.017.432-.11.377-.158.658-.331.576-.801-.105-.517-.699-.803-.588-1.389.032-.167.201-.224.268-.346.044-.107.201-1.306.22-1.503.15-1.404.185-2.805.139-4.219-.018-.622-.026-.252.217-.827.618-1.46.137-3.139.601-4.649l.39-1.364c.367-1.153.791-2.315.714-3.542-.046-.795-.147-2.054.034-2.83.077-.282.194-.53.346-.771-.182-.085.072-.177.038-.272l-.43-.441 1.049-4.558c.768-.419.644-.565.519-1.43.616-.156.529-.073.517-.817.479-.209 1.114-.478 1.122-1.088.011-1.002-.454-1.661-.658-2.605-.327-1.473-1.467-2.345-2.233-3.575-.098-.162-.122-.154-.267-.265-.978-.757-1.46-1.899-2.595-2.52-.098-.872-.554-.566-.923-.762l-.107-.094c.346-.358.087-1.149.779-1.16.079-.158.165-.308.142-.493.755-.25.273-1.027.942-1.375-.163-.413.111-.582.135-.841.033-.373-.458-1.352-.465-2.111l-.073-.343c.243-.111.252-.427.094-.566-.173-.153-.212-.142-.146-.434.073-.311.066-.289-.189-.512-1.11-.955-2.624-1.074-4.013-1.094-.369-.004-.415.007-.663.243-.168-.105-.584-.087-.636-.011-.166.269.22.571-.287.659-.407.07-.792 1.028-.467 1.349-.396.355-.365.894-.247 1.375-.369.253-.325.526-.251.937l.056.309c.04.081.156.106.072.321-.07.232-.03.32.009.568.099.517.273 1.047.747 1.337.03.561.176 1.138.63 1.517.117.093.125.086.106.253-.037.331-.517.311-.825.568-.676.562-1.667.561-2.493.599-.707.993-1.45 1.966-2.094 3.007-.197.319-.071.162-.464.334-.327.137-.448.295-.586.614-.089.218 0 .415-.238.557-.383-.14-.493.232-.639.505l-.083.329c-.164.602-1.201.354-1.67.567l-.162.026c.019-.758.279-1.509.068-2.259.109-.027.453-.055.519-.141.102-.119.274-.849.303-1.031.179-1.004.129-2.033.282-3.04.377-2.56.385-5.304.412-7.897.036-3.334-.97-6.368-.92-9.563.003-.419.008-.59-.155-.979-.436-1.039-1.675-1.672-2.613-2.14-.302-.144-.243-.094-.53-.125-1.435-.144-2.426-1.461-3.737-1.937-.175-.061-.225-.103-.315-.264-.147-.275-.146-.652-.17-.954-.027-.369.46-.352.619-.603.283-.432.188-.806.653-1.022.058-.371.037-.765-.188-1.069.737-.3.511-.932.703-1.517.129-.394-.029-.845.256-1.187.05-.061.049-.114.048-.192-.021-.349-.315-.592-.55-.805.215-.948-.382-1.567-.961-2.246-.282-.336-.215-.302-.641-.507-.307-.147-.675-.219-.991-.037-.568-.498-.98-.274-1.684-.306-.602-.025-1.152.162-1.552.612-.225-.021-.319.119-.391.316-.036.128.087.25-.093.346-.214.124-.406.166-.673.354-.364.258-.663.602-1.073.796-.133.069-.154.082-.234.224-.327.613.199 1.311-.042 1.936-.236.568-.595.993-.279 1.617.24.497.923.833.82 1.474-.1.651.739.829.918 1.369.12.364.735.213.742.637l.008.486c-.833.498-.807 1.189-1.318 1.897-1.84-.125-3.442.473-4.85 1.648l-.395-.47c1.11-1.279 1.987-2.586 2.019-4.333.789-.625 1.385-1.44 1.129-2.483-.224-.863-1.157-1.415-1.801-1.919l-.798.18-.429-.554c.089-.672-.304-1.23-.861-1.571.037-.605.34-.301.444-.296l.188-.003.086-.116c-.166-.547-.634-.979-.92-1.479.068.045.193-.078.251-.107-.261-.439-.691-.695-1.11-.951-.258-.158-.498-.226-.772-.339.055-.157.185-.387.026-.529-.068-.067-.238-.018-.327-.016-.724.012-1.446-.082-1.999.48-.327-.015-.727-.002-.978.248-.19.184.081.438-.876.874-.342.158-.706.332-.848.716-.092.265.247.16.368.18.059.304-.368.709-.058.956.227.181.058 1.596.417 2.248.427-.33.331.247.508.478l.359.655c-.423.387-.807.741-1.098 1.232-1.071-.348-1.264-.014-1.554.903l-.107-.027.108.102c-.249-.053-.479-.23-.562-.474.777-.016.203-.831.377-1.259.056-.143-.055-.135.155-.5.1-.189.091-.275-.015-.454.104-.026.333-.066.346-.212.004-.131-.178-.366.327-.56.734-.289.596-.439.208-1.309-.31-.688-.117-.84-.028-1.672.07-.769.063-1.553-.092-2.314.112-.105.443-.288.426-.461l-.188-.565c.591-.17.566-1.224.044-1.403-.271-.095-.417-.224-.855-.174-.429.054-.132.222-.781-.41-.477-.468-.534.147-1.103-.088-.486-.206-.828-.712-1.211-.045"/></svg>