<svg xmlns="http://www.w3.org/2000/svg" width="100" height="100"><circle fill="#B2B2B2" cx="50" cy="50" r="50"/><path fill-rule="evenodd" clip-rule="evenodd" d="M62.735 25.791c-.042-.375-.581-1.784-.581-2.407 0-.622-.872-1.744-.996-2.034-.125-.291-.582-.623-1.08-1.204l-1.327-.955s.124-.208.206-.415c.084-.208 0-1.122 0-1.122s.25-.166.334-.331c.081-.167-.334-.956-.334-.956s.955-.125.79-1.66c-.083-.76-2.006-1.425-2.006-1.425s.332-.167.276-.442c-.056-.277.151-1.246-.111-2.602-.263-1.354-1.052-2.101-1.825-2.489-.775-.388-1.716-.775-2.435-.83-.72-.056-1.993-.304-3.487.388-.746.359-.996 1.604-1.218 1.881-.221.276-.608 1.05-.608 1.05l-.332.112c-.331.11-.721.221-.996.387-.277.166-.997.333-1.329.333-.331 0-.498.221-.277.387.221.167.277.332.996 1.273.72.94 1.495 1.383 1.495 1.383s-.166.222.111.443h.498v.664c0 .332.111.511.332.733.221.222 0 .595 0 .595s-.415.319-.277.498c.429.559.277.774.498 1.106.222.332.886.388.886.388s-3.223 3.347-4.094 4.759c-.278.45-.522 1.84-.664 2.792l-2.556-.188-5.033-1.398h-2.796l-1.258.839c-1.168 0-2.324 1.166-2.677 1.958l-.225-.017-.393-.157-.34-.052c-.105-.039-.39-.288-.548-.156-.176.144.109.795.209.992.327.649.665 1.138 1.045 1.619.165.212.458.508.522.811.033.156.033.82-.104.861l-.105-.13c-.337-.247-.78.112-.862.365-.194.599.456 1.153.523 1.646.04.295-.081.665-.131.993-.109.728-.207 1.201-.339 1.907-.035.186-.078.85-.21.915-.02.012-.19-.087-.313-.079l-.392.105-.078.261c-.113.149-.664.476-.81.549-.387.195-.527.214-.365.653.145.398.404.762.653 1.15.233.362.568.757.653 1.149.088.405.031.874.078 1.306.11 1.013.217 1.888.366 2.821.286 1.795 1.077 3.383 1.201 5.094.034.471.167 1.564.706 1.464.195-.036.304-.479.392-.602.101-.139.24-.306.418-.496.292-.311.595-.669.574-.026-.012.424-.194.712-.182.94.011.222.315.695.575.654.259-.043.387-.736.522-1.072.145-.36.365-.748.497-1.098.169-.449.243-.862.366-1.33.162-.626.281-1.138.549-1.648.127-.243.3-.663.391-.73.112-.085.313-.08.444-.131.265-.104 1.058-.458 1.045-.733-.009-.2-.519-.423-.706-.469-.097-.023-.306-.006-.34-.053-.064-.086.104-.564.132-.757.167-1.199.116-2.281-.028-3.37-.084-.653-.385-1.237-.469-1.751-.081-.488.373-.736.627-1.149.052-.083.391-.915.261-1.044-.052-.052-.57-.008-.731.026-.162.033-.389.246-.522.183-.09-.043-.298-1.085-.34-1.49-.033-.32-.052-.623.103-.685l.004-.054c-.031-.228.315-.522.416-.854.055-.181.168-.576.104-.732-.022-.056-.168-.095-.262-.155-.49-.318-.803-.55-1.202-.889-.122-.105-.328-.401-.47-.367-.128.033-.107.319-.183.393-.216-.35-.359-.934-.157-1.411.105-.249.553-.476.73-.628.335-.285.631-.657.968-.992.073-.073.506-.508.667-.841l.394-.144 3.079 2.09 2.517 1.398 1.818.101.041.143c.125.415.041.373.083 1.12.043.746.498.954.624.954.124 0 .207-.373.332-.457.124-.082.912-.165 1.037-.165.125 0 0 .289-.042.456-.042.166-.456-.042-.498.332-.042.373.414.54.291.664-.124.124-.249 1.121-.249 1.121-.339 1.192.042 3.901.042 3.901s.083.912.331 1.619c.25.705 1.329 2.281 1.329 2.281s-1.037.956-1.204 1.288c-.167.332-.251.063-.251.063l-.187 1.025s.437 1.318.188 1.568c-.25.248-.083.663.249.788.332.124-.496.332-.414.664.083.331.374.788.624 1.12.248.332.996.207.996.207s-.166 2.988 0 4.192c.166 1.203.997 4.773 1.285 5.893.292 1.121 1.163 5.022 1.371 5.146.208.126.457.54.457.706 0 .167.583 1.37 1.08 1.91.496.539.414.788.332 1.203-.084.416-.166 1.618-.084 2.199.084.582.416 2.324.416 2.324s-1.122 1.785-1.039 3.114c.06.952.955.954 1.162 1.037.208.082-.746 1.161-.746 1.161s-.499 0-.789-.042c-.291-.04-.373.209-.373.375s-.333.124-.664.207c-.333.083-.582.456-.582.456s-.292 0-.582.166-1.659.041-1.784.041-1.162 0-1.411.914c-.249.913.456 1.494 1.369 2.074.913.582 3.569.54 4.067.415.498-.124 1.577-.166 1.577-.166l.084.623s-.831.664-1.246 1.37c-.415.705-1.618 1.078-2.242 1.37-.623.289-.747.954-.829 1.078s-.374.788.622 1.328c.997.539 4.027.788 5.23.665 1.204-.126 2.781-1.495 3.402-1.661.623-.166.623-.126 1.827-.747 1.203-.623.581-1.453.415-1.867-.166-.416-.458-2.324-.458-2.324s.126-.539.166-.871c.042-.334-.454-.915-.58-1.453-.124-.54.291-.623.54-1.037.249-.415.04-1.287 0-1.868-.042-.582.207-2.241.29-3.279.084-1.036-.124-4.482-.166-5.271-.042-.789.208-1.951.291-2.863.083-.914-.498-3.527-.748-4.772-.248-1.246-.124-1.785.125-2.325.248-.538-.041-1.743.166-2.365.208-.622.291-2.822.291-2.822s.166-.166.29-.374c.124-.207.124-.498 0-.787-.124-.291.208-.375.208-.582 0-.208.166-.456.207-1.204.041-.746-.124-1.617-.124-1.617s.165-.332.248-.622c.083-.292.083-2.408.126-2.906.04-.498-.084-1.37.082-1.37.167 0 .125-.497.125-.497s.165-.084.208-.499c.04-.415.04-2.034.04-2.366 0-.331-.539-1.369-.539-1.369s.249-.415.373-.748c.126-.332.374-1.286.374-1.66 0-.374.042-.954.249-1.328l-.166-.623s.208-.414.373-.706c.166-.291.084-1.661.084-2.117 0-.457.041-2.656.248-3.029.208-.373.498-1.826.955-2.697.457-.867.248-1.117.208-1.49z"/></svg>