<svg xmlns="http://www.w3.org/2000/svg" width="100" height="100"><circle fill="#B2B2B2" cx="50" cy="50" r="50"/><path d="M96.845 44.261l-.033-.649-13.401.388-17.769.684c-.138-.967-1.648-.871-1.648-.871-.506-.595-1.055-.191-1.055-.191-.649.498-.73-1.021-.73-1.021l-1.799-9.994c-.276-1.77-1.099-2.979-1.099-2.979l-2.141.182 1.256 1.061 1.588 12.599-1.825.248.021.5-18.086 1.172-13.396.201.034.651 13.401-.39 17.457-.672.335.095c.233.85 1.622.764 1.622.764.15.175.305.264.446.3l.032 1.881-3.61.186c-.016-.526-.173-.652-.173-.652l-1.062.062c-.979-.089-.668 1.021-.668 1.021l-1.703.066-.021-.931c.429.031.037-.34.037-.34l-1.273.094c-.411.027.041.368.041.368l-.062 1.028-.823.093c-.508 0-.551.744-.551.744l-2.215.03v.777l-.488.245-.393-1.429-.766.283.236 1.426c-.099.869-4.471 2.173-4.471 2.173l-11.65 1.863-3.585.373-6.983-11.735c-.233-.343-.077-.59-.077-.59.47-.214.351-1.36.351-1.36l5.218 2.731.431-2.643-6.748-2.205c-.586-.156-.412-1.206-.412-1.206l1.925-8.259-1.592-.652-1.118 8.071c-.019.9-1.585 1.338-1.585 1.338l-.042-.498-5.787-2.887-.506 2.486 1.587.743 4.217 1.081-1.159.251c-.646 0-.079.868-.079.868l1.925 3.974-1.511 5.498 1.173.462.843-5.026.452.867c.374.718-.041 1.086-.041 1.086-.488.468-.194.989-.194.989l.392 1.433-.41.122 1.707 3.851-.295.155-.276 2.425 2.744.213-.469.686c-.569.685.137 1.271.137 1.271l9.161 2.92.644 1.895.16.089.019.502-.412.553-.06-.401-.49.185.159 1.122-.217.307c-.823-.37-1.333.528-1.333.528-.411 2.236.863 2.109.863 2.109 1.079-.152.59-2.264.59-2.264l2.686-3.848c1.194-.527 6.275.371 6.275.371l.312 1.146.355-1.211 3.273.47.076 1.458.629-.03.1-1.335 4.413.403 4.845.773 5.449.188 6.587.278.042.688c-.51.088-.765 1.049-.765 1.049-.645 3.139 1.154 3.17 1.154 3.17 1.608.277 1.257-2.826 1.257-2.826l.512-.591.156.026c-.116.316.157 1.374.157 1.374.704 1.705 1.899.863 1.899.863 1.178-.928.689-3.162.689-3.162l.804-.065.04 1.124.291.058v-1.053l.179-.036.019.994.297-.061.018-.993.214.032.02-.499 2.219.126.041.713.645-.714.099-.341 2.664-.345c.805 1.706 1.925 1.46 1.925 1.46.901.159.824-1.796.824-1.796-.218-.591.154-1.834.154-1.834.142-1.023-.644-2.578-.644-2.578l.294-.155c.33-.431-.181-.838-.181-.838l-1.173-.061c-.923-.157-2.768-3.754-2.768-3.754-1.117-2.611-2.861-2.177-2.861-2.177-.728-.218-.608-1.27-.608-1.27 1.607 0-.138-.222-.138-.222l-.413.439c-1.154-1.056-5.116-2.453-5.116-2.453-.451-.124-.197-.373-.197-.373 1.53-1.616.215-.745.215-.745-1.216 1.241-2.039.434-2.039.434l-.896-.865-.084-.667.037-1.168 1.645-.223-.021-.501 18.087-1.172 13.395-.199zm-31.535.388l-1.255-.248-.019-.312c0 .001 1.728.031 1.274.56zm-6.842-.464v-.185l1.351-.095.061.28h-.386l-.192-.038-.596.038h-.238zm-.275 1.158l1.341.38.002.039c0 .001-1.4-.026-1.343-.419zm2.078 2.784l.014-1.768c.206-.025.349-.128.349-.128.111-.086.205-.109.285-.093l.035 2.083-.683-.094zm.821.094l.073-1.852c.168.329.197.882.197.882l.024.134v.836h-.294zm5.121 18.627c-.136-.534-.963-.81-.963-.81l-.02-.499h1.079l.119.62c.256.965-.215.689-.215.689zm-1.109-21.181v.185l-.962.068.128-.214.588-.038h.246z"/></svg>