<svg xmlns="http://www.w3.org/2000/svg" width="100" height="100"><circle fill="#B2B2B2" cx="50" cy="50" r="50"/><path d="M40.542 39.463l-11.72-6.875c.911-1.554 3.969-6.767 4.702-8.093 3.365-6.08 5.727-6.783 7.208-6.783h.957c3.954 0 5.72 2.974 7.812 6.491l-8.959 15.26zm26.072-1.244h-15.115l5.556-3.208-6.95-11.846-.007.009c-1.333-2.251-2.572-4.285-4.483-5.46 5.834.006 13.218.096 13.582.086 2.365-.08 4.58 1.865 5.723 3.831.711 1.219 3.76 6.653 3.76 6.653l5.393-3.043-7.459 12.978zM46.303 62.617l-.087 13.591c-1.805-.014-7.847-.057-9.366-.028-6.946.125-8.735-1.565-9.475-2.849l-.479-.829c-1.979-3.426-.285-6.444 1.717-10.009l17.69.124zm-14.109-21.957l7.554 13.092-5.552-3.208-6.783 11.939h.008c-1.279 2.283-2.422 4.372-2.484 6.614-2.913-5.053-6.524-11.489-6.718-11.801-1.253-2.014-.672-4.899.456-6.876.703-1.227 3.885-6.58 3.885-6.58l-5.335-3.148 14.969-.032zM63.484 46.14l11.812-6.716c.893 1.568 3.878 6.821 4.656 8.123 3.582 5.955 3.012 8.351 2.275 9.631l-.482.833c-1.979 3.421-5.439 3.466-9.525 3.515l-8.736-15.386zm-11.963 23.203l7.558-13.094v6.417l13.733-.098-.005-.006c2.617-.032 4.999-.088 6.97-1.152-2.921 5.043-6.688 11.394-6.862 11.716-1.118 2.092-3.904 3.03-6.18 3.042-1.416.008-7.641-.072-7.641-.072l-.061 6.192-7.512-12.945z"/></svg>