<svg xmlns="http://www.w3.org/2000/svg" width="100" height="100"><circle fill="#B2B2B2" cx="50" cy="50" r="50"/><path d="M71.941 87.182c0-8.469.1-16.958-.034-25.418-.097.129-.064.018-.108-.161.001.121-.049.061-.101.109.012.16-.088.161-.073 0-.054-.048-.102.011-.101-.109 0 .12-.048.062-.102.109.011.16-.087.161-.073 0-.054-.048-.102.012-.101-.109 0 .12-.049.062-.102.109.014.161-.087.161-.073 0-.052-.049-.101.011-.103-.109.001.12-.047.062-.1.109.017.161-.09.161-.072 0-.055-.049-.103.012-.103-.109 0 .12-.047.062-.102.109.015.161-.085.16-.074 0-.051-.048-.099.009-.1-.109.002.121-.047.062-.101.109.029.338.057-1.229.074-1.375-.282-.319-.42-.66-.42-1.041.037-.179.029-.244-.055-.387-.028-.211-.023-.789-.021-.809-.007.014.044-.165-.015-.096l-.013-.092-.014.092c-.023-.045-.033.062-.013.096.018.222-.15.075-.022.809-.084.144-.093.21-.057.387.003.376-.135.722-.418 1.041.018.146.044 1.721.074 1.375-.053-.049-.102.012-.102-.109.001.122-.047.061-.103.109.021.164-.083.158-.072 0-.053-.049-.101.012-.101-.109.002.121-.048.062-.101.109.014.161-.088.161-.074 0-.052-.049-.101.011-.101-.109 0 .122-.048.061-.102.109.017.163-.085.159-.073 0-.053-.049-.102.011-.102-.109.003.121-.047.062-.1.109.015.161-.087.161-.072 0-.054-.049-.103.012-.102-.109 0 .121-.05.06-.101.109.012.16-.088.162-.074 0-.055-.048-.104.013-.101-.109.001.121-.05.061-.101.109.011.159-.091.163-.074 0-.053-.048-.102.011-.102-.109 0 .121-.049.061-.101.109.017.162-.086.16-.074 0-.052-.048-.101.011-.1-.109 0 .121-.047.062-.104.109.021.164-.083.158-.072 0-.051-.049-.101.012-.101-.109.003.121-.047.062-.101.109.018.162-.085.16-.074 0-.05-.049-.099.011-.1-.109.003.123-.048.061-.102.109.017.164-.079.157-.074 0-.051-.049-.102.012-.1-.109 0 .12-.048.062-.101.109.014.161-.085.16-.073 0-.055-.048-.104.012-.101-.109-.002.119-.05.062-.102.109.024.346.057-1.233.073-1.375-.244-.246-.369-.531-.357-.821l-.003-.055c-.143-.002-.141-.075-.06-.165.037-.178.03-.243-.054-.387-.029-.22-.026-.788-.023-.809.042-.065-.006-.115-.013-.096l-.013-.092-.015.092-.014.096c.018.223-.149.074-.022.809-.083.145-.091.208-.055.387.001.379-.137.722-.419 1.041.018.144.045 1.717.074 1.375-.054-.049-.102.012-.102-.109 0 .119-.048.062-.101.109.012.159-.091.162-.074 0-.052-.048-.102.012-.1-.109 0 .12-.049.061-.102.109.015.161-.088.16-.074 0-.052-.049-.1.011-.101-.109.002.12-.049.062-.1.109.011.161-.086.16-.075 0-.053-.048-.103.012-.1-.109-.002.118-.049.062-.1.109.008.158-.09.163-.075 0-.055-.048-.102.011-.101-.109 0 .121-.048.061-.102.109.015.16-.09.162-.072 0-.055-.049-.102.012-.102-.109 0 .12-.046.062-.102.109.015.163-.085.159-.074 0-.051-.048-.1.011-.099-.109 0 .121-.049.061-.103.109.014.161-.086.16-.072 0-.053-.049-.103.012-.102-.109 0 .12-.048.062-.101.109.011.161-.084.16-.075 0-.049-.048-.101.011-.1-.109.002.121-.048.062-.101.109.009.159-.088.162-.073 0-.054-.048-.102.011-.102-.109 0 .12-.05.062-.101.109.015.161-.087.161-.073 0-.054-.048-.102.012-.101-.109 0 .12-.049.061-.101.109.011.159-.088.162-.074 0-.053-.048-.103.012-.102-.109 0 .121-.047.061-.101.109-.05-.567-.032-1.562-.286-2.251-.144-.002-.143-.075-.059-.165-.081-.125-.04-.21.042-.272-.098.023-.13-.015-.098-.114-.029-.219-.022-.79-.021-.809-.001.002.04-.161-.016-.096l-.012-.092-.013.092c-.042-.062-.019.089-.015.096.025.21-.148.083-.022.809.032.099.002.139-.098.114.082.062.122.146.043.272.082.091.084.164-.059.165.021.327-.101.619-.362.876.018.147.046 1.716.075 1.375-.053-.048-.104.013-.101-.109 0 .121-.05.061-.101.109.011.16-.089.161-.074 0-.054-.048-.102.011-.102-.109 0 .12-.049.062-.101.109.015.161-.09.162-.072 0-.055-.048-.103.012-.102-.109 0 .12-.048.062-.102.109.015.162-.085.16-.074 0-.052-.048-.1.01-.1-.109 0 .12-.05.061-.102.109.014.162-.087.16-.073 0-.052-.049-.103.013-.102-.109.001.12-.049.062-.1.109.014.161-.089.161-.074 0-.052-.048-.101.01-.102-.109.002.122-.048.061-.102.109.015.163-.082.158-.074 0-.05-.048-.099.01-.1-.109.003.122-.047.062-.101.109.015.161-.084.161-.073 0-.052-.048-.102.012-.1-.109.001.122-.05.061-.102.109.011.16-.085.161-.074 0-.052-.049-.102.012-.102-.109.002.12-.049.062-.099.109.008.158-.092.163-.074 0-.054-.048-.102.011-.102-.109 0 .12-.047.062-.102.109.018.16-.089.162-.071 0-.055-.048-.104.012-.102-.109 0 .122-.047.061-.103.109.018.162-.084.159-.073 0-.052-.049-.1.011-.101-.109.001.12-.048.062-.101.109-.036-.419-.002-1.391-.231-1.974-.078-.115-.121-.283-.113-.442.036-.178.028-.242-.056-.387-.028-.22-.028-.783-.023-.809 0 0 .04-.159-.014-.096l-.013-.092-.012.092c-.057-.067-.011.104-.016.096.019.222-.147.075-.021.809.032.1 0 .138-.098.114.083.063.122.148.042.272-.293.752-.287 1.758-.345 2.416-.053-.048-.101.011-.101-.109 0 .12-.049.061-.101.109.011.16-.088.162-.074 0-.053-.048-.102.011-.102-.109.002.121-.048.062-.1.109.011.16-.094.162-.073 0-.055-.049-.103.012-.103-.109.001.12-.046.062-.101.109.015.161-.088.161-.074 0-.051-.049-.1.012-.1-.109.001.121-.048.061-.101.109.011.161-.085.16-.074 0-.052-.049-.101.012-.1-.109 0 .121-.048.062-.103.109.017.163-.085.159-.074 0-.049-.049-.101.011-.101-.109.002.12-.048.062-.099.109.011.159-.087.162-.075 0-.052-.049-.102.012-.102-.109.001.12-.048.062-.1.109.012.16-.088.162-.074 0-.054-.049-.101.012-.101-.109.001.121-.047.061-.101.109.011.161-.088.161-.074 0-.052-.049-.1.011-.1-.109.001.122-.05.061-.102.109.014.162-.085.159-.074 0-.051-.048-.102.011-.1-.109-.001.12-.051.061-.101.109.014.161-.086.161-.074 0-.054-.048-.102.011-.102-.109.001.12-.047.062-.101.109.012.161-.085.161-.074 0-.051-.049-.101.012-.1-.109 0 .121-.048.061-.102.109-.005-.069-.019-1.343-.113-1.698-.16-.19-.242-.451-.231-.718.046-.237-.054-.2-.054-.387-.029-.218-.025-.79-.023-.809 0-.001.029-.16-.015-.096l-.013-.092-.013.092c-.063-.062-.012.101-.015.096.018.223-.149.073-.021.809-.084.142-.092.209-.055.387-.297.757-.278 1.761-.346 2.416-.054-.048-.102.011-.102-.109 0 .121-.046.062-.102.109.015.161-.089.161-.072 0-.054-.048-.101.011-.102-.109.001.12-.047.062-.101.109.011.16-.09.162-.073 0-.053-.049-.103.012-.102-.109 0 .12-.049.062-.1.109.008.159-.089.162-.074 0-.053-.049-.103.013-.102-.109 0 .121-.048.061-.102.109.012.161-.082.16-.074 0-.051-.049-.1.012-.1-.109.002.121-.047.062-.101.109.015.161-.087.16-.074 0-.053-.049-.102.012-.1-.109 0 .121-.048.061-.103.109.016.162-.086.16-.073 0-.052-.048-.102.012-.1-.109-.001.119-.048.062-.102.109.013.161-.086.161-.074 0-.05-.048-.1.01-.1-.109.002.122-.048.061-.101.109.016.162-.087.16-.075 0-.051-.048-.102.012-.099-.109 0 .121-.05.061-.103.109.015.161-.086.161-.072 0-.055-.048-.103.012-.103-.109 0 .12-.048.062-.1.109.009.16-.087.161-.074 0-.053-.049-.102.012-.1-.109 0 .121-.049.061-.102.109.011.161-.083.16-.074 0-.051-.049-.101.011-.1-.109 0 .12-.047.061-.101.109-.046-.666-.051-1.661-.345-2.416.036-.18.028-.245-.056-.387-.028-.214-.023-.789-.021-.809 0 0 .039-.16-.015-.096l-.014-.092-.012.092-.015.096c.018.222-.148.076-.021.809-.084.144-.092.209-.055.387 0 .381-.136.721-.419 1.041.018.146.042 1.716.074 1.375-.054-.048-.103.012-.102-.109.002.121-.047.061-.1.109.009.161-.084.16-.074 0-.053-.048-.102.012-.1-.109-.001.12-.048.062-.103.109.017.161-.088.161-.072 0-.056-.048-.102.012-.102-.109 0 .119-.048.062-.101.109.013.161-.084.16-.075 0-.051-.049-.101.011-.1-.109.001.121-.048.061-.101.109.013.161-.086.16-.074 0-.052-.049-.101.011-.102-.109.001.12-.047.062-.099.109.014.16-.089.162-.073 0-.054-.049-.103.013-.101-.109 0 .119-.049.062-.101.109.01.159-.089.163-.073 0-.054-.049-.104.013-.102-.109 0 .12-.05.062-.101.109.013.16-.089.162-.074 0-.053-.048-.101.011-.102-.109.001.12-.048.062-.1.109.01.159-.089.162-.075 0-.052-.048-.101.011-.101-.109.001.12-.047.062-.099.109.011.16-.087.162-.074 0-.055-.049-.102.012-.101-.109.001.121-.048.061-.101.109.013.162-.085.159-.072 0-.054-.048-.103.012-.102-.109 0 .121-.048.061-.101.109.011.149-.089.181-.073 0-.157-.133-1.603-32.9.374-33.769-.415-1.713-.032-1.93-.645-1.624-.082-.655-.943-6.774-1.073-6.774-.134 0-.993 6.105-1.075 6.774-.6-.293-.258-.094-.646 1.624 1.061.459.004 3.534.362 3.673-.132.094-.168.008-.035-.06.017-.079-.065-.093.05-.16-.115.068-.085-.01-.163-.035-.126.084-.179.006-.035-.062.016-.079-.068-.094.051-.159-.115.062-.088-.009-.164-.038.035.07.021.115-.042.135-.132-.562.091-.809.118-1.14-.079-.064-.14.014-.142-.15.002.167-.062.086-.141.15.054.652.133-.075.055-.232l-.1.105-.022-.306-.024.306-.1-.105c-.132.211.01.757.054.232l-.116-.002c.025-.055.017-.105-.024-.148.001.171-.058.086-.142.15.05.601.131-.164.054-.232l-.1.105-.021-.306-.024.306-.1-.105c-.076.086.011.881.053.232-.085-.062-.142.019-.141-.15 0 .169-.058.086-.14.15.018.378.077.267.053-.232l-.1.105-.022-.306-.023.306-.1-.105c-.248.396.13.418.045.447l.043-.096-.102-.033c-.079.042.005-.086.022-.137l-.062.009-.057-.083.042-.097-.101-.033c-.097.067-.1-.011-.018-.041l.04-.097-.099-.033-.037.081-.016-.088-.003.047c-.136-.238-.006-.064.037-.081l.041-.096-.1-.034c-.089.051-.11-.005-.019-.041l.041-.097-.101-.033c-.087.052-.107-.007-.017-.041l.042-.097-.101-.032c-.088.048-.112-.007-.018-.041l.041-.096-.1-.032c-.085.044-.111-.006-.018-.042l.041-.097-.1-.031c-.132.066-.058-.059.023-.139l-.101-.032c-.086.04-.116-.01-.018-.04l.041-.098-.101-.032c-.087.047-.114-.006-.019-.042l.042-.096-.102-.032c-.087.047-.091-.017-.019-.04l.042-.098-.113-.019c-.027-.063-.017-.112.036-.15-.065-.396-2.261-17.635-1.683-17.635-.31 0-.079 1.936-.087 2.113-1.284.011-2.562-.077-3.834-.262.062 4.251 4.004-.632 3.688 3.419-.219 2.795-.491 5.526-.857 8.304-.103.78-.434 3.103-.592 4.061.052.037.062.085.038.15l-.116.019.042.098c.073.023.069.088-.02.04l-.1.032.042.096c.092.036.07.089-.02.042l-.1.032.042.098c.092.029.072.087-.019.04l-.1.032c.079.078.154.208.023.139l-.101.031.042.097c.092.035.069.09-.018.042l-.101.032.041.096c.093.035.069.087-.018.041l-.101.032.042.097c.09.034.07.09-.02.041l-.099.033.042.097c.09.035.071.093-.019.041l-.101.034.041.096c.047.018.19-.174.03.098l-.007-.064-.04.007-.101.033.041.097c.08.03.085.101-.019.041l-.1.033.042.097c.178.058-.075.034-.067.076l-.051-.002-.054.051c.009.11.232.171.078.086l-.102.033.042.096-.064-.341-.023-.306-.023.306-.101-.105c-.123.197.023.788.054.232-.085-.061-.141.017-.14-.15 0 .168-.057.088-.142.15.026.456.183.111.054-.232l-.101.105-.023-.306-.022.306-.101-.105c-.001.461.026.667.054.232-.163-.136-.12-.123-.282 0 .058.566.165-.084.054-.232l-.099.105-.023-.306-.023.306-.099-.105c-.05.067-.004.943.054.232-.079-.064-.141.015-.141-.15 0 .165-.064.086-.141.15.021.324.248.587.118 1.14-.063-.02-.078-.064-.042-.135-.077.029-.049.101-.164.038.117.064.037.079.05.159.144.069.091.144-.036.062-.076.025-.047.103-.163.035.117.067.037.08.05.16.137.067.099.155-.033.06l-.048.069c-.279-.838-.465-3.359.421-3.743-.459-1.727-.027-1.921-.647-1.624-.082-.664-.941-6.774-1.074-6.774-.131 0-.992 6.109-1.074 6.774-.615-.295-.2-.103-.646 1.624 1.972.852.562 33.584.356 33.769.016.161-.086.161-.072 0-.055-.049-.102.012-.101-.109.001.122-.048.061-.103.109.016.161-.085.161-.073 0-.052-.048-.1.011-.1-.109 0 .121-.048.062-.101.109.011.161-.087.16-.074 0-.051-.049-.1.011-.101-.109.002.121-.047.062-.1.109.016.161-.089.161-.073 0-.052-.048-.102.011-.101-.109.001.121-.046.061-.101.109.016.162-.087.16-.073 0-.052-.048-.1.01-.1-.109.001.122-.048.061-.102.109.011.16-.088.162-.073 0-.053-.049-.102.012-.103-.109.002.121-.049.062-.099.109.013.16-.09.162-.075 0-.053-.049-.102.012-.102-.109.001.121-.048.061-.101.109.016.161-.085.161-.074 0-.051-.049-.101.012-.1-.109.001.121-.046.061-.101.109.012.162-.086.16-.073 0-.052-.049-.101.011-.101-.109.002.121-.049.061-.1.109.01.159-.09.162-.075 0-.052-.049-.101.011-.101-.109 0 .12-.049.061-.1.109.011.14-.13.143-.14.122l.049.071c-.184 7.908-.049 25.071-.049 25.071m40.698-28.695zm.03.044zm-4.162-.044zm.034.044zm-4.162-.044zm.032.044zm-4.162-.044zm.032.044zm-4.163-.044zm.033.044zm-4.162-.044zm.033.044zm-19.961 3.581h0zm.093 0c.056-.104.112-.104.167 0h-.167zm.181 0h0zm.095 0c.055-.104.111-.104.167 0h-.167zm.181 0h0zm.093 0c.057-.104.113-.104.168 0h-.168zm.181 0h0zm.095 0c.055-.104.111-.104.167 0h-.167zm.182 0h0zm.094 0c.055-.104.11-.104.167 0h-.167zm.181 0h0zm.093 0c.057-.104.112-.104.167 0h-.167zm.182 0h0zm.094 0c.056-.104.112-.104.168 0h-.168zm.18 0h0zm.095 0c.055-.104.111-.104.167 0h-.167zm.182 0h0zm.094 0c.055-.104.111-.104.167 0h-.167zm.182 0h0zm.093 0c.056-.104.111-.104.166 0h-.166zm.181 0h0zm.161 0h-.067l.067-.046v.046zm.365-35.043c-.24-.049-.189-.16 0-.278v.278zm.078 1.212c.074.097.074.194 0 .292v-.292zm.195 2.821c.011.226-.53-2.488-.087-2.488.206 0 .08 2.349.087 2.488zm0-2.577c-.05-.065-.05-.132 0-.197v.197zm0-.395l-.061.005c.078.194-.132.192-.055 0-.102.082-.088-.192.005-.099-.113-.193.155-.209.045 0 .07-.069.073.066.066.094zm.2-1.432zm.652-6.008l-.026.006.021-.039.005.033zm.108-.147l-.042.105c-.022-.091-.086-.284-.148-.334.124.046.19.206.19.229zm-.208-.148l.046.116c-.057-.014-.077-.056-.061-.129l.015.013zm.003.17c.029.016-.07.33 0 0zm-.162 4.979zm.004-4.996c.082-.011.137-.021.044.101l-.044-.101zm.044-.192v-.003l.049.125h-.098l.049-.122zm-.21.334l.004-.033.021.041-.025-.008zm-.019-.151l-.047.107c-.089-.132-.04-.242.147-.331-.065.055-.099.13-.1.224zm.118-.144l.014-.013c.017.074-.003.118-.062.129l.048-.116zm-.044.193c.101.111.045.194 0 0zm.028 7.693c.087.097.087.194 0 .292v-.292zm.254 2.821c.019.284-.606-2.488-.127-2.488.273 0 .117 2.328.127 2.488zm0-2.53c-.088-.097-.088-.194 0-.292v.292zm-.06-.425l-.033-.012c.091.2-.164.188-.067 0-.122.079-.102-.19.006-.099-.13-.204.187-.198.055 0 .08-.065.155.111.039.111zm.522-1.449zm.052 1.338h.066c-.115-.197.159-.205.045 0 .085-.09.116.175.005.099.078.194-.132.192-.056 0-.068.056-.068-.067-.06-.099zm.196.245v.292c-.074-.098-.074-.195 0-.292zm-.196.047c.05.065.05.132 0 .197v-.197zm.213 2.774c.013.24-.507-2.488-.124-2.488.275 0 .115 2.334.124 2.488zm.201-4.033c-.187.047-.233-.046-.141-.278.155.026.202.119.141.278zm.267 5.006zm.409-1.37c0-.118.404.634 0 0zm0 .321h.088c0 .049-.04.087-.088.087v-.087zm0 .373v-.087c.048 0 .088.04.088.087h-.088zm.104-.116c.054 0-.187-.225 0 0zm.084.101zm.07-.256c-.101-.082-.21-.057 0 0zm.013.014c-.078.043.177.216 0 0zm.102.257h-.086c0-.047.04-.087.086-.087v.087zm0-.286c-.046 0-.086-.038-.086-.087.086-.029.115 0 .086.087zm0-.118zm.048-.29c0-.119.402.637 0 0zm0 .321h.087c0 .049-.041.087-.087.087v-.087zm0 .373v-.087c.047 0 .087.04.087.087h-.087zm.101-.116c.046 0-.172-.236 0 0zm.085.101zm.073-.256c-.105-.083-.212-.058 0 0zm.012.014c-.068.038.181.228 0 0zm.102.242c-.036.019-.148.048-.06-.049l-.007.037.067.012zm0-.283l-.029.008-.058-.083c.083-.029.112-.004.087.075zm0-.106zm.065.243zm.039-.084l-.005-.002.009-.007-.004.009zm-.018-.05l-.017-.032-.022.03c-.015-.081.024-.09.087-.076l-.048.078zm.053-.109h0zm.071-.251l-.087.02.042.099.045-.025c-.018.208-.012.092-.063.065l-.099.032.062.044c-.061-.122-.154-.343.1-.235zm.049.069zm.081-.17l-.029-.014.029.014zm.081.756zm.116-1.281l.008-.018.018.029-.026-.011zm.092.661zm-.111.247h.035l-.075.087.04-.087zm-.052.373v-.087c.049 0 .087.04.087.087h-.087zm.103-.116c.048 0-.18-.231 0 0zm.083.101zm.072-.256c-.105-.083-.208-.058 0 0zm.013.014c-.08.037.182.216 0 0zm.103.257h-.089c0-.047.04-.087.089-.087v.087zm0-.286c-.049 0-.089-.038-.089-.087.089-.03.118-.001.089.087zm0-.118zm0-.415zm1.484-9.49c-.137 1.978-.307 4.007-.498 5.933.048.055.041.127-.002.188l-.076-.019c.063.068.147.21.024.135l-.101.034.041.097c.095.036.065.082-.019.041l-.099.033.041.095c.09.036.067.088-.019.042l-.1.032.042.097c.085.034.071.092-.019.04l-.102.034.043.097c.097.032.065.084-.02.04.496-.238.716-5.895.864-6.919zm-.379 5.86c.097.033.07.088-.019.038l-.022.031.012-.147.029.078zm.008.143l-.066.147c-.018-.092-.005-.161.066-.147zm-.564 1.089l.014-.042c.093.029.07.109-.014.042zm-.011.086c.062.017.057.058-.016.123l.016-.123zm-.062.141zm.069.71h.259l-.477.478.218-.478zm-.424.932c.155-.178.115.003.089.128-.092-.032-.121-.075-.089-.128zm-.075.315c.049.013.088-.007.119-.06-.097-.065-.183-.038-.054-.23.135.291.165.754-.065.29zm0 .339c0-.118.403.636 0 0zm0 .321h.087c0 .049-.039.087-.087.087v-.087zm0 .373v-.087c.049 0 .087.04.087.087h-.087zm.103-.116c.052 0-.184-.228 0 0zm.085.101zm.07-.256c-.103-.083-.211-.057 0 0zm.014.014c-.076.042.173.22 0 0zm.101.257h-.087c0-.047.041-.087.087-.087v.087zm0-.286c-.047 0-.087-.038-.087-.087.087-.029.115 0 .087.087zm0-.118zm.047.404v-.087c.049 0 .087.04.087.087h-.087zm.087-.373c0 .049-.039.087-.087.087-.029-.087 0-.116.087-.087zm-.087-.031zm.102.288c.044 0-.173-.236 0 0zm.084.101zm.071-.256c-.105-.083-.207-.056 0 0zm.015.014c-.076.035.175.222 0 0zm.102.257h-.088c0-.047.04-.087.088-.087v.087zm0-.286c-.048 0-.088-.038-.088-.087.087-.03.117-.001.088.087zm0-.118zm.046.404v-.087c.046 0 .087.04.087.087h-.087zm.087-.373c0 .049-.041.087-.087.087-.029-.087 0-.116.087-.087zm-.087-.031zm.103.288c.045 0-.177-.234 0 0zm.083.101zm.072-.256c-.226-.179-.029.076 0 0zm.058.271v0zm0-.12c-.02.004-.085-.315 0 0zm0-.186zm0-.098zm0-.706l-.061.018c.063.773.029-.266.054-.232l-.099.105-.024-.306-.022.306-.101-.105c-.174.464.055.517-.062.23.021-.241-.081-.059-.167.002.042.46.181.105.055-.232l-.1.105-.023-.306-.022.306-.101-.105c-.105.21.002.806.055.232-.174-.118-.113-.149-.282 0 .05.711.104-.164.053-.232l-.1.105c.185-.659.619-.443.947.109zm0-.646h-.675c.469-.661.743-.776.675 0zm0-.583h-.094l.094-.094v.094zm0-.342zm0-1.032v0zm.05-.967l.001-.019-.001.019zm-.011-.176l.014.12-.115.019.041.095c.084.03.068.087-.017.042.311-.123.6-7.909.793-9.324-.229 2.983-.45 6.123-.74 9.017l.024.031zm.056.142zm.024-.141l-.007-.063.023-.042c.077.025.133-.033-.016.105zm.088 1.142zm.404.171c.058.298-.076.516-.404.655-.217-.571-.083-.789.404-.655zm-.404-.509c-.018-.372.116-.712.404-1.018.34.813.205 1.153-.404 1.018zm0 1.771h.286l-.286.476v-.476zm0 1.179v-.156c.35.552.106.25 0 .156zm0-.188c.068-.228.067-.081.06.069l-.06-.069zm0 .519c.04.011.106.94 0 0zm.082.755zm.072-.256c-.101-.082-.211-.057 0 0zm.014.014c-.074.034.175.222 0 0zm.101.257h-.087c0-.047.04-.087.087-.087v.087zm0-.286c-.047 0-.087-.038-.087-.087.087-.029.117 0 .087.087zm0-.118zm.024-.839c0 .17-.058.087-.142.15.051.605.154-.075.056-.232l-.101.105c.11-.288.264-.289.374 0l-.101-.105c-.053.419.017.689.055.232-.083-.063-.142.018-.141-.15zm.023.839zm.088.031c0 .049-.04.087-.088.087-.029-.088.001-.117.088-.087zm-.088.373v-.087c.048 0 .088.04.088.087h-.088zm.102-.116c.043 0-.172-.236 0 0zm.096.099c-.083 0-.102-.142 0 0zm0-.278zm0-1.107zm0-.065l-.011-.059c-.098.139-.322.138-.421 0-.23-.138.348.038.432.059zm0-.289h-.446c.313-.654.492-.761.446 0zm0-.583h-.097l.097-.161v.161zm0-.323zm.116-4.261l-.093.045c-.244-1.31-.023 1.02-.163.937l-.102.034.042.097c.09.033.069.09-.02.04l-.101.034.042.097c.102.03.063.081-.018.039l-.102.033.042.096c.099.034.066.085-.017.041l-.101.033.041.097c.093.035.067.085-.016.042l-.102.029.041.098c.091.035.07.089-.018.041.536-.249.539-7.951.633-9.181.493.21.014 6.485.012 7.348zm0-7.71c-.318.153-.356 2.35-.384 2.68l.384-4.896v2.216zm1.745 11.649l-.006-.006.006.006zm.142 1.181l-.476-.478c.311-.078.47.082.476.478zm-.791-1.739zm-.085-.171v-.017l.009.017h-.009zm.095 1.374c-.095.032-.126 0-.095-.094l.095.094zm.058.059l.522.524c-.779.103-.881-.121-.522-.524zm.528-.728zm-.027-.209c-.083.066-.108-.013-.014-.042l.014.042zm-1.421-16.904l-.019.006.016-.029.003.023zm.081-.108l-.031.078c-.014-.069-.064-.205-.109-.248.091.031.14.153.14.17zm-.155-.11l.036.085c-.043-.008-.059-.04-.046-.096l.01.011zm-.239.218l.003-.022.015.029-.018-.007zm-.016-.113l-.034.082c-.068-.099-.032-.181.11-.248-.049.041-.074.096-.076.166zm.089-.105l.011-.01c.014.057-.001.089-.045.096l.034-.086zm.018.231l-.05-.087c.05-.006.124.066.05.087zm.066-.043c-.092-.113.091-.11 0 0zm0-.13l-.036.003c.016-.211.109-.003.036-.003zm.066.173c-.104-.027.151-.192 0 0zm.114 13.23c-.358-.227-.267-7.325-.083-7.394.095 1.236.088 8.923.632 9.181-.087.049-.109-.006-.018-.041l.042-.098-.102-.029c-.084.043-.109-.007-.018-.042l.042-.097-.102-.033c-.083.045-.114-.008-.018-.041l.042-.096-.101-.033c-.08.041-.122-.009-.019-.039l.042-.097-.101-.034c-.089.052-.106-.008-.018-.04l.042-.097-.1-.034c-.138.082.081-2.246-.162-.936zm.023 4.539v-.161l.097.161h-.097zm.132.059l.314.524c-.599.043-.601-.207-.314-.524zm-.13 2.265c.087-.156.069 0 0 0zm.071-.256zm.013.014c-.084.042.184.212 0 0zm.103.257h-.087c0-.047.04-.087.087-.087v.087zm0-.286c-.047 0-.087-.038-.087-.087.087-.029.116 0 .087.087zm0-.118zm.023-.839c.001.166-.062.087-.141.15.04.49.046.185.056-.232l-.101.105c.111-.289.264-.289.374 0l-.1-.105c-.103.164.015.835.054.232-.085-.063-.142.016-.142-.15zm.024.839zm.087.031c0 .049-.04.087-.087.087-.03-.087 0-.116.087-.087zm-.087.373v-.087c.048 0 .087.04.087.087h-.087zm.102-.116c.056 0-.186-.224 0 0zm.084.101zm.071-.256c-.105-.083-.205-.058 0 0zm.021.155h-.008l.008-.011v.011zm0-.129l-.008-.012.008.012zm0-.159c-.101-.052-.166-.335 0-.368v.368zm0-.7c.09-.034-.451.585 0-.167v.167zm0-.195l-.07.079c-.007-.156-.005-.285.07-.079zm0-.168c-.076.03-.107.01-.092-.059-.097.138-.322.137-.419 0l-.002.018c.145-.154.425-.216.513.041zm0-.338l-.285-.476c.348-.094.443.065.285.476zm0-.534zm0-.548zm0-.826zm0-.338c-.608.134-.743-.205-.404-1.018.288.306.422.646.404 1.018zm-.012-.935l.083.026c.011-.031.116.167-.083-.026zm.076.169c.057-.028.066.021.048.103l-.048-.103zm.093.119l.002.019-.002-.019zm.002.042l.068.034.041-.096-.115-.019c-.021-.064-.01-.113.038-.15-.289-2.896-.511-6.033-.739-9.017.193 1.471.527 10.138 1.334 10.514-.082.044-.119-.007-.017-.04l.041-.097-.1-.034c-.088.05-.106-.005-.019-.04l.042-.097-.1-.032c-.087.047-.108-.006-.02-.042l.043-.095-.101-.033c-.083.04-.111-.005-.019-.041l.041-.097-.1-.034c-.13.079-.053-.062.024-.135l-.077.019-.023-.053c-.104.06-.104-.008-.02-.04l.042-.095-.102-.035c-.089.052-.113-.007-.018-.038l.041-.099-.1-.032c-.058.033-.047.131-.085-.076zm.047 4.252zm.022.031l-.022.058.022-.058zm-.022-.446c.04-.233.041-.278 0-.502.104.205.214.385 0 .502zm0 .819v0zm.038-.116c.133 0-.206-.264 0 0zm.085.101zm.069-.256c-.1-.083-.208-.057 0 0zm.014.014c-.079.044.177.216 0 0zm.103.257h-.088c0-.047.04-.087.088-.087v.087zm0-.286c-.048 0-.088-.038-.088-.087.088-.029.117 0 .088.087zm0-.118zm.046.404v-.087c.048 0 .087.04.087.087h-.087zm.087-.373c0 .049-.039.087-.087.087-.029-.087 0-.116.087-.087zm-.087-.031zm.103.288c.058 0-.187-.225 0 0zm.084.101zm.071-.256c-.111-.084-.203-.054 0 0zm.013.014c-.075.054.169.214 0 0zm.102.257h-.087c0-.047.04-.087.087-.087v.087zm0-.286c-.048 0-.087-.038-.087-.087.087-.029.115 0 .087.087zm0-.118zm-.003-.691l-.114.002c.029.394.073.254.055-.232l-.102.105-.022-.306-.022.306-.1-.105c-.121.192.01.791.053.232-.085-.061-.141.018-.142-.15.001.168-.055.089-.141.15.058.573.158-.113.053-.232l-.099.105-.022-.306-.024.306c-.402-.631.675-.502.839 0l-.1-.105c-.201.322.082.604-.06.23.023-.056.014-.105-.027-.148-.04.043-.049.093-.025.148zm.05.691zm.087.031c0 .049-.039.087-.087.087-.029-.087 0-.116.087-.087zm-.087.373v-.087c.049 0 .087.04.087.087h-.087zm.102-.116c.046 0-.177-.234 0 0zm.084.101zm.072-.256c-.111-.083-.203-.055 0 0zm.013.014c-.085.047.182.21 0 0zm.103.257h-.087c0-.047.039-.087.087-.087v.087zm0-.286c-.049 0-.087-.038-.087-.087.087-.029.116 0 .087.087zm0-.118zm0-.415c-.435-.08.018-.341-.064-.506l-.1.105-.019-.245c.23.206.197.271.064.372.016.325.356-.396.119.274zm.416.533c-.048 0-.084-.038-.084-.087.055-.014.084.015.084.087zm-.071-1.022zm-.09.669zm-.211-.394c.069 0 .17.517 0 0zm0 .339c0-.116.407.632 0 0zm0 .321h.088c0 .049-.039.087-.088.087v-.087zm0 .373v-.087c.05 0 .088.04.088.087h-.088zm.104-.116c.044 0-.173-.236 0 0zm.084.101zm.071-.256c-.204-.171-.063.084 0 0zm.013.014c-.083.035.186.214 0 0zm.104.257h-.088c0-.047.04-.087.088-.087v.087zm.046 0zm.09-.756l-.009-.018.035.006-.026.012zm.073.155zm.193.427zm.017-.141l-.031.024-.057-.083c.059-.013.095-.004.088.059zm-.095-.089h0zm.095 0v0zm0-.063l-.092-.029c-.088.048-.088-.017-.018-.04l.042-.099.068.168zm.046-.227c0-.118.403.636 0 0zm0 .321h.088c0 .099-.087.114-.088 0zm0 .286h0zm.016.087l.061-.028v-.014c.028.051.008.065-.061.042zm.08-.129c-.052 0-.141-.164 0 0zm.092.114zm.07-.256c-.104-.083-.206-.056 0 0zm.014.014c-.078.049.174.214 0 0zm.101.257h-.087c0-.047.039-.087.087-.087v.087zm0-.286c-.048 0-.087-.038-.087-.087.087-.029.117 0 .087.087zm0-.118zm.048-.29c0-.118.402.636 0 0zm0 .321h.087c0 .049-.039.087-.087.087v-.087zm0 .373v-.087c.048 0 .087.04.087.087h-.087zm.101-.116c.042 0-.169-.239 0 0zm.086.101zm.07-.256c-.104-.083-.208-.056 0 0zm.013.014c-.089.04.188.21 0 0zm.103.257h-.088c0-.047.04-.087.088-.087v.087zm0-.286c-.048 0-.088-.038-.088-.087.087-.03.117-.001.088.087zm0-.118zm.418 1.097zm.408-5.023c-.242-.049-.191-.16 0-.278v.278zm.077 1.212c.074.097.074.194 0 .292v-.292zm.195 2.821c.012.227-.526-2.488-.088-2.488.209 0 .081 2.348.088 2.488zm0-2.577c-.049-.065-.049-.132 0-.197v.197zm0-.395l-.06.005c.084.182-.131.203-.056 0-.105.086-.082-.197.005-.099-.109-.207.16-.195.045 0 .072-.063.077.056.066.094zm.2-1.432zm.652-6.008l-.025.006.022-.039.003.033zm.11-.147l-.043.105c-.02-.091-.086-.285-.147-.334.122.046.188.206.19.229zm-.208-.148l.046.116c-.058-.013-.078-.056-.061-.129l.015.013zm.001.17c.034.017-.075.33 0 0zm-.16 4.979zm.003-4.996c.085-.012.129-.02.045.101l-.045-.101zm.043-.192l.002-.003.047.125h-.097l.048-.122zm-.209.334l.003-.033.021.041-.024-.008zm-.021-.151l-.047.107c-.09-.132-.041-.242.149-.331-.065.055-.1.129-.102.224zm.12-.144l.015-.013c.016.073-.004.116-.062.129l.047-.116zm-.043.193c.171-.11.066.347 0 0zm.026 7.693c.087.097.087.194 0 .292v-.292zm.255 2.821c.019.283-.609-2.488-.126-2.488.268 0 .116 2.328.126 2.488zm0-2.53c-.087-.097-.087-.194 0-.292v.292zm-.059-.425l-.034-.012c.098.191-.163.195-.067 0-.128.076-.096-.19.006-.099-.133-.192.188-.21.055 0 .08-.065.154.111.04.111zm.522-1.449zm.052 1.338h.065c-.108-.204.156-.198.046 0 .094-.089.106.176.005.099.067.194-.123.193-.057 0-.068.059-.066-.073-.059-.099zm.194.245v.292c-.073-.098-.073-.195 0-.292zm-.194.047c.05.065.05.132 0 .197v-.197zm.211 2.774c.014.24-.505-2.488-.123-2.488.275 0 .115 2.335.123 2.488zm.202-4.033c-.187.047-.234-.046-.141-.278.155.026.202.119.141.278zm.226 35.043v-.022l.048.022h-.048zm.062 0h0zm.094 0c.055-.104.11-.104.165 0h-.165zm.182 0h0zm.092 0c.056-.104.112-.104.167 0h-.167zm.182 0h0zm.094 0c.055-.104.111-.104.167 0h-.167zm.181 0h0zm.095 0c.055-.104.111-.104.167 0h-.167zm.181 0h0zm.094 0c.056-.104.112-.104.167 0h-.167zm.181 0h0zm.093 0c.057-.104.112-.104.167 0h-.167zm.183 0h0zm.093 0c.055-.104.111-.104.167 0h-.167zm.181 0h0zm.095 0c.056-.104.111-.104.167 0h-.167zm.182 0h0zm.094 0c.055-.104.111-.104.167 0h-.167zm.181 0h0zm.093 0c.056-.104.111-.104.167 0h-.167zm.182 0h0zm.093 0c.056-.104.112-.104.167 0h-.167zm.193 0h0zm.136-.849v0zm-.004.699c.052 0 .019.072 0 .099v-.099zm.069.15zm0-.049zm0-.152l-.016.006-.02-.107-.02.107c.011-.586.029-.724.056-.006zm0-.569v0zm0-.127h-.039l.002-.03c-.062-.053.073-.068.016 0l.021.03zm.226-2.679zm.057 3.576zm-.084-.036c.044-.272.027-.026 0 0zm.084 0c-.027-.023-.043-.275 0 0zm0-.168l-.023.009-.02-.107-.019.107c.003-.607.022-.694.062-.009zm-.084-.551v0zm.084 0v0zm-.02-.136l-.01-.006h-.022l.001-.03c-.075-.057.088-.061.018 0l.013.036zm.218-.036h.021c-.06-.072.075-.052.015 0l.001.03h-.018l-.019-.03zm.064.078v0zm-.064.015v0zm0 .684c.052 0 .019.075 0 .102v-.102zm.07.15zm0-.05zm0-.151l-.017.006-.018-.107-.019.107c.003-.661.021-.649.054-.006zm.13.201h0zm.027 0c.056-.104.111-.104.167 0h-.167zm.182 0h0zm.092 0c.057-.104.112-.104.167 0h-.167zm.183 0h0zm.093 0c.056-.104.111-.104.167 0h-.167zm.183 0h0zm.092 0c.057-.104.113-.104.167 0h-.167zm.183 0h0zm.093 0c.056-.104.112-.104.167 0h-.167zm.182 0h0zm.092 0c.057-.104.112-.104.168 0h-.168zm.182 0h0zm.094 0c.057-.104.112-.104.168 0h-.168zm.182 0h0zm.093 0c.056-.104.112-.104.167 0h-.167zm.181 0h0zm.095 0c.056-.104.112-.104.168 0h-.168zm.182 0h0zm.094 0c.056-.104.111-.104.167 0h-.167zm.183 0h0zm.091 0c.056-.104.111-.104.168 0h-.168zm.183 0h0zm.093 0c.056-.104.112-.104.168 0h-.168zm.193 0h0zm.136-.849v0zm-.005.699c.053 0 .017.074 0 .101v-.101zm.07.15zm0-.049zm0-.152l-.017.006-.02-.107-.019.107c.011-.586.028-.724.056-.006zm0-.569v0zm0-.127h-.039l.001-.03c-.06-.044.066-.076.016 0l.022.03zm.227-2.679zm-.028 2.727v0zm0 .699c.059 0 .028.088 0 .114v-.114zm.084.15zm0-.036c-.027-.022-.046-.274 0 0zm0-.168l-.024.009-.019-.107-.019.107c.003-.607.021-.693.062-.009zm0-.551v0zm-.02-.136l-.011-.006c.022.061-.04.066-.023 0l.003-.03c-.085-.064.097-.048.019 0l.012.036zm.218-.036h.021c-.069-.053.081-.065.017 0l.001.03c.023.065-.041.062-.019 0l-.02-.03zm.062.078v0zm-.062.015v0zm0 .684c.048 0 .018.077 0 .102v-.102zm.07.15zm0-.05zm0-.151l-.018.006-.019-.107-.019.107c.003-.664.023-.648.056-.006zm.13.201h0zm.027 0c.055-.104.111-.104.167 0h-.167zm.181 0h0zm.094 0c.055-.104.111-.104.166 0h-.166zm.181 0h0zm.094 0c.057-.104.111-.104.167 0h-.167zm.182 0h0zm.093 0c.057-.104.112-.104.168 0h-.168zm.181 0h0zm.095 0c.055-.104.111-.104.167 0h-.167zm.18 0h0zm.094 0c.055-.104.111-.104.168 0h-.168zm.182 0h0zm.094 0c.056-.104.111-.104.168 0h-.168zm.182 0h0zm.092 0c.058-.104.113-.104.17 0h-.17zm.184 0h0zm.093 0c.055-.104.111-.104.167 0h-.167zm.182 0h0zm.094 0c.055-.104.11-.104.166 0h-.166zm.181 0h0zm.093 0c.056-.104.111-.104.168 0h-.168zm.183 0h0zm.093 0c.056-.104.111-.104.167 0h-.167zm.193 0h0zm.136-.849v0zm-.005.699c.053 0 .018.074 0 .102v-.102zm.07.15zm0-.05zm0-.151l-.018.006-.018-.107-.02.107c.011-.584.027-.725.056-.006zm0-.569v0zm0-.127h-.04l.001-.03c-.056-.084.071-.042.015 0l.024.03zm.225-2.679zm-.029 2.727v0zm0 .699c.061 0 .032.088 0 .114v-.114zm.085.15zm0-.036c-.028-.026-.044-.273 0 0zm0-.168l-.022.009-.02-.107-.018.107c.003-.601.019-.7.06-.009zm0-.551v0zm-.019-.136l-.011-.006c.018.068-.044.06-.021 0l.001-.03c-.07-.07.084-.051.018 0l.013.036zm.218-.036h.022l.016.03h-.019l-.019-.03zm.064.078v0zm-.064.015v0zm0 .684c.051 0 .02.076 0 .102v-.102zm.069.15zm0-.05zm0-.151l-.015.006-.02-.107-.017.107c.002-.658.019-.652.052-.006zm.132.201h0zm.025 0c.056-.104.111-.104.168 0h-.168zm.184 0h0zm.093 0c.056-.104.111-.104.166 0h-.166zm.18 0h0zm.095 0c.055-.104.111-.104.166 0h-.166zm.181 0h0zm.093 0c.056-.104.111-.104.168 0h-.168zm.182 0h0zm.093 0c.058-.104.113-.104.169 0h-.169zm.182 0h0zm.095 0c.055-.104.11-.104.167 0h-.167zm.181 0h0zm.095 0c.055-.104.11-.104.166 0h-.166zm.181 0h0zm.093 0c.056-.104.111-.104.168 0h-.168zm.183 0h0zm.091 0c.057-.104.112-.104.168 0h-.168zm.184 0h0zm.092 0c.057-.104.113-.104.168 0h-.168zm.182 0h0zm.093 0c.056-.104.112-.104.167 0h-.167zm.183 0h0zm.093 0c.058-.104.112-.104.168 0h-.168zm.193 0h0zm.137-.849v0zm-.006.699c.051 0 .021.076 0 .102v-.102zm.069.15zm0-.05zm0-.151l-.015.006-.02-.107-.018.107c.009-.577.026-.731.053-.006zm0-.569v0zm0-.127h-.039l.003-.03c-.054-.054.062-.071.016 0l.02.03zm.227-2.679zm-.028 2.727v0zm0 .699c.058 0 .031.089 0 .114v-.114zm.085.15zm0-.036c-.026-.02-.044-.278 0 0zm0-.168l-.023.009-.019-.107-.019.107c.003-.6.02-.702.061-.009zm0-.551v0zm-.021-.136l-.011-.006c.023.062-.038.066-.021 0l.003-.03c-.071-.054.083-.065.018 0l.011.036zm.219-.036h.021c-.069-.069.082-.05.016 0l.002.03h-.019l-.02-.03zm.064.078v0zm-.064.015v0zm0 .684c.052 0 .018.075 0 .102v-.102zm.071.15zm0-.049c-.026-.033-.031-.232 0 0zm0-.152l-.018.006-.019-.107-.018.107c.003-.661.021-.649.055-.006zm.13.201h0zm.026 0c.056-.104.111-.104.167 0h-.167zm.182 0h0zm.092 0c.057-.104.111-.104.167 0h-.167zm.182 0h0zm.094 0c.056-.104.112-.104.168 0h-.168zm.182 0h0zm.094 0c.055-.104.111-.104.166 0h-.166zm.182 0h0zm.093 0c.057-.104.112-.104.168 0h-.168zm.181 0h0zm.094 0c.057-.104.111-.104.167 0h-.167zm.182 0h0zm.093 0c.056-.104.112-.104.167 0h-.167zm.182 0h0zm.094 0c.056-.104.112-.104.167 0h-.167zm.181 0h0zm.093 0c.058-.104.112-.104.168 0h-.168zm.182 0h0zm.095 0c.056-.104.11-.104.167 0h-.167zm.18 0h0zm.095 0c.056-.104.112-.104.168 0h-.168zm.181 0h0zm.093 0c.056-.104.112-.104.168 0h-.168zm.195 0h0zm.136-.849v0zm-.006.699c.054 0 .019.074 0 .102v-.102zm.07.15zm0-.05zm0-.151l-.016.006-.021-.107-.017.107c.009-.581.026-.728.054-.006zm0-.569v0zm0-.127h-.02c.018.073-.043.054-.018 0l.001-.03c-.071-.054.078-.064.016 0l.021.03zm.226-2.679zm-.029 2.727v0zm0 .699c.058 0 .029.089 0 .114v-.114zm.086.15zm0-.036c-.028-.022-.048-.274 0 0zm0-.168l-.025.009-.017-.107-.02.107c.003-.605.021-.696.062-.009zm0-.551v0zm-.021-.136l-.01-.006c.024.065-.046.062-.023 0l.003-.03c-.092-.047.104-.053.018 0l.012.036zm.218-.036h.037l.002.03c.018.073-.044.054-.019 0l-.02-.03zm.066.078v0zm-.066.015v0zm0 .684c.052 0 .017.075 0 .102v-.102zm.071.15zm0-.049zm0-.152l-.018.006-.018-.107-.019.107c.003-.661.022-.649.055-.006zm.131.201h0zm.025 0c.057-.104.112-.104.166 0h-.166zm.182 0h0zm.093 0c.057-.104.112-.104.168 0h-.168zm.182 0h0zm.093 0c.057-.104.112-.104.169 0h-.169zm.183 0h0zm.093 0c.055-.104.111-.104.167 0h-.167zm.182 0h0zm.095 0c.055-.104.111-.104.167 0h-.167zm.18 0h0zm.094 0c.056-.104.111-.104.168 0h-.168zm.182 0h0zm.092 0c.057-.104.112-.104.168 0h-.168zm.182 0h0zm.094 0c.057-.104.112-.104.167 0h-.167zm.182 0h0zm.093 0c.055-.104.111-.104.168 0h-.168zm.183 0h0zm.094 0c.056-.104.11-.104.167 0h-.167zm.182 0h0zm.092 0c.056-.104.111-.104.168 0h-.168zm.183 0h0zm.093 0c.055-.104.111-.104.166 0h-.166zm.194 0h0zm.134-.849v0zm-.005.699c.055 0 .021.073 0 .101v-.101zm.072.15zm0-.049c-.026-.03-.033-.234 0 0zm0-.152l-.018.006-.018-.107-.02.107c.01-.582.026-.728.056-.006zm0-.569v0zm0-.127h-.04l.003-.03c-.069-.053.078-.064.014 0l.023.03zm.224-2.679zm-.028 2.727v0zm0 .699c.059 0 .031.089 0 .114v-.114zm.085.15zm0-.036c-.027-.023-.046-.274 0 0zm0-.168l-.024.009-.018-.107-.02.107c.003-.608.022-.693.062-.009zm0-.551v0zm-.019-.136l-.012-.006c.022.062-.038.065-.022 0l.002-.03c-.083-.062.098-.048.019 0l.013.036zm.217-.036h.021l.017.03h-.018l-.02-.03zm.065.078v0zm-.065.015v0zm0 .684c.053 0 .018.074 0 .101v-.101zm.071.15zm0-.049zm0-.152l-.018.006-.017-.107-.021.107c.004-.665.022-.648.056-.006zm.13.201h0zm.026 0c.055-.104.111-.104.168 0h-.168zm.182 0h0zm.094 0c.055-.104.11-.104.166 0h-.166zm.182 0h0zm.093 0c.056-.104.11-.104.167 0h-.167zm.181 0h0zm.094 0c.056-.104.111-.104.167 0h-.167zm.183 0h0zm.092 0c.056-.104.112-.104.167 0h-.167zm.181 0h0zm.095 0c.055-.104.11-.104.165 0h-.165zm.18 0z"/></svg>