<svg xmlns="http://www.w3.org/2000/svg" width="100" height="100"><circle fill="#B2B2B2" cx="50" cy="50" r="50"/><path fill-rule="evenodd" clip-rule="evenodd" d="M49.798 24.783c-.14.053-.157.229-.329.247-.112.144-.359-.076-.453.042-.191.14.006.422-.082.575-.06.104-.167.173-.37.164.012.124.126.147.083.329-.046.228-.347.201-.412.411v.698l-.206.329c-.664.222-1.366-.108-2.014-.165-.263.226-.311.577-.37 1.069-.019.158-.06.286-.041.411.059.385.51.524.369.863-.188-.047-.271-.176-.369-.33-.087-.133-.074-.396-.288-.411-.037.146.104.258.165.37.485.897.92 1.92 1.356 2.959l.123.206.042.246.123.206c.125.375.206.765.329 1.191l.164.453c.484 1.952.235 4.707-.288 6.618.236.111.515.139.781.206l.781.205.822.165c.416.087.738.295 1.151.124.127.091.327.112.536.123.139.139-.088.328 0 .412.369.202.768.283 1.148.452.357.158.717.364 1.068.535.724.349 1.455.671 2.22.986.305.395.441.957.576 1.521.691.135 1.421.162 2.138.248.699.083 1.398.149 2.095.246.716.1 1.431.167 2.138.247.514.058 1.008.141 1.48.286.249.079.421.125.617.248l.122.041.247.166c.224.123.529.435.74.657.233.247.441.525.615.822l.043.124.163.246.041.124c.039.052.116.124.166.246l.122.329.082.207.082.41.081.247.291 1.685c.094.445.23.859.408 1.274.335.777.793 1.674 1.193 2.466l.164.329.122.205.125.206.533.781.288.41.041.123.164.165c.212.283.457.648.698.946.609.742 1.094 1.529 1.646 2.341l.041.124.163.164.043.124.327.328c.419.451.892.905 1.069 1.562.189.211.341.449.494.698l.245.37.084.205c.045.062.143.056.123.165.059.133.038.344.04.533l.288.247c.164.178.309.267.658.329.14.024.305.062.411.042.202-.04.4-.312.656-.535.215-.187.464-.389.658-.534.32-.241.685-.492 1.068-.698.268-.146.355-.184.74-.247.251-.041.423-.034.617.082l.204.205.288.123c.08.056.09.169.207.207.077.098.23.124.245.287-.215.525-.593.885-.903 1.314.352-.101.631.046.862.165l.122.042c.08.045.241.186.329.287v.082c.037.035.231-.013.248.123l.288.329c.102.115.221.143.245.329.03.213-.092.441-.204.616l-.123.123-.084.205-.245.247-.084.165c-.141.173-.352.353-.533.534l-.492.534-.37.246c-.127.1-.207.245-.329.246l.163.247c.047.099.062.202.084.329-.436.236-.946.386-1.438.576-.542.208-1.216.426-1.809.657-.135.075.016.17 0 .246-.017.066-.176.216-.248.288-.077.078-.234.196-.41.205-.268.015-.415-.148-.658-.246-1.128.378-2.193.821-3.329 1.191-.144-.022-.229-.182-.329-.288l-.164-.204-.247-.288c-.37.009-.848.1-1.232.041-.221-.033-.384-.15-.535-.206-.03-.127-.073-.249-.123-.371l-.163-.328c-.094-.227-.112-.498-.247-.697-.062-.093-.121-.151-.207-.207l-.286-.122-.083-.124-.164-.041-.082-.123-.122-.041-.125-.205c-.096-.135-.243-.354-.329-.535-.127-.271-.194-.596-.329-.863l-.204-.287-.082-.164-.081-.041v-.083l-.125-.123-.041-.165-.206-.246-.164-.452c-.169-.381-.4-.836-.576-1.274-.12-.301-.2-.616-.329-.904-.12-.271-.294-.521-.451-.78-.645-1.065-1.153-2.141-1.767-3.124h-1.152c-.094.507-.014 1.191-.041 1.767l.288.083v1.479c.409.016.888-.039 1.232.042v3.74l.699.163c-.024.153.067.424-.082.453.133.044.067.288.082.451-.116.062-.258.1-.451.083-.168.628-.396 1.192-.617 1.767.032.201.152.315.124.575.076.143.221.208.329.328l.286.371.206.206.248.493c.065.109.1.276.163.492.09.308.2.818.164 1.357-.019.307-.088.521-.164.78l-.082.411-.206.329c-.123.231-.233.396-.411.617l-.122.123-.082.164-.165.082c-.155.124-.327.338-.534.452-.23.128-.541.268-.864.37-.38.119-.952.226-1.521.163-.253-.026-.525-.13-.78-.204l-.248-.042-.286-.205-.328-.124-.289-.287-.122-.041-.041-.082-.165-.082-.041-.124-.329-.369c-.121-.149-.229-.387-.37-.616-.069-.115-.104-.285-.164-.494-.077-.264-.146-.529-.165-.945v-.247c.004-.096.021-.225 0-.328-.028-.15-.133-.242-.204-.37l-.082-.205c-.071-.127-.146-.209-.206-.411-.106-.348-.198-.833-.166-1.397.008-.136.015-.314.043-.452l.123-.247.04-.287.166-.329.082-.164c.059-.121.108-.174.204-.288l.084-.041.122-.206c.097-.124.196-.187.37-.327l.245-.248.329-.123.247-.165.37-.081.288-.123c.303-.06.626-.03.987-.042.178-.314.262-.724.411-1.068l-.288-.657c-.503.333-1.063.734-1.603 1.109l-.166.083-.04.082c-.217.098-.454.254-.74.369-.983.396-2.74.247-4.234.247h-3.041c-.201.375-.321.773-.493 1.15-.17.374-.38.721-.575 1.068-.298.53-.596 1.029-.946 1.521-.158.224-.357.426-.534.657l-.164.246-.412.411-.37.453-.411.369c-.289.271-.551.535-.863.781-.582.46-1.201.95-1.891 1.356-.676.398-1.394.789-2.178 1.11l-.288.122-.617.206c-.597.229-1.483.469-2.22.616-2.204.443-5.068.26-7.028-.287-.497-.14-.974-.277-1.438-.452l-.37-.123-.288-.165-.329-.124c-.266-.119-.647-.287-.945-.451l-.288-.205c-.186-.108-.407-.192-.616-.329l-.411-.288-.412-.287c-.729-.521-1.396-1.086-2.013-1.727-.622-.646-1.233-1.309-1.727-2.055-.496-.752-.967-1.522-1.356-2.385l-.288-.657c-.078-.189-.14-.34-.205-.534-.083-.253-.191-.532-.288-.863-.337-1.15-.634-2.519-.699-3.987-.082-1.86.21-3.615.616-5.056.087-.307.195-.62.288-.903l.124-.328c.136-.413.401-.894.576-1.317.054-.131.124-.343.205-.492l.124-.123.041-.164.124-.124.082-.164.247-.452.288-.412c.165-.241.315-.47.493-.697.417-.531.897-1.137 1.397-1.645.359-.363.811-.774 1.233-1.109.354-.279.688-.568 1.069-.823 1.827-1.217 4.011-2.214 6.7-2.63.094-.084.015-.341.041-.493-.058-.182.246-.001.246-.124-.002-.521.04-.994.165-1.398.053-.172.16-.321.247-.493l.206-.494.452-.492c-.218-.061-.374-.214-.576-.329-.199-.115-.21-.105-.411-.329-.141-.158-.201-.263-.329-.493-.189-.344-.333-.686-.288-1.357l.247-1.439c.04-.491-.034-.864.041-1.232.043-.216.119-.329.246-.493l.248-.247.082-.165c.087-.1.277-.189.329-.37-.245-1.316-.476-2.815-.575-4.274-.018-.265-.012-.536-.041-.782-.027-.229-.122-.436-.042-.658-.713.089-1.375.277-2.055.412-.669.133-1.346.269-2.056.37-.145-.197-.176-.509-.205-.822.257-.165.579-.151.863-.205l.863-.165c.764-.153 1.454-.383 2.384-.411.062-.132-.137-.238-.246-.329l-.042-.083h-.083l-.082-.123-.164-.042c-.17-.096-.279-.156-.576-.206-.298-.049-.541-.038-.905.041l-.247.082-.288.041c-1.028.234-2.345.494-3.411.657-.098-.231-.265-.61-.165-.904-.024-.094.118-.11.165-.123l.247-.041c.754-.167 1.553-.287 2.384-.452.466-.092.845-.182 1.397-.247l.452-.041c.721-.008 1.351.24 1.85.617.209-.712.409-1.375.781-1.973l.206-.329c.119-.191.291-.45.452-.657.259-.333.558-.621.863-.946l.083-.123.123-.042.37-.37.288-.288.124-.041.288-.247.123-.041.083-.123.123-.042.206-.165c.304-.168.688-.284 1.068-.411.16-.054.339-.151.535-.165.042-.311.168-.533.329-.781l.411-.576c.066-.102.049-.261.206-.287-.07-.655.093-1.271 0-1.891-.011-.074-.074-.279-.123-.412-.05-.131-.159-.246-.165-.369-.008-.153.097-.454.165-.699l.123-.493c.024-.109.104-.268.164-.412l.206-.493c.052-.132.087-.25.164-.37l.165-.329.165-.206c.106-.198.11-.299.287-.452l.083-.041c.131-.125.408-.325.534-.494.28-.065.487-.212.74-.328.069-.032.733-.124.986-.124.27 0 .633.086.987.164.68.151 1.217.468 1.808.781l.124.041.041.083.411.164.37.37.124.083.165.165.123.041.041.124.083.082.041.124.205.247.124.164.082.411.124.329c.053.402-.081.954-.083 1.479-.001.464.149.877-.082 1.192-.333.22-.064.858.041 1.233.091.335.23.624.245.91zm.247 20.963c-.14.026-.383-.053-.453.041.11.079.382.047.453-.041zm-14.222 1.068c-.103.192-.167.386-.206.616-.053.312-.092.604-.083.946h.576c-.027-.645.055-1.398-.041-1.973-.064.178-.165.261-.246.411zm-1.726 4.562l-.206.164-.246.124c-.166.085-.359.177-.534.247l-.452.123-.041.082-.124.04c-.561.333-1.11.743-1.603 1.11-.237.178-.485.354-.617.617 1.048.942 2.183 2 3.207 2.959.273.257.564.525.822.74.06.05.228.283.247.123v-2.302c.007-.116-.269.05-.206-.123-.027-1.315.055-2.74-.041-3.987-.034.099-.141.055-.206.083zm-6.699 2.919c-.081.078-.283.129-.206.246.09.06.203-.131.247-.246.091-.048.257-.233.205-.288l-.246.288zm7.069 6.164c-.062-.129-.208-.176-.206-.369-.059-.125-.007-.246.042-.37-.594-.621-1.169-1.286-1.727-1.89l-.452-.453-.123-.205-.288-.288c-.338-.37-.739-.771-1.027-1.108-.34-.399-.769-.876-1.11-1.192l-.041-.042c-.356.385-.635.845-.946 1.274 1.114 1.023 2.221 2.054 3.329 3.083.34.315.71.672 1.028.944l.945.864c.192.159.356.328.535.493l.412.411c.187.154.341.266.616.204-.012-.259.007-.485.042-.699-.086.029-.092-.063-.165-.081-.265-.064-.602.08-.781-.041.06-.265-.13-.281-.083-.535zm26.429-5.26c-.996.015-1.78-.086-2.631-.123-.69-.03-1.257-.045-1.931-.042l-.041.082v.083c.999.096 2.176.014 3.245.041.11-.013-.037.23.125.164.355-.035.883.046 1.232 0 .102-.014.324.048.247-.164-.008-.131-.198-.042-.246-.041zm-34.526.123c-.073.01-.082.082-.124.123-.127.127-.25.223-.37.37l-.041.123-.123.082-.042.124-.123.082-.042.124-.041.04-.205.288-.329.452c-.2.311-.354.652-.535.986l-.164.206-.082.287c-.125.267-.28.541-.37.781l-.205.534c-.11.283-.203.562-.289.862-.286 1.005-.458 2.106-.534 3.289.64-.018 1.275-.041 1.891-.083-.239-3.567.688-6.289 1.973-8.466l-.245-.204zm9.125.041v.123c.025.923-.033 2.006 0 2.877.004.125-.06.297.082.37.033-.966.158-2.219.165-3.082 0-.057.067-.272-.082-.288h-.165zm1.767.699h.37c.054-.193.042-.451.041-.699h-.411v.699zm2.384-.699c-.193.026-.493-.053-.617.041.193-.026.492.054.617-.041zm-11.796 1.726l-.247.453-.164.329v.122c-.096.298-.188.572-.288.781l-.123.247c-.082.214-.14.494-.206.74-.071.263-.167.528-.206.78-.04.257-.015.544-.042.821-.025.263-.102.535-.082.823 1.953-.09 3.903-.181 5.877-.247.019-.15-.125-.199-.206-.287-.108-.12-.264-.273-.328-.37-.102-.153-.281-.264-.371-.37l-.042-.124-.082-.081-.575-.577-.247-.327c-.119-.13-.295-.257-.37-.37l-.206-.247c-.192-.211-.484-.458-.617-.657-.078-.118-.167-.159-.246-.247l-.247-.328c-.119-.13-.294-.257-.37-.37-.147-.222-.382-.354-.493-.575l-.083-.042-.036.123zm9.535.741c.029-.082.11-.11.206-.124v-.698h-.287c.032.267-.079.681.081.822zm21.661-.535c-2.549 0-5.606-.033-7.933.042.142.145.362.076.534.081 1.446.043 2.904 0 4.316 0 1.526 0 3.188.088 4.644 0 .057-.004.247.064.247-.081v-.288c-.019-.093-.202-.017-.288-.041-.196.387-.918.287-1.52.287zm-18.085 0c-.6-.03-1.263.023-1.809 0l-.041.082c.686.096 1.548.014 2.302.041-.034-.211-.315-.116-.452-.123zm.904.123c.24.054.856.026.864-.123h-.986c-.034.092.061.109.122.123zm2.877-.123l-.041.082c-.043.003-.032.053.041.041.822-.027 1.818.037 2.59 0 .075-.004.277.067.288-.081-.877-.097-1.932-.015-2.878-.042zm-5.508 3.164c.069.037.126-.051.165-.081.441-.35.837-.809 1.233-1.151h-1.438c-.025.449.072.777.04 1.232zm2.796-.205l-.576.616c-.239.265-.499.546-.699.782.015-.017-.223.111-.041.122 2.31.144 4.721.184 7.028.329-.021-.965-.059-1.914-.083-2.877h-4.685c-.327.331-.654.713-.944 1.028zm6.575-.904v1.315h.042c-.015-.493.073-.886.041-1.397l-.083-.041v.123zm3.206 0c.221.896.297 1.929.37 2.919l.124.986c.121 1.408.027 2.87-.205 4.151h2.425c.987 0 2.175.107 2.878-.083.434-.116.769-.43 1.066-.615l.125-.042.164-.164.124-.041c.172-.132.411-.297.533-.411l.123-.042.166-.163.122-.041.37-.288.122-.041.166-.164c.127-.09.316-.134.37-.288v-5.796h-9.044c-.052 0-.05.114.001.123zm9.906 0v.493c.004.164-.06.457.082.453.096-.274.014-.727.043-1.069h-.125v.123zm-12.166 2.837h.535c-.18-.643-.323-1.322-.535-1.933v1.933zm12.166-.864v2.754c0 .935.006 1.844.125 2.671v-5.548h-.125v.123zm1.109.123c.192-.027.493.054.617-.041l-.124-.205h-.493v.246zm-29.675 2.015c-2.176-.103-4.56-.233-6.658-.288.047.227.011.536.082.739 2.475-.101 4.972-.181 7.398-.329-.221-.209-.557-.11-.822-.122zm16.359-.248v.864c.261.013.584-.035.781.041-.023-.319-.07-.614-.082-.945-.249-.001-.506-.014-.699.04zm-1.809.042c-1.125.1-2.429.111-3.658.164-1.193.051-2.398.093-3.534.206.235.149.519.071.78.083 2.106.083 4.449.214 6.494.286-.027-.233.054-.574-.041-.739h-.041zm-24.948 2.056c.276 3.82 1.673 6.52 3.617 8.672.27-.415.72-.758.986-1.11l.452-.493c.114-.15.273-.238.329-.41-1.562-1.768-2.765-3.894-3.288-6.699-.729.003-1.419-.033-2.096-.083v.123zm26.757 1.766l.247-.821c.039-.045.152-.014.124-.124.076-.308.156-.611.247-.904h-.617c.056.646-.101 1.297-.001 1.849zm-7.152-1.52c-.037.108.113.147.165.205l.206.246.329.329.082.165.452.451.206.247c.07.074.142.184.247.206h3.864c-.075-.652-.017-1.437-.083-2.096-1.818.088-3.671.139-5.468.247zm-15.495-.041c.111.579.287 1.271.535 1.644.145.22.273.573.37.781l.041.123c.106.286.197.504.329.698l.37.535.206.247c.251.362.438.769.781 1.026 1.107-1.233 2.235-2.465 3.329-3.658l.575-.575.247-.329c.094-.103.264-.165.288-.328-2.37-.096-4.705-.228-7.11-.288l.039.124zm14.879 1.684l-.083-.123-.165-.083-.329-.369-.165-.082c-.142-.129-.334-.402-.534-.493l-.041-.083c-.128-.107-.298-.301-.412-.328l-.821.041c-.117.33.256.522.411.698l.164.247.206.164c.192.198.409.56.617.617.403.11.794-.08 1.315 0 .028-.113-.104-.148-.163-.206zm18.084-.369l-.122.122-.207.083-.122.123-.166.082-.286.247-.165.082c-.499.358-1.063.646-1.81.699-1.463.104-3.194-.078-5.013 0-.086.353-.182.695-.288 1.027 2.029-.112 4.298.168 6-.041l.413-.042.204-.123.288-.082c.157-.078.403-.285.493-.37l.122-.041.125-.124.615-.41.288-.205c.27-.201.58-.35.78-.576-.063-.165-.043-.43-.081-.534-.011-.025-.076-.085-.041-.163v-.412l-.041-.041c-.273.258-.683.491-.986.699zm-24.701.575l-.206.205-.123.041-.411.453-.206.122-1.192 1.151-.617.534-1.233 1.151c-.096.088-.618.526-.616.575.004.093.684.496.739.534l.164.165.124.04c.19.145.414.311.576.411l.083.082c.261.174.623.349.863.453l.246.081.411.247.37.041c.197.055.348.21.575.206l.165.164c.33.026.565.147.862.205-.081-1.315-.121-2.674-.165-4.027-.685-.028-1.479.055-2.096-.041.017-.312-.04-.698.042-.945h2.014c.006-.349-.072-.614-.042-.986-.098-.025-.298.051-.329-.042-.091-.213-.026-.592.002-.82.179.016.358.028.287-.206-.153-.059-.205.131-.287.206zm2.384-.041c.005-.055.005-.299-.042-.165-.005.055-.006.298.042.165zm4.274 1.439c.148.162.285.396.493.452.229.062.551 0 .822 0h.822l-.041-.124c-.294-.158-.438-.466-.74-.616-.119-.333-.601-.246-1.068-.246-.291 0-.56-.031-.74.041l.452.493zm3.74.287c.066.071.141.183.247.206h2.589l.124-.165c.113-.228 0-.592.041-.862-1.233.026-2.576-.055-3.741.041.286.223.52.545.74.78zm-6.494.165c.22-.026.547.054.699-.042-.269-.143-.419-.402-.659-.575-.083.135-.021.417-.04.617zm-1.644.986c-.047.006-.044.065-.041.123-.105 1.347-.129 2.775-.206 4.151.253-.021.393.073.658.04-.007-1.03-.08-2.094-.124-3.081-.013-.292.027-.582 0-.864-.009-.09-.019-.375-.124-.369h-.163zm6.453 2.835l-.37-.41-.247-.165c-.304-.281-.669-.673-.986-.945-.366-.312-.682-.627-1.027-.945-.179-.163-.328-.335-.453-.369-.233-.063-.563 0-.862 0h-.904c-.087 1.435-.126 2.915-.206 4.356l1.809-.164c.181-.034.344-.113.534-.165.342-.092.696-.172 1.027-.246l.124-.082h.165l.123-.083.288-.082.329-.246.411-.166c.114-.05.223-.196.371-.122.095-.108-.088-.127-.126-.166zm1.356-.575c.376-.363.912-.567 1.232-.986-.324-.252-.706-.694-1.027-.986l-.123-.041c-.13-.099-.153-.209-.288-.246-.164-.045-.566 0-.904 0-.368 0-.842-.031-.986.04.746.693 1.357 1.52 2.096 2.219zm1.891-1.685c.132-.044.237-.155.329-.247.091-.092.202-.195.246-.328-.343.027-.794-.055-1.068.04.202.141.338.348.493.535zm12.33.946c.076.192.381.318.493.411l.329.246c.126-.354.273-.685.37-1.067-.542-.008-.83.237-1.192.41zm-.821 1.52c.237-.051.464-.109.74-.123l.37-.37c-.209-.23-.34-.537-.577-.739-.253.334-.5.677-.533 1.232zm-29.429-.287l-.123-.041c-.162.21-.349.362-.535.534l-.329.329-.164.082c-.173.157-.305.366-.494.451l-.042.083c-.122.104-.282.203-.329.37 2.201 1.923 4.809 3.438 8.713 3.657-.055-.699-.082-1.425-.082-2.178-2.762-.537-4.875-1.726-6.615-3.287zm17.303.945c.085.011.083.11.124.164.115-.027.173-.169.247-.247l.206-.164.041-.123.247-.246.083-.165c.021-.029.156-.061.082-.124-.282.365-.738.552-1.03.905zm12.167-.041l.204-.288c-.133.024-.189-.028-.286-.041.026.111.016.256.082.329zm2.426.863l.164.042.081-.37-.163-.083-.082.411zm-15.579-.164c-.169-.045-.62.326-.781.411-.173.09-.362.131-.535.205l-.164.123c-.23.105-.492.196-.74.288-1.702.636-3.866 1.072-6.206.863-.034.651-.076 1.294-.083 1.973 2.094-.018 3.921-.595 5.343-1.233.643-.287 1.225-.618 1.768-.985l.288-.164.042-.082h.082l.041-.084.247-.123.206-.205c.281-.22.646-.4.822-.739-.173-.126-.194-.212-.33-.248zm14.015.657c.286.156.671.421 1.11.288-.022-.357-.086-.39-.246-.617-.102-.144-.176-.314-.288-.37-.239.186-.512.339-.576.699zm3.905.411l.74.083c-.062-.338-.09-.705-.288-.904-.112.31-.304.544-.452.821zm-.617.739c.151.164.241.351.37.535.119.169.288.327.37.534.18-.041.256-.242.329-.37.151-.259.249-.654.288-.945l-.041-.041c-.398.139-.946.123-1.316.287zm-2.834 1.153c.135-.249.343-.423.451-.699-.427.029-.636-.159-.987-.205.105.374.286.672.536.904zm.245.205c.01.092.129.15.206.205.307.218.849.42 1.232.37-.112-.407-.165-.877-.247-1.315l-.082-.04c-.351.276-.72.537-1.109.78zm1.768.575c.617-.041 1.051-.266 1.355-.617-.401-.216-.714-.519-1.108-.738-.124.409-.171.896-.247 1.355z"/></svg>