<svg xmlns="http://www.w3.org/2000/svg" width="100" height="100"><circle fill="#B2B2B2" cx="50" cy="50" r="50"/><path d="M78.395 19.224h-56.789c-1.126 0-2.048 1.359-2.048 3.021v54.295c0 1.662.922 3.021 2.048 3.021h3.988c-.031.058-.032.129.017.209l.41.67c.113.185.417.336.674.336h.705c.257 0 .56-.151.673-.336l.41-.67c.049-.08.048-.151.018-.209h43.131c-.03.058-.031.128.018.207l.41.67c.113.186.416.336.674.336h.706c.258 0 .561-.15.674-.336l.409-.67c.049-.079.047-.149.018-.207h3.854c1.126 0 2.048-1.358 2.048-3.021v-54.295c-.001-1.662-.922-3.021-2.048-3.021zm-5.181 38.045h-.594v.424h.495c-.593 2.465-1.363 4.275-2.299 4.974 0 0-.918 1.014-12.048 1.381v-.114h-.424v.128c-2.274.07-4.959.114-8.133.117v-.245h-.424v.246c-3.153 0-5.841-.037-8.133-.101v-.146h-.424v.134c-11.941-.351-12.759-1.4-12.759-1.4-1.884-1.573-2.998-7.125-3.378-13.519h.095v-.424h-.118l-.032-.582h16.206l1.076-1.786 2.422 4.073.229-1.281h.545v-.424h-.47l1.624-9.096 1.029 9.096h-.489v.424h.537l1.214 10.731 1.058-5.263h.193v-.846h-.023l1.148-5.715.7 1.286 1.961-5.331 1.678 4.714h-.842v.424h.847v-.411l.408 1.147 1.628-2.227.472.484h16.186c-.193 3.386-.586 6.576-1.161 9.128zm1.238-10.822h-7.139v-.301h-.423v.301h-7.986l-.135-.138v-.163h-.159l-1.077-1.106-.921 1.259-2.585-7.268-2.288 6.217-1.143-2.099-.603 2.997h-.205v.847h.035l-.394 1.957-1.914-16.916h.542v-.424h-.59l-.422-3.729-2.194 12.299h-.182v.423h.106l-.901 5.051-1.544-2.597-.674 1.12v-.572h-.424v.847h.258l-1.202 1.995h-7.178v-.301h-.423v.301h-7.709c-.052-1.94-.037-3.913.038-5.844h.173v-.423h-.156c.309-7.067 1.464-13.455 3.439-15.162 0 0 .36-.699 12.759-.924v.031h.424v-.039c2.292-.039 4.976-.062 8.133-.062v.101h.424v-.1c3.175.002 5.861.028 8.133.071v.029h.424v-.02c11.693.235 12.048.914 12.048.914 2.868 2.345 3.967 12.3 3.635 21.428z"/><rect x="49.752" y="57.269" width=".847" height=".424"/><rect x="62.456" y="57.269" width=".848" height=".424"/><rect x="70.079" y="57.269" width=".848" height=".424"/><rect x="54.834" y="57.269" width=".847" height=".424"/><rect x="52.293" y="57.269" width=".847" height=".424"/><rect x="64.997" y="57.269" width=".848" height=".424"/><rect x="59.916" y="57.269" width=".847" height=".424"/><rect x="57.375" y="57.269" width=".847" height=".424"/><rect x="67.538" y="57.269" width=".848" height=".424"/><rect x="31.965" y="57.269" width=".847" height=".424"/><rect x="29.424" y="57.269" width=".847" height=".424"/><rect x="37.047" y="57.269" width=".847" height=".424"/><rect x="39.588" y="57.269" width=".847" height=".424"/><rect x="47.21" y="57.269" width=".847" height=".424"/><rect x="42.128" y="57.269" width=".847" height=".424"/><rect x="26.883" y="57.269" width=".847" height=".424"/><rect x="34.506" y="57.269" width=".847" height=".424"/><rect x="44.669" y="57.269" width=".847" height=".424"/><rect x="26.883" y="48.724" width=".847" height=".424"/><rect x="29.424" y="48.724" width=".847" height=".424"/><rect x="59.916" y="48.724" width=".847" height=".424"/><rect x="57.375" y="48.724" width=".847" height=".424"/><rect x="34.506" y="48.724" width=".847" height=".424"/><rect x="42.128" y="48.724" width=".847" height=".424"/><rect x="62.456" y="48.724" width=".848" height=".424"/><rect x="52.293" y="48.724" width=".847" height=".424"/><rect x="37.047" y="48.724" width=".847" height=".424"/><rect x="39.588" y="48.724" width=".847" height=".424"/><rect x="72.62" y="48.724" width=".847" height=".424"/><rect x="64.997" y="48.724" width=".848" height=".424"/><rect x="67.538" y="48.724" width=".848" height=".424"/><rect x="70.079" y="48.724" width=".848" height=".424"/><rect x="39.588" y="40.18" width=".847" height=".423"/><rect x="34.506" y="40.18" width=".847" height=".423"/><rect x="31.965" y="40.18" width=".847" height=".423"/><rect x="37.047" y="40.18" width=".847" height=".423"/><rect x="26.883" y="40.18" width=".847" height=".423"/><rect x="29.424" y="40.18" width=".847" height=".423"/><rect x="42.128" y="40.18" width=".847" height=".423"/><rect x="59.916" y="40.18" width=".847" height=".423"/><rect x="54.834" y="40.18" width=".847" height=".423"/><rect x="57.375" y="40.18" width=".847" height=".423"/><rect x="49.752" y="40.18" width=".847" height=".423"/><rect x="52.293" y="40.18" width=".847" height=".423"/><rect x="70.079" y="40.18" width=".848" height=".423"/><rect x="72.62" y="40.18" width=".847" height=".423"/><rect x="64.997" y="40.18" width=".848" height=".423"/><rect x="62.456" y="40.18" width=".848" height=".423"/><rect x="67.538" y="40.18" width=".848" height=".423"/><rect x="44.669" y="31.61" width=".847" height=".424"/><rect x="26.883" y="31.61" width=".847" height=".424"/><rect x="29.424" y="31.61" width=".847" height=".424"/><rect x="64.997" y="31.61" width=".848" height=".424"/><rect x="54.834" y="31.61" width=".847" height=".424"/><rect x="62.456" y="31.61" width=".848" height=".424"/><rect x="42.128" y="31.61" width=".847" height=".424"/><rect x="59.916" y="31.61" width=".847" height=".424"/><rect x="52.293" y="31.61" width=".847" height=".424"/><rect x="57.375" y="31.61" width=".847" height=".424"/><rect x="70.079" y="31.61" width=".848" height=".424"/><rect x="39.588" y="31.61" width=".847" height=".424"/><rect x="72.62" y="31.61" width=".847" height=".424"/><rect x="67.538" y="31.61" width=".848" height=".424"/><rect x="34.506" y="31.61" width=".847" height=".424"/><rect x="37.047" y="31.61" width=".847" height=".424"/><rect x="66.89" y="48.688" width=".424" height=".847"/><rect x="66.89" y="56.311" width=".424" height=".847"/><rect x="66.89" y="61.392" width=".424" height=".848"/><rect x="66.89" y="51.229" width=".424" height=".847"/><rect x="66.89" y="58.852" width=".424" height=".847"/><rect x="66.89" y="35.982" width=".424" height=".847"/><rect x="66.89" y="53.77" width=".424" height=".847"/><rect x="66.89" y="25.818" width=".424" height=".847"/><rect x="66.89" y="33.441" width=".424" height=".847"/><rect x="66.89" y="38.523" width=".424" height=".847"/><rect x="66.89" y="43.605" width=".424" height=".847"/><rect x="66.89" y="41.064" width=".424" height=".847"/><rect x="66.89" y="30.9" width=".424" height=".847"/><rect x="66.89" y="28.359" width=".424" height=".847"/><rect x="58.345" y="25.818" width=".424" height=".847"/><rect x="58.345" y="30.9" width=".424" height=".847"/><rect x="58.345" y="28.359" width=".424" height=".847"/><rect x="58.345" y="38.523" width=".424" height=".847"/><rect x="58.345" y="41.064" width=".424" height=".847"/><rect x="58.345" y="61.392" width=".424" height=".848"/><rect x="58.345" y="33.441" width=".424" height=".847"/><rect x="58.345" y="43.605" width=".424" height=".847"/><rect x="58.345" y="58.852" width=".424" height=".847"/><rect x="58.345" y="56.311" width=".424" height=".847"/><rect x="58.345" y="48.688" width=".424" height=".847"/><rect x="58.345" y="35.982" width=".424" height=".847"/><rect x="58.345" y="51.229" width=".424" height=".847"/><rect x="58.345" y="53.77" width=".424" height=".847"/><rect x="49.788" y="61.392" width=".424" height=".848"/><polygon points="50.212,30.9 49.788,30.9 49.788,31.61 49.752,31.61 49.752,32.034 50.599,32.034 50.599,31.61 50.212,31.61"/><rect x="49.788" y="56.311" width=".424" height=".847"/><rect x="49.788" y="58.852" width=".424" height=".847"/><rect x="49.788" y="35.982" width=".424" height=".847"/><rect x="49.788" y="33.441" width=".424" height=".847"/><rect x="49.788" y="38.523" width=".424" height=".847"/><rect x="49.788" y="25.818" width=".424" height=".847"/><rect x="49.788" y="28.359" width=".424" height=".847"/><rect x="49.788" y="41.064" width=".424" height=".847"/><rect x="49.788" y="43.605" width=".424" height=".847"/><rect x="41.231" y="58.852" width=".424" height=".847"/><rect x="41.231" y="56.311" width=".424" height=".847"/><rect x="41.231" y="61.392" width=".424" height=".848"/><rect x="41.231" y="38.523" width=".424" height=".847"/><rect x="41.231" y="41.064" width=".424" height=".847"/><rect x="41.231" y="53.77" width=".424" height=".847"/><rect x="41.231" y="30.9" width=".424" height=".847"/><rect x="41.231" y="25.818" width=".424" height=".847"/><rect x="41.231" y="35.982" width=".424" height=".847"/><rect x="41.231" y="28.359" width=".424" height=".847"/><rect x="41.231" y="51.229" width=".424" height=".847"/><rect x="41.231" y="33.441" width=".424" height=".847"/><rect x="41.231" y="48.688" width=".424" height=".847"/><rect x="32.687" y="61.392" width=".423" height=".848"/><rect x="32.687" y="56.311" width=".423" height=".847"/><rect x="32.687" y="53.77" width=".423" height=".847"/><rect x="32.687" y="58.852" width=".423" height=".847"/><rect x="32.687" y="28.359" width=".423" height=".847"/><polygon points="32.687,31.61 31.965,31.61 31.965,32.034 32.812,32.034 32.812,31.748 33.11,31.748 33.11,30.9 32.687,30.9"/><rect x="32.687" y="33.441" width=".423" height=".847"/><rect x="32.687" y="51.229" width=".423" height=".847"/><rect x="32.687" y="25.818" width=".423" height=".847"/><rect x="32.687" y="35.982" width=".423" height=".847"/><rect x="32.687" y="43.605" width=".423" height=".847"/><polygon points="32.687,48.724 31.965,48.724 31.965,49.147 32.687,49.147 32.687,49.534 33.11,49.534 33.11,48.688 32.687,48.688"/><rect x="32.687" y="38.523" width=".423" height=".847"/><rect x="32.687" y="41.064" width=".423" height=".847"/></svg>