<svg xmlns="http://www.w3.org/2000/svg" width="100" height="100"><circle fill="#B2B2B2" cx="50" cy="50" r="50"/><path d="M82.915 59.72l-1.325-.526v-12.873h1.963l-.248-1.733-1.371-10.992h-.194v-4.765l.193-.109v-1.41h-.836v-.811h-1.52v.757h-.686v1.407l.192.219v4.494h-14.429l-7.457-8.23-.783.866-11.78-11.589-24.931 27.129-.725.058.099.499 3.706 2.041v13.859l-8.357 1.712v.498l.2.162.9.061v.552h.35v.937h2.551v.828l.226.248v12.508h-.166v1.365h-.333v1.51h.279v2.315h13.093v.619h13.123v.491l-.238.266v.354h.211v.709h-.307v.432h21.203v-.432h-.309v-.709h.21v-.354l-.235-.266v-.491h14.641v-1.86h.439v-.38h.934v-17.045l.015-1.062h.317l.031-.537 1.599.019.415-.291v-.45h-.66zm-59.319 11.678h-3.632v-8.189l.273-.3v-.72h2.888v7.914h.471v1.295zm11.404.602h-6.25v-8h6.25v8zm0-16.5h-6.5v-8.75h6.5v8.75zm17.25 16.25h-6.75v-8h6.75v8zm.5-15.75h-7v-9.5h7v9.5z"/></svg>