<svg xmlns="http://www.w3.org/2000/svg" width="100" height="100"><circle fill="#B2B2B2" cx="50" cy="50" r="50"/><g fill-rule="evenodd" clip-rule="evenodd"><polygon points="13.106,24.361 13.021,24.337 12.988,24.419 13.083,24.419"/><polygon points="13.054,25.01 13.196,25.045 13.234,24.893 13.078,24.86"/><polygon points="14.997,27.076 14.908,27.047 14.908,27.216 14.972,27.194"/><polygon points="14.966,30.155 15.085,30.173 15.121,29.967 15.085,29.908 14.971,29.967"/><path d="M86.682 26.119c-.179-.053-2.004-.626-2.494-.77-.492-.144-3.208-1.01-3.735-1.177-.53-.166-2.966-.994-3.342-1.135.059-.353-.115-.545-.147-.594-.031-.049-.155-.285-.938-.836-.781-.551-2.165-1.143-2.347-1.206-.178-.063-1.042-.321-1.067-.322l-.09.038-.084-.002-.038-.104s-4.557-.434-4.606-.427c-.047.007-.848.27-1.341.581-.396.231-.58.661-.58.661s-.184.882-.258 1.209l.078.504-1.903 10.878-.181.147-.244 1.583-.037.046c-.35-.034-.76-.054-1.202-.054-1.254 0-2.271.157-2.271.343l.01.598c-1.137-.37-3.804.431-3.804.431-.975-.227-5.308.227-5.308.227-1.729-1.026-4.764-.796-4.764-.796l-1.409-1.483c0-1.026-.753-1.944-.753-1.944 0-.798-1.768-3.543-1.768-3.543.844 0 1.116-1.587 1.116-1.587l.326-1.026c.326-.572.759-.227.759-.227.539.113.756-.459.756-.459l-.114-1.598c.438-.113.438-2.282.438-2.282l.213-1.711.869.115c.106-.684-1.3-2.395-1.3-2.395-1.841-3.422-6.282-2.398-6.282-2.398-2.49.115-4.872 6.279-4.872 6.279-.214.34.319.909.319.909l-.753.46c-.432-1.259-2.814 1.253-2.814 1.253-2.601 1.939-6.498 6.845-6.498 6.845-.615 1.114-2.17 3.914-3.538 6.374-.826.472-4.389 2.577-5.654 4.47-.081.09-.151.197-.201.341-.253.488-.332.954-.137 1.365l.019.043c.263 4.997 5.265 17.858 5.265 17.858.325.867 1.107 1.495 2.166 1.948-1.028 2.365-2.747 7.346-3.118 14.835-.541 10.836.976.227.976.227s1.499-10.723 3.333-14.656c2.42.66 5.694.706 8.547.56l.474 1.867c-.854 2.688-1.925 7.196-2.191 13.481-.46 10.841.826.228.826.228s.805-6.769 1.919-11.523l1.708 6.732s.323-.681.113-3.42l-1.153-5.746c.271-.817.553-1.449.839-1.802l.201-.02-.032.038.187-.053c1.961-.19 3.311-.406 3.311-.406.565-.062 1.008-.333 1.295-.689l.12.015.105.446c0 .568 1.246 3.132 1.974 4.582l1.838 8.539s.282-.683.097-3.421l-.482-2.819c.494.641 1.071 1.365 1.552 1.962v8.495l.107.118h2.165l.114-.118v-5.49c.363.399.654.705.654.705-.438 1.141 1.292 1.709 1.292 1.709.429 0 2.167 1.938 2.167 1.938 4.769 2.056 3.79-2.396 3.79-2.396 8.659-2.739-2.815-3.422-2.815-3.422-.975-.456-.326-2.621-.326-2.621 0-.915.761-12.096.761-12.096 0-1.484.541-7.189.541-7.189 0-2.502-4.62-2.891-6.063-2.951v-7.311l-.114-.117h32.922l-.103.117v39.123l.103.118h2.171l.107-.118v-39.122l-.107-.117h2.165l.108-.115v-1.486l-.108-.111h-7.27v-.217c-.03-.108-.137-.162-.137-.162s-1.465-.619-1.335-.634c.129-.016.322-.226.322-.226l3.47.122.31.188c.139.091.276.197.336.21.125.028.616.042.682.051l.064-.05.044-.339s1.405.078 1.564.074c.16-.003.158-.122.158-.122l.274-1.599.314-1.813.042-.22c.559-.029 1.779.061 1.979.072.198.011.202-.17.202-.17s.189-1.041.289-1.638c.103-.596.349-1.898.441-2.458s.236-1.406.489-2.512c.253-1.107.55-1.895.649-2.236.063-.198-.138-.199-.317-.251zm-19.927 12.052c.237.142.876.469.895.48l-.146.056-.876.418s-.346 0-.757-.08c-.412-.079-1.104-.204-1.668-.268l-.15-.014c.079-.435.144-.935.195-1.417.254.185.399.208.469.238.081.037 1.696.499 2.038.587zm-22.174 3.707v7.226c-.822.014-1.756.052-2.549.09-.263-.796-.924-1.635-2.427-2.181.062-1.277-.221-3.655-.221-3.655.435-1.255 1.079-4.223 1.079-4.223h1.735c.146.433.429.72.761.913h-.542l-.111.111v1.486l.111.115h2.27l-.106.118zm15.429-1.83c.23-.199.271-.456.271-.456l.188-.072c.113.28.197.411.197.411h2.924c.175 0 .319-.426.436-1.013l.062.001c.311.003 1.246.16 1.757.256.265.05.539.052.539.052l-1.135.556s-.053.176-.032.265h-5.207zm15.151-1.136s-.079-.097-.01-.1l.326.007s-.157.114-.316.093z"/></g></svg>