<svg xmlns="http://www.w3.org/2000/svg" width="100" height="100"><circle fill="#B2B2B2" cx="50" cy="50" r="50"/><path d="M74.942 72.042c-3.807-2.219-8.087-3.432-12.15-5.078-4.016-1.498-8.236-2.355-12.199-3.996-2.213-.839-4.575-.813-6.901-.544-.048-11.996 2.755-23.417 11.13-32.789-.875 3.139-2.234 6.046-3.72 8.951h2.424l-1.919 1.92c.674 4.344 1.348 8.688 2.021 13.034l6.062-12.023-1.92-2.729 2.021-.909c-.279-3.291-.837-6.537-2.986-9.101 2.216 2.275 3.989 4.842 5.674 7.53l1.168-1.955.623 2.472c3.828 1.548 7.656 3.097 11.483 4.646-2.259-3.559-4.518-7.119-6.775-10.678l-3.125.234.239-2.067c-2.894-1.41-5.89-2.576-9.126-1.928-.266.087-.692.052-.863.21l.083.79-.189-.169c.031-.382-.133-.695-.539-.818v-.002l.47.2c2.828-.872 5.696-1.138 8.628-1.293l-.968-1.667 2.086.554c2.716-2.197 5.435-4.393 8.153-6.589l-10.684.629-1.11 2.408-1.431-1.026c-2.231 1.562-4.324 3.3-5.173 5.961l-.116.332-.005-.02c-.755-2.883-2.888-4.852-5.179-6.641l-1.582 1.013-1.049-2.627-11.348-1.268c2.773 2.493 5.546 4.984 8.318 7.478l2.253-.474-1.123 1.722c.979.104 1.95.222 2.915.364-1.21.097-2.427.319-3.637.583l-.256 2.065-2.98-.968-9.111 8.769 12.257-1.795 1.191-2.254.671 2.176c1.186-1.154 2.385-2.271 3.641-3.319-8.327 8.94-12.136 19.762-11.162 31.932-4.278 1.295-8.065 3.879-11.645 6.505-2.49 1.197-5.626 2.673-6.015 5.741-.016.529.233 1.076.708 1.341 2.563 1.602 5.348 2.843 8.306 3.484 4.952 1.284 10.061-.071 15.085.283 2.597-.277 4.93 1.009 7.458 1.163 2.761.066 5.556-.236 8.265.464 3.193.611 6.64 1.317 9.728-.113 2.799-1.018 5.15-3.01 7.169-5.137 1.321-2.297-1.381-4.195-3.244-4.977z"/></svg>