<svg xmlns="http://www.w3.org/2000/svg" width="100" height="100"><circle fill="#B2B2B2" cx="50" cy="50" r="50"/><path d="M42.492 36.644c-.044-.607.032-.877.156-1.424.126-.583.275-1.094.259-1.703-.033-1.291-.41-3.092-.778-4.373-.258-.889-.319-.685-.656-1.34-.314-.611-.362-1.099-.881-1.694-.344-.391-.987-.881-1.445-1.122l-.417-.208-.425-.156c-.036-.025-.256-.328-.291-.383-.239-.375-.312-.729-.427-1.165l-.583.259-.299-.579c.137-.051.475.054.538-.177.034-.121.011-.881.136-1.194.167-.414.251-.665.354-1.125.064-.295.174-.951.197-1.235l.02-.779-.05-.832-.197-.819-.364-.77-.634-.738c-.132-.134-.341-.283-.528-.311-.135-.021-.441.02-.593.02-.642-.002-.46-.139-.685-.25l-.302-.136-.457-.07c-.582-.064-1.744-.027-2.326.062-.252.042-.486.082-.718.186-.39.173-1.84 1.588-2.421 1.985-.287.196-.343.158-.654.445-.63.589-.405.615-.477.833l-.074.136-.062.186.01.072c.11-.126.169-.161.332-.198.047.066.092.146.178.167.052.011.157-.012.238.103.044.068.07.223.135.27l.061.021c.039.017.124.085.2.062.066-.022.144-.121.165-.188.041-.126.035-.198.313-.233-.065.197-.074.377-.074.586l.01.005c-.011.278.042.773.147 1.038l-.085.08.188.259c.037.185.034.159-.01.344-.105.428-.184.864-.208 1.309-.014.271-.024.368.396.417.11.011.225.002.269.113.074.182-.104.434.031.55.093.08.208.007.197.198l-.073.29c.031.113.04.09.105.146l.228.259.049.191-.018.039.019-.025-.009.149.041.415.051.073-.019.01c.033.066.143.166.209.198l.189.058-.004.016c.167 0 .33.018.495-.004l.004.004c.409.021.632-.035 1.027-.074.296-.029.306-.037.468.187l.003-.006c.088.135.157.29.34.358.14.055.111-.004.207.189l.131.25c-2.13 2.446-2.364 7.613-3.103 10.564l-.145.508c-.06.225-.174.821-.198 1.05-.037.366-.017.754-.009 1.122.001.101-.042.151-.074.248-.078.242-.101.753-.093 1.008.014.488.128.972.312 1.424.075.176.454 1.083.602 1.215l.072.058-.029.774-.895.196c-.321.081-.168.081-.436.043-.285-.043-.583-.039-.872-.053-.226-.016-.368-.062-.634-.042-.953.074-1.328.659-1.589.811-.142.082-.492.408-.633.531l-.083.103-.006.179-3.08-.428c-2.672 1.329-5.247 2.682-7.896 4.029l.088.119 7.579-.002 3.342-1.896.139.036c.178.036.317-.01.644.083.229.064.451.185.696.197l.343.052c.381.08.21.084.353.135.09.031.298.004.395.012.161.013.397.076.581.009.259-.091.694-.694 1.205-.758.137-.016.291.019.41-.06-.141.679-.287 1.359-.451 2.034-.181.749-.382 1.494-.552 2.244l-.247 1.194-.134.906-.053.787c-.01.363.018.97.042 1.34.046.704.12 1.33.094 2.048-.07 1.295-.254 2.582-.374 3.875l-.125 1.412-.114 1.382-.063 1.381-.041 1.414.031 1.474.074 1.579.053 1.674-.147 1.515-.283 1.383-.414 1.276-.51 1.175-.582 1.11-.633 1.062-.615.959-.165.068-1.079.779c-.433.189-.828.224-1.28.28-.538.073-.433.062-.954.062-.319 0-.794-.032-1.061.168-.274.204-.245.472-.322.56-.088.1-.461.167-.218.376.104.087.125.066.29.248.167.174.178.202.364.312.236.139.462.233.717.345.325.13.269.226.707.342.583.153.938.3 1.588.302.938 0 2.244-.286 3.21-.354.127-.01.436-.032.551-.01.079.2-.042.406.207.424l3.167.053.282-.053c.075-.038.208-.373.218-.457.014-.111-.031-.271-.042-.383l-.011-.603-.046-.164.246.018c.157-.381.173-.385.249-.799.073-.404.094-.822.217-1.215l.167-.426.281-.447.425-.447.862-1.787.323-1.881-.021-.507c.333.479 1.261 1.67 1.413 2.098l.188.706-.011.624-.146.57-.219.571-.207.604-.103.443-.022.043-.051.404c-.052.479.009 1.153.157 1.622.055.175.119.387.149.567l-.274.265c-.465.396-1.581 1.056-2.171 1.205-.391.098-1.246.098-1.536.394-.228.231-.143.446-.177.562l-.035.084-.018-.011c-.04.096-.158.207-.167.31l.013.064v.104l.145.196.228.167c.142.082.483.208.644.249.165.043.58.112.758.134l.363.031.301.043c.301.024 1.067.027 1.383.021 1.095-.023 2.58-.186 3.646-.427l.564-.144.185.247c.215-.048 2.235-.491 2.307-.528l.218-.199.166-.291c.077-.179.161-.594.177-.759.014-.144.012-.642-.011-.777-.078-.257-.064-.529-.103-.842l-.031-.178-.032-.478.217-.998c.075-.418.205-1.597.229-2.024.021-.386.034-1.627.02-2.016-.011-.372-.095-1.523-.135-1.9l-.114-.861c-.148-1.14-.297-2.277-.487-3.408-.229-1.304-.466-2.603-.738-3.896-.163-.774-.742-3.39-.883-3.804-.123-.357-.435-.938-.569-1.277-.075-.183-.237-.696-.261-.883l-.012-.467.083-.466.136-.49c.232-1.014.217-2.381.208-3.429l-.013-.601.053-.436.113-.345c2.227-2.917 2.895-5.528 1.256-9.025l-.185-.812-.1-.307.639-.523.685-.728.489-.727.303-.716.175-.758.063-.801c.022-.583-.03-1.75-.105-2.326-.093-.709-.37-1.43-.424-2.192zM79.224 83.879c0-.12-.103-.548-.394-1.028-.291-.479-2.399-.548-2.69-.548s-.445-.239-.65-.411c-.206-.172-.548-.31-.668-.394-.12-.086-.258-.378-.532-.446-.273-.068-.377-.068-.496-.359-.12-.291-.479-.686-.565-.771-.086-.085.086-.325.463-.463.377-.136.067-.309.205-.685.138-.377.154-.977.172-1.251.017-.274-.223-.6-.875-.788-.65-.188-1.541-1.679-1.695-1.833s-.188-.497-.154-.926c.034-.428.24-3.7.273-4.54.035-.84-.497-2.176-.616-2.416-.119-.239.018-.891 0-1.422s-.137-2.964-.188-3.427c-.052-.462-.292-4.438-.257-5.122.034-.687-.411-3.376-.686-3.924-.273-.549-.273-2.553-.257-2.981.017-.429.052-.856.068-1.714.017-.856-.36-2.946-.429-3.272-.068-.325.104-1.593.104-1.833s-.035-4.438-.052-4.763c-.017-.326-.257-.771-.325-1.011s-.309-2.057-.326-2.622c-.017-.565-1.439-4.609-1.695-5.191-.258-.583-1.68-2.553-1.491-2.759.188-.205.702-.942.908-1.285.206-.343.686-1.028.822-1.028s.411.223.583.668c.171.446 1.336.651 1.627.309.291-.343-.309-2.245-.479-2.553-.086-.154-.258-.026-.121-.515.257-.912-.58-1.08-.531-1.079.754.017.754-.239.617-.548-.137-.308-1.183-1.131-1.113-1.319.068-.189-.052-1.114-.052-1.114s1.97.069 2.176.018c.206-.052 0-.445 0-.445l-1.542-.446s-1.555-3.628-2.639-4.232c-2.98-1.662-5.859.24-6.99 1.576l-.239 4.711s-.24.097-.24.257c0 .428.737.411.737.411s.137.805.496 1.165l.496.428s.016.532.136.943c.12.412.479.754.479.754s.043.561-.033.6l-.789.376c-.223.121-.325.154-.531.343-.205.188-.291.497-.496 1.011-.205.514-1.285 1.525-2.228 2.742s-1.765 3.975-1.851 4.608c-.086.634.086 3.564.154 4.506.068.943.445 3.41.429 3.684-.018.274 0 1.85-.292 2.552-.291.703-.394 2.451-.428 3.17-.034.72 0 1.919-.154 2.022-.154.103-.806.753-.856.616-.052-.137-1.148-1.25-1.148-1.25s-.206.257-.6.292-.445.137-.839.497c-.394.359-.206.839-.565 1.113-.36.275-.634.72-.891 1.2-.257.479-2.056 3.152-2.467 3.392-.411.24-.257.377-.257.377s.651.892 1.131 1.268c.48.377.634 1.131 1.233 1.628.6.497 1.097 1.594 1.097 1.594s1.029.273 1.097-.086l.805-1.405s-.171.583.068.669c.24.086.84.257 1.098.377.256.119.462.394.924.668.463.274 1.062.394 1.594.017.531-.376 1.404-1.182 1.594-2.793.188-1.609-.686-2.638-1.028-3.117-.343-.48-.479-.994-.479-.994l.479-.119c.257-.069.651-.463.668-.412.018.052.309.445.377.651s.034.6.017.908c-.017.309.566 1.251.721 1.594.154.342.309.703.411 1.027.103.325.36.292.429.514.068.224.085 1.525.033 2.861-.051 1.337.686 4.523.771 4.712s.137.566.103.822c-.034.257.017 2.588-.103 3.204-.119.617.086 3.701.154 4.507.068.805.445 2.861.496 3.323.053.463.24 2.192.137 2.312-.102.12-.752.326-.959.84-.205.515.651 1.183.737 1.319.085.137-.017.634-.086.993-.067.36-.017 1.405-.171 1.783-.154.376-.086 1.165-.189 1.438-.102.274-.084 1.079.154 1.113.24.034 8.859.549 10.144.515 1.285-.035 1.285-.634 1.268-.891-.018-.258-.36-1.2-.018-1.217.343-.018 6.717.154 7.334-.188.614-.342.426-.942.426-1.062zm-24.672-28.59c0-.103.239-.536.411-.696l.148-.423c.469-.297.492.651.457.708-.034.058-.148.08-.455.166-.309.085-.401.873-.436.873s-.125-.524-.125-.628zm1.291 3.815c-.297-.022-.721-.41-.628-.753 0 0 .285.262.469.262.182 0 .685-.205.787-.262.103-.057-.331.776-.628.753zm.731-3.472c.521.39.093 1.91.091 2.011-.011.594-.696.88-.822.822l-.776-.675c-.229-.193-.012-1.667 0-1.987.01-.319.56-.742.56-.742.146-.126.318.103.947.571zm11.205 22.627c0 .12-.052.274-.514.429-.464.154-.104 1.045.051 1.079l.12.856c.137.497 0 .943 0 1.199 0 .258-.24 1.062-.325 1.046-.086-.018-.807-.805-1.062-.977-.258-.172.154-.463.173-.686s.409-1.542.443-1.713-.376-.651-.63-.72-.176-.359-.244-.823c-.068-.462.104-.821.326-1.388.223-.565.172-1.593.172-1.593s.41.12.516.359c.104.24.34.343.324.856-.018.515.529 1.457.65 1.679.119.226 0 .277 0 .397z"/></svg>