<svg xmlns="http://www.w3.org/2000/svg" width="100" height="100"><circle fill="#B2B2B2" cx="50" cy="50" r="50"/><path fill-rule="evenodd" clip-rule="evenodd" d="M65.414 44.348h-13.652000000000001c-.607-.526-1.189-1.055-1.559-1.298.392-.772.455-.256 1.396-1.967l1.45-2.978c1.818-3.949 1.614-2.557 2.733-3.257.783-.488 1.502-2.128 1.994-2.601.407-.384.313-.277.543-.771.25-.561.577-.926.11-1.346.1-.342.101-.221.026-.506l-.361-.138.073-.203-.166-.321c-.503.211-.825.601-1.295 1.003.236-.386.277-.452.341-.887l-.183-.198c-.606.331-1.015.98-1.447 1.448l-.843.855c.075-.523.082-.769-.073-1.243-.575-.084-.307.609-.68 1.133l-.566.682c0 .001-.287 1.551-.432 1.808l-1.484 1.995-1.767 1.911-.379.342c-1.637-2.712-3.144-5.666-4.327-8.616l-1.038-2.344.309-.01c.96-.044-.268-1.109-.453-1.337-.46-.544-.836-.877-1.163-1.51-.146-.232-.173-.653-.186-1.019l.186-.399-.046-.045c.509-.283.305-.232.832-.232.232 0 .699.02.931-.186.211-.189.779-1.585.885-1.95.244-.89.323-1.345.323-2.274 0-1.3-.271-1.105.369-2.136.271-.433.286-1.227.187-1.718-.119-.622-.067-.784-.602-1.346-.798-.839-2.132-1.278-3.249-1.44-.898-.13-1.049-.08-1.907 0l-.648-.927-.931-.372h-1.015l-1.117.464-.885.696-.74.974-.323 1.207.047 1.393c.071.354.276.51.553.65 0 .669-.085.822 0 1.67l.371 1.95c.111.299.804 1.449 1.023 1.671.693.593 1.044.683 1.809.974l-.007.584h.001l-.406.391-.449.726-.391.889c-1.387 4.085-1.242 7.998-.479 12.256.187 1.002.411 1.994.642 2.985l.357 1.521c.266.979.208 1.891-.057 2.918l-.159.972c-2.587 5.893-.95 11.947.056 18.555l.176 1.833.086.877.049 1.228c.05 2.352-.087 4.969-.439 7.291l-.221 1.264.015.293.137.22.228.131c.312.143 1.029.211 1.144.275l.167.112c.023.029.46 1.37.509 1.52.487 1.414.877 2.761 1.007 4.248l-.034.832-.224.653c-.315 1.483-.141 2.703.331 4.136l.255.697c.19 0 .436.028.611.104l.019.172-.011.338c.042.144.243.244.354.256.254.029 1.276.021 1.435-.104.103-.093.103-.098.137-.225.016-1.791 1.516-.06 1.755.329 1.433.169 2.823.303 4.224-.066l.392-.189c-.068-.553-.174-.731-.604-1.076l-.68-.387.455-.148.088-.407-.16-.351-.405-.218-.592-.122-.658-.097-.667-.092-.597-.142-.43-.235-.745-1.18-.478-1.078-.225-1.038c-.11-1.953.392-3.871.768-5.769.915-.14 1.807-.313 2.728-.313l.079-.586.061-1.349c.239-6.64.16-13.249.004-19.888.361-.02.717.022 1.075-.02l-.368-1.104c-.015-2.229-.396-4.414-.829-6.591l-.232-1c1.685.296 2.399.598 3.552.865v42.605000000000004h12.279v-40.477h2.396v-5.075z"/></svg>