<svg xmlns="http://www.w3.org/2000/svg" width="100" height="100"><circle fill="#B2B2B2" cx="50" cy="50" r="50"/><path d="M60.595 34.834h-.417v-3.06h.834c1.153 0 2.086-.935 2.086-2.087v-8.348c0-1.153-.933-2.086-2.086-2.086h-22.024c-1.152 0-2.087.934-2.087 2.086v8.348c0 1.152.935 2.087 2.087 2.087h.835v3.06h-.417c-3.458 0-6.261 2.803-6.261 6.261v33.393c0 3.457 2.804 6.26 6.261 6.26h21.189c3.458 0 6.261-2.803 6.261-6.26v-33.392c-.001-3.458-2.803-6.262-6.261-6.262zm4.27 26.367c0 .344-.281.625-.626.625h-28.521c-.345 0-.625-.281-.625-.625v-12.94c0-.345.281-.627.625-.627h28.521c.345 0 .626.282.626.627v12.94z"/></svg>