<svg xmlns="http://www.w3.org/2000/svg" width="100" height="100"><circle fill="#B2B2B2" cx="50" cy="50" r="50"/><path d="M71.322 84.748h-1.715l-4.055-10.771s4.873-3.975 4.873-18.848c0-16.734-8.963-20.845-13.207-21.854v-.968h-.641v-.642h-1.9c-.838-1.431-2.391-2.393-4.169-2.393-.924 0-1.788.26-2.521.71v-6.758h.641v-1.026h-1.923v-10.3h-.32v-.875h.577v-.77h-6.924v.77h.577v.875h-.321v10.3h-1.923v1.026h.641v22.933l-4.468-2.055-.536 1.165-.583-.268-.696 1.514 1.09.501c.051.311.3.691.712 1.112l-1.298 1.76c-.139.188-.092.489.096.842l-1.916 2.596.106.396-1.066 1.445-.121 1.025 2.889 2.133.946-.418 1.066-1.445.41-.016 1.979-2.682c.374.09.658.08.769-.07l1.59-2.154.748.32c.083.158.267.305.527.43v3.225l.321.256v2.693l.513.898h2.82l.513-.898v-2.692l.321-.256v-2.344c.458.006.813-.057 1.039-.193l1.09.502.696-1.516-.582-.268.328-.712h6.425s2.307-3.59 5.727-1.538c3.42 2.051 3.676 10.813 2.906 13.079-.506 1.492-1.197 3.889-6.41 3.889h-3.59v-.385h.256v-1.154h3.654v-1.41h1.475v-1.539h-2.693v-1.025h.514v-.77h-2.564v.77h.512v1.025h-24.362v1.539h1.475v1.41h7.244v2.309h-.513v-.256h-1.667v1.025h1.667v-.258h.513v.643h1.41v.512h-1.41v2.564h.577v.256c0 .285.229.514.513.514h7.053c.282 0 .513-.229.513-.514v-.256h.576v-2.564h-1.41v-.512h1.41v-3.463h.642v1.154h.257v1.281h.256v6.797h-.513v2.949h4.873v-2.949h-.514v-4.617h3.848v11.156h-1.539v2.18h1.539v1.924h-26.031c-.284 0-.513.229-.513.512v4.488h41.415v-4.489c0-.283-.231-.512-.514-.512zm-25.002-35.23v-2.381h.812v2.754l-.812-.373zM49.214 79.904l-.5-1.18c-.109-.262-.411-.383-.672-.273l-8.974 3.799c-.261.111-.383.412-.272.672l.5 1.182c.111.26.411.383.672.271l4.423-1.871h11.033v-1.539h-7.397l.915-.389c.261-.109.383-.41.272-.672z"/><circle cx="50.509" cy="34.101" r="2.415"/><circle cx="50.509" cy="34.101" r="1.208"/><circle cx="61.3" cy="71.818" r="1.39"/></svg>