<svg xmlns="http://www.w3.org/2000/svg" width="100" height="100"><circle fill="#D4D4D4" cx="49.75" cy="49.767" r="50"/><path fill-rule="evenodd" clip-rule="evenodd" fill="#fff" d="M26.39 49.767c.491.149.009.699-.351.701-.257-.272.163-.525.351-.701z"/><path fill-rule="evenodd" clip-rule="evenodd" d="M87.075 29.623l-.326.458-8.623.11-.631-1.696h-.892l-1.087 1.37h-12.305s.067-1.284-1.89-1.284h-6.218l-1.218-.151-1.332 2.266c-.316.073-.291-.359-.7-.381-.221.208-.201.656-.584.701h-1.285c-.12-.201-.307-.156-.468-.35-.122-.148-.131-.445-.232-.583-.244-.333-.554-.548-.701-.935-.234-.617-.216-1.339-.234-2.219.368-.266 1.253-.261 1.402-.935.053-.245-.344-.989-.584-1.519-.24-.528-.493-1.104-.7-1.517-.379-.754-1.145-2.267-1.635-2.688-.599-.51-1.858-.729-2.453-.933h-1.401c-.675.126-2.036.468-2.803.701-.921.28-2.474 1.318-2.92 2.219-.103.209-.154.501-.233.701-.427 1.075-.542 2.331-.468 4.087.033.771.322 1.601-.116 2.337-.849.453-2.151.094-3.036.35-.565.163-1.409.896-1.985 1.401l-.818.584-.116.233c-.239.108-.314.148-.584.468-.619.734-1.89 2.457-1.985 3.621-.039.475.13.89.234 1.401.08.393.253.908.234 1.285-.039.736-.655 1.502-.934 2.336-.136.406-.232.851-.351 1.285-.431 1.562-.98 3.652-1.051 5.489-.013.338.393.877-.118 1.167-.797.097-1.316-.085-1.285-.817-.389-.251-1.206-.371-1.635-.234-.487.291-.488 1.067-.466 1.868.034.501-.55.384-.584.818-.612.594-.813 1.601-1.167 2.454v.583c.425.396.33.8.232 1.285-.164.818-.157 1.788 0 2.687.117.655.572 1.183.935 1.75.417.654.733 1.148 1.285 1.402.379.175.824.271 1.168.467l.233.234c.334.249.769.364.818.817-.307.744-.622 1.48-1.051 2.103.108.423.545.586.817.933.275.352.5.633.584 1.169.11.704-.025.797-.234 1.4-.113.328-.144.651-.234.935-.196.625-.434 1.215-.583 1.752-.394 1.413.337 4.27.701 5.489.194.649.367 1.408.584 1.635.385.404.764.839 1.401 1.285.656.461 1.461.922 2.218 1.051h1.753c1.254-.261 2.472-.639 3.152-1.518.158-.203.389-.771.468-.935l1.285-2.219c.194-.433.25-.723.351-1.169l.232-.349c.655-2.593.582-5.228 1.869-7.358 3.354-1.016 6.151-2.98 8.409-4.905l.233-.351.468-.232.584-.584.7-.586c.359-.321.655-1.03 1.284-.934-.297.863-.453 1.802-.584 2.687-.155 1.043-.403 2.141-.233 3.153.091.545.537 1.001.584 1.519.034.379-.149 1.015-.233 1.518-.09.535-.121 1.108-.233 1.519-.234.848-.721 1.57-.818 2.452-.061.548.045 1.144 0 1.752.559.661 2.059.63 2.92.935l.816.468c1.4.573 2.841 1.047 4.088 1.167 1.223.119 3.151.177 3.271-.7.046-.354-.479-.804-.818-1.051-.436-.318-.915-.389-1.284-.585-.26-.525-.999-.861-1.285-1.168l-.116-.35c-.508-.529-1.111-.901-1.401-1.636-.315-.795-.316-2.699 0-3.386.307-.665.738-1.104 1.051-1.635.274-.466.525-1.01.701-1.52 1.485-4.285 1.611-9.763 1.868-15.182 1.047-.124 2.063-.492 2.919-.934.818-.422 1.993-1.186 2.336-1.869.256-.505.401-1.19.7-1.868.252-.566.624-1.083.935-1.635.305-.542.633-1.079.935-1.635.245-.448.518-.911.7-1.285.268-.542.214-1.099.469-1.635.217-.456.724-.854 1.168-1.285.93-.902 1.592-1.438 2.686-2.103.467-.284 1.088-.726 1.518-.817l.301-.888 3.564-.261 1.022-1.435 9.283-.261.188-1.286-.396-.065zm-62.2 20.547c-.257-.271.163-.525.351-.701.49.149.009.699-.351.701zm23.942-1.402c-.502-.749-.037-2.306 0-3.271v-.35h.233c1.007.434 1.786 1.096 2.569 1.752-.721.837-1.92 1.194-2.802 1.869zm17.05-12.846c-.279.421-1.083 1.269-1.636 1.634-.58.386-1.239 1.213-1.867 1.753-.426.365-.872.717-1.401 1.051l-.352.116c-.166.125-.353.296-.816.468-.402.149-1.731.613-2.22.584-.683-.042-2.667-1.334-2.804-2.103-.073-.424.224-1.088.352-1.518.123-.41.225-.89.467-1.286.943-.086 1.523.19 2.452.117.026.869.018.17.117 2.57 1.139-.186 2.224-.424 3.271-.701.087-2.482.103-1.845.116-2.804 1.793-.62 1.145-.526 5.489-1.751.031.729-.795 1.307-1.168 1.87zm10.497-5.926l.349-.892.435-.021.261.848-1.045.065z"/></svg>