<svg xmlns="http://www.w3.org/2000/svg" width="100" height="100"><circle fill="#B2B2B2" cx="50" cy="50" r="50"/><g fill="#010202" stroke="#010202" stroke-width=".263" stroke-linejoin="round"><path d="M61.257 76.375l.031-1.064c.274-.127.551-.258.804-.398l.104-3.604h-.008l.008-.039v-.014c.002-.273-.133-.539-.364-.793l.069-2.398h-.008l.008-.039v-.014c0-.131-.037-.26-.09-.387l.09-3.109h-.008l.008-.039v-.014c.002-.371-.235-.727-.652-1.059l.062-2.135h-.008l.008-.039v-.013c0-.14-.041-.274-.104-.409l.293-.146.104-3.604h-.006l.006-.039v-.014c.004-.295-.146-.579-.412-.85v-.002l.002-.01v-.013l-.002-.008.002-.08h-.017l-.059-.213.067-2.322h-.005l.008-.039v-.013c.002-.355-.215-.696-.599-1.016l.037-2.521.001-.009v-.013l-.001-.006.001-.081h-.018l-.029-.164.038-2.655.524-.239.049-3.345.002-.009v-.013l-.002-.006.002-.082h-.016c-.179-1.618-4.863-2.914-10.623-2.91-5.862.004-10.604 1.352-10.593 3.011v.013l.007.037h-.007l.059 2.046c-.4.317-.629.658-.626 1.015v.014l.007.037h-.007l.087 2.98c-.053.121-.088.245-.087.371v.013l.007.038h-.007l.067 2.301c-.223.243-.352.497-.35.76v.014l.006.037h-.006l.002.085-.055.194h-.017l.001.084-.001.006v.015l.001.01.051 3.488.37.169.016 1.109c-.569.369-.896.772-.893 1.201v.014l.008.037h-.004l.082 2.826c-.05.119-.082.237-.082.36v.015l.008.037h-.008l.1 3.454c.344.192.716.369 1.103.537l.015 1.017-.032.172h-.017l.001.084-.001.008v.014l.001.01.051 3.488.25.113.024 1.633c-.544.354-.856.742-.9 1.15h-.017l.001.084-.001.007v.014l.001.011.051 3.488c.447.227.914.432 1.392.623l.04 2.811c6.563 3.308 16.782 3.062 21.987.156l.104-3.604h-.008l.008-.039v-.014c.002-.569-.544-1.103-1.486-1.565zM36.366 45.717l.029-1.02c.266-.124.529-.248.771-.384l.1-3.455h-.006l.006-.037v-.013c.002-.263-.127-.517-.35-.76l.067-2.301h-.007l.007-.038v-.013c.001-.126-.034-.25-.087-.371l.087-2.98h-.007l.007-.037v-.014c.003-.356-.226-.697-.626-1.015l.059-2.046h-.006l.007-.037v-.013c.012-1.659-4.73-3.007-10.593-3.011-5.758-.004-10.443 1.292-10.621 2.91h-.016l.001.082-.001.006v.013l.001.009.048 3.345.525.239.039 2.655-.031.164h-.016l.001.081-.001.006v.013l.001.009.048 3.347.24.109.023 1.564c-.521.34-.82.712-.863 1.103h-.016l.001.081-.001.007v.013l.001.01.042 2.879c-.159.192-.254.392-.277.596h-.016l.001.082-.001.006v.013l.001.009.048 3.345.525.239.039 2.654-.031.164h-.016l.001.081-.001.007v.012l.001.01.048 3.347.24.109.023 1.563c-.521.34-.82.713-.863 1.104h-.016l.001.081-.001.007v.013l.001.011.048 3.345c.428.216.875.413 1.334.598l.034 2.323-.029.152h-.016l.001.082-.001.006v.014l.001.01.049 3.346c6.292 3.172 16.089 2.938 21.08.149l.1-3.455h-.007l.007-.037v-.013c.001-.123-.032-.243-.082-.361l.082-2.826h-.007l.007-.037v-.014c.004-.549-.52-1.062-1.423-1.504l.029-1.02c.265-.125.528-.248.771-.385l.1-3.455h-.004l.007-.037v-.012c.002-.264-.127-.518-.35-.761l.056-1.935c.338-.15.662-.312.967-.48l.1-3.455h-.008l.008-.037v-.013c0-.123-.032-.243-.082-.361l.082-2.826h-.008l.008-.038v-.013c.003-.548-.52-1.061-1.424-1.503zM85.062 31.564c.004-.467-.383-.906-1.059-1.3l.044-1.496.354-.177.1-3.416h-.007l.007-.037v-.014c.012-1.641-4.677-2.973-10.475-2.976-5.691-.004-10.324 1.277-10.5 2.877h-.016l.002.081-.002.006v.012l.002.009.031 2.179c-.273.25-.426.515-.456.789h-.017l.002.081-.002.006v.012l.003.009.047 3.308c.31.156.633.297.958.437l.021 1.583c-.439.312-.695.651-.733 1.006h-.016l.002.08-.002.006v.012l.002.009.026 1.889c-.517.336-.812.704-.854 1.091h-.016l.001.08-.001.006v.012l.002.009.049 3.31c.424.213.864.408 1.317.591l.039 2.663.017.007c-.231.23-.379.471-.406.721h-.018l.001.081-.001.006v.012l.002.009.031 2.179c-.273.25-.426.515-.456.789h-.017l.002.081-.002.006v.012l.002.009.048 3.309c.31.155.633.297.958.437l.021 1.583c-.439.312-.695.65-.734 1.006h-.016l.002.08-.002.006v.012l.002.01.026 1.889c-.517.336-.812.704-.854 1.091h-.016l.001.08-.001.007v.012l.002.009.049 3.31c.424.213.864.408 1.317.592l.039 2.662c6.222 3.135 15.907 2.904 20.842.148l.101-3.416h-.008l.008-.037v-.014c.004-.543-.515-1.049-1.407-1.486l.028-1.01c.262-.122.521-.245.762-.379l.08-2.756c.219-.104.438-.207.642-.318l.099-3.417h-.006l.006-.036v-.014c.004-.467-.384-.906-1.059-1.3l.044-1.496.354-.177.1-3.416h-.007l.007-.037v-.014c.001-.163-.057-.322-.145-.478l.401-.2.101-3.416h-.008l.008-.037v-.014c.004-.542-.515-1.049-1.407-1.486l.028-1.01c.262-.122.521-.245.762-.379l.08-2.756c.219-.104.438-.206.642-.318l.099-3.417h-.006l.006-.036.003-.022z"/></g></svg>