<svg xmlns="http://www.w3.org/2000/svg" width="100" height="100"><circle fill="#B2B2B2" cx="50" cy="50" r="50"/><path d="M77.621 48.295l.066-.082c.516-.562.386-3.815-.512-4.888 0 0 0-1.155.039-1.666 0 0-.426-3.856-1.157-4.201 0 0-1.841-4.497-2.312-5.011l.901-.213s-1.54-2.829-2.099-2.956l.683-.515s1.199-.128 1.199-.943c0 0-.126-.557.045-.557l.132-.343s.298-.598.127-.814l.513-.17s.428-.13.298-.557l-.512-1.5.031-.378c.126-.028.251-.047.362-.034.261.03.451-.152.692-.214l.505-.128c.069-.018.146-.007.15-.084l-.022-.119c-.069-.144-.265-.209-.395-.297-.413-.278-.771-.572-.816-1.086l-.025-.773-.04-.36.005-.389c-.119-.999-.292-2.101-1.104-2.821-.19-.17-.416-.343-.659-.442l-.455-.159-.188-.121c-.089-.028-.122-.006-.117-.105l-.153-.069-.15-.057c.002-.079.025-.097-.053-.134l-.167-.082c-.078-.037-.058-.049-.056-.125l-.152-.021-.154-.1c-.114-.062-.287-.142-.419-.086l-.125.151-.199.023-.086.125-.174.055c-.064.008-.134.021-.153.091-.018.07-.146.088-.214.134-.129.088-.204.182-.359.218-.336.081-.61.143-.911.32-.769.457-1.141 1.199-1.398 2.001-.137.426-.248.858-.394 1.282-.041.122-.082.228-.096.355-.011.104-.011.217-.048.315-.065.171-.096.353-.123.532-.037.235-.069.478-.165.698-.082.192-.22.358-.359.515-.294.332-.581.669-.602 1.125-.013.307.046.876.443.914l.44.103.352.018.11.009-.18.824-1.502 1.338s-.643.771-1.073.943c0 0-1.925.428-2.012 1.202-.087.765-.087-.13-.087-.13s-2.482 2.567-2.139 3.894c0 0 0 .6-.174 1.031 0 0-.984 1.37.256 2.57 0 0-.212 2.058-.128 2.83 0 0-1.072 1.114-1.029 1.841 0 0-.555.986-.512 1.925 0 0-1.156 1.158-.601 1.887 0 0 .089.511.13.941 0 0 .343 1.626 1.023 1.84l-.084.602s-.469-.087-.512.386c0 0-.085.687.13.687 0 0-.43-.172-.43.212 0 0 .042.473.644.513 0 0 1.156-.083 1.156.256 0 0 .13.644.769.599 0 0 .085.729.643.729 0 0-.388 2.315-.684 2.573 0 0-.812 1.667-.771 2.226 0 0-.86 1.156 0 1.545 0 0 1.5.642 1.929.642 0 0 .941.556 1.754.556 0 0-.216 4.668.044 5.397 0 0-.512 1.328-.601 2.481l-.469 2.444s-.825 2.002-.563 3.298l.046.174c.385 1.283.13 8.31.046 9.293 0 0-.174 1.755.339 1.669 0 0-.212 1.846.303 1.846l1.544.043s-.257.726.17.726c0 0 1.628-.043 2.443-.17 0 0 3.336-.088 4.28.127 0 0 4.628-.298 4.368-1.114 0 0-.599-1.371-2.183-1.283 0 0-1.37-.644-1.627-.599l-.559-.603s-.555-2.614-1.413-2.953c0 0-.087-1.069.125-1.412 0 0 .688-4.887.433-5.573 0 0 .388-.771 1.026-1.326 0 0 2.229-4.153 2.015-6.428l.945-7.752s1.625-.085 1.709.172l1.242.086.046-1.156s-.13-5.016-.514-5.526c.002-.006-.115-2.038.319-2.707zM52.062 33.979h-.188v-.305h-.116l-.01-3.297s.01-.314-.324-.797c-1.079-1.55-3.424-1.292-4.327-1.009-.904.283-1.366 1.04-1.366 1.04l-.157-.105-.011-.156.073-.106s-.136-.325-.157-.43c-.021-.105-.294-.399-.368-.43-.073-.031-.125-.305-.125-.305l-.032.327-.588-.263s-.389-.283-.557-.441l-.787-.399-.273-.335s.231-.294.063-.399l-.032-.283s.137-.105.137-.462c0-.356-.126-.588-.273-.693-.147-.105-.032-.178-.032-.178 1.018-.21 1.659-1.061 1.796-1.197.136-.137.083-.252.083-.252-1.606-1.586-2.961-1.848-2.667-1.879.294-.032.494-.148.483-.252-.01-.105-.262-.294-.262-.294-.536-.431-1.775-4.138-3.392-5.345-1.69-1.262-3.77-.966-5.387-.126-1.617.839-2.415 3.266-2.415 3.266s-.074.01-.179.42-.184 2.037-.184 2.037l-.094.173c-.037.09 0 .137 0 .137s-.457.562-.457.672c0 .11.257.126.257.126l1.265.063v4.426l-.125.073-.011.336c.011.116.115.126.115.126h.231s-.158.168-.263.221c-.105.052-.294.251-.315.283l-.084.125-.105-.083-.23.178-.41-.399-.125.074-.095-.021s-.336.273-.357.305v.147l-.094.032-.221.188c-.062.032-.198.166-.189.346.01.221.105.41.851 1.24.745.829.966.871 1.197.924.231.052.525-.483.525-.483l.032.053.158.105.052.136c.032.053.147.074.147.074l-.294.294-.399.588s-.115.305-.21.452c-.094.147-.809 1.155-.809 1.155s-.43.441-.724.977c-.294.535-.136.735-.136.735s-.588.43-.798.851c-.21.419-.178.851-.178.851l-.651 1.396-.283.063c-.284.062-.378.388-.378.43l-.188.272c-.116.147-.147.473-.189.494-.042.021-.189.21-.21.283-.021.074-.378.337-.525.442-.147.104-.241.294-.241.294l-.255.015-.693.399-.189-.011-.263.042-.242-.314s-.158-.116-.326-.148c-.167-.031-.325.021-.325.021l-.347-.294-.504.042c-.179.021-.21.21-.21.21l-.179-.105c-.062-.042-.167 0-.167 0s-.284.116-.347.263c-.063.147.094.273.094.273s.178.209.126.251c-.052.042-.199.021-.199.021l-.641-.178v-.085h.126v-.063l-.221-.042-.01-.095-.315-.105-.115.126h-.441l-.063.158s-.462-.126-.483-.19c-.021-.062-.609-.272-.609-.272s-.682-.147-.745-.22l-.126-.138-1.292-.325c-.084-.021-.084.136-.084.136l-.094.326-.168-.096c-.104-.073-.388-.43-.473-.545-.083-.116-.357-.252-.304-.19.053.063-.451 1.376-.545 1.66l-.21.63.409-.032s.441-.147.662-.209c.221-.063.231.073.231.073s-.105.274-.105.368c0 .095.095.147.095.147l1.197.367.252-.063s.798.273 1.008.315l.378-.063.913.325-.095.463.252.094.126-.167.956.389-.094.462.609.189.01.104.672.168.042-.136.515.115c.221.052.284.042.284.042l.294-.262s-.084.609.451 1.376c.536.766 1.239.808 1.786.755.545-.052 1.06-.924 1.06-.924l.189.021.147.095.326-.168.115.094c.042.021.147-.178.147-.178l.242-.094 1.008.347-.326 1.365s-.335 1.533-.346 2.488c-.011.957.147 2.354.798 3.328.65.979 1.785 1.114 1.785 1.114l.032.348s-.179.85-.179.912c0 .064.126.231.126.231s-.052.232-.147.326c-.095.095-.011.473-.011.473s-.209.221-.356.504l-.42.828s-.21.767-.231.904c-.021.137.011.188.378.377.368.189.83.273.83.273s-.01-.494.032-.788l.336-.756.032.494c.01.127-.095.787-.095.787s-.105.011-.2.105c-.094.095.031.168.031.168l.147.104s.01.631.042.863c.031.229-.084.429-.168.545-.084.115-.063.21-.063.378 0 .167.105.21.105.21l-.105.272s-.441 1.47-.756 2.751-.377 3.634-.356 4.054c.021.419.168 1.028.23 1.093.063.062.126.799.147 1.028.021.231.441.714.441.714s-.398 1.093-.462 1.512c-.062.42-.147 1.28-.147 1.28s0 1.324-.062 1.87c-.063.547.083 1.24.083 1.24s.252 1.805.147 1.932c-.105.126-.168.337-.168.337l.105.943s-.105.127-.588.462c-.483.337-.441.715-.357 1.303l.315.86-.357.566s-.042.127-.21.191c-.168.062-1.596.966-1.596.966s-.714.124-1.218.229c-.504.105-.945.464-.988.693-.042.231.273.714.273.714s1.995.211 4.264.252c2.268.042 6.72-.313 6.72-.313v-.337l1.092.043c5.103.167 6.279-.464 6.279-.464v-.378s.651-2.373.714-3.066c.063-.693-.462-1.111-.462-1.111l.231-.632c.063-.188.063-1.364.063-1.364s2.521-3.464 3.402-6.342 1.028-5.545.546-8.926c-.484-3.382-2.123-6.667-2.123-6.667s.032-.947 0-1.514c-.031-.566.148-2.33.21-2.961.063-.629.379-1.794.379-1.794l.073-.494s.188.199.43.199c.241 0 .348-.348.348-.348l.503-.011.136-.135h.671l.032.03c.031.032.347.021.347.021l.189-.043s.083.558.504.484c.419-.074.524-.873.399-1.323-.126-.452-.462-.535-.683-.431-.221.105-.305.496-.305.496l-.116-.127-.294.009-.221.147v-.767h.504v-.504l.242-.189v-.399c1.995-.545 2.037-2.204 2.037-2.204v-8.38l.116-.021-.012-.19s.159-.031.189-.115c.031-.084-.03-.221-.073-.336-.042-.116.094-.105.094-.105v-1.723h-.042v-.234zm-21.482 9.173l.615-.2c.166-.048.244-.186.244-.186s.029.26-.029.513c-.059.254-.387.591-.387.591l-.669-.224.226-.494zm-.67.171s0 .181-.058.195c-.058.015-.293-.107-.293-.107l.351-.088zm1.264 9.216l-.086.828s-1.434-.038-1.916-2.126c-.481-2.089.52-5.461.52-5.461l1.038.346.124.247s-.309.024-.47.222c-.161.197-.68.952-.593 1.755.087.802.408 1.347.618 1.519.21.174.976.444.976.444l-.211 2.226zm.297-2.646s-.667-.294-.903-.48c-.234-.185-.309-.704-.321-1.285-.012-.581.495-1.199.495-1.199.148-.012.161.297.161.334l-.074.136c-.037.061.012.186.012.186l.729 2.124-.099.184zm7.182 26.781c-.059.06 0 .375 0 .375l-.355 1.781s-.119.256-.217.396c-.1.137-.416.968-.396 1.206.02.238.336.436.415.495.08.059.158.118.158.396 0 .276-.237 1.581-.396 1.898-.158.316.159.475.159.475l-1.306.732-.178-.752s.257-.436.336-.515l.119-1.502s-.099-.397-.04-.436c.06-.041.06-.831.06-1.009 0-.179-.139-.516-.198-.554-.059-.041.178-1.623.178-1.623 0-.178.198-.403.198-.403s.079-1.298.098-1.477l.316-1.423s0-.534.08-.712c.079-.179.079-1.543.079-1.543s1.266 2.59 1.306 2.729c.039.14-.356 1.405-.416 1.466zm7.868-11.643l-.111.062.099.938.074.025s.049 2.026-.062 2.806c-.111.778-.637 3.975-1.377 5.015 0 0-.095-.457-.015-.568.078-.109.142-.566.109-.614-.031-.047-.062-.377-.062-.425 0-.047.031-.377-.095-.457-.126-.079-.221-.425-.158-.599l.189-.425s.125-1.654-.063-2.315-.724-1.685-.724-1.685-.126-.378-.062-.457c.062-.08.566-1.071.614-1.858.047-.788-.142-2.49-.142-2.49l.236-.534-.785-.729s.209-.631.148-.805c-.062-.172.012-.432.012-.432s.148-.334.148-.434l.013-.185h.358s.642 1.483.89 2.349c.247.864.458 1.692.458 1.692l.061.777.247 1.348zm1.804-16.078h-.494v-.095l-.104-.03-.042-.148s-.252-.042-.421-.031l-.221.261-.062.105-.147.032.031-.377.116-.043-.052-.483-.998-.104c-.158-.883-.514-1.125-.514-1.125.115-.125.2-1.019.2-1.019.588 1.155 1.984 1.439 1.984 1.439l.011.347.21.209v.515h.503v.547z"/></svg>