<svg xmlns="http://www.w3.org/2000/svg" width="100" height="100"><circle fill="#B2B2B2" cx="50" cy="50" r="50"/><path d="M24.527 52.611c.032.017.054.078.054.149l-.041.14c.506 11.704 1.131 25.844 1.131 25.844s.088.04.091.192l.04 1.51c.003.134-.772.21-1.008.21-.235 0-.95-.003-.952-.138l-.03-1.498c-.002-.134.074-.204.074-.204l-.141-5.352h-.102v.067l-.051.051-.537-.094c-.068-.011-.068-.092-.068-.092s-.773.151-1.033.151c-.26 0-1.108-.143-1.293-.177-.185-.033-.219-.172-.219-.172s-.159-.007-.159-.126c0-.108.091-.107.091-.107s-.086-4.46-.086-5.218c0-.757.243-1.033.521-1.1.29-.071 2.418-.179 2.418-.179.155-.012.272.039.336.078l-.349-13.196-.613-.037c-.12-.006-.153-.107-.153-.107l-1.973-.032v.558s-.007.131-.108.129l-1.884-.062c-.124-.004-.132-.106-.132-.106v-.57l-2.209-.067c-.234-.007-.237-.257-.237-.257l-.031-1.89s-.005-.22.216-.211l3.213.131v-.259s-.004-.142.097-.164l3.473-.735s-.004-.117.067-.131l.172-.031-.312-11.855s.02-3.951.37-6.238c.325-2.12.826-3.771 1.188-4.727.362-.956 1.594-4.514 5.57-6.989 1.255-.781 3.169-1.307 5.395-1.307.857 0 2.655.299 2.655.299s.087-.089.181-.078l.24.01c.063-.01.247-.075.349-.075.101 0 6.053 1.158 6.133 1.18.081.021.228.258.228.258s.28.06.332.102c.154.125-.245.308-.245.308s-.03.189-.164.307c-.135.118-.832.495-1.135.504-.276.009-5.914-.79-6.021-.84l-.169-.135c-.058-.016-.341-.009-.358-.113-.023-.15.258-.34.258-.34s.078-.531.162-.691c0 0-1.582-.225-2.421-.225-2.151 0-3.875.619-5.175 1.437-2.856 1.798-4.418 4.688-5.006 6.636-.271.898-.809 2.655-1.042 4.636-.272 2.321-.218 4.899-.218 6.032 0 .387.216 5.519.495 12.036.031.017.053.076.053.149l-.041.139.05 1.157c.034.013.06.076.06.152l-.047.145.05 1.228zM80.336 62.958l-1.017-.405v-9.868h1.505l-.19-1.329-1.051-8.429h-.149v-3.653l.149-.083v-1.081h-.642v-.622h-1.165v.581h-.525v1.079l.148.167v3.446h-11.064l-5.719-6.311-.601.664-9.033-8.886-19.114 20.801-.557.044.076.382 2.841 1.565v10.627l-6.408 1.312v.381l.153.126.69.046v.422h.268v.719h1.957v.635l.173.19v9.589h-.127v1.048h-.256v1.157h.214v1.776h10.039v.474h10.062v.378l-.183.203v.271h.162v.544h-.235v.331h16.257v-.331h-.234v-.544h.161v-.271l-.181-.203v-.378h11.225v-1.426h.337v-.292h.717v-13.066l.011-.814h.244l.023-.411 1.225.013.319-.224v-.344h-.505zm-45.484 8.955h-2.785v-6.279l.209-.23v-.551h2.215v6.066h.36v.994z"/></svg>