<svg xmlns="http://www.w3.org/2000/svg" width="100" height="100"><circle fill="#B2B2B2" cx="50" cy="50" r="50"/><path d="M82.021 26.074c-.484-.229-.997-.428-1.528-.602l.079-.208c.09-.223-.019-.472-.24-.562-.223-.087-.471.022-.561.244l-.113.28c-1.185-.312-2.337-.666-3.634-.756l.054-.354c.044-.234-.115-.458-.351-.499-.238-.039-.46.121-.503.354l-.07.455c-1.447-.053-2.918.001-4.372.131l-.011-.229c-.005-.237-.206-.424-.446-.417-.235.008-.421.208-.416.447l.012.285c-1.462.159-2.887.383-4.214.637l-.056-.212c-.056-.232-.29-.372-.523-.315-.233.056-.376.291-.314.524l.042.17c-1.182.243-2.268.501-3.217.75l-.056-.236c-.056-.229-.29-.372-.523-.314-.232.056-.376.288-.319.52l.063.25c-1.829.495-2.978.896-2.978.896-.18-1.26-1.256-.94-1.256-.94l-2.406.347s-1.516-7.102-3.162-4.896c-1.099 1.466-1.226 3.439-1.192 4.602-.222-.79-.959-1.675-3.261-1.009-3.782 1.092-11.761 9.976-12.705 11.233-.935 1.254.49 3.372.49 3.372s-9.653 15.368-10.946 17.098c-1.295 1.729.335 2.519.335 2.519-4.304 5.21-6.304 12.231-7.15 18.87 1.438.021 2.875.051 4.312.093 1.505-12.294 5.688-16.258 5.688-16.258 1.593 1.194 2.152.508 2.152.508l1.504-2.018c6.211 4.64 9.943 5.231 11.746 5.623 1.809.4 1.875-.268 1.875-.268 3.024-3.276 11.221-22.223 12.093-23.384.868-1.164-.356-2.079-.356-2.079l-4.039-4.116.984-.585c5.024 6.459 5.589 3.076 5.589 3.076-.349-2.408-1.146-5.025-1.146-5.025s.535-.077 1.715-.629c1.179-.552.608-1.836.608-1.836.856-.417 1.691-.781 2.506-1.108l.028.122c.035.126.12.228.23.282.09.045.192.058.297.035.232-.056.372-.293.316-.527l-.056-.229c1.098-.408 2.149-.741 3.159-1.007l.09.351c.031.128.117.229.221.283.092.044.196.061.3.033.235-.056.372-.29.317-.522l-.087-.35c1.216-.282 2.356-.468 3.432-.582l.01.242c.006.163.1.302.235.37.062.031.135.05.212.045.237-.007.425-.208.416-.447l-.013-.286c1.319-.092 2.519-.078 3.585.004l-.051.299c-.031.193.068.377.235.46l.119.039c.235.04.458-.12.5-.354l.058-.357c1.132.133 2.097.333 2.871.541l-.086.212c-.081.21.009.444.21.544l.037.017c.219.089.471-.022.557-.242l.116-.29c.793.25 1.287.449 1.436.51 1.085.44 1.142.44 1.142.44l1.787-3.462-1.406-.603zm-38.568 34.706s-.812-3.723-.974-9.367c-.079-2.819 3.736-2.237 4.793-1.788l-3.819 11.155zm4.507-13.506l-5.054.083c-2.987.484-2.498 3.318-2.498 3.318l.942 8.771c-2.85-.026-2.953 1.139-2.953 1.139s-3.495-2.614-4.238-3.601c-.739-.984-.282-1.98-.282-1.98s3.922-10.438 5.471-12.43c1.049-1.344 2.892-.418 2.892-.418 6.791 3.506 5.72 5.118 5.72 5.118z"/></svg>