<svg xmlns="http://www.w3.org/2000/svg" width="100" height="100"><circle fill="#B2B2B2" cx="50" cy="50" r="50"/><path fill-rule="evenodd" clip-rule="evenodd" d="M80.58 36.584c.959-1.095.904-1.891.822-2.63-.082-.74-.3-2.659-3.18-3.454.138-.492.164-1.232-.795-.794.055-.329.219-.548.74-.685s.959-.328 1.616-.958c.658-.63.961-1.756 1.099-2.769.137-1.013.054-1.754.054-1.754l-.85.63s.219 2.055-.385 3.152c-.603 1.095-.629 1.232-1.231 1.479-.988.438-1.892.492-2.03.876-.136.384-.246.082-.41-.135-.164-.22-.85-.714-1.233-.85-.385-.138-.878-.248-1.288.165-.412.411-.439.465-.384.794 0 0-4.907-2.878-10.91-3.426-6.002-.548-10.39-.521-19.352 1.726-4.084 1.179-6.58 3.098-7.319 3.646-.74.547-2.028 1.452-2.439 1.67-.796-1.095-3.097-2.821-3.947-3.287-.85-.466-2.22-1.179-3.729-.96-1.507.219-1.589.906-1.536 1.672.054.767.275 2.356.384 2.903.11.549.576 1.809.602 2.551-1.151.573-2.63 1.999-3.371 2.958-.738.96-1.095 1.945-2.11 3.151-1.015 1.204-2.001 1.809-2.494 1.973-.494.164-.959.026-1.645.082s-.712.137-1.043.165c-.328.028-2.246 0-2.74.301-.494.304-.904 1.206-.521 4.166.384 2.96 1.152 3.343 2.192 4.193.22.166-.164.602.302 1.123s.712.385 1.344.822c.629.438 1.453.74 3.289 2.111 1.835 1.369 2.933 1.506 4.112 2.107 1.18.604 2.002 1.396 3.646 2.086 1.645.684 3.508.654 5.565 1.176.328.084.575.275.575.275s.384.492.904.684c.247.109.631 1.342.878 3.453.247 2.111.219 2.494-.082 4.961-.303 2.465-.576 2.328-.466 3.453-.056.246-.027.271.192.438.219.164.3.246.657.328.357.084 1.015.166 2.769.219 1.754.057 2.96-.191 2.769-.629.438-.166.438-.385.438-.385s.439-.301.686-.602c.493-.273.63-.33 1.26-1.453.632-1.123 1.672-3.918 2.413-5.592.302-.684.795-1.34.795-1.34s1.809-.193 3.59.109c.412.082 1.317-.084 2.358-.109 1.04-.027 1.81-.027 2.55-.082s2.741-.248 4.028-.357c1.289-.107 2.385-.164 4.415-.412 2.026-.246 2.302-.135 2.466.74.163.877.191 2.191.163 3.07-.025.877 0 1.67.358 2.301-.63.055-.083.604.108.686.193.084.549.219.823.191.028.631.082 2.303.74 3.041-.301.246.055.467.383.574.329.113 1.508.385 3.126.33 1.617-.053 1.946-.164 2.219-.246.276-.084.057-.273.385-.465.329-.193-.057-.328-.057-.328s.357-.385 1.344-2.631c.988-2.248.823-2.412 1.399-3.645.575-1.234.821-2.166 1.205-4.193.386-2.027.192-2.686 1.918-5.781 1.728-3.096 2.88-4.084 4.06-9.318 1.177-5.231-1.015-11.782-2.194-13.261zm-6.605-6.55c-.548-.822.904-1.095.904-1.095 1.014.301.274 1.15 1.397 1.095-.657.328-1.808.357-1.808.357s-.247-.164-.493-.357zm1.644.987c-.33-.083-.493-.356-.081-.438.409-.084.82-.112.82-.112s-.082.302-.739.55zm3.042 2.439s-.11-.137-.19-.356c-.084-.218.244-.109.244-.109.33.272-.054.465-.054.465z"/></svg>