<svg xmlns="http://www.w3.org/2000/svg" width="100" height="100"><circle fill="#B2B2B2" cx="50" cy="50" r="50"/><g fill="#010202"><path d="M63.877 83.811l2.625.184c-.525-2.509-.48-5.467-1.83-5.498l-.059-1.099c.573-2.087.253-3.066-.026-3.982-.149-.492-.034-.881-.388-1.671.596-1.135-.404-2.27-.736-3.407.929-1.04.108-1.888-.46-2.762.62-1.635.308-2.335.092-3.132l-.921-6.631-.554-1.289v-3.592l-.644-1.658-.443-.33c1.141-.58.834-1.188-.003-1.597.163-.19-.446-.863.31-1.023l.229-1.171c.102-2.312.253-2.509.316-2.453l-.039-.148-.14-.3.069-.391.281-.691c-.179-5.847.094-4.311.479.185l.322 1.565.437 1.658c-.06.473.038.631.092.875l.254 1.22.027 1.277c.096 1.42.405 1.296.663 1.531-.004 1.09-.013 2.167-.138 3.017.537.111 1.092.16 1.654.175l-1.425.192c-.362.443-.748.96-.782 2.303-.066.473-.053.861.368.968-.037.285.203.305.073.549l-.512.082c-.285-.119-.506.605-.067.705.725.028 1.529.379 2.026-.508.879-.123 1.201-1.219 1.611-2.163.025-.505.355-1.544.078-2.141l.014-.002c.078-.965.144-1.944.16-2.969 0 0 1.566.276 1.566.161 0-.115.576-1.681.576-1.681-.845-2.356-1.438-4.524-2.533-7.068l-.322-.507.046-.598c.306-.304-.197-2.303-.46-3.799l-.023-.276c.315-.298.137-1.037-.092-1.819l-1.289-3.361c-.434-.221.74-.974.491-1.162-1.146-.867-2.401-2.023-4.319-3.209-.054-.492-.202.767-.247.296-.069-.023-2.532-1.428-2.532-1.428l-.407-1.435.02-.755.128-1.288c.393.171.437-.912.723-1.285l.343-1.597.133.024.206-1.09.171-.929c3.644.278 1.269-2.544.36-2.843-2.612-.86-5.322-1.664-7.711-1.872-.841-.073-1.876.096-2.433.541-.095.532-.132.986.214.915l-.188.78c.214.203.193.343.161.369.308.034.384-.017.579.131.24.621.13.811.493 1.356-.575.528-.849.914-1.163 1.224-.386.766 2.496.437 3.879.422l1.153.039.64.167c-1.298.036-2.572-.038-4.152.142l-.048 1.043-.66 1.03c-.066.229.517.491.569.432l-.044.407c.034.216-.201.158.067.549l.006.043.098.032c-.091.068-.13.418-.081.547.153.403-.03.243.11.442-.191.197-.113.449-.075.6-.216.651 1.141.569 1.569.845l-.049 1.049.411.344-.708-.542h-.875l-1.175-.414-3.292-.645-.364.579-.649-.095s-1.635-.092-1.542-.023c.093.069-.518.092-.761.092l-.645-.668c.245-.069-.896-.538-1.289-.299-.204.125-2.035-.279-2.232-.506.186-.039-2.142-1.534-3.016-1.45.011-.124-4.118-.889-4.236-.783.039.902-.119 1.706-.691 2.302.452.295.875.703 1.266 1.243.246.198.5.359.806.254-.067.498.266.728.553.99.156.285.521.37.677.54.55.591.907 1.108 1.546 1.219.111.019.379.165.331.06.31.292.462 1.055.99.691l.507.322c.097.559-.263 1.321.851 1.428.723.264 1.312.177 1.964.542.95.531 2.191.523 3.147.54.222.232.432.48.414 1.013.084 2.525.281 4.228.622 6.239.101.466-.084 2.211.299 2.395.246 3.007.398 1.659.972 2.21.163.241.343.439.535.603l-.239 1.354c.112-1.1-2.928 2.693-2.96 5.442l.595 1.296c-.844 3.072-.057 4.374.039 6.663 0 0 .474 3.609.369 5.157-.175 2.574.177 7.298.183 7.643.01.485 1.075 10.168 1.213 9.2l-.016 2.405c-.152 1.438-.259 2.791.092 3.224 3.182.874 4.022.06 6.079 0l.092-3.224-.276-1.474s-.336-2.243-.357-3.17c-.02-.836.174-2.632.174-2.632l-.369-3.407c-.127-1.321.498-2.642-.552-3.96l.552-1.015c.186-1.261.064-1.91.093-2.854l.183-3.776 1.383-3.407.368 1.935.184 1.656.736.923.277 1.473.553 1.935 1.136 1.822c.31 3.484.888 5.073 1.35 7.479.871 3.482 1.698 6.66 2.396 8.932-.59 2.478.79 1.41 1.013 1.338l2.807-.601zm-6.955-58.479l.003-.009-.001.007-.002.002zm-6.899 18.941c.369.013.718.034 1.03.097.184.109.368.21.555.306-.495-.181-1.036-.3-1.585-.403zM47.117 86.573c-.455-.3-.111.026-1.37-.457-.165-.062-.05-.294-.127-.604-1.231.78-3.158 1.684-2.785 2.118-.319.746-.322.968-.276 1.105.174.5.81.418 1.473.324l1.29-.046 2.762-.6c.661-.299 1.678-.976 1.888-.599l1.658-.323c.045-.374.093-.567.139-1.519l-1.797.507-2.855.094zM68.85 87.239l-1.219-1.427-.922-.966-.322-.507-2.693-.138c-1.004.22-2.294.391-2.97.666-.139.323-.153.676-.046 1.061l-.023.507c1.042.613 1.629.848 2.326 1.174l.368.021.114-.275c.932.562 1.875 1.128 2.625 1.289.941.203 1.683.305 2.256.321.947-.204 1.004-1.144.506-1.726zM61.385 42.7zM31.736 20.826c-1.924-.184-2.819-.533-4.513-.607l-1.841.13-2.302-.13c-1.031.347.234.97.782.954.559.136.932.098 1.381.13-.184.64-.251 1.477.276 2.341.968.276 1.416.404 2.118.174 1.665-.547 2.491-.642 3.315-.737.81-.934.8-1.434.784-2.255zM49.472 14.773l-.023-.002.023.002zM50.791 21.759z"/></g></svg>