<svg xmlns="http://www.w3.org/2000/svg" width="100" height="100"><circle fill="#B2B2B2" cx="50" cy="50" r="50"/><path d="M68.537 71.156c-2.5 1.744-4.914 2.617-7.24 2.617-1.396 0-3.695-.465-6.893-1.396-2.732-.873-5.117-1.31-7.153-1.31-3.663 0-7.21 1.134-10.641 3.402 2.151-2.151 3.896-4.041 5.234-5.671 3.372-4.012 5.058-7.617 5.058-10.815v-.088c0-1.571-.436-3.606-1.307-6.106h11.861v-4.797h-13.956l-1.395-2.441-.785-1.311c-.406-.756-.726-1.396-.958-1.919l-.088-.085v-.088c-1.279-2.442-1.919-4.769-1.919-6.98v-.085c0-2.094.465-3.956 1.395-5.585 2.094-3.663 5.729-5.494 10.905-5.494 7.676 0 11.631 4.478 11.865 13.433h7.674c-.059-5.06-.873-8.927-2.441-11.602l-1.482-2.181c-3.605-4.304-8.695-6.455-15.268-6.455h-.088c-5.29 0-9.854 1.512-13.693 4.536-4.653 3.663-6.98 8.373-6.98 14.13v.873c0 .642.058 1.224.175 1.747.291 1.919 1.774 5.087 4.449 9.507h-7.065v4.797h9.594c1.396 2.326 2.095 4.595 2.095 6.804v.176c0 1.162-.146 2.268-.437 3.314-1.047 3.663-4.536 8.054-10.467 13.172l4.188 5.759c3.257-2.153 6.426-3.229 9.507-3.229 1.92 0 3.839.32 5.758.961l1.659.609c4.824 1.629 8.518 2.444 11.076 2.444 4.305 0 8.113-1.629 11.43-4.886l-3.667-5.757z"/></svg>