<svg xmlns="http://www.w3.org/2000/svg" width="100" height="100"><circle fill="#B2B2B2" cx="50" cy="50" r="50"/><path fill-rule="evenodd" clip-rule="evenodd" d="M28.803 35.5l.27.079c.073.426.183 1.05.292 1.948.174 1.41 1.385 1.246 1.385 1.246s.216.554.216.702l.045.571c.025.372.553 1.194.553 1.194s-.233.269-.364.658c-.13.39.036 1.222.234 1.819.2.598.614 1.316.614 1.316s-.147.19-.163.337c-.01.083.068.192.163.303-.065.045-.112.141-.119.269-.01.155-.079 1.308-.079 1.472 0 .165.198.114.373.008.172-.102.172-.198.164-.337l-.09-1.14c.203.258 1.044 1.634 1.536 3.167.51 1.593 1.108 2.883 1.498 3.341.39.46.952.373 1.039.416.418.21.796.476 1.514.129.72-.346 1.229-.788 1.229-.788l.036.452.06.233s-.286 1.056-.32 1.43c-.034.369-1.472 5.175-1.655 5.703-.181.529-.916 2.458-1.219 3.056-.304.598-.347 1.395-.417 2.096-.07.701-.242 1.835-.336 2.259-.096.425.087.33.225.425.138.096.658.156.658.156s-.088 1.887-.069 2.233c.018.347.26.319.304.338.042.018.181.043.198.224.018.183.224.485.224.485-.415.944-.259 1.932-.233 2.605.027.677 0 1.16 0 1.16s-.276.037-.32.218c-.043.182-.077.458-.077.458s-.208.052-.252.338c-.042.287-.276.398-.657.771-.382.372-.374.65-.374.65-.086-.044-.225.154-.233.355-.009.198-.295 1.506-.346 1.53-.144.072-.158.71-.088 1.23.069.52.701 1.09.797 1.194.095.104.624.588.762.614.138.026.234-.208.363.053.606 1.211 1.723 2.294 2.459 2.727.735.432 3.047.476 3.92.094.876-.38.997-.716 1.048-1.133.052-.415-.217-.616-.217-.616-.095-.707-.832-1.4-.994-1.521-.167-.121-.953-.684-.969-.857-.018-.173-.435-.777-.686-.833-.25-.05-.25-.18-.25-.284 0-.104.182-.252.155-.397l-.536-.632c-.268-.382-.294-.251-.294-.251-.096-.062-.034-.174-.044-.261-.009-.087-.009-.294.051-.407.233-.43-.051-.849-.154-.856-.104-.009-.096-.096-.096-.173 0-.079-.113-.182-.113-.182l.52-1.378c.157.035 1.213.842 1.402.875.191.035.157-.155 1.559-.849 1.402-.692 4.502-.485 8.155-.312 3.653.174 4.519-.087 4.519-.087s.018.52 1.558 3.359c1.542 2.841 1.991 5.566 1.991 5.566-.155.243.071.33.071.33s.164.734.31 1.013c.148.276.121.874.121.874s-.146.087-.146.347c0 .259.217 1.548.371 1.834.158.287.399.745.33.808-.18.156-.104.424.018.519.122.094.226.424.242.571.018.146.562.39.96.371.399-.018 1.499-.042 1.922-.147.426-.104.46-.614.539-.71.075-.095.164-.173.372-.216.207-.043 1.072.121 1.868.036.798-.089 1.818-.591 3.438-1.682 1.62-1.09 1.696-1.523 1.748-1.635.054-.112-.079-.27-.249-.493-.175-.227-.226-.166-.226-.166-.329-.391-1.213-.44-1.646-.391-.433.053-1.238.062-1.446-.05-.207-.113-.795-.234-.979-.139-.181.096-.604.043-.604.043s-.062-.035-.156-.44c-.097-.408-.269-.408-.364-.538-.095-.13-.838-.477-.969-.545-.131-.069-.217-.104-.312-.026-.094.078-.399.286-.545.208-.148-.077-.139.105-.139.252 0 .146-.146.174-.146.174s-.123-.071-.123-.227-.172-.294-.328-.329c-.155-.034-.484-.813-.502-1.092-.017-.275-.208-.379-.208-.379-.536-4.97-1.549-8.789-1.549-8.789.087-.111.111-.284.224-.337.114-.052.062-.199.027-.442-.034-.241-1.472-6.067-1.394-6.491.077-.424-.199-1.065-.242-1.144-.044-.077-.184-.146-.184-.632 0-1.379-.345-3.352-.578-3.921-.234-.572-.226-.528-.183-.745.166-.835-.414-4.13-.414-4.13.275-.053.604-.754.709-.883.104-.13.579-.735.562-.9l-.105-1.144c.121.053.329-.094.416-.181l.364-.208c.129-.104.567-.572.651-.657.016.128.188.69.197.762-.033.064-.104.381-.035.683.07.303.452.407.511.296.097-.021.009-.408.096-.581.088-.174.088-.32.096-.605.009-.286.017-1.378-.122-1.637s-.241-.771-.226-.865c.019-.096-.033-.46-.051-.72-.017-.258-.243-.745-.425-1.835-.183-1.089-.276-1.42-.328-1.488-.053-.07-.097-.295-.097-.295s.078-.095.062-.303c-.018-.208-.234-.321-.234-.321.043-.354-1.695-2.276-1.695-2.276.085-.433-.07-.469-.139-.658-.07-.19-.441-2.131-.408-2.347.034-.217-.13-4.268-.416-5.064-.284-.797-.467-1.923-.483-2.347-.018-.424-.433-1.462-.433-1.462s.173.095.241.008c.07-.086.147-.086.217-.103.068-.017.13-.122-.018-.294-.146-.173-.51-.997-.717-1.837-.209-.839-.384-1.418-.719-1.852-.339-.432-1.369-1.064-1.369-1.064.112-.589.32-.641.425-.986.103-.348.527-.703.821-.894.295-.19 1.938-.788 2.691-1.23.755-.441.277-1.67.226-1.792-.052-.12.035-.303.087-.484.053-.182-.068-.502-.154-.588-.088-.087-.279-.087-.279-.165 0-.077.131-.286.263-.424.128-.14.05-.451-.142-.658-.189-.208-.249-.624-.249-.624.224-.173.191-.433.191-.588 0-.155.033-.241-.123-.416-.155-.173-.728-.434-.952-.52-.225-.086-.311-.121-.346-.226l-.022-.098.16-.162-.175.057-.066-.247c-.069-.155-.011-1.149-.087-1.333-.066-.156-.277-.258-.437-.762-.187-.586-1.195-2.06-1.771-2.934l-.049-.063c.756.3 1.663 1.144 2.151 1.681-.507-.557-1.419-1.456-2.193-1.74l-.005-.003c-.176-.211-.42-.385-.686-.523l.068-.023c.127-.037.309-.07.539-.052.458.031 1.134.228 1.881 1.006-.752-.785-1.408-1.014-1.878-1.047-.188-.013-.462.01-.66.092-.275-.138-.567-.236-.832-.304l.089.002-.156-.019c-.377-.09-.685-.118-.783-.092-.147.036-1.3.144-2.328.25-.678-.123-1.958.048-3.134.317l-.269.063c-.506.039-.831.282-.928.362-.866.452-1.895 1.334-2.036 1.585-.182.324-.155.684-.298.738-.148-.019-.361-.037-.604-.031-.439.013-.933.133-1.25.468.306-.323.814-.417 1.25-.427.192-.006.366.004.503.019-.641.173-1.571 1.486-1.775 2.836-.053.352-.042.739.01 1.128.026.797.105 1.605.242 2.217.062 1.14.234 2.232.532 2.663-.254-.366-.383-1.289-.441-2.314l.071.205.021.245c.022.281.088.487.152.625.027.359.06.681.098.911-.037-.225-.066-.538-.088-.886l.133.218-.099-.214-.041-.125-.026-.577c.047.247.106.465.171.648.059.414.122.793.184 1.051-.06-.249-.118-.611-.168-1.01l.078.179c.078.82.221 1.545.431 1.924l.002.042-.086.597c-.088.594.089.908.089.908l-.047-.228c-.02-.153-.028-.378.016-.671l.049-.341.055.34c.006.367.113.563.113.563l-.046-.23-.01-.098c.039.146.086.276.138.378.026.407.05 1.011-.014 1.218.063-.203.068-.716.06-1.135l.022.037.046.073.159.763c.121.587.396.821.399.825l-.125-.201c-.072-.137-.156-.348-.215-.636l-.116-.55c.18.389.341.938.449 1.196.35.833 1.151 1.271 1.151 1.271h.007c.089.071.208.158.353.238.209.116.465.217.729.229l.28.522-.006.232c-.17-.021-.298.107-.298.107-.28-.973-1.21-.879-1.367-.879-.154 0-1.298.251-1.514.156-.217-.096-.702.043-1.109.232-.294.139-1.28.426-1.87.573-.221-.224-.918-.916-1.055-.944-.166-.034-.235-.078-.261-.164-.026-.087-.182-.14-.312-.105-.129.036-.769.304-1.21.443-.441.138-.59.164-.735.294-.148.13-.53.562-.478 1.15.034.386.097.829.136 1.093-.38.099-.506.275-.673.396-.251.182-1.644.668-2.026.736-.381.069-1.748.45-2.043.571-.294.121-.727.208-.909.459-.183.25-.277.527-.277.527s-.25.071-.485.581c-.157.345-.145 1.024-.113 1.541-.067.145-.19.421-.215.546-.037.174-.088.46.068.502zm12.276-16.928c-.065-.424-.106-.919-.131-1.437l.111.449.007.563.013.425zm.309.682l-.002-.11c.036.226.079.436.126.622l.051.38c-.073-.244-.131-.548-.175-.892zm-.063.265l.059.102.029.453c-.034-.129-.066-.287-.082-.48l-.006-.075zm-.184-1.461l.108 1.268-.073-.248c-.018-.337-.029-.681-.035-1.02zm.079.039l-.002.153-.019-.212.021.059zm.045.527c.028.277.065.544.107.787l.012.209-.059-.107-.085-1.015.025.126zm.106-.074l.105.929c-.042-.256-.076-.545-.104-.85l-.001-.079zm.089.535l.08.224c.022.292.049.562.078.776l-.091-.346-.067-.654zm.069.072l-.064-.332.056.214.008.118zm.061-.178l-.006-.024.005.009.001.015zm.001.374l-.007-.017-.041-.126-.006-.113.049.211.005.045zm.007.007l-.002-.016.001.003.001.013zm.042.786l-.021-.061c-.028-.209-.05-.469-.069-.754l.046.09.006.062.038.663zm.024.266l-.082-.206-.039-.326.081.238.015.099-.015-.098.019.048.021.245zm.036-1.02l-.024-.047-.001-.004-.005-.184.024.165.006.07zm.006.071l-.021-.079.016.019.005.06zm.159.186l-.073-.316.068.231.005.085zm.02.457l-.037-.186.034.139.003.047zm.001.045l-.092-.341-.017-.19.039.164.026.109.043.214.001.044zm.013.26l.04.629c-.034-.128-.065-.287-.081-.48l-.034-.39.037.118.01.046-.01-.046.038.123zm.054-.386l-.051-.209-.001-.078.043.208.009.079zm.071.586l-.108-.361-.002-.068.105.394.005.035zm.042.133l-.012-.039-.002-.015.015.046v.008zm.043.436l-.029-.255.01.029.019.226zm.008.752c-.019.121-.026.262-.021.411-.186-.348-.296-1.022-.359-1.801l-.016-.208.056.091-.056-.092-.035-.646.056.2.058.677c.021.281.086.486.15.627.027.357.06.68.099.909-.038-.225-.067-.537-.089-.885l.133.217-.1-.215-.041-.125-.028-.61.131.378.066.465c.015.26.017.478-.004.607zm16.986 29.835c.079-.008.32-.294.32-.294l.086.053c-.113.027-.372.337-.372.337l-.034-.096zm-12.854-41.782l1.308-.21c-.331.082-.776.177-1.308.21zm-.073-.047c1.212-.281 2.51-.509 3.187-.413-.483.05-.935.098-1.243.139-.118-.005-.258.001-.417.027l-1.527.247zm-.94 16.781l.013.006h.002l-.013-.002-.002-.004zm-.794-.192l.25.105c.098.064.201.117.31.151-.195-.053-.387-.145-.56-.256zm.039-.061l.094.08-.168-.08h.074zm.07 0l.195.123.039.021-.089-.019-.158-.125h.013zm.076 0l.047.066-.096-.066h.049zm.298.037l.164.138-.017-.001-.11-.005-.207-.065-.107-.104.202.002.075.035zm.094-.002l-.076-.032.024.001.052.031zm.099.134l-.148-.111.106.034.042.077zm.041.076l-.152-.034.068.002.03.001.042.008.012.023zm.012.022l.026.042.01.019-.063-.014c-.109-.018-.226-.062-.336-.123l.125.019.238.057zm.084-.116l-.022-.017.016.004.006.013zm.017.038l-.044-.007-.019-.019-.009.009-.024-.053h.004l.014.003.076.064.002.003zm.009.096l.074.079.003.002-.035.002-.032-.014-.038-.063-.004-.013.03.007h.002zm.023.02l.039.034.009.018-.048-.052zm-.011-.071l-.009-.001.009.001zm.011.025l-.003-.004.002.001.001.003zm.106-.041l-.065-.013-.02-.043.072.03.013.026zm.13.303l.02.046-.067-.066-.005-.01.052.03zm-.041-.069l.008-.002.002.003.004.004-.014-.005zm-.014-.098l-.006-.015.031.011-.025.004zm-.02-.046l-.002-.008.064.019.044.016-.003.001-.103-.028zm.003.049l-.032.004-.026-.018-.016-.032.015.005.046.016.013.025zm-.085-.071l-.003-.004-.001-.005.063.019.004.008-.049-.012-.014-.006zm-.016-.033l-.003-.004.012.002.022.011-.031-.009zm.101-.017l-.037-.011-.006-.016.043.027zm.1.075l-.036-.011-.056-.022.088.029.004.004zm.006.002l-.005-.005.004.002.001.003zm.055.106l.035.067-.101-.049.066-.018zm.066-.01l-.022-.011-.003-.011.006.002.019.02zm.053.061l-.037-.033.02.011.017.022zm.029.059l-.09-.032-.042-.082.011-.004.05.022.043.038.028.058zm-.038.073l-.024-.05.056.014-.032.036zm-.022-.012l-.183-.118-.002-.003.163.074.022.047zm-.081.123l-.053-.123.058.053-.058-.053-.023-.056.146.095-.07.084zm-.015-.008l-.126-.202.065.065.061.137zm-.014.068c-.07-.073-.154-.174-.244-.306l.044-.004c.068.122.137.223.203.299l-.003.011zm-.044.15l-.161-.316.191.194-.03.122zm-8.5.908c.215-.468.258-.744.258-.744l.762.295.46.205c-.183.081-.386.22-.564.453-.346.449-.553.943-.553.943s-.036.073-.424.107c-.042-.293-.101-.91.061-1.259zm-5.041 18.917l.043-.203.125-.078c.045-.022.057.066.069.207.014.143-.091.189-.181.226-.095.038-.061-.088-.056-.152zm.118-1.351c.039 0 .034.132.022.169l-.096.042-.021-.116c.007-.066.056-.095.095-.095zm-3.363-10.652c0-.127.09-.235.209-.259l.007.072.062.447-.015.004c-.145 0-.263-.119-.263-.264z"/></svg>