<svg xmlns="http://www.w3.org/2000/svg" width="100" height="100"><circle fill="#B2B2B2" cx="50" cy="50" r="50"/><path fill-rule="evenodd" clip-rule="evenodd" fill="#1D1D1B" d="M53.539 25.808c2.122.567 4.012 1.366 4.725 3.343 1.676.804 3.117 2.033 4.379 3.572 1.263 1.538 2.023 3.194 2.768 5.416.541 1.623.268 3.562 1.687 4.442.844.04.074 3.623-.766 5.124-.249.443-.72.657-.807 1.151-.091.51.192 1.093.229 1.613.104 1.435.065 3.005.115 4.379-.493.033-.761-.16-1.037-.347.637-1.302.312-2.855.346-4.724-.967.608-1.86 1.288-2.304 2.419-.677.601-1.731.549-2.536.923-.527.245-.832 1.346-1.383.807-.628-.116.402-.189.231-.577-.263-.328-.677.162-1.153 0 .289 3.925.862 7.556 1.037 11.41.047 1.015-.1 2.076 0 3.111.31 3.197 1.377 6.034 1.613 9.104.258 3.337-.766 6.692-.921 10.257-.065.856-2.119.912-3.343 1.382-.901.347-2.123 1.337-3.457 1.499-2.002.242-4.482-.397-4.726-1.499-.317-1.439 1.136-2.049 1.959-2.65-2.043.301-5.928 2.409-7.951-.115-.171-2.326 1.907-2.14 3.342-2.765 1.105-.484 1.385-1.636 2.188-2.306-.67-.812-.43-1.69-.575-2.997-.099-.89-.793-1.745-1.036-2.649-.381-1.414-.868-3.07-1.038-4.495-.367-3.061-.167-5.99-.461-9.104-.122-1.285-.567-2.522-.692-3.803-.146-1.51.289-3.109.115-4.609-.203-1.754-.864-3.268-.806-4.955.086-2.522 1.464-4.763 1.037-7.376-.433-.329-.374.873-1.037.346-1.074.66-1.932 1.925-3.342 1.728-.938-.129-3.173-2.835-3.803-3.687-.527-.713-.955-1.609-1.383-2.305-.8-1.299-1.505-2.076-1.959-3.457-.397-.255-.523.581-.807.806-3.193-1.839-6.442-3.623-9.45-5.647 1.952-4.002 4.161-7.747 6.224-11.639 3.479 1.746 6.612 3.836 9.911 5.762-1.161 2.143-2.456 4.153-3.688 6.223 1.045.987.279 2.828.576 4.149.187.83 1.084 1.867 1.614 2.535.886 1.121 2.012 2.079 2.881 2.881 1.012-.333 1.005-1.474 1.498-2.304.856-1.445 1.773-2.838 2.766-4.726.196-.834 2.968-2.256 4.38-3.457v-1.613c-1.247-.816-2.631-2.262-2.767-4.264-.027-.406.227-.734.231-1.152.003-.341-.174-1.818-.347-2.535-.112-.469-.569-.834-.576-1.268-.013-.756.954-1.844 1.268-2.074 1.928-1.412 6.224-1.959 8.297.115 1.946 1.946 1.57 6.412.115 8.297-.65.843-1.674.644-1.381 2.305zm.231 56.584c.787-.409.441-2.633-.116-3.112-.094 1.053-.213 2.217.116 3.112z"/></svg>