<svg xmlns="http://www.w3.org/2000/svg" width="100" height="100"><circle fill="#B2B2B2" cx="50" cy="50" r="50"/><path d="M73.68 16.786l-.074-.07-.106-.021h-46.748l-.152.045-.151.061-.021.021-.04.016-.05.081-.007.078-.01.046-.016 65.091-.005.474.021.473.002.008.002.034.04.106.084.055h.012l.01.008h46.005l.495.014.496-.014.086-.035.05-.078.002-.043.021-.062v-63.74l-.014-.836.002-.411.027-.424.008-.148.043-.213.002-.305.004-.108-.018-.103zm-2.615 65.159h-3.116l-.12.012-.021-.001-.086-.021-.037-.048-.005-.028-.003-.034v-2.897l-.014-.124.012-.104.026-.035.002-.002.05-.023.014-.002.043-.005h2.982l.158-.013.048.004.127.031.001.002.031.045.006.06v2.821l.008.086v.006l.002.016.004.042-.014.146-.066.065-.032.001zm-4.636-.121l-.066.1-.055.021-.517.008-.542-.008-.153.014-.142-.029h-.007l-.021-.031-.009-.066v-2.799l-.014-.164.014-.162.046-.053.082-.022.533-.008.533.008.117-.011.027-.001.009.001.069.011.064.038.018.033.006.05v2.921l.011.096-.003.053zm-2.805.064l-.004.015-.047.035-.071.008h-5.999l-.153.014-.141-.029h-.016l-.025-.048-.005-.058v-2.852l-.013-.139.013-.134.055-.053.081-.016h6.029l.123-.013.102.012.059.054.006.031.006.037v2.883l.007.078v.05l.002.04-.009.085zm-8.973.057h-6.468l-.197.014-.186-.029-.044-.071-.01-.117v-2.73l-.013-.149.013-.146.068-.065.091-.018h6.535l.17-.014.11.022.047.058.013.077v2.951l.003.085-.017.081-.051.045-.064.006zm-8.765-.139l-.015.092-.044.037-.071.011h-8.374l-.197.014-.178-.027-.038-.06-.011-.102v-2.707l-.013-.173.013-.168.066-.073.057-.015.021-.003h8.396l.157-.013.153.013.053.055.015.081v2.882l.008.08.002.073v.003zm-10.744.124l-.082.016h-6.097l-.144.014-.084-.019-.055-.079-.012-.12v-2.603l-.008-.121v-.06l-.004-.044.012-.184.076-.081.083-.018h6.028l.139-.013.118.012.057.054.02.091v2.988l.004.083-.011.046-.04.038zm.004-55.877l-.071.006h-6.18l-.12.014h-.01l-.073-.08-.025-.123v-7.239l-.007-.111v-.024l-.006-.071.028-.194.069-.068.098-.023h5.946l.157-.013.153.013.069.079.015.118v7.337l.012.197-.006.094-.031.075-.018.013zm10.405-7.921l.047-.004.181.012.052.032.032.056.021.139v7.584l-.027.09-.016.012-.072.006h-8.532l-.144.014-.08-.018-.042-.06-.016-.11v-7.3l-.014-.19.029-.18.063-.058.088-.018h8.245l.119-.008h.066zm9.014-.001l.108.008.052.034.033.056.021.137v7.193l.016.243-.007.116-.038.111-.032.026-.036.003h-6.551l-.179.014-.141-.024-.048-.065-.018-.129v-7.186l-.007-.124v-.05l-.007-.078.007-.106.038-.111.058-.048.078-.013h6.422l.128-.01.103.003zm2.603.064l.03-.029.024-.018.068-.008h5.946l.157-.013.153.013.067.079.008.059v7.51l.013.12-.009.08-.019.044-.03.022-.061.005h-6.052l-.144.014-.129-.029h-.002l-.009-.014-.02-.077v-7.443l-.013-.158.009-.117.013-.04zm8.958-.063h.002l.149.008.109.078.035.11v7.459l.009.079-.001.034-.065.131-.056.028-.536.007-.561-.008-.143.014-.114-.025-.025-.04-.012-.092v-7.435l-.014-.154.027-.141.044-.033.055-.012.375-.01.374.01.189-.01.159.002zm1.542.136l.004-.024.073-.08.121-.024h2.814l.111-.008h.086l.029-.003.175.026.062.069.02.098v7.247l.008.119v.101l.003.026-.011.163-.072.081-.026.002h-3.153l-.119.014-.042-.002-.059-.066-.015-.069v-7.509l-.013-.115.004-.046zm.327 59.093l-.22-.022h-.053l-.044-.058v-.003l-.001-.068v-14.002l-.012-.106.004-.063v-.005l.028-.055.052-.04.101-.025h3.027l.077-.008.11.016.074.074.024.106v13.866l.014.149-.014.146-.079.072-.117.019h-2.616l-.15.008h-.205zm-1.643-.03l-.119.022-.503.006-.503-.006-.14.014-.122-.027-.039-.056-.009-.066v-13.934l-.015-.165.028-.152.046-.04.084-.014.489-.014.206.007.062-.004.407.011.062.006.037.017.057.053.042.122v13.872l.014.173-.021.114-.063.061zm-2.782.003l-.091.02h-6.014l-.14.014-.122-.027-.034-.062-.007-.083v-13.919l-.013-.15.009-.102.009-.049.056-.05.091-.014h6.014l.121-.013.013.001.068.007.045.027.032.052.016.087v13.946l.015.153-.024.114-.044.048zm-15.837-14.188l.004-.062.038-.11.064-.053.037-.006.057-.002h6.671l.072.007.033.019.04.059.028.15v13.768l.014.172-.014.168-.064.074-.102.024h-6.452l-.176.014-.165-.028h-.007l-.053-.065-.016-.086v-13.747l-.007-.123v-.134l-.002-.039zm-1.862 14.14l-.006.011-.052.044-.079.013h-8.328l-.191.014-.18-.028h-.023l-.042-.061-.012-.076v-13.873l-.014-.195.007-.094.038-.082.061-.043.017-.001.066-.002h8.449l.124-.013.086.009.046.034.03.061.009.078v13.916l.013.165-.019.123zm-10.685-.014l-.057.062-.092.02h-5.855l-.216.014-.207-.028h-.023l-.053-.065-.015-.086v-13.806l-.015-.214.007-.102.038-.094.066-.052.021-.005.087-.004h3.344l.736-.007h1.449l.492.015.138-.013.075.012.027.016.032.052.023.13v13.828l.013.165-.011.143-.004.019zm-.285-49.957l.023-.003.158.01.082.076.024.12v13.48l.014.165-.029.153-.059.047-.078.013h-5.938l-.092.007h-.006l-.042.004-.035.003-.165-.03h-.008l-.062-.071-.021-.095v-13.417l-.007-.107v-.03l-.006-.071.006-.092.038-.087.067-.052.084-.016h5.825l.123-.007h.104zm10.953 14.017l-.054.036-.067.01h-8.374l-.168.014-.157-.03-.059-.071-.018-.096v-13.464l-.014-.188.006-.088.038-.08.061-.042.075-.011h8.351l.158-.013.153.013.078.085.02.126v6.791l-.007 6.765.013.124-.006.058-.029.061zm8.711-14.018l.102.008.053.035.035.056.024.136v13.412l.015.176-.028.165-.066.057-.087.019h-6.505l-.15.014-.137-.03-.059-.08-.017-.102v-13.358l-.007-.127v-.016l-.003-.038-.004-.073.016-.117.06-.098.106-.03h6.444l.118-.009h.09zm2.621.054l.054-.036.068-.01h5.809l.122-.007h.09l.028-.003.168.011.081.076.018.083v13.608l.013.122-.021.105-.059.047-.077.013h-5.953l-.161.014-.149-.03-.048-.065-.002-.011-.003-.067v-13.525l-.013-.157.009-.114.026-.054zm8.963-.053l.036-.004.074.008.094.049.056.075.013.057v13.613l.01.086-.003.035-.063.098-.109.046-.495.013-.497-.013-.149.014-.138-.03h-.008l-.042-.061-.011-.076v-13.501l-.015-.188.006-.088.039-.079.098-.045.438-.012.439.012.137-.009h.09zm1.521.159l.026-.062.051-.048.135-.042h2.776l.112-.007h.107l.016-.002.165.024.077.074.028.107v13.329l.008.119v.146l.001.01-.009.133-.081.092-.13.03h-2.587l-.153.007h-.202l-.22-.022-.068-.015-.042-.06-.004-.028.001-.026v-13.623l-.01-.09.003-.046zm-1.241 34.025l-.068.122-.116.054-.404.011-.485-.014-.108.009h-.004l-.014.001-.07.004-.186-.027-.044-.067-.012-.092v-18.27l-.009-.149v-.078l-.004-.047.013-.225.04-.066.029-.013.059-.012.533-.007.533.007.111-.011.062.003.104.079.032.107v18.559l.009.087-.001.035zm-2.822.12l-.034.033-.008.006-.078.014h-5.984l-.153.014-.139-.027-.043-.067-.004-.027-.001-.011v-18.535l-.013-.158.011-.142.004-.012.053-.052.081-.015h6.029l.123-.013.101.011.063.074.008.058v18.523l.013.157-.011.133-.018.036zm-8.986.053h-5.946l-.229.009h-.29l-.328-.022h-.013l-.055-.089-.015-.116v-18.533l-.002-.108.018-.104.061-.059.083-.009h6.558l.139-.012.042.002.042.009.044.027.031.061.02.147v18.306l.016.254-.016.118-.06.098-.07.02-.03.001zm-8.741-.11l-.003.021-.026.046-.028.028-.825.014h-5.605l.044-.198.016-.094.008-.024-.007-5.161v-5.142l.013-.165-.013-.161-.038-.061-.033-.019-.007-.008-.011-.002-.029-.017-.094-.014h-1.769l-.118.008h-.056l-.05.004-.185-.012-.08-.07-.026-.111v-7.344l-.014-.191.029-.18.063-.058.04-.008.025-.002h8.479l.124-.013.095.011.043.033.027.061.006.062v18.5l.009.114.002.063-.006.09zm-17.225-18.65l.027-.188.069-.068.065-.015h6.084l.123-.013.083.009.066.076.015.117v7.399l.014.165-.029.153-.059.047-.078.014h-5.855l-.025.002-.135-.007-.142.007-.121-.017h-.023l-.054-.073-.014-.094v-7.3l-.008-.112v-.047l-.003-.055zm4.926 12.632l-.092.229-.107.222-.112.111-.125.092-.065.049-.008.006-.01.008-.041.03-.018.02-.041.036-.026.039-.02.021-.002.013-.013.019.002.026-.016.069.531 1.787.009.088-.048.063-.082.028-1.315.014-.126-.028-.03-.049-.008-.059.643-1.818v-.012l.013-.064-.036-.086-.081-.06-.201-.09-.106-.065-.153-.148-.111-.192-.081-.172-.056-.18-.019-.05-.023-.179.017-.231.026-.094.068-.179.107-.223.122-.184.044-.055.063-.055.027-.018.11-.048.225-.042.221-.01.445.051.007.003.119.059.14.089.109.113.007.01.119.208.073.221.021.266-.067.287-.029.114zm34.21 6.121h-.022l-.073-.077-.018-.072v-18.58l-.014-.12.002-.017.007-.065.026-.044.053-.033.087-.015h3.039l.1-.01.111.018.06.07.016.097v18.048l.008.191v.283l-.008.191-.025.062-.051.048-.11.033h-3.028l-.057.007-.103-.015z"/></svg>