<svg xmlns="http://www.w3.org/2000/svg" width="100" height="100"><circle fill="#B2B2B2" cx="50" cy="50" r="50"/><path fill="#231F20" d="M92.664 61.714l.001-1.493-2.878-.002.015-17.929 2.877.002.001-1.493-2.876-.002.002-2.851-3.597-.002-.002 2.85-2.849-.002.002-3.209-3.596-.003-.002 3.209-2.848-.002.003-3.209-3.597-.003-.003 3.21-2.849-.002.003-3.21-3.597-.002-.002 3.21-2.847-.002.002-3.209-3.598-.003-.002 3.209-2.848-.002.002-3.209-3.596-.002-.003 3.209-2.847-.002.002-3.209-3.597-.003-.002 3.209-2.847-.002.002-3.209-3.593-.007-.002 3.209-2.847-.002.002-3.209-3.597-.003-.002 3.209-2.848-.002.002-3.209-3.596-.003-.002 3.209-2.848-.002.002-2.85-3.597-.003-.002 2.85-2.848-.002.002-2.851-3.596-.002-.002 2.85-2.848-.002.002-2.851-3.597-.002-.002 2.85-2.518-.002-.001 1.494 2.518.002-.014 17.929-2.518-.003-.001 1.493 2.518.003-.002 2.13 3.597.003.002-2.131 2.848.002-.002 2.131 3.597.003.001-2.13 2.848.002-.001 2.13 3.596.003.002-2.13 2.848.002-.001 1.771 3.596.003.001-1.771 2.848.002-.001 1.771 3.596.003.001-1.771 2.848.002-.001 1.771 3.597.002.001-1.771 2.848.002-.001 1.771 3.597.003.001-1.771 2.847.002-.001 1.771 3.597.003.001-1.771 2.848.003-.002 1.771 3.598.003.001-1.771 2.848.002-.001 1.772 3.596.003.002-1.772 2.849.003-.002 1.771 3.597.002.001-1.771 2.848.002-.002 1.771 3.597.003.002-1.772 2.848.003-.002 2.131 3.597.003.001-2.131 2.872.002zm-80.206-1.556l.014-17.929 2.848.002-.014 17.929-2.848-.002zm6.444.005l.014-17.929 2.848.002-.014 17.93-2.848-.003zm6.444.006l.014-17.93 2.848.002-.014 17.929-2.848-.001zm6.444.004l.014-17.929 2.848.002-.014 17.929-2.848-.002zm6.445.006l.014-17.929 2.848.002-.014 17.929-2.848-.002zm6.444.005l.014-17.93 2.847.002-.014 17.929-2.847-.001zm6.444.004l.014-17.929 2.848.002-.015 17.929-2.847-.002zm6.443.005l.015-17.929 2.848.002-.015 17.93-2.848-.003zm6.445.005l.015-17.929 2.847.002-.014 17.93-2.848-.003zm6.444.006l.014-17.93 2.849.002-.015 17.93-2.848-.002zm6.444.005l.014-17.93 2.848.002-.015 17.929-2.847-.001zm6.444.005l.015-17.93 2.848.002-.014 17.929-2.849-.001z"/></svg>