<svg xmlns="http://www.w3.org/2000/svg" width="100" height="100"><circle fill="#B2B2B2" cx="50" cy="50" r="50"/><g fill-rule="evenodd" clip-rule="evenodd"><path d="M38.972 48.333l-.228.057.19.07.038-.127zM38.893 51.589c-.056-.521.28-1.008.384-1.136.104-.129.304-.145.304-.145l-.08-.16-.672-.224s-.648 2.186-.336 3.538c.312 1.354 1.241 1.377 1.241 1.377l.056-.536.136-1.44s-.497-.177-.632-.289c-.137-.112-.345-.465-.401-.985zM39.943 48.304c.038-.164.019-.332.019-.332s-.05.089-.159.12l-.398.13-.145.319.434.146c-.001 0 .211-.218.249-.383zM49.532 61.019s-.136-.536-.296-1.097l-.576-1.521h-.232l-.008.12-.096.279s-.048.168-.008.28c.04.113-.096.521-.096.521l.508.474-.153.346s.123 1.103.092 1.613c-.031.511-.357 1.153-.397 1.204-.041.051.04.295.04.295s.348.664.47 1.092c.122.429.061 1.408.041 1.501l-.122.275c-.041.112.02.336.102.387.082.052.061.266.061.296l.04.276c.021.031-.02.326-.071.397-.051.071.01.367.01.367.479-.673.82-2.744.892-3.247.072-.506.04-1.819.04-1.819l-.048-.016-.064-.607.072-.039-.16-.874-.041-.503zM50.574 51.293l-.137-.137-.006-.224s-.905-.184-1.286-.932c0 0-.054.578-.129.66 0 0 .231.157.333.728l.646.068.035.312-.075.028-.021.244.096-.021.04-.068s.034-.163.143-.17l.272.021.027.096.067.02v.062h.32v-.354h-.326v-.333zM39.565 50.973l.048-.088c0-.024-.008-.225-.104-.216 0 0-.329.399-.32.775.008.377.056.713.208.833.153.12.585.312.585.312l.063-.12-.472-1.377-.008-.119zM78.146 82.307c-.081-2.172-.339-8.447-.391-9.559-.05-1.111-.53-12.796-.601-14.305-.074-1.508-.356-8.9-.456-10.831-.097-1.935-.544-12.462-.611-14.028-.068-1.564-.475-10.62-.546-12.116-.07-1.496-.078-2.503-.239-2.92-.163-.417-.619-1.021-1.443-1.347-.826-.326-1.298-.252-3.527-.19-2.228.063-6.946.213-6.946.213l-4.784.163s-.709-.124-1.074-.247c-.144-.725-.222-1.139-.398-1.65-.178-.51-.327-.586-.765-.639-.437-.055-1.119-.158-1.824-.872-.79-.802-.645-2.068-.973-2.666-.274-.496-.911-1.306-1.887-1.609-.973-.303-2.324.077-2.977.927-.653.848-.696 1.546-.749 2.162-.055.619-.349 1.286-.985 1.827-.632.544-1.179.588-1.433.628-.256.041-.702.292-.671.922l.076 1.439-.637.17s-6.083.077-8.625.161l-5.242.15c-1.084.046-1.694.212-2.132.684-.437.469-.654.931-.676 1.93-.022.998-.17 5.222-.193 7.078-.026 1.857-.322 10.568-.404 13.98-.084 3.412-.31 10.635-.35 12.742-.041 2.106-.27 10.546-.337 12.739-.068 2.194-.26 10.518-.316 12.696s-.124 3.944.012 4.447c.134.506.507 1.41 1.543 1.72.912.271 4.464.095 8.374.085s9.467-.001 12.727-.006c3.261-.006 9.635-.001 13.294-.012 3.661-.014 10.759-.044 12.578-.067 1.821-.025 2.058-.022 2.697-.522.639-.5.97-1.108.891-3.277zm-27.166-71.082c.469-.019 1.208.472 1.358 1.25.142.732-.355 1.604-1.217 1.74-.864.137-1.729-.612-1.661-1.589.068-.979 1.022-1.382 1.52-1.401zm2.37 32.327s-.089-.007-.062.068c.026.074.067.163.048.217-.021.055-.123.076-.123.076l.008.122-.075.014v5.428s-.026 1.076-1.319 1.429v.259l-.156.122v.327h-.328v.496l.145-.096.189-.007.075.082s.054-.252.197-.32c.143-.067.36-.013.442.279.081.292.014.81-.26.857-.271.048-.326-.313-.326-.313l-.122.027-.224-.014-.021-.021h-.436l-.088.088-.327.008s-.067.225-.224.225l-.279-.13-.047.319s-.205.755-.245 1.163c-.042.409-.157 1.552-.136 1.92.02.367 0 .979 0 .979s1.061 2.13 1.375 4.32c.312 2.189.218 3.918-.354 5.782-.571 1.862-2.204 4.109-2.204 4.109s0 .761-.041.884l-.149.407s.34.272.3.721c-.041.45-.463 1.987-.463 1.987v.244s-.762.407-4.067.299l-.708-.026v.218s-2.884.23-4.354.204c-1.469-.027-2.761-.163-2.761-.163s-.204-.313-.177-.463c.027-.149.312-.38.639-.45l.79-.149s.925-.583 1.033-.625c.109-.041.136-.123.136-.123l.231-.367s-.15-.176-.204-.558c-.054-.38-.082-.626.231-.843.313-.218.381-.3.381-.3l-.068-.611s.041-.137.108-.218c.068-.082-.095-1.252-.095-1.252s-.095-.449-.054-.803l.041-1.211s.054-.558.095-.829c.041-.274.299-.981.299-.981s-.272-.312-.286-.462c-.013-.148-.054-.625-.095-.666s-.136-.435-.15-.708c-.013-.271.027-1.796.232-2.626.204-.829.489-1.781.489-1.781l.068-.178s-.068-.026-.068-.136c0-.108-.013-.17.041-.245.055-.074.129-.204.109-.354l-.027-.558-.095-.068s-.082-.047-.02-.107l.129-.069s.068-.429.062-.51l-.021-.32s-.19.3-.218.49c-.027.189-.021.51-.021.51s-.3-.055-.538-.176c-.238-.122-.258-.158-.245-.246l.149-.585.272-.537c.096-.183.232-.326.232-.326s-.055-.245.006-.307c.062-.061.095-.211.095-.211l-.082-.149.116-.592-.021-.224s-.735-.09-1.156-.722c-.421-.633-.523-1.537-.517-2.157.007-.619.225-1.612.225-1.612l.21-.884-.653-.225-.156.062-.095.116-.075-.062s-.164.123-.211.109l-.095-.062-.122-.014s-.334.564-.688.599c-.353.035-.809.007-1.156-.49-.347-.497-.293-.892-.293-.892l-.19.171-.184-.028-.333-.075-.027.088-.436-.109-.006-.068-.395-.122.061-.3-.619-.252-.082.11-.164-.062.062-.3-.592-.211s-.109.068-.245.042c-.136-.027-.653-.205-.653-.205l-.163.041-.775-.238-.062-.095.068-.238s-.007-.088-.15-.048l-.428.137-.265.021.136-.408c.062-.185.388-1.035.354-1.076-.034-.041.144.048.197.123.055.075.238.305.307.353l.108.062.062-.211s0-.102.055-.088l.836.21.082.089c.041.047.483.142.483.142s.381.136.395.177c.013.041.312.123.312.123l.041-.103h.286l.075-.082.205.068.006.061.144.028v.041h-.082v.054l.415.115.13-.013c.033-.027-.082-.163-.082-.163s-.102-.082-.061-.177c.041-.095.225-.17.225-.17h.108l.116.068s.021-.122.136-.136l.327-.026.224.189s.103-.034.211-.013c.108.021.21.095.21.095l.157.204.17-.027.122.007.449-.258.163-.014s.062-.122.157-.189c.095-.069.326-.239.34-.287.014-.047.109-.17.136-.184.027-.014.047-.224.122-.319l.123-.177c0-.027.061-.238.245-.279l.183-.041.422-.904s-.021-.279.115-.551.517-.551.517-.551-.102-.129.088-.476.469-.632.469-.632l.524-.748c.062-.095.136-.293.136-.293s.164-.286.258-.381l.19-.19-.095-.048-.034-.088-.102-.069-.021-.034s-.191.347-.34.313c-.15-.034-.292-.061-.775-.599-.483-.538-.544-.659-.551-.803-.005-.117.082-.204.123-.224l.143-.122.061-.021v-.096l.231-.197.062.014.082-.047.265.258.15-.115.068.054.054-.082s.136-.148.204-.183l.17-.144h-.15s-.068-.006-.075-.081l.007-.218.081-.048v-2.867l-.818-.038s-.167-.01-.167-.081c0-.072.296-.436.296-.436v-.088l.061-.112s.051-1.055.119-1.32c.068-.266.115-.272.115-.272s.518-1.571 1.565-2.115c1.047-.544 2.395-.736 3.49.082 1.047.782 1.85 3.183 2.197 3.462 0 0 .163.123.17.191.007.067-.122.142-.313.163-.19.021.688.191 1.728 1.218 0 0 .034.074-.054.163-.088.088-.503.639-1.163.775 0 0-.076.048.02.116.096.069.178.219.178.449 0 .231-.089.299-.089.299s-.089.116.02.184c.109.067-.041.258-.041.258l.177.218s.401.156.51.257c.109.103.36.286.36.286l.381.171.02-.212s.034.177.082.197c.047.021.224.211.238.279l.102.278-.047.069.007.101.102.068s.299-.49.884-.673 2.104-.351 2.803.653c.218.312.212.517.212.517l.006 2.135h.074v.198h.123v.156h.027v1.118zm16.324 9.752c.248.331.332 3.579.332 3.579l-.029.75-.805-.056c-.055-.167-1.107-.111-1.107-.111l-.612 5.021c.139 1.475-1.306 4.165-1.306 4.165-.413.359-.663.857-.663.857.164.444-.282 3.61-.282 3.61-.136.223-.08.916-.08.916.556.219.915 1.912.915 1.912l.362.391c.166-.029 1.054.388 1.054.388 1.025-.056 1.415.832 1.415.832.167.527-2.831.722-2.831.722-.61-.139-2.773-.082-2.773-.082-.527.082-1.581.109-1.581.109-.277 0-.111-.471-.111-.471l-.999-.026c-.334 0-.197-1.197-.197-1.197-.332.058-.219-1.081-.219-1.081.055-.636.219-5.188-.03-6.02l-.031-.112c-.17-.839.364-2.138.364-2.138l.304-1.582c.058-.748.389-1.608.389-1.608-.167-.472-.027-3.495-.027-3.495-.526 0-1.137-.361-1.137-.361-.277 0-1.249-.416-1.249-.416-.558-.25 0-1 0-1-.026-.36.5-1.441.5-1.441.191-.168.442-1.667.442-1.667-.361 0-.416-.473-.416-.473-.414.028-.499-.389-.499-.389 0-.22-.748-.165-.748-.165-.39-.027-.418-.332-.418-.332 0-.249.279-.139.279-.139-.139 0-.084-.443-.084-.443.027-.308.331-.251.331-.251l.055-.39c-.44-.138-.663-1.193-.663-1.193-.026-.278-.085-.609-.085-.609-.359-.471.39-1.222.39-1.222-.027-.608.332-1.247.332-1.247-.028-.471.667-1.193.667-1.193-.056-.5.082-1.834.082-1.834-.804-.777-.165-1.665-.165-1.665.112-.278.112-.667.112-.667-.223-.861 1.386-2.524 1.386-2.524s0 .58.057.085c.056-.502 1.304-.779 1.304-.779.277-.112.694-.61.694-.61l.974-.868.116-.534-.072-.006-.228-.011-.285-.066c-.258-.025-.296-.393-.287-.593.013-.295.199-.513.39-.729.091-.101.18-.209.232-.333.062-.143.082-.299.106-.452.019-.116.038-.233.08-.344l.031-.205.062-.23.255-.83c.168-.52.409-1 .906-1.296.194-.115.372-.155.591-.208.1-.023.148-.085.232-.141l.139-.087.1-.059.112-.035.055-.081.13-.016.08-.098c.086-.036.198.016.272.056l.1.065.1.013.035.081.108.054.034.086.098.038.099.044.076.068.122.08.295.103c.157.064.303.176.427.286.526.467.639 1.181.715 1.828l-.004.253.027.233.016.501c.029.334.263.524.529.704.084.057.211.1.256.193l.015.077-.098.055-.327.083c-.156.041-.28.159-.448.139l-.235.022-.02.245.331.973c.083.277-.192.36-.192.36l-.332.109c.11.141-.083.528-.083.528l-.085.222c-.111 0-.029.36-.029.36 0 .528-.775.611-.775.611l-.443.333c.361.083 1.359 1.916 1.359 1.916l-.584.138c.305.333 1.499 3.247 1.499 3.247.473.223.749 2.721.749 2.721-.025.331-.025 1.08-.025 1.08.58.695.665 2.802.331 3.166l-.042.054c-.285.432-.209 1.749-.209 1.749zM44.007 68.221c-.051.115-.051.396-.051.461s-.192.807-.205.923c-.013.115-.064.957-.064.957s-.128.145-.128.26c0 0-.154 1.025-.115 1.051.038.025.128.244.128.359s0 .627-.038.654c-.039.025.025.281.025.281s-.025.922-.077.972c-.051.054-.218.335-.218.335l.115.486.846-.473s-.206-.104-.103-.309c.103-.205.257-1.051.257-1.229 0-.181-.051-.22-.104-.259-.05-.038-.256-.166-.269-.319-.013-.154.192-.691.256-.782l.142-.256.23-1.153s-.038-.205 0-.243.295-.858.269-.948c-.025-.09-.845-1.768-.845-1.768s.001.884-.051 1zM18.541 46.245c.462-.075.494-1.165.364-2.842-.129-1.675-2.206-9.085-2.206-9.085l-.485-3.047-.662.105c-.273-1.69-.438-2.69-.438-2.69s-.836-.721-2.29-.493c-1.454.232-2.025 1.176-2.025 1.176s5.911 38.755 7.476 42.624c.856 2.118 2.156 4.707 2.266 4.926.038-.243.477-3.105.636-5.386.162-2.314-1.73-15.296-3.443-26.375.182.568.516 1.133.807 1.087zm-.93-1.884c-.579-3.736-1.131-7.214-1.569-9.94l.125-.02s2.079 7.411 2.21 9.088c0 0-.643.236-.757.798l-.009.074z"/></g></svg>