<svg xmlns="http://www.w3.org/2000/svg" width="100" height="100"><circle fill="#B2B2B2" cx="50" cy="50" r="50"/><path fill-rule="evenodd" clip-rule="evenodd" fill="#231F20" d="M80.865 26.533l-.116.008c-.035-.196-.145-.286-.289-.364l-.971-.528c-.128-.072-.212-.041-.257.038-.112-.052-.187-.022-.229.051-.111-.053-.186-.023-.228.052-.112-.053-.188-.022-.229.051-.112-.053-.188-.023-.229.052-.113-.053-.187-.022-.228.051-.114-.053-.188-.023-.229.051-.112-.052-.187-.022-.229.051-.112-.053-.188-.021-.228.052-.113-.053-.188-.022-.229.051-.112-.053-.187-.021-.229.052-.111-.053-.189-.022-.23.051-.111-.053-.186-.022-.228.05-.112-.052-.186-.021-.228.051-.113-.051-.188-.021-.229.053-.112-.054-.187-.024-.228.05-.186-.086-.268.052-.268.235l.001.468-.058.071.007.16-.093.03-.034-.023c-.077-.061-.208-.114-.344-.074l-.144.035-.131-.047.045-.084c-.005-.085-.114-.085-.228-.081-.112.006-.09.205-.124.222l-.046.103-.139.031-.116-.039.045-.084c-.005-.086-.114-.086-.227-.079-.113.005-.091.205-.125.221l-.04.086-.119.027-.119-.04.045-.085c-.005-.085-.113-.085-.227-.08-.113.006-.091.205-.124.221l-.042.088-.126.028-.123-.042.046-.085c-.005-.085-.113-.085-.227-.079-.114.005-.09.205-.125.221l-.042.091-.1.022c-.074-.043-.15-.061-.225-.042l-.024.007-.069.021-.091.043-.077.008-.025.006-.068.022-.016.004c-.067-.03-.139-.038-.207-.021l-.03.009-.078.024c-.1.025-.18.099-.23.206-.094-.063-.193-.089-.29-.064l-.03.008-.08.025c-.183.045-.296.26-.301.53l-.22.062-.134.009-.555-.583c-.067-.067-.157-.166-.249-.148l-.403.077-.025.006c-.232.058-.342.462-.288.973-4.615.009-12.48.028-12.74.036-.367.01-.74.039-1.298.268-.458.187-.805.475-.913.572-.324-.385-.654-.771-.99-1.158-7.733-8.897-16.007-14.479-17.996-12.75l-.036.034-.964.875c-1.834 1.596 2.272 8.873 8.994 16.976l-.285.131c-.109.045-.171.068-.232.199-.024.054-.503.901-1.078 1.907l-.069-.004-.072-.078-.055-.002-.261.244-.002.054.072.078-.035.032-.002.073.104.111.028.017c-.798 1.407-1.652 2.909-1.668 2.943-.031.061-.062.177.023.232.085.053 1.221.766 1.267.803.047.036.101.092.163.092h.1l.077.053c.077.046.183.131.22.274l-.528-.018c-.108 0-.177 0-.177.156 0 .155.078 3.717.083 3.886.007.171.147.226.25.218.072-.006.486 0 .708.005l.271 8.034-.844 1.512s-.139-.012-.357.459c-.217.471-.486 1.104-.582 1.209-.094.104-.231.531-.255.65-.025.121-7.656 15.207-7.737 15.348-.083.143-.115-.035-.338.406-.225.443-.671 1.426-.715 1.516-.043.088-.094.148-.05.344l.068.139-1.406.51c-.073.027-.125.092-.125.191v.512l-.539.256c-.102.057-.136.199-.062.271.073.074.658.199.732.205h.21c.023.006 1.435.367 3.21.816l-1.64 4.391s-.23 0-.397.402c-.166.404-.64 1.488-.692 1.602-.037.072-.05.242-.057.348l-1.253.645c-.052.023-.138.08-.138.154l.024 1.219-.273.342c-.062.061-.528.312-.573.334-.046.023-.051.182-.051.238s.04.137.136.172l1.578.59c.09.033.295.113.347.113h.397l.205-.053.794-.408c.216-.107.261-.289.312-.328.05-.041 12.195-6.852 12.291-6.91.097-.055.187-.055.244-.039.056.018 15.186 3.719 15.281 3.754.098.033.653.174.756.174l.687.006c.068 0 .204-.016.255-.061l1.033-.854c.058-.051.052-.146.029-.186l-.137-.25c-.022-.045-.098-.092-.147-.096l-.663-.062c-.052 0-.115-.053-.115-.098l-.056-1.17c0-.057-.012-.119-.052-.123l-.272-.047-.119.006-1.051-.236-.028-.145-.079-.107s.098-.143-.034-.363c-.129-.221-1.333-2.244-1.407-2.332-.073-.092-.522-.734-.652-.949-.131-.217-10.65-19.32-10.685-19.383-.033-.061-.022-.34-.106-.486l-.753-1.334.027-.043c.855-1.379 2.321-3.166 4.004-3.412 2.492-.361 7.759-.131 9.486-2.178l.761-.918.29-.136c.114-.063.224-.165.326-.29.564.077 1.015-.011 1.322-.278l.036-.033.963-.876c.455-.394.57-1.148.385-2.182l.395-.732.247-.196c.345-.171.537-.704.624-.966.021-.062.112-.24.247-.492l.476-.882c.346-.64.706-1.323.8-1.603.176-.542 1.63-3.234 1.805-3.453.085-.107.453-.886.828-1.702l1.335-2.471.153.102c.144.096.286-.118.144-.215l-.174-.115.043-.077c.271-.193.665-.382.921-.488.719-.296 2.258-.172 2.729-.102.476.071 1.123.094 1.549.083l2.06-.091c.936-.037 1.873-.06 2.134-.016.264.044.441.071.526.062.201-.018.076-.171-.007-.236-.048-.039-.298-.19-.647-.399 1.816-.681 3.323-3.472 1.753-5.048-.189-.187-.281-.279-.569-.267zm-48.758 48.494c.117-.279.503-1.205.573-1.361l.131-.578 6.916-13.518-5.914 15.86-1.706-.403zm.034 8.42c.12-.371.594-1.816.731-2.15.121-.295.883-2.359 1.227-3.287l5.754 1.467c-1.267.65-4.965 2.556-7.712 3.97zm10.182-8.648c-.068.137-1.187 1.824-1.238 1.904-.051.078-.067.135-.074.215l.003.213-6.06-1.432c1.726-4.656 6.105-16.463 6.147-16.559.053-.119.031-.295.144-.516.083-.166.444-1.039.629-1.488l.591 17.568c-.057.015-.114.04-.142.095zm28.991-43.426c.059.015.13.01.187-.062.117-.149.284-.47.284-.47s.062.044.104-.037l.182-.346c.03-.039.406-.423.506-.583.101-.159.072-.345.083-.414l.003-.295s.098.021.102-.066l.009-.15.591-.172.848.517c.072.046.188.059.283.053l.047-.005v.331c0 .096-.038.198.064.252.104.054.79.455.92.532.132.075.194.081.268.053l.738-.272.024-.03.292.168.077.01 1.283.747 1.164.686c-2.461.743-4.515-.998-6.744-.145-.391.149-.789.225-1.216.402-.219.09-.442.207-.678.37l.579-1.074zm-16.238-1.268c.358-.208.64-.297 1.057-.287.307.007 8.477-.057 12.783-.09l-13.246 2.479c-.422-.536-.855-1.075-1.303-1.616.192-.144.487-.356.709-.486zm1.722 48.356c.121.238.386 1.113.573 1.369 0 0-.045.113.103.477.103.252.205.453.258.553l-10.072-2.258 7.084-3.924c.223.408 1.944 3.56 2.054 3.783zm-4.129-5.428l-6.399 3.271c-.199-.273-1.154-1.576-1.194-1.652-.046-.086-.148-.385-.239-.398l-.034.004-.528-17.373.426.709c.051.096.159.137.159.137s.029.238.085.305c.054.066 7.116 13.808 7.724 14.997zm6.644-22.564c-1.684 1.998-6.965 1.781-9.406 2.135-1.721.25-3.206 2.043-4.083 3.453l-.22-.393-.03-.051c.174-.426.437-.936.833-1.504 1.277-1.838 4.377-2.562 6.622-2.585 1.913-.019 5.468-1.208 6.891-1.784l-.607.729zm.78-.94c-1.21.518-5.062 1.847-7.064 1.868-2.25.023-5.411.744-6.727 2.639-.39.561-.655 1.066-.832 1.492h-.013l-1.292-2.285-.242-7.986c.286.002.662.002.734-.007.116-.016.164-.069.164-.188l-.071-3.802s-.086-.17-.201-.17h-.581c.036-.144.117-.395.248-.432.186-.053.255-.046.309-.155l.169-.36c.485-.091 1.375-.261 1.572-.305.271-.062.292-.147.462-.301.155-.14.502-.506.563-.571 5.332 5.637 10.362 9.52 13.122 10.173l-.32.39zm.306-.143l-.04.021.194-.238.085.018c-.076.084-.157.152-.239.199zm5.76-8.459c-.087.266-.44.937-.79 1.582l-.476.883c-.131.248-.229.439-.255.513-.092.277-.272.748-.56.892l-.03.017 2.128-3.934-.017.047zm3.691-8.164l-.045-.029c-.143-.095-.286.118-.143.214l.062.042-6.521 11.699c-.929-2.919-3.509-7.301-7.203-12.059l13.189-2.37c.163.242.35.376.51.336 0 0 .223-.045.322-.113s.194-.256.19-.337c-.003-.082.085-.062.258-.058.172.004.422-.14.57-.242l.009-.007c.026.102.056.261.021.373-.055.177-.226.464-.292.572-.064.106-.052.182.005.255l.017.021-.949 1.703zm10.399-.413l.009.009-.429-.063c-.275-.046-1.23-.022-2.159.015-.93.036-1.848.085-2.06.091-.418.011-1.056-.012-1.523-.081-.468-.071-2.041-.202-2.799.11-.32.132-.568.264-.745.374l.046-.085c.309-.252.597-.41.871-.524.429-.177.826-.251 1.216-.401 2.213-.846 4.301.954 6.845.113.395.233.68.406.728.442zm-.633-.613l-.081.028-1.262-.743-1.28-.747-.05-.064-.358-.21.009-.583c0-.068.001-.16-.056-.198l-.407-.274.31.069c.073 0 .119 0 .119-.136l.011-.066.045.021c.184.083.366.156.441.03.101.029.185.024.23-.049.099.025.184.021.228-.053.099.028.184.022.229-.051.099.027.183.022.229-.052.1.028.184.024.228-.05.101.025.184.022.229-.052.1.026.185.022.229-.052.098.026.184.022.227-.051.101.025.185.024.231-.053.1.028.184.025.228-.051.1.026.184.025.228-.05.101.027.184.023.229-.051.1.026.184.024.228-.052.1.027.184.024.229-.051.099.026.183.023.229-.051.148.041.264.011.264-.224 0-.341.005-.842.012-1.159v-.044c.276-.042.363.006.582.227 1.503 1.511.004 4.207-1.73 4.842z"/></svg>