<svg xmlns="http://www.w3.org/2000/svg" width="100" height="100"><circle fill="#B2B2B2" cx="50" cy="50" r="50"/><path fill="#1D1D1B" d="M65.937 85.858c-.812-.443-2.659-2.291-3.694-2.512-.96-.443-1.403-.296-1.403-.296s-1.034-.665-.517-5.688c.369 0 .591-.371.517-1.035-.073-.664 0-4.434.369-4.876.37-.443.592-.887-.073-2.291-.665-1.403 1.183-1.699.738-2.954-.442-1.256-.738-3.472-.738-5.614 0-1.36-.654-3.817-1.17-5.472l8.269 2.28 1.513-6.499-7.387-1.5c.473-.036.355-.498-.089-.689-.453-.193-1.373-1.896-2.11-2.427-.462-.332-1.571-2.34-2.636-4.419.008-1.421-.008-2.782.064-3.217.147-.885.443-5.171.221-6.648-.221-1.478-.886-4.875-1.255-5.836-.369-.96-.665-.886-.665-1.108 0-.221.812-2.142 1.034-2.364.369.074 2.512.517 2.216-.812l-.073-.296s.665-.147.295-.738c-.073-.148.518-.297.296-.813.147-.074 1.108.074.812-.961-.296-1.034-.665-1.182-.369-1.403.296-.222.296-1.035.369-1.7s.296-1.477-.073-1.699c0 0 1.921-1.92-2.512-2.659-1.699-.295-2.513-.517-3.251-.442-.739.073-2.068.369-2.659.517-.592.148-2.365 3.99-2.365 4.728 0 .739.443 1.182.074 1.404-.369.222 0 1.331.148 1.848l1.405 1.256s.959.591.664.665c-.124.031-.914.169-1.831.462l-.065.005c-.543.061-1.11.349-1.639.727-.458.267-.854.589-1.125.97-.648.651-1.109 1.271-1.177 1.406-.147.296-2.019 2.315-2.019 2.315s-.197-.591-1.035-.394c-.837.196-3.496 5.072-3.596 5.564-.098.492-.246.1-.886.394-.64.295.296 1.379-.049 1.231s-.197-.197-.443.345c-.247.542-.443 2.019-.689 1.329-.247-.69-.492-.542-.492.148 0 .689 0 2.906-.542 4.137-.542 1.231-.197 4.728-.098 5.566l.196 2.56c.099.789-.689 2.02-1.625 3.203-.936 1.182-2.807 1.182-2.807 1.182l.542.443s.936.197 2.167-.346c1.33-.64 2.118-4.087 2.118-4.087s.492 1.182.689 1.625c.198.443 1.034.787 2.167 1.527 1.132.739 2.019.788 2.758.541 0 .394-1.281 1.183-1.43 1.183-.146 0 0 .246.346.443.689.147 1.477-.984 1.674-1.281.08-.118.183-.141.301-.136-.062.684-.047 1.15.093 1.22.591.295.887.887 1.108 1.034.221.147 1.181 2.883 1.181 2.883s-1.107 3.692-.96 5.022c.148 1.33.295 2.438-.443 2.66-.739.221-2.955 1.477-3.546 2.954-.591 1.478-2.291 3.842-2.364 4.137-.074.297 0 .517 0 .517s-1.477 1.699-2.364 1.922c-.369-.073-.296-.148-.96.073s-2.068.519-2.512.593c-.443.073-2.29.811-2.29 1.551 0 .737.443 1.994.96 3.251.517 1.255 1.551 5.022 3.029 5.983 1.477.96 3.472 2.216 4.285.221.074-.738-.147-1.847-.665-2.217-.295-.146.148-.294.148-.294s.148-2.955.517-3.474c.369-.516 1.256-1.254-.369-1.477-.296-.073 2.142-3.25 3.62-3.768.961.148 3.472.812 3.915.887.444.073 5.467-5.541 5.911-6.575.444-1.034.518 2.216 1.035 2.585.517.369.59 3.473.886 4.286.296.812 1.33 1.328 1.847 1.182.296.443 1.256 2.955.665 5.172-.369 0-.738.295-.886.959-.148.665.073 3.842-.148 4.285-.074.296.222.147.813.222.59.074 5.909.222 7.018.295 1.107.074 5.91.592 5.467-1.551-.52-.444-.963-1.404-2.366-1.33z"/></svg>