<svg xmlns="http://www.w3.org/2000/svg" width="100" height="100"><circle fill="#B2B2B2" cx="50" cy="50" r="50"/><path d="M55.073 85.77c-.015-.086.122-.203.061-.143l-.194.091c.061.055.139.096.133.052zM83.404 48.247c-.186-.525-.393-.953-.393-.953.245-.089.291-.261.172-.501l-.687-.221c-.346-.226-.523-.744-.754-1.071-.295-.418-.834-.669-1.276-.892-.987-.497-1.98-1.242-2.631-2.146-.758-1.055-1.696-1.93-2.614-2.845-1.082-1.078-1.94-2.345-2.926-3.508-.932-1.099-1.915-2.099-2.987-3.059-.899-.805-.858-1.95-1.568-2.838-.625-.788-.625-1.779-.477-2.765.058-.39-.278-.966-.379-1.353-.163-.625-.25-1.196-.587-1.754-.677-1.109-2.196-1.411-3.33-1.768-.899-.283-1.82-.498-2.735-.724.276-.786.741-1.625.81-2.458.207-.112.395-.248.569-.407.256-.234.137-.748.146-1.049.013-.386.323-.836.303-1.177l-.062-.211.074.081.121.037c-.154-.293-.136-.661-.246-.974.029.091.085.168.162.225-.159-.317.082-.628-.082-.974.04.104.122.164.231.162-.17-.2-.154-.5-.243-.764.072.075.121.166.143.267 0 0 .035-.15.013-.301l-.122-.46c.028.11.091.206.18.276-.066-.18.002-.494-.133-.624l-.133-.138.121.041.146-.008s-.14-.033-.203-.095c-.064-.061-.09-.24-.09-.24l.086.135.134.053c-.18-.255.056-.599-.347-.685.108-.033.208-.002.28.086l-.116-.171c-.06-.058-.192-.058-.192-.058l.2.005.146.07s-.09-.151-.146-.184c-.085-.048-.227-.046-.322-.049l.215-.008c.127-.024.143-.086.143-.086-.152.051-.31.031-.451-.052 0 0 .191.037.346-.012.154-.049.168-.103.168-.103-.251.036-.479-.094-.743-.089l.267-.012c.139-.021.143-.102.143-.102-.185.006-.379-.003-.57-.029 0 0 .068-.074.176-.081l.146.032-.118-.085c-.058-.025-.272.044-.272.044s.172-.114.311-.09l.118.05-.073-.111-.195-.057c-.136-.021-.203-.159-.203-.159l.162.078.162.007-.162-.068-.166-.168c-.108-.046-.242-.06-.359-.069.12.033.24.017.346-.049-.19-.002-.316-.096-.492-.122h-.184l-.006.004-.098.021.104-.024.061-.069-.174.028c-.095-.009-.141-.078-.141-.078.112.041.237.039.339-.012-.116-.039-.298-.129-.42-.111-.164.025-.351.147-.351.147.165-.134.253-.324.248-.534l-.199.208c-.081.061-.217.029-.217.029l.14-.086.098-.126c-.157.058-.322.052-.473-.019.091-.023.184-.016.269.024 0 0-.057-.065-.176-.103l-.492-.073c.101.026.204.021.301-.016-.15-.065-.425-.184-.588-.122-.102.039-.107.095-.104.122l-.014-.084.033-.127c-.062.066-.103.146-.119.236-.03-.132-.112-.232-.236-.285.106.07.162.175.156.302l-.146-.233c-.054-.056-.245-.096-.245-.096l.158.102c.05.037.119.203.119.203s-.114-.134-.236-.211c-.122-.078-.366-.123-.366-.123l.18.192c.068.097.086.208.086.208-.211-.055-.396-.167-.616-.191l.172.135c.063.064.063.146.063.146-.196-.112-.408-.147-.618-.24l.253.237c-.066-.065-.281-.074-.372-.095l.306.186c-.365-.05-.729.043-1.104.024.054.023.177.092.236.085h-.235c-.114.004-.233.089-.233.089l.355.021-.139.094c-.178.062-.389.091-.578.111.101.028.207.031.31.008-.158.071-.344.117-.519.109l-.199-.044c.057.075.132.133.22.167-.157.037-.311.097-.452.177.076-.028.158-.038.24-.028l-.089.021c-.352.142-.843.488-1.158.706l.171-.053.184.021c-.146.231-.35.407-.53.607.122-.008.243-.057.343-.134-.167.242-.421.782-.432 1.079.033-.084.088-.157.16-.212-.239.429-.122.986-.437 1.363l.167-.09c-.044.191-.115.369-.227.53l.097-.073.114-.033c-.107.169-.173.358-.243.545.078-.049.135-.125.153-.213.008.136 0 .273-.024.408 0 0-.456 0-.479.489-.015.268.126.551.139.824.017.403-.114.941.023 1.328.073.204.295.407.448.48.155.074.416.008.416.008.1.716.117 1.441.261 2.152 0 0-.107-.008-.244.049l-.469.53c-.309.148-.604.258-.904.43-.591.336-1.331.489-1.979.673-1.325.377-2.441.855-3.65 1.504-.247.132-.186.438-.408.578-.471.103-.895.597-1.263.904-.639.533-1.276 1.069-1.888 1.633-.379.349-.739.691-1.062 1.093-.144.18-.387.368-.45.594-.096.344-.565.239-.774.425-.947.825-2.03 1.688-3.163 2.274l.098.146c-.079-.043-1.568.886-1.712.954-.826.391-1.618.857-2.378 1.362-1.357.901-2.586 1.995-3.835 3.038-1.287 1.074-2.559 2.169-3.865 3.222-.717.578-1.442 1.151-2.204 1.67-.633.432-1.64.791-2.089 1.435-.304.437-.219 1.071-.25 1.57-.023.356-.219.95-.067 1.291.18.409.969.923 1.378 1.003.204.041.374-.057.473-.196.097-.137-.367-.481-.391-.553.059.178 1.589-.518 1.737-.637.171-.138.204-.726.163-.985-.046-.296 1.083-.823 1.296-1.109.196-.261.375-.839.684-1.288.53-.764 1.961-1.138 2.752-1.538 1.061-.536 2.145-1.031 3.233-1.51 1.017-.449 1.868-.988 2.727-1.697.663-.547 1.466-1.368 2.252-1.703.497-.209 1.101-.216 1.619-.397.391-.137.784-.266 1.178-.393.415.261.92.623 1.427.635.285.009.358-.489.7-.888.343-.399.686-.538 1.402-.718.718-.179 1.769-.22 2.087-.179.325.042.71 2.166.725 2.438.024.425-.269.383-.293.522-.025.139.049.457.057.751.006.254-.335.401-.408.667-.13.485-.565.822-.881 1.182-.437.502-.408 1.57-.542 2.212-.215 1.034-.938 1.979-1.094 2.984-.08.512-.34.847-.524 1.319-.215.553-.31 1.139-.54 1.694-.199.479-.479.929-.6 1.437-.106.446-.514.823-.572 1.263-.013.089-.674.23-.803.345-.25.221-.458.505-.659.768-.329.429-.649.87-.945 1.321-.211.322-.136.722-.324 1.07-.259.483-.611.942-.828 1.444-.188.435-.155.874-.272 1.314-.202.763-.307 1.575-.596 2.288-.14.343-.034.809-.034.809l-.416-.4c-.124-.11-.198-.006-.333-.091-.258-.163-.484-.377-.737-.549-.645-.437-1.372-.708-2.141-.825-.868-.136-1.784.057-2.657.06-1.021.004-2.016-.072-3.036.025-.636.062-1.272.143-1.913.095-.637-.047-1.479-.308-2.086-.131-.229.063-.424-.059-.579-.164-.335-.228-.117-.894-.62-1.155-.139-.071-1.074-.362-1.059-.458.025-.154-.032-.203-.163-.318-.13-.113-.276-.121-.521-.08-.244.041-.399.277-.628.213-.603-.176-.76.043-1.14.447-.122.131-.163-.049-.31-.064l-.953.474-.873.459c-.416.075-.513.082-.807-.198-.367-.348-1.859.838-2.202.988-.114.048-.26-.164-.407-.197-.146-.031-.424.254-.481.344s.032.351-.041.433c-.073.081-.554.595-.684.676-.131.081-.138-.163-.301-.18s-.416.336-.433.571c-.016.234.008.863-.065.971-.061.086-.569-.675-.584-.06-.01.408-.061.879-.035 1.283.009.122.04.17.285.384.245.211.57.325.961.356.775.063 1.68-.14 2.458-.213 1-.094 1.981-.325 2.987-.372 1.223-.058 2.64-.255 3.842.021.594.137 1.056.182 1.67.099.299-.04.558-.15.805.002l.31.27c.628.376 1.555.479 2.258.69.828.249 1.659.5 2.462.825.283.114.495.211.801.244.466.05.949.416 1.39.418.889.004 1.504.276 2.332.567.114.041.106.092.22.244.358.492 1.348.333 1.753.719.048.049.13.211.309.327.16.101.677.084.88.14.401.108.726.369 1.133.471.983.247 2.024.504 3.024.678.521.09 1.06-.025 1.671-.393 1.019-.611 1.215-1.935 2.127-2.657.789-.628 1.195-1.651 1.867-2.37.725-.779 2.105-1.136 3.016-1.713.192 1.114.874 2.041 1.051 3.139l.515 1.196c.062.311.064.597.162.905.113.363.28.7.407 1.057.106.302.046.737.281.984.571.595 3.771-1.414 4.133-.685.055.111.166.509.129.644-.06.216-.377.247-.451.537-.089.328-.964.53-1.22.665-.393.206-.485.44-.731.735-.527.633-1.571 1.131-2.292 1.491-.913.453-1.357 1.151-1.857 1.985-.553.921-1.273 1.663-2.067 2.377-.422.379-1.036 1.177-1.641 1.201-.319.01-.841.604-1.054.845-.439.495-.885.988-1.353 1.457-.721.723-1.561 1.328-2.38 1.934-.34-.352-.442-.139-.507.19-.098.505-.722.901-.906 1.398-.314.846-.19 1.726.05 2.564l.097-.367s.019.329.061.452c.044.123.165-.445.177-.509-.018.142.011.282.081.406-.012-.169.015-.336.079-.492.014.221.109.43.275.576l.067-.412.012.159.074.142-.006-.244.061-.165.049.293c.03.086.14.104.14.104.007-.136.041-.268.099-.391 0 .154.045.311.128.432 0 0 .116.043.177-.07.062-.118-.019-.245-.019-.245.051.111.076.234.074.358l.061-.207c.03-.109-.018-.201-.018-.201.061.114.099.243.11.373.046-.106.063-.225.049-.338.02.121.083.264.146.318l.006-.402c.044.152.106.3.184.438.005-.144-.026-.282-.092-.409.11.123.21.254.299.393-.031-.147-.078-.291-.14-.429.107.16.256.283.434.36-.136-.194-.265-.395-.373-.605.214.196.426.397.617.617-.033-.154-.053-.312-.061-.47.041.134.096.264.164.385-.005-.134-.031-.264-.079-.39.086.14.159.286.219.439.031-.135.03-.274 0-.41.071.131.117.275.135.424l.048-.154-.012-.245s.098.313.085.403c-.012.092.141.043.141.043l.054-.178c-.007-.073.105.238.105.238-.027-.106-.087-.298-.061-.402-.024.1.243.228.299.287-.007-.157-.008-.338.037-.489-.035.125.068.329.128.435-.035-.187-.043-.381-.011-.568-.02.151.088.344.176.459l-.079-.617.225.686s-.025-.264.006-.367l.129-.307c-.042.236-.007.466.085.686-.063-.151.35-.517.35-.723 0 .221-.049.433-.134.637l.159-.109-.135.281.22.037c.142-.109.168-.285.111-.467l.121.428c-.028-.294-.035-.588.012-.881.01.24.054.479.159.696 0 0-.011-.194.024-.271.037-.071.074.137.111.233.036.097.073-.036.109-.122.147-.336.219.237.257.256.073.037.159.086.221.061l.028-.332c.018 0 .214.377.229.283l.255-.318c.024.05.086.061.099-.011.012-.074.134.155.134.155s.171-.011.244.016c.074.023.293.17.293.17l.074-.158c.023-.086.086-.074.123-.012l.097.206.195.014c-.012-.064-.015-.433.03-.423.086.021.193.356.216.386.049.062.097.05.134 0 .116-.149.243-.059.342-.257-.011.021 1.001.594 1.062.405l.041-.398.082.3.122-.123c-.039.097.257.428.318.479.116-.163.184-.362.171-.564l.098.367.049-.121c0 .045.17.364.295.293.062-.037.048-.062.036-.195-.014-.135.048-.025.097.037l.122.207c.062.024.087-.121.159-.258.073-.134-.024-.33-.024-.33s.186.381.172.467c-.012.084.123.121.172.107.049-.011.086-.146.098-.268.006-.062.181.243.208.305.011-.18.086-.338.221-.453-.008.16.008.381.111.514.036.051.22.074.243.024.023-.049-.012-.306-.012-.306s.195.294.269.379c.232.273.455-.325.489-.428l.392.354c.003-.112.02-.222.048-.33.096.08.182.169.258.269.158.147.33.111.392.136.204.081.48-.443.698-.392.047.013-.196.221-.172.354.016.09.289-.203.342-.226-.055-.051-.102-.114-.062-.145h.147v-.24c.196-.986-1.884-1.296-2.439-1.505-.86-.323-1.663-.816-2.365-1.408-.054-.045-.945-.864-.8-.938.195-.097.585-.535.585-.535l.097-.438c1.616-.54 3.086-1.947 4.375-3.013.396-.327.789-.658 1.176-.996.25-.221.447-.607.698-.855l1.253-.937c.084-.084.084 0 .242.037.16.036.246-.086.467-.146.436-.122.621-.765.817-1.124.229-.422.779-.713 1.113-1.054.149-.148.156-.349.288-.502.335-.39.699-.77 1.08-1.113.67-.603 1.463-1.04 1.775-1.93.462-1.345.325-3.28 0-4.646.689-1.379.078-3.086-.184-4.525-.057-.323-.338-.468-.438-.784-.136-.43-.312-.956-.639-1.282-.313-.312-.285-.729-.448-1.114-.146-.346-.597-.894-.884-1.136-.171-.146.013-.318-.024-.514-.042-.23-.734-.809-.672-.965.049-.123.184-.209.172-.318-.045-.423-.552-.987-.366-1.404.085-.196.221-.184.157-.516-.061-.33-.121-.367-.293-.549-.151-.165.858-.277.074-.648-.128-.06.156-1.158.219-1.357.177-.542.483-.99.722-1.5.4-.86.244-1.732.454-2.596.072-.306.257-.489.391-.697.201-.309.169-.688.135-1.038-.059-.608.037-1.214.037-1.822 0-.842.132-1.774.337-2.592.403-1.605.686-3.2 1.559-4.635.036-.062.231-.233.429-.172.466.149 1.054 1.211 1.363 1.59.421.514.852 1.018 1.34 1.468 1.032.952 2.101 1.868 3.179 2.766 1.049.875 2.173 1.638 3.288 2.425.7.495 1.412.983 2.032 1.579.605.583.796 1.165 1.208 1.873.471.81 1.557 1.212 2.311 1.7.493.322.668 1.175.978 1.651.184.28.429.501.636.428.598-.213-.235-1.638-.391-1.969-.098-.208-.023-.184.087-.16l.294.099c.328.805.792 2.099 1.369 2.751.18.2.652.516.916.38.306-.16.207-.795.207-.795s.232.123.478.037c.245-.085.209-.22.259-.477.039-.277-.095-.656-.278-1.182zM63.258 75.05c3.647-.09 5.652 2.53 5.652 5.652 0 3.121-2.531 5.651-5.652 5.651s-5.652-2.53-5.652-5.651c-.001-3.122 2.532-5.575 5.652-5.652z"/></svg>