<svg xmlns="http://www.w3.org/2000/svg" width="100" height="100"><circle fill="#B2B2B2" cx="50" cy="50" r="50"/><path d="M47.029 31.731c-1.762-1.212-5.836-1.982-7.048-1.982-1.211 0-2.312-1.872-2.312-3.082v-2.722c.369-.131.651-.446.883-1.133.326-.99-.113-2.312-.663-2.754-.551-.439-2.533-1.76-2.533-1.76v-3.303h8.919c0-.771.329-2.422-1.432-3.194-1.761-.771-6.387-1.21-6.387-1.981 0-.881-1.869-1.32-3.082-1.32-1.211 0-3.082.439-3.082 1.32 0 .771-4.625 1.211-6.386 1.981-1.762.772-1.432 2.423-1.432 3.194h8.917v3.303s-1.98 1.32-2.531 1.76c-.551.441-.991 1.764-.66 2.754.25.752.563 1.061.99 1.165v2.689c0 1.542-1.541 2.53-3.193 2.53h-7.242c-.513-1.941-2.117-5.98-5.309-5.98v19.310000000000002c3.366 0 4.968-4.494 5.385-6.281h5.404c1.321 0 4.074 1.982 8.369 1.982 4.294 0 6.273-1.322 8.037-1.543 1.762-.221 2.752 1.982 2.752 3.412v2.864h6.275s.33-3.522.33-5.836c.002-2.31-1.208-4.182-2.969-5.393zM88.921 72.301c0-.08.121-1.607.121-1.607.4-.441.321-1.244 0-1.406.04-.359-.121-7.592-.121-8.152.242-.4.082-1.004-.282-1.086.042-.119.042-.441-.521-.48-.121-.725-1.084-5.424-1.084-5.424l.24-.32c.363-.162-.279-.402-.279-.402-1.286-1.447-7.873-2.41-11.328-2.651-3.455-.239-25.266-.843-26.632-.763-1.365.08-1.726.281-1.726.281-.08-.24-1.044-.482-7.713.161-6.668.643-7.472 2.25-7.472 2.652 0 .4 1.446.32 1.446.32-1.472 1.605-2.675 3.764-3.315 5.023.065-.281.101-.658.101-.967 0-.561-.079-1.164-.279-1.125-.178.035-.322.354-.383.918-.177.014-.382.066-.382.248 0 .125.091.193.2.232.015.389.07 1.18.133 1.861-.34.424-1.424 1.93-2.06 4.773-.104.467-.188.953-.261 1.447-.116.01-.289.053-.261.24v.035c-.185.123-.345.34-.361.729-.023.535.021.855.279 1.047.021.102.056.188.107.246-.151 2.285-.065 4.211-.065 4.211s-.403.121-.604.281-.2 1.445-.118 1.969c.079.52 2.248 1.123 4.778 1.123l2.248-.682 1.165-2.209.946.016c-.373.729-.585 1.557-.585 2.434 0 2.973 2.411 5.383 5.385 5.383 2.971 0 5.382-2.41 5.382-5.383l-.009-.293.091.012c.398 0 25.985-.242 26.268-.201.214.031.785-.01 1.148-.066.252 2.74 2.554 4.887 5.359 4.887 2.879 0 5.23-2.26 5.375-5.104l.932-.037v-.965l.319-.039s.321 1.043.604 1.084 2.73.4 3.613-.242c.887-.642-.399-1.929-.399-2.009zm-59.109-12.944c-.021-.354-.047-.715-.072-1.023.072.309.191.51.294.51l.025-.006-.247.519zm3.999.331c-.16.16-2.209-.039-2.569 0-.361.041-.553-.656-.282-1.244.482-1.045 2.772-4.459 2.852-4.58.082-.119 2.651-.201 2.691-.08.041.12-2.531 5.743-2.692 5.904zm7.311-.401c0 .16-.081.441-.361.441h-6.064c-.284 0 0-.281.118-.604.122-.32 2.13-4.82 2.251-4.98s.079-.4.44-.4l3.535-.039c.121 0 .121.32.121.682l-.04 4.9zm4.178.401h-3.413c-.403 0-.403-.16-.364-.521.042-.361-.039-4.779-.039-5.021 0-.24.039-.521.403-.521.36 0 3.292.039 3.292.039.403 0 .524.443.524.885s.037 3.936.037 4.258c0 .318.121.881-.44.881zm10.669-.811c-.04.27-.077.814-.815.855-.739.037-5.835.076-6.261.076-.429 0-.701-.156-.701-.662l.039-4.51c-.039-.273-.079-.973.583-.934.661.039 6.261-.039 6.496 0 .23.039.698.039.659 1.09-.04 1.052.039 3.812 0 4.085zm10.207 0c-.037.27-.077.814-.815.855-.741.037-5.834.076-6.261.076-.429 0-.701-.156-.701-.662l.04-4.51c-.04-.273-.079-.973.582-.934.662.039 6.261-.039 6.494 0 .235.039.701.039.661 1.09-.037 1.052.04 3.812 0 4.085zm9.411 0c-.04.27-.077.814-.818.855-.738.037-5.834.076-6.263.076-.427 0-.699-.156-.699-.662l.04-4.51c-.04-.273-.077-.973.582-.934.662.039 6.264-.039 6.496 0 .233.039.699.039.662 1.09-.04 1.052.037 3.812 0 4.085zm9.425 0c-.04.27-.077.814-.816.855-.738.037-5.831.076-6.26.076s-.701-.156-.701-.662l.039-4.51c-.039-.273-.077-.973.585-.934.659.039 6.258-.039 6.493 0 .233.039.699.039.66 1.09-.04 1.052.039 3.812 0 4.085zm1.3.771c-.242-.041-.121-.322-.163-.602-.037-.281-.119-4.82-.119-4.82.082-.242 0-.121.562-.162l1.165 5.543c-.001 0-1.205.081-1.445.041z"/></svg>