<svg xmlns="http://www.w3.org/2000/svg" width="100" height="100"><circle fill="#B2B2B2" cx="50" cy="50" r="50"/><path d="M87.052 30.364c-1.526-.792-3.23-1.18-3.314-1.245-1.449-1.133-2.433-1.14-2.548-1.142-1.556-.034-8.509.871-8.509.871s-.298-.324-.347-.319c-.048.004-.178-.008-.143.045.038.054.126.316.013.332-7.968 1.117-12.042 2.49-12.124 2.499-5.016.571-5.715.83-5.906.78-.309-.079-7.053-1.786-7.16-1.801-.107-.016-.7.049-.765-.006-.123-.104-2.917-1.361-3.054-1.349-.081.008-1.279.035-1.16.134.552.455 1.495 1.739 1.784 1.698.289-.042 1.629.587 1.629.587l.458.042s-.428.119-.2.132c.23.012 2.829 1.288 2.814 1.289-.115.007-8.339 1.071-8.339 1.071s-.084-.232-.214-.221c-.129.012-.108.254-.108.254s-.436.031-.727.064c-.611.071-2.516-.136-2.881-.397-.267-.191-10.892-6.701-11.168-6.887-.219-.148-2.592.211-3.796.381.963 1.519 4.642 7.936 4.642 7.936-1.127-.063-2.511.115-2.624.125-.218.019.013.146.013.146s1.507.886 1.455.913c-.132.069-.161.49-.161.49l-.108.009.054.626.13-.013c.053.377.697.711 1.174.738l2.888.205c.328.022 7.532.565 7.532.565l-.079.184c.263.061.368-.145.368-.145.399.005 5.362.405 6.889.474 1.36.062 4.294-.166 4.294-.166l-.022.206c.185-.017.314-.232.314-.232l2.109-.227.018.374c.103-.018.314-.403.314-.403l.442-.039.031.348s.271-.049.391-.002c.116.046 2.136.235 2.136.235v.113l-.153.096 2.285-.17.039.167.153-.03.004.155c-.482.521-.514.631-.493.767.057.353.212.437.394.501.142.054.207.042.335.019.294-.05.574-.496.574-.496s.135-.076.162-.015c.07.156.188.15.333.173.099.018.214.002.327-.052.124-.06.739-.659.712-.964-.042-.486-.495-.479-.502-.535-.015-.169.566-.594.566-.594v-.365l.402-.054.056.629c-.155.023-.338.876-.327.989l.034.575c-.086.04-.262.176-.238.444.051.564.472.557.594.548.363-.023.637-.423.617-.641-.01-.12-.038-.293.019-.26.137.077.246.036.399.022.211-.019.523-.429.507-.622-.006-.082-.015-.245-.069-.319-.132-.184.046-.233.224-.249.313-.028.469-.488.551-.471.084.018 1.382 0 1.382 0l.038.232-.185.034.019.128 1.759-.17c2.016-.203 2.032-.465 2.032-.465l-.022-1.372c.232-.021 3.929-.719 3.929-.719l-.034.352c.29-.025.354-.431.409-.441.823-.162 5.027-.704 5.261-.725 1.68-.148 5.435-1.039 5.435-1.039l.073.506-.326.371.023.16.404-.018s.182.585.119.598c-.065.014-.57.189-.524.713.04.444.577.469.66.462.45-.041.657-.487.641-.673-.022-.243-.248-.323-.219-.429.08-.292-.231-.875-.231-.875l.115-.083-.043-.395.453-.219-.057-.426c3.551-1.134 4.744-2.169 5.004-2.392.445-.381.655-.594.625-.933-.033-.36-.552-.634-.68-.702zM80.112 66.872l-.046-.211-.148.006v-.347h.05l-.05-.207v-.176h-.051c-.041-.109-.108-.231-.206-.369l-.066-.094h-.003l-.2-.238v-.944l-.263-.001v-1.197c0-.311-.032-.567-.062-.739.218-.1.271-.319.162-.644-.06-.21-.38-1.267-.742-1.535l-.133-.099-.044.03-.003-.013-.919-.123c-1.192-.155-3.188-.416-4.063-.595l-.038-.008-.182.023.004-.064-.133-.04c-.291-.17-5.75-2.814-8.844-3.851l-.094-.03-.01.006-.001-.01c-.559-.184-1.006-.299-1.329-.345-2.229-.314-6.375-.651-8.991-.651-2.695 0-7.51.192-9.773.621-.398.076-.893.219-1.47.423v.007l-.007-.004-.309.113v.005l-.005-.003-.095.035c-3.445 1.312-8.51 4.224-9.834 5.472l-.272-.011-.103.051-.01-.055-.732-.013c-.129 0-13.375 1.401-14.115 3.324h-.002l-.192.546h-.266l-.062.046c-.064.049-.112.111-.147.201h-.007l-.092.383h.005l-.083.358h-.016l-.025.176-.046.207h.055l.105.18.068.068h.02l-.089.05-.253.148.011.039-.071-.002-.062.042c-.24.161-.387.311-.458.465l-.048.002v.145l-.067.241.067-.003v1.461c0 .131.039.33.25.449-.083.057-.134.15-.134.262 0 .071.021.136.059.188-.073.076-.114.18-.114.29 0 .129.055.248.151.325l.063.052h.146c-.1.118-.126.289-.066.437.058.142.185.233.337.249l-.013.097c0 .771 5.672 1.053 6.68 1.095v.007l.383-.001v-.003l.37-.021c.395-.021.772-.048 1.098-.073.795 1.431 2.322 2.4 4.071 2.4 1.814 0 3.39-1.044 4.157-2.562.262.123.512.184.857.207v.006l.371.013v.002l.176-.005h.207v-.007c.396-.024 1.032-.104 1.754-.194 1.042-.13 2.224-.277 2.889-.277l18.767-.077c.575 0 1.2.183 1.702.328.269.079.507.149.701.18v.02l.177-.002.206.012v-.021c.109-.01.187-.029.248-.063l.121-.064v-.111h.831c.757 1.548 2.348 2.617 4.185 2.617 1.908 0 3.552-1.155 4.27-2.803h.968c.075.075.177.132.302.168v.019l.166.017.216.039v-.026l.195-.005.108-.067.017.057.256-.027-.002.004.303-.046c1.868-.284 5.222-1.206 6.269-1.661l-.009-.053.105.011.062-.032c.34-.176.349-.597.29-.878.155-.28.414-.852.561-1.511h.003l.028-.162.045-.221h-.01c.021-.168.034-.332.034-.488l-.022-.342z"/></svg>