<svg xmlns="http://www.w3.org/2000/svg" width="100" height="100"><circle fill="#B2B2B2" cx="50" cy="50" r="50"/><path fill-rule="evenodd" clip-rule="evenodd" d="M66.485 16.553h-15.076v-1.361h-13.616l-1.167 1.361h-8.073c-3.209 0-3.209 3.21-3.209 3.21v5.835l5.836 4.96 4.376 53.396 1.751 1.751h18.997c-2.67-1.344-4.506-4.102-4.506-7.295 0-1.419.363-2.754 1-3.917l.802.802c-.462.941-.728 1.996-.728 3.115 0 3.92 3.177 7.097 7.096 7.097s7.097-3.177 7.097-7.097c0-3.919-3.178-7.096-7.097-7.096-1.093 0-2.124.254-3.049.695l-.804-.803c1.148-.615 2.459-.967 3.853-.967 3.074 0 5.749 1.7 7.144 4.209l2.875-44.475v-5.543h4.669v-2.918l-8.171-4.959z"/></svg>