<svg xmlns="http://www.w3.org/2000/svg" width="100" height="100"><circle fill="#B2B2B2" cx="50" cy="50" r="50"/><g fill="#13110C"><path d="M37.915 48.256c-.893-.451-2.46-1.172-3.208-1.514.096-.367.099-1.045-.958-1.486-.008-.965-.049-4.513-.17-4.94-.137-.48-1.155-6.452-1.213-6.749-.057-.297-.186-.354-.171-.137.446 6.794.583 7.893.755 9.002.141.91.25 2.285.285 2.753l-.205-.019s-.72 0-.72.046.028.154-.058.24c-.084.084-1.308.833-.143 1.827-.541.249-1.738.841-2.397 1.5-.869.87-4.959 5.153-5.079 5.273-.12.121-.023.27.125.195s5.119-4.067 5.457-4.404c.268-.269 1.6-1.478 2.133-1.96l-1.587 37.98-.169 3.19h2.216l.247-41.352c.666.05 1.215-.384 1.441-.595.371.31.871.74 1.197 1.066.938.938 3.41 1.808 3.649 1.898.24.092 4.239 1.665 4.347 1.773.108.109.475.109.217-.148-.254-.253-4.79-2.833-5.991-3.439zM75.295 52.747c-.132-.131-2.947-3.17-5.146-5.144-.82-.737-2.938-2.553-4.015-3.474.228-.479.292-1.406-.635-1.959.068-.2.158-.449.264-.693.225-.524 1.01-3.086 1.196-3.872.188-.786.617-6.155.749-6.772.131-.617.3-1.478.057-1.478 0 0-.655 1.758-1.01 3.479-.356 1.721-1.236 5.612-1.236 5.912 0 .276-.414 2.673-.564 3.287-.297-.001-1.075.063-1.38.772-.131.302-.149.597-.101.862-.677.049-2.375.192-3.042.429-.842.299-8.193 3.516-8.511 3.666-.318.149-.169.243.317.112s3.891-1.047 4.564-1.291 4.321-1.478 4.826-1.646c.361-.121 1.443-.549 2.027-.781.152.259.368.45.58.532l-1.822 44.368h2.47l.094-44.332c.29-.047.579-.144.785-.236.213.216.481.516.692.843.412.636 1.234 1.739 2.675 2.899s4.696 3.554 4.9 3.759c.206.206 1.086.954 1.273.954.189 0 .124-.064-.007-.196zM54.871 45.296c.082.083.268.227.082-.473-.186-.701-1.565-5.479-2.102-6.921-.535-1.441-2.059-5.932-2.41-6.838-.294-.762-.919-1.974-1.185-3.124.569-.535.772-1.356.772-1.716 0-.295-.251-.669-.504-.974.861-.715 2.933-2.442 3.347-2.856.523-.524 2.8-3.192 3.542-4.571.742-1.381 4.367-6.303 4.531-6.467.165-.165.154-.69-.31-.227-4.788 4.789-8.979 10.257-9.639 11.164-.53.729-1.608 1.952-2.008 2.401-.108-.069-.991-.603-1.802-.179-.509.267-.891.69-1.099 1.17-.994-.446-3.675-1.624-4.607-1.808-1.153-.226-12.212-1.153-12.542-1.153-.329 0-.432.249.072.402.504.154 6.806 1.514 7.795 1.658.989.145 5.562 1.071 6.879 1.236.739.092 1.612.217 2.239.309-.013.137-.013.273.007.41.089.624.695 1.175 1.186 1.463l-2.249 60.854h3.562l-.213-60.632c.135-.015.26-.046.376-.085.088.975.402 3.981 1.086 5.775.823 2.163 3.048 6.322 3.481 7.393s1.629 3.707 1.713 3.789z"/></g></svg>