<?xml version="1.0" encoding="UTF-8" standalone="no"?>
<!-- Generator: Adobe Illustrator 15.0.2, SVG Export Plug-In . SVG Version: 6.00 Build 0)  -->

<svg
   xmlns:dc="http://purl.org/dc/elements/1.1/"
   xmlns:cc="http://creativecommons.org/ns#"
   xmlns:rdf="http://www.w3.org/1999/02/22-rdf-syntax-ns#"
   xmlns:svg="http://www.w3.org/2000/svg"
   xmlns="http://www.w3.org/2000/svg"
   xmlns:sodipodi="http://sodipodi.sourceforge.net/DTD/sodipodi-0.dtd"
   xmlns:inkscape="http://www.inkscape.org/namespaces/inkscape"
   version="1.1"
   id="Ebene_1"
   x="0px"
   y="0px"
   width="100px"
   height="100px"
   viewBox="0 0 100 100"
   enable-background="new 0 0 100 100"
   xml:space="preserve"
   inkscape:version="0.48.4 r9939"
   sodipodi:docname="admin-order-safety.svg"><metadata
     id="metadata3302"><rdf:RDF><cc:Work
         rdf:about=""><dc:format>image/svg+xml</dc:format><dc:type
           rdf:resource="http://purl.org/dc/dcmitype/StillImage" /><dc:title></dc:title></cc:Work></rdf:RDF></metadata><defs
     id="defs3300" /><sodipodi:namedview
     pagecolor="#ffffff"
     bordercolor="#666666"
     borderopacity="1"
     objecttolerance="10"
     gridtolerance="10"
     guidetolerance="10"
     inkscape:pageopacity="0"
     inkscape:pageshadow="2"
     inkscape:window-width="640"
     inkscape:window-height="480"
     id="namedview3298"
     showgrid="false"
     inkscape:zoom="3.337544"
     inkscape:cx="39.213733"
     inkscape:cy="51.044916"
     inkscape:window-x="0"
     inkscape:window-y="24"
     inkscape:window-maximized="0"
     inkscape:current-layer="Ebene_1" /><circle
     fill="#B2B2B2"
     cx="50"
     cy="50"
     r="50"
     id="circle3278" /><g
     id="g3320"><path
       d="M 42.401,72.167 C 42.353,72.275 42.353,72.54 42.353,72.6 42.353,72.661 42.173,73.357 42.16,73.464 42.148,73.573 42.1,74.361 42.1,74.361 42.1,74.361 41.98,74.5 41.98,74.607 41.98,74.607 41.836,75.568 41.872,75.593 41.908,75.615 41.992,75.82 41.992,75.928 41.992,76.037 41.992,76.518 41.956,76.541 41.92,76.564 41.98,76.806 41.98,76.806 41.98,76.806 41.956,77.67 41.908,77.718 41.86,77.769 41.703,78.031 41.703,78.031 L 41.811,78.488 42.604,78.044 C 42.604,78.044 42.412,77.947 42.508,77.756 42.604,77.563 42.748,76.77 42.748,76.602 42.748,76.434 42.7,76.397 42.652,76.361 42.604,76.326 42.412,76.206 42.4,76.061 42.388,75.916 42.581,75.413 42.64,75.327 42.701,75.243 42.772,75.088 42.772,75.088 L 42.989,74.007 C 42.989,74.007 42.953,73.814 42.989,73.778 43.025,73.742 43.265,72.972 43.241,72.888 43.217,72.804 42.448,71.23 42.448,71.23 42.448,71.23 42.45,72.058 42.401,72.167 z"
       id="path3282"
       inkscape:connector-curvature="0" /><path
       d="M 37.604,56.565 C 37.552,56.077 37.867,55.619 37.965,55.499 38.063,55.378 38.25,55.363 38.25,55.363 L 38.175,55.213 37.545,55.004 C 37.545,55.004 36.937,57.054 37.229,58.322 37.522,59.591 38.394,59.613 38.394,59.613 L 38.446,59.11 38.573,57.759 C 38.573,57.759 38.108,57.592 37.98,57.488 37.852,57.384 37.657,57.054 37.604,56.565 z"
       id="path3284"
       inkscape:connector-curvature="0" /><path
       d="M 37.677,53.51 37.464,53.565 C 37.464,53.565 37.607,53.639 37.642,53.629 37.677,53.621 37.677,53.51 37.677,53.51 z"
       id="path3286"
       inkscape:connector-curvature="0" /><path
       d="M 38.589,53.483 C 38.624,53.329 38.606,53.172 38.606,53.172 38.606,53.172 38.559,53.254 38.458,53.284 38.357,53.314 38.084,53.406 38.084,53.406 L 37.948,53.706 38.354,53.842 C 38.354,53.843 38.553,53.639 38.589,53.483 z"
       id="path3288"
       inkscape:connector-curvature="0" /><path
       d="M 38.235,55.987 C 38.257,55.95 38.279,55.926 38.279,55.904 38.279,55.882 38.272,55.693 38.182,55.701 38.182,55.701 37.873,56.077 37.881,56.43 37.889,56.784 37.934,57.099 38.077,57.211 38.22,57.323 38.625,57.505 38.625,57.505 L 38.685,57.391 38.242,56.1 C 38.242,56.1 38.212,56.025 38.235,55.987 z"
       id="path3290"
       inkscape:connector-curvature="0" /><path
       d="M 47.583,65.41 C 47.583,65.41 47.456,64.908 47.306,64.382 47.155,63.857 46.764,62.956 46.764,62.956 H 46.547 C 46.547,62.956 46.539,63.008 46.539,63.067 46.539,63.129 46.449,63.33 46.449,63.33 46.449,63.33 46.404,63.488 46.442,63.594 46.48,63.7 46.352,64.082 46.352,64.082 L 46.829,64.525 46.685,64.85 C 46.685,64.85 46.8,65.884 46.771,66.363 46.742,66.842 46.436,67.445 46.398,67.492 46.36,67.54 46.436,67.77 46.436,67.77 46.436,67.77 46.762,68.393 46.876,68.793 46.991,69.196 46.934,70.114 46.915,70.201 46.895,70.287 46.838,70.353 46.8,70.458 46.761,70.564 46.819,70.775 46.895,70.823 46.971,70.871 46.953,71.072 46.953,71.1 46.953,71.128 46.972,71.329 46.991,71.359 47.011,71.387 46.972,71.665 46.924,71.731 46.876,71.799 46.934,72.076 46.934,72.076 47.384,71.444 47.703,69.502 47.771,69.029 47.838,68.555 47.808,67.325 47.808,67.325 L 47.763,67.309 47.703,66.738 47.771,66.702 47.621,65.882 47.583,65.41 z"
       id="path3292"
       inkscape:connector-curvature="0" /><path
       id="path3294"
       d="M 24.0625 18.125 L 24.0625 83.75 L 72 83.875 C 72 83.875 71.99025 83.33525 72.28125 83.28125 C 72.57425 83.22725 74.53125 82.84725 74.53125 82.15625 L 74.53125 42.25 C 74.53125 42.25 74.485 41.04725 75.125 40.78125 C 75.762 40.51525 78 40.0315 78 38.3125 L 78 31.28125 L 78 26.84375 L 78 22.0625 C 78 20.3415 75.762 19.891 75.125 19.625 C 74.485 19.359 74.53125 18.125 74.53125 18.125 L 67.1875 18.125 C 67.3035 18.437 67.31325 18.75625 67.28125 18.90625 L 67.78125 25.75 L 67.9375 31.40625 L 67.90625 32.375 C 67.90625 32.375 67.81 33.7445 66.625 34.0625 C 65.586 34.3965 65.09375 33.625 65.09375 33.625 C 65.09375 33.625 64.78625 33.2565 64.78125 32.6875 C 64.75025 31.9725 64.5 22.90625 64.5 22.90625 L 64.4375 21.65625 C 64.4375 21.65625 64.735 21.39225 64.75 21.53125 C 64.819 21.79625 64.8125 23.21875 64.8125 23.21875 L 65 29.21875 L 65.09375 32.5625 C 65.09375 32.5625 65.26825 33.64075 65.78125 33.71875 C 66.23125 33.93075 66.897 33.7825 67.25 33.3125 C 67.55 32.8245 67.59375 32.53125 67.59375 32.53125 L 67.59375 29.8125 L 67.46875 27.09375 L 67.25 23.375 L 66.96875 19.34375 C 66.96875 19.34375 67.018 18.612 66.75 18.125 L 65.28125 18.125 L 64.96875 18.125 L 24.0625 18.125 z M 59.71875 35.65625 C 60.555567 35.636994 60.723892 35.723586 61.28125 35.90625 C 61.839648 36.088914 62.105949 36.288194 62.375 36.5 C 62.644052 36.711807 62.78125 36.875101 62.78125 37 C 62.78125 37.125419 62.553032 37.278725 62.4375 37.375 C 62.32249 37.471276 62.0625 37.6875 62.0625 37.6875 L 61.96875 37.75 L 61.96875 37.8125 L 61.96875 38.40625 C 61.96875 38.454127 61.89847 38.668765 61.9375 38.6875 C 61.976012 38.707276 62.0625 38.78125 62.0625 38.78125 C 62.0625 38.78125 62.091643 38.867842 62.0625 39.03125 C 62.034398 39.194658 61.915617 39.218331 61.90625 39.34375 C 61.896883 39.468648 61.903622 39.554823 61.875 39.71875 C 61.845336 39.882158 61.839015 40.006942 61.78125 40.21875 C 61.723485 40.430035 61.71875 40.524091 61.71875 40.6875 C 61.71875 40.850908 61.755153 41.091744 61.6875 41.1875 C 61.620367 41.283775 61.565025 41.444342 61.46875 41.53125 C 61.371954 41.617638 61.40625 41.84375 61.40625 41.84375 L 61.75 41.84375 L 62.03125 42.46875 C 62.03125 42.46875 62.99999 42.944444 63.625 43.15625 C 64.250531 43.368057 65.249367 43.417703 65.75 44.6875 C 66.251153 45.957297 66.59375 47.78125 66.59375 47.78125 L 66.65625 48.25 C 66.73223 48.746471 66.71875 49.406291 66.71875 50.09375 C 66.71875 50.781209 66.66624 51.475531 66.78125 52.125 C 66.89626 52.77395 66.121228 53.98628 65.96875 54.40625 C 65.81627 54.82674 65.423219 55.704903 65.15625 55.96875 C 64.888759 56.23624 64.75 56.545531 64.75 56.8125 C 64.75 57.080511 65.25 60.906009 65.25 61.25 C 65.25 61.593989 64.5625 61.8125 64.5625 61.8125 L 64.0625 64.9375 C 64.0625 64.9375 64.0905 65.507021 63.9375 65.8125 C 63.78502 66.118501 63.625 66.737055 63.625 67.46875 C 63.625 68.199924 63.497994 72.283551 63.59375 73.1875 C 63.690026 74.091449 63.89899 75.740418 63.9375 76.125 C 63.976531 76.509061 64 76.875 64 76.875 L 63.8125 77.125 L 63.96875 77.46875 C 63.96875 77.46875 64.721479 77.968954 64.875 78.21875 C 65.02904 78.469067 65.223485 78.573658 65.28125 78.84375 C 65.339015 79.113322 65.4375 79.28125 65.4375 79.28125 L 65.5625 79.375 C 65.5625 79.375 65.556725 79.667725 65.5 79.6875 C 65.442235 79.706756 64.918356 79.893736 64.4375 79.875 C 63.956642 79.855746 63.358587 79.802511 63.03125 79.6875 C 62.704434 79.57249 62.284092 79.220756 61.9375 79.125 C 61.590908 79.029245 61.057764 79.060291 61 78.90625 C 60.942754 78.75273 60.96875 78.304514 60.96875 78.09375 C 60.96875 77.881942 60.75 77.875 60.75 77.875 C 60.75 77.875 60.740733 77.550505 60.875 77.53125 C 61.009265 77.511995 61.299985 77.384786 61.28125 77.25 C 61.262515 77.114694 60.9375 76.59375 60.9375 76.59375 C 60.9375 76.59375 60.643734 72.374704 60.625 71.375 C 60.606266 70.374774 60.648786 68.065342 60.4375 67.71875 C 60.224652 67.372158 59.8125 66.5625 59.8125 66.5625 C 59.8125 66.5625 59.783255 63.394255 59.6875 63.375 C 59.591744 63.355744 59.377526 63.632147 59.28125 64.09375 C 59.184454 64.555873 58.851011 66.551231 58.8125 66.78125 C 58.77399 67.012312 58.59375 67.34375 58.59375 67.34375 L 58.53125 68.0625 L 58.0625 69.0625 C 58.0625 69.0625 58.225489 72.98958 58.1875 73.625 C 58.148989 74.259897 58.06976 75.706959 58.03125 75.9375 C 57.99222 76.168042 57.8125 76.379735 57.8125 76.4375 C 57.8125 76.495266 57.84375 76.71875 57.84375 76.71875 L 57.53125 76.84375 L 57.625 77.5 C 57.625 77.5 57.71875 77.91624 57.71875 78.03125 C 57.71875 78.147302 57.8125 78.34375 57.8125 78.34375 C 57.8125 78.34375 57.932245 78.51725 57.875 78.59375 C 57.817235 78.671292 57.646781 78.80576 57.53125 78.84375 C 57.416239 78.88226 57.204547 78.871955 57.03125 78.96875 C 56.858476 79.063985 56.281567 79.64951 56.03125 79.6875 C 55.780934 79.72601 55.022618 79.79525 54.65625 79.71875 C 54.290923 79.641209 53.8125 79.40625 53.8125 79.40625 C 53.8125 79.40625 53.720958 78.839332 53.875 78.53125 C 54.02956 78.223168 54.413714 77.834802 54.625 77.71875 C 54.836286 77.60374 55.0625 77.34375 55.0625 77.34375 L 55.0625 77.125 L 54.84375 77.03125 C 54.84375 77.03125 55.08701 71.979169 55.125 71.34375 C 55.16351 70.708852 55.144254 70.336806 55.125 70.125 C 55.105744 69.913194 55.192755 69.184772 55.25 69.03125 C 55.308286 68.87773 55.144254 67.147413 55.125 66.53125 C 55.105744 65.914565 55.019256 64.848801 55 64.65625 C 54.988032 64.538116 54.875964 64.179439 54.78125 63.875 L 54.59375 68.71875 C 54.588025 68.880597 54.474348 69.006245 54.3125 69 C 54.151174 68.994275 54.025525 68.849348 54.03125 68.6875 L 54.25 62 L 54.21875 61.96875 C 54.21875 61.96875 54.261995 60.327451 54.28125 59.5 C 54.282291 59.443276 54.279689 59.369225 54.28125 59.3125 C 54.225566 59.22247 54.183338 59.117612 54.1875 59 L 54.3125 56.28125 C 54.318224 56.124607 54.367269 55.969193 54.46875 55.875 L 54.46875 55.8125 C 54.46927 55.798969 54.497919 55.794262 54.5 55.78125 C 54.302766 55.419046 54.021158 54.996077 53.78125 54.65625 C 53.319648 54.001577 52.54577 52.959392 52.46875 52.34375 C 52.391729 51.728107 52.29124 51.079342 52.40625 50.65625 C 52.521781 50.233158 52.901199 48.494858 53.09375 47.9375 C 53.286822 47.379623 53.71875 46.156567 53.71875 45.90625 C 53.71875 45.655934 53.687183 44.911618 53.9375 44.46875 C 54.187297 44.025883 54.192123 43.968545 54.75 43.71875 C 55.308919 43.468434 56.163398 43.204546 56.625 43.03125 C 57.086602 42.857954 57.37773 42.745266 57.53125 42.6875 C 57.685291 42.629736 58.125 42.31029 58.125 42.15625 C 58.125 42.002209 58.20254 41.004531 58.125 40.8125 C 58.048499 40.619428 57.791036 40.27852 57.65625 40.125 C 57.521464 39.971478 57.566715 39.668563 57.625 39.4375 C 57.679643 39.216847 57.828657 39.20108 57.84375 39.25 C 57.828657 39.202642 57.812995 38.970235 57.78125 38.875 C 57.74326 38.759469 57.625 38.84375 57.625 38.84375 L 57.53125 38.03125 L 57.4375 38.03125 C 57.4375 38.03125 56.834281 37.497791 56.71875 37.34375 C 56.603739 37.189709 56.605847 37.120684 56.75 36.9375 C 56.894154 36.754837 57.420239 36.336806 57.96875 36.125 C 58.517261 35.913714 58.881932 35.675504 59.71875 35.65625 z M 41.34375 36.21875 C 41.910875 36.205875 42.486 36.3665 43 36.75 C 43.982 37.483 44.7365 39.738 45.0625 40 C 45.0625 40 45.21175 40.09225 45.21875 40.15625 C 45.22475 40.21925 45.08525 40.2935 44.90625 40.3125 C 44.72725 40.3325 45.55525 40.50475 46.53125 41.46875 C 46.53125 41.46875 46.583 41.541 46.5 41.625 C 46.417 41.708 46.02525 42.21675 45.40625 42.34375 C 45.40625 42.34375 45.31625 42.3745 45.40625 42.4375 C 45.49525 42.5015 45.59375 42.659 45.59375 42.875 C 45.59375 43.092 45.5 43.15625 45.5 43.15625 C 45.5 43.15625 45.42925 43.2495 45.53125 43.3125 C 45.63425 43.3755 45.46875 43.5625 45.46875 43.5625 L 45.65625 43.78125 C 45.65625 43.78125 46.022 43.904 46.125 44 C 46.227 44.096 46.46875 44.28125 46.46875 44.28125 L 46.8125 44.4375 L 46.84375 44.25 C 46.84375 44.25 46.86125 44.4185 46.90625 44.4375 C 46.95025 44.4565 47.112 44.6235 47.125 44.6875 C 47.138 44.7505 47.25 44.9375 47.25 44.9375 C 47.25 44.9375 47.1875 45.00025 47.1875 45.03125 C 47.1875 45.06225 47.1875 45.125 47.1875 45.125 L 47.28125 45.1875 C 47.28125 45.1875 47.576 44.70325 48.125 44.53125 C 48.673 44.35925 50.096 44.21425 50.75 45.15625 C 50.954 45.44925 50.9375 45.65625 50.9375 45.65625 L 50.96875 47.65625 L 51.03125 47.65625 L 51.03125 47.84375 L 51.125 47.84375 L 51.125 47.96875 L 51.15625 47.96875 L 51.15625 49.03125 C 51.15625 49.03125 51.06875 49.02375 51.09375 49.09375 C 51.11875 49.16375 51.17525 49.23025 51.15625 49.28125 C 51.13725 49.33225 51.03125 49.375 51.03125 49.375 L 51.03125 49.46875 L 50.96875 49.5 L 50.96875 54.59375 C 50.96875 54.59375 50.962 55.6055 49.75 55.9375 L 49.75 56.15625 L 49.59375 56.28125 L 49.59375 56.59375 L 49.28125 56.59375 L 49.28125 57.0625 L 49.40625 56.96875 L 49.59375 56.96875 L 49.65625 57.03125 C 49.65625 57.03125 49.70975 56.78275 49.84375 56.71875 C 49.97775 56.65475 50.20525 56.725 50.28125 57 C 50.35725 57.275 50.28725 57.7675 50.03125 57.8125 C 49.77725 57.8565 49.71875 57.5 49.71875 57.5 L 49.59375 57.53125 C 49.59375 57.53125 49.42625 57.55125 49.40625 57.53125 L 49.375 57.5 L 48.96875 57.5 L 48.875 57.59375 L 48.5625 57.59375 C 48.5625 57.59375 48.521 57.8125 48.375 57.8125 C 48.228 57.8125 48.09375 57.6875 48.09375 57.6875 L 48.0625 57.96875 C 48.0625 57.96875 47.88275 58.6785 47.84375 59.0625 C 47.80475 59.4445 47.6685 60.529 47.6875 60.875 C 47.7065 61.219 47.6875 61.78125 47.6875 61.78125 C 47.6875 61.78125 48.706 63.78875 49 65.84375 C 49.292 67.89975 49.19325 69.53225 48.65625 71.28125 C 48.12025 73.02925 46.59375 75.125 46.59375 75.125 C 46.59375 75.125 46.6005 75.8235 46.5625 75.9375 C 46.5235 76.0535 46.40625 76.34375 46.40625 76.34375 C 46.40625 76.34375 46.7255 76.579 46.6875 77 C 46.6495 77.422 46.25 78.875 46.25 78.875 L 46.25 79.09375 C 46.25 79.09375 45.5375 79.479 42.4375 79.375 C 42.1175 79.366 41.78125 79.34375 41.78125 79.34375 L 41.78125 79.5625 C 41.78125 79.5625 39.0655 79.776 37.6875 79.75 C 36.3095 79.724 35.09375 79.59375 35.09375 79.59375 C 35.09375 79.59375 34.9125 79.29625 34.9375 79.15625 C 34.9625 79.01425 35.22425 78.814 35.53125 78.75 C 35.83725 78.687 36.28125 78.59375 36.28125 78.59375 C 36.28125 78.59375 37.148 78.038 37.25 78 C 37.353 77.962 37.375 77.90625 37.375 77.90625 L 37.59375 77.5625 C 37.59375 77.5625 37.45625 77.38825 37.40625 77.03125 C 37.35525 76.67325 37.332 76.453 37.625 76.25 C 37.918 76.046 37.96875 75.96875 37.96875 75.96875 L 37.90625 75.375 C 37.90625 75.375 37.96825 75.2635 38.03125 75.1875 C 38.09525 75.1105 37.9375 74 37.9375 74 C 37.9375 74 37.837 73.581 37.875 73.25 C 37.913 72.919 37.90625 72.125 37.90625 72.125 C 37.90625 72.125 37.961 71.59975 38 71.34375 C 38.039 71.08875 38.28125 70.40625 38.28125 70.40625 C 38.28125 70.40625 38.04525 70.14 38.03125 70 C 38.01925 69.859 37.9755 69.414 37.9375 69.375 C 37.8995 69.337 37.79425 68.9425 37.78125 68.6875 C 37.76825 68.4325 37.808 67.028 38 66.25 C 38.191 65.472 38.46875 64.5625 38.46875 64.5625 L 38.53125 64.40625 C 38.53125 64.40625 38.46875 64.38525 38.46875 64.28125 C 38.46875 64.17925 38.448 64.10025 38.5 64.03125 C 38.551 63.96125 38.61275 63.85875 38.59375 63.71875 C 38.57375 63.57775 38.5625 63.1875 38.5625 63.1875 L 38.5 63.125 C 38.5 63.125 38.41075 63.08825 38.46875 63.03125 C 38.52575 62.97325 38.59375 62.96875 38.59375 62.96875 C 38.59375 62.96875 38.66225 62.54475 38.65625 62.46875 C 38.64925 62.39275 38.625 62.1875 38.625 62.1875 C 38.625 62.1875 38.4625 62.445 38.4375 62.625 C 38.4115 62.802 38.40625 63.125 38.40625 63.125 C 38.40625 63.125 38.12925 63.0515 37.90625 62.9375 C 37.68325 62.8245 37.64325 62.80075 37.65625 62.71875 C 37.66925 62.63675 37.8125 62.1875 37.8125 62.1875 C 37.8125 62.1875 37.9735 61.82925 38.0625 61.65625 C 38.1515 61.48325 38.28125 61.375 38.28125 61.375 C 38.28125 61.375 38.22425 61.1195 38.28125 61.0625 C 38.33825 61.0025 38.375 60.875 38.375 60.875 C 38.375 60.875 38.3125 60.788 38.3125 60.75 C 38.3125 60.712 38.40625 60.1875 38.40625 60.1875 L 38.40625 59.96875 C 38.40625 59.96875 37.7075 59.87425 37.3125 59.28125 C 36.9165 58.68825 36.8055 57.86325 36.8125 57.28125 C 36.8195 56.70125 37.03125 55.75 37.03125 55.75 L 37.21875 54.9375 L 36.625 54.71875 L 36.46875 54.78125 C 36.46875 54.78125 36.4 54.888 36.375 54.875 C 36.35 54.862 36.3125 54.8125 36.3125 54.8125 C 36.3125 54.8125 36.17 54.9475 36.125 54.9375 C 36.08 54.9225 36.03125 54.875 36.03125 54.875 L 35.90625 54.84375 C 35.90625 54.84375 35.61425 55.37425 35.28125 55.40625 C 34.94925 55.43925 34.5125 55.43375 34.1875 54.96875 C 33.8615 54.50275 33.90625 54.125 33.90625 54.125 L 33.71875 54.28125 C 33.71875 54.28125 33.6965 54.281 33.5625 54.25 C 33.4285 54.217 33.25 54.1875 33.25 54.1875 L 33.21875 54.28125 L 32.8125 54.15625 L 32.8125 54.09375 L 32.4375 54 L 32.5 53.71875 L 31.90625 53.46875 C 31.90625 53.46875 31.86875 53.5625 31.84375 53.5625 C 31.81875 53.5625 31.6875 53.53125 31.6875 53.53125 L 31.71875 53.25 L 31.1875 53.03125 C 31.1875 53.03125 31.0655 53.0875 30.9375 53.0625 C 30.8105 53.0375 30.34375 52.875 30.34375 52.875 L 30.1875 52.9375 L 29.46875 52.6875 C 29.46875 52.6875 29.40625 52.684 29.40625 52.625 C 29.40625 52.569 29.46875 52.375 29.46875 52.375 C 29.46875 52.375 29.4465 52.30775 29.3125 52.34375 C 29.1785 52.38375 28.90625 52.46875 28.90625 52.46875 L 28.65625 52.5 C 28.65625 52.5 28.7555 52.26475 28.8125 52.09375 C 28.8705 51.92075 29.157 51.13175 29.125 51.09375 C 29.094 51.05575 29.2615 51.14875 29.3125 51.21875 C 29.3635 51.28875 29.52975 51.48725 29.59375 51.53125 C 29.65675 51.57625 29.71875 51.59375 29.71875 51.59375 L 29.75 51.40625 C 29.75 51.40625 29.7615 51.2995 29.8125 51.3125 C 29.8635 51.3255 30.59375 51.53125 30.59375 51.53125 C 30.59375 51.53125 30.6495 51.54875 30.6875 51.59375 C 30.7255 51.63775 31.125 51.75 31.125 51.75 C 31.125 51.75 31.486 51.86725 31.5 51.90625 C 31.513 51.94325 31.78125 52.03125 31.78125 52.03125 L 31.84375 51.9375 L 32.09375 51.9375 C 32.09375 51.9375 32.13625 51.84375 32.15625 51.84375 C 32.17525 51.84375 32.375 51.90625 32.375 51.90625 L 32.375 51.96875 L 32.5 52 L 32.5 52.03125 L 32.4375 52.03125 L 32.4375 52.09375 L 32.8125 52.1875 C 32.8125 52.1875 32.9055 52.2135 32.9375 52.1875 C 32.9685 52.1625 32.84375 52.03125 32.84375 52.03125 C 32.84375 52.03125 32.7735 51.93275 32.8125 51.84375 C 32.8505 51.75375 33 51.6875 33 51.6875 C 33 51.6875 33.086 51.6625 33.125 51.6875 C 33.163 51.7125 33.21875 51.75 33.21875 51.75 C 33.21875 51.75 33.23575 51.639 33.34375 51.625 C 33.45175 51.613 33.65625 51.625 33.65625 51.625 L 33.875 51.78125 C 33.875 51.78125 33.9605 51.76225 34.0625 51.78125 C 34.1645 51.80025 34.25 51.875 34.25 51.875 L 34.40625 52.0625 C 34.40625 52.0625 34.4915 52.03125 34.5625 52.03125 C 34.6325 52.03125 34.6875 52.03125 34.6875 52.03125 L 35.09375 51.78125 L 35.25 51.78125 C 35.25 51.78125 35.31725 51.65775 35.40625 51.59375 C 35.49525 51.52975 35.70675 51.38875 35.71875 51.34375 C 35.73075 51.29875 35.81875 51.16825 35.84375 51.15625 C 35.86875 51.14225 35.89775 50.965 35.96875 50.875 C 36.03975 50.785 36.09375 50.7135 36.09375 50.6875 C 36.09375 50.6615 36.1405 50.4755 36.3125 50.4375 L 36.46875 50.40625 L 36.875 49.5625 C 36.875 49.5625 36.872 49.28725 37 49.03125 C 37.128 48.77725 37.46875 48.5 37.46875 48.5 C 37.46875 48.5 37.3845 48.3875 37.5625 48.0625 C 37.7415 47.7375 38 47.46875 38 47.46875 C 38 47.46875 38.442 46.87025 38.5 46.78125 C 38.557 46.69125 38.625 46.5 38.625 46.5 C 38.625 46.5 38.75475 46.214 38.84375 46.125 C 38.93375 46.036 39.03125 45.96875 39.03125 45.96875 C 39.03125 45.96875 38.9565 45.93725 38.9375 45.90625 C 38.9185 45.87525 38.90625 45.84375 38.90625 45.84375 C 38.90625 45.84375 38.8315 45.81325 38.8125 45.78125 L 38.78125 45.75 C 38.78125 45.75 38.60875 46.06425 38.46875 46.03125 C 38.32775 45.99925 38.203 45.97375 37.75 45.46875 C 37.297 44.96475 37.22475 44.85275 37.21875 44.71875 C 37.21375 44.60975 37.30575 44.519 37.34375 44.5 L 37.46875 44.40625 L 37.53125 44.375 C 37.53125 44.375 37.51825 44.30125 37.53125 44.28125 C 37.54425 44.26225 37.75 44.09375 37.75 44.09375 L 37.8125 44.125 L 37.90625 44.0625 L 38.125 44.3125 L 38.28125 44.1875 L 38.34375 44.25 C 38.34375 44.25 38.39325 44.2075 38.40625 44.1875 C 38.41925 44.1685 38.52975 44.032 38.59375 44 C 38.65775 43.968 38.75 43.875 38.75 43.875 L 38.59375 43.875 C 38.59375 43.875 38.53725 43.85225 38.53125 43.78125 C 38.52525 43.71125 38.53125 43.59375 38.53125 43.59375 L 38.625 43.53125 L 38.625 40.84375 L 37.84375 40.8125 C 37.84375 40.8125 37.6875 40.817 37.6875 40.75 C 37.6875 40.683 37.96875 40.34375 37.96875 40.34375 C 37.96875 40.34375 37.94675 40.305 37.96875 40.25 C 37.99075 40.196 38.03125 40.15625 38.03125 40.15625 C 38.03125 40.15625 38.09225 39.15525 38.15625 38.90625 C 38.21925 38.65725 38.25 38.65625 38.25 38.65625 C 38.25 38.65625 38.73575 37.16725 39.71875 36.65625 C 40.21025 36.40125 40.776625 36.231625 41.34375 36.21875 z " /><path
       d="M 48.562,56.287 48.434,56.16 48.428,55.949 C 48.428,55.949 47.579,55.777 47.222,55.075 47.222,55.075 47.171,55.617 47.1,55.693 47.1,55.693 47.317,55.84 47.413,56.377 L 48.019,56.44 48.051,56.733 47.981,56.76 47.961,56.989 48.05,56.969 48.089,56.906 C 48.089,56.906 48.121,56.753 48.223,56.746 48.326,56.74 48.478,56.766 48.478,56.766 L 48.504,56.856 48.567,56.876 V 56.933 H 48.867 V 56.602 H 48.561 V 56.287 z"
       id="path3296"
       inkscape:connector-curvature="0" /></g></svg>