<?xml version="1.0" encoding="UTF-8" standalone="no"?>
<!-- Generator: Adobe Illustrator 15.0.2, SVG Export Plug-In . SVG Version: 6.00 Build 0)  -->

<svg
   xmlns:dc="http://purl.org/dc/elements/1.1/"
   xmlns:cc="http://creativecommons.org/ns#"
   xmlns:rdf="http://www.w3.org/1999/02/22-rdf-syntax-ns#"
   xmlns:svg="http://www.w3.org/2000/svg"
   xmlns="http://www.w3.org/2000/svg"
   xmlns:sodipodi="http://sodipodi.sourceforge.net/DTD/sodipodi-0.dtd"
   xmlns:inkscape="http://www.inkscape.org/namespaces/inkscape"
   version="1.1"
   id="Ebene_1"
   x="0px"
   y="0px"
   width="100px"
   height="100px"
   viewBox="0 0 100 100"
   enable-background="new 0 0 100 100"
   xml:space="preserve"
   inkscape:version="0.48.4 r9939"
   sodipodi:docname="admin-order-safety.svg"><metadata
     id="metadata3302"><rdf:RDF><cc:Work
         rdf:about=""><dc:format>image/svg+xml</dc:format><dc:type
           rdf:resource="http://purl.org/dc/dcmitype/StillImage" /><dc:title></dc:title></cc:Work></rdf:RDF></metadata><defs
     id="defs3300" /><sodipodi:namedview
     pagecolor="#ffffff"
     bordercolor="#666666"
     borderopacity="1"
     objecttolerance="10"
     gridtolerance="10"
     guidetolerance="10"
     inkscape:pageopacity="0"
     inkscape:pageshadow="2"
     inkscape:window-width="640"
     inkscape:window-height="480"
     id="namedview3298"
     showgrid="false"
     inkscape:zoom="6.675088"
     inkscape:cx="50.942186"
     inkscape:cy="49.068153"
     inkscape:window-x="0"
     inkscape:window-y="24"
     inkscape:window-maximized="0"
     inkscape:current-layer="Ebene_1" /><circle
     fill="#B2B2B2"
     cx="50"
     cy="50"
     r="50"
     id="circle3278" /><path
     d="M 24.0625 18.125 L 24.0625 83.75 L 72 83.875 C 72 83.875 71.99025 83.33525 72.28125 83.28125 C 72.57425 83.22725 74.53125 82.84725 74.53125 82.15625 L 74.53125 42.25 C 74.53125 42.25 74.485 41.04725 75.125 40.78125 C 75.762 40.51525 78 40.0315 78 38.3125 L 78 31.28125 L 78 26.84375 L 78 22.0625 C 78 20.3415 75.762 19.891 75.125 19.625 C 74.485 19.359 74.53125 18.125 74.53125 18.125 L 67.1875 18.125 C 67.3035 18.437 67.31325 18.75625 67.28125 18.90625 L 67.78125 25.75 L 67.9375 31.40625 L 67.90625 32.375 C 67.90625 32.375 67.81 33.7445 66.625 34.0625 C 65.586 34.3965 65.09375 33.625 65.09375 33.625 C 65.09375 33.625 64.78625 33.2565 64.78125 32.6875 C 64.75025 31.9725 64.5 22.90625 64.5 22.90625 L 64.4375 21.65625 C 64.4375 21.65625 64.735 21.39225 64.75 21.53125 C 64.819 21.79625 64.8125 23.21875 64.8125 23.21875 L 65 29.21875 L 65.09375 32.5625 C 65.09375 32.5625 65.26825 33.64075 65.78125 33.71875 C 66.23125 33.93075 66.897 33.7825 67.25 33.3125 C 67.55 32.8245 67.59375 32.53125 67.59375 32.53125 L 67.59375 29.8125 L 67.46875 27.09375 L 67.25 23.375 L 66.96875 19.34375 C 66.96875 19.34375 67.018 18.612 66.75 18.125 L 65.28125 18.125 L 64.96875 18.125 L 24.0625 18.125 z M 53.59375 32.65625 C 51.655917 33.572665 45.903914 38.480326 45.5 38.75 C 45.471362 38.769092 44.400058 39.778733 44.375 40.09375 L 34.375 46.5 C 34.582625 45.591939 37.288272 43.305477 38.75 41.84375 C 40.212921 40.382022 41.53125 39.65625 41.53125 39.65625 C 41.53125 39.65625 46.875527 36.204284 50.75 33.71875 C 51.90924 32.975357 52.840811 32.700998 53.59375 32.65625 z M 54.84375 32.71875 C 56.60737 32.614938 57.34375 33.6875 57.34375 33.6875 C 57.34375 33.6875 60.060428 36.766888 61.59375 38.59375 C 62.09909 39.195743 62.368147 39.872802 62.5 40.5625 L 45.90625 39.6875 C 45.924149 39.529992 45.949061 39.450626 45.96875 39.4375 C 46.372664 39.167826 52.904724 33.635164 54.84375 32.71875 z M 45.65625 40.875 L 62.5 41.6875 C 62.769674 43.093145 62.46875 44.555093 62.46875 45.4375 C 62.46875 46.753651 60.125 76.5 60.125 76.5 C 60.125 76.5 45.865941 77.3125 45.28125 77.3125 C 45.268721 77.3125 45.236648 77.313096 45.21875 77.3125 C 45.224119 73.915326 45.293503 43.985199 45.65625 40.875 z M 44.375 41.21875 C 44.032538 45.422559 43.974716 74.086637 43.96875 77.40625 C 43.113789 77.3621 35.84375 76.3125 35.84375 76.3125 C 35.84375 76.3125 34.886306 55.030934 34.375 50.9375 C 34.165585 49.263971 34.231213 48.253245 34.375 47.625 L 44.375 41.21875 z M 49.21875 41.4375 L 46.8125 43.84375 C 46.726586 43.929663 46.726586 44.664087 46.8125 44.75 C 46.89722 44.835318 47.039086 44.835318 47.125 44.75 L 49.1875 42.6875 L 51.3125 45.3125 L 54.125 43.0625 L 56.375 45.59375 L 59.28125 43.25 L 61.09375 45.71875 C 61.13611 45.776623 61.182582 45.78125 61.25 45.78125 C 61.295343 45.78125 61.336219 45.778639 61.375 45.75 C 61.471652 45.677809 61.509094 44.941 61.4375 44.84375 L 59.34375 42.03125 L 56.40625 44.375 L 54.1875 41.84375 L 51.375 44.09375 L 49.21875 41.4375 z M 49.1875 44.34375 L 47.125 46.40625 C 47.039087 46.491567 46.897221 46.491567 46.8125 46.40625 C 46.769543 46.363293 46.75 46.306083 46.75 46.25 C 46.717782 46.497002 46.748064 46.935565 46.8125 47 C 46.89722 47.085318 47.039086 47.085318 47.125 47 L 49.1875 44.9375 L 51.3125 47.53125 L 54.125 45.3125 L 56.375 47.84375 L 59.28125 45.5 L 61.09375 47.96875 C 61.13611 48.026623 61.182582 48.03125 61.25 48.03125 C 61.295343 48.03125 61.336219 48.028638 61.375 48 C 61.452407 47.942183 61.465875 47.520793 61.4375 47.28125 C 61.423666 47.322105 61.411956 47.378648 61.375 47.40625 C 61.335623 47.435485 61.295344 47.4375 61.25 47.4375 C 61.182581 47.4375 61.136111 47.401622 61.09375 47.34375 L 59.28125 44.90625 L 56.375 47.25 L 54.125 44.71875 L 51.3125 46.9375 L 49.1875 44.34375 z "
     id="path3294" /></svg>