<?xml version="1.0" encoding="UTF-8" standalone="no"?>
<!-- Generator: Adobe Illustrator 15.0.2, SVG Export Plug-In . SVG Version: 6.00 Build 0)  -->

<svg
   xmlns:dc="http://purl.org/dc/elements/1.1/"
   xmlns:cc="http://creativecommons.org/ns#"
   xmlns:rdf="http://www.w3.org/1999/02/22-rdf-syntax-ns#"
   xmlns:svg="http://www.w3.org/2000/svg"
   xmlns="http://www.w3.org/2000/svg"
   xmlns:sodipodi="http://sodipodi.sourceforge.net/DTD/sodipodi-0.dtd"
   xmlns:inkscape="http://www.inkscape.org/namespaces/inkscape"
   version="1.1"
   id="Ebene_1"
   x="0px"
   y="0px"
   width="100px"
   height="100px"
   viewBox="0 0 100 100"
   enable-background="new 0 0 100 100"
   xml:space="preserve"
   inkscape:version="0.48.4 r9939"
   sodipodi:docname="financial-admin.svg"><metadata
     id="metadata4180"><rdf:RDF><cc:Work
         rdf:about=""><dc:format>image/svg+xml</dc:format><dc:type
           rdf:resource="http://purl.org/dc/dcmitype/StillImage" /><dc:title></dc:title></cc:Work></rdf:RDF></metadata><defs
     id="defs4178" /><sodipodi:namedview
     pagecolor="#ffffff"
     bordercolor="#666666"
     borderopacity="1"
     objecttolerance="10"
     gridtolerance="10"
     guidetolerance="10"
     inkscape:pageopacity="0"
     inkscape:pageshadow="2"
     inkscape:window-width="640"
     inkscape:window-height="480"
     id="namedview4176"
     showgrid="false"
     inkscape:zoom="3.337544"
     inkscape:cx="59.411045"
     inkscape:cy="38.074923"
     inkscape:window-x="0"
     inkscape:window-y="24"
     inkscape:window-maximized="0"
     inkscape:current-layer="Ebene_1" /><circle
     cx="50"
     cy="50"
     r="50"
     id="circle4172"
     fill="#B2B2B2" /><path
     style="fill:#010202;stroke:#010202;stroke-width:0.26249999;stroke-linejoin:round"
     d="M 25.03125 20.90625 L 25.03125 80.09375 L 68.28125 80.21875 C 68.28125 80.21875 68.26725 79.7345 68.53125 79.6875 C 68.79725 79.6385 70.5625 79.28125 70.5625 78.65625 L 70.5625 42.6875 C 70.5625 42.6875 70.51875 41.58375 71.09375 41.34375 C 71.66875 41.10475 73.6875 40.675 73.6875 39.125 L 73.6875 32.78125 L 73.6875 28.78125 L 73.6875 24.46875 C 73.6875 22.91675 71.66875 22.49 71.09375 22.25 C 70.51875 22.011 70.5625 20.90625 70.5625 20.90625 L 63.9375 20.90625 C 64.0425 21.18825 64.05825 21.49 64.03125 21.625 L 64.46875 27.78125 L 64.625 32.875 L 64.59375 33.78125 C 64.59375 33.78125 64.5055 34.99425 63.4375 35.28125 C 62.4995 35.58225 62.0625 34.90625 62.0625 34.90625 C 62.0625 34.90625 61.78525 34.5745 61.78125 34.0625 C 61.75425 33.4175 61.53125 25.21875 61.53125 25.21875 L 61.46875 24.09375 C 61.46875 24.09375 61.738 23.84475 61.75 23.96875 C 61.812 24.20775 61.8125 25.5 61.8125 25.5 L 61.96875 30.9375 L 62.0625 33.9375 C 62.0625 33.9375 62.2255 34.929 62.6875 35 C 63.0945 35.191 63.681 35.01775 64 34.59375 C 64.271 34.15375 64.28125 33.90625 64.28125 33.90625 L 64.28125 31.4375 L 64.1875 29 L 64 25.625 L 63.71875 22 C 63.71875 22 63.8035 21.34625 63.5625 20.90625 L 62.21875 20.90625 L 61.9375 20.90625 L 25.03125 20.90625 z M 38.75 39.84375 C 43.088461 39.84375 46.625 40.598939 46.625 41.53125 C 46.625 42.463561 43.088461 43.21875 38.75 43.21875 C 34.411539 43.21875 30.90625 42.463561 30.90625 41.53125 C 30.90625 40.598939 34.411539 39.84375 38.75 39.84375 z M 30.15625 42.125 C 30.406554 42.386947 30.693719 42.574541 30.71875 42.59375 C 31.96736 43.493099 35.077513 44.125 38.75 44.125 C 42.408516 44.125 45.555158 43.48786 46.8125 42.59375 C 46.842769 42.57163 47.377727 42.17837 47.40625 42.15625 C 47.417892 42.565469 47.40625 43.060266 47.40625 43.34375 C 47.40625 43.38508 47.383732 43.428003 47.375 43.46875 C 47.144488 44.737734 43.369568 45.75 38.75 45.75 C 34.069892 45.75 30.264705 44.699101 30.125 43.40625 C 30.12209 43.382384 30.125 43.368199 30.125 43.34375 C 30.125 43.059684 30.144607 42.420126 30.15625 42.125 z M 30.15625 44.78125 C 30.406554 45.043196 30.693719 45.231372 30.71875 45.25 C 31.96736 46.149931 35.077513 46.78125 38.75 46.78125 C 42.408516 46.78125 45.555158 46.14411 46.8125 45.25 C 46.842769 45.228463 47.377727 44.834038 47.40625 44.8125 C 47.417892 45.221136 47.40625 45.715934 47.40625 46 C 47.40625 46.041329 47.383732 46.084252 47.375 46.125 C 47.144488 47.393984 43.369568 48.40625 38.75 48.40625 C 34.069892 48.40625 30.264705 47.3866 30.125 46.09375 C 30.12209 46.069301 30.125 46.024448 30.125 46 C 30.125 45.715934 30.144607 45.076958 30.15625 44.78125 z M 30.15625 47.46875 C 30.406554 47.730114 30.693719 47.887623 30.71875 47.90625 C 31.96736 48.805599 35.077513 49.4375 38.75 49.4375 C 42.408516 49.4375 45.555158 48.83161 46.8125 47.9375 C 46.842769 47.915962 47.377727 47.490288 47.40625 47.46875 C 47.417892 47.878551 47.40625 48.373348 47.40625 48.65625 C 47.40625 48.697579 47.383732 48.740503 47.375 48.78125 C 47.144488 50.050234 43.369568 51.0625 38.75 51.0625 C 34.069892 51.0625 30.264705 50.042851 30.125 48.75 C 30.12209 48.726134 30.125 48.680698 30.125 48.65625 C 30.125 48.372184 30.144607 47.763876 30.15625 47.46875 z M 30.15625 50.125 C 30.406554 50.386946 30.693719 50.543873 30.71875 50.5625 C 31.96736 51.461849 35.077513 52.125 38.75 52.125 C 42.408516 52.125 45.555158 51.48786 46.8125 50.59375 C 46.842769 50.572212 47.377727 50.147119 47.40625 50.125 C 47.417892 50.534218 47.40625 51.059684 47.40625 51.34375 C 47.40625 51.385662 47.383732 51.396753 47.375 51.4375 C 47.144488 52.706485 43.369568 53.71875 38.75 53.71875 C 34.069892 53.71875 30.264705 52.699101 30.125 51.40625 C 30.12209 51.381802 30.125 51.368199 30.125 51.34375 C 30.125 51.059684 30.144607 50.420126 30.15625 50.125 z M 30.15625 52.78125 C 30.406554 53.042614 30.693719 53.231372 30.71875 53.25 C 31.96736 54.149349 35.077513 54.78125 38.75 54.78125 C 42.408516 54.78125 45.555158 54.144693 46.8125 53.25 C 46.842769 53.229045 47.377727 52.803952 47.40625 52.78125 C 47.417892 53.19105 47.40625 53.715934 47.40625 54 C 47.40625 54.041329 47.383732 54.08367 47.375 54.125 C 47.144488 55.395148 43.369568 56.40625 38.75 56.40625 C 34.069892 56.40625 30.264705 55.35535 30.125 54.0625 C 30.12209 54.038052 30.125 54.024448 30.125 54 C 30.125 53.715934 30.144607 53.07754 30.15625 52.78125 z M 30.15625 55.4375 C 30.406554 55.698865 30.693719 55.888205 30.71875 55.90625 C 31.96736 56.805017 35.077513 57.4375 38.75 57.4375 C 42.408516 57.4375 45.555158 56.799196 46.8125 55.90625 C 46.842769 55.88413 47.377727 55.490288 47.40625 55.46875 C 47.417892 55.877387 47.40625 56.372184 47.40625 56.65625 C 47.40625 56.696998 47.383732 56.740503 47.375 56.78125 C 47.144488 58.051399 43.369568 59.0625 38.75 59.0625 C 34.069892 59.0625 30.264705 58.012765 30.125 56.71875 C 30.12209 56.694884 30.125 56.681281 30.125 56.65625 C 30.125 56.372184 30.144607 55.732044 30.15625 55.4375 z M 57.1875 55.84375 C 61.52564 55.84375 65.0625 56.598296 65.0625 57.53125 C 65.0625 58.464204 61.52564 59.21875 57.1875 59.21875 C 52.84936 59.21875 49.34375 58.464204 49.34375 57.53125 C 49.34375 56.598296 52.84936 55.84375 57.1875 55.84375 z M 30.15625 58.09375 C 30.406554 58.355114 30.693719 58.544455 30.71875 58.5625 C 31.96736 59.463013 35.077513 60.09375 38.75 60.09375 C 42.408516 60.09375 45.555158 59.457192 46.8125 58.5625 C 46.842769 58.539798 47.377727 58.146538 47.40625 58.125 C 47.417892 58.5348 47.40625 59.03018 47.40625 59.3125 C 47.40625 59.354411 47.383732 59.396753 47.375 59.4375 C 47.144488 60.706485 43.369568 61.71875 38.75 61.71875 C 34.069892 61.71875 30.264705 60.666686 30.125 59.375 C 30.12209 59.348805 30.125 59.33753 30.125 59.3125 C 30.125 59.029598 30.144607 58.389458 30.15625 58.09375 z M 48.5625 58.15625 C 48.813387 58.418196 49.098805 58.575123 49.125 58.59375 C 50.373028 59.493681 53.51443 60.125 57.1875 60.125 C 60.846598 60.125 63.96199 59.48786 65.21875 58.59375 C 65.249019 58.572212 65.783395 58.17837 65.8125 58.15625 C 65.824143 58.564886 65.813083 59.059683 65.8125 59.34375 C 65.8125 59.385079 65.820068 59.428003 65.8125 59.46875 C 65.58257 60.738317 61.807069 61.75 57.1875 61.75 C 52.507393 61.75 48.702205 60.730933 48.5625 59.4375 C 48.55959 59.413052 48.5625 59.368198 48.5625 59.34375 C 48.5625 59.059683 48.55144 58.45254 48.5625 58.15625 z M 30.15625 60.75 C 30.406554 61.012528 30.693719 61.199541 30.71875 61.21875 C 31.96736 62.116935 35.077513 62.75 38.75 62.75 C 42.408516 62.75 45.555158 62.113442 46.8125 61.21875 C 46.842769 61.197212 47.377727 60.801624 47.40625 60.78125 C 47.417892 61.190469 47.40625 61.684684 47.40625 61.96875 C 47.40625 62.009497 47.383732 62.053003 47.375 62.09375 C 47.144488 63.363898 43.369568 64.375 38.75 64.375 C 34.069892 64.375 30.264705 63.354186 30.125 62.0625 C 30.12209 62.03747 30.125 61.993781 30.125 61.96875 C 30.125 61.684684 30.144607 61.045708 30.15625 60.75 z M 48.5625 60.8125 C 48.813387 61.073864 49.098805 61.23079 49.125 61.25 C 50.373028 62.149349 53.51443 62.8125 57.1875 62.8125 C 60.846598 62.8125 63.96199 62.17536 65.21875 61.28125 C 65.249019 61.259713 65.783395 60.83462 65.8125 60.8125 C 65.824143 61.221718 65.813083 61.715934 65.8125 62 C 65.8125 62.040747 65.820068 62.084835 65.8125 62.125 C 65.58257 63.394566 61.807069 64.40625 57.1875 64.40625 C 52.507393 64.40625 48.702205 63.385436 48.5625 62.09375 C 48.55959 62.06872 48.5625 62.023866 48.5625 62 C 48.5625 61.715934 48.55144 61.107626 48.5625 60.8125 z M 30.15625 63.4375 C 30.406554 63.698864 30.693719 63.856955 30.71875 63.875 C 31.96736 64.775513 35.077513 65.40625 38.75 65.40625 C 42.408516 65.40625 45.555158 64.799778 46.8125 63.90625 C 46.842769 63.883548 47.377727 63.459038 47.40625 63.4375 C 47.417892 63.846718 47.40625 64.339769 47.40625 64.625 C 47.40625 64.664583 47.383732 64.710417 47.375 64.75 C 47.144488 66.018985 43.369568 67.03125 38.75 67.03125 C 34.069892 67.03125 30.264705 66.012765 30.125 64.71875 C 30.12209 64.694884 30.125 64.648866 30.125 64.625 C 30.125 64.339769 30.144607 63.732044 30.15625 63.4375 z M 48.5625 63.46875 C 48.813387 63.72895 49.098805 63.888787 49.125 63.90625 C 50.373028 64.806181 53.51443 65.46875 57.1875 65.46875 C 60.846598 65.46875 63.96199 64.83161 65.21875 63.9375 C 65.249019 63.91538 65.783395 63.490288 65.8125 63.46875 C 65.824143 63.877387 65.813083 64.404016 65.8125 64.6875 C 65.8125 64.72883 65.820068 64.770589 65.8125 64.8125 C 65.58257 66.081485 61.807069 67.0625 57.1875 67.0625 C 52.507393 67.0625 48.702205 66.043433 48.5625 64.75 C 48.55959 64.725552 48.5625 64.711949 48.5625 64.6875 C 48.5625 64.403434 48.55144 63.763877 48.5625 63.46875 z M 48.5625 66.125 C 48.813387 66.386364 49.098805 66.575123 49.125 66.59375 C 50.373028 67.494264 53.51443 68.125 57.1875 68.125 C 60.846598 68.125 63.96199 67.486696 65.21875 66.59375 C 65.249019 66.571631 65.783395 66.14712 65.8125 66.125 C 65.824143 66.5348 65.813083 67.060266 65.8125 67.34375 C 65.8125 67.385661 65.820068 67.428584 65.8125 67.46875 C 65.58257 68.738316 61.807069 69.75 57.1875 69.75 C 52.507393 69.75 48.702205 68.6991 48.5625 67.40625 C 48.55959 67.382383 48.5625 67.368198 48.5625 67.34375 C 48.5625 67.060266 48.55144 66.420708 48.5625 66.125 z M 48.5625 68.78125 C 48.813387 69.042614 49.098805 69.230208 49.125 69.25 C 50.373028 70.149349 53.51443 70.78125 57.1875 70.78125 C 60.846598 70.78125 63.96199 70.144692 65.21875 69.25 C 65.249019 69.228462 65.783395 68.835784 65.8125 68.8125 C 65.824143 69.222883 65.813083 69.716516 65.8125 70 C 65.8125 70.041912 65.820068 70.084253 65.8125 70.125 C 65.58257 71.394566 61.807069 72.40625 57.1875 72.40625 C 52.507393 72.40625 48.702205 71.355351 48.5625 70.0625 C 48.55959 70.038052 48.5625 70.024448 48.5625 70 C 48.5625 69.716516 48.55144 69.076958 48.5625 68.78125 z "
     id="path4174" /></svg>