<?xml version="1.0" encoding="UTF-8" standalone="no"?>
<!-- Generator: Adobe Illustrator 15.0.2, SVG Export Plug-In . SVG Version: 6.00 Build 0)  -->

<svg
   xmlns:dc="http://purl.org/dc/elements/1.1/"
   xmlns:cc="http://creativecommons.org/ns#"
   xmlns:rdf="http://www.w3.org/1999/02/22-rdf-syntax-ns#"
   xmlns:svg="http://www.w3.org/2000/svg"
   xmlns="http://www.w3.org/2000/svg"
   xmlns:sodipodi="http://sodipodi.sourceforge.net/DTD/sodipodi-0.dtd"
   xmlns:inkscape="http://www.inkscape.org/namespaces/inkscape"
   version="1.1"
   id="Ebene_1"
   x="0px"
   y="0px"
   width="100px"
   height="100px"
   viewBox="0 0 100 100"
   enable-background="new 0 0 100 100"
   xml:space="preserve"
   inkscape:version="0.48.4 r9939"
   sodipodi:docname="rd-order-safety.svg"><metadata
     id="metadata29"><rdf:RDF><cc:Work
         rdf:about=""><dc:format>image/svg+xml</dc:format><dc:type
           rdf:resource="http://purl.org/dc/dcmitype/StillImage" /><dc:title></dc:title></cc:Work></rdf:RDF></metadata><defs
     id="defs27" /><sodipodi:namedview
     pagecolor="#ffffff"
     bordercolor="#666666"
     borderopacity="1"
     objecttolerance="10"
     gridtolerance="10"
     guidetolerance="10"
     inkscape:pageopacity="0"
     inkscape:pageshadow="2"
     inkscape:window-width="1366"
     inkscape:window-height="744"
     id="namedview25"
     showgrid="false"
     inkscape:zoom="3.337544"
     inkscape:cx="55.554898"
     inkscape:cy="42.020966"
     inkscape:window-x="0"
     inkscape:window-y="24"
     inkscape:window-maximized="1"
     inkscape:current-layer="Ebene_1" /><circle
     fill="#B2B2B2"
     cx="50"
     cy="50"
     r="50"
     id="circle3" /><g
     id="g3157"><path
       clip-rule="evenodd"
       d="M 38.972,48.333 38.744,48.39 C 38.744,48.39 38.896,48.47 38.934,48.46 38.972,48.451 38.972,48.333 38.972,48.333 z"
       id="path7"
       inkscape:connector-curvature="0"
       style="fill-rule:evenodd" /><path
       clip-rule="evenodd"
       d="M 38.893,51.589 C 38.837,51.068 39.173,50.581 39.277,50.453 39.381,50.324 39.581,50.308 39.581,50.308 L 39.501,50.148 38.829,49.924 C 38.829,49.924 38.181,52.11 38.493,53.462 38.805,54.816 39.734,54.839 39.734,54.839 L 39.79,54.303 39.926,52.863 C 39.926,52.863 39.429,52.686 39.294,52.574 39.157,52.462 38.949,52.109 38.893,51.589 z"
       id="path9"
       inkscape:connector-curvature="0"
       style="fill-rule:evenodd" /><path
       clip-rule="evenodd"
       d="M 39.943,48.304 C 39.981,48.14 39.962,47.972 39.962,47.972 39.962,47.972 39.912,48.061 39.803,48.092 39.696,48.124 39.405,48.222 39.405,48.222 L 39.26,48.541 39.694,48.687 C 39.693,48.687 39.905,48.469 39.943,48.304 z"
       id="path11"
       inkscape:connector-curvature="0"
       style="fill-rule:evenodd" /><path
       clip-rule="evenodd"
       d="M 49.532,61.019 C 49.532,61.019 49.396,60.483 49.236,59.922 49.076,59.361 48.66,58.401 48.66,58.401 H 48.428 C 48.428,58.401 48.42,58.457 48.42,58.521 48.42,58.585 48.324,58.8 48.324,58.8 48.324,58.8 48.276,58.968 48.316,59.08 48.356,59.193 48.22,59.601 48.22,59.601 L 48.728,60.075 48.575,60.421 C 48.575,60.421 48.698,61.524 48.667,62.034 48.636,62.545 48.31,63.187 48.27,63.238 48.229,63.289 48.31,63.533 48.31,63.533 48.31,63.533 48.658,64.197 48.78,64.625 48.902,65.054 48.841,66.033 48.821,66.126 48.8,66.218 48.739,66.289 48.699,66.401 48.658,66.513 48.719,66.737 48.801,66.788 48.883,66.84 48.862,67.054 48.862,67.084 48.862,67.114 48.883,67.329 48.902,67.36 48.923,67.391 48.882,67.686 48.831,67.757 48.78,67.828 48.841,68.124 48.841,68.124 49.32,67.451 49.661,65.38 49.733,64.877 49.805,64.371 49.773,63.058 49.773,63.058 L 49.725,63.042 49.661,62.435 49.733,62.396 49.573,61.522 49.532,61.019 z"
       id="path13"
       inkscape:connector-curvature="0"
       style="fill-rule:evenodd" /><path
       clip-rule="evenodd"
       d="M 50.574,51.293 50.437,51.156 50.431,50.932 C 50.431,50.932 49.526,50.748 49.145,50 49.145,50 49.091,50.578 49.016,50.66 49.016,50.66 49.247,50.817 49.349,51.388 L 49.995,51.456 50.03,51.768 49.955,51.796 49.934,52.04 50.03,52.019 50.07,51.951 C 50.07,51.951 50.104,51.788 50.213,51.781 50.322,51.774 50.485,51.802 50.485,51.802 L 50.512,51.898 50.579,51.918 V 51.98 H 50.899 V 51.626 H 50.573 V 51.293 z"
       id="path15"
       inkscape:connector-curvature="0"
       style="fill-rule:evenodd" /><path
       clip-rule="evenodd"
       d="M 39.565,50.973 C 39.589,50.933 39.613,50.909 39.613,50.885 39.613,50.861 39.605,50.66 39.509,50.669 39.509,50.669 39.18,51.068 39.189,51.444 39.197,51.821 39.245,52.157 39.397,52.277 39.55,52.397 39.982,52.589 39.982,52.589 L 40.045,52.469 39.573,51.092 C 39.573,51.093 39.542,51.013 39.565,50.973 z"
       id="path17"
       inkscape:connector-curvature="0"
       style="fill-rule:evenodd" /><path
       id="path19"
       d="M 50.90625 9.59375 C 50.085187 9.6126406 49.2085 9.9875 48.71875 10.625 C 48.06575 11.473 48.02175 12.16525 47.96875 12.78125 C 47.91375 13.40025 47.60475 14.084 46.96875 14.625 C 46.33675 15.169 45.78525 15.21 45.53125 15.25 C 45.27525 15.291 44.844 15.52625 44.875 16.15625 C 44.905 16.78725 44.9375 17.59375 44.9375 17.59375 L 44.3125 17.78125 C 44.3125 17.78125 38.2295 17.8535 35.6875 17.9375 C 33.1425 18.0195 31.5215 18.04675 30.4375 18.09375 C 29.3535 18.13975 28.7505 18.30925 28.3125 18.78125 C 27.8755 19.25025 27.647 19.71975 27.625 20.71875 C 27.603 21.71675 27.4605 25.92525 27.4375 27.78125 C 27.4115 29.63825 27.11325 38.338 27.03125 41.75 C 26.94725 45.162 26.7275 52.393 26.6875 54.5 C 26.6465 56.606 26.41075 65.057 26.34375 67.25 C 26.27575 69.444 26.08725 77.7595 26.03125 79.9375 C 25.97525 82.1155 25.89525 83.872 26.03125 84.375 C 26.16525 84.881 26.55775 85.78375 27.59375 86.09375 C 28.50575 86.36475 32.05875 86.1975 35.96875 86.1875 C 39.87875 86.1775 45.4275 86.1925 48.6875 86.1875 C 51.9485 86.1815 58.30975 86.1985 61.96875 86.1875 C 65.62975 86.1735 72.7435 86.11675 74.5625 86.09375 C 76.3835 86.06875 76.611 86.09375 77.25 85.59375 C 77.889 85.09375 78.23525 84.4815 78.15625 82.3125 C 78.07525 80.1405 77.802 73.862 77.75 72.75 C 77.7 71.639 77.22725 59.9465 77.15625 58.4375 C 77.08225 56.9295 76.7875 49.556 76.6875 47.625 C 76.5905 45.69 76.16075 35.15975 76.09375 33.59375 C 76.02575 32.02975 75.60225 22.96475 75.53125 21.46875 C 75.46125 19.97275 75.4735 18.9795 75.3125 18.5625 C 75.1495 18.1455 74.66775 17.5135 73.84375 17.1875 C 73.01775 16.8615 72.57275 16.938 70.34375 17 C 68.11575 17.063 63.375 17.21875 63.375 17.21875 L 58.59375 17.375 C 58.59375 17.375 57.89625 17.248 57.53125 17.125 C 57.38725 16.4 57.301 16.011 57.125 15.5 C 56.947 14.99 56.813 14.89675 56.375 14.84375 C 55.938 14.78875 55.23625 14.68275 54.53125 13.96875 C 53.74125 13.16675 53.8905 11.9105 53.5625 11.3125 C 53.2885 10.8165 52.6635 10.02175 51.6875 9.71875 C 51.44425 9.643 51.179938 9.5874531 50.90625 9.59375 z M 50.96875 11.21875 C 51.43775 11.19975 52.19375 11.69075 52.34375 12.46875 C 52.48575 13.20075 51.987 14.08275 51.125 14.21875 C 50.261 14.35575 49.40075 13.602 49.46875 12.625 C 49.53675 11.646 50.47075 11.23775 50.96875 11.21875 z M 63.125 29.875 C 64.008633 29.854668 64.192711 29.963369 64.78125 30.15625 C 65.370888 30.349133 65.622146 30.557593 65.90625 30.78125 C 66.190353 31.004905 66.34375 31.180614 66.34375 31.3125 C 66.34375 31.444934 66.121994 31.585838 66 31.6875 C 65.878556 31.789162 65.59375 32.03125 65.59375 32.03125 L 65.5 32.09375 L 65.5 32.15625 L 65.5 32.78125 C 65.5 32.831805 65.427536 33.073967 65.46875 33.09375 C 65.509415 33.11463 65.59375 33.1875 65.59375 33.1875 C 65.59375 33.1875 65.624524 33.296199 65.59375 33.46875 C 65.564075 33.6413 65.447392 33.648816 65.4375 33.78125 C 65.427608 33.913136 65.436474 34.0144 65.40625 34.1875 C 65.374927 34.36005 65.342248 34.495095 65.28125 34.71875 C 65.220253 34.941857 65.21875 35.0462 65.21875 35.21875 C 65.21875 35.3913 65.290187 35.617637 65.21875 35.71875 C 65.147861 35.820411 65.070412 36.00198 64.96875 36.09375 C 64.866539 36.184971 64.90625 36.40625 64.90625 36.40625 L 65.28125 36.40625 L 65.5625 37.0625 C 65.5625 37.0625 66.590023 37.588844 67.25 37.8125 C 67.910527 38.036156 68.971359 38.096664 69.5 39.4375 C 70.02919 40.778336 70.375 42.6875 70.375 42.6875 L 70.4375 43.1875 C 70.517731 43.711745 70.53125 44.39908 70.53125 45.125 C 70.53125 45.850919 70.441055 46.564196 70.5625 47.25 C 70.683945 47.935256 69.879761 49.244036 69.71875 49.6875 C 69.55774 50.131515 69.156906 51.065142 68.875 51.34375 C 68.592546 51.626205 68.4375 51.936844 68.4375 52.21875 C 68.4375 52.501753 68.96875 56.543016 68.96875 56.90625 C 68.96875 57.269486 68.25 57.5 68.25 57.5 L 67.71875 60.8125 C 67.71875 60.8125 67.75531 61.42743 67.59375 61.75 C 67.432739 62.073119 67.25 62.69612 67.25 63.46875 C 67.25 64.240829 67.117637 68.576729 67.21875 69.53125 C 67.320411 70.485771 67.521835 72.218902 67.5625 72.625 C 67.603714 73.030547 67.65625 73.40625 67.65625 73.40625 L 67.46875 73.6875 L 67.625 74.03125 C 67.625 74.03125 68.43164 74.579979 68.59375 74.84375 C 68.756408 75.10807 68.939004 75.183548 69 75.46875 C 69.060997 75.753403 69.15625 75.96875 69.15625 75.96875 L 69.28125 76.0625 C 69.28125 76.0625 69.278648 76.385368 69.21875 76.40625 C 69.157754 76.426582 68.601509 76.582282 68.09375 76.5625 C 67.585991 76.542167 66.970649 76.527694 66.625 76.40625 C 66.279899 76.284804 65.834733 75.882363 65.46875 75.78125 C 65.102766 75.680137 64.529748 75.72516 64.46875 75.5625 C 64.408303 75.400391 64.4375 74.941307 64.4375 74.71875 C 64.4375 74.495094 64.21875 74.46875 64.21875 74.46875 C 64.21875 74.46875 64.201974 74.114083 64.34375 74.09375 C 64.485526 74.073419 64.769782 73.923575 64.75 73.78125 C 64.730217 73.638374 64.40625 73.09375 64.40625 73.09375 C 64.40625 73.09375 64.113532 68.680635 64.09375 67.625 C 64.073967 66.568818 64.129355 64.084732 63.90625 63.71875 C 63.681495 63.352768 63.21875 62.5 63.21875 62.5 C 63.21875 62.5 63.163612 59.176583 63.0625 59.15625 C 62.961388 59.135919 62.757912 59.418822 62.65625 59.90625 C 62.554039 60.394227 62.228165 62.50711 62.1875 62.75 C 62.146836 62.993988 61.9375 63.34375 61.9375 63.34375 L 61.84375 64.09375 L 61.40625 65.15625 C 61.40625 65.15625 61.540114 69.297783 61.5 69.96875 C 61.459335 70.639169 61.384415 72.162811 61.34375 72.40625 C 61.302536 72.649689 61.09375 72.907752 61.09375 72.96875 C 61.09375 73.029747 61.15625 73.25 61.15625 73.25 L 60.8125 73.375 L 60.9375 74.0625 C 60.9375 74.0625 61.03125 74.503555 61.03125 74.625 C 61.03125 74.747543 61.09375 74.96875 61.09375 74.96875 C 61.09375 74.96875 61.216697 75.13797 61.15625 75.21875 C 61.095253 75.300629 60.934493 75.459885 60.8125 75.5 C 60.691055 75.540665 60.464241 75.522789 60.28125 75.625 C 60.098808 75.725563 59.514321 76.334885 59.25 76.375 C 58.98568 76.415665 58.168113 76.48703 57.78125 76.40625 C 57.395485 76.324371 56.875 76.09375 56.875 76.09375 C 56.875 76.09375 56.806091 75.481568 56.96875 75.15625 C 57.131959 74.830933 57.526894 74.435044 57.75 74.3125 C 57.973106 74.191057 58.21875 73.90625 58.21875 73.90625 L 58.21875 73.65625 L 57.96875 73.59375 C 57.96875 73.59375 58.241136 68.233467 58.28125 67.5625 C 58.321916 66.892081 58.270332 66.504905 58.25 66.28125 C 58.229668 66.057593 58.345802 65.287109 58.40625 65.125 C 58.467796 64.962891 58.270332 63.119385 58.25 62.46875 C 58.229668 61.817565 58.176583 60.703323 58.15625 60.5 C 58.14361 60.375258 58.006263 60.00897 57.90625 59.6875 L 57.71875 64.78125 C 57.712705 64.952151 57.577152 65.100344 57.40625 65.09375 C 57.235899 65.087705 57.118955 64.920901 57.125 64.75 L 57.375 57.6875 L 57.34375 57.65625 C 57.34375 57.65625 57.354668 55.936241 57.375 55.0625 C 57.376098 55.002602 57.404601 54.934898 57.40625 54.875 C 57.347451 54.779932 57.308103 54.686693 57.3125 54.5625 L 57.40625 51.65625 C 57.412295 51.490843 57.486593 51.349464 57.59375 51.25 L 57.59375 51.15625 C 57.5943 51.141963 57.591552 51.138737 57.59375 51.125 C 57.385481 50.742532 57.128332 50.296338 56.875 49.9375 C 56.387574 49.246199 55.55008 48.150085 55.46875 47.5 C 55.387421 46.849914 55.284805 46.165514 55.40625 45.71875 C 55.528244 45.271989 55.921677 43.46354 56.125 42.875 C 56.328872 42.285912 56.78125 40.951821 56.78125 40.6875 C 56.78125 40.423179 56.76693 39.655144 57.03125 39.1875 C 57.295021 38.719855 57.285912 38.670022 57.875 38.40625 C 58.465188 38.14193 59.387574 37.870491 59.875 37.6875 C 60.362428 37.504508 60.650391 37.373497 60.8125 37.3125 C 60.975159 37.251503 61.4375 36.88141 61.4375 36.71875 C 61.4375 36.556092 61.519379 35.546524 61.4375 35.34375 C 61.356721 35.139877 61.111077 34.75586 60.96875 34.59375 C 60.826423 34.431641 60.844703 34.118988 60.90625 33.875 C 60.96395 33.642003 61.140314 33.635845 61.15625 33.6875 C 61.140314 33.637494 61.09602 33.381812 61.0625 33.28125 C 61.022385 33.159256 60.90625 33.25 60.90625 33.25 L 60.8125 32.375 L 60.71875 32.375 C 60.71875 32.375 60.090744 31.818909 59.96875 31.65625 C 59.847306 31.493592 59.847783 31.443432 60 31.25 C 60.152219 31.057117 60.702053 30.598655 61.28125 30.375 C 61.860447 30.151893 62.241368 29.895333 63.125 29.875 z M 42.875 29.90625 C 43.47975 29.8925 44.0775 30.05975 44.625 30.46875 C 45.672 31.25075 46.49675 33.62725 46.84375 33.90625 C 46.84375 33.90625 46.993 34.057 47 34.125 C 47.007 34.192 46.8785 34.26025 46.6875 34.28125 C 46.790126 34.35284 47.52875 34.633469 48.40625 35.5 C 48.40625 35.5 48.463 35.56725 48.375 35.65625 C 48.287 35.74425 47.8475 36.3015 47.1875 36.4375 C 47.1875 36.4375 47.12275 36.46325 47.21875 36.53125 C 47.31475 36.60025 47.40625 36.77 47.40625 37 C 47.40625 37.231 47.3125 37.28125 47.3125 37.28125 C 47.3125 37.28125 47.23475 37.40075 47.34375 37.46875 C 47.45275 37.53575 47.28125 37.75 47.28125 37.75 L 47.46875 37.96875 C 47.46875 37.96875 47.85975 38.11775 47.96875 38.21875 C 48.07775 38.32175 48.34375 38.5 48.34375 38.5 L 48.71875 38.65625 L 48.75 38.5625 C 48.7645 38.60925 48.7885 38.64625 48.8125 38.65625 C 48.8595 38.67725 49.0485 38.8695 49.0625 38.9375 C 49.0765 39.0055 49.15625 39.21875 49.15625 39.21875 C 49.15625 39.21875 49.125 39.24725 49.125 39.28125 C 49.125 39.31525 49.125 39.375 49.125 39.375 L 49.21875 39.4375 C 49.21875 39.4375 49.50875 38.96425 50.09375 38.78125 C 50.67875 38.59825 52.20725 38.4335 52.90625 39.4375 C 53.12425 39.7495 53.125 39.9375 53.125 39.9375 L 53.125 42.09375 L 53.1875 42.09375 L 53.1875 42.28125 L 53.3125 42.28125 L 53.3125 42.4375 L 53.34375 42.4375 L 53.34375 43.5625 C 53.34375 43.5625 53.25425 43.55 53.28125 43.625 C 53.30725 43.699 53.36275 43.78975 53.34375 43.84375 C 53.32275 43.89875 53.21875 43.90625 53.21875 43.90625 L 53.21875 44.03125 L 53.15625 44.0625 L 53.15625 49.46875 C 53.15625 49.46875 53.1055 50.55325 51.8125 50.90625 L 51.8125 51.15625 L 51.65625 51.28125 L 51.65625 51.625 L 51.34375 51.625 L 51.34375 52.125 L 51.5 52 L 51.6875 52 L 51.75 52.09375 C 51.75 52.09375 51.7945 51.84925 51.9375 51.78125 C 52.0805 51.71425 52.32425 51.7705 52.40625 52.0625 C 52.48725 52.3545 52.399 52.85925 52.125 52.90625 C 51.854 52.95425 51.8125 52.59375 51.8125 52.59375 L 51.6875 52.625 C 51.6875 52.625 51.48875 52.61475 51.46875 52.59375 L 51.4375 52.59375 L 51 52.59375 L 50.90625 52.6875 L 50.59375 52.6875 C 50.59375 52.6875 50.532 52.90625 50.375 52.90625 C 50.218 52.90625 50.09375 52.78125 50.09375 52.78125 L 50.03125 53.09375 C 50.03125 53.09375 49.82125 53.842 49.78125 54.25 C 49.73925 54.659 49.63525 55.8195 49.65625 56.1875 C 49.67625 56.5545 49.65625 57.15625 49.65625 57.15625 C 49.65625 57.15625 50.71725 59.27875 51.03125 61.46875 C 51.34325 63.65775 51.2595 65.386 50.6875 67.25 C 50.1165 69.112 48.46875 71.375 48.46875 71.375 C 48.46875 71.375 48.4785 72.127 48.4375 72.25 C 48.3965 72.371 48.28125 72.65625 48.28125 72.65625 C 48.28125 72.65625 48.63375 72.926 48.59375 73.375 C 48.55275 73.825 48.125 75.375 48.125 75.375 L 48.125 75.625 C 48.125 75.625 47.3675 76.01425 44.0625 75.90625 C 43.7215 75.89525 43.34375 75.875 43.34375 75.875 L 43.34375 76.09375 C 43.34375 76.09375 40.47 76.3385 39 76.3125 C 37.531 76.2855 36.21875 76.15625 36.21875 76.15625 C 36.21875 76.15625 36.0355 75.8375 36.0625 75.6875 C 36.0895 75.5385 36.3605 75.28875 36.6875 75.21875 C 37.0145 75.15175 37.46875 75.09375 37.46875 75.09375 C 37.46875 75.09375 38.392 74.51075 38.5 74.46875 C 38.609 74.42775 38.65625 74.34375 38.65625 74.34375 L 38.875 73.96875 C 38.875 73.96875 38.7415 73.78825 38.6875 73.40625 C 38.6335 73.02625 38.59325 72.7795 38.90625 72.5625 C 39.21925 72.3445 39.28125 72.25 39.28125 72.25 L 39.21875 71.65625 C 39.21875 71.65625 39.27675 71.5185 39.34375 71.4375 C 39.41175 71.3555 39.25 70.1875 39.25 70.1875 C 39.25 70.1875 39.1465 69.729 39.1875 69.375 C 39.2285 69.021 39.21875 68.15625 39.21875 68.15625 C 39.21875 68.15625 39.2715 67.61475 39.3125 67.34375 C 39.3535 67.06975 39.625 66.34375 39.625 66.34375 C 39.625 66.34375 39.35775 66.05625 39.34375 65.90625 C 39.33075 65.75825 39.291 65.25975 39.25 65.21875 C 39.209 65.17775 39.10775 64.80425 39.09375 64.53125 C 39.08075 64.26025 39.1075 62.73625 39.3125 61.90625 C 39.5165 61.07725 39.8125 60.125 39.8125 60.125 L 39.875 59.9375 C 39.875 59.9375 39.8125 59.9225 39.8125 59.8125 C 39.8125 59.7045 39.78975 59.6375 39.84375 59.5625 C 39.89875 59.4885 39.98875 59.3375 39.96875 59.1875 C 39.94875 59.0375 39.9375 58.65625 39.9375 58.65625 L 39.84375 58.5625 C 39.84375 58.5625 39.7505 58.52875 39.8125 58.46875 C 39.8735 58.40675 39.9375 58.40625 39.9375 58.40625 C 39.9375 58.40625 40.006 57.98725 40 57.90625 C 39.993 57.82425 39.96875 57.5625 39.96875 57.5625 C 39.96875 57.5625 39.80925 57.8725 39.78125 58.0625 C 39.75425 58.2515 39.75 58.5625 39.75 58.5625 C 39.75 58.5625 39.45675 58.52725 39.21875 58.40625 C 38.98075 58.28425 38.95575 58.24425 38.96875 58.15625 C 38.98175 58.06825 39.125 57.5625 39.125 57.5625 C 39.125 57.5625 39.28 57.21425 39.375 57.03125 C 39.471 56.84825 39.625 56.6875 39.625 56.6875 C 39.625 56.6875 39.564 56.46825 39.625 56.40625 C 39.687 56.34525 39.71875 56.1875 39.71875 56.1875 C 39.71875 56.1875 39.625 56.07225 39.625 56.03125 C 39.625 55.99025 39.75 55.4375 39.75 55.4375 L 39.71875 55.21875 C 39.71875 55.21875 38.9835 55.132 38.5625 54.5 C 38.1415 53.867 38.0565 52.96375 38.0625 52.34375 C 38.0695 51.72475 38.28125 50.71875 38.28125 50.71875 L 38.5 49.84375 L 37.84375 49.625 L 37.6875 49.6875 C 37.6875 49.6875 37.62075 49.79425 37.59375 49.78125 C 37.56675 49.76725 37.5 49.71875 37.5 49.71875 C 37.5 49.71875 37.3595 49.85775 37.3125 49.84375 C 37.2655 49.82975 37.21875 49.78125 37.21875 49.78125 L 37.09375 49.78125 C 37.09375 49.78125 36.76025 50.34 36.40625 50.375 C 36.05325 50.41 35.597 50.372 35.25 49.875 C 34.903 49.378 34.9375 48.96875 34.9375 48.96875 L 34.75 49.15625 C 34.75 49.15625 34.7055 49.16 34.5625 49.125 C 34.4195 49.09 34.25 49.0625 34.25 49.0625 L 34.21875 49.125 L 33.78125 49.03125 L 33.78125 48.96875 L 33.375 48.84375 L 33.4375 48.53125 L 32.8125 48.28125 C 32.8125 48.28125 32.778 48.40625 32.75 48.40625 C 32.722 48.40625 32.5625 48.34375 32.5625 48.34375 L 32.625 48.03125 L 32.03125 47.8125 C 32.03125 47.8125 31.9485 47.901 31.8125 47.875 C 31.6765 47.848 31.15625 47.65625 31.15625 47.65625 L 30.96875 47.71875 L 30.21875 47.46875 C 30.21875 47.46875 30.15625 47.436 30.15625 47.375 C 30.15625 47.314 30.21875 47.125 30.21875 47.125 C 30.21875 47.125 30.2055 47.05375 30.0625 47.09375 C 29.9195 47.13575 29.625 47.21875 29.625 47.21875 L 29.375 47.25 L 29.5 46.84375 C 29.562 46.65875 29.87775 45.791 29.84375 45.75 C 29.80975 45.709 30.0095 45.8 30.0625 45.875 C 30.1175 45.95 30.306 46.202 30.375 46.25 C 30.442 46.297 30.46875 46.3125 30.46875 46.3125 L 30.53125 46.09375 C 30.53125 46.09375 30.53875 45.986 30.59375 46 C 30.64775 46.013 31.4375 46.21875 31.4375 46.21875 C 31.4375 46.21875 31.459 46.2645 31.5 46.3125 C 31.541 46.3595 32 46.4375 32 46.4375 C 32 46.4375 32.361 46.584 32.375 46.625 C 32.388 46.666 32.6875 46.75 32.6875 46.75 L 32.75 46.625 L 33.03125 46.625 C 33.03125 46.625 33.07275 46.5625 33.09375 46.5625 C 33.11475 46.5625 33.3125 46.625 33.3125 46.625 L 33.3125 46.6875 L 33.4375 46.71875 L 33.4375 46.75 L 33.375 46.75 L 33.375 46.8125 L 33.78125 46.90625 C 33.78125 46.90625 33.87125 46.93325 33.90625 46.90625 C 33.93925 46.87925 33.84375 46.75 33.84375 46.75 C 33.84375 46.75 33.74025 46.6575 33.78125 46.5625 C 33.82225 46.4675 34 46.40625 34 46.40625 C 34 46.40625 34.05275 46.37925 34.09375 46.40625 C 34.13475 46.43325 34.21875 46.46875 34.21875 46.46875 C 34.21875 46.46875 34.22875 46.35775 34.34375 46.34375 C 34.45975 46.33075 34.6875 46.3125 34.6875 46.3125 L 34.90625 46.5 C 34.90625 46.5 35.017 46.44775 35.125 46.46875 C 35.233 46.48975 35.34375 46.5625 35.34375 46.5625 L 35.5 46.78125 C 35.5 46.78125 35.58125 46.75 35.65625 46.75 C 35.73125 46.75 35.78125 46.75 35.78125 46.75 L 36.21875 46.5 L 36.40625 46.5 C 36.40625 46.5 36.4675 46.3795 36.5625 46.3125 C 36.6575 46.2435 36.861 46.048 36.875 46 C 36.889 45.953 37.00425 45.8265 37.03125 45.8125 C 37.05825 45.7985 37.08125 45.595 37.15625 45.5 C 37.23125 45.404 37.28125 45.37075 37.28125 45.34375 C 37.28125 45.31675 37.316 45.1035 37.5 45.0625 L 37.6875 45 L 38.125 44.09375 C 38.125 44.09375 38.08275 43.8345 38.21875 43.5625 C 38.35475 43.2905 38.75 43 38.75 43 C 38.75 43 38.65375 42.87825 38.84375 42.53125 C 39.03375 42.18425 39.3125 41.90625 39.3125 41.90625 C 39.3125 41.90625 39.78275 41.25125 39.84375 41.15625 C 39.90575 41.06125 39.96875 40.84375 39.96875 40.84375 C 39.96875 40.84375 40.12475 40.56375 40.21875 40.46875 C 40.31475 40.37375 40.40625 40.28125 40.40625 40.28125 C 40.40625 40.28125 40.3325 40.284 40.3125 40.25 C 40.2915 40.216 40.28125 40.15625 40.28125 40.15625 C 40.28125 40.15625 40.2075 40.12775 40.1875 40.09375 L 40.15625 40.03125 C 40.15625 40.03125 39.9615 40.37775 39.8125 40.34375 C 39.6625 40.30975 39.5455 40.288 39.0625 39.75 C 38.5795 39.212 38.507 39.11275 38.5 38.96875 C 38.495 38.85175 38.584 38.73875 38.625 38.71875 L 38.75 38.625 L 38.8125 38.59375 C 38.8125 38.59375 38.7985 38.521 38.8125 38.5 C 38.8265 38.48 39.0625 38.3125 39.0625 38.3125 L 39.125 38.3125 L 39.1875 38.25 L 39.46875 38.53125 L 39.625 38.40625 L 39.6875 38.46875 C 39.6875 38.46875 39.737 38.396 39.75 38.375 C 39.763 38.354 39.8695 38.2225 39.9375 38.1875 C 40.0055 38.1525 40.125 38.0625 40.125 38.0625 L 39.96875 38.0625 C 39.96875 38.0625 39.882 38.04375 39.875 37.96875 C 39.868 37.89375 39.90625 37.75 39.90625 37.75 L 39.96875 37.71875 L 39.96875 34.84375 L 39.15625 34.8125 C 39.15625 34.8125 39 34.78975 39 34.71875 C 39 34.64675 39.28125 34.28125 39.28125 34.28125 C 39.28125 34.28125 39.25825 34.2445 39.28125 34.1875 C 39.30425 34.1305 39.34375 34.09375 39.34375 34.09375 C 39.34375 34.09375 39.40075 33.015 39.46875 32.75 C 39.53675 32.484 39.59375 32.5 39.59375 32.5 C 39.59375 32.5 40.10925 30.919 41.15625 30.375 C 41.67975 30.103 42.27025 29.92 42.875 29.90625 z "
       style="fill-rule:evenodd" /><path
       clip-rule="evenodd"
       d="M 44.007,68.221 C 43.956,68.336 43.956,68.617 43.956,68.682 43.956,68.747 43.764,69.489 43.751,69.605 43.738,69.72 43.687,70.562 43.687,70.562 43.687,70.562 43.559,70.707 43.559,70.822 43.559,70.822 43.405,71.847 43.444,71.873 43.482,71.898 43.572,72.117 43.572,72.232 43.572,72.347 43.572,72.859 43.534,72.886 43.495,72.911 43.559,73.167 43.559,73.167 43.559,73.167 43.534,74.089 43.482,74.139 43.431,74.193 43.264,74.474 43.264,74.474 L 43.379,74.96 44.225,74.487 C 44.225,74.487 44.019,74.383 44.122,74.178 44.225,73.973 44.379,73.127 44.379,72.949 44.379,72.768 44.328,72.729 44.275,72.69 44.225,72.652 44.019,72.524 44.006,72.371 43.993,72.217 44.198,71.68 44.262,71.589 44.327,71.499 44.404,71.333 44.404,71.333 L 44.634,70.18 C 44.634,70.18 44.596,69.975 44.634,69.937 44.672,69.899 44.929,69.079 44.903,68.989 44.878,68.899 44.058,67.221 44.058,67.221 44.058,67.221 44.059,68.105 44.007,68.221 z"
       id="path21"
       inkscape:connector-curvature="0"
       style="fill-rule:evenodd" /><path
       clip-rule="evenodd"
       d="M 18.541,46.245 C 19.003,46.17 19.035,45.08 18.905,43.403 18.776,41.728 16.699,34.318 16.699,34.318 L 16.214,31.271 15.552,31.376 C 15.279,29.686 15.114,28.686 15.114,28.686 15.114,28.686 14.278,27.965 12.824,28.193 11.37,28.425 10.799,29.369 10.799,29.369 10.799,29.369 16.71,68.124 18.275,71.993 19.131,74.111 20.431,76.7 20.541,76.919 20.579,76.676 21.018,73.814 21.177,71.533 21.339,69.219 19.447,56.237 17.734,45.158 17.916,45.726 18.25,46.291 18.541,46.245 z M 17.611,44.361 C 17.032,40.625 16.48,37.147 16.042,34.421 L 16.167,34.401 C 16.167,34.401 18.246,41.812 18.377,43.489 18.377,43.489 17.734,43.725 17.62,44.287 17.616,44.309 17.614,44.335 17.611,44.361 z"
       id="path23"
       inkscape:connector-curvature="0"
       style="fill-rule:evenodd" /></g></svg>