<?xml version="1.0" encoding="utf-8"?>
<!-- Generator: Adobe Illustrator 16.0.0, SVG Export Plug-In . SVG Version: 6.00 Build 0)  -->
<!DOCTYPE svg PUBLIC "-//W3C//DTD SVG 1.1//EN" "http://www.w3.org/Graphics/SVG/1.1/DTD/svg11.dtd">
<svg version="1.1" id="Layer_1" xmlns:xml="http://www.w3.org/XML/1998/namespace"
	 xmlns="http://www.w3.org/2000/svg" xmlns:xlink="http://www.w3.org/1999/xlink" x="0px" y="0px" width="100px" height="100px"
	 viewBox="0 0 100 100" enable-background="new 0 0 100 100" xml:space="preserve">
<circle fill="#B2B2B2" cx="50" cy="50" r="50"/>
<path d="M67.7,78.7c0,0,0-0.2-0.3-0.1c-0.3,0.1-2.5,0.7-4.5,0.9s-7.2-0.1-8.2,0.5c-1,0.6-0.6,0.6-1,1.4c-0.4,0.9-2.2,2.7-2.8,2.8
	c-0.6,0.1-1.5,0.2-2,0.2s-1.6,0.2-2.1,0.7c-0.5,0.5-0.4,1.1-0.4,1.1s-1,0.3-1,0.6c-1.2,0.3-1.9,0.5-2.2,0.8
	c-0.3,0.3-0.9,1.9-0.7,2.8c0.2,0.9,0.8,2.6,1.2,2.9c0.3,0.3,1.2,1.2,1.2,0.6c0.3-0.1,0.3-0.4,0.3-0.4s0.2-0.6,0.1-0.7
	c0-0.1,0.3-0.5,0.2-0.7c0.2-0.3,0.2-0.5,0.2-0.6c0.2-0.2,0.2-0.6,0.1-0.7c0.2-0.2,0.2-0.6,0.3-0.6c0.2-0.2,0.1-0.5,0.1-0.5
	s0.3-0.4,0.2-0.5c0.4-0.1,0.6-0.2,0.6-0.3c0.3,0,0.5-0.3,0.5-0.3s0.4-0.1,0.4-0.3c0.3,0,0.6-0.2,0.6-0.2s0.4-0.2,0.5-0.3
	c0.9,0.6,2.2,0.8,3.6,0.7c1.4-0.2,3.4-0.9,3.6-0.9c0.2,0.1,0.8,0.1,0.9,0.1s0.8,0.1,1,0c0.2,0,0.4-0.1,0.4-0.2
	c0-0.1-0.3-0.1-0.2-0.1s1,0,1.2-0.2c0.1-0.1,0.1-0.3,0.1-0.3s0.3-0.1,0.3-0.2c0.1-0.1,0.3-0.3,0.3-0.3c0.3-0.1,0.7-0.6,0.1-0.6
	c-0.5,0-2.8,0.2-3.1,0.1c-0.4-0.1-0.4-0.3-0.6-0.5s-0.4-0.7-0.4-0.8c0-0.2,0.4-0.4,0.4-0.6c0.2-0.1,0.4-0.4,0.4-0.5
	c0.2-0.1,0.3-0.4,0.3-0.4c0.2,0,0.4-0.4,0.4-0.4c0.1-0.1,0.4-0.4,0.4-0.4c0.2-0.1,0.3-0.3,0.3-0.3c0.1,0,0.4-0.4,0.4-0.4
	s0.3-0.2,0.3-0.3c0.2-0.1,0.6-0.4,0.6-0.5c0-0.1,0.3-0.4,0.5-0.4c0.1,0,3.3-0.5,3.9-0.5c0.6-0.1,4-0.9,4.2-1.2
	C68.3,78.4,68.2,78.5,67.7,78.7z"/>
<g>
	<path fill="#231815" d="M88.6,69.3l-0.4-0.9L88,68.5l0.3,0.8l-10.3-1.2l0.2-15.6l0.8-3.1l-0.4-1l-0.9-1.3L77.4,43l0,0.1l0.2-0.1
		l-0.3-0.6l-0.2-2.4h-0.5l0.2,28.5l-4.9-0.1l-0.2-2.9h-0.9L70.5,68l-0.7-0.5l0.2-1.4l-0.9,0.2c0,0,0.1,1.1,0,1.4
		c-0.1,0.3-1,0.3-1,0.3s-0.7-0.5-0.5-2.1c0.2-1.6,0.3-6.8,0.3-6.8l-1-1.2l2.4-6.3l-0.4-0.9l-0.7-0.1l-0.3,1.5l-3,6.1l-11.1,0.6
		l0.8,1.5l-0.8,2.9v0.9l-0.8-2l-0.1-0.7l-1.6-0.3l-0.6,2.7l-0.6-1l-2-0.1l-3.6,0.6l-0.5-1.5L43,62.3l-0.1,1.8c0,0-0.8,1-0.5,2.2
		c0.3,1.2-20.3-2.2-20.3-2.2s-1.2-1.3-1.4-2.8S19.8,61,19.8,61l-0.1,2.3l-8-1l-0.8-1.5l-1.4,1v1.8c0,0,3.3,0.3,6.9,2.3
		c0,0,2.5,1.2,4.1,4c1.6,2.8,1,3.2,1,3.8s-1.3,4.8-1.3,4.8l16.6-1.8l15-1l12.4-1.4H73h9.6l2.4-1.7c0,0,0.5-0.3,1.9-0.4
		c1.4-0.1,3.7-1,3.7-1V70L89,69.3L88.6,69.3z M58.6,62.2H58v-0.5v-0.9h0.6V62.2z M64.3,62.2h-1.3v-2.8h1.3V62.2z M65.8,62.2h-0.9
		v-2.3h0.9V62.2z"/>
	<path fill="#231815" d="M69.7,46.4l-0.1-0.2c-0.3,0.2-0.6,0.4-0.9,0.6l0.1,0.2C69.1,46.8,69.4,46.6,69.7,46.4z"/>
	<path fill="#231815" d="M73.1,44.2L73,44c-0.3,0.2-0.6,0.4-0.9,0.6l0.1,0.2C72.6,44.6,72.9,44.4,73.1,44.2z"/>
	<path fill="#231815" d="M71.4,45.3l-0.1-0.2c-0.3,0.2-0.6,0.4-0.9,0.6l0.1,0.2C70.9,45.7,71.1,45.5,71.4,45.3z"/>
	<path fill="#231815" d="M68,47.5l-0.1-0.2c-0.3,0.2-0.6,0.4-0.9,0.5l0.1,0.2C67.4,47.9,67.7,47.7,68,47.5z"/>
	<path fill="#231815" d="M66.3,48.6l-0.1-0.2c-0.3,0.2-0.6,0.4-0.9,0.5l0.1,0.2C65.7,49,66,48.8,66.3,48.6z"/>
	<path fill="#231815" d="M62.8,50.7l-0.1-0.2c-0.3,0.2-0.6,0.3-0.9,0.5l0.1,0.2C62.2,51.1,62.5,50.9,62.8,50.7z"/>
	<path fill="#231815" d="M61,51.8l-0.1-0.2c-0.3,0.2-0.6,0.3-0.9,0.5l0.1,0.2C60.4,52.1,60.7,52,61,51.8z"/>
	<path fill="#231815" d="M64.5,49.7l-0.1-0.2c-0.3,0.2-0.6,0.4-0.9,0.5l0.1,0.2C63.9,50,64.2,49.9,64.5,49.7z"/>
	<path fill="#231815" d="M74.8,43.1l-0.1-0.2c-0.3,0.2-0.5,0.4-0.8,0.6l0.1,0.2C74.3,43.4,74.6,43.2,74.8,43.1z"/>
	
		<rect x="78.3" y="46.2" transform="matrix(0.3865 0.9223 -0.9223 0.3865 91.0701 -44.3138)" fill="#231815" width="1" height="0.2"/>
	<rect x="81.5" y="53.7" transform="matrix(0.386 0.9225 -0.9225 0.386 99.9958 -42.5921)" fill="#231815" width="1" height="0.2"/>
	
		<rect x="82.3" y="55.6" transform="matrix(0.3869 0.9221 -0.9221 0.3869 102.1297 -42.1798)" fill="#231815" width="1" height="0.2"/>
	
		<rect x="83.1" y="57.5" transform="matrix(0.3857 0.9226 -0.9226 0.3857 104.4729 -41.7259)" fill="#231815" width="1" height="0.2"/>
	<path fill="#231815" d="M76.5,41.9l-0.1-0.2c-0.2,0.1-0.5,0.3-0.8,0.6l0.1,0.2C76,42.2,76.3,42,76.5,41.9z"/>
	
		<rect x="80.7" y="51.8" transform="matrix(0.3857 0.9226 -0.9226 0.3857 97.8115 -43.0141)" fill="#231815" width="1" height="0.2"/>
	
		<rect x="77.5" y="44.3" transform="matrix(0.3857 0.9226 -0.9226 0.3857 88.9296 -44.7327)" fill="#231815" width="1" height="0.2"/>
	<path fill="#231815" d="M59.3,52.8l-0.1-0.2c-0.3,0.2-0.6,0.3-0.9,0.5l0.1,0.2C58.7,53.1,59,53,59.3,52.8z"/>
	
		<rect x="79.1" y="48.1" transform="matrix(0.3859 0.9226 -0.9226 0.3859 93.3533 -43.8761)" fill="#231815" width="1" height="0.2"/>
	<rect x="79.9" y="50" transform="matrix(0.3867 0.9222 -0.9222 0.3867 95.491 -43.46)" fill="#231815" width="1" height="0.2"/>
	
		<rect x="86.6" y="64.6" transform="matrix(0.9202 -0.3916 0.3916 0.9202 -18.574 39.1559)" fill="#231815" width="0.2" height="1"/>
	<path fill="#231815" d="M37,63l-0.1-0.2c-0.3,0.1-0.6,0.2-1,0.3l0.1,0.2C36.4,63.2,36.7,63.1,37,63z"/>
	<path fill="#231815" d="M35.1,63.7L35,63.5c-0.3,0.1-0.6,0.2-1,0.3l0.1,0.2C34.4,63.9,34.8,63.8,35.1,63.7z"/>
	<path fill="#231815" d="M33.1,64.3l-0.1-0.2c-0.3,0.1-0.6,0.2-1,0.3l0.1,0.2C32.5,64.5,32.8,64.4,33.1,64.3z"/>
	<path fill="#231815" d="M40.8,61.6l-0.1-0.2c-0.3,0.1-0.6,0.2-1,0.4l0.1,0.2C40.2,61.8,40.5,61.7,40.8,61.6z"/>
	<path fill="#231815" d="M38.9,62.3l-0.1-0.2c-0.3,0.1-0.6,0.2-1,0.4l0.1,0.2C38.3,62.5,38.6,62.4,38.9,62.3z"/>
	
		<rect x="87.4" y="66.5" transform="matrix(0.9237 -0.3832 0.3832 0.9237 -18.9963 38.6505)" fill="#231815" width="0.2" height="1"/>
	
		<rect x="85.8" y="62.7" transform="matrix(0.9237 -0.3832 0.3832 0.9237 -17.6737 37.7594)" fill="#231815" width="0.2" height="1"/>
	<path fill="#231815" d="M31.2,65l-0.1-0.2c-0.3,0.1-0.7,0.2-1,0.3l0.1,0.2C30.5,65.1,30.9,65.1,31.2,65z"/>
	<rect x="85" y="60.8" transform="matrix(0.9202 -0.3916 0.3916 0.9202 -17.2257 38.2385)" fill="#231815" width="0.2" height="1"/>
	<path fill="#231815" d="M50.2,57.5l-0.1-0.2c-0.3,0.1-0.6,0.3-0.9,0.4l0.1,0.2C49.6,57.8,49.9,57.7,50.2,57.5z"/>
	<path fill="#231815" d="M57.5,53.8l-0.1-0.2c-0.3,0.2-0.6,0.3-0.9,0.5l0.1,0.2C56.9,54.1,57.2,54,57.5,53.8z"/>
	<path fill="#231815" d="M53.9,55.7l-0.1-0.2c-0.3,0.2-0.6,0.3-0.9,0.5l0.1,0.2C53.3,56,53.6,55.9,53.9,55.7z"/>
	<path fill="#231815" d="M52,56.6L52,56.4c-0.3,0.1-0.6,0.3-0.9,0.4l0.1,0.2C51.4,56.9,51.7,56.8,52,56.6z"/>
	<path fill="#231815" d="M55.7,54.8l-0.1-0.2c-0.3,0.2-0.6,0.3-0.9,0.5l0.1,0.2C55.1,55.1,55.4,54.9,55.7,54.8z"/>
	<path fill="#231815" d="M44.6,60l-0.1-0.2c-0.3,0.1-0.6,0.3-0.9,0.4l0.1,0.2C44,60.3,44.3,60.2,44.6,60z"/>
	<path fill="#231815" d="M48.4,58.4l-0.1-0.2c-0.3,0.1-0.6,0.3-0.9,0.4l0.1,0.2C47.7,58.7,48,58.5,48.4,58.4z"/>
	<path fill="#231815" d="M42.7,60.8l-0.1-0.2c-0.3,0.1-0.6,0.3-0.9,0.4l0.1,0.2C42.1,61.1,42.4,60.9,42.7,60.8z"/>
	<path fill="#231815" d="M46.5,59.2L46.4,59c-0.3,0.1-0.6,0.3-0.9,0.4l0.1,0.2C45.9,59.5,46.2,59.3,46.5,59.2z"/>
	<path fill="#231815" d="M95.3,57.9c-0.2-0.2-1.5-1.1-2.1-1.4c-0.6-0.3-2.2-0.8-2.7-0.8c-0.5,0-0.7,0.4-0.9,0.6S88.1,57.9,88,58
		c-0.4,0.3-0.5,0.2-1.1,0.3c-0.3,0.1-0.6,0.4-1,0.3c-0.3-0.1-2.1-0.4-2.6-0.4c-0.5-0.1-0.8,0.1-1,0.5c-0.3,0.5-0.6,1.1-0.6,1.5
		c0,0.4-0.2,1.4,0.1,2.2c0.2,0.5,0.2,0.2,0.2,0.1c0.1,0,0.1-0.2,0.1-0.2s0.2-0.3,0.1-0.4c0.1-0.1,0.2-0.4,0.2-0.4
		c0.1-0.1,0.1-0.3,0.1-0.3s0.1-0.3,0.1-0.4c0.1-0.2,0.1-0.4,0.1-0.4s0.2-0.2,0.2-0.3c0.1-0.1,0.2-0.3,0.2-0.3s0.3-0.3,0.3-0.4
		c0.1,0,0.3-0.1,0.6-0.1l0.3,0.8l0.2-0.1l-0.3-0.8c0.2,0,0.4,0,0.6,0c0.3,0,1.3,0.1,1.3,0.1s0,0.8,0.7,1c0.4,0.2,0.9,0.2,1.2-0.1
		c0.3-0.3,0.5-0.9,0.3-1.2c0.2-0.2,0.7-1,1.1-1.2c0.4-0.2,1.1-0.7,1.3-0.7c0.1,0,0.4,0,0.5,0c0.2,0.1,0.5,0.1,0.6,0.1
		c0.2,0.1,0.4,0.1,0.4,0.1c0.1,0,0.4,0.1,0.4,0.1c0.1,0.1,0.4,0.2,0.4,0.1c0.1,0.1,0.3,0.1,0.3,0.1c0.1,0,0.3,0.1,0.3,0.1
		c0.1,0,0.3,0.1,0.3,0.1c0,0,0.3,0.1,0.3,0.2c0.1,0,0.4,0.2,0.4,0.2C95.3,58.1,95.5,58.1,95.3,57.9z"/>
</g>
<path fill="none" stroke="#000000" stroke-width="0.2" stroke-miterlimit="10" d="M48.3,52.3"/>
<path fill="none" stroke="#000000" stroke-width="0.2" stroke-miterlimit="10" d="M50,30.8"/>
<path d="M34.6,45"/>
<path d="M68.2,10.3c-1-4.5-8-4.3-9.3-1.3c-2.4-0.9-4.3,1.1-4.7,2.2c-1.2-0.3-2.4,0.1-2.6,0.9c-4.6-0.8-7.1,3.4-6,4.8
	c-2,1-1.1,2.7-1.6,3.8c-0.7,0-1.2,0.1-1.2,0.1c0,0.8-0.3,14.5-0.3,14.5c-1.6,0.1-1.3,1.4-1.3,1.4v10c-0.8,0.2-1.5,0.5-1.5,0.5
	c-0.2-0.1-0.5-0.3-0.8-0.3v-2.7L38,41.1l0.1,0l-0.1,0l-2.1-7.8H35v-4.7c-0.2-1.8-0.3-2.1-0.3-2.1c-0.3-0.1-0.5-0.1-0.7-0.1
	c0.1-0.2,0.1-0.5,0.4-0.8c0.4-0.4,1.1,0.1,1.1-0.4c0.3,0.4,0.9,0.2,1-0.3c0.4,1,1.6,0.7,1.7-0.1c0.2,0.5,0.8,0.2,0.8-0.3
	c1.3,0.9,2.8-0.4,2.5-2.2c-0.3-1.8-2.6-1.7-3-0.5c-0.8-0.4-1.4,0.4-1.5,0.9c-0.4-0.1-0.8,0-0.8,0.4c-1.5-0.3-2.3,1.3-1.9,1.9
	c-0.7,0.4-0.3,1.1-0.5,1.5c-0.4,0-0.6,0.2-0.6,0.2c-0.1,2.2-0.3,1.9-0.3,1.9v4.9h-1.4l-0.9,4.8l-0.1,0.3l0,0l0,0.2l0,0l0,0l-0.6,3
	l-0.3-0.1h-6.8v-0.2l-7.7,8.3L14.8,57h7.9h0.1h33v-3.9L54.6,53L54.4,49l0,0l0,0l-0.5-6.5l0,0l0,0l-0.3-4.7l0,0l0,0l-0.3-4l0,0l0,0
	l-0.2-2.9l-0.2,0l0.2,2.6L52.2,32l-0.1,0.1l0-1.5c-0.7-0.1-1.5,0.1-1.5,0.1c0,0.2,0,0.8,0,1.6l-0.1,0l-0.8,1.3l0.2-3.1l-0.2,0
	L49.5,34l0,0l0,0l-0.3,3.9l0,0l0,0l-0.7,10.3l0,0l0,0L48.3,52l-1.8-0.4l-1.3-30.8c-0.1,0-0.2,0-0.3-0.1c0.4-0.5,0.4-1.3,1.2-2
	c1.3-0.9,3.3,0.2,3.3-1c0.9,1.1,2.7,0.4,3.2-0.8c1.3,2.6,5.1,1.9,5.4-0.3c0.5,1.2,2.6,0.5,2.4-0.8C64.5,18,69.2,14.8,68.2,10.3z
	 M32.9,42.3l-2.8-0.6l0.1-0.7l2.6,0.3V42.3z M32.9,41.1l-1.5-0.2l1.5-0.1V41.1z M32.9,40.6l-2.6,0.1l0.4-2.1l2.2,0.7V40.6z
	 M32.9,39.1l-1.5-0.5l1.5-0.2V39.1z M32.9,38.3l-2.2,0.2l0.1-0.4l2.1-1.9V38.3z M32.9,36.1l-2,1.8l0.9-4.1l1.1,1.2V36.1z M32.9,34.6
	l-1.1-1.1h1.1V34.6z M35,33.5h0.8l0,0L35,34.6V33.5z M35,35.1l0.8-1.4l1.3,4.7L35,36V35.1z M35,36.4l2.1,2.4L35,38.1V36.4z M35,38.4
	l1.4,0.4L35,39V38.4z M35,39.2l2.2-0.3l0,0l0.6,2.1L35,40.6V39.2z M35,40.8l1.6,0.2L35,41.3V40.8z M35,41.5l2.8-0.3l0.8,3.1
	l-2.8-0.3v-0.8L35,42.7V41.5z M38.7,46.9c-1.2-0.3-2.8-0.4-2.8-0.4v-1.9l2.8-0.3l0,0V46.9z M54.4,52.9l-1.6-0.2l1.4-3.3L54.4,52.9z
	 M52.6,52.7l-0.2-7.4l1.7,3.8L52.6,52.7z M54.1,48.5l-1.5-3.3h1.3L54.1,48.5z M53.9,44.8h-1.2l1.1-2L53.9,44.8z M52.4,44.8
	L52.4,44.8l-0.1-4.7l1.4,2.3L52.4,44.8z M53.7,42l-1.3-2.1l1-1.9L53.7,42z M52.3,39.7l-0.1-4l1.2,2L52.3,39.7z M53.1,34l0.2,3.3
	l-1-1.8L53.1,34z M53.1,33.6l-0.9,1.7l-0.1-3L53.1,33.6z M50.2,44.5l-1.1-2.2l1.2-2.5C50.3,41.4,50.3,43,50.2,44.5z M50.5,32.5
	c0,0.8,0,1.7-0.1,2.7L49.7,34L50.5,32.5z M49.6,34.3l0.7,1.1l-0.9,1.9L49.6,34.3z M50.5,35.7c0,1.2-0.1,2.4-0.1,3.7l-0.9-1.5
	L50.5,35.7z M49.4,38.2l0.9,1.4l-1.1,2.2L49.4,38.2z M49.1,42.7l1,2.1l0,0.1H49L49.1,42.7z M48.9,45.2h1l-1.2,2.5L48.9,45.2z
	 M50.1,45.2L50.1,45.2c0,3.7-0.1,6.8-0.1,7.1l-1.3-4.1L50.1,45.2z M48.7,48.8l1.1,3.6l-1.3-0.3L48.7,48.8z"/>
<path d="M74,28.6c0,0,2-1,2.8-1.1c0.8-0.1,1.6-0.2,1.6-0.2s0.4,0.6,0.4,1c0.1,0.4,0.3-0.3,0.3-0.3h0.3v0.4l1.1-0.8
	c0,0,0.8-0.1,1,0.3c0.2,0.4-0.1-0.2,1.2,0.7c1.4,0.9-0.2-0.2,1.4,0.9c0,0-1.7-0.2-2.5-0.3c-0.8-0.1-2,0.3-2,0.3H79l-0.7-0.2
	l-1.1-0.9L74,28.6z"/>
</svg>
