<svg xmlns="http://www.w3.org/2000/svg" width="100" height="100"><circle fill="#B2B2B2" cx="49.312" cy="50.769" r="50"/><g fill="#050001"><path d="M49.018 74.419v-45.151c0-.377.308-.684.686-.684.378 0 .684.307.684.684v45.151c0 .378-.306.685-.684.685-.379 0-.686-.307-.686-.685zM49.755 74.485l-9.388-44.165c-.078-.369.157-.733.527-.812.369-.079.732.158.811.528l9.389 44.164c.078.37-.157.732-.526.812-.372.079-.734-.157-.813-.527zM50.489 74.396l-18.365-41.246c-.153-.346.001-.75.347-.903.345-.154.75.002.903.347l18.366 41.246c.152.347-.002.751-.349.904-.344.154-.748-.002-.902-.348zM51.188 74.159l-26.539-36.529c-.223-.305-.155-.734.151-.955.305-.222.733-.155.955.151l26.539 36.527c.223.307.155.735-.15.956-.305.223-.733.156-.956-.15zM51.823 73.779l-33.554-30.211c-.28-.253-.304-.686-.051-.966.253-.281.687-.304.967-.051l33.555 30.211c.28.252.303.686.051.966-.253.282-.687.304-.968.051zM52.366 73.277l-39.103-22.576c-.327-.188-.439-.607-.25-.934.188-.328.607-.44.934-.251l39.103 22.577c.327.188.44.605.251.934-.19.327-.608.44-.935.25zM86.144 50.702l-39.104 22.575c-.327.189-.745.076-.935-.251-.188-.328-.076-.745.25-.934l39.103-22.577c.328-.188.746-.077.936.251.188.328.076.747-.25.936zM81.137 43.568l-33.555 30.211c-.281.253-.714.23-.965-.051-.254-.28-.231-.713.05-.966l33.555-30.211c.28-.253.713-.23.965.051.253.28.23.713-.05.966zM74.756 37.631l-26.538 36.528c-.223.306-.65.373-.957.15-.305-.221-.373-.649-.151-.955l26.54-36.528c.222-.305.648-.373.955-.151.306.222.374.65.151.956zM67.282 33.15l-18.366 41.247c-.152.345-.557.501-.903.347-.345-.153-.499-.558-.346-.903l18.364-41.248c.154-.345.559-.5.903-.347.347.154.502.559.348.904zM59.038 30.321l-9.388 44.165c-.078.369-.442.604-.811.526-.37-.079-.605-.441-.527-.812l9.388-44.163c.078-.37.441-.606.812-.528.37.08.604.443.526.812zM66.61 62.007l21.599-12.118-3.616-6.548-3.42-2.638-2.346-3.616-4.203-2.345-3.324-2.836s-4.005-1.075-4.299-1.075c-.293 0-3.42-2.541-3.42-2.541l-4.594.194-3.909-2.051-4.202.782-4.789-.782-3.519 1.467-4.789-.196-3.225 2.248-4.887.489-2.443 3.127-4.887 1.075-2.541 3.909-4.007 1.856-2.15 5.083-3.225 3.518 22.576 13.292 1.954-2.834 1.271-1.857 2.541-2.052 2.639-1.856 1.271-.49 1.955-.488 1.856-.293 1.662-.586 2.345.293 3.03.391 2.835.978 2.54.978 1.368 1.173 1.857 1.075.978 1.172 1.465 1.466 1.173 1.76.88.876z"/></g></svg>