<svg xmlns="http://www.w3.org/2000/svg" width="100" height="100"><circle fill="#B2B2B2" cx="49.943" cy="48.993" r="50"/><g fill="#231815"><path d="M25.53 50.771c0-14.159 6.804-26.504 16.892-33.065-15.276 3.115-26.772 16.627-26.772 32.825 0 15.811 10.959 29.055 25.691 32.574-9.491-6.722-15.811-18.687-15.811-32.334zM76.329 50.77c0-14.157-6.805-26.502-16.893-33.063 15.279 3.114 26.774 16.626 26.774 32.822 0 15.813-10.959 29.055-25.691 32.574 9.49-6.722 15.81-18.687 15.81-32.333z"/><circle cx="50.611" cy="17.222" r="5.437"/><path d="M42.736 50.036c0 8.115 2.951 15.566 7.875 21.435 4.923-5.869 7.874-13.318 7.874-21.435 0-8.116-2.951-15.565-7.874-21.435-4.923 5.869-7.875 13.32-7.875 21.435zM50.611 42.161c-8.116 0-15.565 2.952-21.436 7.875 5.869 4.923 13.319 7.875 21.436 7.875 8.115 0 15.564-2.951 21.435-7.875-5.87-4.923-13.32-7.875-21.435-7.875z"/></g></svg>