<svg xmlns="http://www.w3.org/2000/svg" width="100" height="100"><circle fill="#B2B2B2" cx="50" cy="49.935" r="50"/><path d="M39.985 67.146c-3.168.004-5.733 2.566-5.733 5.736 0 3.168 2.565 5.732 5.733 5.734 3.168-.002 5.733-2.566 5.733-5.734.001-3.169-2.565-5.736-5.733-5.736zm2.349 9.258l-1.552-2.975.079-.135 3.352-.145c-.067 1.064-.522 2.018-1.231 2.727-.198.198-.414.374-.648.528zm-5.345-.527c-.709-.709-1.164-1.66-1.23-2.723l3.354.143.077.133-1.553 2.979c-.236-.157-.45-.335-.648-.532zm.645-6.522l1.553 2.977-.078.133-3.353.145c.068-1.063.522-2.016 1.232-2.723.199-.199.413-.375.646-.532zm2.351-.71c.675 0 1.313.158 1.879.439l-1.801 2.83-.078-.004-.08.004-1.8-2.83c.567-.281 1.202-.439 1.88-.439zm.55 4.238c0 .301-.247.547-.549.547s-.552-.248-.552-.547c0-.305.249-.553.552-.553s.549.248.549.553zm-.63.965l.08.004.078-.004 1.801 2.83c-.565.281-1.204.439-1.879.439-.677 0-1.311-.158-1.877-.439l1.797-2.83zm.953-1.383l-.076-.137 1.552-2.973c.234.154.45.332.648.529.71.707 1.165 1.66 1.231 2.721l-3.355-.14zM68.155 46.577c-8.849 0-16.02 7.171-16.02 16.021 0 8.846 7.173 16.018 16.02 16.018 8.848 0 16.021-7.172 16.021-16.018.001-8.85-7.173-16.021-16.021-16.021zm13.881 15.155l-.754-.031c-.28-4.179-2.505-7.822-5.787-10.029l.351-.668c3.524 2.344 5.919 6.248 6.19 10.728zm-13.63-2.244l-.25-.014-.25.014-4.995-7.854c1.587-.76 3.365-1.189 5.244-1.189 1.881 0 3.659.427 5.244 1.189l-4.993 7.854zm-2.812 1.34c-.093.137-.175.281-.247.43l-9.3.396c.228-2.98 1.526-5.656 3.518-7.65.528-.527 1.108-1.004 1.723-1.428l4.306 8.252zm-.247 3.104c.072.152.151.297.247.432l-4.307 8.252c-.614-.426-1.193-.902-1.723-1.43-1.991-1.994-3.29-4.668-3.518-7.65l9.301.396zm2.556 1.771l.252.014.251-.014 4.995 7.852c-1.587.764-3.365 1.189-5.245 1.189-1.877 0-3.655-.428-5.242-1.189l4.989-7.852zm2.818-1.34c.094-.139.175-.279.245-.432l9.299-.396c-.227 2.982-1.526 5.656-3.519 7.65-.527.527-1.106 1.004-1.72 1.428l-4.305-8.25zm.245-3.101c-.072-.15-.149-.299-.247-.432l4.308-8.252c.613.424 1.192.9 1.72 1.429 1.992 1.995 3.292 4.67 3.519 7.649l-9.3-.394zm-2.811-12.576c2.228 0 4.33.524 6.199 1.456l-.407.637c-1.746-.858-3.712-1.341-5.792-1.341-2.078 0-4.041.482-5.79 1.339l-.404-.637c1.866-.93 3.97-1.454 6.194-1.454zm-7.688 2.317l.348.667c-3.276 2.208-5.504 5.853-5.784 10.029l-.755.031c.274-4.478 2.667-8.382 6.191-10.727zm-6.192 12.456l.755.029c.28 4.178 2.508 7.822 5.784 10.029l-.348.668c-3.523-2.339-5.916-6.246-6.191-10.726zm13.88 13.047c-2.226 0-4.328-.525-6.194-1.455l.404-.637c1.746.857 3.712 1.342 5.79 1.342 2.08 0 4.045-.484 5.792-1.342l.407.637c-1.869.929-3.971 1.455-6.199 1.455zm7.691-2.318l-.351-.668c3.282-2.205 5.507-5.854 5.787-10.031l.754-.029c-.271 4.479-2.666 8.386-6.19 10.728zM77.429 31.906h-4.381c-.188 0-.338.153-.338.339h-2.53c-1.305 0-2.361 1.057-2.361 2.36v3.373h-2.022v-.301c0-.372-.306-.674-.675-.674h-17.253c-.375 0-.676.303-.676.674v.301h-1.464c-1.304 0-2.36 1.057-2.36 2.359v3.036h-.169v11.296h.169v.677h-1.903c-.46.002-.875.167-1.247.4-.371.236-.702.55-.933.946l-9.196 16.193.439.25-5.229-2.655-.252.248-.952-.482.152-.301-1.955-.994-.153.303-.451-.23-.686 1.355.451.227-.076.152 1.955.988.077-.146.501.252-.126.127 7.519 3.814.077-.152.453.232.686-1.355-.45-.229.15-.301-.935-.473 2.509-4.42.622.316.664-1.309-.56-.285 4.692-8.261h4.158v3.712h-.17v-.844h-.017c-.078-.385-.418-.674-.828-.674-.407 0-.747.287-.825.674h-.019v.844h-1.008v1.348h1.008v6.207l-2.021 1.043c-.56 0-1.013.453-1.013 1.012v.168c0 .557.453 1.01 1.013 1.01l5.564-2.865c.557 0 1.013-.453 1.013-1.01v-.171c0-.555-.456-1.008-1.013-1.008l-1.855.955v-5.34h30.521v.242h2.067c.254 0 .461-.205.461-.457v-.922c0-.252-.207-.459-.461-.459h-2.067v.246h-4.553v-8.6h.335v-11.295h-.335v-8.771c.002-.557.453-1.009 1.01-1.009l2.53-.001v.001c0 .186.15.336.338.336h.169c0-.185.149-.336.337-.336s.335.151.335.336h.171c0-.185.15-.336.338-.336.185 0 .338.151.338.336h.166c0-.185.149-.336.338-.336.187 0 .337.151.337.336h.168c0-.185.153-.336.339-.336.187 0 .336.151.336.336h.169c0-.185.15-.336.34-.336.186 0 .335.151.335.336h.169c.188 0 .34-.15.34-.336v-1.349c-.001-.183-.154-.337-.341-.337zm-34.06 26.813h-3.68l.769-1.354c.09-.157.279-.349.483-.48.206-.133.43-.196.526-.191h1.903v2.026h-.001zm1.348-4.049h6.746v1.541l-.369.484h-6.376v-2.025zm0 8.6v-5.564h7.33l1.319 1.012.777-1.012h3.885l.971 5.564h-14.282zm7.928-7.23v-1.37h4.853l.353 2.025h-4.354l-.852-.655zm5.711-1.37h5.962l.354 2.025h-5.965l-.351-2.025zm1.495 8.6l-.967-5.564h5.963l.971 5.564h-5.967zm7.969 0h-1.145l-.973-5.564h2.117v5.564zm0-6.578h-2.294l-.353-2.023h2.646v2.023zm0-13.318h-23.101v-3.036c.001-.558.454-1.01 1.011-1.01h22.088l.002 4.046z"/></svg>