<svg xmlns="http://www.w3.org/2000/svg" width="100" height="100"><circle fill="#B2B2B2" cx="50" cy="49.935" r="50"/><path d="M57.123 58.604c-2.31.001-4.181 1.871-4.181 4.183 0 2.311 1.87 4.181 4.181 4.182 2.31-.001 4.181-1.871 4.182-4.182-.001-2.312-1.872-4.183-4.182-4.183zm1.713 6.752l-1.132-2.17.057-.098 2.445-.105c-.049.776-.381 1.47-.897 1.987-.145.144-.302.273-.473.386zm-3.898-.385c-.518-.518-.849-1.211-.898-1.987l2.446.105.056.097-1.133 2.171c-.17-.113-.327-.243-.471-.386zm.47-4.757l1.133 2.172-.056.097-2.446.104c.05-.774.381-1.47.898-1.986.145-.144.302-.273.471-.387zm1.715-.519c.492 0 .958.115 1.37.32l-1.313 2.065-.057-.003-.058.003-1.313-2.064c.413-.205.876-.321 1.371-.321zm.401 3.091c0 .221-.18.399-.401.399s-.402-.18-.402-.399c0-.222.181-.402.402-.402s.401.18.401.402zm-.459.705l.058.002.057-.002 1.313 2.063c-.412.206-.878.321-1.37.321-.494 0-.956-.115-1.369-.321l1.311-2.063zm.695-1.009l-.056-.099 1.132-2.169c.171.113.328.242.472.385.518.517.85 1.212.898 1.986l-2.446-.103zM77.668 43.601c-6.453 0-11.683 5.23-11.683 11.684 0 6.451 5.231 11.683 11.683 11.683 6.453 0 11.685-5.231 11.685-11.683 0-6.454-5.232-11.684-11.685-11.684zm10.124 11.053l-.55-.022c-.204-3.048-1.827-5.705-4.22-7.315l.255-.487c2.57 1.709 4.316 4.557 4.515 7.824zm-9.941-1.636l-.182-.01-.182.01-3.643-5.728c1.157-.554 2.454-.867 3.824-.867 1.372 0 2.669.312 3.825.867l-3.642 5.728zm-2.051.977l-.18.313-6.783.29c.166-2.174 1.113-4.125 2.566-5.58.385-.385.808-.733 1.256-1.042l3.141 6.019zm-.18 2.263l.18.315-3.141 6.019c-.448-.311-.87-.658-1.256-1.043-1.453-1.454-2.4-3.405-2.566-5.58l6.783.289zm1.865 1.292l.183.011.183-.011 3.643 5.728c-1.157.556-2.454.866-3.825.866-1.369 0-2.666-.311-3.824-.866l3.64-5.728zm2.054-.977l.179-.315 6.782-.289c-.165 2.175-1.114 4.126-2.566 5.58-.385.385-.807.732-1.255 1.042l-3.14-6.018zm.179-2.262c-.053-.11-.109-.217-.18-.315l3.141-6.018c.448.309.87.657 1.255 1.042 1.452 1.455 2.401 3.406 2.566 5.58l-6.782-.289zm-2.05-9.172c1.625 0 3.158.383 4.521 1.062l-.297.465c-1.273-.626-2.706-.978-4.224-.978-1.516 0-2.948.352-4.222.977l-.296-.465c1.362-.678 2.896-1.061 4.518-1.061zm-5.607 1.69l.254.487c-2.39 1.61-4.015 4.268-4.22 7.314l-.55.023c.2-3.266 1.946-6.114 4.516-7.824zm-4.516 9.084l.55.022c.205 3.048 1.83 5.706 4.22 7.315l-.254.487c-2.57-1.707-4.316-4.556-4.516-7.824zm10.123 9.517c-1.623 0-3.156-.384-4.518-1.062l.296-.464c1.273.625 2.706.979 4.222.979 1.518 0 2.95-.354 4.224-.979l.297.464c-1.363.678-2.896 1.062-4.521 1.062zm5.609-1.692l-.255-.487c2.393-1.609 4.016-4.268 4.22-7.315l.55-.022c-.199 3.267-1.945 6.116-4.515 7.824zM84.432 32.901h-3.196c-.136 0-.246.111-.246.247h-1.845c-.952 0-1.722.771-1.722 1.721v2.46h-1.476v-.219c0-.271-.222-.492-.492-.492h-12.582c-.273 0-.493.221-.493.492v.219h-1.067c-.952 0-1.722.771-1.722 1.721v2.214h-.123v8.239h.123v.493h-1.388c-.336.002-.639.122-.909.292-.271.173-.512.401-.68.69l-6.708 11.81.32.182-3.814-1.936-.184.182-.694-.352.111-.219-1.426-.725-.111.22-.329-.167-.5.988.329.165-.056.11 1.426.722.056-.107.366.184-.092.092 5.484 2.782.056-.11.329.169.5-.989-.328-.167.11-.218-.681-.346 1.829-3.223.454.23.484-.954-.409-.207 3.423-6.025h3.032v2.706h-.123v-.615h-.013c-.057-.281-.304-.491-.603-.491-.297 0-.545.209-.602.491h-.013v.615h-.736v.984h.736v4.527l-1.475.76c-.408 0-.738.33-.738.738v.122c0 .407.33.737.738.737l4.058-2.09c.407 0 .738-.33.738-.737v-.124c0-.405-.331-.736-.738-.736l-1.353.696v-3.894h22.258999999999997v.177h1.509c.185 0 .336-.149.336-.334v-.671c0-.185-.151-.335-.336-.335h-1.509v.179h-3.32v-6.272h.245v-8.239h-.245v-6.396c.001-.406.33-.736.737-.736l1.845-.001v.001c0 .135.11.245.246.245h.124c0-.135.109-.245.245-.245.137 0 .245.11.245.245h.124c0-.135.11-.245.246-.245s.247.11.247.245h.121c0-.135.109-.245.247-.245.136 0 .245.11.245.245h.123c0-.135.111-.245.247-.245s.246.11.246.245h.123c0-.135.109-.245.247-.245.135 0 .245.11.245.245h.122c.138 0 .248-.11.248-.245v-.984c0-.134-.11-.246-.247-.246zm-24.841 19.555h-2.684l.561-.987c.065-.115.203-.254.353-.351.15-.097.313-.143.383-.139h1.388v1.477zm.983-2.952h4.92v1.124l-.269.352h-4.651v-1.476zm0 6.272v-4.059h5.346l.962.738.567-.738h2.833l.708 4.059h-10.416zm5.781-5.273v-.999h3.54l.257 1.476h-3.175l-.622-.477zm4.166-.999h4.349l.258 1.476h-4.35l-.257-1.476zm1.091 6.272l-.706-4.059h4.349l.708 4.059h-4.351zm5.812 0h-.835l-.709-4.059h1.544v4.059zm0-4.797h-1.673l-.257-1.476h1.93v1.476zm0-9.714h-16.849v-2.214c.001-.407.331-.737.737-.737h16.11l.002 2.951zM53.459 19.037c.16-.288-1.189-.673-1.947-1.304-.804-.67-2.692-1.427-4.182-1.669-1.489-.242-8.334.128-10.068.865-1.734.736-6.326 3.345-8.759 6.252-.789.939-1.112 1.813-1.66 3.504 0 0-4.326 8.048-3.685 15.827 0 0-1.008 6.679-1.098 9.975-.091 3.294 1.64 11.071 1.548 11.532-.092.455-.457 1.187-.274 1.463.182.275-.732 10.982-1.098 12.081-.366 1.097-3.662 3.567-4.668 4.117-1.006.549-.458 2.288 1.556 2.196s4.027-1.647 5.309-1.831c1.279-.181 2.013-.822 2.104-1.281.091-.457 0-2.012-.274-2.288-.183-1.555 1.74-6.955 1.648-9.425-.091-2.473.274-4.577.274-4.577s.828-11.987 1.653-11.164c.824.823 4.511 10.219 4.969 11.503.458 1.281.477 3.965 1.905 6.903 1.115 2.289 3.383 5.506 3.476 6.059.091.547.091 1.277.091 1.277s-.274 0-.274.734c0 .731-.349 1.582.475 1.947.824.366 1.08.341 1.904.889.824.549 1.557.915 3.296.915 1.738 0 2.894-.611 1.466-1.567-1.026-.684-3.206-3.282-3.206-3.556l-.366-1.011s-3.529-7.435-3.607-11.163c-.046-2.138-.879-5.61-.879-5.61s-.242-2.529.124-2.803c.366-.275-.106-3.261-.22-4.793-.255-3.418 1.098-8.876 1.006-9.516-.091-.642.439-6.295.439-6.295.426-1.428.059-4.044-.51-4.747-.571-.707-2.566-2.564-3.043-3.258-.479-.696.924-.915.924-.915s1.112-.068 1.577-.111c.463-.042.876-.459.906-.732 1.633-.654 3.93-4.094 2.1-5.945-1.824-2.766-4.613-.762-5.581-.311-.536-.149-1.115.985-1.245 1.341-1.098.803-1.644 2.495-1.644 2.495s-.159.627-.614.579c-.455-.048-1.628-.265-.594-1.35 1.036-1.087 4.989-4.536 6.129-4.877 1.14-.34 7.504-2.241 8.042-.996.262.605 2.296 1.092 2.296 1.092s1.08.828 1.513.515c.433-.312-1.035-1.384-1.035-1.384s.479.239.95.382c.472.142 1.706.479 2.358.608.657.131.972-.336.493-.572zm-16.756 17.988c.55-.639.366.093.366.093s-.184 4.844.366 6.036c-.484 2.891-.549 7.776-.549 7.045 0-.73-.75-6.473-1.244-6.891-.66-.559-.012-5.03 1.061-6.283z"/></svg>