<svg xmlns="http://www.w3.org/2000/svg" width="100" height="100"><circle fill="#B2B2B2" cx="50" cy="50" r="50"/><g fill="#231815"><path d="M56.827 32.205c-.093-.02-.132.035-.132-.167s-.048-2.327-.053-2.418c-.021-.257-.37-.276-.482-.166-.07.071-.018.129-.129.129h-1.203c-.145 0-.424 0-.424-.074.02-.075-.035-.147-.185-.147-.258 0-.184.221-.276.221h-2.88s-.02-.221-.277-.221c-.147 0-.203.073-.186.147 0 .074-.276.074-.425.074h-1.164c-.11 0-.059-.058-.128-.129-.111-.11-.462-.091-.481.166-.006.091-.092 2.216-.092 2.418 0 .203-.037.148-.129.167-.093.019-.147.295.035.295h8.567s.135-.276.044-.295z"/><polygon points="49.829,30.136 49.829,29.103 49.422,29.103 49.422,28.955 48.462,28.955 48.204,28.696 48.204,29.029 46.136,29.029 46.136,26.48 48.167,26.48 48.352,26.666 48.534,26.849 49.569,26.849 49.569,26.518 50.123,26.518 50.123,26.739 55.479,26.739 55.479,30.136"/><path d="M41.39 64.222c-.007-12.646-1.868-16.44-2.649-22.049-.179-1.304-.276-2.688-.276-4.056.001-1.654.14-3.286.456-4.756.317-1.469.798-2.782 1.585-3.796.729-.938 1.599-1.705 2.728-2.177 1.131-.477 2.459-.664 4.159-.664v2.105c-1.551 0-2.586.181-3.341.498-.751.322-1.287.774-1.887 1.536-.488.612-.918 1.661-1.187 2.939-.275 1.278-.409 2.783-.409 4.316 0 1.271.09 2.563.257 3.77.711 5.217 2.674 9.504 2.67 22.338h-2.106v-.004z"/><polygon points="44.063,66.655 43.653,63.853 42.429,63.853 41.203,63.853 40.794,66.655 40.531,66.918 40.531,68.7 42.019,68.7 42.836,68.7 44.326,68.7 44.326,66.918"/><path d="M45.489 57.429h-2.881v3.212h2.051l.221 1.052v.995s-.056.112.388.112l.221-5.371zM50.593 24.088c-.169 0-.237.169-.37.37-.137.202-.27.473-.137.676.137.201.879 1.688.945 1.823.068.136.258.372.496.372.234 0 5.67.101 6.278.101.607 0 1.328.046 2.546.488 1.008.368 2.214.756 2.584.925.371.169.822.476.992.712.169.237.573.776.71.944.136.169.338.237.472.034.136-.203.371-.643-.169-1.35-.539-.71-.843-.879-1.486-1.318-.641-.438-2.429-1.417-2.9-1.654-.475-.236-1.521-.575-2.129-.709-.607-.136-2.094-.101-2.498-.237-.407-.134-.644-.236-.644-.574 0-.336-.135-.605-.473-.605s-3.545-.035-3.883-.035l-.334.037zM50.355 24.662s.27-.844.27-.945c0-.101.068-.136.338-.27.27-.136 7.373-3.322 7.697-3.442 1.081-.406 1.898-.704 2.869-.811 1.217-.136 2.736-.069 3.41-.069.407 0 1.015.203 1.081.643.067.439.338.573-.169.573s-3.072.271-3.646.337c-.057.008-.566.013-1.149.339-1.992 1.114-6.953 3.983-6.953 3.983s-1.554 1.081-2.937.878c-.767-.112-.811-1.216-.811-1.216zM57.564 16.029s-1.441-.056-2.418-.056c-1.09 0-1.938.997-1.938 1.68l-.019 1.274s.035.72.221.942c.185.222 1.589 1.533 1.754 1.719.167.185.238.239.406.146.102-.056.878-.442 1.531-.79v2.728c0 .082.068.147.149.147.083 0 .146-.066.146-.147v-2.884c.295-.162.531-.298.608-.365.258-.222.463-.572.463-.833v-2.75c.004-.497-.57-.811-.903-.811zm-1.669 4.064c-.873 0-1.579-.708-1.579-1.58 0-.871.708-1.579 1.579-1.579.87 0 1.578.708 1.578 1.579 0 .872-.708 1.58-1.578 1.58zM57.254 33.391c-1.072-.579-1.072-.993-1.072-.993h-7.266s0 .414-1.073.993c-1.073.577-2.724 1.568-2.724 4.292v39.397999999999996c0 .494 2.064 2.215 7.43 2.215 5.365 0 7.431-1.721 7.431-2.215v-39.397999999999996s-1.652-3.715-2.726-4.292zm.191 34.758c0 .048-.044.086-.102.086h-9.575c-.056 0-.1-.038-.1-.086v-17.851c0-.051.044-.089.1-.089h9.575c.058 0 .102.039.102.089v17.851z"/></g><path stroke="#231815" stroke-miterlimit="10" d="M59.958 159.059" fill="none"/></svg>