<?xml version="1.0" encoding="utf-8"?>
<!-- Generator: Adobe Illustrator 15.0.0, SVG Export Plug-In . SVG Version: 6.00 Build 0)  -->
<!DOCTYPE svg PUBLIC "-//W3C//DTD SVG 1.1//EN" "http://www.w3.org/Graphics/SVG/1.1/DTD/svg11.dtd">
<svg version="1.1" id="Ebene_1" xmlns="http://www.w3.org/2000/svg" xmlns:xlink="http://www.w3.org/1999/xlink" x="0px" y="0px"
	 width="100px" height="100px" viewBox="0 0 100 100" enable-background="new 0 0 100 100" xml:space="preserve">
<circle fill="#B2B2B2" cx="50" cy="49.935" r="50"/>
<g>
	<path d="M61.587,70.619c-3.519,2.02-7.515,3.09-11.583,3.108c-0.011,0-0.02,0-0.026,0c-3.935-0.003-7.892-0.999-11.559-3.108
		c-0.001,0-0.001,0-0.001,0l0,0c-3.66-2.113-6.516-5.07-8.479-8.481L18.662,68.65c3.074,5.324,7.544,9.947,13.246,13.243
		l3.257-5.636l-1.925,3.326l-1.332,2.31c5.68,3.277,11.928,4.853,18.069,4.85c0.007,0,0.016,0,0.026,0l0,0
		c6.337,0,12.593-1.682,18.093-4.85L61.587,70.619z"/>
	<path d="M50.004,14.358c-6.339,0-12.596,1.684-18.096,4.853c-5.327,3.072-9.949,7.541-13.246,13.246l0,0
		c-3.28,5.681-4.857,11.928-4.853,18.068c0,0.01,0,0.019,0,0.028h13.019c0-0.01-0.001-0.019-0.001-0.028
		c0.004-3.933,0.995-7.894,3.108-11.555c0,0,0,0,0.003,0c2.112-3.659,5.067-6.519,8.479-8.487c3.518-2.017,7.516-3.099,11.586-3.103
		V14.358z"/>
	<path d="M86.195,50.553c0-6.338-1.682-12.594-4.85-18.096c-3.074-5.324-7.543-9.947-13.249-13.246l-6.51,11.278
		c3.665,2.11,6.519,5.064,8.479,8.481c2.027,3.513,3.1,7.517,3.109,11.583c0,0.009,0.002,0.015,0.002,0.026
		c-0.002,3.935-0.993,7.886-3.111,11.559l11.275,6.513l0,0c3.284-5.684,4.854-11.934,4.854-18.071
		C86.196,50.567,86.195,50.562,86.195,50.553z"/>
	<path d="M69.655,74.44c0.044,0.487,0.448,0.723,0.897,0.515l18.886-8.717c0.449-0.209,0.424-0.479-0.052-0.599l-11.357-2.937
		c-0.48-0.123-1.152-0.514-1.501-0.864l-8.22-8.372c-0.344-0.351-0.592-0.236-0.545,0.254L69.655,74.44z"/>
	<path d="M60.864,21.587c0.401-0.281,0.401-0.747,0-1.031L43.868,8.562c-0.405-0.291-0.627-0.133-0.494,0.342l3.14,11.301
		c0.131,0.478,0.131,1.261,0,1.733l-3.14,11.302c-0.133,0.475,0.089,0.629,0.494,0.351L60.864,21.587z"/>
	<path d="M19.491,55.629c-0.449-0.206-0.85,0.023-0.898,0.52l-1.891,20.715c-0.045,0.492,0.201,0.604,0.549,0.256l8.218-8.369
		c0.346-0.356,1.021-0.746,1.498-0.87l11.357-2.931c0.481-0.12,0.502-0.396,0.055-0.602L19.491,55.629z"/>
</g>
</svg>
