<?xml version="1.0" encoding="utf-8"?>
<!-- Generator: Adobe Illustrator 15.0.0, SVG Export Plug-In . SVG Version: 6.00 Build 0)  -->
<!DOCTYPE svg PUBLIC "-//W3C//DTD SVG 1.1//EN" "http://www.w3.org/Graphics/SVG/1.1/DTD/svg11.dtd">
<svg version="1.1" id="Ebene_1" xmlns="http://www.w3.org/2000/svg" xmlns:xlink="http://www.w3.org/1999/xlink" x="0px" y="0px"
	 width="100px" height="100px" viewBox="0 0 100 100" enable-background="new 0 0 100 100" xml:space="preserve">
<circle fill="#B2B2B2" cx="50" cy="50" r="50"/>
<path d="M47.029,31.731c-1.762-1.212-5.836-1.982-7.048-1.982c-1.211,0-2.312-1.872-2.312-3.082c0-0.782,0-1.974,0-2.722
	c0.369-0.131,0.651-0.446,0.883-1.133c0.326-0.99-0.113-2.312-0.663-2.754c-0.551-0.439-2.533-1.76-2.533-1.76v-3.303h8.919
	c0-0.771,0.329-2.422-1.432-3.194c-1.761-0.771-6.387-1.21-6.387-1.981c0-0.881-1.869-1.32-3.082-1.32
	c-1.211,0-3.082,0.439-3.082,1.32c0,0.771-4.625,1.211-6.386,1.981c-1.762,0.772-1.432,2.423-1.432,3.194h8.917v3.303
	c0,0-1.98,1.32-2.531,1.76c-0.551,0.441-0.991,1.764-0.66,2.754c0.25,0.752,0.563,1.061,0.99,1.165c0,0.649,0,1.712,0,2.689
	c0,1.542-1.541,2.53-3.193,2.53c-0.934,0-4.403,0-7.242,0c-0.513-1.941-2.117-5.98-5.309-5.98v9.654v9.656
	c3.366,0,4.968-4.494,5.385-6.281c2.25,0,4.727,0,5.404,0c1.321,0,4.074,1.982,8.369,1.982c4.294,0,6.273-1.322,8.037-1.543
	c1.762-0.221,2.752,1.982,2.752,3.412c0,1.432,0,2.864,0,2.864h6.275c0,0,0.33-3.522,0.33-5.836
	C50,34.814,48.79,32.942,47.029,31.731z"/>
<g>
	<g>
		<g>
			<path fill="none" stroke="#231815" stroke-miterlimit="10" d="M63.468,81.393c-11.91,1.991-22.814-2.286-24.358-9.554
				c-1.542-7.266,6.864-14.771,18.774-16.762c11.905-1.989,22.812,2.289,24.354,9.554C83.778,71.898,75.375,79.403,63.468,81.393z"
				/>
			<path fill="none" stroke="#231815" stroke-miterlimit="10" d="M62.889,78.679c-9.451,1.58-18.108-1.814-19.332-7.584
				c-1.224-5.767,5.45-11.724,14.899-13.303c9.453-1.581,18.109,1.815,19.332,7.582C79.014,71.145,72.343,77.1,62.889,78.679z"/>
			<path fill="none" stroke="#231815" stroke-miterlimit="10" d="M62.323,76.007c-7.032,1.176-13.475-1.351-14.385-5.645
				c-0.911-4.291,4.056-8.724,11.085-9.897c7.034-1.176,13.476,1.351,14.386,5.641C74.321,70.397,69.357,74.832,62.323,76.007z"/>
			<path fill="none" stroke="#231815" stroke-miterlimit="10" d="M61.75,73.299c-4.583,0.765-8.782-0.88-9.377-3.677
				c-0.593-2.797,2.644-5.685,7.229-6.45c4.58-0.766,8.773,0.88,9.367,3.676C69.563,69.645,66.331,72.532,61.75,73.299z"/>
			<path fill="#231815" stroke="#231815" stroke-miterlimit="10" d="M60.961,69.593c-1.227,0.205-2.353-0.237-2.511-0.986
				s0.707-1.522,1.934-1.729c1.231-0.205,2.354,0.236,2.515,0.984C63.058,68.613,62.19,69.387,60.961,69.593z"/>
		</g>
		<g>
			<line fill="none" stroke="#231815" stroke-miterlimit="10" x1="58.4" y1="68.701" x2="39.264" y2="71.899"/>
			<line fill="none" stroke="#231815" stroke-miterlimit="10" x1="62.915" y1="67.946" x2="82.389" y2="64.691"/>
			<line fill="none" stroke="#231815" stroke-miterlimit="10" x1="60.429" y1="67.084" x2="57.828" y2="54.83"/>
			<line fill="none" stroke="#231815" stroke-miterlimit="10" x1="60.961" y1="69.593" x2="63.465" y2="81.393"/>
		</g>
		<g>
			<line fill="none" stroke="#231815" stroke-miterlimit="10" x1="59.392" y1="69.496" x2="47.613" y2="80.015"/>
			<line fill="none" stroke="#231815" stroke-miterlimit="10" x1="62.172" y1="67.016" x2="74.156" y2="56.312"/>
			<line fill="none" stroke="#231815" stroke-miterlimit="10" x1="59.188" y1="67.605" x2="43.152" y2="61.313"/>
			<line fill="none" stroke="#231815" stroke-miterlimit="10" x1="62.47" y1="68.892" x2="77.918" y2="74.951"/>
		</g>
	</g>
	<path fill="none" stroke="#231815" stroke-miterlimit="10" d="M63.823,82.747c-13.256,2.217-25.394-2.545-27.11-10.635
		c-1.717-8.089,7.637-16.442,20.894-18.657C70.863,51.238,83.001,56,84.719,64.09S77.079,80.532,63.823,82.747z"/>
</g>
</svg>
