<svg xmlns="http://www.w3.org/2000/svg" width="100" height="100"><circle fill="#B2B2B2" cx="50" cy="50" r="50"/><path d="M77.186 60.771c-1.762-1.211-5.836-1.981-7.049-1.981-1.211 0-2.312-1.872-2.312-3.082v-2.723c.369-.131.651-.445.884-1.133.325-.989-.113-2.312-.663-2.754-.552-.438-2.534-1.76-2.534-1.76v-3.303h8.92c0-.771.328-2.422-1.433-3.194-1.761-.771-6.387-1.21-6.387-1.981 0-.881-1.869-1.32-3.082-1.32-1.211 0-3.082.439-3.082 1.32 0 .771-4.625 1.211-6.386 1.981-1.762.772-1.432 2.423-1.432 3.194h8.917v3.303s-1.98 1.32-2.531 1.76c-.551.441-.991 1.765-.66 2.754.25.752.563 1.062.989 1.166v2.688c0 1.542-1.541 2.529-3.192 2.529h-7.242c-.513-1.94-2.117-5.979-5.309-5.979v19.308999999999997c3.366 0 4.968-4.493 5.385-6.28h5.403c1.321 0 4.075 1.981 8.369 1.981 4.295 0 6.273-1.321 8.037-1.543 1.762-.221 2.752 1.982 2.752 3.412v2.864h6.275s.33-3.522.33-5.836c.003-2.308-1.207-4.181-2.967-5.392zM27.526 26.632c-.415-.81-1.404-3.378-1.46-3.59-.081-.3-.121-.5-.22-.5-.061 0-.141.2-.221.5-.056.212-1.044 2.781-1.46 3.59-.414.81-1.295 2.116-1.252 3.994.047 2.093 1.836 3.059 2.934 3.088 1.349.037 2.948-.995 2.932-3.088-.015-1.878-.839-3.184-1.253-3.994zM19.796 32.031c-.452-.882-1.53-3.68-1.591-3.911-.087-.326-.131-.544-.24-.544-.066 0-.153.218-.241.544-.061.231-1.137 3.029-1.59 3.911-.451.882-1.411 2.304-1.364 4.35.051 2.28 2 3.332 3.195 3.364 1.469.041 3.211-1.083 3.193-3.364-.014-2.046-.91-3.468-1.362-4.35zM27.15 42.077c-.453-.882-1.53-3.681-1.592-3.912-.087-.326-.131-.544-.239-.544-.066 0-.153.218-.241.544-.061.231-1.137 3.029-1.59 3.912-.451.88-1.412 2.303-1.364 4.35.05 2.279 2 3.331 3.194 3.363 1.469.042 3.211-1.083 3.193-3.363-.013-2.047-.909-3.47-1.361-4.35zM34.885 33.202c-.452-.882-1.53-3.68-1.591-3.911-.088-.326-.131-.544-.24-.544-.065 0-.152.218-.24.544-.061.231-1.137 3.029-1.59 3.911-.452.882-1.411 2.304-1.364 4.35.051 2.28 1.999 3.331 3.194 3.364 1.47.04 3.212-1.084 3.193-3.364-.015-2.046-.911-3.469-1.362-4.35zM34.428 15.553c-.453-.882-1.531-3.681-1.592-3.911-.088-.326-.131-.545-.24-.545-.066 0-.152.219-.24.545-.061.23-1.137 3.029-1.59 3.911-.451.88-1.412 2.304-1.363 4.35.05 2.278 1.999 3.331 3.193 3.362 1.47.043 3.212-1.082 3.193-3.362-.013-2.046-.91-3.47-1.361-4.35z"/></svg>