<?xml version="1.0" encoding="utf-8"?>
<!-- Generator: Adobe Illustrator 15.0.2, SVG Export Plug-In . SVG Version: 6.00 Build 0)  -->
<!DOCTYPE svg PUBLIC "-//W3C//DTD SVG 1.1//EN" "http://www.w3.org/Graphics/SVG/1.1/DTD/svg11.dtd">
<svg version="1.1" id="Ebene_1" xmlns="http://www.w3.org/2000/svg" xmlns:xlink="http://www.w3.org/1999/xlink" x="0px" y="0px"
	 width="100px" height="100px" viewBox="0 0 100 100" enable-background="new 0 0 100 100" xml:space="preserve">
<circle fill="#B2B2B2" cx="50" cy="50" r="50"/>
<path d="M78.489,24.124c0-0.875-0.595-2.535-1.147-3.705l-1.9-4.028c-0.764-1.616-2.801-2.882-4.636-2.882H54.322
	c-1.865,0-3.855,1.319-4.53,3.002l-0.644,1.604c-0.802-1.04-2.17-1.771-3.471-1.771H29.194c-1.62,0-3.415,1.113-4.085,2.534
	l-1.252,2.652c-0.528,0.189-1.01,0.492-1.396,0.898c-0.658,0.693-0.994,1.601-0.946,2.555l0.64,12.503
	c-0.022,0.139-0.037,0.27-0.037,0.377c0,0.544,0.059,1.964,0.134,3.241c-0.082,0.329-0.134,0.624-0.134,0.84
	c0,0.446,0.04,1.486,0.095,2.55c-0.061,0.269-0.095,0.505-0.095,0.69c0,0.57,0.065,2.11,0.145,3.432l2.007,33.408
	c0.098,1.636,1.558,2.968,3.254,2.968h45.278c1.699,0,3.148-1.335,3.233-2.975l1.841-36.005c0.018-0.331-0.025-0.653-0.117-0.96
	l0.117-2.281c0.02-0.373-0.035-0.736-0.153-1.078l0.153-3.003c0.02-0.356-0.032-0.704-0.139-1.031l0.604-10.066
	C78.424,26.26,78.489,24.705,78.489,24.124z M76.581,40.239c-0.492-0.322-1.082-0.503-1.692-0.503H53.814
	c-1.134,0-2.434-0.851-2.837-1.859l-1.334-3.32c-0.589-1.47-2.332-2.622-3.966-2.622H29.194c-1.62,0-3.415,1.113-4.085,2.535
	l-1.77,3.75c-0.004-0.144-0.005-0.266-0.005-0.358c0-0.361,0.37-1.649,0.973-2.927l1.901-4.027c0.47-0.997,1.838-1.838,2.987-1.838
	h16.483c1.135,0,2.435,0.851,2.839,1.859l1.333,3.32c0.589,1.47,2.331,2.622,3.966,2.622h21.074c0.52,0,0.99,0.196,1.328,0.552
	c0.312,0.328,0.47,0.756,0.447,1.207L76.581,40.239z M24.307,39.017l1.901-4.027c0.47-0.997,1.838-1.838,2.987-1.838h16.483
	c1.135,0,2.435,0.852,2.839,1.859l1.056,2.63c-0.648-1.393-2.32-2.464-3.895-2.464H29.194c-1.62,0-3.415,1.113-4.085,2.534
	l-1.594,3.377C23.681,40.52,23.952,39.769,24.307,39.017z M53.814,40.951h21.074c0.52,0,0.99,0.196,1.328,0.552
	c0.118,0.125,0.206,0.266,0.279,0.415l-0.016,0.284l0.123,0.006c0.043,0.162,0.068,0.329,0.061,0.501l-0.041,0.795
	c-0.501-0.339-1.107-0.528-1.734-0.528H53.814c-1.134,0-2.434-0.852-2.837-1.859l-1.057-2.629
	C50.568,39.881,52.24,40.951,53.814,40.951z M26.208,19.397c0.47-0.997,1.838-1.838,2.987-1.838h16.483
	c1.135,0,2.435,0.851,2.839,1.859l0.055,0.136l-0.112,0.278c-0.31,0.772-1.394,1.477-2.274,1.477h-20.88L26.208,19.397z
	 M74.822,81.956c-0.051,0.985-0.976,1.819-2.02,1.819H27.524c-1.047,0-1.982-0.835-2.042-1.824l-2.006-33.408
	c-0.072-1.191-0.134-2.605-0.142-3.231l0.142-0.009c-0.014-0.225-0.027-0.457-0.04-0.69c0.148-0.583,0.451-1.469,0.87-2.357
	l1.901-4.027c0.47-0.997,1.838-1.838,2.987-1.838h16.483c1.135,0,2.435,0.851,2.839,1.859l1.333,3.32
	c0.589,1.47,2.331,2.622,3.966,2.622h21.074c0.52,0,0.99,0.196,1.328,0.552c0.139,0.146,0.242,0.314,0.318,0.494l-0.055,1.046
	l0.166,0.009L74.822,81.956z"/>
</svg>
