<svg xmlns="http://www.w3.org/2000/svg" width="100" height="100"><circle fill="#B2B2B2" cx="50" cy="50" r="50"/><path d="M67.7 78.7s0-.2-.3-.1-2.5.7-4.5.9-7.2-.1-8.2.5c-1 .6-.6.6-1 1.4-.4.9-2.2 2.7-2.8 2.8-.6.1-1.5.2-2 .2s-1.6.2-2.1.7c-.5.5-.4 1.1-.4 1.1s-1 .3-1 .6c-1.2.3-1.9.5-2.2.8-.3.3-.9 1.9-.7 2.8.2.9.8 2.6 1.2 2.9.3.3 1.2 1.2 1.2.6.3-.1.3-.4.3-.4s.2-.6.1-.7c0-.1.3-.5.2-.7.2-.3.2-.5.2-.6.2-.2.2-.6.1-.7.2-.2.2-.6.3-.6.2-.2.1-.5.1-.5s.3-.4.2-.5c.4-.1.6-.2.6-.3.3 0 .5-.3.5-.3s.4-.1.4-.3c.3 0 .6-.2.6-.2s.4-.2.5-.3c.9.6 2.2.8 3.6.7 1.4-.2 3.4-.9 3.6-.9.2.1.8.1.9.1s.8.1 1 0c.2 0 .4-.1.4-.2s-.3-.1-.2-.1 1 0 1.2-.2c.1-.1.1-.3.1-.3s.3-.1.3-.2l.3-.3c.3-.1.7-.6.1-.6-.5 0-2.8.2-3.1.1-.4-.1-.4-.3-.6-.5s-.4-.7-.4-.8l.4-.6c.2-.1.4-.4.4-.5.2-.1.3-.4.3-.4.2 0 .4-.4.4-.4l.4-.4c.2-.1.3-.3.3-.3.1 0 .4-.4.4-.4s.3-.2.3-.3c.2-.1.6-.4.6-.5 0-.1.3-.4.5-.4.1 0 3.3-.5 3.9-.5.6-.1 4-.9 4.2-1.2 0-.3-.1-.2-.6 0z"/><g fill="#231815"><path d="M88.6 69.3l-.4-.9-.2.1.3.8-10.3-1.2.2-15.6.8-3.1-.4-1-.9-1.3-.3-4.1v.1l.2-.1-.3-.6-.2-2.4h-.5l.2 28.5-4.9-.1-.2-2.9h-.9l-.3 2.5-.7-.5.2-1.4-.9.2s.1 1.1 0 1.4c-.1.3-1 .3-1 .3s-.7-.5-.5-2.1c.2-1.6.3-6.8.3-6.8l-1-1.2 2.4-6.3-.4-.9-.7-.1-.3 1.5-3 6.1-11.1.6.8 1.5-.8 2.9v.9l-.8-2-.1-.7-1.6-.3-.6 2.7-.6-1-2-.1-3.6.6-.5-1.5-1 .5-.1 1.8s-.8 1-.5 2.2c.3 1.2-20.3-2.2-20.3-2.2s-1.2-1.3-1.4-2.8l-.9-.3-.1 2.3-8-1-.8-1.5-1.4 1v1.8s3.3.3 6.9 2.3c0 0 2.5 1.2 4.1 4 1.6 2.8 1 3.2 1 3.8l-1.3 4.8 16.6-1.8 15-1 12.4-1.4h18.4l2.4-1.7s.5-.3 1.9-.4c1.4-.1 3.7-1 3.7-1v-1.2l-1.6-.7h-.4zm-30-7.1h-.6v-1.4h.6v1.4zm5.7 0h-1.3v-2.8h1.3v2.8zm1.5 0h-.9v-2.3h.9v2.3zM69.7 46.4l-.1-.2-.9.6.1.2.9-.6zM73.1 44.2l-.1-.2-.9.6.1.2c.4-.2.7-.4.9-.6zM71.4 45.3l-.1-.2-.9.6.1.2c.4-.2.6-.4.9-.6zM68 47.5l-.1-.2c-.3.2-.6.4-.9.5l.1.2c.3-.1.6-.3.9-.5zM66.3 48.6l-.1-.2c-.3.2-.6.4-.9.5l.1.2c.3-.1.6-.3.9-.5zM62.8 50.7l-.1-.2-.9.5.1.2c.3-.1.6-.3.9-.5zM61 51.8l-.1-.2-.9.5.1.2.9-.5zM64.5 49.7l-.1-.2c-.3.2-.6.4-.9.5l.1.2.9-.5zM74.8 43.1l-.1-.2-.8.6.1.2c.3-.3.6-.5.8-.6z"/><rect x="78.3" y="46.2" transform="matrix(.387 .922 -.922 .387 91.07 -44.314)" width="1" height=".2"/><rect x="81.5" y="53.7" transform="matrix(.386 .922 -.922 .386 99.996 -42.592)" width="1" height=".2"/><rect x="82.3" y="55.6" transform="matrix(.387 .922 -.922 .387 102.13 -42.18)" width="1" height=".2"/><rect x="83.1" y="57.5" transform="matrix(.386 .923 -.923 .386 104.473 -41.726)" width="1" height=".2"/><path d="M76.5 41.9l-.1-.2c-.2.1-.5.3-.8.6l.1.2c.3-.3.6-.5.8-.6z"/><rect x="80.7" y="51.8" transform="matrix(.386 .923 -.923 .386 97.811 -43.014)" width="1" height=".2"/><rect x="77.5" y="44.3" transform="matrix(.386 .923 -.923 .386 88.93 -44.733)" width="1" height=".2"/><path d="M59.3 52.8l-.1-.2-.9.5.1.2.9-.5z"/><rect x="79.1" y="48.1" transform="matrix(.386 .923 -.923 .386 93.353 -43.876)" width="1" height=".2"/><rect x="79.9" y="50" transform="matrix(.387 .922 -.922 .387 95.491 -43.46)" width="1" height=".2"/><rect x="86.6" y="64.6" transform="matrix(.92 -.392 .392 .92 -18.574 39.156)" width=".2" height="1"/><path d="M37 63l-.1-.2c-.3.1-.6.2-1 .3l.1.2c.4-.1.7-.2 1-.3zM35.1 63.7l-.1-.2c-.3.1-.6.2-1 .3l.1.2 1-.3zM33.1 64.3l-.1-.2c-.3.1-.6.2-1 .3l.1.2c.4-.1.7-.2 1-.3zM40.8 61.6l-.1-.2c-.3.1-.6.2-1 .4l.1.2c.4-.2.7-.3 1-.4zM38.9 62.3l-.1-.2c-.3.1-.6.2-1 .4l.1.2c.4-.2.7-.3 1-.4z"/><rect x="87.4" y="66.5" transform="matrix(.924 -.383 .383 .924 -18.996 38.651)" width=".2" height="1"/><rect x="85.8" y="62.7" transform="matrix(.924 -.383 .383 .924 -17.674 37.759)" width=".2" height="1"/><path d="M31.2 65l-.1-.2-1 .3.1.2c.3-.2.7-.2 1-.3z"/><rect x="85" y="60.8" transform="matrix(.92 -.392 .392 .92 -17.226 38.239)" width=".2" height="1"/><path d="M50.2 57.5l-.1-.2-.9.4.1.2c.3-.1.6-.2.9-.4zM57.5 53.8l-.1-.2-.9.5.1.2.9-.5zM53.9 55.7l-.1-.2-.9.5.1.2.9-.5zM52 56.6v-.2l-.9.4.1.2c.2-.1.5-.2.8-.4zM55.7 54.8l-.1-.2-.9.5.1.2c.3-.2.6-.4.9-.5zM44.6 60l-.1-.2-.9.4.1.2c.3-.1.6-.2.9-.4zM48.4 58.4l-.1-.2-.9.4.1.2c.2-.1.5-.3.9-.4zM42.7 60.8l-.1-.2-.9.4.1.2.9-.4zM46.5 59.2l-.1-.2-.9.4.1.2.9-.4zM95.3 57.9c-.2-.2-1.5-1.1-2.1-1.4-.6-.3-2.2-.8-2.7-.8s-.7.4-.9.6-1.5 1.6-1.6 1.7c-.4.3-.5.2-1.1.3-.3.1-.6.4-1 .3-.3-.1-2.1-.4-2.6-.4-.5-.1-.8.1-1 .5-.3.5-.6 1.1-.6 1.5 0 .4-.2 1.4.1 2.2.2.5.2.2.2.1.1 0 .1-.2.1-.2s.2-.3.1-.4c.1-.1.2-.4.2-.4.1-.1.1-.3.1-.3s.1-.3.1-.4c.1-.2.1-.4.1-.4s.2-.2.2-.3c.1-.1.2-.3.2-.3s.3-.3.3-.4c.1 0 .3-.1.6-.1l.3.8.2-.1-.3-.8h.6c.3 0 1.3.1 1.3.1s0 .8.7 1c.4.2.9.2 1.2-.1.3-.3.5-.9.3-1.2.2-.2.7-1 1.1-1.2.4-.2 1.1-.7 1.3-.7h.5c.2.1.5.1.6.1.2.1.4.1.4.1.1 0 .4.1.4.1.1.1.4.2.4.1.1.1.3.1.3.1.1 0 .3.1.3.1.1 0 .3.1.3.1s.3.1.3.2c.1 0 .4.2.4.2.7-.1.9-.1.7-.3z"/></g><path stroke="#000" stroke-width=".2" stroke-miterlimit="10" d="M48.3 52.3" fill="none"/><path stroke="#000" stroke-width=".2" stroke-miterlimit="10" d="M50 30.8" fill="none"/><path d="M34.6 45"/><path d="M68.2 10.3c-1-4.5-8-4.3-9.3-1.3-2.4-.9-4.3 1.1-4.7 2.2-1.2-.3-2.4.1-2.6.9-4.6-.8-7.1 3.4-6 4.8-2 1-1.1 2.7-1.6 3.8-.7 0-1.2.1-1.2.1 0 .8-.3 14.5-.3 14.5-1.6.1-1.3 1.4-1.3 1.4v10c-.8.2-1.5.5-1.5.5-.2-.1-.5-.3-.8-.3v-2.7l-.9-3.1h0l-2.1-7.8h-.9v-4.7c-.2-1.8-.3-2.1-.3-2.1-.3-.1-.5-.1-.7-.1.1-.2.1-.5.4-.8.4-.4 1.1.1 1.1-.4.3.4.9.2 1-.3.4 1 1.6.7 1.7-.1.2.5.8.2.8-.3 1.3.9 2.8-.4 2.5-2.2-.3-1.8-2.6-1.7-3-.5-.8-.4-1.4.4-1.5.9-.4-.1-.8 0-.8.4-1.5-.3-2.3 1.3-1.9 1.9-.7.4-.3 1.1-.5 1.5-.4 0-.6.2-.6.2-.1 2.2-.3 1.9-.3 1.9v4.9h-1.4l-.9 4.8-.1.3v.2l-.6 3-.3-.1h-6.8v-.2l-7.7 8.3-.3 7.2h41v-3.9l-1.2-.1-.2-4-.5-6.5-.3-4.7-.3-4-.2-2.9h-.2l.2 2.6-.9-1.5-.1.1v-1.5c-.7-.1-1.5.1-1.5.1v1.6h-.1l-.8 1.3.2-3.1h-.2l-.2 3.5-.3 3.9-.7 10.3-.2 3.8-1.8-.4-1.3-30.8c-.1 0-.2 0-.3-.1.4-.5.4-1.3 1.2-2 1.3-.9 3.3.2 3.3-1 .9 1.1 2.7.4 3.2-.8 1.3 2.6 5.1 1.9 5.4-.3.5 1.2 2.6.5 2.4-.8 4.1 2.2 8.8-1 7.8-5.5zm-35.3 32l-2.8-.6.1-.7 2.6.3v1zm0-1.2l-1.5-.2 1.5-.1v.3zm0-.5l-2.6.1.4-2.1 2.2.7v1.3zm0-1.5l-1.5-.5 1.5-.2v.7zm0-.8l-2.2.2.1-.4 2.1-1.9v2.1zm0-2.2l-2 1.8.9-4.1 1.1 1.2v1.1zm0-1.5l-1.1-1.1h1.1v1.1zm2.1-1.1h.8l-.8 1.1v-1.1zm0 1.6l.8-1.4 1.3 4.7-2.1-2.4v-.9zm0 1.3l2.1 2.4-2.1-.7v-1.7zm0 2l1.4.4-1.4.2v-.6zm0 .8l2.2-.3.6 2.1-2.8-.4v-1.4zm0 1.6l1.6.2-1.6.3v-.5zm0 .7l2.8-.3.8 3.1-2.8-.3v-.8l-.8-.5v-1.2zm3.7 5.4c-1.2-.3-2.8-.4-2.8-.4v-1.9l2.8-.3v2.6zm15.7 6l-1.6-.2 1.4-3.3.2 3.5zm-1.8-.2l-.2-7.4 1.7 3.8-1.5 3.6zm1.5-4.2l-1.5-3.3h1.3l.2 3.3zm-.2-3.7h-1.2l1.1-2 .1 2zm-1.5 0l-.1-4.7 1.4 2.3-1.3 2.4zm1.3-2.8l-1.3-2.1 1-1.9.3 4zm-1.4-2.3l-.1-4 1.2 2-1.1 2zm.8-5.7l.2 3.3-1-1.8.8-1.5zm0-.4l-.9 1.7-.1-3 1 1.3zm-2.9 10.9l-1.1-2.2 1.2-2.5c0 1.6 0 3.2-.1 4.7zm.3-12c0 .8 0 1.7-.1 2.7l-.7-1.2.8-1.5zm-.9 1.8l.7 1.1-.9 1.9.2-3zm.9 1.4c0 1.2-.1 2.4-.1 3.7l-.9-1.5 1-2.2zm-1.1 2.5l.9 1.4-1.1 2.2.2-3.6zm-.3 4.5l1 2.1v.1h-1.1l.1-2.2zm-.2 2.5h1l-1.2 2.5.2-2.5zm1.2 0c0 3.7-.1 6.8-.1 7.1l-1.3-4.1 1.4-3zm-1.4 3.6l1.1 3.6-1.3-.3.2-3.3zM74 28.6s2-1 2.8-1.1l1.6-.2s.4.6.4 1c.1.4.3-.3.3-.3h.3v.4l1.1-.8s.8-.1 1 .3c.2.4-.1-.2 1.2.7l1.4.9s-1.7-.2-2.5-.3c-.8-.1-2 .3-2 .3h-.6l-.7-.2-1.1-.9-3.2.2z"/></svg>