<svg xmlns="http://www.w3.org/2000/svg" width="100" height="100"><circle fill="#B2B2B2" cx="50" cy="50" r="50"/><circle cx="51.351" cy="5" r=".774"/><circle cx="76.087" cy="19.202" r=".774"/><circle cx="53.032" cy="31.69" r=".774"/><circle cx="65.436" cy="43.166" r=".774"/><circle cx="86.552" cy="28.992" r=".774"/><circle cx="9.3" cy="39.037" r=".774"/><circle cx="47.822" cy="36.117" r=".774"/><circle cx="41.329" cy="13.893" r=".774"/><circle cx="60.09" cy="14.274" r=".774"/><circle cx="12.821" cy="49.968" r=".774"/><circle cx="31.923" cy="59.544" r=".774"/><circle cx="92.084" cy="42.828" r=".774"/><circle cx="12.469" cy="63.396" r=".774"/><circle cx="39.142" cy="45.482" r=".774"/><circle cx="50.618" cy="89.758" r=".773"/><circle cx="69.624" cy="93.104" r=".774"/><circle cx="68.5" cy="78.726" r=".774"/><circle cx="36.488" cy="93.104" r=".774"/><circle cx="26" cy="83.274" r=".774"/><path d="M33.809 38.539c-.081 0-.159-.04-.206-.108l-3.117-4.522-5.25 1.604c-.095.03-.198 0-.263-.076-.064-.075-.079-.181-.036-.271l2.36-4.958-4.015-3.747c-.073-.067-.098-.171-.065-.265.032-.093.117-.159.216-.167l5.471-.438 1.234-5.347c.022-.097.1-.171.197-.189.097-.018.196.022.252.104l3.12 4.522 5.25-1.605c.097-.029.198.001.263.076.064.075.079.181.036.271l-2.359 4.958 4.019 3.746c.073.068.098.172.065.266-.032.093-.117.159-.216.167l-5.476.436-1.235 5.352c-.022.097-.1.171-.197.189l-.048.002zm-3.221-5.173c.081 0 .158.039.206.108l2.899 4.206 1.149-4.978c.024-.106.115-.185.224-.193l5.092-.405-3.738-3.484c-.08-.075-.102-.192-.055-.291l2.194-4.612-4.882 1.493c-.105.032-.217-.007-.279-.097l-2.901-4.206-1.147 4.973c-.024.106-.115.185-.224.193l-5.089.408 3.734 3.485c.08.074.102.192.055.29l-2.195 4.611 4.883-1.491.074-.01zM20.623 23.254c-.129 0-.238-.099-.249-.23-.011-.138.091-.258.229-.269l5.476-.44 1.236-5.346c.031-.135.169-.218.3-.188.135.031.219.166.188.3l-1.277 5.524c-.024.106-.115.184-.224.193l-5.658.455-.021.001zM32.097 29.544c-.07 0-.14-.029-.189-.087l-14.231-16.498c-.09-.104-.079-.262.026-.353.104-.089.262-.078.353.026l14.231 16.498c.09.104.079.262-.026.353l-.164.061zM20.251 20.137c-.129 0-.238-.099-.249-.23-.011-.138.091-.258.229-.269l3.305-.267.748-3.23c.032-.134.169-.217.3-.188.135.031.219.166.188.3l-.789 3.408c-.024.106-.115.184-.224.193l-3.487.281-.021.002zM20.3 15.869l-.043-.004-2.624-.462c-.136-.024-.227-.153-.203-.29.024-.136.157-.227.29-.203l2.322.409-.064-2.357c-.004-.138.105-.253.243-.257h.007c.135 0 .246.107.25.243l.073 2.663c.002.075-.03.147-.087.196-.047.041-.105.062-.164.062zM20.915 36.336l-.107-.024c-.125-.059-.178-.208-.119-.333l2.352-4.962-4.013-3.747c-.101-.094-.106-.252-.012-.353s.253-.105.353-.012l4.147 3.871c.08.074.102.191.056.29l-2.43 5.127c-.044.09-.134.143-.227.143zM10.693 33.618c-.118 0-.222-.083-.245-.203-.026-.136.063-.267.199-.292l21.403-4.074c.138-.026.267.063.292.199s-.063.267-.199.292l-21.403 4.074-.047.004zM18.026 35.095l-.107-.024c-.125-.059-.178-.208-.118-.333l1.424-2.994-2.423-2.259c-.101-.094-.106-.252-.012-.353.094-.1.252-.106.353-.012l2.557 2.384c.08.074.102.191.055.29l-1.503 3.159c-.043.089-.133.142-.226.142zM12.64 34.961l-.161-.059c-.105-.089-.119-.247-.03-.353l1.519-1.804-2.074-1.123c-.121-.065-.167-.217-.101-.339.065-.122.218-.165.339-.101l2.344 1.269c.066.036.112.099.126.173.014.074-.006.15-.054.208l-1.716 2.039c-.05.06-.121.09-.192.09zM32.383 42.623c-.079 0-.157-.038-.206-.108l-3.117-4.522-5.246 1.605c-.132.04-.271-.035-.313-.166-.04-.132.034-.272.166-.313l5.421-1.659c.106-.032.217.008.279.097l3.221 4.673c.078.114.049.27-.064.348l-.141.045zM24.926 50.115l-.083-.014c-.13-.045-.199-.188-.153-.318l7.171-20.571c.045-.13.188-.2.318-.153.13.045.199.188.153.318l-7.171 20.571c-.035.102-.132.167-.235.167zM29.871 44.505c-.079 0-.157-.038-.206-.108l-1.882-2.731-3.167.97c-.133.039-.272-.035-.313-.166-.04-.132.034-.272.166-.313l3.342-1.023c.104-.032.217.007.279.097l1.986 2.882c.078.114.049.27-.064.348l-.141.044zM27.061 49.099c-.102 0-.198-.063-.235-.165l-.805-2.215-2.011 1.236c-.116.072-.271.036-.344-.082-.072-.118-.036-.271.082-.344l2.272-1.397c.063-.039.143-.049.213-.023.071.024.127.08.152.15l.909 2.503c.047.13-.02.273-.149.32l-.084.017zM36.636 41.813l-.056-.006c-.135-.031-.219-.166-.188-.3l1.277-5.524c.024-.106.115-.184.224-.193l5.65-.456c.142-.009.258.091.269.229.011.138-.091.258-.229.269l-5.468.441-1.235 5.346c-.027.116-.13.194-.244.194zM46.325 46.039c-.07 0-.14-.029-.189-.087l-14.228-16.495c-.09-.104-.079-.262.026-.353.104-.089.262-.078.353.026l14.228 16.495c.09.104.079.262-.026.353l-.164.061zM39.665 42.639l-.056-.006c-.135-.031-.218-.166-.188-.3l.786-3.407c.024-.106.115-.184.224-.193l3.486-.28c.136-.006.258.091.269.229.011.138-.091.258-.229.269l-3.303.265-.745 3.229c-.027.116-.13.194-.244.194zM43.965 45.881c-.135 0-.246-.107-.25-.243l-.072-2.664c-.002-.075.03-.147.087-.196.057-.049.134-.068.207-.057l2.622.464c.136.024.227.154.203.29-.024.137-.155.227-.29.203l-2.32-.411.063 2.357c.003.138-.105.253-.243.257h-.007zM44.991 31.747c-.061 0-.123-.022-.17-.067l-4.146-3.869c-.08-.074-.102-.191-.055-.29l2.434-5.123c.059-.125.209-.178.333-.118.125.059.178.208.118.333l-2.355 4.958 4.012 3.745c.101.094.106.252.012.353-.049.051-.116.078-.183.078zM32.097 29.544c-.118 0-.222-.083-.245-.203-.026-.136.063-.267.199-.292l21.4-4.078c.136-.024.267.063.292.199.026.136-.063.267-.198.292l-21.4 4.078-.048.004zM47.221 29.537c-.061 0-.123-.022-.17-.067l-2.558-2.388c-.08-.074-.102-.191-.055-.29l1.501-3.157c.059-.125.209-.177.333-.118.125.059.178.208.118.333l-1.422 2.991 2.424 2.264c.101.094.106.252.012.353-.05.052-.116.079-.183.079zM52.182 27.435l-.119-.03-2.346-1.268c-.066-.036-.113-.099-.127-.173s.006-.15.054-.208l1.712-2.043c.09-.105.246-.119.352-.031.106.088.12.246.031.352l-1.515 1.808 2.077 1.123c.122.065.167.217.101.338-.047.085-.132.132-.22.132zM35.029 21.135c-.081 0-.158-.039-.206-.108l-3.221-4.672c-.078-.114-.049-.27.064-.348.113-.078.269-.05.348.064l3.117 4.522 5.247-1.604c.134-.04.271.035.313.166.04.132-.034.272-.166.313l-5.422 1.657-.074.01zM32.097 29.544l-.082-.014c-.131-.045-.2-.188-.154-.318l7.169-20.571c.045-.13.19-.2.318-.153.131.045.2.188.154.318l-7.169 20.571c-.036.102-.132.167-.236.167zM36.309 17.465c-.081 0-.158-.039-.206-.108l-1.987-2.88c-.079-.114-.05-.27.063-.348.113-.079.269-.051.348.063l1.883 2.729 3.167-.972c.133-.042.272.033.312.166.041.132-.033.271-.166.312l-3.342 1.026-.072.012zM38.041 12.49l-.083-.014c-.071-.024-.126-.08-.152-.15l-.913-2.506c-.047-.129.02-.273.149-.32.131-.047.273.02.32.149l.808 2.218 2.011-1.234c.119-.072.272-.035.344.082.072.118.036.271-.082.344l-2.272 1.395-.13.036zM89.736 64.955l2.781 6.412 2.297-.034-.217-14.751-2.771.041-.014-.963-.439.007-.307-.765.266-.004-.098-6.604-.365.006-.158-10.774v-.034c-.006-.128.025-.308.049-.345l.049-.007 1.982-.029-.023-1.539-1.98.029c-.377.005-.703.176-.941.495-.395.531-.393 1.267-.385 1.466l.158 10.756-.678.01.098 6.604.162-.003-.283.774-.545.008.014.963-.199.003-.813-2.17-3.123.046-3.443-23.478.488 2.139.553-.188-.6-2.61.186-.003-.047-3.207-9.436.139-.008-.467-.447.007-.029-2.034-.004-.202c-.02-1.377-.836-2.481-1.822-2.467-.984.015-1.771 1.142-1.752 2.519l.004.202.029 2.034-.445.007.008.467-10.85.159.047 3.165-.752 1.923-.002-.201-.627.009.074 5.067.627-.009-.055-3.667 1.182-3.014-.117-.07 1.23-.018-2.395 20.497-1.703.025-.713-2.735-3.12.045.019 1.3-6.603.003-2.269 1.134-9.66.143.006.439-3.247.049-.005-.109-1.013-.48-.876 5.789-.306 1.38-.223.003.058 3.906.759 1.803-1.517 4.369-1.545.023-.739-1.365-.732.011-5.044-6.913-2.234.746.727 2.686-3.02 12.586-1.327 1.217c.138-.479.217-.997.221-1.542 1.099-.699 1.848-2.228 1.821-3.993-.015-1.016-.285-1.943-.722-2.68.416-.746.658-1.682.643-2.697-.035-2.404-1.49-4.33-3.25-4.305-.262.004-.513.055-.754.139l.004-.127c-.021-1.414-.878-2.549-1.912-2.533-.615.01-1.153.424-1.486 1.053-.938-.473-2.158-.479-3.398.035 1.24 6.08 3.578 11.754 6.796 16.809l1.896-.029-.005.005.053.439 10.288-2.69 1.875-.139 5.922-5.093 2.904-8.001 1.982-.028.007.44 3.956-.059c-.722 1.494-1.126 3.168-1.1 4.939.09 6.077 5.089 10.933 11.167 10.844 6.079-.09 10.932-5.09 10.844-11.168-.07-4.756-3.154-8.752-7.402-10.227l5.092-.075 4.035 15.206 5.473-.139 1.572-7.008c-.123.686-.186 1.393-.176 2.115.09 6.076 5.088 10.932 11.166 10.842 6.078-.089 10.934-5.089 10.844-11.166-.012-.517-.068-1.023-.143-1.519zm-65.373 6.454l-1.098.519.173-1.112.387-.995 1.095-.016-.557 1.604zm7.232-15.456l-1.889 2.227-.732.012-.017-1.154-.245-1.097-.115-3.244 3.225-.048.007.441 5.663-.082-5.897 2.945zm2.79 4.929l-.663.01.656-.445.007.435zm16.023-5.831l-1.851.027-.42 1.004-.032-.002c-3.487.052-6.566 1.725-8.545 4.286l-5.175.076 9.768-6.624 6.236-.092.019 1.325zm8.629-3.891l-.766-9.396 1.303-10.709 8.822-.129.295 20.094-9.654.14zm9.152 12.867l1.855-8.265 6.277.171c-4.016.954-7.161 4.102-8.132 8.094zm12.231-14.037l-8.961.133-.287-19.58 7.363-.108 2.752 16.893-.867 2.662zm1.603 6.1l3.908.106 1.586 3.649c-1.388-1.763-3.294-3.099-5.494-3.755z"/></svg>