<?xml version="1.0" encoding="utf-8"?>
<!-- Generator: Adobe Illustrator 16.2.0, SVG Export Plug-In . SVG Version: 6.00 Build 0)  -->
<!DOCTYPE svg PUBLIC "-//W3C//DTD SVG 1.1//EN" "http://www.w3.org/Graphics/SVG/1.1/DTD/svg11.dtd">
<svg version="1.1" id="Ebene_1" xmlns="http://www.w3.org/2000/svg" xmlns:xlink="http://www.w3.org/1999/xlink" x="0px" y="0px"
	 width="100px" height="100px" viewBox="0 0 100 100" enable-background="new 0 0 100 100" xml:space="preserve">
<circle fill="#B2B2B2" cx="50" cy="50" r="50"/>
<g>
	<circle cx="51.351" cy="5" r="0.774"/>
	<circle cx="76.087" cy="19.202" r="0.774"/>
	<circle cx="53.032" cy="31.69" r="0.774"/>
	<circle cx="65.436" cy="43.166" r="0.774"/>
	<circle cx="86.552" cy="28.992" r="0.774"/>
	<circle cx="9.3" cy="39.037" r="0.774"/>
	<circle cx="47.822" cy="36.117" r="0.774"/>
	<circle cx="41.329" cy="13.893" r="0.774"/>
	<circle cx="60.09" cy="14.274" r="0.774"/>
	<circle cx="12.821" cy="49.968" r="0.774"/>
	<circle cx="31.923" cy="59.544" r="0.774"/>
	<circle cx="92.084" cy="42.828" r="0.774"/>
	<circle cx="12.469" cy="63.396" r="0.774"/>
	<circle cx="39.142" cy="45.482" r="0.774"/>
	<circle cx="50.618" cy="89.758" r="0.773"/>
	<circle cx="69.624" cy="93.104" r="0.774"/>
	<circle cx="68.5" cy="78.726" r="0.774"/>
	<circle cx="36.488" cy="93.104" r="0.774"/>
	<circle cx="26" cy="83.274" r="0.774"/>
</g>
<g>
	<path d="M33.809,38.539c-0.081,0-0.159-0.04-0.206-0.108l-3.117-4.522l-5.25,1.604c-0.095,0.03-0.198,0-0.263-0.076
		c-0.064-0.075-0.079-0.181-0.036-0.271l2.36-4.958l-4.015-3.747c-0.073-0.067-0.098-0.171-0.065-0.265
		c0.032-0.093,0.117-0.159,0.216-0.167l5.471-0.438l1.234-5.347c0.022-0.097,0.1-0.171,0.197-0.189
		c0.097-0.018,0.196,0.022,0.252,0.104l3.12,4.522l5.25-1.605c0.097-0.029,0.198,0.001,0.263,0.076
		c0.064,0.075,0.079,0.181,0.036,0.271l-2.359,4.958l4.019,3.746c0.073,0.068,0.098,0.172,0.065,0.266
		c-0.032,0.093-0.117,0.159-0.216,0.167l-5.476,0.436l-1.235,5.352c-0.022,0.097-0.1,0.171-0.197,0.189
		C33.84,38.538,33.825,38.539,33.809,38.539z M30.588,33.366c0.081,0,0.158,0.039,0.206,0.108l2.899,4.206l1.149-4.978
		c0.024-0.106,0.115-0.185,0.224-0.193l5.092-0.405l-3.738-3.484c-0.08-0.075-0.102-0.192-0.055-0.291l2.194-4.612l-4.882,1.493
		c-0.105,0.032-0.217-0.007-0.279-0.097l-2.901-4.206l-1.147,4.973c-0.024,0.106-0.115,0.185-0.224,0.193l-5.089,0.408l3.734,3.485
		c0.08,0.074,0.102,0.192,0.055,0.29l-2.195,4.611l4.883-1.491C30.539,33.37,30.563,33.366,30.588,33.366z"/>
	<g>
		<path d="M20.623,23.254c-0.129,0-0.238-0.099-0.249-0.23c-0.011-0.138,0.091-0.258,0.229-0.269l5.476-0.44l1.236-5.346
			c0.031-0.135,0.169-0.218,0.3-0.188c0.135,0.031,0.219,0.166,0.188,0.3l-1.277,5.524c-0.024,0.106-0.115,0.184-0.224,0.193
			l-5.658,0.455C20.636,23.253,20.629,23.254,20.623,23.254z"/>
		<path d="M32.097,29.544c-0.07,0-0.14-0.029-0.189-0.087L17.677,12.959c-0.09-0.104-0.079-0.262,0.026-0.353
			c0.104-0.089,0.262-0.078,0.353,0.026l14.231,16.498c0.09,0.104,0.079,0.262-0.026,0.353
			C32.213,29.524,32.155,29.544,32.097,29.544z"/>
		<path d="M20.251,20.137c-0.129,0-0.238-0.099-0.249-0.23c-0.011-0.138,0.091-0.258,0.229-0.269l3.305-0.267l0.748-3.23
			c0.032-0.134,0.169-0.217,0.3-0.188c0.135,0.031,0.219,0.166,0.188,0.3l-0.789,3.408c-0.024,0.106-0.115,0.184-0.224,0.193
			l-3.487,0.281C20.265,20.137,20.258,20.137,20.251,20.137z"/>
		<path d="M20.3,15.869c-0.015,0-0.029-0.001-0.043-0.004l-2.624-0.462c-0.136-0.024-0.227-0.153-0.203-0.29
			c0.024-0.136,0.157-0.227,0.29-0.203l2.322,0.409l-0.064-2.357c-0.004-0.138,0.105-0.253,0.243-0.257c0.002,0,0.005,0,0.007,0
			c0.135,0,0.246,0.107,0.25,0.243l0.073,2.663c0.002,0.075-0.03,0.147-0.087,0.196C20.417,15.848,20.359,15.869,20.3,15.869z"/>
	</g>
	<g>
		<path d="M20.915,36.336c-0.036,0-0.072-0.008-0.107-0.024c-0.125-0.059-0.178-0.208-0.119-0.333l2.352-4.962l-4.013-3.747
			c-0.101-0.094-0.106-0.252-0.012-0.353s0.253-0.105,0.353-0.012l4.147,3.871c0.08,0.074,0.102,0.191,0.056,0.29l-2.43,5.127
			C21.098,36.283,21.008,36.336,20.915,36.336z"/>
		<path d="M10.693,33.618c-0.118,0-0.222-0.083-0.245-0.203c-0.026-0.136,0.063-0.267,0.199-0.292l21.403-4.074
			c0.138-0.026,0.267,0.063,0.292,0.199s-0.063,0.267-0.199,0.292l-21.403,4.074C10.725,33.617,10.709,33.618,10.693,33.618z"/>
		<path d="M18.026,35.095c-0.036,0-0.073-0.008-0.107-0.024c-0.125-0.059-0.178-0.208-0.118-0.333l1.424-2.994l-2.423-2.259
			c-0.101-0.094-0.106-0.252-0.012-0.353c0.094-0.1,0.252-0.106,0.353-0.012l2.557,2.384c0.08,0.074,0.102,0.191,0.055,0.29
			l-1.503,3.159C18.209,35.042,18.119,35.095,18.026,35.095z"/>
		<path d="M12.64,34.961c-0.057,0-0.114-0.019-0.161-0.059c-0.105-0.089-0.119-0.247-0.03-0.353l1.519-1.804l-2.074-1.123
			c-0.121-0.065-0.167-0.217-0.101-0.339c0.065-0.122,0.218-0.165,0.339-0.101l2.344,1.269c0.066,0.036,0.112,0.099,0.126,0.173
			c0.014,0.074-0.006,0.15-0.054,0.208l-1.716,2.039C12.782,34.931,12.711,34.961,12.64,34.961z"/>
	</g>
	<g>
		<path d="M32.383,42.623c-0.079,0-0.157-0.038-0.206-0.108l-3.117-4.522l-5.246,1.605c-0.132,0.04-0.271-0.035-0.313-0.166
			c-0.04-0.132,0.034-0.272,0.166-0.313l5.421-1.659c0.106-0.032,0.217,0.008,0.279,0.097l3.221,4.673
			c0.078,0.114,0.049,0.27-0.064,0.348C32.481,42.609,32.432,42.623,32.383,42.623z"/>
		<path d="M24.926,50.115c-0.027,0-0.055-0.004-0.083-0.014c-0.13-0.045-0.199-0.188-0.153-0.318l7.171-20.571
			c0.045-0.13,0.188-0.2,0.318-0.153c0.13,0.045,0.199,0.188,0.153,0.318l-7.171,20.571C25.126,50.05,25.029,50.115,24.926,50.115z"
			/>
		<path d="M29.871,44.505c-0.079,0-0.157-0.038-0.206-0.108l-1.882-2.731l-3.167,0.97c-0.133,0.039-0.272-0.035-0.313-0.166
			c-0.04-0.132,0.034-0.272,0.166-0.313l3.342-1.023c0.104-0.032,0.217,0.007,0.279,0.097l1.986,2.882
			c0.078,0.114,0.049,0.27-0.064,0.348C29.97,44.491,29.92,44.505,29.871,44.505z"/>
		<path d="M27.061,49.099c-0.102,0-0.198-0.063-0.235-0.165l-0.805-2.215l-2.011,1.236c-0.116,0.072-0.271,0.036-0.344-0.082
			c-0.072-0.118-0.036-0.271,0.082-0.344l2.272-1.397c0.063-0.039,0.143-0.049,0.213-0.023c0.071,0.024,0.127,0.08,0.152,0.15
			l0.909,2.503c0.047,0.13-0.02,0.273-0.149,0.32C27.118,49.094,27.089,49.099,27.061,49.099z"/>
	</g>
	<g>
		<path d="M36.636,41.813c-0.019,0-0.037-0.002-0.056-0.006c-0.135-0.031-0.219-0.166-0.188-0.3l1.277-5.524
			c0.024-0.106,0.115-0.184,0.224-0.193l5.65-0.456c0.142-0.009,0.258,0.091,0.269,0.229c0.011,0.138-0.091,0.258-0.229,0.269
			l-5.468,0.441l-1.235,5.346C36.853,41.735,36.75,41.813,36.636,41.813z"/>
		<path d="M46.325,46.039c-0.07,0-0.14-0.029-0.189-0.087L31.908,29.457c-0.09-0.104-0.079-0.262,0.026-0.353
			c0.104-0.089,0.262-0.078,0.353,0.026l14.228,16.495c0.09,0.104,0.079,0.262-0.026,0.353
			C46.441,46.019,46.383,46.039,46.325,46.039z"/>
		<path d="M39.665,42.639c-0.019,0-0.037-0.002-0.056-0.006c-0.135-0.031-0.218-0.166-0.188-0.3l0.786-3.407
			c0.024-0.106,0.115-0.184,0.224-0.193l3.486-0.28c0.136-0.006,0.258,0.091,0.269,0.229c0.011,0.138-0.091,0.258-0.229,0.269
			l-3.303,0.265l-0.745,3.229C39.882,42.561,39.779,42.639,39.665,42.639z"/>
		<path d="M43.965,45.881c-0.135,0-0.246-0.107-0.25-0.243l-0.072-2.664c-0.002-0.075,0.03-0.147,0.087-0.196
			c0.057-0.049,0.134-0.068,0.207-0.057l2.622,0.464c0.136,0.024,0.227,0.154,0.203,0.29c-0.024,0.137-0.155,0.227-0.29,0.203
			l-2.32-0.411l0.063,2.357c0.003,0.138-0.105,0.253-0.243,0.257C43.969,45.881,43.967,45.881,43.965,45.881z"/>
	</g>
	<g>
		<path d="M44.991,31.747c-0.061,0-0.123-0.022-0.17-0.067l-4.146-3.869c-0.08-0.074-0.102-0.191-0.055-0.29l2.434-5.123
			c0.059-0.125,0.209-0.178,0.333-0.118c0.125,0.059,0.178,0.208,0.118,0.333l-2.355,4.958l4.012,3.745
			c0.101,0.094,0.106,0.252,0.012,0.353C45.125,31.72,45.058,31.747,44.991,31.747z"/>
		<path d="M32.097,29.544c-0.118,0-0.222-0.083-0.245-0.203c-0.026-0.136,0.063-0.267,0.199-0.292l21.4-4.078
			c0.136-0.024,0.267,0.063,0.292,0.199c0.026,0.136-0.063,0.267-0.198,0.292l-21.4,4.078
			C32.128,29.542,32.112,29.544,32.097,29.544z"/>
		<path d="M47.221,29.537c-0.061,0-0.123-0.022-0.17-0.067l-2.558-2.388c-0.08-0.074-0.102-0.191-0.055-0.29l1.501-3.157
			c0.059-0.125,0.209-0.177,0.333-0.118c0.125,0.059,0.178,0.208,0.118,0.333l-1.422,2.991l2.424,2.264
			c0.101,0.094,0.106,0.252,0.012,0.353C47.354,29.51,47.288,29.537,47.221,29.537z"/>
		<path d="M52.182,27.435c-0.041,0-0.082-0.01-0.119-0.03l-2.346-1.268c-0.066-0.036-0.113-0.099-0.127-0.173
			s0.006-0.15,0.054-0.208l1.712-2.043c0.09-0.105,0.246-0.119,0.352-0.031c0.106,0.088,0.12,0.246,0.031,0.352l-1.515,1.808
			l2.077,1.123c0.122,0.065,0.167,0.217,0.101,0.338C52.355,27.388,52.27,27.435,52.182,27.435z"/>
	</g>
	<g>
		<path d="M35.029,21.135c-0.081,0-0.158-0.039-0.206-0.108l-3.221-4.672c-0.078-0.114-0.049-0.27,0.064-0.348
			c0.113-0.078,0.269-0.05,0.348,0.064l3.117,4.522l5.247-1.604c0.134-0.04,0.271,0.035,0.313,0.166
			c0.04,0.132-0.034,0.272-0.166,0.313l-5.422,1.657C35.078,21.132,35.053,21.135,35.029,21.135z"/>
		<path d="M32.097,29.544c-0.027,0-0.055-0.004-0.082-0.014c-0.131-0.045-0.2-0.188-0.154-0.318L39.03,8.641
			c0.045-0.13,0.19-0.2,0.318-0.153c0.131,0.045,0.2,0.188,0.154,0.318l-7.169,20.571C32.297,29.479,32.201,29.544,32.097,29.544z"
			/>
		<path d="M36.309,17.465c-0.081,0-0.158-0.039-0.206-0.108l-1.987-2.88c-0.079-0.114-0.05-0.27,0.063-0.348
			c0.113-0.079,0.269-0.051,0.348,0.063l1.883,2.729l3.167-0.972c0.133-0.042,0.272,0.033,0.312,0.166
			c0.041,0.132-0.033,0.271-0.166,0.312l-3.342,1.026C36.358,17.461,36.333,17.465,36.309,17.465z"/>
		<path d="M38.041,12.49c-0.028,0-0.056-0.004-0.083-0.014c-0.071-0.024-0.126-0.08-0.152-0.15l-0.913-2.506
			c-0.047-0.129,0.02-0.273,0.149-0.32c0.131-0.047,0.273,0.02,0.32,0.149l0.808,2.218l2.011-1.234
			c0.119-0.072,0.272-0.035,0.344,0.082c0.072,0.118,0.036,0.271-0.082,0.344l-2.272,1.395C38.132,12.477,38.086,12.49,38.041,12.49
			z"/>
	</g>
</g>
<path d="M89.736,64.955l2.781,6.412l2.297-0.034l-0.217-14.751l-2.771,0.041l-0.014-0.963l-0.439,0.007l-0.307-0.765l0.266-0.004
	l-0.098-6.604L90.869,48.3l-0.158-10.774v-0.034c-0.006-0.128,0.025-0.308,0.049-0.345c0,0,0.014-0.007,0.049-0.007l1.982-0.029
	l-0.023-1.539l-1.98,0.029c-0.377,0.005-0.703,0.176-0.941,0.495c-0.395,0.531-0.393,1.267-0.385,1.466l0.158,10.756l-0.678,0.01
	l0.098,6.604l0.162-0.003l-0.283,0.774l-0.545,0.008l0.014,0.963l-0.199,0.003l-0.813-2.17l-3.123,0.046l-3.443-23.478l0.488,2.139
	l0.553-0.188l-0.6-2.61l0.186-0.003l-0.047-3.207l-9.436,0.139l-0.008-0.467l-0.447,0.007l-0.029-2.034l-0.004-0.202
	c-0.02-1.377-0.836-2.481-1.822-2.467c-0.984,0.015-1.771,1.142-1.752,2.519l0.004,0.202l0.029,2.034l-0.445,0.007l0.008,0.467
	l-10.85,0.159l0.047,3.165l-0.752,1.923l-0.002-0.201l-0.627,0.009l0.074,5.067l0.627-0.009l-0.055-3.667l1.182-3.014l-0.117-0.07
	l1.23-0.018L55.85,51.252l-1.703,0.025l-0.713-2.735l-3.12,0.045l0.019,1.3L43.73,49.89l-2.269,1.134l-9.66,0.143l0.006,0.439
	l-3.247,0.049l-0.005-0.109l-1.013-0.48l-0.876,5.789l-0.306,1.38l-0.223,0.003l0.058,3.906l0.759,1.803l-1.517,4.369l-1.545,0.023
	l-0.739-1.365l-0.732,0.011l-5.044-6.913l-2.234,0.746l0.727,2.686l-3.02,12.586l-1.327,1.217c0.138-0.479,0.217-0.997,0.221-1.542
	c1.099-0.699,1.848-2.228,1.821-3.993c-0.015-1.016-0.285-1.943-0.722-2.68c0.416-0.746,0.658-1.682,0.643-2.697
	c-0.035-2.404-1.49-4.33-3.25-4.305c-0.262,0.004-0.513,0.055-0.754,0.139c0.002-0.043,0.005-0.084,0.004-0.127
	c-0.021-1.414-0.878-2.549-1.912-2.533c-0.615,0.01-1.153,0.424-1.486,1.053c-0.938-0.473-2.158-0.479-3.398,0.035
	c1.24,6.08,3.578,11.754,6.796,16.809l1.896-0.029l-0.005,0.005l0.053,0.439l10.288-2.69l1.875-0.139l5.922-5.093l2.904-8.001
	l1.982-0.028l0.007,0.44l3.956-0.059c-0.722,1.494-1.126,3.168-1.1,4.939c0.09,6.077,5.089,10.933,11.167,10.844
	c6.079-0.09,10.932-5.09,10.844-11.168c-0.07-4.756-3.154-8.752-7.402-10.227l5.092-0.075L61,71.83l5.473-0.139l1.572-7.008
	c-0.123,0.686-0.186,1.393-0.176,2.115c0.09,6.076,5.088,10.932,11.166,10.842c6.078-0.089,10.934-5.089,10.844-11.166
	C89.867,65.957,89.811,65.451,89.736,64.955z M24.363,71.409l-1.098,0.519l0.173-1.112l0.387-0.995l1.095-0.016L24.363,71.409z
	 M31.595,55.953l-1.889,2.227l-0.732,0.012l-0.017-1.154l-0.245-1.097l-0.115-3.244l3.225-0.048l0.007,0.441l5.663-0.082
	L31.595,55.953z M34.385,60.882l-0.663,0.01l0.656-0.445L34.385,60.882z M50.408,55.051l-1.851,0.027l-0.42,1.004
	c-0.011,0-0.021-0.002-0.032-0.002c-3.487,0.052-6.566,1.725-8.545,4.286l-5.175,0.076l9.768-6.624l6.236-0.092L50.408,55.051
	L50.408,55.051z M59.037,51.16l-0.766-9.396l1.303-10.709l8.822-0.129l0.295,20.094L59.037,51.16z M68.189,64.027l1.855-8.265
	l6.277,0.171C72.305,56.887,69.16,60.035,68.189,64.027z M80.42,49.99l-8.961,0.133l-0.287-19.58l7.363-0.108l2.752,16.893
	L80.42,49.99z M82.023,56.09l3.908,0.106l1.586,3.649C86.129,58.082,84.223,56.746,82.023,56.09z"/>
</svg>